<svg xmlns="http://www.w3.org/2000/svg" xmlns:xlink="http://www.w3.org/1999/xlink" width="1680" height="509" viewBox="0 0 1680 509">
  <defs>
    <clipPath id="clip-aileron_numbers">
      <rect width="1680" height="509"/>
    </clipPath>
  </defs>
  <g id="aileron_numbers" clip-path="url(#clip-aileron_numbers)">
    <path id="Path_507" data-name="Path 507" d="M0,0H1688V509H0Z" fill="none"/>
    <path id="Path_509" data-name="Path 509" d="M35.1,58l-.06-41.4H32.82V38.62c0,5.4,0,11.82.12,17.22L9.3,16.6H5.82V58H8.1V35.92c0-5.4,0-11.76-.12-17.16L31.56,58ZM74.46,16.6H72.18V43.72A35.944,35.944,0,0,1,72,47.44c-.48,5.22-3.96,9.42-11.46,9.42-7.44,0-10.92-4.2-11.4-9.42a35.945,35.945,0,0,1-.18-3.72V16.6H46.68V43.66c0,1.02.06,2.28.18,3.96.48,6.48,4.98,11.22,13.68,11.22,8.76,0,13.26-4.74,13.74-11.22.12-1.68.18-2.94.18-3.96Zm50.16,0h-3.48L105.42,56.02,89.82,16.6H86.1V58h2.28V34.66c0-5.22,0-11.04-.12-16.08,1.86,4.98,4.2,10.92,6.24,16.02L103.92,58h2.88l9.42-23.34c2.1-5.16,4.38-11.1,6.24-16.14-.12,5.04-.06,10.92-.06,16.14V58h2.22Zm30.42,19.5c4.74-1.02,7.68-4.38,7.68-9.48,0-5.82-4.02-9.36-10.38-9.9-2.04-.12-3.12-.12-4.86-.12H136.62V58h12a36.635,36.635,0,0,0,4.38-.18c6-.48,11.28-4.26,11.28-11.1C164.28,41.02,161.16,37.24,155.04,36.1ZM138.9,18.58h8.7c1.44,0,2.46,0,3.78.06,4.5.24,8.88,2.34,8.88,8.28,0,5.82-4.26,7.98-8.58,8.34-1.32.06-2.34.12-3.3.12H138.9ZM152.28,55.9c-.78.06-1.8.12-2.76.12H138.9V37.36h10.26c.96,0,1.8,0,3.18.12,7.02.36,9.48,4.56,9.48,9.42C161.82,52.9,157.08,55.54,152.28,55.9Zm48.18.12H176.52V38.26h21.96V36.34H176.52V18.52h23.34V16.6H174.24V58h26.22Zm34.14-9.24c-.48-4.56-2.4-8.28-6.06-9.54a9.834,9.834,0,0,0,8.22-10.02c0-6.18-3.78-9.54-10.08-10.32a45.5,45.5,0,0,0-5.82-.3H209.94V58h2.28V38.32h9.18c.96,0,2.34,0,3.6.06,4.8.24,6.78,4.2,7.32,8.76A40.6,40.6,0,0,0,234.78,58h2.58C236.1,55.48,235.26,52.78,234.6,46.78ZM212.22,36.34V18.58h8.64a35.321,35.321,0,0,1,5.28.3c5.22.66,8.16,3.36,8.16,8.52,0,5.04-3.3,8.4-8.46,8.82-1.74.12-2.76.12-4.38.12Zm46.2-20.58c-7.08,0-13.08,4.38-13.08,10.68,0,6.48,4.2,9.12,12.72,11.4,8.1,2.22,11.46,4.5,11.46,10.2,0,5.28-4.8,8.82-11.1,8.82-6.36,0-11.7-3.48-12.6-9.9h-2.4c.9,7.98,7.2,11.88,14.94,11.88,7.8,0,13.62-4.74,13.62-11.16,0-6.6-4.26-9.66-12.96-12-7.8-2.16-11.22-4.02-11.22-9.6s5.4-8.34,10.44-8.34c5.7,0,9.84,3.54,10.74,9.66h2.4C270.6,20.98,266.34,15.76,258.42,15.76Z" transform="translate(684 106)" fill="#fff"/>
    <path id="Path_510" data-name="Path 510" d="M21.78,16.6H20.46a5.308,5.308,0,0,0-3,1.08L8.1,23.56v2.46l11.4-6.96V58h2.28Zm-4.86,85.8a12.672,12.672,0,0,0-10.56,5.28l-1.5,3.24c.36-17.1,6.12-21.18,12.54-21.18,5.4,0,8.58,2.82,9.78,8.7l.12.6h2.34l-.12-.6c-1.14-6.54-4.8-10.68-12.06-10.68-8.88,0-14.88,7.08-14.88,24.12,0,13.5,5.28,18.96,13.68,18.96,8.22,0,13.98-6.18,13.98-14.16C30.24,108.82,25.5,102.4,16.92,102.4Zm-.6,26.46c-7.02,0-11.04-5.7-11.04-12.84a11.217,11.217,0,0,1,11.34-11.64c6.96,0,11.1,5.34,11.1,12.48C27.72,123.58,23.22,128.86,16.32,128.86Z" transform="translate(487 241)" fill="#fff"/>
    <path id="Path_511" data-name="Path 511" d="M29.52,56.02H6.12l12.66-12.3c7.08-6.84,10.56-11.28,10.56-16.68,0-6.18-3.96-11.28-11.88-11.28-7.14,0-12.3,4.8-13.08,12.54l-.06.6H6.6l.06-.6c.66-6.48,4.68-10.56,10.68-10.56,6.12,0,9.48,4.2,9.48,9.48,0,4.5-2.4,7.98-9.6,15.06L2.7,56.56V58H29.52Zm.9,32.58H2.76v1.98H27.48L6.36,130H8.88L30.42,89.68Z" transform="translate(651 241)" fill="#fff"/>
    <path id="Path_512" data-name="Path 512" d="M20.76,36.4a10.629,10.629,0,0,0,8.46-10.26c0-5.94-4.14-10.38-11.64-10.38-7.08,0-12.3,4.38-13.02,11.82l-.06.6H6.78l.06-.6c.66-6.3,4.8-9.84,10.56-9.84,5.28,0,9.3,2.88,9.3,8.64,0,6-5.7,9.48-11.04,9.48H14.64v1.98h1.02c8.16,0,11.82,3.78,11.82,9.12,0,6.36-4.8,9.9-11.22,9.9-6.54,0-10.56-4.2-11.22-10.5l-.06-.6H2.7l.06.6c.84,8.34,6,12.48,13.38,12.48C23.88,58.84,30,54.34,30,46.9,30,40.9,26.46,37.48,20.76,36.4Zm.9,71.94a9.712,9.712,0,0,0,7.38-9.72c0-6.12-4.2-10.86-12.3-10.86-7.86,0-12.36,4.74-12.36,10.86a9.693,9.693,0,0,0,7.08,9.78C6,109.78,2.4,113.8,2.4,119.2c0,7.8,6.12,11.7,13.86,11.7,7.26,0,13.86-3.9,13.86-11.7C30.12,113.8,27.06,109.78,21.66,108.34ZM6.9,98.62c0-5.34,3.72-8.88,9.84-8.88s9.84,3.54,9.84,8.88c0,6-4.68,8.88-9.84,8.88S6.9,104.62,6.9,98.62Zm9.48,30.3c-5.94,0-11.46-3.12-11.46-9.66,0-5.58,4.08-9.78,11.58-9.78s11.1,4.2,11.1,9.78C27.6,125.8,22.02,128.92,16.38,128.92Z" transform="translate(817 241)" fill="#fff"/>
    <path id="Path_513" data-name="Path 513" d="M30.9,46.36V44.38H25.14V16.6H23.1L1.44,45.04v1.32H22.86V58h2.28V46.36Zm-8.04-1.98H4.44l13.5-17.76c2.1-2.7,3.78-4.98,4.92-6.78Zm-6.6,43.38c-8.22,0-13.92,6.18-13.92,14.16,0,7.8,4.74,14.28,13.32,14.28a12.487,12.487,0,0,0,10.5-5.28l1.5-3.12c-.42,16.56-6.12,21.06-12.42,21.06-5.4,0-8.64-2.82-9.84-8.76l-.12-.6H2.94l.06.6c1.2,6.6,4.86,10.74,12.12,10.74,8.94,0,14.88-7.5,14.88-24.12C30,93.22,24.72,87.76,16.26,87.76Zm-.3,26.46c-6.96,0-11.1-5.4-11.1-12.48,0-6.72,4.44-12,11.4-12,7.02,0,10.98,5.7,10.98,12.84C27.24,109.48,22.2,114.22,15.96,114.22Z" transform="translate(981 241)" fill="#fff"/>
    <path id="Path_514" data-name="Path 514" d="M16.98,31.72a13.465,13.465,0,0,0-8.22,2.64L6.42,37.24,9.48,18.76H29.16V16.78H7.56L3.9,40.36H6.12A10.894,10.894,0,0,1,16.68,33.7c6.24,0,10.5,4.5,10.5,11.58,0,7.86-5.52,11.58-11.22,11.58-6.12,0-9.78-3.96-10.5-9.6l-.06-.6H3.12l.06.6c.84,8.1,6.42,11.58,12.78,11.58,7.32,0,13.74-5.04,13.74-13.68C29.7,37.54,25.08,31.72,16.98,31.72Zm-.72,56.04c-10.26,0-14.04,9-14.04,21.54,0,12.42,3.78,21.54,14.04,21.54,10.32,0,14.04-9.06,14.04-21.54S26.58,87.76,16.26,87.76Zm0,41.1c-8.52,0-11.52-8.34-11.52-19.56,0-11.34,3-19.56,11.52-19.56,8.58,0,11.52,8.28,11.52,19.56S24.84,128.86,16.26,128.86Z" transform="translate(1146 241)" fill="#fff"/>
  </g>
</svg>
