<svg xmlns="http://www.w3.org/2000/svg" xmlns:xlink="http://www.w3.org/1999/xlink" width="1680" height="1353" viewBox="0 0 1680 1353">
  <defs>
    <clipPath id="clip-aileron_characterset">
      <rect width="1680" height="1353"/>
    </clipPath>
  </defs>
  <g id="aileron_characterset" clip-path="url(#clip-aileron_characterset)">
    <path id="Path_426" data-name="Path 426" d="M0,0H1688V1357.944H0Z" fill="none"/>
    <path id="Path_501" data-name="Path 501" d="M35.025,53.275,42.45,73h3.075l-19.5-51.75h-3.75L2.55,73H5.625L12.9,53.275ZM13.875,50.8l10.2-27.225L34.125,50.8ZM28.2,111.4c-2.1-.15-3.3-.15-5.775-.15H7.275V163H22.35a49.716,49.716,0,0,0,6.6-.3c8.175-.975,19.725-8.4,19.725-25.875C48.675,119.2,37.125,112.225,28.2,111.4Zm.375,48.75a43.506,43.506,0,0,1-6.375.375H10.125v-46.8H22.35a38.888,38.888,0,0,1,5.625.225c8.325.9,17.55,7.8,17.55,22.875C45.525,151.525,36.9,159.1,28.575,160.15Zm.225,69.3v2.475H44.925c0,14.25-10.125,19.65-18.075,19.65-11.1,0-19.95-8.325-19.95-24.45,0-15.525,9.75-24.45,20.85-24.45,9.9,0,15.675,6.075,17.325,14.25l.15.75h2.85l-.15-.75c-1.65-9.45-8.1-16.725-19.875-16.725-14.025,0-24.3,11.025-24.3,27.075,0,16.425,9.3,26.775,22.875,26.775,6.45,0,12.825-2.55,16.8-8.775l1.725-4.8V253h2.625V229.45Zm4.5,61.8H30.45V323.8c0,2.4,0,4.425-.15,6-.6,7.425-4.575,11.775-11.55,11.775-6.825,0-11.775-3.6-12.15-13.125l-.075-2.475H3.675l.075,2.475c.375,10.35,5.7,15.6,14.625,15.6,9.825,0,14.325-6.6,14.775-13.95.15-2.475.15-4.425.15-6.675Zm22.125,90h-4.35l-19.65,49.275-19.5-49.275H7.275V433h2.85V403.825c0-6.525,0-13.8-.15-20.1,2.325,6.225,5.25,13.65,7.8,20.025L29.55,433h3.6l11.775-29.175c2.625-6.45,5.475-13.875,7.8-20.175-.15,6.3-.075,13.65-.075,20.175V433h2.775ZM27.15,471.625a56.877,56.877,0,0,0-7.275-.375H7.275V523h2.85V500.35h9.75a57.215,57.215,0,0,0,7.275-.3c7.125-.975,12.75-5.55,12.75-14.55C39.9,476.725,34.425,472.525,27.15,471.625Zm-.3,25.875a47.987,47.987,0,0,1-6.825.375h-9.9V473.8h9.9a47.987,47.987,0,0,1,6.825.375c5.625.75,9.975,4.05,9.975,11.325C36.825,493.15,32.475,496.675,26.85,497.5ZM21.9,560.2c-8.85,0-16.35,5.475-16.35,13.35,0,8.1,5.25,11.4,15.9,14.25,10.125,2.775,14.325,5.625,14.325,12.75,0,6.6-6,11.025-13.875,11.025-7.95,0-14.625-4.35-15.75-12.375h-3c1.125,9.975,9,14.85,18.675,14.85,9.75,0,17.025-5.925,17.025-13.95,0-8.25-5.325-12.075-16.2-15-9.75-2.7-14.025-5.025-14.025-12s6.75-10.425,13.05-10.425c7.125,0,12.3,4.425,13.425,12.075h3C37.125,566.725,31.8,560.2,21.9,560.2ZM25.425,703l19.65-51.75H42L23.55,700.675,5.175,651.25H2.1L21.525,703Zm-2.55,69L41.25,741.25h-3.3L21.6,769.15,4.95,741.25H1.65L20.025,772v21h2.85Z" transform="translate(93 260)" fill="#0cb1f2"/>
    <path id="Path_506" data-name="Path 506" d="M30.075,73H33c-.45-5.025-.675-7.95-.675-12.075v-12.9c0-1.95,0-3.225-.15-5.175-.6-6.6-4.8-10.425-12.975-10.425-8.025,0-13.8,5.175-14.325,12.225H7.8c.825-6.9,5.925-9.825,11.4-9.825,6.225,0,9.675,3,10.125,8.325.15,1.65.15,3.225.15,5.025v1.8h-2.55C13.8,49.975,3.3,54.1,3.3,63.25c0,7.125,4.95,10.8,12.375,10.8,4.95,0,9.3-1.875,12-5.7l1.875-3.975ZM16.35,71.65c-6.6,0-9.9-3.225-9.9-8.55,0-8.475,11.625-11.475,23.025-10.725v5.1C29.475,65.125,24.225,71.65,16.35,71.65Zm20.325,36.225h-2.85V131.5l-2.25-4.575c-2.925-3.15-6.45-4.5-11.025-4.5-9.675,0-18.3,7.05-18.3,21.15,0,11.925,6.675,20.475,17.325,20.475,5.025,0,8.7-1.35,11.925-4.95l2.325-4.5V163h2.85Zm-16.8,53.775c-9.45,0-14.475-8.475-14.475-18.45,0-11.1,6.3-18.375,15.15-18.375,6.075,0,13.275,3.825,13.275,16.05V144.7C33.825,157.3,27.375,161.65,19.875,161.65Zm16.8,51.6h-2.85v8.25l-2.25-4.575c-2.925-3.15-6.45-4.5-11.025-4.5-9.675,0-18.3,7.05-18.3,21.15,0,11.925,6.675,20.475,17.325,20.475,5.025,0,8.7-1.35,11.925-4.95l2.325-4.5v1.35c0,3.075,0,4.875-.075,7.35-.225,8.1-4.95,13.575-13.875,13.575-6.6,0-12.15-2.85-13.05-9.75l-.075-.975H3.825l.15.975c1.125,8.85,7.5,12.225,15.75,12.225,10.425,0,16.575-6.225,16.875-15.825.075-2.475.075-5.55.075-10.875Zm-16.8,38.4c-9.45,0-14.475-8.475-14.475-18.45,0-11.1,6.3-18.375,15.15-18.375,6.075,0,13.275,3.825,13.275,16.05V234.7C33.825,247.3,27.375,251.65,19.875,251.65ZM6.3,293.05a2.176,2.176,0,0,0,0,4.35,2.175,2.175,0,0,0,0-4.35Zm1.425,10.425H4.875V348.7c0,1.125,0,1.95-.075,3-.225,4.125-2.7,5.1-6.825,4.425v2.4a17.1,17.1,0,0,0,2.7.225c3.9,0,6.675-2.1,6.975-6.675.075-1.35.075-2.625.075-4.125Zm48.45,100.5c-.825-7.2-4.8-11.55-11.925-11.55a12.427,12.427,0,0,0-9.9,4.425l-2.625,5.1c-1.35-6-5.175-9.525-11.55-9.525A12.578,12.578,0,0,0,10.2,396.85L8.25,401.2v-7.725H5.4V433H8.25V411.1c0-11.475,5.1-16.275,11.25-16.275,6,0,9,3.975,9.75,10.125a57.534,57.534,0,0,1,.3,6.825V433H32.4V411.1c0-11.475,5.025-16.275,11.25-16.275,6,0,9,3.975,9.675,10.125a57.535,57.535,0,0,1,.3,6.825V433h2.85V410.5A49.923,49.923,0,0,0,56.175,403.975ZM22.5,482.425c-5.025,0-8.7,1.35-11.925,4.95L8.25,491.8v-8.775H5.4V537.7H8.25V514.9l2.25,4.65c2.925,3.15,6.45,4.5,11.025,4.5,9.675,0,18.3-7.05,18.3-21.225C39.825,490.975,33.15,482.425,22.5,482.425Zm-.975,39.225c-6.075,0-13.275-3.825-13.275-16.05v-3.9c0-12.525,6.45-16.875,13.95-16.875,9.45,0,14.475,8.4,14.475,18.45C36.675,514.375,30.375,521.65,21.525,521.65ZM16.35,572.425c-7.425,0-12.6,4.5-12.6,10.875,0,6.75,5.475,9.375,11.925,10.95,8.775,2.1,11.85,4.35,11.85,9.375,0,5.25-4.8,8.025-10.5,8.025-6.075,0-10.95-2.7-12.15-10.35H1.95c.975,9,7.275,12.75,14.85,12.75,7.875,0,13.65-3.975,13.65-10.575,0-6.675-4.5-9.675-13.575-11.775-6.075-1.425-10.2-3.45-10.2-8.625s4.275-8.25,9.525-8.25c6,0,9.45,3.15,10.95,9.525h2.925C29.025,577.6,24.75,572.425,16.35,572.425Zm19.05,91.05H32.325L18.15,700.825,3.975,663.475H.75L16.2,703h3.75Zm-.6,90H31.575l-13.8,37.275-13.8-37.275H.75l15.6,40.5-1.125,2.85c-3.075,7.5-5.85,9.45-9.075,9.45a11.873,11.873,0,0,1-2.775-.225v2.475a14.818,14.818,0,0,0,2.775.225c4.875,0,8.325-2.4,13.125-14.925Z" transform="translate(1016 260)" fill="#0cb1f2"/>
    <path id="Path_502" data-name="Path 502" d="M30.3,45.625c5.925-1.275,9.6-5.475,9.6-11.85,0-7.275-5.025-11.7-12.975-12.375-2.55-.15-3.9-.15-6.075-.15H7.275V73h15a45.8,45.8,0,0,0,5.475-.225c7.5-.6,14.1-5.325,14.1-13.875C41.85,51.775,37.95,47.05,30.3,45.625Zm-20.175-21.9H21c1.8,0,3.075,0,4.725.075,5.625.3,11.1,2.925,11.1,10.35,0,7.275-5.325,9.975-10.725,10.425-1.65.075-2.925.15-4.125.15H10.125ZM26.85,70.375c-.975.075-2.25.15-3.45.15H10.125V47.2H22.95c1.2,0,2.25,0,3.975.15,8.775.45,11.85,5.7,11.85,11.775C38.775,66.625,32.85,69.925,26.85,70.375Zm13.2,90.15H10.125v-22.2h27.45v-2.4H10.125V113.65H39.3v-2.4H7.275V163H40.05Zm5.025,40.725h-2.85v25.125h-32.1V201.25H7.275V253h2.85V228.85h32.1V253h2.85ZM16.05,316.375,42.225,291.25H38.7L10.125,318.775V291.25H7.275V343h2.85V322l3.75-3.75L37.425,343H41.55ZM43.875,433,43.8,381.25H41.025v27.525c0,6.75,0,14.775.15,21.525l-29.55-49.05H7.275V433h2.85V405.4c0-6.75,0-14.7-.15-21.45L39.45,433Zm7.2,64.125c0-15.6-9.15-26.925-23.625-26.925-14.55,0-23.7,11.325-23.7,26.925,0,15.525,9.15,26.925,23.7,26.925a23.748,23.748,0,0,0,5.325-.525,22.213,22.213,0,0,1,5.1-.675c3.525,0,6.3.9,10.5,4.05l1.65-2.025c-3.525-3-6.375-4.425-10.575-4.575C48.3,514.825,51.075,505.9,51.075,497.125Zm-44.175,0c0-15.6,9.15-24.45,20.55-24.45,11.325,0,20.475,8.85,20.475,24.45,0,15.525-9.15,24.45-20.475,24.45C16.05,521.575,6.9,512.65,6.9,497.125ZM44.25,563.65v-2.4H2.475v2.4H21.9V613h2.85V563.65Zm19.95,87.6H61.275l-12.9,48.975L35.1,652H31.2L17.175,700.3,5.1,651.25H1.95L15.075,703H18.9l14.175-48.225L46.425,703H50.1ZM39.45,790.525H6.375L39,743.65v-2.4H5.025v2.475H35.7l-32.775,47.1V793H39.45Z" transform="translate(345 260)" fill="#0cb1f2"/>
    <path id="Path_508" data-name="Path 508" d="M22.5,32.425c-5.025,0-8.7,1.35-11.925,4.95L8.25,41.8V17.875H5.4V73H8.25V64.9l2.25,4.65c2.925,3.15,6.45,4.5,11.025,4.5,9.675,0,18.3-7.05,18.3-21.225C39.825,40.975,33.15,32.425,22.5,32.425ZM21.525,71.65C15.45,71.65,8.25,67.825,8.25,55.6V51.7c0-12.525,6.45-16.875,13.95-16.875,9.45,0,14.475,8.4,14.475,18.45C36.675,64.375,30.375,71.65,21.525,71.65Zm15.3,70.5c0-10.275-5.475-19.725-16.65-19.725-10.05,0-17.925,8.175-17.925,20.7,0,13.875,7.8,20.925,17.25,20.925,7.65,0,14.55-4.425,16.725-13.35H33.3c-1.95,7.5-7.65,10.95-13.65,10.95-6.9,0-13.95-4.8-14.4-17.625h31.5C36.825,143.05,36.825,142.525,36.825,142.15Zm-16.8-17.325c6.675,0,13.425,4.5,13.875,16.725H5.25C5.7,130.225,13.125,124.825,20.025,124.825Zm15.6,99.6c-.75-7.5-5.55-12-13.725-12a14.567,14.567,0,0,0-11.85,5.4l-1.8,4.125V197.5H5.4V253H8.25V231.1c0-11.325,6.375-16.2,13.35-16.2,7.125-.075,10.5,4.2,11.175,10.35a53.464,53.464,0,0,1,.3,6.375V253h2.85V230.95A49.923,49.923,0,0,0,35.625,224.425Zm-23.85,99.9L30.3,343h4.05L13.875,322.525,34.2,303.475H30.3l-22.05,21v-36.6H5.4V343H8.25V327.7Zm23.85,80.1c-.75-7.5-5.55-12-13.725-12a14.567,14.567,0,0,0-11.85,5.4l-1.8,4.125v-8.475H5.4V433H8.25V411.1c0-11.325,6.375-16.2,13.35-16.2,7.125,0,10.5,4.2,11.175,10.35a53.464,53.464,0,0,1,.3,6.375V433h2.85V410.95A49.924,49.924,0,0,0,35.625,404.425Zm1.125,78.6H33.9v8.625l-2.325-4.725c-2.925-3.15-6.45-4.5-11.025-4.5-9.675,0-18.3,7.05-18.3,21.15,0,11.925,6.675,20.475,17.325,20.475,5.025,0,8.7-1.35,11.925-4.95l2.4-4.65V537.7h2.85Zm-2.85,22.5-.075-.825c0,12.6-6.45,16.95-13.95,16.95-9.45,0-14.475-8.475-14.475-18.45,0-11.1,6.3-18.375,15.15-18.375,6.075,0,13.275,3.825,13.275,16.05l.075-.525ZM9.75,606.85c-.075-1.05-.075-2.025-.075-3.975v-26.85h7.65v-2.25H9.675v-8.4H6.825v8.4H1.95v2.25H6.825v26.7c0,2.25,0,3.6.15,5.25.3,3.825,2.325,5.55,6.225,5.55a36.411,36.411,0,0,0,4.2-.225v-2.25C11.775,611.875,10.05,610.75,9.75,606.85Zm44.7,56.625H51.375l-10.95,36.6L29.7,663.55H25.95L15.3,700.225,4.05,663.475H.75L13.35,703h3.825l10.65-36.525L38.475,703h3.45Zm-22.575,127.2H4.575l27-34.275V754H3.075v2.475H28.05L1.125,790.75V793h30.75Z" transform="translate(1268 260)" fill="#0cb1f2"/>
    <path id="Path_503" data-name="Path 503" d="M27.45,20.2c-13.575,0-23.7,11.025-23.7,27.075,0,16.425,9.3,26.775,22.725,26.775,12.675,0,19.2-7.8,20.925-17.4l.075-.75h-2.85l-.15.75c-1.725,8.475-7.35,14.925-17.85,14.925C15.75,71.575,6.9,63.25,6.9,47.125c0-15.525,9.6-24.45,20.325-24.45,9.825,0,15.6,6.075,17.25,14.25l.15.75h2.85l-.075-.75C45.675,27.475,39.225,20.2,27.45,20.2ZM10.125,113.65H39.3v-2.4H7.275V163h2.85V138.325h26.7v-2.4h-26.7Zm0,139.35V201.25H7.275V253ZM40.05,340.525H10.125V291.25H7.275V343H40.05ZM27.45,380.2c-14.55,0-23.7,11.325-23.7,26.925,0,15.525,9.15,26.925,23.7,26.925,14.475,0,23.625-11.4,23.625-26.925C51.075,391.525,41.925,380.2,27.45,380.2Zm0,51.375c-11.4,0-20.55-8.925-20.55-24.45,0-15.6,9.15-24.45,20.55-24.45,11.325,0,20.475,8.85,20.475,24.45C47.925,422.65,38.775,431.575,27.45,431.575Zm10.65,77.4c-.6-5.7-3-10.35-7.575-11.925C36.6,495.775,40.8,491.2,40.8,484.525c0-7.725-4.725-11.925-12.6-12.9a56.877,56.877,0,0,0-7.275-.375H7.275V523h2.85V498.4H21.6c1.2,0,2.925,0,4.5.075,6,.3,8.475,5.25,9.15,10.95A50.752,50.752,0,0,0,38.325,523H41.55C39.975,519.85,38.925,516.475,38.1,508.975Zm-27.975-13.05v-22.2h10.8a44.149,44.149,0,0,1,6.6.375c6.525.825,10.2,4.2,10.2,10.65,0,6.3-4.125,10.5-10.575,11.025-2.175.15-3.45.15-5.475.15ZM41.55,561.25H38.7v33.9a44.931,44.931,0,0,1-.225,4.65c-.6,6.525-4.95,11.775-14.325,11.775-9.3,0-13.65-5.25-14.25-11.775a44.931,44.931,0,0,1-.225-4.65v-33.9H6.825v33.825c0,1.275.075,2.85.225,4.95.6,8.1,6.225,14.025,17.1,14.025,10.95,0,16.575-5.925,17.175-14.025.15-2.1.225-3.675.225-4.95ZM24.075,676.975l19.05-25.725H39.6l-17.175,23.7L6.6,651.25H3.375l17.25,25.875L2.025,703h3.45l16.95-24,16.95,24h3.6ZM9.225,783.4l.45-42.15H6.225l.45,42.15Zm-1.275,6a2.325,2.325,0,1,0,0,4.65,2.325,2.325,0,1,0,0-4.65Z" transform="translate(607 260)" fill="#0cb1f2"/>
    <path id="Path_515" data-name="Path 515" d="M20.475,32.425c-9.9,0-18.225,7.875-18.225,20.85C2.25,66.7,10.05,74.05,19.8,74.05c8.25,0,14.7-4.8,16.35-13.05H33.225C31.8,67.9,26.4,71.65,20.025,71.65c-7.5,0-14.625-5.925-14.625-18.825C5.4,40.6,13.2,34.75,20.325,34.75c7.35,0,11.925,4.275,13.275,11.25h2.925C35.325,37.9,29.25,32.425,20.475,32.425ZM9.075,114.25c.45-3.825,3.075-6.225,8.7-4.95v-2.475a15.155,15.155,0,0,0-3.75-.375c-3.825,0-7.275,2.4-7.8,7.575-.15,1.5-.15,3-.15,4.2v5.55H1.8v2.4H6.075V163h2.85V126.175h8.1v-2.4h-8.1v-5.7A35.954,35.954,0,0,1,9.075,114.25Zm-2.25,88.8A2.175,2.175,0,1,0,9,205.225,2.177,2.177,0,0,0,6.825,203.05ZM8.25,253V213.475H5.4V253Zm-.225,34.875H5.175v45.6c0,2.625,0,3.975.075,5.475.15,3.45,1.95,4.425,4.425,4.425a11.562,11.562,0,0,0,2.775-.225V340.9c-3.225.375-4.2-.225-4.35-2.7-.075-1.125-.075-2.55-.075-4.8Zm13.05,104.55c-11.7,0-18.825,8.625-18.825,20.85,0,12.15,7.125,20.775,18.825,20.775S39.9,425.425,39.9,413.275C39.9,401.05,32.775,392.425,21.075,392.425Zm0,39.225c-8.4,0-15.675-6.15-15.675-18.375,0-12.3,7.275-18.45,15.675-18.45s15.75,6.15,15.75,18.45C36.825,425.5,29.475,431.65,21.075,431.65Zm-2.7,50.775A9.8,9.8,0,0,0,10.35,486.7l-2.1,4.8v-8.025H5.4V523H8.25V501.1c0-12,5.025-16.65,12.15-16.125V482.65A8.365,8.365,0,0,0,18.375,482.425Zm16.875,91.05H32.4v21.9c0,11.25-6.3,16.2-13.275,16.2S8.625,607.45,7.875,601.3a53.268,53.268,0,0,1-.3-6.225v-21.6H4.725v22.35a51.208,51.208,0,0,0,.3,6.6c.9,7.125,5.7,11.625,13.725,11.625a14.891,14.891,0,0,0,11.85-5.4l1.8-4.125V613h2.85ZM17.55,683.05,31.5,663.475H28.125l-12.15,17.7L4.05,663.475H.675l13.5,19.65L.075,703H3.45L15.9,685l12.225,18h3.45ZM9.225,783.4l.45-42.15H6.225l.45,42.15Zm-1.275,6a2.325,2.325,0,1,0,0,4.65,2.325,2.325,0,1,0,0-4.65Z" transform="translate(1530 260)" fill="#0cb1f2"/>
    <path id="Path_505" data-name="Path 505" d="M0,0V960" transform="translate(817.021 241.5)" fill="none" stroke="#094c84" stroke-width="2"/>
    <path id="Path_504" data-name="Path 504" d="M21.96,15.76C11.1,15.76,3,24.58,3,37.42c0,13.14,7.44,21.42,18.18,21.42,10.14,0,15.36-6.24,16.74-13.92l.06-.6H35.7l-.12.6C34.2,51.7,29.7,56.86,21.3,56.86c-8.7,0-15.78-6.66-15.78-19.56,0-12.42,7.68-19.56,16.26-19.56,7.86,0,12.48,4.86,13.8,11.4l.12.6h2.28l-.06-.6C36.54,21.58,31.38,15.76,21.96,15.76Zm56.88.84H76.56V36.7H50.88V16.6H48.6V58h2.28V38.68H76.56V58h2.28Zm34.2,25.62L118.98,58h2.46l-15.6-41.4h-3L87.06,58h2.46l5.82-15.78ZM96.12,40.24l8.16-21.78,8.04,21.78Zm58.5,6.54c-.48-4.56-2.4-8.28-6.06-9.54a9.834,9.834,0,0,0,8.22-10.02c0-6.18-3.78-9.54-10.08-10.32a45.5,45.5,0,0,0-5.82-.3H129.96V58h2.28V38.32h9.18c.96,0,2.34,0,3.6.06,4.8.24,6.78,4.2,7.32,8.76A40.6,40.6,0,0,0,154.8,58h2.58C156.12,55.48,155.28,52.78,154.62,46.78ZM132.24,36.34V18.58h8.64a35.321,35.321,0,0,1,5.28.3c5.22.66,8.16,3.36,8.16,8.52,0,5.04-3.3,8.4-8.46,8.82-1.74.12-2.76.12-4.38.12Zm56.7,5.88L194.88,58h2.46l-15.6-41.4h-3L162.96,58h2.46l5.82-15.78Zm-16.92-1.98,8.16-21.78,8.04,21.78Zm48.66-24.48c-10.86,0-18.96,8.82-18.96,21.66,0,13.14,7.44,21.42,18.18,21.42,10.14,0,15.36-6.24,16.74-13.92l.06-.6h-2.28l-.12.6c-1.38,6.78-5.88,11.94-14.28,11.94-8.7,0-15.78-6.66-15.78-19.56,0-12.42,7.68-19.56,16.26-19.56,7.86,0,12.48,4.86,13.8,11.4l.12.6h2.28l-.06-.6C235.26,21.58,230.1,15.76,220.68,15.76Zm55.74,2.76V16.6H243v1.92h15.54V58h2.28V18.52Zm33.72,37.5H286.2V38.26h21.96V36.34H286.2V18.52h23.34V16.6H283.92V58h26.22Zm34.14-9.24c-.48-4.56-2.4-8.28-6.06-9.54a9.834,9.834,0,0,0,8.22-10.02c0-6.18-3.78-9.54-10.08-10.32a45.5,45.5,0,0,0-5.82-.3H319.62V58h2.28V38.32h9.18c.96,0,2.34,0,3.6.06,4.8.24,6.78,4.2,7.32,8.76A40.6,40.6,0,0,0,344.46,58h2.58C345.78,55.48,344.94,52.78,344.28,46.78ZM321.9,36.34V18.58h8.64a35.321,35.321,0,0,1,5.28.3c5.22.66,8.16,3.36,8.16,8.52,0,5.04-3.3,8.4-8.46,8.82-1.74.12-2.76.12-4.38.12Zm59.52-20.58c-7.08,0-13.08,4.38-13.08,10.68,0,6.48,4.2,9.12,12.72,11.4,8.1,2.22,11.46,4.5,11.46,10.2,0,5.28-4.8,8.82-11.1,8.82-6.36,0-11.7-3.48-12.6-9.9h-2.4c.9,7.98,7.2,11.88,14.94,11.88,7.8,0,13.62-4.74,13.62-11.16,0-6.6-4.26-9.66-12.96-12-7.8-2.16-11.22-4.02-11.22-9.6s5.4-8.34,10.44-8.34c5.7,0,9.84,3.54,10.74,9.66h2.4C393.6,20.98,389.34,15.76,381.42,15.76ZM431.7,56.02H407.76V38.26h21.96V36.34H407.76V18.52H431.1V16.6H405.48V58H431.7Zm39.06-37.5V16.6H437.34v1.92h15.54V58h2.28V18.52Z" transform="translate(601 124)" fill="#0cb1f2"/>
  </g>
</svg>
