<svg xmlns="http://www.w3.org/2000/svg" xmlns:xlink="http://www.w3.org/1999/xlink" width="1680" height="1353" viewBox="0 0 1680 1353">
  <defs>
    <clipPath id="clip-arvo_characterset">
      <rect width="1680" height="1353"/>
    </clipPath>
  </defs>
  <g id="arvo_characterset" clip-path="url(#clip-arvo_characterset)">
    <path id="Path_426" data-name="Path 426" d="M0,0H1688V1357.944H0Z" fill="none"/>
    <path id="Path_471" data-name="Path 471" d="M38.086,65.7H42.7L38.306,53.1H16.956L12.671,65.7h5.713V72H.366V65.7H5.2L22.485,16.482h10.8L50.537,65.7H56.1V72H38.086ZM19.043,47.024H36.182L27.539,22.2ZM5.237,109.482H25.891a26.169,26.169,0,0,1,13.66,3.772,26.584,26.584,0,0,1,9.5,9.888,28.174,28.174,0,0,1,2.618,6.61,29.161,29.161,0,0,1,.916,7.343,29.674,29.674,0,0,1-.916,7.434,28.8,28.8,0,0,1-2.618,6.665,26.987,26.987,0,0,1-4.12,5.658,26.331,26.331,0,0,1-5.383,4.358A25.956,25.956,0,0,1,25.891,165H5.237v-6.3H10.51V115.818H5.237Zm12.451,6.335V158.7h8.643a16.024,16.024,0,0,0,7.233-1.685,18.928,18.928,0,0,0,5.914-4.6,22.078,22.078,0,0,0,3.992-6.848,24.117,24.117,0,0,0,1.465-8.478,23.455,23.455,0,0,0-1.465-8.35,21.753,21.753,0,0,0-3.992-6.757,18.7,18.7,0,0,0-5.914-4.523,16.317,16.317,0,0,0-7.233-1.648Zm30.4,142.4V247.087a18.863,18.863,0,0,1-3.479,5.035,19.37,19.37,0,0,1-4.651,3.534,22.271,22.271,0,0,1-5.475,2.087,25.356,25.356,0,0,1-5.914.7,26.917,26.917,0,0,1-10-1.813,22.947,22.947,0,0,1-8.295-5.768A26.822,26.822,0,0,1,4.6,241.484a33.03,33.03,0,0,1-1.959-11.316A31.915,31.915,0,0,1,4.6,218.962a28.259,28.259,0,0,1,5.493-9.192,25.459,25.459,0,0,1,8.423-6.152,25.2,25.2,0,0,1,10.6-2.234,24.594,24.594,0,0,1,9.064,1.5,25.292,25.292,0,0,1,6.482,3.644,29.343,29.343,0,0,1,4.3,4.083h3.552v6.519H44.641a18.388,18.388,0,0,0-6.5-6.592,16.84,16.84,0,0,0-9.064-2.344,16.747,16.747,0,0,0-7.727,1.794,18.827,18.827,0,0,0-6.024,4.834,22.733,22.733,0,0,0-3.9,6.995,24.972,24.972,0,0,0-1.392,8.35,25.967,25.967,0,0,0,1.538,9.045,20.3,20.3,0,0,0,3.918,6.775,19.334,19.334,0,0,0,5.878,4.3,17.455,17.455,0,0,0,7.745,1.7q7.031,0,11.536-3.424t6.3-10.675H31.421v-6.3H54.9V258.22ZM5.493,295.482H23.474v6.335H18.823V344.7a5.749,5.749,0,0,1-.385,1.886,20.585,20.585,0,0,1-.989,2.289,27.407,27.407,0,0,1-1.41,2.472q-.806,1.263-1.611,2.472-1.941,2.82-4.395,5.9l-6.3-.549q2.161-3.3,3.882-6.3.732-1.282,1.428-2.618t1.245-2.582a24.122,24.122,0,0,0,.9-2.325,6.2,6.2,0,0,0,.348-1.849V301.818H5.493ZM5.237,437.7H10.51V395.477H5.237v-6.995H22.815L40.43,436.419l17.834-47.937H74.927v6.995H69.69V437.7h5.237V444H56.909v-6.3h5.933V395.074L43.433,444H37.207L17.542,394.964V437.7h5.713V444H5.237Zm0,43.781H27.686a23.1,23.1,0,0,1,6.866.97,15.745,15.745,0,0,1,5.42,2.856,12.757,12.757,0,0,1,3.552,4.706,15.707,15.707,0,0,1,1.263,6.482,13.487,13.487,0,0,1-1.245,5.731,14.214,14.214,0,0,1-3.516,4.706,16.964,16.964,0,0,1-5.438,3.186,20.191,20.191,0,0,1-7.05,1.172H17.688V530.7h5.566V537H5.237v-6.3H10.51V487.818H5.237Zm12.451,6.335v17.468h10a12.281,12.281,0,0,0,3.827-.568,8.564,8.564,0,0,0,3-1.666,7.563,7.563,0,0,0,1.978-2.747,9.506,9.506,0,0,0,.714-3.809,8.245,8.245,0,0,0-2.49-6.39q-2.49-2.289-7.947-2.289Zm16,101.752a8.206,8.206,0,0,0-1.172-4.834,9.1,9.1,0,0,0-2.582-2.472,11.886,11.886,0,0,0-3.094-1.318,12.8,12.8,0,0,0-3.369-.458,16.645,16.645,0,0,0-4.871.641,10.339,10.339,0,0,0-3.461,1.74,7.258,7.258,0,0,0-2.069,2.563,7.084,7.084,0,0,0-.7,3.076,7.726,7.726,0,0,0,.861,3.9,7.19,7.19,0,0,0,2.179,2.38,11.289,11.289,0,0,0,2.911,1.41q1.593.513,3.058,1.025l7.4,2.417a35.393,35.393,0,0,1,5.878,2.417,16.085,16.085,0,0,1,4.266,3.2,12.664,12.664,0,0,1,2.618,4.266,16.059,16.059,0,0,1,.9,5.6,14.5,14.5,0,0,1-1.41,6.372,15.46,15.46,0,0,1-3.937,5.09,18.666,18.666,0,0,1-6.024,3.387,23.038,23.038,0,0,1-7.672,1.227,24.254,24.254,0,0,1-7.324-.97,16.077,16.077,0,0,1-5.109-2.6,13.593,13.593,0,0,1-3.314-3.717,20.337,20.337,0,0,1-1.941-4.285H2.93v-6.3h9.229a13.688,13.688,0,0,0,.861,5.75,7.806,7.806,0,0,0,2.4,2.8,11,11,0,0,0,3.662,1.685,18.136,18.136,0,0,0,4.688.568,15.914,15.914,0,0,0,4.486-.586,9.915,9.915,0,0,0,3.406-1.7,7.5,7.5,0,0,0,2.161-2.71,8.362,8.362,0,0,0,.751-3.607,7.241,7.241,0,0,0-.934-3.79,9.221,9.221,0,0,0-2.4-2.655,13.946,13.946,0,0,0-3.2-1.794q-1.74-.7-3.351-1.208l-8.02-2.271a23.529,23.529,0,0,1-4.816-2.051,14.258,14.258,0,0,1-3.735-3.04,12.8,12.8,0,0,1-2.4-4.193,16.723,16.723,0,0,1-.842-5.548,14.449,14.449,0,0,1,1.245-5.969,13.872,13.872,0,0,1,3.662-4.871,17.611,17.611,0,0,1,5.914-3.278,24.791,24.791,0,0,1,8-1.19,20.432,20.432,0,0,1,5.475.7,17.311,17.311,0,0,1,4.541,1.959,15.911,15.911,0,0,1,3.589,3.04,18.332,18.332,0,0,1,2.618,3.9h2.747v6.3ZM37.1,667.482H55.115v6.335h-4.8L32.336,723H22.266L4.541,673.818H-.366v-6.335H17.651v6.335H12.817l14.246,42.81,15.271-42.81H37.1Zm-35.229,93H19.885v6.335H14.612l10.437,17.834,11.169-17.834H30.432v-6.335H48.45v6.335H43.726l-15.6,23.657V809.7h5.713V816H15.82v-6.3h5.09V790.292L6.189,766.818H1.868Z" transform="translate(93 260)" fill="#0cb1f2"/>
    <path id="Path_476" data-name="Path 476" d="M25.964,68.484a19.638,19.638,0,0,1-4.779,3.3,13.362,13.362,0,0,1-5.951,1.282,14.342,14.342,0,0,1-5.109-.879,12.523,12.523,0,0,1-4.01-2.4A10.889,10.889,0,0,1,3.5,66.25a10.064,10.064,0,0,1-.934-4.285,11.943,11.943,0,0,1,.714-4.285,10.766,10.766,0,0,1,1.9-3.241,11.049,11.049,0,0,1,2.783-2.307,17,17,0,0,1,3.333-1.5,19.69,19.69,0,0,1,3.552-.806,26.612,26.612,0,0,1,3.461-.238q2.637,0,4.431.165A31.3,31.3,0,0,1,26,50.21l.037-3.113a9.5,9.5,0,0,0-.586-3.5A6.494,6.494,0,0,0,23.8,41.147,6.794,6.794,0,0,0,21.259,39.7a10.812,10.812,0,0,0-3.314-.476,22.041,22.041,0,0,0-3.3.238,24.548,24.548,0,0,0-2.948.623,20.341,20.341,0,0,0-2.527.879,11.6,11.6,0,0,0-1.959,1.044L4.98,37.283a24.308,24.308,0,0,1,2.966-1.63,24.891,24.891,0,0,1,3.387-1.282,30.067,30.067,0,0,1,3.625-.842,21.926,21.926,0,0,1,3.644-.311,20.715,20.715,0,0,1,5.933.787A11.477,11.477,0,0,1,29,36.441a10.785,10.785,0,0,1,2.82,4.193,16.843,16.843,0,0,1,.989,6.1L32.776,65.7h4.211V72H25.964Zm-9.229-1.135a11.429,11.429,0,0,0,2.71-.33,13.534,13.534,0,0,0,4.8-2.216,10.3,10.3,0,0,0,1.721-1.556L26,54.678h-7.91a13.842,13.842,0,0,0-3.607.439,8.8,8.8,0,0,0-2.82,1.282,5.934,5.934,0,0,0-1.849,2.087,6.013,6.013,0,0,0-.659,2.856A5.868,5.868,0,0,0,9.7,63.962a5.115,5.115,0,0,0,1.556,1.868,7.159,7.159,0,0,0,2.4,1.135A11.534,11.534,0,0,0,16.736,67.349Zm9.3,40.668H38.013V158.7h5.566V165H31.2v-3.113a13.244,13.244,0,0,1-4.248,2.911,13.734,13.734,0,0,1-5.493,1.044,18.961,18.961,0,0,1-7.159-1.337,16.075,16.075,0,0,1-5.75-3.918,18.219,18.219,0,0,1-3.809-6.335,24.9,24.9,0,0,1-1.373-8.588,23.165,23.165,0,0,1,1.318-8,17.558,17.558,0,0,1,3.735-6.152,16.759,16.759,0,0,1,5.823-3.955,19.641,19.641,0,0,1,7.581-1.41,19.491,19.491,0,0,1,5.017.6,13.3,13.3,0,0,1,4.358,2.106V114.316H26.038Zm-3.7,51.892a12.713,12.713,0,0,0,5.09-.9,11.754,11.754,0,0,0,3.772-2.692v-21.24a11.47,11.47,0,0,0-4.211-2.234,17.272,17.272,0,0,0-4.871-.7,11.549,11.549,0,0,0-4.541.9,10.676,10.676,0,0,0-3.717,2.618,12.424,12.424,0,0,0-2.509,4.211,16.5,16.5,0,0,0-.916,5.713,19.824,19.824,0,0,0,.879,6.189,12.88,12.88,0,0,0,2.454,4.486,10.061,10.061,0,0,0,3.772,2.728A12.35,12.35,0,0,0,22.339,159.91Zm9.082,94.758a13.4,13.4,0,0,1-4.34,3.076,13.707,13.707,0,0,1-5.621,1.1,18.961,18.961,0,0,1-7.159-1.337,16.075,16.075,0,0,1-5.75-3.918,18.219,18.219,0,0,1-3.809-6.335,24.9,24.9,0,0,1-1.373-8.588,23.165,23.165,0,0,1,1.318-8,17.558,17.558,0,0,1,3.735-6.152,16.759,16.759,0,0,1,5.823-3.955,19.641,19.641,0,0,1,7.581-1.41,19.084,19.084,0,0,1,5.145.641A13.931,13.931,0,0,1,31.421,222v-1.941h6.812V256.5q0,9.009-4.266,13.623t-13.275,4.614a30.826,30.826,0,0,1-4.138-.293,27.168,27.168,0,0,1-4.266-.934,26.81,26.81,0,0,1-4.1-1.63,18.079,18.079,0,0,1-3.68-2.417l3.662-5.53a15.737,15.737,0,0,0,2.509,1.758,18.388,18.388,0,0,0,3.021,1.373,23.077,23.077,0,0,0,3.333.9,18.265,18.265,0,0,0,3.442.33,18.063,18.063,0,0,0,4.889-.586,7.063,7.063,0,0,0,3.406-2.069,9.45,9.45,0,0,0,2-4.01,25.969,25.969,0,0,0,.659-6.409Zm-9.082-1.758a13.356,13.356,0,0,0,3.076-.33,13.056,13.056,0,0,0,2.527-.861,9.681,9.681,0,0,0,2-1.227,9.924,9.924,0,0,0,1.483-1.465V228.264a11.372,11.372,0,0,0-4.3-2.38,17.263,17.263,0,0,0-5-.732,11.549,11.549,0,0,0-4.541.9,10.676,10.676,0,0,0-3.717,2.618,12.424,12.424,0,0,0-2.509,4.211,16.5,16.5,0,0,0-.916,5.713,19.824,19.824,0,0,0,.879,6.189,12.88,12.88,0,0,0,2.454,4.486,10.061,10.061,0,0,0,3.772,2.728A12.35,12.35,0,0,0,22.339,252.91ZM3.076,313.061h12.3V353.93a19.144,19.144,0,0,1-.842,5.878,12.719,12.719,0,0,1-2.435,4.468,10.934,10.934,0,0,1-3.9,2.875,13.712,13.712,0,0,1-5.273,1.1l-.7-5.09a6.141,6.141,0,0,0,4.742-3.094,13.956,13.956,0,0,0,1.483-6.9v-33.8H3.076Zm4.5-13.44a3.951,3.951,0,0,1,.348-1.648,4.552,4.552,0,0,1,.934-1.355,4.485,4.485,0,0,1,1.373-.934,4.166,4.166,0,0,1,1.7-.348,4.077,4.077,0,0,1,1.666.348,4.485,4.485,0,0,1,1.373.934,4.552,4.552,0,0,1,.934,1.355,3.951,3.951,0,0,1,.348,1.648,4.3,4.3,0,0,1-.348,1.721,4.656,4.656,0,0,1-.934,1.41,4.331,4.331,0,0,1-1.373.952,4.077,4.077,0,0,1-1.666.348,4.166,4.166,0,0,1-1.7-.348,4.331,4.331,0,0,1-1.373-.952,4.656,4.656,0,0,1-.934-1.41A4.3,4.3,0,0,1,7.581,299.621ZM3.662,406.061H15.747v4.431h.073a30.192,30.192,0,0,1,2.618-2,20.234,20.234,0,0,1,2.875-1.63,17.3,17.3,0,0,1,3.131-1.1,14.066,14.066,0,0,1,3.387-.4,15.325,15.325,0,0,1,7.068,1.52,10.333,10.333,0,0,1,4.578,4.742q1.392-1.245,2.93-2.4a21.5,21.5,0,0,1,3.2-2,19.218,19.218,0,0,1,3.5-1.355,14.059,14.059,0,0,1,3.809-.513,16.97,16.97,0,0,1,5.53.842,10.737,10.737,0,0,1,4.175,2.563,11.069,11.069,0,0,1,2.618,4.413,20.147,20.147,0,0,1,.9,6.354V437.7h5.273V444H53.687v-6.3h5.347V420.379q0-4.358-2.2-6.61a8.453,8.453,0,0,0-6.335-2.252,12.015,12.015,0,0,0-5.017,1.172,15.289,15.289,0,0,0-4.395,2.966V437.7h5.237V444H28.638v-6.3h5.347V420.379q0-4.358-2.216-6.61a8.516,8.516,0,0,0-6.354-2.252,11.211,11.211,0,0,0-4.8,1.135,24.077,24.077,0,0,0-4.578,2.82V437.7h5.347V444H3.662v-6.3H8.936V412.359H3.662Zm-1.5,93H14.246v3.149a20.776,20.776,0,0,1,5.273-2.966,16.29,16.29,0,0,1,5.9-1.1,16.589,16.589,0,0,1,6.848,1.392,15.672,15.672,0,0,1,5.365,3.918,17.957,17.957,0,0,1,3.5,6.061,23.4,23.4,0,0,1,1.245,7.819,23.965,23.965,0,0,1-1.392,8.35,19.311,19.311,0,0,1-3.864,6.464,17.436,17.436,0,0,1-5.878,4.193,18.315,18.315,0,0,1-7.471,1.5,19.91,19.91,0,0,1-5.145-.6,26.507,26.507,0,0,1-4.3-1.556V547.95h5.933v6.3H2.234v-6.3h5.2v-42.59H2.161Zm21.46,5.09a12.559,12.559,0,0,0-5.072,1.062,13.014,13.014,0,0,0-4.23,2.93v20.544a10.869,10.869,0,0,0,3.461,2.234,14.009,14.009,0,0,0,5.621.989,11.431,11.431,0,0,0,4.5-.916,10.8,10.8,0,0,0,3.809-2.728,13.585,13.585,0,0,0,2.637-4.486,17.794,17.794,0,0,0,.989-6.189,16.2,16.2,0,0,0-.934-5.713,12.658,12.658,0,0,0-2.527-4.211,10.676,10.676,0,0,0-3.717-2.618A11.549,11.549,0,0,0,23.621,504.151Zm1.941,98.09a4.642,4.642,0,0,0-.714-2.618A5.664,5.664,0,0,0,23,597.865a8.525,8.525,0,0,0-2.527-.989,12.4,12.4,0,0,0-2.71-.311,10.357,10.357,0,0,0-2.692.33,6.548,6.548,0,0,0-2.106.952,4.527,4.527,0,0,0-1.373,1.52,4.066,4.066,0,0,0-.494,2,4.01,4.01,0,0,0,1.154,3.021,10.79,10.79,0,0,0,3.864,2.069l7.288,2.563a14.334,14.334,0,0,1,6.848,4.285,10.078,10.078,0,0,1,2.161,6.482,10.6,10.6,0,0,1-1.007,4.633A10.181,10.181,0,0,1,28.546,628a13.594,13.594,0,0,1-4.449,2.307,19.094,19.094,0,0,1-5.786.824,15.8,15.8,0,0,1-7.214-1.428,10.8,10.8,0,0,1-4.285-3.772H3v-6.3h7.581a5.1,5.1,0,0,0,.677,2.692,5.421,5.421,0,0,0,1.794,1.813,8.323,8.323,0,0,0,2.527,1.025,12.587,12.587,0,0,0,2.875.33,10.72,10.72,0,0,0,2.747-.348,7.607,7.607,0,0,0,2.325-1.025,5.325,5.325,0,0,0,1.593-1.63,4.039,4.039,0,0,0,.586-2.161,4.409,4.409,0,0,0-1.19-3.113,10.281,10.281,0,0,0-4.047-2.307L13.22,612.2a15.485,15.485,0,0,1-6.573-4.01,8.9,8.9,0,0,1-2.142-6.1,11.024,11.024,0,0,1,.9-4.468A9.891,9.891,0,0,1,8,594.093a12.351,12.351,0,0,1,4.156-2.325,17.218,17.218,0,0,1,5.6-.842,17.892,17.892,0,0,1,6.812,1.135,12.473,12.473,0,0,1,4.944,3.882h3.552v6.3ZM.732,685.061h13.11v6.3H10.291l9.375,26.147,9.155-26.147H26.514v-6.3H38.525v6.3H35.266L22.852,723.586H16.113L3.735,691.359h-3Zm.4,93H15.527v6.3h-4.5l8.9,24.207,9.3-24.207H24.756v-6.3H39.148v6.3H35.229L18.347,826.95h5.2v6.3H8.24v-6.3h4.614l4.028-10.437L4.211,784.359H1.135Z" transform="translate(1016 260)" fill="#0cb1f2"/>
    <path id="Path_472" data-name="Path 472" d="M5.237,65.7H10.51V22.818H5.237V16.409l24.976.073a16,16,0,0,1,6.335,1.263,16.351,16.351,0,0,1,5.164,3.442,16.122,16.122,0,0,1,4.724,11.517,11.336,11.336,0,0,1-1.978,6.482,13.823,13.823,0,0,1-5.64,4.688,17.594,17.594,0,0,1,3.259,2.216,14.307,14.307,0,0,1,2.49,2.765,12.974,12.974,0,0,1,1.593,3.186,10.712,10.712,0,0,1,.568,3.442A16.558,16.558,0,0,1,42,67.2a16.2,16.2,0,0,1-5.145,3.516A15.67,15.67,0,0,1,30.542,72H5.237ZM17.688,47.317V65.7H30.615a6.339,6.339,0,0,0,3.259-.879,9.588,9.588,0,0,0,2.637-2.289,11.139,11.139,0,0,0,2.417-6.866,7.665,7.665,0,0,0-.659-3.113,9.208,9.208,0,0,0-1.776-2.673,8.479,8.479,0,0,0-2.637-1.868,7.693,7.693,0,0,0-3.241-.7Zm0-24.5V40.945h12.6a7.779,7.779,0,0,0,3.278-.7A8.479,8.479,0,0,0,36.2,38.382a9.067,9.067,0,0,0,1.776-2.71,8.009,8.009,0,0,0,.659-3.186,9.9,9.9,0,0,0-.659-3.534,10.654,10.654,0,0,0-1.794-3.094,9.357,9.357,0,0,0-2.655-2.2,6.583,6.583,0,0,0-3.241-.842ZM5.237,109.482H45.007v15.71H37.5v-9.375H17.688v17.761H34.351v6.3H17.688V158.7H37.5v-9.375h7.507V165H5.237v-6.3H10.51V115.818H5.237Zm39,93H62.256v6.3H56.982V251.7h5.273V258H44.238v-6.3H49.8V231.743H17.688V251.7h5.566V258H5.237v-6.3H10.51v-42.92H5.237v-6.3H23.254v6.3H17.688V225.59H49.8V208.781H44.238ZM42,301.818v-6.335H54.749v6.335H50.391L26.074,322.289,48.816,344.7h5.933V351H39.807v-6.3L17.761,322.655ZM5.31,295.482H23.328v6.335h-5.64V344.7h5.566V351H5.237v-6.3H10.51V301.818H5.31Zm34.277,93H57.6v6.335H52.881V444H43.506L17.688,397.967V437.7H23.4V444H5.383v-6.3H10.51V394.818H5.237v-6.409H20.178L45.52,434l.293-1.758V394.818H39.587Zm-14.026,149.4a24.818,24.818,0,0,1-9.357-3.186,25.891,25.891,0,0,1-7.251-6.317,28.715,28.715,0,0,1-4.669-8.734,32.454,32.454,0,0,1-1.648-10.4A32.126,32.126,0,0,1,4.6,497.962a28.046,28.046,0,0,1,5.493-9.174,25.8,25.8,0,0,1,8.423-6.152,25.378,25.378,0,0,1,10.748-2.252,25.426,25.426,0,0,1,19.226,8.4,27.963,27.963,0,0,1,5.457,9.174,32.4,32.4,0,0,1,1.941,11.279,31.887,31.887,0,0,1-1.7,10.492,28.921,28.921,0,0,1-4.779,8.752,26.341,26.341,0,0,1-7.361,6.317,24.4,24.4,0,0,1-9.448,3.113A15.144,15.144,0,0,1,36.4,539.38q1.428.842,3.589,1.923a9.588,9.588,0,0,0,4.321,1.08,6.742,6.742,0,0,0,3.717-1.044,4.981,4.981,0,0,0,2.142-3.2l5.566,2.527a8.933,8.933,0,0,1-1.63,3.607,11.246,11.246,0,0,1-2.783,2.6,12.228,12.228,0,0,1-3.424,1.556,13.274,13.274,0,0,1-3.589.513,13.672,13.672,0,0,1-5.292-1.025,56.374,56.374,0,0,1-5.182-2.49,10.943,10.943,0,0,0-5.2-1.465,10.6,10.6,0,0,0-3.076.476Zm3.7-6.592a17.179,17.179,0,0,0,7.892-1.794,18.674,18.674,0,0,0,6.024-4.816,22.051,22.051,0,0,0,3.845-7.013,26.652,26.652,0,0,0-.128-17.157,21.017,21.017,0,0,0-4.156-7.159,18.959,18.959,0,0,0-6.079-4.559,17.241,17.241,0,0,0-7.4-1.593,17.292,17.292,0,0,0-7.91,1.794,18.614,18.614,0,0,0-6.042,4.816,22.013,22.013,0,0,0-3.845,7.031,27.541,27.541,0,0,0,.128,17.45,20.2,20.2,0,0,0,3.937,6.72,20.227,20.227,0,0,0,6.1,4.486A17.07,17.07,0,0,0,29.26,531.287ZM16.589,623.7h5.09V580.488H9.009v8.643H1.5V574.482H51.013v14.648H43.506v-8.643H28.857V623.7H34.57V630H16.589Zm58.777,43.781H93.384v6.335H88.55L72.693,723H61.487L46.436,674.624,32.556,723H21.46L5.273,673.818H.366v-6.335H18.384v6.335H13.55l13.44,42.664,14.172-49h10.95l15.088,49,13.7-42.664h-5.53ZM42.59,768.686,9.155,809.7H35.193v-9.229h7.178V816H1.868v-8.313l32.959-40.869H9.668v9.375H2.49v-15.71h40.1Z" transform="translate(345 260)" fill="#0cb1f2"/>
    <path id="Path_478" data-name="Path 478" d="M2.087,15.018h12.3V37.21a20.776,20.776,0,0,1,5.273-2.966,16.29,16.29,0,0,1,5.9-1.1,16.589,16.589,0,0,1,6.848,1.392,15.672,15.672,0,0,1,5.365,3.918,17.957,17.957,0,0,1,3.5,6.061,23.4,23.4,0,0,1,1.245,7.819,23.507,23.507,0,0,1-1.392,8.295,19.212,19.212,0,0,1-3.864,6.39,16.913,16.913,0,0,1-5.878,4.12,18.916,18.916,0,0,1-7.471,1.447,16.629,16.629,0,0,1-5.292-.824,14.786,14.786,0,0,1-4.23-2.142V72H7.581V21.316H2.087Zm21.68,24.133a12.41,12.41,0,0,0-5.127,1.1,13.442,13.442,0,0,0-4.248,2.966v20.4a10.11,10.11,0,0,0,3.442,2.142,15.112,15.112,0,0,0,5.713.934,11.843,11.843,0,0,0,4.5-.879,10.6,10.6,0,0,0,3.809-2.655A13.224,13.224,0,0,0,34.5,58.743a17.485,17.485,0,0,0,.989-6.152,16.2,16.2,0,0,0-.934-5.713,12.658,12.658,0,0,0-2.527-4.211,10.676,10.676,0,0,0-3.717-2.618A11.549,11.549,0,0,0,23.767,39.151ZM10.107,146.909a16.864,16.864,0,0,0,.238,2.948,15.264,15.264,0,0,0,.677,2.545,10.536,10.536,0,0,0,4.34,5.511,12.564,12.564,0,0,0,6.757,1.849,20.335,20.335,0,0,0,5.768-.824,27.7,27.7,0,0,0,5.878-2.582l2.747,4.651A29.834,29.834,0,0,1,29,164.817a24.839,24.839,0,0,1-7.837,1.245,19.388,19.388,0,0,1-7.123-1.282,15.187,15.187,0,0,1-5.64-3.809,17.777,17.777,0,0,1-3.7-6.3,26.3,26.3,0,0,1-1.337-8.789A25.413,25.413,0,0,1,4.5,138.212a18.215,18.215,0,0,1,3.387-6.3,16.191,16.191,0,0,1,5.585-4.266,17.991,17.991,0,0,1,7.764-1.575,17.376,17.376,0,0,1,7.159,1.3,13.086,13.086,0,0,1,4.688,3.442,14.933,14.933,0,0,1,2.747,4.889,28.7,28.7,0,0,1,1.3,5.6q.183,1.392.238,2.82t.055,2.783Zm10.657-15.125a11.636,11.636,0,0,0-4.156.677,8.361,8.361,0,0,0-3.021,1.941,9.458,9.458,0,0,0-2,3.094,18.607,18.607,0,0,0-1.117,4.1H30.139a18.209,18.209,0,0,0-.677-3.918,8.616,8.616,0,0,0-1.63-3.113,7.337,7.337,0,0,0-2.82-2.051A10.864,10.864,0,0,0,20.764,131.785ZM4.175,201.018H16.187v23.218h.22a15.7,15.7,0,0,1,2.362-1.923,19.031,19.031,0,0,1,2.8-1.556,16.492,16.492,0,0,1,3.04-1.025,14.508,14.508,0,0,1,3.3-.366,16.848,16.848,0,0,1,5.493.842,10.737,10.737,0,0,1,4.175,2.563,11.415,11.415,0,0,1,2.655,4.413,19.417,19.417,0,0,1,.934,6.354V251.7h5.713V258H28.857v-6.3h5.2V234.379q0-4.358-2.216-6.61a8.516,8.516,0,0,0-6.354-2.252,11.288,11.288,0,0,0-4.761,1.117,22.429,22.429,0,0,0-4.541,2.8V251.7H21.68V258H3.662v-6.3H9.375V207.316h-5.2Zm-.806,93H16.736v6.3h-.073v28.345h6.592l9.009-9.3H29.993v-6.3H44.385v6.3h-4.8l-11.536,11.9,12.6,13.44h4.578V351h-8.02L21.68,334.044H16.663V344.7h3.149V351H3.589v-6.3H9.814V300.316H3.369ZM28.638,437.7h5.347V420.379q0-4.358-2.216-6.61a8.516,8.516,0,0,0-6.354-2.252,11.211,11.211,0,0,0-4.8,1.135,24.077,24.077,0,0,0-4.578,2.82V437.7h5.347V444H3.662v-6.3H8.936V412.359H3.662v-6.3H15.747v4.468h.073a28.54,28.54,0,0,1,2.582-2.014,19.222,19.222,0,0,1,2.875-1.648,17.3,17.3,0,0,1,3.131-1.1,14.222,14.222,0,0,1,3.424-.4,16.848,16.848,0,0,1,5.493.842,10.737,10.737,0,0,1,4.175,2.563,11.415,11.415,0,0,1,2.655,4.413,19.417,19.417,0,0,1,.934,6.354V437.7h5.273V444H28.638ZM25.562,547.95h5.493V534.034a13.448,13.448,0,0,1-4.211,2.8,13.7,13.7,0,0,1-5.383,1.007,18.961,18.961,0,0,1-7.159-1.337,16.075,16.075,0,0,1-5.75-3.918,18.219,18.219,0,0,1-3.809-6.335,24.9,24.9,0,0,1-1.373-8.588,23.165,23.165,0,0,1,1.318-8,17.558,17.558,0,0,1,3.735-6.152,16.759,16.759,0,0,1,5.823-3.955,19.641,19.641,0,0,1,7.581-1.41,18.654,18.654,0,0,1,4.944.6,14.783,14.783,0,0,1,4.285,2v-1.685h6.812V547.95h5.713v6.3H25.562Zm-3.223-16.04a12.236,12.236,0,0,0,5.273-1.025,11.053,11.053,0,0,0,3.442-2.417v-21.5A11.371,11.371,0,0,0,26.9,504.81a17.439,17.439,0,0,0-4.779-.659,11.549,11.549,0,0,0-4.541.9,10.569,10.569,0,0,0-3.717,2.637,12.631,12.631,0,0,0-2.509,4.23,16.382,16.382,0,0,0-.916,5.676,19.824,19.824,0,0,0,.879,6.189,12.88,12.88,0,0,0,2.454,4.486,10.061,10.061,0,0,0,3.772,2.728A12.35,12.35,0,0,0,22.339,531.91Zm-7.69,60.151h8.9v5.53H14.575l-.11,21.9a10.679,10.679,0,0,0,.513,3.625,3.227,3.227,0,0,0,1.648,1.923,5.98,5.98,0,0,0,2.563.531,11.953,11.953,0,0,0,2.71-.275,13,13,0,0,0,2.563-.934l1.575,4.578a18.618,18.618,0,0,1-3.7,1.447,17.47,17.47,0,0,1-4.578.531,14.006,14.006,0,0,1-4.34-.6,6.966,6.966,0,0,1-3.113-2.032,9.15,9.15,0,0,1-1.886-3.827,24.293,24.293,0,0,1-.623-5.988l.11-20.874H1.868v-5.53H7.983v-9.082l6.665-3.149Zm-13.916,93H12.744v6.3H10.986l6.628,24.207L26.7,685.061H32.41l8.679,30.432,6.921-24.133h-2.2v-6.3H57.825v6.3H54.565l-10.4,32.227h-6.3L29.26,693.3l-8.569,30.286H14.319L3.992,691.359H.732ZM2.783,811.789l19.226-28.052H9.888v5.347H3.149V778.061H30.286v4.321L11.1,810.287H24.06v-6.445h7.068V816H2.783Z" transform="translate(1268 260)" fill="#0cb1f2"/>
    <path id="Path_474" data-name="Path 474" d="M44.641,31.131a18.093,18.093,0,0,0-6.5-6.555,17.471,17.471,0,0,0-9.027-2.38A16.826,16.826,0,0,0,21.35,23.99a18.938,18.938,0,0,0-6.024,4.816,22.454,22.454,0,0,0-3.9,6.995,25.131,25.131,0,0,0-1.392,8.368,25.6,25.6,0,0,0,1.538,9.21,20.334,20.334,0,0,0,4.01,6.665,21.587,21.587,0,0,0,5.878,4.431,16.3,16.3,0,0,0,7.654,1.776,17.985,17.985,0,0,0,10.071-2.8q4.285-2.8,7.324-9.21l6.445,3.04a22.638,22.638,0,0,1-4.724,7.635,25.089,25.089,0,0,1-8.221,5.933A25.555,25.555,0,0,1,29.187,73.1,25.14,25.14,0,0,1,18.75,70.956a26.458,26.458,0,0,1-8.478-6.1A26.822,26.822,0,0,1,4.6,55.484,33.03,33.03,0,0,1,2.637,44.168,31.915,31.915,0,0,1,4.6,32.962a28.046,28.046,0,0,1,5.493-9.174,25.8,25.8,0,0,1,8.423-6.152,25.029,25.029,0,0,1,10.6-2.252A24.1,24.1,0,0,1,37.9,16.83a25.245,25.245,0,0,1,6.281,3.442,25.915,25.915,0,0,1,4.449,4.34h3.882v6.519Zm-39.4,78.352H45.007v15.71H37.5v-9.375H17.688v17.834h19.08V139.8H17.688v18.9h5.566V165H5.237v-6.3H10.51V115.818H5.237Zm0,93H22.961v6.335H17.688V251.7h5.273V258H5.237v-6.3H10.51V208.818H5.237Zm0,93H23.254v6.335H17.688V344.7H36.841a2.74,2.74,0,0,0,1.172-.275,4.159,4.159,0,0,0,1.062-.714,3.623,3.623,0,0,0,.769-1.007,2.49,2.49,0,0,0,.293-1.154v-6.995h6.958V351H5.237v-6.3H10.51V301.818H5.237ZM29.26,445.1a25.32,25.32,0,0,1-10.51-2.142A26.7,26.7,0,0,1,4.578,427.484a33.1,33.1,0,0,1-1.941-11.243A32.126,32.126,0,0,1,4.6,404.962a28.046,28.046,0,0,1,5.493-9.174,25.8,25.8,0,0,1,8.423-6.152,25.378,25.378,0,0,1,10.748-2.252,25.426,25.426,0,0,1,19.226,8.4,27.963,27.963,0,0,1,5.457,9.174,32.4,32.4,0,0,1,1.941,11.279A31.975,31.975,0,0,1,53.925,427.5a28.3,28.3,0,0,1-5.493,9.174,25.681,25.681,0,0,1-8.423,6.171A25.378,25.378,0,0,1,29.26,445.1Zm0-6.812a17.179,17.179,0,0,0,7.892-1.794,18.674,18.674,0,0,0,6.024-4.816,22.051,22.051,0,0,0,3.845-7.013,26.025,26.025,0,0,0,1.355-8.423,26.315,26.315,0,0,0-1.483-8.771,20.72,20.72,0,0,0-4.138-7.159,18.64,18.64,0,0,0-6.171-4.523A17.554,17.554,0,0,0,29.26,394.2a17.292,17.292,0,0,0-7.91,1.794,18.614,18.614,0,0,0-6.042,4.816,22.013,22.013,0,0,0-3.845,7.031,27.656,27.656,0,0,0,.146,17.542,19.865,19.865,0,0,0,3.973,6.665,21.794,21.794,0,0,0,5.9,4.449A16.513,16.513,0,0,0,29.26,438.287Zm-24.023,43.2H28.345a22.973,22.973,0,0,1,6.83.97,15.745,15.745,0,0,1,5.42,2.856,12.934,12.934,0,0,1,3.571,4.706,15.513,15.513,0,0,1,1.282,6.482,11.808,11.808,0,0,1-.751,4.12,14.279,14.279,0,0,1-2.087,3.772,15.877,15.877,0,0,1-3.168,3.094,14.491,14.491,0,0,1-3.992,2.087,8.339,8.339,0,0,1,1.849,1.154,10.5,10.5,0,0,1,1.758,1.831,14.911,14.911,0,0,1,1.5,2.454,15.1,15.1,0,0,1,1.08,2.948l3.076,12.085h4.8L49.585,537h-10.8l-4.138-16.882a13.244,13.244,0,0,0-3.461-6.683,9.016,9.016,0,0,0-6.354-2.142H17.688V530.7h5.566V537H5.237v-6.3H10.51V487.818H5.237Zm12.451,6.335v17.468H28.345a12.658,12.658,0,0,0,3.827-.549,8.341,8.341,0,0,0,3-1.648,7.6,7.6,0,0,0,1.978-2.728,9.374,9.374,0,0,0,.714-3.79,8.351,8.351,0,0,0-2.49-6.445q-2.49-2.307-7.91-2.307ZM4.138,574.482H22.119v6.335H16.443v25.854a26.337,26.337,0,0,0,1.044,7.928,14.511,14.511,0,0,0,2.893,5.347,10.981,10.981,0,0,0,4.395,3.021,15.822,15.822,0,0,0,5.585.952,18.933,18.933,0,0,0,5.786-.842,10.531,10.531,0,0,0,4.523-2.838,13.5,13.5,0,0,0,2.93-5.31,27.877,27.877,0,0,0,1.044-8.258V580.818H38.635v-6.335H56.616v6.335H51.672v25.049a31.5,31.5,0,0,1-1.666,10.657,22.662,22.662,0,0,1-4.559,7.8,19.115,19.115,0,0,1-6.812,4.779,21.713,21.713,0,0,1-8.423,1.63,20.968,20.968,0,0,1-8.221-1.611,18.8,18.8,0,0,1-6.665-4.724,22.551,22.551,0,0,1-4.468-7.6,29.984,29.984,0,0,1-1.63-10.272V580.818H4.138Zm30.652,93H52.808v6.335h-4.1L33.691,694.655,49.365,716.7h3.442V723H34.79v-6.3h6.775L29.7,700.185,17.761,716.7h6.482V723H6.226v-6.3H9.851l15.82-22.083-14.941-20.8h-4.5v-6.335H24.243v6.335H18.9l10.8,15.2,10.913-15.2H34.79ZM7.727,811.569a4.394,4.394,0,0,1,.385-1.813,4.967,4.967,0,0,1,1.025-1.5,4.9,4.9,0,0,1,1.52-1.025,4.609,4.609,0,0,1,1.868-.385,4.394,4.394,0,0,1,1.813.385,4.91,4.91,0,0,1,2.527,2.527,4.394,4.394,0,0,1,.385,1.813,4.609,4.609,0,0,1-.385,1.868,5.387,5.387,0,0,1-1.025,1.556,4.665,4.665,0,0,1-1.5,1.062,4.394,4.394,0,0,1-1.813.385,4.654,4.654,0,0,1-3.387-1.447,5.387,5.387,0,0,1-1.025-1.556A4.609,4.609,0,0,1,7.727,811.569Zm0-53.32h9.521l-1.5,42.737H9.229Z" transform="translate(607 260)" fill="#0cb1f2"/>
    <path id="Path_485" data-name="Path 485" d="M31.055,44.168a9.942,9.942,0,0,0-3.9-4.028,11.3,11.3,0,0,0-5.475-1.282,10.305,10.305,0,0,0-4.468.989,10.832,10.832,0,0,0-3.644,2.82,13.585,13.585,0,0,0-2.454,4.449,17.94,17.94,0,0,0-.9,5.841,17.327,17.327,0,0,0,.9,5.75,13.276,13.276,0,0,0,2.472,4.376,10.962,10.962,0,0,0,3.644,2.783,10.347,10.347,0,0,0,4.449.97,10.908,10.908,0,0,0,6.116-1.7,11.691,11.691,0,0,0,4.138-5l5.64,2.783a18.29,18.29,0,0,1-2.71,4.211,16.779,16.779,0,0,1-8.112,5.219,18.2,18.2,0,0,1-5.145.714A17.847,17.847,0,0,1,14.3,71.579a17.1,17.1,0,0,1-5.786-4.156,19.092,19.092,0,0,1-3.79-6.372,23.363,23.363,0,0,1-1.355-8.093A22.285,22.285,0,0,1,4.8,44.864,19.364,19.364,0,0,1,8.716,38.51a18.1,18.1,0,0,1,5.823-4.156,17.182,17.182,0,0,1,7.141-1.5A18.589,18.589,0,0,1,28.473,34.1a15.432,15.432,0,0,1,5.621,3.772h3.845v6.3ZM16.187,127.061h8.789v5.53H16.187V158.7h5.933V165H3.662v-6.3H9.375V132.59H3.113v-5.53H9.375v-5.933a18.264,18.264,0,0,1,.952-5.75,11.144,11.144,0,0,1,2.49-4.1,10.04,10.04,0,0,1,3.882-2.454,15.032,15.032,0,0,1,5.054-.806,29.675,29.675,0,0,1,3.479.183,21.064,21.064,0,0,1,2.747.494,18.633,18.633,0,0,1,2.142.677q.934.366,1.666.732L29.7,114.976a12.8,12.8,0,0,0-3.058-1.062,17.3,17.3,0,0,0-3.937-.439,6.18,6.18,0,0,0-4.779,1.886,7.915,7.915,0,0,0-1.74,5.548Zm-12.817,93H15.747V251.7H21.46V258H3.442v-6.3h5.42V226.359H3.369Zm4.211-13.44a4.394,4.394,0,0,1,.385-1.813,4.967,4.967,0,0,1,1.025-1.5,4.9,4.9,0,0,1,1.52-1.025,4.609,4.609,0,0,1,1.868-.385,4.394,4.394,0,0,1,1.813.385,4.91,4.91,0,0,1,2.527,2.527,4.394,4.394,0,0,1,.385,1.813,4.609,4.609,0,0,1-.385,1.868,5.387,5.387,0,0,1-1.025,1.556,4.665,4.665,0,0,1-1.5,1.062,4.394,4.394,0,0,1-1.813.385,4.654,4.654,0,0,1-3.387-1.447,5.387,5.387,0,0,1-1.025-1.556A4.609,4.609,0,0,1,7.581,206.621Zm-4.211,87.4h12.3V344.7h5.713V351H3.369v-6.3H8.862V300.316H3.369ZM3.149,425.03a23.408,23.408,0,0,1,1.447-8.2,18.813,18.813,0,0,1,3.937-6.354,17.208,17.208,0,0,1,6.006-4.083,19.967,19.967,0,0,1,7.654-1.428A20.2,20.2,0,0,1,29.9,406.39a17.038,17.038,0,0,1,5.988,4.047,18.483,18.483,0,0,1,3.882,6.317,24.712,24.712,0,0,1,0,16.351,19.053,19.053,0,0,1-3.882,6.39,17.308,17.308,0,0,1-5.988,4.156,19.547,19.547,0,0,1-7.709,1.483,19.821,19.821,0,0,1-7.764-1.465,17.258,17.258,0,0,1-5.969-4.12A18.885,18.885,0,0,1,4.578,433.2,23.583,23.583,0,0,1,3.149,425.03Zm7.214,0a17.574,17.574,0,0,0,.934,5.9,13.529,13.529,0,0,0,2.563,4.486,11.532,11.532,0,0,0,3.772,2.856,10.585,10.585,0,0,0,4.559,1.007,11.253,11.253,0,0,0,4.706-.989,11.022,11.022,0,0,0,3.79-2.838,13.462,13.462,0,0,0,2.527-4.486,18.015,18.015,0,0,0,.916-5.933,18.838,18.838,0,0,0-.916-6.116,12.961,12.961,0,0,0-2.509-4.468,10.312,10.312,0,0,0-3.79-2.71,12.159,12.159,0,0,0-4.724-.916,11.48,11.48,0,0,0-4.559.916,10.774,10.774,0,0,0-3.772,2.71,12.854,12.854,0,0,0-2.563,4.468A18.5,18.5,0,0,0,10.364,425.03Zm20.581,82.05H23.987v-2.344a7.23,7.23,0,0,0-2.472.458,7.669,7.669,0,0,0-2.362,1.392,8.792,8.792,0,0,0-1.923,2.38,10.88,10.88,0,0,0-1.19,3.424V530.7h6.445V537H3.662v-6.3H8.9l.037-25.342H3.662v-6.3H15.784V504.3a15.2,15.2,0,0,1,1.483-2.179,10.372,10.372,0,0,1,1.831-1.758,8.032,8.032,0,0,1,4.889-1.593h3.589q1.685,0,3.369.073Zm-4.431,84.98H38.745V623.7h4.211V630H31.9v-3.516a20.64,20.64,0,0,1-5.585,3.076,18.768,18.768,0,0,1-6.464,1.1,15.434,15.434,0,0,1-5.182-.824,9.829,9.829,0,0,1-3.955-2.563A11.681,11.681,0,0,1,8.2,622.859a20.5,20.5,0,0,1-.879-6.372V598.359H2.2v-6.3H14.429v23.621q0,4.358,2.014,6.592a7.39,7.39,0,0,0,5.786,2.234,15.188,15.188,0,0,0,4.706-.806,19.781,19.781,0,0,0,4.669-2.234V598.359h-5.09ZM25.415,716.7h2.161l-7.544-9.375L12.671,716.7h1.868V723H1.941v-6.3H5.017l11.536-13.44-10.84-11.9H1.868v-6.3h12.6v6.3H13.037l6.995,9.009,7.068-9.009H25.269v-6.3h12.6v6.3H34.607l-10.73,12.378L35.229,716.7h2.783V723h-12.6ZM7.727,811.569a4.394,4.394,0,0,1,.385-1.813,4.967,4.967,0,0,1,1.025-1.5,4.9,4.9,0,0,1,1.52-1.025,4.609,4.609,0,0,1,1.868-.385,4.394,4.394,0,0,1,1.813.385,4.91,4.91,0,0,1,2.527,2.527,4.394,4.394,0,0,1,.385,1.813,4.609,4.609,0,0,1-.385,1.868,5.387,5.387,0,0,1-1.025,1.556,4.665,4.665,0,0,1-1.5,1.062,4.394,4.394,0,0,1-1.813.385,4.654,4.654,0,0,1-3.387-1.447,5.387,5.387,0,0,1-1.025-1.556A4.609,4.609,0,0,1,7.727,811.569Zm0-53.32h9.521l-1.5,42.737H9.229Z" transform="translate(1530 260)" fill="#0cb1f2"/>
    <path id="Path_475" data-name="Path 475" d="M0,0V960" transform="translate(817.021 241.5)" fill="none" stroke="#094c84" stroke-width="2"/>
    <path id="Path_473" data-name="Path 473" d="M35.713,25.3a14.474,14.474,0,0,0-5.2-5.244,13.977,13.977,0,0,0-7.222-1.9,13.461,13.461,0,0,0-6.211,1.436,15.15,15.15,0,0,0-4.819,3.853,17.963,17.963,0,0,0-3.12,5.6,20.1,20.1,0,0,0-1.113,6.694A20.482,20.482,0,0,0,9.258,43.1a16.268,16.268,0,0,0,3.208,5.332,17.269,17.269,0,0,0,4.7,3.545A13.041,13.041,0,0,0,23.291,53.4a14.388,14.388,0,0,0,8.057-2.241,17.4,17.4,0,0,0,5.859-7.368l5.156,2.432a18.11,18.11,0,0,1-3.779,6.108,20.071,20.071,0,0,1-6.577,4.746,20.444,20.444,0,0,1-8.657,1.8A20.112,20.112,0,0,1,15,57.165a21.167,21.167,0,0,1-6.782-4.878,21.458,21.458,0,0,1-4.541-7.5,26.424,26.424,0,0,1-1.567-9.053A25.532,25.532,0,0,1,3.677,26.77a22.437,22.437,0,0,1,4.395-7.339,20.644,20.644,0,0,1,6.738-4.922,20.023,20.023,0,0,1,8.481-1.8,19.284,19.284,0,0,1,7.031,1.157,20.2,20.2,0,0,1,5.024,2.754,20.732,20.732,0,0,1,3.56,3.472h3.105V25.3ZM81.4,13.586H95.814v5.039H91.595V52.961h4.219V58H81.4V52.961h4.453V36.994H60.159V52.961h4.453V58H50.2V52.961h4.219V18.625H50.2V13.586H64.613v5.039H60.159V32.072H85.853V18.625H81.4Zm50.872,39.375h3.691l-3.516-10.078h-17.08L111.94,52.961h4.57V58H102.1V52.961h3.867l13.828-39.375h8.643l13.8,39.375h4.453V58H132.272ZM117.037,38.02h13.711l-6.914-19.863Zm35.931-24.434h18.486a18.378,18.378,0,0,1,5.464.776,12.6,12.6,0,0,1,4.336,2.285,10.348,10.348,0,0,1,2.856,3.765,12.41,12.41,0,0,1,1.025,5.186,9.447,9.447,0,0,1-.6,3.3,11.423,11.423,0,0,1-1.67,3.018,12.7,12.7,0,0,1-2.534,2.476,11.593,11.593,0,0,1-3.193,1.67,6.671,6.671,0,0,1,1.479.923,8.4,8.4,0,0,1,1.406,1.465,11.929,11.929,0,0,1,1.2,1.963,12.081,12.081,0,0,1,.864,2.358l2.461,9.668h3.838L188.447,58H179.8l-3.311-13.506a10.6,10.6,0,0,0-2.769-5.347,7.213,7.213,0,0,0-5.083-1.714h-5.713V52.961h4.453V58H152.968V52.961h4.219V18.654h-4.219Zm9.961,5.068V32.629h8.525a10.127,10.127,0,0,0,3.062-.439,6.673,6.673,0,0,0,2.4-1.318,6.078,6.078,0,0,0,1.582-2.183,7.5,7.5,0,0,0,.571-3.032A6.681,6.681,0,0,0,177.08,20.5q-1.992-1.846-6.328-1.846Zm60.833,34.307h3.691l-3.516-10.078h-17.08L203.43,52.961H208V58H193.587V52.961h3.867l13.828-39.375h8.643l13.8,39.375h4.453V58H223.762ZM208.528,38.02h13.711l-6.914-19.863ZM275.982,25.3a14.474,14.474,0,0,0-5.2-5.244,13.977,13.977,0,0,0-7.222-1.9,13.461,13.461,0,0,0-6.211,1.436,15.15,15.15,0,0,0-4.819,3.853,17.963,17.963,0,0,0-3.12,5.6,20.1,20.1,0,0,0-1.113,6.694,20.482,20.482,0,0,0,1.23,7.368,16.268,16.268,0,0,0,3.208,5.332,17.269,17.269,0,0,0,4.7,3.545,13.041,13.041,0,0,0,6.123,1.421,14.388,14.388,0,0,0,8.057-2.241,17.4,17.4,0,0,0,5.859-7.368l5.156,2.432a18.11,18.11,0,0,1-3.779,6.108,20.071,20.071,0,0,1-6.577,4.746,20.444,20.444,0,0,1-8.657,1.8,20.112,20.112,0,0,1-8.35-1.714,21.167,21.167,0,0,1-6.782-4.878,21.458,21.458,0,0,1-4.541-7.5,26.424,26.424,0,0,1-1.567-9.053,25.532,25.532,0,0,1,1.567-8.965,22.437,22.437,0,0,1,4.395-7.339,20.644,20.644,0,0,1,6.738-4.922,20.023,20.023,0,0,1,8.481-1.8,19.284,19.284,0,0,1,7.031,1.157,20.2,20.2,0,0,1,5.024,2.754,20.732,20.732,0,0,1,3.56,3.472h3.105V25.3ZM299.55,52.961h4.072V18.391H293.486V25.3H287.48V13.586h39.609V25.3h-6.006V18.391H309.364v34.57h4.57V58H299.55Zm34.73-39.375H366.1V26.154H360.09v-7.5h-15.85V32.863h13.33V37.9h-13.33V52.961h15.85v-7.5H366.1V58H334.28V52.961H338.5V18.654H334.28Zm39.476,0h18.486a18.378,18.378,0,0,1,5.464.776,12.6,12.6,0,0,1,4.336,2.285,10.348,10.348,0,0,1,2.856,3.765,12.41,12.41,0,0,1,1.025,5.186,9.447,9.447,0,0,1-.6,3.3,11.423,11.423,0,0,1-1.67,3.018,12.7,12.7,0,0,1-2.534,2.476,11.593,11.593,0,0,1-3.193,1.67,6.671,6.671,0,0,1,1.479.923,8.4,8.4,0,0,1,1.406,1.465,11.929,11.929,0,0,1,1.2,1.963,12.081,12.081,0,0,1,.864,2.358l2.461,9.668h3.838L409.234,58h-8.643l-3.311-13.506a10.6,10.6,0,0,0-2.769-5.347,7.213,7.213,0,0,0-5.083-1.714h-5.713V52.961h4.453V58H373.755V52.961h4.219V18.654h-4.219Zm9.961,5.068V32.629h8.525a10.127,10.127,0,0,0,3.062-.439,6.673,6.673,0,0,0,2.4-1.318,6.078,6.078,0,0,0,1.582-2.183,7.5,7.5,0,0,0,.571-3.032,6.681,6.681,0,0,0-1.992-5.156q-1.992-1.846-6.328-1.846Zm72.243,7a6.564,6.564,0,0,0-.937-3.867,7.283,7.283,0,0,0-2.065-1.978,9.509,9.509,0,0,0-2.476-1.055,10.239,10.239,0,0,0-2.7-.366,13.316,13.316,0,0,0-3.9.513,8.271,8.271,0,0,0-2.769,1.392,5.806,5.806,0,0,0-1.655,2.051,5.667,5.667,0,0,0-.557,2.461,6.181,6.181,0,0,0,.688,3.12,5.752,5.752,0,0,0,1.743,1.9,9.031,9.031,0,0,0,2.329,1.128q1.274.41,2.446.82l5.918,1.934a28.314,28.314,0,0,1,4.7,1.934,12.868,12.868,0,0,1,3.413,2.563,10.131,10.131,0,0,1,2.095,3.413,12.847,12.847,0,0,1,.718,4.482,11.6,11.6,0,0,1-1.128,5.1,12.368,12.368,0,0,1-3.149,4.072,14.933,14.933,0,0,1-4.819,2.71,18.43,18.43,0,0,1-6.138.981,19.4,19.4,0,0,1-5.859-.776,12.862,12.862,0,0,1-4.087-2.08,10.874,10.874,0,0,1-2.651-2.974,16.27,16.27,0,0,1-1.553-3.428H431.35V44.67h7.383a10.951,10.951,0,0,0,.688,4.6,6.245,6.245,0,0,0,1.919,2.241,8.8,8.8,0,0,0,2.93,1.348,14.509,14.509,0,0,0,3.75.454,12.731,12.731,0,0,0,3.589-.469,7.932,7.932,0,0,0,2.725-1.362,6,6,0,0,0,1.729-2.168,6.69,6.69,0,0,0,.6-2.886,5.793,5.793,0,0,0-.747-3.032A7.377,7.377,0,0,0,454,41.271a11.157,11.157,0,0,0-2.563-1.436q-1.392-.557-2.681-.967l-6.416-1.816a18.823,18.823,0,0,1-3.853-1.641A11.406,11.406,0,0,1,435.5,32.98a10.236,10.236,0,0,1-1.919-3.354,13.378,13.378,0,0,1-.674-4.438,11.559,11.559,0,0,1,1-4.775,11.1,11.1,0,0,1,2.93-3.9,14.089,14.089,0,0,1,4.731-2.622,19.833,19.833,0,0,1,6.4-.952,16.346,16.346,0,0,1,4.38.557,13.849,13.849,0,0,1,3.633,1.567,12.729,12.729,0,0,1,2.871,2.432,14.665,14.665,0,0,1,2.095,3.12h2.2v5.039Zm14.486-12.07h31.816V26.154h-6.006v-7.5h-15.85V32.863h13.33V37.9h-13.33V52.961h15.85v-7.5h6.006V58H470.445V52.961h4.219V18.654h-4.219ZM519,52.961h4.072V18.391H512.938V25.3h-6.006V13.586h39.609V25.3h-6.006V18.391H528.817v34.57h4.57V58H519Z" transform="translate(571 124)" fill="#0cb1f2"/>
  </g>
</svg>
