<svg xmlns="http://www.w3.org/2000/svg" xmlns:xlink="http://www.w3.org/1999/xlink" width="1680" height="509" viewBox="0 0 1680 509">
  <defs>
    <clipPath id="clip-arvo_numbers">
      <rect width="1680" height="509"/>
    </clipPath>
  </defs>
  <g id="arvo_numbers" clip-path="url(#clip-arvo_numbers)">
    <path id="Path_477" data-name="Path 477" d="M0,0H1688V509H0Z" fill="none"/>
    <path id="Path_479" data-name="Path 479" d="M31.67,13.586H46.084v5.068H42.3V58H34.8L14.15,21.174V52.961h4.57V58H4.307V52.961h4.1V18.654H4.189V13.527H16.143L36.416,50,36.65,48.6V18.654H31.67Zm21.019,0H67.073v5.068H62.532V39.338a21.07,21.07,0,0,0,.835,6.343,11.609,11.609,0,0,0,2.314,4.277A8.785,8.785,0,0,0,69.2,52.375a12.658,12.658,0,0,0,4.468.762,15.146,15.146,0,0,0,4.629-.674,8.424,8.424,0,0,0,3.618-2.271,10.8,10.8,0,0,0,2.344-4.248,22.3,22.3,0,0,0,.835-6.606V18.654h-4.8V13.586H94.671v5.068H90.716V38.693a25.2,25.2,0,0,1-1.333,8.525,18.129,18.129,0,0,1-3.647,6.24,15.292,15.292,0,0,1-5.449,3.823,17.371,17.371,0,0,1-6.738,1.3A16.774,16.774,0,0,1,66.971,57.3a15.038,15.038,0,0,1-5.332-3.779,18.041,18.041,0,0,1-3.574-6.079,23.987,23.987,0,0,1-1.3-8.218V18.654H52.689Zm48.089,39.375H105V19.182h-4.219v-5.6H114.84l14.092,38.35L143.2,13.586h13.33v5.6H152.34V52.961h4.189V58H142.116V52.961h4.746v-34.1L131.334,58h-4.98L110.621,18.771V52.961h4.57V58H100.778Zm65.931,0h4.219V18.654h-4.219V13.527l19.98.059a12.8,12.8,0,0,1,5.068,1.011,13.081,13.081,0,0,1,4.131,2.754,12.9,12.9,0,0,1,3.779,9.214,9.068,9.068,0,0,1-1.582,5.186,11.059,11.059,0,0,1-4.512,3.75,14.075,14.075,0,0,1,2.607,1.772,11.445,11.445,0,0,1,1.992,2.212,10.379,10.379,0,0,1,1.274,2.549,8.569,8.569,0,0,1,.454,2.754,13.247,13.247,0,0,1-3.779,9.375,12.961,12.961,0,0,1-4.116,2.813A12.536,12.536,0,0,1,186.953,58H166.709Zm9.961-14.707V52.961h10.342a5.071,5.071,0,0,0,2.607-.7,7.67,7.67,0,0,0,2.109-1.831,8.911,8.911,0,0,0,1.934-5.493,6.132,6.132,0,0,0-.527-2.49,7.366,7.366,0,0,0-1.421-2.139,6.783,6.783,0,0,0-2.109-1.494,6.155,6.155,0,0,0-2.593-.557Zm0-19.6v14.5h10.078a6.223,6.223,0,0,0,2.622-.557,6.783,6.783,0,0,0,2.109-1.494,7.253,7.253,0,0,0,1.421-2.168,6.407,6.407,0,0,0,.527-2.549,7.92,7.92,0,0,0-.527-2.827,8.523,8.523,0,0,0-1.436-2.476,7.486,7.486,0,0,0-2.124-1.758,5.267,5.267,0,0,0-2.593-.674Zm31.448-5.068h31.816V26.154h-6.006v-7.5h-15.85V32.863h13.33V37.9h-13.33V52.961h15.85v-7.5h6.006V58H208.118V52.961h4.219V18.654h-4.219Zm39.476,0H266.08a18.378,18.378,0,0,1,5.464.776,12.6,12.6,0,0,1,4.336,2.285,10.348,10.348,0,0,1,2.856,3.765,12.41,12.41,0,0,1,1.025,5.186,9.447,9.447,0,0,1-.6,3.3,11.423,11.423,0,0,1-1.67,3.018,12.7,12.7,0,0,1-2.534,2.476,11.593,11.593,0,0,1-3.193,1.67,6.671,6.671,0,0,1,1.479.923,8.4,8.4,0,0,1,1.406,1.465,11.929,11.929,0,0,1,1.2,1.963,12.081,12.081,0,0,1,.864,2.358l2.461,9.668h3.838L283.072,58H274.43l-3.311-13.506a10.6,10.6,0,0,0-2.769-5.347,7.213,7.213,0,0,0-5.083-1.714h-5.713V52.961h4.453V58H247.594V52.961h4.219V18.654h-4.219Zm9.961,5.068V32.629h8.525a10.127,10.127,0,0,0,3.062-.439,6.673,6.673,0,0,0,2.4-1.318,6.078,6.078,0,0,0,1.582-2.183,7.5,7.5,0,0,0,.571-3.032,6.681,6.681,0,0,0-1.992-5.156q-1.992-1.846-6.328-1.846Z" transform="translate(688 113)" fill="#fff"/>
    <path id="Path_480" data-name="Path 480" d="M7.09,52.961H11.4V20.471L2.4,25.363V19.24l12.363-6.914h2.344V52.961h4.365V58H7.09ZM23.877,88.586,13.916,105.2a10.552,10.552,0,0,1,3.237-.879q1.45-.117,2.593-.117a13.882,13.882,0,0,1,5.215,1.011,14.16,14.16,0,0,1,4.468,2.842,13.964,13.964,0,0,1,3.12,4.365A13.135,13.135,0,0,1,33.721,118a16.475,16.475,0,0,1-1.26,6.621,14.273,14.273,0,0,1-8.364,7.925,17.214,17.214,0,0,1-5.991,1.04A15.913,15.913,0,0,1,7.441,129.47a14.583,14.583,0,0,1-3.413-4.687A14.237,14.237,0,0,1,2.754,118.7a13.942,13.942,0,0,1,.981-5.1,49.692,49.692,0,0,1,2.446-5.273L17.051,88.586Zm-6.416,20.42a8.79,8.79,0,0,0-3.589.659,10.681,10.681,0,0,0-2.8,1.846,8.246,8.246,0,0,0-2.08,3.018,10.953,10.953,0,0,0-.762,4.233,10.516,10.516,0,0,0,.762,4.1,8.666,8.666,0,0,0,2.109,3.062,9.232,9.232,0,0,0,3.179,1.9,11.636,11.636,0,0,0,3.97.659,10.458,10.458,0,0,0,3.809-.7,9.666,9.666,0,0,0,5.391-5.068,9.368,9.368,0,0,0,.82-3.955,9.674,9.674,0,0,0-.879-4.233,8.969,8.969,0,0,0-2.358-3.062,9.992,9.992,0,0,0-3.442-1.846A13.731,13.731,0,0,0,17.461,109.006Z" transform="translate(491 248)" fill="#fff"/>
    <path id="Path_481" data-name="Path 481" d="M2.578,53.693,18.193,34.826q.791-.937,1.655-2.021A23.958,23.958,0,0,0,21.46,30.52a13.851,13.851,0,0,0,1.23-2.5,7.733,7.733,0,0,0,.483-2.71,6.577,6.577,0,0,0-.586-2.754,7.12,7.12,0,0,0-1.611-2.256,7.519,7.519,0,0,0-2.446-1.523,8.942,8.942,0,0,0-6.006-.073,6.932,6.932,0,0,0-2.388,1.421,7.042,7.042,0,0,0-1.655,2.329,8.375,8.375,0,0,0-.688,3.208H2.52A12.786,12.786,0,0,1,3.6,20.515a12.956,12.956,0,0,1,2.827-4.072,12.778,12.778,0,0,1,4.116-2.666,12.953,12.953,0,0,1,4.922-.952,14.754,14.754,0,0,1,5.42.952,12.428,12.428,0,0,1,4.16,2.622,11.678,11.678,0,0,1,2.681,3.955,12.744,12.744,0,0,1,.952,4.951,10.931,10.931,0,0,1-.249,2.241,12.986,12.986,0,0,1-.85,2.549A22.518,22.518,0,0,1,26,33.01a31.656,31.656,0,0,1-2.476,3.34L9.668,52.844H28.623V58H2.578Zm2.754,74.268H8.76q1.582-4.512,3.486-9.155t3.867-9.038q1.963-4.395,3.867-8.364t3.486-7.163H6.826v3.428H1.2V88.586h29.15V92.98q-1.934,3.809-4.043,8.071T22.134,109.8q-2.065,4.482-4,9.082t-3.516,9.082h3.691V133H5.332Z" transform="translate(655 248)" fill="#fff"/>
    <path id="Path_482" data-name="Path 482" d="M22.852,25.188a7.056,7.056,0,0,0-.483-2.446,7.263,7.263,0,0,0-1.494-2.4,8.017,8.017,0,0,0-2.549-1.816,8.482,8.482,0,0,0-3.618-.718,8.011,8.011,0,0,0-3.149.6A7.94,7.94,0,0,0,8.73,20.646a6.02,6.02,0,0,0-1.523,3.633H1.641a10.688,10.688,0,0,1,1.274-4.6,13.651,13.651,0,0,1,2.856-3.6,13.438,13.438,0,0,1,8.877-3.369,14.916,14.916,0,0,1,5.684,1.04A13.793,13.793,0,0,1,24.683,16.5a12.263,12.263,0,0,1,2.783,3.911,10.89,10.89,0,0,1,.981,4.482,11.558,11.558,0,0,1-.352,2.813A10.14,10.14,0,0,1,27,30.388a10.331,10.331,0,0,1-1.919,2.358,11.834,11.834,0,0,1-2.842,1.9,9.982,9.982,0,0,1,2.593,1.479A10.238,10.238,0,0,1,26.953,38.4a11.146,11.146,0,0,1,1.436,2.988,12.111,12.111,0,0,1,.527,3.662A12.684,12.684,0,0,1,27.8,50.368,13.289,13.289,0,0,1,24.785,54.6a13.91,13.91,0,0,1-4.468,2.8,14.84,14.84,0,0,1-5.493,1.011,15.719,15.719,0,0,1-5.347-.952,12.594,12.594,0,0,1-4.5-2.71,12.147,12.147,0,0,1-2.725-3.662A11.575,11.575,0,0,1,1.2,47.307H6.826a8.005,8.005,0,0,0,3.032,4.277,9.348,9.348,0,0,0,5.552,1.553,7.545,7.545,0,0,0,2.974-.615,8.144,8.144,0,0,0,2.563-1.714,8.582,8.582,0,0,0,1.787-2.578,7.718,7.718,0,0,0,.674-3.237,8.034,8.034,0,0,0-.674-3.34,7.609,7.609,0,0,0-1.816-2.534,8.22,8.22,0,0,0-2.651-1.611,8.983,8.983,0,0,0-3.208-.571h-2.52V32.512H14.59a9.918,9.918,0,0,0,3.472-.571,7.549,7.549,0,0,0,2.593-1.567,6.92,6.92,0,0,0,1.626-2.329A7.174,7.174,0,0,0,22.852,25.188ZM18.486,87.766a12.555,12.555,0,0,1,4.761.908,12.751,12.751,0,0,1,3.94,2.49,11.745,11.745,0,0,1,2.681,3.706A11.024,11.024,0,0,1,29.5,104.7a11.855,11.855,0,0,1-3.6,4.014,13.93,13.93,0,0,1,4.834,4.761,12.924,12.924,0,0,1,1.362,3.12,12.37,12.37,0,0,1,.483,3.457,12.241,12.241,0,0,1-1.128,5.215,13.832,13.832,0,0,1-3.062,4.263,14.519,14.519,0,0,1-10.02,3.94,14.7,14.7,0,0,1-5.566-1.055,14.361,14.361,0,0,1-4.541-2.886A13.832,13.832,0,0,1,5.2,125.266a12.241,12.241,0,0,1-1.128-5.215,12.614,12.614,0,0,1,1.86-6.606,13.982,13.982,0,0,1,4.907-4.761,11.863,11.863,0,0,1-3.53-4.028,11.175,11.175,0,0,1-.337-9.785,11.659,11.659,0,0,1,2.651-3.706,12.446,12.446,0,0,1,3.97-2.49A13.125,13.125,0,0,1,18.486,87.766ZM9.434,119.934a7.765,7.765,0,0,0,.7,3.267,8.478,8.478,0,0,0,1.919,2.681A9.31,9.31,0,0,0,14.9,127.7a8.977,8.977,0,0,0,3.472.674A8.794,8.794,0,0,0,21.8,127.7a9.359,9.359,0,0,0,2.827-1.816,8.478,8.478,0,0,0,1.919-2.681,7.765,7.765,0,0,0,.7-3.267,7.6,7.6,0,0,0-.7-3.223,8.528,8.528,0,0,0-1.919-2.666,9.137,9.137,0,0,0-2.827-1.8,8.964,8.964,0,0,0-3.428-.659,9.194,9.194,0,0,0-6.313,2.461,8.528,8.528,0,0,0-1.919,2.666A7.6,7.6,0,0,0,9.434,119.934Zm1.611-20.42a6.791,6.791,0,0,0,2.109,4.966,7.452,7.452,0,0,0,2.358,1.509,7.787,7.787,0,0,0,2.974.557,7.156,7.156,0,0,0,2.813-.557,7.776,7.776,0,0,0,2.329-1.509,7.109,7.109,0,0,0,1.6-2.227,6.478,6.478,0,0,0,.586-2.739,6.41,6.41,0,0,0-.586-2.71,7.109,7.109,0,0,0-1.6-2.227A7.776,7.776,0,0,0,21.3,93.068a7.156,7.156,0,0,0-2.812-.557,7.787,7.787,0,0,0-2.974.557,7.452,7.452,0,0,0-2.358,1.509A6.831,6.831,0,0,0,11.6,96.8,6.7,6.7,0,0,0,11.045,99.514Z" transform="translate(821 248)" fill="#fff"/>
    <path id="Path_483" data-name="Path 483" d="M2.7,40.539,18.486,13.586h6.24L9.7,40.129H21.064V32.8l5.742-.41v7.734h6.621v5.039H26.807v7.793H31.2V58H16.787V52.961h4.277V45.168H2.637ZM12.6,133l10.225-16.758a13.308,13.308,0,0,1-2.666.791,15.328,15.328,0,0,1-2.578.205,15.559,15.559,0,0,1-5.347-1.011,13.6,13.6,0,0,1-4.717-2.842,14.869,14.869,0,0,1-3.223-4.512,12.542,12.542,0,0,1-1.274-5.435,16.475,16.475,0,0,1,1.26-6.621,14.273,14.273,0,0,1,8.364-7.925,17.214,17.214,0,0,1,5.991-1.04,16.289,16.289,0,0,1,5.9,1.055,15.121,15.121,0,0,1,4.878,3.032,14.183,14.183,0,0,1,3.354,4.717,14.822,14.822,0,0,1,1.216,6.079,13.942,13.942,0,0,1-.981,5.1,49.692,49.692,0,0,1-2.446,5.273L19.424,133Zm5.889-40.049a10.458,10.458,0,0,0-3.809.7,9.666,9.666,0,0,0-5.391,5.068,9.368,9.368,0,0,0-.82,3.955,9.674,9.674,0,0,0,.879,4.233,8.969,8.969,0,0,0,2.358,3.062,10.226,10.226,0,0,0,3.311,1.846,11.48,11.48,0,0,0,3.677.615,10.553,10.553,0,0,0,4.175-.659,10.681,10.681,0,0,0,2.8-1.846,8.246,8.246,0,0,0,2.08-3.018,10.953,10.953,0,0,0,.762-4.233,10.516,10.516,0,0,0-.762-4.1,8.666,8.666,0,0,0-2.109-3.062,9.232,9.232,0,0,0-3.179-1.9A11.636,11.636,0,0,0,18.486,92.951Z" transform="translate(985 248)" fill="#fff"/>
    <path id="Path_484" data-name="Path 484" d="M9.287,31.809a13.6,13.6,0,0,1,3.369-1.685,12.589,12.589,0,0,1,3.955-.571,15.255,15.255,0,0,1,6.035,1.172,14.683,14.683,0,0,1,4.731,3.164,14.281,14.281,0,0,1,3.076,4.644,14.51,14.51,0,0,1,1.1,5.61,14.978,14.978,0,0,1-1.084,5.669,14.224,14.224,0,0,1-3.076,4.7,14.689,14.689,0,0,1-4.79,3.208,15.793,15.793,0,0,1-6.226,1.187,16.583,16.583,0,0,1-4.863-.688,14.78,14.78,0,0,1-4.072-1.934,13.813,13.813,0,0,1-3.149-2.974,14.986,14.986,0,0,1-2.124-3.779l4.8-2.4A9.791,9.791,0,0,0,8.35,49.9a9.932,9.932,0,0,0,2.139,2.2,9.822,9.822,0,0,0,2.725,1.436,10.141,10.141,0,0,0,7.075-.264,9.87,9.87,0,0,0,5.991-9.126,9.654,9.654,0,0,0-.762-3.853,9.389,9.389,0,0,0-2.109-3.076,10.024,10.024,0,0,0-7.031-2.8,11,11,0,0,0-4.321.835,9.52,9.52,0,0,0-3.3,2.241l-4.307-.674V13.586h25.02v4.863H9.287Zm9.9,101.719a16.293,16.293,0,0,1-7.939-1.758,13.729,13.729,0,0,1-5.112-4.834A21.349,21.349,0,0,1,3.4,119.729a45.562,45.562,0,0,1-.82-8.877,38.621,38.621,0,0,1,1.113-9.478A21.393,21.393,0,0,1,6.68,94.3a17.353,17.353,0,0,1,4.731-4.541,14.16,14.16,0,0,1,7.837-1.875A18.219,18.219,0,0,1,27.1,89.377a12.651,12.651,0,0,1,5.171,4.585,20.187,20.187,0,0,1,2.856,7.456,50.087,50.087,0,0,1,.82,9.258,46.177,46.177,0,0,1-.82,8.936,21.137,21.137,0,0,1-2.769,7.251,14.089,14.089,0,0,1-5.171,4.878A16.311,16.311,0,0,1,19.189,133.527Zm0-5.215a9.826,9.826,0,0,0,5.522-1.392,8.683,8.683,0,0,0,3.164-3.794,22.961,22.961,0,0,0,1.6-5.61A42.186,42.186,0,0,0,30,110.676a52.78,52.78,0,0,0-.41-6.694,18.616,18.616,0,0,0-1.582-5.669,9.805,9.805,0,0,0-3.281-3.926,9.408,9.408,0,0,0-5.479-1.465,9.215,9.215,0,0,0-5.508,1.465,9.362,9.362,0,0,0-3.018,3.53,20.93,20.93,0,0,0-1.567,5.669,45.233,45.233,0,0,0-.571,7.09,60.412,60.412,0,0,0,.366,6.841,17.939,17.939,0,0,0,1.494,5.61,9.078,9.078,0,0,0,3.223,3.794A9.826,9.826,0,0,0,19.189,128.313Z" transform="translate(1150 248)" fill="#fff"/>
  </g>
</svg>
