<svg xmlns="http://www.w3.org/2000/svg" xmlns:xlink="http://www.w3.org/1999/xlink" width="1680" height="1353" viewBox="0 0 1680 1353">
  <defs>
    <clipPath id="clip-audrey_characterset">
      <rect width="1680" height="1353"/>
    </clipPath>
  </defs>
  <g id="audrey_characterset" clip-path="url(#clip-audrey_characterset)">
    <path id="Path_426" data-name="Path 426" d="M0,0H1688V1357.944H0Z" fill="none"/>
    <path id="Path_516" data-name="Path 516" d="M16.35,38.4l9.225-22.65,9.45,22.65Zm23.4,11.7s1.2,2.925,4.05,9.9h8.475L29.325,6H27.75L5.4,60H8.25l7.575-19.8H35.7Zm-25.2,98.1V98.1c1.8-.15,4.05-.225,6.075-.225a38.391,38.391,0,0,1,10.2,1.2,17.05,17.05,0,0,1,7.2,4.575,21.693,21.693,0,0,1,5.025,8.625,37.975,37.975,0,0,1,1.8,12.15c0,5.775-1.05,10.575-3.075,14.325a15.44,15.44,0,0,1-7.5,7.5A29.5,29.5,0,0,1,22.8,148.2ZM6.825,150h14.7a88.926,88.926,0,0,0,10.275-.45,26.239,26.239,0,0,0,7.725-2.025,19.966,19.966,0,0,0,7.2-4.95A21.937,21.937,0,0,0,51.6,134.55a30.649,30.649,0,0,0,1.8-10.725A30.137,30.137,0,0,0,50.1,109.5a23.183,23.183,0,0,0-9.9-9.825C35.775,97.2,29.55,96,21.675,96H6.825Zm38.4,76.575A12.67,12.67,0,0,1,44.1,232.5a8.77,8.77,0,0,1-4.35,3.975,15.412,15.412,0,0,1-7.2,1.65A16.855,16.855,0,0,1,19.5,232.35c-3.525-3.9-5.325-10.425-5.325-19.65,0-9.3,1.875-15.75,5.475-19.35a17.428,17.428,0,0,1,12.825-5.475,16.7,16.7,0,0,1,12,4.725,15.871,15.871,0,0,1,2.55,2.925l1.725-1.8V193.5a21.816,21.816,0,0,0-17.1-7.5c-8.025,0-14.4,2.775-19.125,8.4a29.49,29.49,0,0,0-7.05,19.575c0,7.575,2.475,13.8,7.35,18.675a25.506,25.506,0,0,0,18.6,7.35,34.735,34.735,0,0,0,12.15-2.475A21.317,21.317,0,0,0,48.9,233.85a10.69,10.69,0,0,0,3.825-8.325v-8.55h-7.5ZM21.675,276v34.575A61.13,61.13,0,0,1,21,320.85a8.918,8.918,0,0,1-3,5.4,8.761,8.761,0,0,1-6.075,2.325,11.274,11.274,0,0,1-3.9-1.2L6.45,328.5a9.847,9.847,0,0,0,5.625,1.5,18.45,18.45,0,0,0,7.575-1.425,12.482,12.482,0,0,0,5.175-4.2A11.567,11.567,0,0,0,27.3,318.9a55.6,55.6,0,0,0,.525-8.325V276ZM54.15,420h7.8V366H54.525L34.8,410.775,15,366H7.5v54H9.3V371.175L30.75,420h1.875L54.15,371.175V420ZM6.225,456v54H13.95v-8.175c-.075-1.8,0-3,0-5.325V484.575h5.775c6.15,0,10.425-.225,12.9-1.425a12.454,12.454,0,0,0,5.625-4.95,14.867,14.867,0,0,0,1.95-7.65,12.454,12.454,0,0,0-2.85-8.325A15.616,15.616,0,0,0,30,457.5,46,46,0,0,0,17.175,456Zm23.7,22.425a8.178,8.178,0,0,1-4.8,3.675,26.028,26.028,0,0,1-7.425.675H13.95V458.4c.9-.075,2.25-.15,4.05-.15q7.313,0,10.575,3.15c2.175,2.025,3.225,5.325,3.225,9.75A13.128,13.128,0,0,1,29.925,478.425ZM36.675,579.3a13.007,13.007,0,0,0-4.35-5.475,87.979,87.979,0,0,0-9.075-5.775c-4.425-2.625-7.425-4.8-9-6.675a8,8,0,0,1,.675-11.55c1.575-1.5,3.9-2.1,6.975-1.725a11.739,11.739,0,0,1,8.1,4.275,19.2,19.2,0,0,1,1.5,1.95l1.65-1.35a16,16,0,0,0-5.475-5.025,17.893,17.893,0,0,0-6-1.725,13.574,13.574,0,0,0-10.05,2.625,12.075,12.075,0,0,0-4.8,8.775A13.9,13.9,0,0,0,7.8,564.6a14.689,14.689,0,0,0,4.35,5.7A81,81,0,0,0,21,576q6.637,3.712,9,6.525a8.684,8.684,0,0,1,1.875,6.75,9.576,9.576,0,0,1-3.675,6.6,10.727,10.727,0,0,1-8.775,2.175c-5.4-.9-8.475-3.15-12.525-8.925L5.475,590.7c2.925,4.8,9.45,8.775,14.4,9.3s9-.45,12.225-2.85a14.12,14.12,0,0,0,5.55-10.275A14.945,14.945,0,0,0,36.675,579.3Zm15,56.7L47.1,647.55c-.45,1.35-1.05,2.925-1.8,4.65L33.15,681.375,18,646.275,13.35,636H5.475L8.1,642.15a13.473,13.473,0,0,1,1.05,2.325c.45,1.05.75,1.95,1.05,2.625l.6,1.125L28.95,690h2.475L47.1,652.725,54.15,636ZM50.55,726,33.075,756.375,15.525,726H5.7l20.7,33.075V780h7.725V758.55L53.85,726Z" transform="translate(93 260)" fill="#0cb1f2"/>
    <path id="Path_521" data-name="Path 521" d="M27.75,36.15a6.6,6.6,0,0,0-3.075-3A12.828,12.828,0,0,0,18.15,31.8a13.759,13.759,0,0,0-7.5,1.95c.6.525.6.525,1.125,1.05a9.392,9.392,0,0,1,5.7-1.5,6.939,6.939,0,0,1,3.975.975,4.53,4.53,0,0,1,1.95,2.25,16.638,16.638,0,0,1,.375,4.05v1.35l-5.175,2.1a39.827,39.827,0,0,0-9.225,4.95c-2.175,1.725-2.7,3.075-2.7,5.4s2.775,6.375,6.15,6.375a11.862,11.862,0,0,0,4.875-1.2,33.56,33.56,0,0,0,6.075-3.525V60.75H28.5V41.325A12.978,12.978,0,0,0,27.75,36.15ZM23.775,54.225a28.905,28.905,0,0,1-4.65,3.075,8.343,8.343,0,0,1-3.6,1.05,3.643,3.643,0,0,1-2.85-1.275A4.829,4.829,0,0,1,11.55,53.7q0-5.288,8.55-8.775L23.775,43.5Zm5.85,50.625s0,.075-.075,0h-.675v21.375a15.948,15.948,0,0,0-4.65-3.15,11.948,11.948,0,0,0-4.8-.975A12.3,12.3,0,0,0,9.9,126.15c-2.475,2.7-3.375,6.525-3.375,10.65,0,4.275.9,7.35,3.45,10.2a12.859,12.859,0,0,0,9.9,4.2,10.666,10.666,0,0,0,5.25-1.275,9.777,9.777,0,0,0,3.75-3.675v4.95H33.6V104.85Zm-.75,39.675c-.375,1.2-1.725,2.4-3.15,3.45a7.322,7.322,0,0,1-4.8,1.65,7.812,7.812,0,0,1-6.75-3.45c-1.725-2.325-2.55-5.7-2.55-10.05,0-3.975.75-7.05,2.325-9.15a7.484,7.484,0,0,1,6.3-3.15,10.031,10.031,0,0,1,4.35,1.05,15.286,15.286,0,0,1,4.275,3.225Zm4.95,99.225a8.56,8.56,0,0,0-5.025-3.225c-2.1-.525-12.075-.225-16.05-1.05-2.025-.375-2.175-1.65-1.8-2.85.6-1.725,2.7-2.775,7.725-2.925,4.8-.15,8.175-1.35,10.2-3.525a10.682,10.682,0,0,0,3.075-7.5,11.58,11.58,0,0,0-1.875-6.15c-1.575-2.55-6.45-4.65-10.35-4.65a11.814,11.814,0,0,0-8.25,3.15,9.669,9.669,0,0,0-3.525,7.5,10.2,10.2,0,0,0,1.725,5.7,15.678,15.678,0,0,0,5.025,4.5c-4.275.825-6.45,2.775-6.45,5.85a4.611,4.611,0,0,0,2.25,3.9c1.5,1.05,5.475,1.05,10.575,1.05,11.7,0,11.1,5.175,11.1,7.5a6.325,6.325,0,0,1-2.925,5.325c-1.875,1.35-4.575,2.025-8.025,2.025-10.425,0-12.15-5.175-12.15-7.8H6.45v.3c0,2.55,1.275,4.725,3.9,6.375,2.7,1.725,6.15,2.55,10.575,2.55,4.8,0,8.4-.9,10.95-2.85a8.916,8.916,0,0,0,3.825-7.5A8.7,8.7,0,0,0,33.825,243.75Zm-20.55-20.4c0-3.3.525-5.775,1.65-7.35,1.05-1.65,2.7-2.025,4.875-2.025a5.841,5.841,0,0,1,4.575,1.575c1.425,1.275,2.1,3.675,2.1,7.2,0,3.45-.675,5.85-1.95,7.275a5.62,5.62,0,0,1-4.575,1.725c-1.95,0-3.525-.3-4.8-1.725S13.275,226.35,13.275,223.35Zm8.7,69a3.36,3.36,0,0,0,2.4-1.05,3.447,3.447,0,0,0,1.05-2.55,3.579,3.579,0,0,0-.975-2.475,3.334,3.334,0,0,0-2.475-.975,3.334,3.334,0,0,0-2.475.975,3.579,3.579,0,0,0-.975,2.475,3.334,3.334,0,0,0,.975,2.475A3.2,3.2,0,0,0,21.975,292.35Zm1.8,8.925h-4.05v31.95a48.822,48.822,0,0,1-.375,6.975,5.474,5.474,0,0,1-2.025,3.6,5.642,5.642,0,0,1-3.675,1.425c-.825,0-2.925.075-3.525-.375l-.45,1.5a12.319,12.319,0,0,0,3,.3,12.323,12.323,0,0,0,5.775-1.275,10.476,10.476,0,0,0,3.975-3.45A11.573,11.573,0,0,0,24.15,337.5a49.8,49.8,0,0,0,.375-6.75V301.275ZM7.425,391.35V420h4.8V399.075a19.54,19.54,0,0,1,4.425-4.05,8.354,8.354,0,0,1,4.275-1.35,5.358,5.358,0,0,1,3.6,1.2,4.3,4.3,0,0,1,1.725,2.775,30.055,30.055,0,0,1,.3,5.25V420h4.875V399.675a18.775,18.775,0,0,1,4.35-4.425,7.651,7.651,0,0,1,4.425-1.5,5.764,5.764,0,0,1,3.525.975,4.184,4.184,0,0,1,1.65,2.475,19.584,19.584,0,0,1,.3,4.2V420h4.8V402.3a28.288,28.288,0,0,0-.45-6.075,5.708,5.708,0,0,0-2.7-3.375,9.708,9.708,0,0,0-5.4-1.5,10.69,10.69,0,0,0-5.475,1.575A19.293,19.293,0,0,0,31.2,397.5a8.1,8.1,0,0,0-3-4.575,8.79,8.79,0,0,0-5.475-1.575,11.207,11.207,0,0,0-5.625,1.425,16.336,16.336,0,0,0-4.875,4.35V391.35Zm-.9,92.1V528.3H11.25V508.725a15.638,15.638,0,0,0,4.35,3,11.948,11.948,0,0,0,4.8.975,12.457,12.457,0,0,0,9.9-4.275,15.45,15.45,0,0,0,3.75-10.575,14.681,14.681,0,0,0-3.75-10.425,12.4,12.4,0,0,0-9.375-3.975,12.033,12.033,0,0,0-5.1,1.125,14.737,14.737,0,0,0-4.575,3.375v-4.5ZM25.8,507.75a8.61,8.61,0,0,1-6.525,3.225,8.4,8.4,0,0,1-4.2-1.125,14.049,14.049,0,0,1-3.825-3.3V490.125a13.963,13.963,0,0,1,3.9-3.525,9.271,9.271,0,0,1,4.35-1.2,8.278,8.278,0,0,1,6.375,3.075c1.8,1.95,2.7,5.025,2.7,9.075C28.575,502.2,27.6,505.575,25.8,507.75ZM6.525,597.225v.075c.075-.075.15-.075.15-.15ZM22.2,590.1c-.525-1.725-2.475-3.825-5.775-6.15a21.858,21.858,0,0,1-4.35-3.9,4.361,4.361,0,0,1-.75-3.3,4.158,4.158,0,0,1,5.1-3.075A5.583,5.583,0,0,1,20.4,576.6l1.2-.825a7.164,7.164,0,0,0-4.95-3.6,6.3,6.3,0,0,0-5.7,1.35A7.786,7.786,0,0,0,8.1,578.1a6.546,6.546,0,0,0,.825,4.95,19.144,19.144,0,0,0,4.95,5.025,21.009,21.009,0,0,1,4.5,4.2,4.7,4.7,0,0,1,.6,3.675,5.013,5.013,0,0,1-1.875,3,4.47,4.47,0,0,1-3.9.75,6.881,6.881,0,0,1-4.875-3.6l-1.2.75a9.181,9.181,0,0,0,5.85,4.275,8.208,8.208,0,0,0,6.15-1.05A7.451,7.451,0,0,0,22.5,594.9,10.671,10.671,0,0,0,22.2,590.1Zm9.15,73.05L21.375,686.1,11.1,663.15H5.925L18.6,691.2h1.875L32.85,663.15Zm.675,91.275h-1.5l-9.9,22.725L10.5,754.425H5.4l12.75,28.2-7.2,16.425H12.3Z" transform="translate(1016 247)" fill="#0cb1f2"/>
    <path id="Path_517" data-name="Path 517" d="M14.625,32.475c.9,0,2.4-.075,3.375-.075,6,0,10.125,1.05,12.525,3.15,2.325,2.1,3.525,5.325,3.525,9.75,0,4.35-1.05,7.575-3.15,9.75-2.1,2.1-5.25,2.7-9.45,2.7H14.625Zm0-24.45c.9-.075,2.475-.075,3.525-.075,3.975,0,6.675.375,8.325,1.275A8.35,8.35,0,0,1,30.15,12.75a13.723,13.723,0,0,1,1.2,6.45c0,4.05-.975,6.9-3.075,8.7S22.35,30.6,16.65,30.6H14.625ZM6.9,60H19.35a56.4,56.4,0,0,0,12.525-1.05A13.964,13.964,0,0,0,39.6,54.3a13.815,13.815,0,0,0,3-8.775,12.534,12.534,0,0,0-4.425-9.675c-3-2.55-7.5-4.05-13.575-4.5,5.025-.75,8.85-2.175,11.325-4.275a10.4,10.4,0,0,0,3.825-8.4C39.75,10.2,32.4,6,17.775,6H6.9Zm7.5,88.125V122.55H30v-1.875H14.4V97.8H38.175V96H6.675v54h31.35v-1.875H14.4ZM44.1,186v24.675H15.3V186H7.5v54h7.8V212.55H44.1V240h7.8V186ZM35.175,321.15v-.075L43.5,330H54.225l-9.9-9.9c-.075-.075,0-.15-.075-.225l.075-.15c-.45-.45-1.125-.9-1.575-1.425l-20.1-20.4,8.85-8.025,1.2-1.35c1.275-1.2,2.325-2.25,3.3-3.15L45.975,276H43.35L29.4,288.6c-.075,0,.15.075.075.15L13.2,303.6V276H5.4v54h7.8V306.225l3.675-3.375,15.45,15.375C33.375,319.275,34.275,320.25,35.175,321.15ZM46.2,366v41.025L15.525,366h-8.1v52.65H9.15V370.275L47.025,420H48.45V366ZM41.775,508.425a25.027,25.027,0,0,0,9-5.925c5.175-4.95,7.8-11.475,7.8-19.5,0-8.25-2.7-14.85-8.1-19.65-5.475-4.8-10.425-7.2-18.525-7.2-8.025,0-12.975,2.475-18.3,7.275-5.4,4.875-8.025,11.325-8.025,19.35,0,8.175,2.625,14.775,7.875,19.725,5.325,5.025,10.275,7.5,18.525,7.5a30.688,30.688,0,0,0,6.75-.675,26.858,26.858,0,0,1,11.55,9.75l3.75-.975C49.875,513.15,46.2,510.3,41.775,508.425Zm-22.425-6.6c-3.3-4.2-5.025-10.5-5.025-18.825,0-8.175,1.725-14.4,5.025-18.6s6.375-6.3,12.6-6.3c6.375,0,10.35,2.175,13.65,6.45,3.375,4.275,4.2,10.5,4.2,18.525,0,8.325-.825,14.55-4.275,18.75A15.61,15.61,0,0,1,38.1,507.15c-.075,0-.15-.075-.3-.075a28.144,28.144,0,0,0-10.425,0,1.793,1.793,0,0,0-.675.225C23.625,506.325,21.525,504.525,19.35,501.825ZM57.375,546H4.875L4.8,547.8H27.075V600h7.8V547.8h22.5Zm23.25,90-4.5,11.7c-.45,1.275-1.05,2.925-1.8,4.725l-12.15,28.95L48.975,650.7h-3.15S42.3,659.625,33.15,681.45L18,646.275,13.35,636H5.475L8.1,642.3a13.474,13.474,0,0,1,1.05,2.325c.45,1.05.75,1.95,1.05,2.625l.6,1.05L28.95,690h2.475l13.05-31.125L57.975,690h2.4L76.05,652.725,83.1,636Zm-54.9,142.2H9.375l34.65-50.175V726H3.75v1.8H34.5L0,778.425V780H43.425v-1.8Z" transform="translate(345 260)" fill="#0cb1f2"/>
    <path id="Path_522" data-name="Path 522" d="M30.3,36.15a12.415,12.415,0,0,0-9.525-4.05,11.948,11.948,0,0,0-4.8.975,17.291,17.291,0,0,0-4.725,3.15V14.85h-.675c0,.075,0,0-.075,0H6.525V61.2H11.25V56.25a10.5,10.5,0,0,0,3.825,3.675,10.666,10.666,0,0,0,5.25,1.275,12.859,12.859,0,0,0,9.9-4.2C32.7,54.15,33.6,51.075,33.6,46.8,33.6,42.675,32.775,38.85,30.3,36.15ZM11.25,54.525V38.1a17.783,17.783,0,0,1,4.275-3.225,10.352,10.352,0,0,1,4.425-1.05,7.351,7.351,0,0,1,6.225,3.15c1.575,2.1,2.4,5.175,2.4,9.15,0,4.35-.9,7.725-2.55,10.05a7.812,7.812,0,0,1-6.75,3.45,7.185,7.185,0,0,1-4.8-1.65C13.05,56.925,11.625,55.725,11.25,54.525ZM28.35,145.5a8.534,8.534,0,0,1-7.65,3.9,7.282,7.282,0,0,1-6.6-3.525c-1.5-2.4-2.25-6-2.25-10.725,0-.6.075-1.575.15-2.85H30.375a9.659,9.659,0,0,0-2.7-6.975C25.8,123.15,23.025,122.1,19.5,122.1a12.092,12.092,0,0,0-9.375,4.2,15.644,15.644,0,0,0-3.75,10.65,14.486,14.486,0,0,0,1.95,7.65,14,14,0,0,0,4.95,4.875A13.473,13.473,0,0,0,19.8,151.2a13.254,13.254,0,0,0,6.75-1.875,10.141,10.141,0,0,0,2.925-2.7Zm-9.075-21.975c5.85,0,7.125,5.925,7.125,7.425H12.075C12.9,126,15.225,123.525,19.275,123.525Zm10.8,92.7a6.432,6.432,0,0,0-2.925-3.45,9.782,9.782,0,0,0-5.625-1.425,10.659,10.659,0,0,0-5.475,1.425,13.9,13.9,0,0,0-4.5,4.2v-23.25H10.8a.828.828,0,0,1-.6,0H6.75V240h4.8V219.525a12.2,12.2,0,0,1,3.675-4.575,7.416,7.416,0,0,1,4.65-1.575,6.024,6.024,0,0,1,3.75,1.125,4.405,4.405,0,0,1,1.95,2.7,27.13,27.13,0,0,1,.375,5.1V240h4.8V222.975A23.684,23.684,0,0,0,30.075,216.225Zm.375,86.25H28.125L11.325,314.7V287.625H6.45V330h4.875V316.575l1.425-1.05L25.2,330h6L16.425,312.75S16.65,312.525,30.45,302.475Zm.975,97.2a8.142,8.142,0,0,0-3.225-6.75,8.79,8.79,0,0,0-5.475-1.575,11.207,11.207,0,0,0-5.625,1.425,16.336,16.336,0,0,0-4.875,4.35V391.35h-4.8V420h4.8V399.075a19.54,19.54,0,0,1,4.425-4.05,8.354,8.354,0,0,1,4.275-1.35,5.358,5.358,0,0,1,3.6,1.2,4.3,4.3,0,0,1,1.725,2.775,30.055,30.055,0,0,1,.3,5.25V420h4.875V399.675ZM14.85,507.75c-1.875-2.175-2.775-5.55-2.775-10.2,0-4.05.825-7.125,2.625-9.075a8.278,8.278,0,0,1,6.375-3.075,9.039,9.039,0,0,1,4.35,1.2,13.963,13.963,0,0,1,3.9,3.525V506.55a14.049,14.049,0,0,1-3.825,3.3,8.2,8.2,0,0,1-4.2,1.125A8.351,8.351,0,0,1,14.85,507.75Zm14.475-24.3v4.5a14.737,14.737,0,0,0-4.575-3.375,11.789,11.789,0,0,0-5.1-1.125,12.4,12.4,0,0,0-9.375,3.975,14.681,14.681,0,0,0-3.75,10.425,15.45,15.45,0,0,0,3.75,10.575,12.67,12.67,0,0,0,9.9,4.275,11.7,11.7,0,0,0,4.8-.975,14.625,14.625,0,0,0,4.35-3V528.3H34.05V483.45Zm-22.5,89.7v1.5h3.9v15.3a32.758,32.758,0,0,0,.45,6.6,5.822,5.822,0,0,0,2.25,3.225A6.277,6.277,0,0,0,17.55,601.2a8.275,8.275,0,0,0,4.05-1.125,6.957,6.957,0,0,0,3-3.225l-1.05-.675c-1.125,1.8-2.55,2.7-4.125,2.7a3.539,3.539,0,0,1-2.25-.75,3.674,3.674,0,0,1-1.425-2.1,25.572,25.572,0,0,1-.3-5.1V574.65h8.1v-1.5h-8.1v-8.4H10.725v8.4ZM51.6,663.075,41.55,686.1,33.3,667.575H30.6L22.5,686.1,12.225,663.075h-5.1l12.6,28.05h1.95l8.475-19.2,8.7,19.2h1.875L53.1,663.075ZM29.775,780v-1.575h-18l18.15-24.75v-1.2H6.75v1.5H23.925L5.625,778.95V780Z" transform="translate(1268 247)" fill="#0cb1f2"/>
    <path id="Path_519" data-name="Path 519" d="M47.175,50.55A14.188,14.188,0,0,1,41.25,55.8a20.329,20.329,0,0,1-8.55,2.025A16.585,16.585,0,0,1,19.575,51.6c-3.525-4.2-5.25-10.2-5.25-18,0-8.25,1.575-14.55,4.8-18.975A15.358,15.358,0,0,1,32.175,7.95a19.1,19.1,0,0,1,12,4.125,13.151,13.151,0,0,1,2.925,3.15L48.6,13.8v-.225A22.2,22.2,0,0,0,41.625,8.4,23.334,23.334,0,0,0,31.05,6,26.278,26.278,0,0,0,18.075,9.3,21.755,21.755,0,0,0,8.85,19.425a32.321,32.321,0,0,0-3.3,14.55c0,7.8,2.4,14.1,7.125,18.9C17.475,57.6,23.625,60,31.125,60a22.473,22.473,0,0,0,17.55-7.875ZM14.025,150V122.55h15.6v-1.875h-15.6V97.8h23.7V96H6.225v54ZM7.5,186v54h7.8V186Zm5.925,142.2V276h-7.8v54H43.2v-1.8ZM15,392.925q0-12.375,4.95-18.675c3.375-4.2,6.45-6.3,12.675-6.3,6.375,0,10.35,2.1,13.725,6.45,3.375,4.275,4.125,10.5,4.125,18.6,0,8.325-.825,14.55-4.2,18.75s-7.125,6.3-13.05,6.3c-6.675,0-9.9-2.1-13.275-6.3C16.65,407.55,15,401.325,15,392.925Zm-8.85-.3c0,8.25,2.7,14.925,7.95,19.875,5.325,5.025,10.35,7.5,18.6,7.5,8.55,0,13.575-2.475,18.825-7.5,5.175-4.95,7.8-11.475,7.8-19.575,0-8.325-2.7-14.925-8.175-19.725-5.4-4.8-10.425-7.2-18.525-7.2s-12.975,2.4-18.375,7.275S6.15,384.6,6.15,392.625ZM6.525,456v54h7.65V484.35H16.5c14.625,0,22.575,23.175,23.175,25.65h6.15c-4.95-12.075-8.925-17.475-8.925-17.475-4.95-6.675-8.55-8.1-10.725-9.15a20.164,20.164,0,0,0,11.325-5.1,11.915,11.915,0,0,0,3.825-8.925,11.146,11.146,0,0,0-2.925-7.725,16.313,16.313,0,0,0-7.725-4.35C27.525,456.3,23.4,456,18.3,456Zm7.65,26.55v-24.3H17.55c6.225,0,10.5.75,12.375,3s2.775,5.1,2.775,8.85a14.2,14.2,0,0,1-.825,5.325,8.922,8.922,0,0,1-2.25,3.525,9.008,9.008,0,0,1-3.75,2.4,17.942,17.942,0,0,1-5.4,1.2ZM48.225,546v30.15a55.263,55.263,0,0,1-.75,9.075,14.269,14.269,0,0,1-2.55,5.7,14.7,14.7,0,0,1-6,4.5A20.7,20.7,0,0,1,30,597.3c-4.125,0-7.5-.9-9.975-2.775a10.5,10.5,0,0,1-4.275-6.375c-.525-2.475-.45-6.6-.45-12.375V546H7.65v29.55l-.375,5.475A18.291,18.291,0,0,0,9.225,591.3a15.392,15.392,0,0,0,6.9,6.3A27.709,27.709,0,0,0,28.2,600a27.427,27.427,0,0,0,10.575-1.875,17.284,17.284,0,0,0,7.125-5.1,14.536,14.536,0,0,0,3.375-6.45A60.275,60.275,0,0,0,50.1,576.45V546Zm6.75,137.775c-1.5-1.725-3.525-3.975-5.925-6.9L35.025,659.85l8.55-10.8c.825-.975,1.65-1.8,2.325-2.7L54.225,636H51.6l-5.475,6.825c-.45.675-1.65,2.1-3.45,4.35L33.75,658.35,24,646.575l-.15.075L15.525,636H5.1L9,640.425c.3.45.75.825,1.05,1.2L14.7,647.1l14.175,17.1-9,10.95C18.6,676.575,17.55,678,16.65,679.2L7.95,690h2.775L18.9,679.575c.675-.9,1.575-2.175,2.775-3.6L30.15,665.7l9.675,11.85c1.725,2.1,2.85,3.75,3.525,4.65l6,7.8H60.3Zm-43.8,89.4a4.1,4.1,0,0,0-2.85,1.2,3.963,3.963,0,0,0-1.2,2.925,3.917,3.917,0,0,0,1.2,2.85,3.756,3.756,0,0,0,2.85,1.275,4.276,4.276,0,0,0,2.925-1.2,4.165,4.165,0,0,0,0-5.85A4.012,4.012,0,0,0,11.175,773.175Zm-.75-7.65h1.65l2.25-27.225c.15-1.575.525-6.525.75-9.6H7.5c.15,3.075.525,7.8.675,9.6Z" transform="translate(607 260)" fill="#0cb1f2"/>
    <path id="Path_530" data-name="Path 530" d="M21.375,59.475a8.02,8.02,0,0,1-7.2-3.6,15.725,15.725,0,0,1-2.4-8.925,15.812,15.812,0,0,1,2.4-9,8.02,8.02,0,0,1,7.2-3.6A8.965,8.965,0,0,1,26.85,36l.975-.975a12.181,12.181,0,0,0-7.875-2.4,13.467,13.467,0,0,0-9.75,3.9A14.33,14.33,0,0,0,6.3,46.95,14.271,14.271,0,0,0,10.2,57.3a13.467,13.467,0,0,0,9.75,3.9,12.181,12.181,0,0,0,7.875-2.4l-.975-.975A8.5,8.5,0,0,1,21.375,59.475Zm1.875,44.25A9.784,9.784,0,0,0,17.625,105a11.631,11.631,0,0,0-3.9,3.75,12.426,12.426,0,0,0-1.95,4.725,48.654,48.654,0,0,0-.3,6.45v2.55H6.3v1.5h5.175V150H16.35V123.975h5.7v-1.5h-5.7v-2.1a89.967,89.967,0,0,1,.3-9.825,6.2,6.2,0,0,1,1.875-3.825,5.039,5.039,0,0,1,3.675-1.5,5.24,5.24,0,0,1,4.05,1.725l1.35-1.35C26.475,104.4,25.5,103.95,23.25,103.725ZM10.725,202.35A3.4,3.4,0,0,0,13.2,201.3a3.447,3.447,0,0,0,1.05-2.55,3.667,3.667,0,0,0-1.05-2.475,3.4,3.4,0,0,0-2.475-1.05,3.529,3.529,0,0,0-2.475,1.05,3.579,3.579,0,0,0-.975,2.475,3.391,3.391,0,0,0,.975,2.55A3.529,3.529,0,0,0,10.725,202.35Zm-2.4,9V240h4.8V211.35h-4.8Zm4.05,109.2V283.725h-.75c-.075.075-.15.075-.15,0H7.5V330h4.875Zm-.75,86.175c0-4.725,1.05-8.1,2.475-10.125a7.135,7.135,0,0,1,6.225-3,7.135,7.135,0,0,1,6.225,3c1.425,2.025,2.475,5.4,2.475,10.125,0,4.8-1.05,8.175-2.475,10.05a7.26,7.26,0,0,1-6.225,2.925,7.214,7.214,0,0,1-6.15-2.925C12.675,414.9,11.625,411.525,11.625,406.725Zm-4.8-.15c0,4.5,1.275,8.025,3.9,10.65a13.26,13.26,0,0,0,9.6,3.975,13.189,13.189,0,0,0,9.6-3.9c2.625-2.625,3.9-6.15,3.9-10.725a14.573,14.573,0,0,0-3.9-10.35,12.492,12.492,0,0,0-9.6-4.125,12.492,12.492,0,0,0-9.6,4.125A14.449,14.449,0,0,0,6.825,406.575Zm14.925,78,.975-1.95c-4.05-2.175-9.75.225-11.4,5.85V481.35h-4.5V510H11.7V495.675a24.285,24.285,0,0,1,.525-5.85A8.392,8.392,0,0,1,14.85,485.7C17.175,483.6,19.2,482.925,21.75,484.575Zm4.275,115.8H30.75V573.15H26.025v15.375a13.693,13.693,0,0,1-.825,5.25,9.186,9.186,0,0,1-3.15,3.525,8.081,8.081,0,0,1-4.8,1.65,5.545,5.545,0,0,1-3.15-.9,3.951,3.951,0,0,1-1.725-2.175,23.361,23.361,0,0,1-.3-4.05V573.15H7.35V591.6a13.574,13.574,0,0,0,.75,5.325,6.807,6.807,0,0,0,2.85,3,9.363,9.363,0,0,0,4.8,1.275,10.691,10.691,0,0,0,5.7-1.575,14.565,14.565,0,0,0,4.575-4.725ZM22.8,674.325l10.8-11.85H31.275l-9.375,10.8-8.625-10.8H7.125l11.7,14.4L7.2,690H9.525l10.2-11.925L29.325,690h6.15Zm-11.625,98.85a4.1,4.1,0,0,0-2.85,1.2,3.963,3.963,0,0,0-1.2,2.925,3.917,3.917,0,0,0,1.2,2.85,3.756,3.756,0,0,0,2.85,1.275,4.276,4.276,0,0,0,2.925-1.2,4.165,4.165,0,0,0,0-5.85A4.012,4.012,0,0,0,11.175,773.175Zm-.75-7.65h1.65l2.25-27.225c.15-1.575.525-6.525.75-9.6H7.5c.15,3.075.525,7.8.675,9.6Z" transform="translate(1530 247)" fill="#0cb1f2"/>
    <path id="Path_520" data-name="Path 520" d="M0,0V797.371" transform="translate(840.021 261.85)" fill="none" stroke="#0cb1f2" stroke-width="3"/>
    <path id="Path_518" data-name="Path 518" d="M37.74,40.44A11.351,11.351,0,0,1,33,44.64a16.263,16.263,0,0,1-6.84,1.62,13.268,13.268,0,0,1-10.5-4.98c-2.82-3.36-4.2-8.16-4.2-14.4,0-6.6,1.26-11.64,3.84-15.18A12.286,12.286,0,0,1,25.74,6.36a15.278,15.278,0,0,1,9.6,3.3,10.521,10.521,0,0,1,2.34,2.52l1.2-1.14v-.18A17.761,17.761,0,0,0,33.3,6.72,18.667,18.667,0,0,0,24.84,4.8,21.023,21.023,0,0,0,14.46,7.44a17.4,17.4,0,0,0-7.38,8.1A25.857,25.857,0,0,0,4.44,27.18c0,6.24,1.92,11.28,5.7,15.12A20.177,20.177,0,0,0,24.9,48a17.978,17.978,0,0,0,14.04-6.3Zm42-35.64V24.54H56.7V4.8H50.46V48H56.7V26.04H79.74V48h6.24V4.8Zm28.14,25.92,7.38-18.12,7.56,18.12Zm18.72,9.36s.96,2.34,3.24,7.92h6.78L118.26,4.8H117L99.12,48h2.28l6.06-15.84h15.9ZM149.28,4.8V48h6.12V27.48h1.86c11.7,0,18.06,18.54,18.54,20.52h4.92c-3.96-9.66-7.14-13.98-7.14-13.98-3.96-5.34-6.84-6.48-8.58-7.32a16.131,16.131,0,0,0,9.06-4.08,9.532,9.532,0,0,0,3.06-7.14,8.917,8.917,0,0,0-2.34-6.18,13.051,13.051,0,0,0-6.18-3.48,35.029,35.029,0,0,0-9.9-1.02Zm6.12,21.24V6.6h2.7c4.98,0,8.4.6,9.9,2.4a10.539,10.539,0,0,1,2.22,7.08,11.356,11.356,0,0,1-.66,4.26,7.137,7.137,0,0,1-1.8,2.82,7.206,7.206,0,0,1-3,1.92,14.353,14.353,0,0,1-4.32.96Zm46.5,4.68,7.38-18.12,7.56,18.12Zm18.72,9.36s.96,2.34,3.24,7.92h6.78L212.28,4.8h-1.26L193.14,48h2.28l6.06-15.84h15.9Zm50.64.36a11.351,11.351,0,0,1-4.74,4.2,16.264,16.264,0,0,1-6.84,1.62,13.268,13.268,0,0,1-10.5-4.98c-2.82-3.36-4.2-8.16-4.2-14.4,0-6.6,1.26-11.64,3.84-15.18a12.286,12.286,0,0,1,10.44-5.34,15.278,15.278,0,0,1,9.6,3.3,10.521,10.521,0,0,1,2.34,2.52l1.2-1.14v-.18a17.761,17.761,0,0,0-5.58-4.14,18.667,18.667,0,0,0-8.46-1.92,21.023,21.023,0,0,0-10.38,2.64,17.4,17.4,0,0,0-7.38,8.1,25.857,25.857,0,0,0-2.64,11.64c0,6.24,1.92,11.28,5.7,15.12A20.177,20.177,0,0,0,258.42,48a17.978,17.978,0,0,0,14.04-6.3ZM318.24,4.8h-42l-.06,1.44H294V48h6.24V6.24h18Zm17.82,41.7V26.04h12.48v-1.5H336.06V6.24h19.02V4.8h-25.2V48h25.08V46.5h-18.9ZM365.94,4.8V48h6.12V27.48h1.86c11.7,0,18.06,18.54,18.54,20.52h4.92c-3.96-9.66-7.14-13.98-7.14-13.98-3.96-5.34-6.84-6.48-8.58-7.32a16.131,16.131,0,0,0,9.06-4.08,9.532,9.532,0,0,0,3.06-7.14,8.917,8.917,0,0,0-2.34-6.18,13.051,13.051,0,0,0-6.18-3.48,35.029,35.029,0,0,0-9.9-1.02Zm6.12,21.24V6.6h2.7c4.98,0,8.4.6,9.9,2.4a10.539,10.539,0,0,1,2.22,7.08,11.356,11.356,0,0,1-.66,4.26,7.137,7.137,0,0,1-1.8,2.82,7.206,7.206,0,0,1-3,1.92,14.353,14.353,0,0,1-4.32.96Zm80.4,5.4a10.405,10.405,0,0,0-3.48-4.38,70.379,70.379,0,0,0-7.26-4.62c-3.54-2.1-5.94-3.84-7.2-5.34a6.4,6.4,0,0,1,.54-9.24c1.26-1.2,3.12-1.68,5.58-1.38a9.391,9.391,0,0,1,6.48,3.42,15.362,15.362,0,0,1,1.2,1.56l1.32-1.08a12.8,12.8,0,0,0-4.38-4.02,14.314,14.314,0,0,0-4.8-1.38,10.859,10.859,0,0,0-8.04,2.1,9.66,9.66,0,0,0-3.84,7.02,11.12,11.12,0,0,0,.78,5.58,11.751,11.751,0,0,0,3.48,4.56,64.8,64.8,0,0,0,7.08,4.56q5.31,2.97,7.2,5.22a6.948,6.948,0,0,1,1.5,5.4,7.661,7.661,0,0,1-2.94,5.28,8.582,8.582,0,0,1-7.02,1.74c-4.32-.72-6.78-2.52-10.02-7.14l-1.14,1.26A17.4,17.4,0,0,0,439.02,48a13.41,13.41,0,0,0,9.78-2.28,11.3,11.3,0,0,0,4.44-8.22A11.956,11.956,0,0,0,452.46,31.44Zm20.4,15.06V26.04h12.48v-1.5H472.86V6.24h19.02V4.8h-25.2V48h25.08V46.5h-18.9ZM543.42,4.8h-42l-.06,1.44h17.82V48h6.24V6.24h18Z" transform="translate(566 124)" fill="#0cb1f2"/>
  </g>
</svg>
