<svg xmlns="http://www.w3.org/2000/svg" xmlns:xlink="http://www.w3.org/1999/xlink" width="1680" height="509" viewBox="0 0 1680 509">
  <defs>
    <clipPath id="clip-audrey_numbers">
      <rect width="1680" height="509"/>
    </clipPath>
  </defs>
  <g id="audrey_numbers" clip-path="url(#clip-audrey_numbers)">
    <path id="Path_523" data-name="Path 523" d="M0,0H1688V509H0Z" fill="none"/>
    <path id="Path_524" data-name="Path 524" d="M36.96,4.8V37.62L12.42,4.8H5.94V46.92H7.32V8.22L37.62,48h1.14V4.8Zm49.2,0V28.92a44.21,44.21,0,0,1-.6,7.26,11.415,11.415,0,0,1-2.04,4.56,11.763,11.763,0,0,1-4.8,3.6,16.556,16.556,0,0,1-7.14,1.5,12.976,12.976,0,0,1-7.98-2.22,8.4,8.4,0,0,1-3.42-5.1c-.42-1.98-.36-5.28-.36-9.9V4.8H53.7V28.44l-.3,4.38a14.633,14.633,0,0,0,1.56,8.22,12.314,12.314,0,0,0,5.52,5.04A22.167,22.167,0,0,0,70.14,48a21.942,21.942,0,0,0,8.46-1.5,13.827,13.827,0,0,0,5.7-4.08A11.628,11.628,0,0,0,87,37.26a48.22,48.22,0,0,0,.66-8.1V4.8ZM139.74,48h6.24V4.8h-5.94L124.26,40.62,108.42,4.8h-6V48h1.44V8.94L121.02,48h1.5L139.74,8.94V48ZM166.5,25.98c.72,0,1.92-.06,2.7-.06,4.8,0,8.1.84,10.02,2.52,1.86,1.68,2.82,4.26,2.82,7.8,0,3.48-.84,6.06-2.52,7.8-1.68,1.68-4.2,2.16-7.56,2.16H166.5Zm0-19.56c.72-.06,1.98-.06,2.82-.06,3.18,0,5.34.3,6.66,1.02a6.68,6.68,0,0,1,2.94,2.82,10.978,10.978,0,0,1,.96,5.16c0,3.24-.78,5.52-2.46,6.96s-4.74,2.16-9.3,2.16H166.5ZM160.32,48h9.96a45.124,45.124,0,0,0,10.02-.84,11.171,11.171,0,0,0,6.18-3.72,11.052,11.052,0,0,0,2.4-7.02,10.028,10.028,0,0,0-3.54-7.74c-2.4-2.04-6-3.24-10.86-3.6,4.02-.6,7.08-1.74,9.06-3.42a8.318,8.318,0,0,0,3.06-6.72c0-6.78-5.88-10.14-17.58-10.14h-8.7Zm48.24-1.5V26.04h12.48v-1.5H208.56V6.24h19.02V4.8h-25.2V48h25.08V46.5h-18.9ZM238.44,4.8V48h6.12V27.48h1.86c11.7,0,18.06,18.54,18.54,20.52h4.92c-3.96-9.66-7.14-13.98-7.14-13.98-3.96-5.34-6.84-6.48-8.58-7.32a16.131,16.131,0,0,0,9.06-4.08,9.532,9.532,0,0,0,3.06-7.14,8.917,8.917,0,0,0-2.34-6.18,13.051,13.051,0,0,0-6.18-3.48,35.029,35.029,0,0,0-9.9-1.02Zm6.12,21.24V6.6h2.7c4.98,0,8.4.6,9.9,2.4a10.539,10.539,0,0,1,2.22,7.08,11.356,11.356,0,0,1-.66,4.26,7.137,7.137,0,0,1-1.8,2.82,7.206,7.206,0,0,1-3,1.92,14.353,14.353,0,0,1-4.32.96Z" transform="translate(684 106)" fill="#fff"/>
    <path id="Path_525" data-name="Path 525" d="M15.3,4.8V6.6h3.96V48h6.12V4.8ZM30.9,96.54a12.913,12.913,0,0,0-9.42-3.9,10.773,10.773,0,0,0-4.86,1.2,14.9,14.9,0,0,0-3.48,2.58v-.36c0-5.64.84-9.9,2.46-12.66a7.854,7.854,0,0,1,7.2-4.02,10.614,10.614,0,0,1,3.18.3l.48.18.96-2.52-.6-.12a14,14,0,0,0-3.18-.42c-5.16,0-9.36,2.28-12.48,6.78C8.1,88.08,6.6,93.66,6.6,100.2a31.569,31.569,0,0,0,1.32,9.24,16.324,16.324,0,0,0,4.86,7.5A12.376,12.376,0,0,0,21.3,120a12.783,12.783,0,0,0,9.78-4.14c2.7-2.88,3.06-6.3,3.06-9.6C34.14,102.84,33.78,99.3,30.9,96.54Zm-17.88,9.3c0-4.02.78-6.84,2.4-8.34a7.7,7.7,0,0,1,5.52-2.22,6.813,6.813,0,0,1,4.14,1.32,6.655,6.655,0,0,1,2.58,3.36,18.522,18.522,0,0,1,.78,5.88c0,3.9-.66,6.9-1.92,8.88a6.328,6.328,0,0,1-5.58,2.82,6.664,6.664,0,0,1-4.26-1.56,8.983,8.983,0,0,1-2.82-4.38A21.235,21.235,0,0,1,13.02,105.84Z" transform="translate(487 241)" fill="#fff"/>
    <path id="Path_526" data-name="Path 526" d="M33.18,42H13.74c2.7-2.28,5.76-4.5,9.3-7.92,4.62-4.5,7.62-7.92,8.88-10.2a14.784,14.784,0,0,0,1.8-7.08q0-5.94-4.14-9a15.335,15.335,0,0,0-9.24-3,15.081,15.081,0,0,0-8.88,2.88,11.21,11.21,0,0,0-3,3.3l-.12.18,2.16,1.02.06-.18a10.97,10.97,0,0,1,2.4-2.88,8.31,8.31,0,0,1,5.82-2.34A9.178,9.178,0,0,1,25.2,9.3c1.68,1.68,2.58,4.38,2.58,7.92a18.2,18.2,0,0,1-2.58,9,59.7,59.7,0,0,1-8.46,10.56A59.357,59.357,0,0,1,7.02,45l-.06.84V48H33.18V42Zm-.66,34.8H8.22v6H27.84c-1.14,3.06-12.66,34.26-13.68,36.96l-.06.24h2.76l.06-.12c1.2-2.64,13.56-37.32,14.88-41.1Z" transform="translate(651 241)" fill="#fff"/>
    <path id="Path_527" data-name="Path 527" d="M28.92,26.64a8.44,8.44,0,0,0-7.08-3.24l.78-.54A22.28,22.28,0,0,0,28.14,18l.18-.18a7.443,7.443,0,0,0,2.04-5.04,7.22,7.22,0,0,0-2.94-5.52c-2.1-1.8-4.26-2.46-7.74-2.46-3.66,0-6.6.96-8.76,2.88a15.36,15.36,0,0,0-1.68,1.8l-.3.42L12,11.76l.24-.6a5.508,5.508,0,0,1,1.74-2.22,7.607,7.607,0,0,1,4.8-1.62,5.756,5.756,0,0,1,4.2,1.56,5.99,5.99,0,0,1,1.62,4.5,8.558,8.558,0,0,1-1.56,5.22c-1.08,1.38-3.36,3.18-6.72,5.34-.3.18-.6.42-.9.6l-.42.3,1.68,2.34.48-.36a5.7,5.7,0,0,1,3-1.14,5.1,5.1,0,0,1,4.08,2.16c1.2,1.44,1.8,3.72,1.8,6.72,0,3.84-.78,6.66-2.4,8.4a8.035,8.035,0,0,1-6.3,2.64,6.392,6.392,0,0,1-3-.78c-.06,0-.12,0-.12-.06l-.48-.24-2.46,2.34.78.3a16.991,16.991,0,0,0,5.4.84,13.939,13.939,0,0,0,10.08-3.72,12.221,12.221,0,0,0,4.26-9.6A11.7,11.7,0,0,0,28.92,26.64ZM30,100.44a11.566,11.566,0,0,0-4.86-3,11.123,11.123,0,0,0,4.5-3.3,10.3,10.3,0,0,0,2.28-6.66,9.476,9.476,0,0,0-3.66-7.8,11.955,11.955,0,0,0-7.92-2.88,11.326,11.326,0,0,0-8.1,3,9.87,9.87,0,0,0-3.36,7.68,9.981,9.981,0,0,0,2.46,6.72,11.9,11.9,0,0,0,4.26,3.3,11.338,11.338,0,0,0-5.34,3.54,10.77,10.77,0,0,0-2.7,7.38,10.589,10.589,0,0,0,3.78,8.28,12.659,12.659,0,0,0,9,3.3,13.231,13.231,0,0,0,8.94-3.12A11.348,11.348,0,0,0,30,100.44ZM16.02,81a5.5,5.5,0,0,1,4.2-1.86,5.538,5.538,0,0,1,4.5,2.04c1.14,1.38,1.68,3.48,1.68,6.24,0,3-.54,5.28-1.62,6.78a5.46,5.46,0,0,1-4.74,2.16,4.6,4.6,0,0,1-4.26-2.28c-.96-1.56-1.5-3.96-1.5-7.2C14.28,84.24,14.88,82.26,16.02,81ZM15,101.22a5.774,5.774,0,0,1,5.04-2.34,7.4,7.4,0,0,1,5.34,1.92c1.38,1.26,2.04,3.84,2.04,7.56s-.66,6.18-2.04,7.38a7.425,7.425,0,0,1-5.22,1.86,6.486,6.486,0,0,1-4.08-1.26,5.269,5.269,0,0,1-2.22-3.06,18.25,18.25,0,0,1-.6-5.28A11.677,11.677,0,0,1,15,101.22Z" transform="translate(817 241)" fill="#fff"/>
    <path id="Path_528" data-name="Path 528" d="M26.76,31.5V4.8H24.42L5.22,31.38l-.06.06v2.28h15V48h6.6V33.72h8.82V31.5Zm-19.14,0L20.16,13.98V31.5ZM32.94,87.36a15.756,15.756,0,0,0-4.8-7.5,12.376,12.376,0,0,0-8.52-3.06,12.694,12.694,0,0,0-9.78,4.14c-2.34,2.46-3.42,5.52-3.42,9.6,0,4.2,1.14,7.32,3.54,9.72a13.11,13.11,0,0,0,9.42,3.9,11.02,11.02,0,0,0,4.92-1.2,14.9,14.9,0,0,0,3.48-2.58v.36c0,5.64-.84,9.9-2.52,12.66a7.7,7.7,0,0,1-7.14,4.02c-1.74,0-3.96,0-4.86-1.08l-.36-.48-2.58,2.4.66.36A14.028,14.028,0,0,0,17.22,120c5.22,0,9.42-2.28,12.54-6.84,3-4.44,4.56-10.02,4.56-16.56A31.6,31.6,0,0,0,32.94,87.36Zm-5.1,3.6c0,4.02-.78,6.84-2.34,8.34a7.805,7.805,0,0,1-5.52,2.22,6.813,6.813,0,0,1-4.14-1.32,7.132,7.132,0,0,1-2.64-3.36,17.139,17.139,0,0,1-1.08-5.88c0-4.44,1.2-7.32,2.28-8.88a6.328,6.328,0,0,1,5.58-2.82,6.664,6.664,0,0,1,4.26,1.56A8.9,8.9,0,0,1,27,85.2,21.235,21.235,0,0,1,27.84,90.96Z" transform="translate(981 241)" fill="#fff"/>
    <path id="Path_529" data-name="Path 529" d="M28.08,22.92a11.928,11.928,0,0,0-9-3.96c-3.06,0-5.58,1.32-8.04,3.78V10.68H27.72V4.8H9V25.62h2.04l.06-.06c1.8-2.94,4.2-4.44,6.96-4.44a7.254,7.254,0,0,1,5.52,2.64c1.56,1.8,2.34,4.86,2.34,9.12q0,7.11-2.88,10.26a8.917,8.917,0,0,1-6.96,3.12,6.686,6.686,0,0,1-3.78-1.02l-.12-.12-2.04,1.92.3.12a16.949,16.949,0,0,0,5.52.84c4.92,0,8.88-1.44,11.64-4.38a15.225,15.225,0,0,0,4.14-10.98A13.864,13.864,0,0,0,28.08,22.92Zm2.4,59.88c-2.76-4.14-5.88-6-10.14-6-4.2,0-7.32,1.86-10.08,6-2.58,3.9-3.9,9.12-3.9,15.6,0,6.42,1.32,11.64,3.9,15.6,2.76,4.14,5.88,6,10.08,6,4.26,0,7.38-1.86,10.14-6.06,2.58-3.9,3.9-9.18,3.9-15.54C34.38,91.98,33.06,86.76,30.48,82.8ZM20.34,117.48c-2.28,0-3.9-.96-5.4-3.18-1.38-2.16-2.88-7.5-2.88-15.9,0-8.46,1.5-13.8,2.94-15.9,1.44-2.22,3.06-3.18,5.34-3.18,2.34,0,3.96.96,5.4,3.18,1.38,2.16,2.88,7.44,2.88,15.9,0,8.7-1.8,13.56-2.58,15.3C24.84,116.4,23.16,117.48,20.34,117.48Z" transform="translate(1146 241)" fill="#fff"/>
  </g>
</svg>
