<svg xmlns="http://www.w3.org/2000/svg" xmlns:xlink="http://www.w3.org/1999/xlink" width="1680" height="1353" viewBox="0 0 1680 1353">
  <defs>
    <clipPath id="clip-crimson_characterset">
      <rect width="1680" height="1353"/>
    </clipPath>
  </defs>
  <g id="crimson_characterset" clip-path="url(#clip-crimson_characterset)">
    <path id="Path_426" data-name="Path 426" d="M0,0H1688V1357.944H0Z" fill="none"/>
    <path id="Path_546" data-name="Path 546" d="M26.733,26.66,41.382,65.332q1.318,3.442,2.124,5.273A3.63,3.63,0,0,0,45.776,72.4a8.669,8.669,0,0,0,2.71.7q.293,0,.293,1.392a2.41,2.41,0,0,1-.146.732q-7.324-.366-8.057-.366-.073,0-8.5.366a1.671,1.671,0,0,1-.256-1.208q.037-.916.33-.916a8.517,8.517,0,0,0,2.2-.366q1.318-.366,1.538-.952a4.816,4.816,0,0,0,.146-1.172,11.6,11.6,0,0,0-.256-2.234q-.256-1.282-.476-2.014l-.293-.806-3-8.276a.59.59,0,0,0-.439-.293q-2.856-.22-5.566-.22-3.809,0-9.3.366l-.366.22-3.149,8.057a19.262,19.262,0,0,0-1.245,5.054,1.714,1.714,0,0,0,.586,1.465,5.524,5.524,0,0,0,2.124.842,11.011,11.011,0,0,0,2.124.33q.22,0,.256.879a3.331,3.331,0,0,1-.11,1.245q-7.324-.366-7.544-.366-1.465,0-2.563.073t-2.454.146q-1.355.073-2.6.146a1.559,1.559,0,0,1-.293-1.1q0-1.025.293-1.025a9.342,9.342,0,0,0,2.271-.366,3.48,3.48,0,0,0,1.9-1.025,29.293,29.293,0,0,0,3.442-6.885L22.119,32.08q.146-.366.4-1.172t.4-1.208q.146-.4.439-1.025a5.546,5.546,0,0,1,.513-.916q.22-.293.549-.659a1.826,1.826,0,0,1,.732-.513,2.668,2.668,0,0,1,.916-.146Zm-8.5,26.44q3.809.146,5.2.146,3.223,0,6.665-.22l.22-.366L24.39,36.475l-6.3,16.333Q18.091,53.1,18.237,53.1ZM11.5,130.953q2.783,0,7.068-.073t5.676-.073q11.938,0,18.6,7.031a23.272,23.272,0,0,1,6.665,16.553,24.751,24.751,0,0,1-6.738,17.725q-6.738,7.1-18.6,7.1-.879,0-5.237-.146T11.646,179l-8.862.22a1.738,1.738,0,0,1-.22-1.1q0-1.025.22-1.025a11.74,11.74,0,0,0,2.82-.513q1.868-.513,2.234-1.172.513-.879.513-6.885V140.841a27.636,27.636,0,0,0-.513-6.3q-.22-.586-2.161-1.1a12.609,12.609,0,0,0-2.893-.513q-.293,0-.293-.879a1.841,1.841,0,0,1,.293-1.245Q6.592,130.953,11.5,130.953Zm3.223,8.862v29a13.647,13.647,0,0,0,1.1,5.566q.293.732,3.918,1.1t5.6.366q16.846,0,16.846-21.753a22.874,22.874,0,0,0-4.431-14.209q-4.431-5.859-12.927-5.859h-.366q-7.91,0-8.789,1.172Q14.722,136.52,14.722,139.815Zm-11.5,119.6a25.182,25.182,0,0,1,6.958-17.834,22.468,22.468,0,0,1,17.065-7.434q5.2,0,17.358,3.3.293,8.35.293,9.082,0,1.1-1.538,1.1-.732,0-.952-.366-1.978-10.034-14.941-10.034-7.324,0-12.231,6.226a24.433,24.433,0,0,0,.476,29.993q5.383,6.848,13.513,6.848,6.445,0,9.521-1.611.513-.22.513-1.1l-.073-6.006v-.513a21.4,21.4,0,0,0-.586-6.3q-.293-.732-2.38-1.172a16.937,16.937,0,0,0-3.259-.439q-.293,0-.293-.916a1.768,1.768,0,0,1,.293-1.208q9.375.366,9.595.366.586,0,7.91-.366a3.246,3.246,0,0,1,.146,1.025q0,1.1-.293,1.1a9.712,9.712,0,0,0-2.014.476,12.516,12.516,0,0,0-2.234.842q-.732.513-.732,4.907,0,1.538.11,3.333t.11,1.941a6.673,6.673,0,0,0,.513,2.563,7.206,7.206,0,0,1,.513,1.465q0,.586-1.831,1.318-.146.073-1.428.549t-1.648.623q-.366.146-1.648.549a19.275,19.275,0,0,1-2.051.549q-.769.146-2.2.439a23.516,23.516,0,0,1-2.71.4q-1.282.11-3,.22t-3.625.11A21.876,21.876,0,0,1,10,276.335,23.672,23.672,0,0,1,3.223,259.416Zm9.814,79.537q1.465,0,2.856-.073t3-.183q1.611-.11,2.637-.183a3.519,3.519,0,0,1,.146,1.1q0,1.025-.293,1.025a12.245,12.245,0,0,0-2.637.513q-1.9.513-2.051,1.025a28.32,28.32,0,0,0-.659,6.812v31.787a25.8,25.8,0,0,1-5.164,16.04q-5.164,6.812-13.147,6.812a6.01,6.01,0,0,1-1.758-.293,10.294,10.294,0,0,1-1.538-.586l-.513-.293a4.02,4.02,0,0,1-.879-2.71A3.167,3.167,0,0,1-5.6,397.107a5.131,5.131,0,0,1,3.186-1.025,4.616,4.616,0,0,1,2.966,1.575q1.648,1.575,2.6,1.575a3.074,3.074,0,0,0,2.087-1.025,11.607,11.607,0,0,0,2.087-3,20.52,20.52,0,0,0,1.685-5.6,46.368,46.368,0,0,0,.659-8.24V348.694a29,29,0,0,0-.513-6.519q-.22-.586-2.087-1.062a12.56,12.56,0,0,0-2.82-.476q-.293,0-.293-.952a1.7,1.7,0,0,1,.293-1.172q.952.073,3.882.256T13.037,338.953ZM12.231,442.88q2.71,0,6.738-.366.513,1.685,14.5,36.694a.3.3,0,0,0,.293.146.346.346,0,0,0,.366-.293q7.178-16.846,11.426-27.759l2.93-8.789q4.688.293,6.079.293,4.541,0,8.2-.293a3.615,3.615,0,0,1,.22,1.1q0,1.025-.366,1.025h-.146a6.639,6.639,0,0,0-2.124.476,7.379,7.379,0,0,0-1.978.989q-.879.659-.879,4.907,0,1.172.659,29.736a19.375,19.375,0,0,0,1.1,6.738q.293.659,2.2,1.135a13.007,13.007,0,0,0,2.71.476q.293,0,.293,1.025a3.519,3.519,0,0,1-.146,1.1q-7.324-.366-8.716-.366-.366,0-8.789.366a1.7,1.7,0,0,1-.293-1.172q0-.952.293-.952a10.491,10.491,0,0,0,2.234-.366A9.366,9.366,0,0,0,51.2,488q.879-.513.879-3.149v-3.882L51.2,455.185a19.644,19.644,0,0,0-.4-2.747q-.33-1.575-.7-1.575-.146,0-.366.513L34.424,488q-1.392,3.149-2.71,3.149a2.325,2.325,0,0,1-.659-.146L14.282,448.373q-.146,7.031-.439,16.113t-.513,14.978q-.22,5.9-.22,6.042a3.219,3.219,0,0,0,.439,1.9,5.389,5.389,0,0,0,2.673,1.135,15.933,15.933,0,0,0,2.966.549q.293,0,.293,1.1a3.246,3.246,0,0,1-.146,1.025q-7.324-.366-8.5-.366-.146,0-8.569.366a1.492,1.492,0,0,1-.366-1.1q0-1.025.366-1.025a14.521,14.521,0,0,0,3.04-.476,5.888,5.888,0,0,0,2.673-1.135q1.172-1.318,1.318-6.372.146-7.617.33-15.015t.33-11.609q.146-4.211.146-5.383a11.774,11.774,0,0,0-.293-2.93q-.22-.586-2.49-1.062a18.231,18.231,0,0,0-3.3-.476q-.293,0-.293-1.025a1.559,1.559,0,0,1,.293-1.1q1.245.073,2.747.146t2.747.146Q10.767,442.88,12.231,442.88Zm-.22,104.073q2.2,0,5.2-.146t5.127-.146a16.96,16.96,0,0,1,4.871.732,19.01,19.01,0,0,1,4.761,2.2,11.015,11.015,0,0,1,3.772,4.175,13.18,13.18,0,0,1,.549,10.876,18.579,18.579,0,0,1-2.673,4.761,13.443,13.443,0,0,1-4.724,3.809,14.466,14.466,0,0,1-6.628,1.5q-4.1,0-5.64-2.051a2,2,0,0,1-.22-1.685q.073-.293.22-.22a14.172,14.172,0,0,0,4.907.806,8.039,8.039,0,0,0,6.3-3.076,10.886,10.886,0,0,0,2.637-7.324q0-5.2-2.271-8.24t-7.031-3.04a19.946,19.946,0,0,0-5.127.513.7.7,0,0,0-.513.549,12.775,12.775,0,0,0-.256,2.234q-.11,1.758-.11,5.273V584.6q0,4.907.586,6.372.366.952,2.6,1.538a14.6,14.6,0,0,0,3.186.586q.293,0,.293,1.025a3.519,3.519,0,0,1-.146,1.1q-7.324-.366-9.521-.366l-8.936.366A2.288,2.288,0,0,1,3,593.9q0-.952.22-.952a13.134,13.134,0,0,0,2.856-.439q1.831-.439,2.2-1.1.513-.879.513-6.885V556.841a27.636,27.636,0,0,0-.513-6.3q-.22-.586-2.161-1.1a12.609,12.609,0,0,0-2.893-.513q-.293,0-.293-.879a1.841,1.841,0,0,1,.293-1.245ZM4.468,663.111a11.557,11.557,0,0,1,4.321-9.265,15.144,15.144,0,0,1,10.034-3.625,23.93,23.93,0,0,1,3.04.183,22.764,22.764,0,0,1,2.344.4q.916.22,2.637.7t3.04.769a49.462,49.462,0,0,1,.879,10.474q0,.513-.732.513-1.758,0-1.9-.732a11.283,11.283,0,0,0-3.113-6.262,8.694,8.694,0,0,0-6.7-3.04q-4.395,0-6.189,2.2a8.289,8.289,0,0,0-1.794,5.42,7.133,7.133,0,0,0,.513,2.673,14.48,14.48,0,0,0,1.025,2.124,8.336,8.336,0,0,0,1.868,1.941q1.355,1.1,1.978,1.538t2.49,1.611q1.868,1.172,2.38,1.465.366.22,2.563,1.575t3,1.9q.806.549,2.527,1.978a13.914,13.914,0,0,1,2.49,2.527,14.956,14.956,0,0,1,1.465,2.747,8.673,8.673,0,0,1,.7,3.406,11.932,11.932,0,0,1-4.578,9.631,16.359,16.359,0,0,1-10.73,3.772,29.121,29.121,0,0,1-3.735-.256q-1.978-.256-3.3-.513t-3.333-.732q-2.014-.476-2.82-.623Q3,688.6,3,685.963q0-.439,1.172-.439a2.2,2.2,0,0,1,1.831.659q2.49,10.547,12.158,10.547a9.24,9.24,0,0,0,6.226-2.2,7.753,7.753,0,0,0,2.563-6.226,8.089,8.089,0,0,0-.439-2.71,11.8,11.8,0,0,0-.916-2.051,6.454,6.454,0,0,0-1.685-1.721q-1.208-.916-1.868-1.355t-2.417-1.392q-1.758-.952-2.417-1.318-2.124-1.245-2.966-1.758t-2.783-1.794a14.732,14.732,0,0,1-2.82-2.271q-.879-.989-2.051-2.417a8.634,8.634,0,0,1-1.648-3.04A11.829,11.829,0,0,1,4.468,663.111ZM9.961,754.88q1.758,0,9.082-.366a2.927,2.927,0,0,1,.11,1.208q-.037.916-.256.916a8.967,8.967,0,0,0-1.392.146,5.836,5.836,0,0,0-1.9.732,1.743,1.743,0,0,0-1.025,1.538q0,2.124,9.229,24.683,1.978,4.98,3.149,7.764a.436.436,0,0,0,.623.183,1.009,1.009,0,0,0,.549-.549l10.986-26.514a16.771,16.771,0,0,0,1.392-5.127,2.088,2.088,0,0,0-1.172-1.758,6.278,6.278,0,0,0-2.234-.916,10.6,10.6,0,0,0-1.721-.183q-.293,0-.293-.916a1.768,1.768,0,0,1,.293-1.208q6.812.366,7.837.366.073,0,7.4-.366a3.519,3.519,0,0,1,.146,1.1q0,1.025-.293,1.025-3.3,0-4.395,2.051-1.685,3.076-3.589,7.544l-14.648,35.01q-.952,2.417-2.563,2.417a.757.757,0,0,1-.732-.439L9.521,765.354a37.363,37.363,0,0,0-3.3-7.031A3.508,3.508,0,0,0,4.1,757.077a10.35,10.35,0,0,0-2.563-.439q-.293,0-.293-.952a1.7,1.7,0,0,1,.293-1.172q1.172.073,2.783.146t2.893.146Q8.5,754.88,9.961,754.88Zm.22,104.073q.879,0,9.668-.439a2.65,2.65,0,0,1,.11,1.135q-.037.842-.256.842a7.786,7.786,0,0,0-2.82.623q-1.575.623-1.575,1.868a4.856,4.856,0,0,0,.806,2.2l8.2,15.527q.366.366.732-.146,9.961-15.088,9.961-17.651,0-.806-1.465-1.611a7.358,7.358,0,0,0-3.589-.806q-.293,0-.293-.842a1.627,1.627,0,0,1,.293-1.135q8.13.439,8.643.439,2.271,0,4.688-.22t3.076-.22a3.519,3.519,0,0,1,.146,1.1q0,.879-.293.879a12.8,12.8,0,0,0-3.076.659,5.765,5.765,0,0,0-2.93,1.611q-2.783,4.321-8.093,13.11t-5.31,9.814v11.133a29.341,29.341,0,0,0,.586,6.812q.146.513,1.978,1.062a10.788,10.788,0,0,0,2.49.549q.293,0,.293.952a3.246,3.246,0,0,1-.146,1.025q-7.324-.366-8.2-.366-.22,0-8.643.366a1.43,1.43,0,0,1-.293-1.025q0-.952.293-.952a10.86,10.86,0,0,0,2.673-.513q1.794-.513,2.014-1.1a30.648,30.648,0,0,0,.586-7.031v-9.155a11.924,11.924,0,0,0-1.575-4.065q-1.575-3.04-9.119-16.589a27.683,27.683,0,0,0-1.794-3.04A7.452,7.452,0,0,0,6.152,862.1,8.707,8.707,0,0,0,3.735,861a8.862,8.862,0,0,0-2.344-.513q-.293,0-.293-.806a1.7,1.7,0,0,1,.293-1.172q1.172.073,3.955.256T10.181,858.953Z" transform="translate(93 260)" fill="#0cb1f2"/>
    <path id="Path_551" data-name="Path 551" d="M10.254,70.313a4.9,4.9,0,0,0,3.223,1.025,6.818,6.818,0,0,0,3.809-1.208q1.831-1.208,1.831-2.454V60.132a27.214,27.214,0,0,1-2.856,1.025q-2.271.732-3.552,1.282a7.593,7.593,0,0,0-2.49,1.831,4.194,4.194,0,0,0-1.208,2.966A3.887,3.887,0,0,0,10.254,70.313Zm6.885-27.246q4.028,0,5.786,1.941t1.758,6.262V68.188a4.022,4.022,0,0,0,.806,2.563,2.644,2.644,0,0,0,2.2,1.025,4.984,4.984,0,0,0,2.563-1.025q.293,0,.293.586a2.869,2.869,0,0,1-.366,1.538q-3,2.563-5.127,2.563a4.765,4.765,0,0,1-3.223-1.392,7.721,7.721,0,0,1-2.124-2.93,2.276,2.276,0,0,0-.549.476,13.666,13.666,0,0,1-1.282,1.1A22.292,22.292,0,0,1,16,73.975a10.64,10.64,0,0,1-2.49,1.1,9.786,9.786,0,0,1-2.893.439,8.513,8.513,0,0,1-5.566-1.794,6.543,6.543,0,0,1-2.2-5.383,6.091,6.091,0,0,1,.806-3.04,8.339,8.339,0,0,1,1.9-2.344,15.748,15.748,0,0,1,3-1.868,29.118,29.118,0,0,1,3.259-1.428q1.355-.476,3.552-1.208t3.076-1.1a1.015,1.015,0,0,0,.659-1.1V50.757a4.561,4.561,0,0,0-1.465-3.625,5.158,5.158,0,0,0-3.516-1.282,4.906,4.906,0,0,0-3.662,1.5A5.373,5.373,0,0,0,9.009,51.27q0,2.563-3,2.563a3.019,3.019,0,0,1-2.856-1.392q0-3.149,4.614-6.262A16.608,16.608,0,0,1,17.139,43.066ZM18.164,149.85a7.514,7.514,0,0,0-6.665,3.809,16.183,16.183,0,0,0-2.417,8.862,15.3,15.3,0,0,0,2.856,9.265,9.244,9.244,0,0,0,7.91,3.918,5.979,5.979,0,0,0,3.882-1.135,3.722,3.722,0,0,0,1.392-3.04V154.1a3.8,3.8,0,0,0-1.648-2.893Q21.826,149.85,18.164,149.85Zm.952-3.076a11.544,11.544,0,0,1,5.493,1.245q.513,0,.513-1.318v-7.91a23.882,23.882,0,0,0-.439-4.687q-.366-1.172-3.735-1.172h-.659q-.439,0-.439-.806,0-1.172.439-1.172,2.2-.22,4.065-.586a22.97,22.97,0,0,0,2.93-.732q1.062-.366,1.794-.7a11.253,11.253,0,0,0,1.1-.549l.293-.22h.146a.786.786,0,0,1,.586.4,2,2,0,0,1,.366.769,20.235,20.235,0,0,0-.806,6.372v32.959a27.783,27.783,0,0,0,.439,5.566,1.309,1.309,0,0,0,.806.806,4.471,4.471,0,0,0,1.355.366,12.944,12.944,0,0,0,1.355.073l.659.073q.22.073.22.879,0,1.1-.439,1.1-1.1.073-2.454.293t-2.563.476q-1.208.256-2.234.513t-1.685.476l-.659.146q-.439,0-.439-1.245v-.879q0-.439-.293-.293a16.1,16.1,0,0,1-7.764,2.271,13.468,13.468,0,0,1-10.181-4.321,14.478,14.478,0,0,1-4.1-10.327A17.756,17.756,0,0,1,7.8,152.157Q12.817,146.773,19.116,146.773Zm8.643,142.452a4.069,4.069,0,0,0-3-4.138q-3-1.062-11.938-1.062a1.124,1.124,0,0,0-.439.146,3.6,3.6,0,0,1-.659.33q-.586.256-.732.33t-.659.4q-.513.33-.7.439t-.623.439a2.176,2.176,0,0,0-.586.586,5.1,5.1,0,0,1-.439.623,2.192,2.192,0,0,0-.4.732q-.11.366-.22.842a4.384,4.384,0,0,0-.11.989q0,3.149,3.259,5.09a13.835,13.835,0,0,0,7.214,1.941,10.908,10.908,0,0,0,7.214-2.344A6.849,6.849,0,0,0,27.759,289.226ZM9.009,261.32a8.285,8.285,0,0,0,2.087,5.713,6.347,6.347,0,0,0,4.871,2.344,5.935,5.935,0,0,0,4.724-2.2,7.873,7.873,0,0,0,1.868-5.273,8.285,8.285,0,0,0-2.087-5.713A6.347,6.347,0,0,0,15.6,253.85a5.935,5.935,0,0,0-4.724,2.2A7.873,7.873,0,0,0,9.009,261.32Zm6.885-9.961a24.172,24.172,0,0,1,6.226.952,23.088,23.088,0,0,0,5.786.952h4.248q.439.146.439,1.831,0,1.025-.439,1.025h-5.2q-.293,0-.293.22l.732,1.758a8.376,8.376,0,0,1,.806,3.516,9.371,9.371,0,0,1-3.516,7.1,12.483,12.483,0,0,1-8.643,3.149,25.238,25.238,0,0,1-4.1-.293,7.068,7.068,0,0,0-2.014,1.831,3.948,3.948,0,0,0-1.062,2.344,2.307,2.307,0,0,0,.586,1.648,3.266,3.266,0,0,0,1.685.879,17.616,17.616,0,0,0,2.124.366,23.047,23.047,0,0,0,2.417.11h.513q9.082.146,12.744,1.868t3.662,5.164a12.371,12.371,0,0,1-4.761,9.7q-4.761,4.065-12.231,4.138a20.094,20.094,0,0,1-9.338-1.978Q2.124,295.6,2.124,291.5q0-4.541,7.178-7.764A6.881,6.881,0,0,1,5.64,281.9a4.872,4.872,0,0,1-1.685-3.735A6.4,6.4,0,0,1,5.6,274.211a15.5,15.5,0,0,1,3.7-3.369,8.9,8.9,0,0,1-4.065-3.479,9.849,9.849,0,0,1-1.868-5.75,9.082,9.082,0,0,1,3.625-7.288A13.594,13.594,0,0,1,15.894,251.359Zm-9.668,113.3q0-2.856-1.025-3.955A3.738,3.738,0,0,0,3.406,359.5a6.183,6.183,0,0,0-1.758-.33q-.7,0-.7-.146,0-1.758.439-1.831a86.217,86.217,0,0,0,10.107-1.9,1,1,0,0,0,.22-.037l.146-.037q.293,0,.366.623a2.788,2.788,0,0,1,0,.916,42.922,42.922,0,0,0-.366,5.273v20q0,9.3-2.856,13.77a20.234,20.234,0,0,1-4.651,5.054,20.267,20.267,0,0,1-5.164,3.076,2.563,2.563,0,0,1-.952-1.1q-.146-.366,0-.513l.879-.439a8.642,8.642,0,0,0,2.014-1.538,16.333,16.333,0,0,0,2.307-2.93,17.4,17.4,0,0,0,1.978-5.42,38.036,38.036,0,0,0,.806-8.276ZM5.347,346.2a3.728,3.728,0,0,1-1.025-2.637,3.627,3.627,0,0,1,3.662-3.662,3.662,3.662,0,1,1,0,7.324A3.728,3.728,0,0,1,5.347,346.2ZM23.438,458.92a7.48,7.48,0,0,1,4.871,1.575,8.229,8.229,0,0,1,2.673,3.625q5.493-5.2,11.353-5.2,9.229,0,9.229,14.063v8.13a27.653,27.653,0,0,0,.586,6.519q.146.513,1.9.989a11.176,11.176,0,0,0,2.49.476q.22,0,.293.879a3.027,3.027,0,0,1-.073,1.245q-7.324-.366-7.837-.366-.439,0-7.983.366a1.768,1.768,0,0,1-.293-1.208q0-.916.293-.916a10.747,10.747,0,0,0,2.6-.476q1.721-.476,1.868-.989a19.982,19.982,0,0,0,.513-4.687v-8.276q0-11.279-7.4-11.279a7.3,7.3,0,0,0-4.687,1.575q-1.978,1.575-1.978,2.6l.073.293v.366a35.741,35.741,0,0,1,.293,5.273v8.276a24.092,24.092,0,0,0,.586,5.859q.146.513,1.9.989a11.176,11.176,0,0,0,2.49.476q.22,0,.293.879a3.027,3.027,0,0,1-.073,1.245q-7.324-.366-7.837-.366-.439,0-7.983.366a1.768,1.768,0,0,1-.293-1.208q0-.916.293-.916a10.747,10.747,0,0,0,2.6-.476q1.721-.476,1.868-.989a22.146,22.146,0,0,0,.513-5.127v-7.471q0-11.646-7.031-11.646a7.458,7.458,0,0,0-4.431,1.648q-2.234,1.648-2.234,3.186v12.891a27.653,27.653,0,0,0,.586,6.519q.146.513,1.9.989a11.176,11.176,0,0,0,2.49.476q.22,0,.293.879a3.027,3.027,0,0,1-.073,1.245q-7.324-.366-7.837-.366-.439,0-7.983.366a1.768,1.768,0,0,1-.293-1.208q0-.916.293-.916a10.747,10.747,0,0,0,2.6-.476q1.721-.476,1.868-.989a22.146,22.146,0,0,0,.513-5.127V468.661q0-2.856-1.025-3.955A3.738,3.738,0,0,0,4.431,463.5a6.183,6.183,0,0,0-1.758-.33q-.7,0-.7-.146,0-1.758.439-1.831a86.217,86.217,0,0,0,10.107-1.9,1,1,0,0,0,.22-.037l.146-.037q.293,0,.366.623a2.788,2.788,0,0,1,0,.916,23.784,23.784,0,0,0-.293,2.93q0,.293.146.293.073,0,.22-.146a18.654,18.654,0,0,1,4.578-3.333A11.586,11.586,0,0,1,23.438,458.92ZM19.7,563.066q7.031,0,10.986,4.724a15.44,15.44,0,0,1,3.955,10.071,17.751,17.751,0,0,1-4.907,12.378q-4.907,5.347-11.133,5.347-1.1,0-1.941-.073a8.333,8.333,0,0,1-1.5-.256,10.4,10.4,0,0,1-1.025-.33q-.366-.146-.952-.4t-.732-.33a1.478,1.478,0,0,0-.293.952v6.3a27.653,27.653,0,0,0,.586,6.519q.146.513,1.9.989a11.176,11.176,0,0,0,2.49.476q.22,0,.293.916a2.708,2.708,0,0,1-.073,1.208q-7.324-.366-7.837-.366-.439,0-7.983.366a1.768,1.768,0,0,1-.293-1.208q0-.916.293-.916a10.747,10.747,0,0,0,2.6-.476q1.721-.476,1.868-.989a22.146,22.146,0,0,0,.513-5.127V572.588q0-2.856-1.025-3.955A3.738,3.738,0,0,0,3.7,567.424a6.183,6.183,0,0,0-1.758-.33q-.7,0-.7-.146,0-1.758.439-1.831a86.217,86.217,0,0,0,10.107-1.9,1,1,0,0,0,.22-.037l.146-.037q.22,0,.22.4a8.192,8.192,0,0,1-.073.989q-.073.586-.073.659v.439a16.387,16.387,0,0,1,3.406-1.648A11.691,11.691,0,0,1,19.7,563.066Zm-2.344,3.589a5.675,5.675,0,0,0-3.735,1.208,4.253,4.253,0,0,0-1.465,3.479v16.479a3.92,3.92,0,0,0,2.124,3.333A8.416,8.416,0,0,0,18.9,592.51a7.885,7.885,0,0,0,6.885-3.882,15.467,15.467,0,0,0,2.563-8.716q0-6.152-3.259-9.7A10.151,10.151,0,0,0,17.358,566.655ZM13.989,666.993a25.989,25.989,0,0,1,4.065.4q2.454.4,3.406.549a42.387,42.387,0,0,1,.879,7.471q0,.366-.952.366-1.025,0-1.1-.513a7.63,7.63,0,0,0-2.087-3.882,5.253,5.253,0,0,0-3.918-1.831q-5.273,0-5.273,4.321a5.9,5.9,0,0,0,.293,1.941,4,4,0,0,0,1.135,1.611q.842.769,1.282,1.1A21.811,21.811,0,0,0,13.66,679.7q1.5.842,1.868,1.062.293.146,1.721.989t2.014,1.208q.586.366,1.721,1.245a8.624,8.624,0,0,1,1.648,1.575,9.591,9.591,0,0,1,.989,1.758A5.235,5.235,0,0,1,24.1,689.7a9.125,9.125,0,0,1-3.369,7.214,11.76,11.76,0,0,1-7.91,2.893,20.017,20.017,0,0,1-2.82-.183A30.736,30.736,0,0,1,6.958,699q-1.758-.439-2.71-.586a20.746,20.746,0,0,1-.842-3.662A26.185,26.185,0,0,1,3,690.8a1.779,1.779,0,0,1,.879-.439q1.1,0,1.172.439A8.08,8.08,0,0,0,7.8,695.082a7.341,7.341,0,0,0,5.017,2.087,5.715,5.715,0,0,0,3.845-1.282,4.6,4.6,0,0,0,1.5-3.7,5.575,5.575,0,0,0-.476-2.307,5.111,5.111,0,0,0-1.538-1.9,18.779,18.779,0,0,0-1.978-1.392q-.916-.549-2.6-1.428t-2.49-1.392q-5.713-3.3-5.713-7.837a7.811,7.811,0,0,1,3.186-6.445A11.724,11.724,0,0,1,13.989,666.993ZM28.052,775.681q0-2.344-5.273-2.344-.293,0-.293-.916a1.768,1.768,0,0,1,.293-1.208q.806.073,3,.22t3.955.146l7.324-.366a3.519,3.519,0,0,1,.146,1.1q0,1.025-.513,1.025a8.755,8.755,0,0,0-2.71.586,3.611,3.611,0,0,0-2.271,1.9L20.068,802.121a2.4,2.4,0,0,1-.879,1.1,2.169,2.169,0,0,1-1.245.586q-.513,0-.659-.293-1.245-2.71-5.457-12.6T4.468,774.8q-.732-1.465-4.321-1.465-.293,0-.293-.952a1.7,1.7,0,0,1,.293-1.172q7.544.366,7.617.366l7.324-.366a2.524,2.524,0,0,1,.037,1.208q-.11.916-.33.916-3.589,0-3.589,1.245a.65.65,0,0,0,.073.293l8.789,19.849,7.4-16.846A6.127,6.127,0,0,0,28.052,775.681Zm-19.7,99.9q1.245,0,2.307-.073t2.417-.146q1.355-.073,2.38-.146a3.519,3.519,0,0,1,.146,1.1q0,1.025-.293,1.025a6.454,6.454,0,0,0-1.941.513q-1.355.513-1.5,1.025v.146q0,1.318,7.837,19.116l5.566-16.04a8.127,8.127,0,0,0,.513-2.271,2.059,2.059,0,0,0-1.135-1.794,5.777,5.777,0,0,0-3.04-.7q-.293,0-.293-.952a1.7,1.7,0,0,1,.293-1.172l2.856.22q1.9.146,3.662.146,1.611,0,3.516-.146l2.856-.22a3.519,3.519,0,0,1,.146,1.1q0,1.025-.293,1.025a7.562,7.562,0,0,0-2.6.659,3.516,3.516,0,0,0-2.161,2.124L16.479,915.5q-1.685,4.541-3.809,6.335a6.289,6.289,0,0,1-3.882,1.794,2.683,2.683,0,0,1-2.271-.952,3.118,3.118,0,0,1-.732-1.9,2.682,2.682,0,0,1,1.025-2.344q6.079,0,8.057-6.3l.879-2.637q.513-1.538.806-2.49L6.079,881.365a10.363,10.363,0,0,0-1.465-2.49,5.009,5.009,0,0,0-2.014-1.1,7.458,7.458,0,0,0-2.161-.439q-.293,0-.293-.952a1.7,1.7,0,0,1,.293-1.172Q7.983,875.579,8.35,875.579Z" transform="translate(1016 260)" fill="#0cb1f2"/>
    <path id="Path_547" data-name="Path 547" d="M33.472,62.109a11.26,11.26,0,0,0-3.149-8.02q-3.149-3.333-9.888-3.333-1.611,0-5.273.293a7.925,7.925,0,0,0-.293,2.417V64.16q0,5.566,1.172,6.519Q17.139,71.7,20,71.7a22.463,22.463,0,0,0,3.625-.293,27.656,27.656,0,0,0,4.285-1.135,8.112,8.112,0,0,0,4.028-2.93A8.59,8.59,0,0,0,33.472,62.109ZM8.5,64.526V36.841a27.636,27.636,0,0,0-.513-6.3q-.22-.586-2.161-1.1a12.609,12.609,0,0,0-2.893-.513q-.293,0-.293-.879a1.841,1.841,0,0,1,.293-1.245q3.809.146,8.716.146,3.735,0,6.116-.037t4.211-.037a23.588,23.588,0,0,1,3.882.33,18.2,18.2,0,0,1,4.065,1.208,14.974,14.974,0,0,1,3.7,2.2,9.874,9.874,0,0,1,2.637,3.479,11.048,11.048,0,0,1,1.025,4.8A8.072,8.072,0,0,1,35.6,43.8a12.206,12.206,0,0,1-3.113,3.149,13.646,13.646,0,0,1-2.454,1.245q-.586.22-.366.439,2.856.513,6.812,4.138A11.224,11.224,0,0,1,40.43,61.3a11.724,11.724,0,0,1-5.09,10Q30.249,75,21.826,75H11.792l-8.862.22a1.912,1.912,0,0,1-.22-1.172q0-.952.22-.952a11.74,11.74,0,0,0,2.82-.513q1.868-.513,2.234-1.172Q8.5,70.532,8.5,64.526ZM23.8,47.461a8.573,8.573,0,0,0,5.017-2.087,6.107,6.107,0,0,0,2.014-4.8q0-5.054-2.527-7.874T20.8,29.883a20.322,20.322,0,0,0-5.2.513q-.439.073-.439.659l-.293,7.4v8.716q0,.513,4.834.513A33.508,33.508,0,0,0,23.8,47.461ZM11.133,130.953q3.3,0,11.426-.293t12.231-.293q.293,2.124,1.135,5.6t.989,4.358a1.851,1.851,0,0,1-1.318.366q-.952,0-1.025-.513-1.1-4.028-3.076-5.164a10.916,10.916,0,0,0-5.42-1.135H21.167q-6.3,0-6.445.952a34.809,34.809,0,0,0-.366,6.152v11.719q0,.439,3.149.439h6.848a7.073,7.073,0,0,0,1.941-.293q1.025-.293,1.318-.366t.769-.952a5.1,5.1,0,0,0,.549-1.282q.073-.4.513-2.087.073-.513,1.1-.513a1.725,1.725,0,0,1,1.245.366v13.843a1.7,1.7,0,0,1-1.172.293q-.952,0-1.172-.586-.513-1.978-.879-2.966a4.319,4.319,0,0,0-.549-1.172,4.362,4.362,0,0,0-.623-.476q-.952-.586-7.764-.586-5.273,0-5.273.659V168.38a23.032,23.032,0,0,0,.659,6.665q.22.732,4.98.732h3.516q6.812,0,9.229-1.245a7.923,7.923,0,0,0,2.454-2.6,17.017,17.017,0,0,0,2.161-4.8q.146-.439,1.025-.439a2.688,2.688,0,0,1,1.831.439q-.366.952-1.135,3.04t-1.208,3.369q-.439,1.282-.952,2.966a18.269,18.269,0,0,0-.659,2.783q-3.735,0-11.792-.146T11.279,179l-8.862.22a1.912,1.912,0,0,1-.22-1.172q0-.952.22-.952a11.74,11.74,0,0,0,2.82-.513q1.868-.513,2.234-1.172.513-.879.513-6.885V140.841a27.636,27.636,0,0,0-.513-6.3q-.22-.586-2.161-1.1a12.609,12.609,0,0,0-2.893-.513q-.293,0-.293-.879a1.841,1.841,0,0,1,.293-1.245Q6.226,130.953,11.133,130.953Zm26,142.159V260.222l-.146-.293q-6.885-.146-10.84-.146-11.279,0-11.279.366v12.671a28.32,28.32,0,0,0,.659,6.812q.146.513,2.051.989a13.091,13.091,0,0,0,2.637.476q.22,0,.256.879a3.331,3.331,0,0,1-.11,1.245q-7.324-.366-8.5-.366-.366,0-8.789.366a1.559,1.559,0,0,1-.293-1.1q0-1.025.293-1.025a13.523,13.523,0,0,0,2.82-.439q1.868-.439,2.087-1.025a29,29,0,0,0,.513-6.519V244.694a29,29,0,0,0-.513-6.519q-.22-.586-2.087-1.062a12.56,12.56,0,0,0-2.82-.476q-.293,0-.293-.952a1.7,1.7,0,0,1,.293-1.172q.952.073,3.882.256t4.907.183q1.465,0,2.856-.073t3-.183q1.611-.11,2.637-.183a2.927,2.927,0,0,1,.11,1.208q-.037.916-.256.916a12.245,12.245,0,0,0-2.637.513q-1.9.513-2.051,1.025a28.32,28.32,0,0,0-.659,6.812V255.9l.146.22q7.178.146,11.133.146,4.248,0,10.84-.146a.422.422,0,0,0,.146-.293V244.694a29,29,0,0,0-.513-6.519q-.22-.586-2.087-1.062a12.56,12.56,0,0,0-2.82-.476q-.293,0-.293-.916a1.768,1.768,0,0,1,.293-1.208q.879.073,3.882.256t4.98.183q1.392,0,2.783-.073t2.966-.183l2.6-.183a3.519,3.519,0,0,1,.146,1.1q0,1.025-.293,1.025a12.245,12.245,0,0,0-2.637.513q-1.9.513-2.051,1.025a29.341,29.341,0,0,0-.586,6.812v27.832a29.341,29.341,0,0,0,.586,6.812q.146.513,2.051.989a13.091,13.091,0,0,0,2.637.476q.293,0,.293,1.1a3.246,3.246,0,0,1-.146,1.025q-7.324-.366-8.35-.366-.439,0-8.862.366a1.768,1.768,0,0,1-.293-1.208q0-.916.293-.916a13.523,13.523,0,0,0,2.82-.439q1.868-.439,2.087-1.025A29,29,0,0,0,37.134,273.112ZM12.085,338.953q1.465,0,2.856-.073t3-.183q1.611-.11,2.637-.183a2.927,2.927,0,0,1,.11,1.208q-.037.916-.256.916a12.245,12.245,0,0,0-2.637.513q-1.9.513-2.051,1.025a28.32,28.32,0,0,0-.659,6.812v11.938l.513.439h.513a5.626,5.626,0,0,0,4.248-2.124q8.569-9.595,12.6-14.868,1.758-2.124,1.758-2.783,0-1.245-4.175-1.245-.293,0-.293-.659a4.273,4.273,0,0,1,.146-1.172q.952.073,2.49.183t2.856.183q1.318.073,2.49.073,1.831,0,4.175-.183t3.223-.256a2.386,2.386,0,0,1,.11,1.062q-.037.769-.256.769a10.167,10.167,0,0,0-6.738,3.076L24.023,360.56q-.586.659.513,1.978l17.651,19.409A8.929,8.929,0,0,0,45.264,384a12.817,12.817,0,0,0,2.966.952,13.168,13.168,0,0,0,1.721.146q.366,0,.366,1.318a1.827,1.827,0,0,1-.146.806q-7.324-.366-9.082-.366-1.831,0-3.3.073t-3.3.146q-1.831.073-3.3.146a1.768,1.768,0,0,1-.293-1.208q0-.916.293-.916a8.175,8.175,0,0,0,2.014-.293q1.135-.293,1.135-.879,0-2.344-16.626-19.409a4.123,4.123,0,0,0-2.124-.293q-.513,0-.513.586v12.012a28.32,28.32,0,0,0,.659,6.812q.146.513,2.051.989a13.091,13.091,0,0,0,2.637.476q.22,0,.256.879a3.331,3.331,0,0,1-.11,1.245q-7.324-.366-8.5-.366-.366,0-8.789.366a1.559,1.559,0,0,1-.293-1.1Q3,385.1,3.3,385.1a13.523,13.523,0,0,0,2.82-.439q1.868-.439,2.087-1.025a29,29,0,0,0,.513-6.519V348.694a29,29,0,0,0-.513-6.519q-.22-.586-2.087-1.062a12.56,12.56,0,0,0-2.82-.476q-.293,0-.293-.952a1.7,1.7,0,0,1,.293-1.172q.952.073,3.882.256T12.085,338.953ZM40.356,452.621a28.544,28.544,0,0,0-.513-6.445q-.22-.586-2.527-1.135a16.5,16.5,0,0,0-3.259-.549q-.293,0-.293-.842a1.627,1.627,0,0,1,.293-1.135q.952.073,3.809.256t4.834.183q1.9,0,4.8-.22t3.406-.22a3.519,3.519,0,0,1,.146,1.1q0,.879-.293.879a18.316,18.316,0,0,0-3.186.586q-2.454.586-2.6,1.1a29.341,29.341,0,0,0-.586,6.812v27.832q0,4.541.22,10.254a2.152,2.152,0,0,1-1.392.293,3.162,3.162,0,0,1-2.417-1.685L12.378,449.4v31.274a30.889,30.889,0,0,0,.513,6.812q.146.513,2.454,1.062a17.047,17.047,0,0,0,3.04.549q.22,0,.256.879a3.331,3.331,0,0,1-.11,1.245q-7.324-.366-8.423-.366l-8.423.366a1.738,1.738,0,0,1-.22-1.1q0-1.025.22-1.025a16.459,16.459,0,0,0,3.333-.549q2.307-.549,2.527-1.208a21.836,21.836,0,0,0,.732-6.885V451.669a22.405,22.405,0,0,0-.513-5.493q-.22-.586-2.49-1.062a18.231,18.231,0,0,0-3.3-.476q-.293,0-.293-.916a1.768,1.768,0,0,1,.293-1.208q5.713.146,7.471.146,3.809,0,5.859-.146,2.71,4.98,24.829,35.889a17.581,17.581,0,0,0,.22-3Zm-14.868,96.6a12.873,12.873,0,0,0-11.133,6.116,24.282,24.282,0,0,0-4.175,14.026,28.183,28.183,0,0,0,4.761,16.187q4.761,7.031,12.817,7.031a12.847,12.847,0,0,0,11.169-6.116,24.559,24.559,0,0,0,4.138-14.1,28.012,28.012,0,0,0-4.761-16.15Q33.545,549.224,25.488,549.224Zm25.2,51.929a18.365,18.365,0,0,0,2.417-.146q1.1-.146,1.758-.293a5.734,5.734,0,0,1,.806-.146q.879,0,.879,1.465v.366q-4.834,2.563-12.3,2.563a18.452,18.452,0,0,1-7.654-1.9q-4.138-1.9-8.716-4.5A41.945,41.945,0,0,0,20.288,595a20.081,20.081,0,0,1-5.42-2.71,32.765,32.765,0,0,1-5.493-4.834,23.08,23.08,0,0,1-4.431-7.288,25.733,25.733,0,0,1,5.127-26.733,21.849,21.849,0,0,1,16.516-7.288,21.963,21.963,0,0,1,16.553,7.288,26.058,26.058,0,0,1,1.5,33.508q-5.383,6.592-11.023,7.69,1.978.952,5.457,3A29.393,29.393,0,0,0,44.9,600.42,19.637,19.637,0,0,0,50.684,601.152ZM16.26,650.807q5.054.146,8.276.146t8.276-.146q5.054-.146,7.837-.146a22.3,22.3,0,0,0,5.054-.806l1.392,10.474a2.439,2.439,0,0,1-1.758.513q-.659,0-.732-.366-1.025-4.1-2.527-5.31T36.4,653.956q-7.764,0-8.057,1.1a29.48,29.48,0,0,0-.659,7.324v26.44a28.32,28.32,0,0,0,.659,6.812q.146.513,2.051.989a13.091,13.091,0,0,0,2.637.476q.293,0,.293,1.1a3.246,3.246,0,0,1-.146,1.025q-7.324-.366-8.5-.366-.366,0-8.789.366a1.559,1.559,0,0,1-.293-1.1q0-1.025.293-1.025a13.523,13.523,0,0,0,2.82-.439q1.868-.439,2.087-1.025a29,29,0,0,0,.513-6.519V662.6q0-6.372-.659-7.544-.586-1.1-7.91-1.1-4.175,0-5.676,1.208t-2.527,5.31q-.073.366-.732.366a2.439,2.439,0,0,1-1.758-.513l1.392-10.474a22.3,22.3,0,0,0,5.054.806Q11.279,650.66,16.26,650.807ZM10.693,754.88q.366,0,7.69-.366a2.927,2.927,0,0,1,.11,1.208q-.037.916-.256.916a8.607,8.607,0,0,0-1.245.11,4.035,4.035,0,0,0-1.575.659,1.6,1.6,0,0,0-.842,1.355,12.308,12.308,0,0,0,1.685,5.42l15.161,30.029a.4.4,0,0,0,.586.183,1.024,1.024,0,0,0,.513-.549L38.6,781.174l-7.69-15.82a40.315,40.315,0,0,0-4.248-7.031,4.226,4.226,0,0,0-1.978-1.208,7.382,7.382,0,0,0-2.271-.476q-.293,0-.293-1.1a1.43,1.43,0,0,1,.293-1.025q8.423.366,9.229.366.293,0,7.617-.366a2.927,2.927,0,0,1,.11,1.208q-.037.916-.256.916a7.893,7.893,0,0,0-1.208.11,4.331,4.331,0,0,0-1.538.623,1.566,1.566,0,0,0-.842,1.392,13.94,13.94,0,0,0,1.685,5.42l4.834,9.888L47.168,763.3a10.369,10.369,0,0,0,1.025-4.248q0-1.245-1.575-1.831a8.059,8.059,0,0,0-2.747-.586q-.293,0-.293-.916a1.768,1.768,0,0,1,.293-1.208q5.859.366,7.4.366.293,0,7.617-.366a2.927,2.927,0,0,1,.11,1.208q-.037.916-.256.916a9.7,9.7,0,0,0-2.527.586,5.433,5.433,0,0,0-2.527,1.465,48.805,48.805,0,0,0-4.248,7.544L43.8,777.8l7.983,16.406q.439.806.879-.366l13.11-30.1a13.3,13.3,0,0,0,1.245-4.614,2.022,2.022,0,0,0-1.5-1.868,7.1,7.1,0,0,0-2.673-.623q-.293,0-.293-.916a1.768,1.768,0,0,1,.293-1.208q5.859.366,7.471.366,1.685,0,2.783-.073t2.271-.146q1.172-.073,2.2-.146a3.519,3.519,0,0,1,.146,1.1q0,1.025-.293,1.025a8.354,8.354,0,0,0-2.344.549,5.337,5.337,0,0,0-2.417,1.5,29.927,29.927,0,0,0-4.248,7.4L52.881,801.242q-1.1,2.344-2.856,2.344a.719.719,0,0,1-.659-.366L40.43,784.909l-7.91,16.333q-1.1,2.344-2.856,2.344A.719.719,0,0,1,29,803.22L9.961,765.354a40.315,40.315,0,0,0-4.248-7.031,4.226,4.226,0,0,0-1.978-1.208,7.382,7.382,0,0,0-2.271-.476q-.293,0-.293-.952a1.7,1.7,0,0,1,.293-1.172Q9.888,754.88,10.693,754.88Zm4.98,104.073h7.983q5.127,0,15.381-.732.22.073.476.952a5.431,5.431,0,0,1,.256,1.465l-27.393,40.8a2.294,2.294,0,0,0-.513,1.1q0,.732,1.025.732H29.443a12.106,12.106,0,0,0,4.541-.769,7.169,7.169,0,0,0,3.113-2.38,20.251,20.251,0,0,0,1.758-2.673,28.559,28.559,0,0,0,1.282-3.04q.146-.22,1.025-.22a2.376,2.376,0,0,1,1.758.659A123.851,123.851,0,0,0,39.7,907H3.369a2.778,2.778,0,0,1-.586-1.9,2.027,2.027,0,0,1,.293-1.245l28.052-41.382H15.6q-4.834,0-6.921,2.014T5.2,871.551q-.073.293-.732.293a3.28,3.28,0,0,1-2.344-.659Q4.1,862.1,4.541,858.294a39.022,39.022,0,0,0,5.31.439Q14.429,858.953,15.674,858.953Z" transform="translate(345 260)" fill="#0cb1f2"/>
    <path id="Path_553" data-name="Path 553" d="M18.75,42.92q7.031,0,11.023,4.8a15.723,15.723,0,0,1,3.992,10.217A16.957,16.957,0,0,1,28.6,70.166q-5.164,5.273-11.389,5.273a27.07,27.07,0,0,1-5.164-.476q-2.454-.476-2.82-.476a4.568,4.568,0,0,0-1.648.4,6.322,6.322,0,0,1-1.135.4,3.134,3.134,0,0,1-.916-.22q-.623-.22-.623-.513,0-.073.22-1.208t.439-3.333q.22-2.2.22-4.907V34.79A23.882,23.882,0,0,0,5.347,30.1q-.366-1.172-3.735-1.172H.952q-.439,0-.439-.806,0-1.172.439-1.172,2.2-.22,4.065-.586a22.97,22.97,0,0,0,2.93-.732q1.062-.366,1.794-.7a11.253,11.253,0,0,0,1.1-.549l.293-.22h.146a.786.786,0,0,1,.586.4,2,2,0,0,1,.366.769,20.235,20.235,0,0,0-.806,6.372V44.531q0,.806.22.806a.562.562,0,0,0,.22-.073,14.5,14.5,0,0,1,3.149-1.538A10.749,10.749,0,0,1,18.75,42.92Zm-2.344,3.589a5.568,5.568,0,0,0-3.516,1.135A3.878,3.878,0,0,0,11.426,50.9V67.969A3.5,3.5,0,0,0,13.586,71.3,11.241,11.241,0,0,0,18.6,72.363a7.247,7.247,0,0,0,6.519-3.955,17.192,17.192,0,0,0,2.344-8.936,14.01,14.01,0,0,0-3.04-9.375A9.993,9.993,0,0,0,16.406,46.509Zm.073,103.268a6.449,6.449,0,0,0-5.823,3.259,11.029,11.029,0,0,0-2.014,5.383q0,.513.439.513H23.364q.366,0,.366-.732a10.244,10.244,0,0,0-1.978-5.383A6.034,6.034,0,0,0,16.479,149.776Zm.732-2.71a13.1,13.1,0,0,1,5.933,1.282,9.943,9.943,0,0,1,3.918,3.3,15.066,15.066,0,0,1,1.978,4.1,14.423,14.423,0,0,1,.623,4.138q0,1.465-.439,1.794a3.008,3.008,0,0,1-1.685.33H9.082q-.586,0-.586.366a14.269,14.269,0,0,0,2.783,8.5,9.3,9.3,0,0,0,8.057,3.882,14.193,14.193,0,0,0,2.93-.293,14.031,14.031,0,0,0,2.38-.7,13.74,13.74,0,0,0,1.685-.806q.7-.4,1.208-.769l.513-.366q.439,0,.439.952a2.627,2.627,0,0,1-.439,1.318,13.447,13.447,0,0,1-4.321,3.7,12.242,12.242,0,0,1-6.226,1.648,13.907,13.907,0,0,1-10.437-4.578A15.6,15.6,0,0,1,2.71,163.692q0-7.69,4.138-12.158A13.536,13.536,0,0,1,17.212,147.066Zm5.64,103.854q4.907,0,7.031,3.516t2.124,10.84v7.91a27.241,27.241,0,0,0,.586,6.445q.146.513,1.9.989a11.176,11.176,0,0,0,2.49.476q.22,0,.293.879a3.027,3.027,0,0,1-.073,1.245q-7.324-.366-7.837-.366-.22,0-7.69.366a1.768,1.768,0,0,1-.293-1.208q0-.916.293-.916a9.149,9.149,0,0,0,2.454-.476q1.575-.476,1.721-.989a22.146,22.146,0,0,0,.513-5.127V266.74q0-6.738-1.868-9.045t-5.75-2.307a6.975,6.975,0,0,0-4.358,1.721q-2.161,1.721-2.161,3.04v12.964a27.653,27.653,0,0,0,.586,6.519q.146.513,1.9.989a11.176,11.176,0,0,0,2.49.476q.22,0,.293.879a3.027,3.027,0,0,1-.073,1.245q-7.324-.366-7.837-.366-.439,0-7.983.366a1.768,1.768,0,0,1-.293-1.208q0-.916.293-.916a10.747,10.747,0,0,0,2.6-.476q1.721-.476,1.868-.989a21.771,21.771,0,0,0,.513-5.054V242.79a23.882,23.882,0,0,0-.439-4.687q-.366-1.172-3.735-1.172H1.758q-.439,0-.439-.806,0-1.172.439-1.172,2.2-.22,4.065-.586a22.97,22.97,0,0,0,2.93-.732q1.062-.366,1.794-.7a5.91,5.91,0,0,0,1.025-.549l.366-.22h.146a.786.786,0,0,1,.586.4,2,2,0,0,1,.366.769,20.235,20.235,0,0,0-.806,6.372v16.04q0,.293.146.293.073,0,.22-.146a17.516,17.516,0,0,1,4.578-3.369A11.908,11.908,0,0,1,22.852,250.92Zm5.493,109.127a56.719,56.719,0,0,0-4.761,3.479,59.98,59.98,0,0,0-6.079,5.383q2.124,2.271,5.2,5.75t5.054,5.64q1.978,2.161,2.71,2.82a8.669,8.669,0,0,0,3.149,1.575,11.437,11.437,0,0,0,2.71.549q.293,0,.293,1.172a2.494,2.494,0,0,1-.073.806q-7.324-.366-7.983-.366-.146,0-7.617.366a1.627,1.627,0,0,1-.293-1.135q0-.842.293-.842a5.821,5.821,0,0,0,1.685-.293q.952-.293.952-.659a.3.3,0,0,0-.073-.22L12.817,372.5l-.879.22v4.395a35.3,35.3,0,0,0,.586,6.519q.146.513,1.9.989a11.176,11.176,0,0,0,2.49.476q.22,0,.293.879a3.027,3.027,0,0,1-.073,1.245q-7.324-.366-7.837-.366-.439,0-7.983.366a1.768,1.768,0,0,1-.293-1.208q0-.916.293-.916a10.747,10.747,0,0,0,2.6-.476q1.721-.476,1.868-.989A22.146,22.146,0,0,0,6.3,378.5V346.79a23.882,23.882,0,0,0-.439-4.687q-.366-1.172-3.735-1.172H1.465q-.439,0-.439-.806,0-1.172.439-1.172,2.2-.22,4.065-.586a22.97,22.97,0,0,0,2.93-.732q1.062-.366,1.794-.7a5.91,5.91,0,0,0,1.025-.549l.366-.22h.146a.786.786,0,0,1,.586.4,2,2,0,0,1,.366.769,20.235,20.235,0,0,0-.806,6.372v25.635a4.913,4.913,0,0,0,1.831-.659q1.611-1.392,3.369-2.856l2.637-2.2q.879-.732,1.685-1.465a7.223,7.223,0,0,0,1.1-1.172,1.575,1.575,0,0,0,.293-.879q0-.879-1.611-1.025a4.507,4.507,0,0,1-1.685-.293q-.513-1.465.073-1.685h5.786q1.1,0,2.307-.073t2.856-.146q1.648-.073,2.893-.146a.728.728,0,0,1,.33.659,2.436,2.436,0,0,1-.11.952q-.146.439-.293.439a12.1,12.1,0,0,0-2.71.439A9.382,9.382,0,0,0,28.345,360.047ZM23.584,458.92q5.127,0,7.178,3.662t2.051,11.865v6.665a27.653,27.653,0,0,0,.586,6.519q.146.513,1.9.989a11.176,11.176,0,0,0,2.49.476q.22,0,.293.879a3.027,3.027,0,0,1-.073,1.245q-7.324-.366-7.837-.366-.146,0-7.69.366a1.768,1.768,0,0,1-.293-1.208q0-.916.293-.916a9.149,9.149,0,0,0,2.454-.476q1.575-.476,1.721-.989a22.146,22.146,0,0,0,.513-5.127V475.18q0-6.812-1.758-9.3t-5.713-2.49a7.144,7.144,0,0,0-4.5,1.721q-2.161,1.721-2.161,3.113v12.891a27.653,27.653,0,0,0,.586,6.519q.146.513,1.9.989a11.176,11.176,0,0,0,2.49.476q.22,0,.293.879a3.027,3.027,0,0,1-.073,1.245q-7.324-.366-7.837-.366-.439,0-7.983.366a1.768,1.768,0,0,1-.293-1.208q0-.916.293-.916a10.747,10.747,0,0,0,2.6-.476q1.721-.476,1.868-.989A22.146,22.146,0,0,0,7.4,482.5V468.661q0-2.856-1.025-3.955A3.738,3.738,0,0,0,4.578,463.5a6.183,6.183,0,0,0-1.758-.33q-.7,0-.7-.146,0-1.758.439-1.831a86.217,86.217,0,0,0,10.107-1.9,1,1,0,0,0,.22-.037l.146-.037q.293,0,.366.623a2.788,2.788,0,0,1,0,.916,23.784,23.784,0,0,0-.293,2.93q0,.293.146.293.073,0,.22-.146a18.654,18.654,0,0,1,4.578-3.333A11.586,11.586,0,0,1,23.584,458.92ZM19.409,562.773a33.926,33.926,0,0,1,5.273.4q2.563.4,2.93.4a6.023,6.023,0,0,0,1.648-.293,8.052,8.052,0,0,1,1.135-.293,3.6,3.6,0,0,1,.879.22q.659.22.659.513,0,.073-.293,1.318t-.586,3.516a39.074,39.074,0,0,0-.293,4.98V602.4a22.982,22.982,0,0,0,.586,5.64q.146.513,1.9.989a11.176,11.176,0,0,0,2.49.476q.22,0,.293.879a3.027,3.027,0,0,1-.073,1.245q-7.324-.366-7.837-.366-.439,0-7.983.366a1.768,1.768,0,0,1-.293-1.208q0-.916.293-.916a10.747,10.747,0,0,0,2.6-.476q1.721-.476,1.868-.989a22.146,22.146,0,0,0,.513-5.127v-9.082a1.578,1.578,0,0,0-.11-.623q-.11-.256-.4-.11-4.395,2.2-7.031,2.2a13.722,13.722,0,0,1-10.583-4.614,15.2,15.2,0,0,1-4.211-10.547A17.26,17.26,0,0,1,7.8,568.23Q12.817,562.773,19.409,562.773Zm-1.245,3.076a7.127,7.127,0,0,0-5.383,2.271,11.937,11.937,0,0,0-2.93,4.944,19.385,19.385,0,0,0-.769,5.383q0,6.519,3.223,9.888a10.438,10.438,0,0,0,7.837,3.369,6.416,6.416,0,0,0,3.333-.989,3.646,3.646,0,0,0,1.648-3.406V570.317a3.756,3.756,0,0,0-1.831-3.223A9.043,9.043,0,0,0,18.164,565.85ZM5.859,671.607H1.611q-.366,0-.366-1.538a.974.974,0,0,1,.073-.513,14.16,14.16,0,0,0,4.614-3.882,19.791,19.791,0,0,0,1.575-2.161q.769-1.208,1.282-2.087a6.8,6.8,0,0,0,.513-.952q2.2,0,2.2.366v7.251q1.9,0,5.786.037t4.1.037q.586,0,.586.659a6.236,6.236,0,0,1-.732,2.783H11.5v17.944a6.972,6.972,0,0,0,1.5,4.688A4.908,4.908,0,0,0,16.919,696a8.892,8.892,0,0,0,4.541-1.392q.22-.146.659.623t.366.842a11.969,11.969,0,0,1-3.369,2.307,10.362,10.362,0,0,1-4.687,1.135A8.366,8.366,0,0,1,8.313,697.1q-2.454-2.417-2.454-6.885ZM45.63,775.9q0-2.563-4.834-2.563H40.5q-.293,0-.293-.916a1.768,1.768,0,0,1,.293-1.208q1.1.073,2.454.146t2.49.146q1.135.073,2.454.073,1.245,0,2.161-.073t2.087-.146q1.172-.073,2.271-.146a3.519,3.519,0,0,1,.146,1.1q0,1.025-.366,1.025a7.629,7.629,0,0,0-2.563.623,3.418,3.418,0,0,0-2.124,2.014l-9.595,26.221a2.1,2.1,0,0,1-2.051,1.611q-.732,0-.879-.293l-9.009-21.533-7.4,20.215a2.465,2.465,0,0,1-.293.549,3.1,3.1,0,0,1-.7.7,1.6,1.6,0,0,1-.989.366q-.732,0-.879-.293-1.758-3.955-3.992-9.485t-4.211-9.961q-1.978-4.431-4.614-9.119-.952-1.611-3.955-1.611-.293,0-.293-.952a1.7,1.7,0,0,1,.293-1.172q1.1.073,2.417.146t2.417.146q1.1.073,2.417.073l7.324-.366a2.927,2.927,0,0,1,.11,1.208q-.037.916-.256.916-3.662,0-3.662,1.685a13.908,13.908,0,0,0,.916,2.2q.916,1.978,3.186,6.848t4.614,10.144q1.245-3.589,2.783-7.91t2.161-6.152A12.823,12.823,0,0,0,26,778.024a3.6,3.6,0,0,0-.33-1.172,9.223,9.223,0,0,0-.7-1.392l-.366-.659a3.251,3.251,0,0,0-1.392-1.1,5.556,5.556,0,0,0-2.344-.366q-.293,0-.293-.916a1.768,1.768,0,0,1,.293-1.208q1.1.073,2.38.146t2.344.146q1.062.073,2.38.073,1.245,0,2.307-.073t2.454-.146q1.392-.073,2.417-.146a4.119,4.119,0,0,1,.146,1.245q0,.806-.22.879-3.516,0-3.516,2.856,0,1.538,8.057,18.018,1.1-3.369,2.783-8.13t2.454-7.068A12.484,12.484,0,0,0,45.63,775.9ZM9.888,903.558q0,.513.879.513h9.595a5.881,5.881,0,0,0,4.5-1.538,10.587,10.587,0,0,0,2.234-4.321q.146-.806.586-.806a2.258,2.258,0,0,1,2.124.879L28.271,907H3.589q-1.465-.879-1.465-1.685a.424.424,0,0,1,.073-.293l18.823-26.147L10.107,878.8a3.991,3.991,0,0,0-2.417.7,3.8,3.8,0,0,0-1.282,1.428,14.512,14.512,0,0,0-.659,1.868q-.33,1.135-.4,1.355-.22.439-1.758.439-.806,0-.806-.22,0-.293.513-3.479t.659-5.383q4.321.439,6.958.439h8.936a74.626,74.626,0,0,0,8.936-.586,4.241,4.241,0,0,1,.22,1.758L10.4,902.532A2.361,2.361,0,0,0,9.888,903.558Z" transform="translate(1268 260)" fill="#0cb1f2"/>
    <path id="Path_549" data-name="Path 549" d="M46.436,61.6a48.691,48.691,0,0,1-1.025,5.6q-1.025,4.8-1.465,5.017-5.347,3.223-17.5,3.223A21.876,21.876,0,0,1,10,68.335,23.672,23.672,0,0,1,3.223,51.416a25.182,25.182,0,0,1,6.958-17.834,22.468,22.468,0,0,1,17.065-7.434,90.668,90.668,0,0,1,17.8,1.831Q44.9,37.793,44.9,38.525q0,1.1-1.538,1.1-.732,0-.952-.366-.22-.952-.549-1.941a11.473,11.473,0,0,0-1.392-2.563,11.277,11.277,0,0,0-2.563-2.71,13.819,13.819,0,0,0-4.248-1.978,21.082,21.082,0,0,0-6.189-.842q-7.178,0-12.231,6.335a22.358,22.358,0,0,0-5.054,14.319,28.39,28.39,0,0,0,2.051,10.913,19.09,19.09,0,0,0,6.482,8.24,17.25,17.25,0,0,0,10.51,3.259q7.251,0,11.206-4.248a9.942,9.942,0,0,0,1.794-2.893q.769-1.794,1.172-3t.623-1.208a4.758,4.758,0,0,1,1.062.146,7.207,7.207,0,0,1,.989.293Zm-34.5,69.356q3.3,0,11.426-.293t12.231-.293q.293,2.124,1.135,5.6t.989,4.358a1.851,1.851,0,0,1-1.318.366q-.952,0-1.025-.513-1.1-4.028-3.076-5.164a10.916,10.916,0,0,0-5.42-1.135H21.973q-6.3,0-6.445.952a34.809,34.809,0,0,0-.366,6.152v11.938q0,.439,3.076.439h3.882q4.907,0,6.006-.7t1.9-3.992a4.669,4.669,0,0,1,.146-.659q.073-.513,1.1-.513a1.725,1.725,0,0,1,1.245.366v14.209a1.7,1.7,0,0,1-1.172.293q-.952,0-1.172-.586-.513-1.978-.879-2.966a4.319,4.319,0,0,0-.549-1.172,4.362,4.362,0,0,0-.623-.476q-.952-.586-7.764-.586-5.2,0-5.2.659v11.572a28.32,28.32,0,0,0,.659,6.812q.146.513,2.051.989a13.091,13.091,0,0,0,2.637.476q.293,0,.293,1.1a3.246,3.246,0,0,1-.146,1.025q-7.324-.366-8.5-.366-.366,0-8.789.366a1.559,1.559,0,0,1-.293-1.1q0-1.025.293-1.025a13.523,13.523,0,0,0,2.82-.439q1.868-.439,2.087-1.025a29.469,29.469,0,0,0,.513-6.592v-28.2a27.636,27.636,0,0,0-.513-6.3q-.22-.586-2.161-1.1a12.609,12.609,0,0,0-2.893-.513q-.293,0-.293-.879a1.841,1.841,0,0,1,.293-1.245Q7.031,130.953,11.938,130.953ZM8.5,244.694a29,29,0,0,0-.513-6.519q-.22-.586-2.087-1.062a12.56,12.56,0,0,0-2.82-.476q-.293,0-.293-.952a1.7,1.7,0,0,1,.293-1.172q8.423.366,8.789.366,1.172,0,8.5-.366a3.519,3.519,0,0,1,.146,1.1q0,1.025-.293,1.025a12.245,12.245,0,0,0-2.637.513q-1.9.513-2.051,1.025a28.32,28.32,0,0,0-.659,6.812v27.832a28.32,28.32,0,0,0,.659,6.812q.146.513,2.051.989a13.091,13.091,0,0,0,2.637.476q.293,0,.293,1.1a3.246,3.246,0,0,1-.146,1.025q-7.324-.366-8.5-.366-.366,0-8.789.366a1.559,1.559,0,0,1-.293-1.1q0-1.025.293-1.025a13.523,13.523,0,0,0,2.82-.439q1.868-.439,2.087-1.025a29,29,0,0,0,.513-6.519Zm3.3,94.259q1.465,0,2.856-.073t3-.183q1.611-.11,2.637-.183a3.519,3.519,0,0,1,.146,1.1q0,1.025-.293,1.025a12.245,12.245,0,0,0-2.637.513q-1.9.513-2.051,1.025a28.32,28.32,0,0,0-.659,6.812V376.6a26.427,26.427,0,0,0,.659,6.445q.22.732,4.98.732H23.95q6.812,0,9.229-1.245a7.923,7.923,0,0,0,2.454-2.6,17.017,17.017,0,0,0,2.161-4.8q.146-.439,1.025-.439a2.688,2.688,0,0,1,1.831.439q-.366.952-1.135,3.04t-1.208,3.369q-.439,1.282-.952,2.966a18.269,18.269,0,0,0-.659,2.783q-3.809,0-11.9-.22t-13.074-.22l-8.862.22a1.912,1.912,0,0,1-.22-1.172q0-.952.22-.952a13.134,13.134,0,0,0,2.856-.439q1.831-.439,2.2-1.1.513-.879.513-6.885V348.841a29.938,29.938,0,0,0-.513-6.665q-.22-.586-2.087-1.062A12.56,12.56,0,0,0,3,340.638q-.293,0-.293-.952A1.7,1.7,0,0,1,3,338.514q.952.073,3.882.256T11.792,338.953Zm13.7,106.271A12.54,12.54,0,0,0,14.5,451.3a24.868,24.868,0,0,0-4.028,14.063,31.909,31.909,0,0,0,1.9,11.06,20.62,20.62,0,0,0,5.933,8.679,14,14,0,0,0,9.448,3.479,12.154,12.154,0,0,0,8.2-3.04A17.937,17.937,0,0,0,41.125,478a27.814,27.814,0,0,0,1.648-9.631,31.6,31.6,0,0,0-1.9-11.023,20.653,20.653,0,0,0-5.933-8.643A14,14,0,0,0,25.488,445.224ZM10.034,484.481a25.894,25.894,0,0,1,.037-35.046,21.849,21.849,0,0,1,16.516-7.288,21.963,21.963,0,0,1,16.553,7.288,25.742,25.742,0,0,1,0,35.046,22.014,22.014,0,0,1-16.553,7.251A22.014,22.014,0,0,1,10.034,484.481Zm10.986,65.4a19.946,19.946,0,0,0-5.127.513q-.293.073-.476.549a9.6,9.6,0,0,0-.293,2.2q-.11,1.721-.11,5.31v8.862q0,2.124,6.372,2.124h1.831q2.563,0,5.31-2.563a8.875,8.875,0,0,0,2.747-6.812Q31.274,549.883,21.021,549.883Zm1.172-3.223a18.336,18.336,0,0,1,5.054.732,21.743,21.743,0,0,1,5.054,2.2,11.6,11.6,0,0,1,4.1,4.175,12.09,12.09,0,0,1,1.611,6.3,11.5,11.5,0,0,1-2.307,6.445,15.091,15.091,0,0,1-6.262,5.2q-.732.293-.439.732a52.122,52.122,0,0,0,8.423,12.891q7.031,7.69,11.426,7.69a2.265,2.265,0,0,1,.22,1.025,2.446,2.446,0,0,1-.22,1.1,7.625,7.625,0,0,1-1.978.22q-10.254,0-17.8-10.547-1.172-1.611-2.673-3.845t-2.2-3.223q-.7-.989-1.611-2.161a12,12,0,0,0-1.611-1.758,6.5,6.5,0,0,0-1.5-.952,8.786,8.786,0,0,0-2.71-.293,7.72,7.72,0,0,0-.879.037,1.031,1.031,0,0,0-.586.33,1.194,1.194,0,0,0-.293.879V584.6q0,4.907.586,6.372.366.952,2.6,1.538a14.6,14.6,0,0,0,3.186.586q.293,0,.293,1.025a3.519,3.519,0,0,1-.146,1.1q-7.324-.366-9.521-.366l-8.936.366a2.288,2.288,0,0,1-.22-1.318q0-.952.22-.952a13.134,13.134,0,0,0,2.856-.439q1.831-.439,2.2-1.1.513-.879.513-6.885V556.841a27.636,27.636,0,0,0-.513-6.3q-.22-.586-2.161-1.1a12.609,12.609,0,0,0-2.893-.513q-.293,0-.293-.879a1.841,1.841,0,0,1,.293-1.245l8.789.146q2.2,0,5.2-.146T22.192,546.66ZM11.5,650.88q1.172,0,8.5-.366a3.246,3.246,0,0,1,.146,1.025q0,1.1-.293,1.1a12.245,12.245,0,0,0-2.637.513q-1.9.513-2.051,1.025a28.32,28.32,0,0,0-.659,6.812V677.32q0,8.276,3.516,13.184a11.53,11.53,0,0,0,9.961,4.907q12.524,0,12.524-16.479V660.621a28.544,28.544,0,0,0-.513-6.445q-.22-.586-2.527-1.135a16.5,16.5,0,0,0-3.259-.549q-.293,0-.293-.842a1.627,1.627,0,0,1,.293-1.135q.952.073,3.809.256t4.834.183q1.9,0,4.8-.22t3.406-.22a3.519,3.519,0,0,1,.146,1.1q0,.879-.293.879a18.316,18.316,0,0,0-3.186.586q-2.454.586-2.6,1.1a29.341,29.341,0,0,0-.586,6.812v17.8q0,11.353-4.761,15.784T26.221,699q-8.716,0-13.4-5.127T8.13,677.32V660.694a29,29,0,0,0-.513-6.519q-.22-.586-2.087-1.062a12.56,12.56,0,0,0-2.82-.476q-.293,0-.293-.952a1.7,1.7,0,0,1,.293-1.172Q11.133,650.88,11.5,650.88Zm1.392,104q2.051,0,9.375-.366a2.927,2.927,0,0,1,.11,1.208q-.037.916-.256.916a8.533,8.533,0,0,0-2.856.549q-1.538.549-1.538,1.794a4.272,4.272,0,0,0,.879,2.2L27.026,774q.293-.439,1.721-2.234t2.051-2.6q.623-.806,1.9-2.49t1.9-2.6q.623-.916,1.392-2.087a14.748,14.748,0,0,0,1.1-1.9,3.073,3.073,0,0,0,.33-1.172q0-.806-1.5-1.538a8.205,8.205,0,0,0-3.625-.732q-.293,0-.293-.916a1.768,1.768,0,0,1,.293-1.208q6.812.366,9.3.366.879,0,8.2-.366a2.927,2.927,0,0,1,.11,1.208q-.037.916-.256.916a20.177,20.177,0,0,0-3.662.586q-2.637.586-3.369,1.538l-13.77,18.018L42.92,798.166a5.723,5.723,0,0,0,3.04,2.2,12.438,12.438,0,0,0,4.138.732q.366,0,.366,1.172a2.269,2.269,0,0,1-.146.952q-7.324-.366-7.69-.366-.439,0-10.693.366a1.768,1.768,0,0,1-.293-1.208q0-.916.293-.916a8.12,8.12,0,0,0,2.637-.586q1.611-.586,1.611-1.465a1.948,1.948,0,0,0-.366-.879L24.829,781.394q-12.012,16.113-12.012,17.578a1.336,1.336,0,0,0,.33.732,3.739,3.739,0,0,0,1.575.916,8.664,8.664,0,0,0,3.076.476q.293,0,.293,1.172a1.983,1.983,0,0,1-.146.952q-6.812-.366-8.276-.366-1.685,0-9.009.366a2.994,2.994,0,0,1-.146-.952q0-1.172.293-1.172a15.029,15.029,0,0,0,1.575-.11,12.88,12.88,0,0,0,2.527-.623,5.913,5.913,0,0,0,2.344-1.318l15.674-20.508L12.671,762.863a14.638,14.638,0,0,0-4.834-5.054,7.938,7.938,0,0,0-4.1-1.172q-.293,0-.293-.916a1.768,1.768,0,0,1,.293-1.208Q12.744,754.88,12.891,754.88Zm-2.49,105.1a2.716,2.716,0,0,1,2.454,1.355,6.052,6.052,0,0,1,.842,3.259q0,.732-.33,3.882t-.879,10.071q-.549,6.921-1.062,15.2a3.079,3.079,0,0,1-.366,1.5,3.809,3.809,0,0,1-1.392.916q-.366.146-.623-.366a3.571,3.571,0,0,1-.33-1.245q-.586-9.521-1.135-16.516t-.769-9.448q-.22-2.454-.22-3.992a5.165,5.165,0,0,1,1.062-3.223A3.3,3.3,0,0,1,10.4,859.979Zm-3.149,46.8A4.339,4.339,0,0,1,6.006,903.7a3.973,3.973,0,0,1,1.245-2.966,4.156,4.156,0,0,1,3-1.208,4.127,4.127,0,0,1,4.175,4.175,4.281,4.281,0,0,1-1.208,3.04,3.918,3.918,0,0,1-2.966,1.282A4.092,4.092,0,0,1,7.251,906.78Z" transform="translate(607 260)" fill="#0cb1f2"/>
    <path id="Path_560" data-name="Path 560" d="M16.919,43.066q8.057,0,11.133,3.735,0,4.907-2.71,4.907a2.9,2.9,0,0,1-1.9-.549,10.932,10.932,0,0,1-1.685-2.014q-2.271-3.369-5.42-3.369a7.129,7.129,0,0,0-5.457,2.856q-2.454,2.856-2.454,8.5a15.851,15.851,0,0,0,2.893,9.741,9.441,9.441,0,0,0,8.02,3.882,14.193,14.193,0,0,0,2.93-.293,14.031,14.031,0,0,0,2.38-.7,13.74,13.74,0,0,0,1.685-.806q.7-.4,1.208-.769l.513-.366q.439,0,.439.952a2.627,2.627,0,0,1-.439,1.318,13.447,13.447,0,0,1-4.321,3.7A12.242,12.242,0,0,1,17.5,75.439,13.907,13.907,0,0,1,7.068,70.862,15.6,15.6,0,0,1,2.71,59.692,19.083,19.083,0,0,1,6.372,48.01Q10.034,43.066,16.919,43.066Zm4.834,85.03q5.273,0,6.958,2.856,0,4.614-2.637,4.614a2.406,2.406,0,0,1-1.831-1.135,27.739,27.739,0,0,0-2.014-2.307,3.683,3.683,0,0,0-2.747-1.172q-3.223,0-4.98,3.955a22.747,22.747,0,0,0-1.758,9.3v3.735a.324.324,0,0,0,.366.366h8.13q.366,0,.366.513a6.91,6.91,0,0,1-.879,2.93H13.184a.388.388,0,0,0-.439.439v16.919a26.8,26.8,0,0,0,.659,6.519q.146.513,1.794.989a9.92,9.92,0,0,0,2.307.476q.22,0,.293.879a3.027,3.027,0,0,1-.073,1.245q-7.324-.366-7.837-.366-.22,0-7.69.366a1.334,1.334,0,0,1-.22-.7,3.345,3.345,0,0,1,0-.989q.073-.439.22-.439a9.533,9.533,0,0,0,2.49-.476q1.611-.476,1.758-.989a26.331,26.331,0,0,0,.732-6.519V152.267q0-.513-.366-.513H2.93q-.22,0-.22-.439,0-.659,1.172-1.831a3.5,3.5,0,0,1,2.49-1.172h.439q.366,0,.366-.439v-.952a20.212,20.212,0,0,1,4.578-13.257Q16.333,128.1,21.753,128.1ZM7.251,242.2a3.728,3.728,0,0,1-1.025-2.637,3.627,3.627,0,0,1,3.662-3.662,3.662,3.662,0,1,1,0,7.324A3.728,3.728,0,0,1,7.251,242.2Zm6.006,30.908a27.653,27.653,0,0,0,.586,6.519q.146.513,1.9.989a11.176,11.176,0,0,0,2.49.476q.22,0,.293.879a3.027,3.027,0,0,1-.073,1.245q-7.324-.366-7.837-.366t-7.983.366a1.768,1.768,0,0,1-.293-1.208q0-.916.293-.916a10.747,10.747,0,0,0,2.6-.476q1.721-.476,1.868-.989a22.146,22.146,0,0,0,.513-5.127V260.661q0-2.856-1.025-3.955A3.738,3.738,0,0,0,4.8,255.5a6.183,6.183,0,0,0-1.758-.33q-.7,0-.7-.146,0-1.758.439-1.831a86.217,86.217,0,0,0,10.107-1.9l.146-.073h.22q.293,0,.366.623a2.788,2.788,0,0,1,0,.916,42.922,42.922,0,0,0-.366,5.273ZM6.372,378.5V346.79a23.882,23.882,0,0,0-.439-4.687q-.366-1.172-3.735-1.172H1.538q-.439,0-.439-.806,0-1.172.439-1.172,2.2-.22,4.065-.586a22.97,22.97,0,0,0,2.93-.732q1.062-.366,1.794-.7a11.253,11.253,0,0,0,1.1-.549l.293-.22h.146a.786.786,0,0,1,.586.4,2,2,0,0,1,.366.769,20.235,20.235,0,0,0-.806,6.372v33.4a27.653,27.653,0,0,0,.586,6.519q.146.513,1.9.989a11.176,11.176,0,0,0,2.49.476q.22,0,.293.879a3.027,3.027,0,0,1-.073,1.245q-7.324-.366-7.837-.366-.439,0-7.983.366a1.768,1.768,0,0,1-.293-1.208q0-.916.293-.916a10.747,10.747,0,0,0,2.6-.476q1.721-.476,1.868-.989A22.146,22.146,0,0,0,6.372,378.5ZM17.8,461.85a7.415,7.415,0,0,0-6.335,3.552,14.9,14.9,0,0,0-2.454,8.679,17.033,17.033,0,0,0,3.113,10.291q3.113,4.285,7.288,4.285a7.454,7.454,0,0,0,6.372-3.662,15.254,15.254,0,0,0,2.49-8.789,16.457,16.457,0,0,0-3.149-10.144Q21.973,461.85,17.8,461.85Zm.806-2.856a15.259,15.259,0,0,1,11.279,4.761A15.705,15.705,0,0,1,34.57,475.18a16.114,16.114,0,0,1-4.578,11.536,14.933,14.933,0,0,1-11.243,4.8,15.285,15.285,0,0,1-11.353-4.8,16.682,16.682,0,0,1-.146-23.035A15.155,15.155,0,0,1,18.6,458.993Zm2.856,104q4.321,0,5.713,2.124a6.732,6.732,0,0,1-.806,3.735,2.353,2.353,0,0,1-1.978,1.172,3.2,3.2,0,0,1-2.417-1.245,3.8,3.8,0,0,0-3-1.245,4.947,4.947,0,0,0-3.955,2.124,7.089,7.089,0,0,0-1.685,4.468v10.986a27.653,27.653,0,0,0,.586,6.519q.146.513,1.941.989a11.636,11.636,0,0,0,2.527.476q.22,0,.293.879a3.027,3.027,0,0,1-.073,1.245q-7.324-.366-7.91-.366-.439,0-7.983.366a1.768,1.768,0,0,1-.293-1.208q0-.916.293-.916a10.747,10.747,0,0,0,2.6-.476q1.721-.476,1.868-.989A22.146,22.146,0,0,0,7.69,586.5V572.661q0-2.856-1.025-3.955A3.738,3.738,0,0,0,4.871,567.5a6.183,6.183,0,0,0-1.758-.33q-.7,0-.7-.146,0-1.758.439-1.831a86.217,86.217,0,0,0,10.107-1.9,1,1,0,0,0,.22-.037l.146-.037q.293,0,.366.623a2.788,2.788,0,0,1,0,.916l-.439,3.662a15.22,15.22,0,0,1,3.625-3.7A7.652,7.652,0,0,1,21.46,562.993Zm10.4,111.031v14.648a27.017,27.017,0,0,0,.513,5.566,1.309,1.309,0,0,0,.806.806,4.508,4.508,0,0,0,1.392.366q.732.073,1.465.073l.659.073q.22.073.22.806a2.233,2.233,0,0,1-.183.7q-.183.476-.4.476-1.1.073-2.454.293t-2.527.513q-1.172.293-2.2.586t-1.611.513l-.659.146q-.586,0-.586-1.172v-3.735l-.146-.366q-4.834,5.2-9.595,5.2a7.789,7.789,0,0,1-7.507-4.944,20.984,20.984,0,0,1-1.282-4.321A25.188,25.188,0,0,1,7.4,685.89v-9.229q0-2.856-1.025-3.955A3.738,3.738,0,0,0,4.578,671.5a6.183,6.183,0,0,0-1.758-.33q-.7,0-.7-.146,0-1.758.439-1.831a86.217,86.217,0,0,0,10.107-1.9,1,1,0,0,0,.22-.037l.146-.037q.293,0,.366.623a2.788,2.788,0,0,1,0,.916,46.979,46.979,0,0,0-.439,5.42v9.888q0,5.64,1.685,8.313t5.493,2.673a6.282,6.282,0,0,0,4.175-1.721q1.978-1.721,1.978-2.966v-13.7q0-2.856-1.025-3.955a3.738,3.738,0,0,0-1.794-1.208,6.183,6.183,0,0,0-1.758-.33q-.7,0-.7-.146,0-1.758.439-1.831a86.217,86.217,0,0,0,10.107-1.9,1,1,0,0,0,.22-.037l.146-.037q.293,0,.366.623a2.788,2.788,0,0,1,0,.916A46.626,46.626,0,0,0,31.86,674.024ZM.952,772.238a4.541,4.541,0,0,1,.293-1.025q7.1.366,7.324.366.146,0,7.69-.366a3.9,3.9,0,0,1,.073.879q0,1.245-.22,1.245-2.93,0-2.93,1.245a1.948,1.948,0,0,0,.366.879l4.761,7.4q.513-.806,1.538-2.307t1.648-2.417a16.837,16.837,0,0,0,1.135-1.941,3.935,3.935,0,0,0,.513-1.538q0-.659-.842-.916a7.422,7.422,0,0,0-1.9-.293,5.324,5.324,0,0,1-1.208-.11q-.22-.073-.22-1.172a1.61,1.61,0,0,1,.22-.952q7.471.366,7.69.366t6.665-.366a6.172,6.172,0,0,1,.146,1.025q0,1.1-.22,1.1-4.834.586-6.372,2.49l-7.031,9.155a.9.9,0,0,0-.146.513,1.823,1.823,0,0,0,.22.806l7.837,11.572a7.59,7.59,0,0,0,6.152,3.223q.22,0,.22,1.025a1.736,1.736,0,0,1-.293,1.1q-6.812-.366-6.885-.366-.22,0-8.13.366a6.43,6.43,0,0,1-.146-.952q0-1.172.22-1.172,3.076-.22,3.076-1.318a1.124,1.124,0,0,0-.146-.439l-5.566-8.789-5.054,7.544a2.721,2.721,0,0,0-.513,1.392q0,1.318,3.662,1.611h.366q.22,0,.22,1.1a1.43,1.43,0,0,1-.293,1.025q-7.1-.366-7.324-.366-.146,0-7.1.366a4.3,4.3,0,0,1-.146-1.025q0-1.1.293-1.1,4.907-.732,6.592-3.076l7.617-10.181a1,1,0,0,1,.037-.22,1,1,0,0,0,.037-.22,1.124,1.124,0,0,0-.146-.439L7.178,775.9a5.875,5.875,0,0,0-2.71-1.758,9.611,9.611,0,0,0-3.3-.806Zm9.448,87.74a2.716,2.716,0,0,1,2.454,1.355,6.052,6.052,0,0,1,.842,3.259q0,.732-.33,3.882t-.879,10.071q-.549,6.921-1.062,15.2a3.079,3.079,0,0,1-.366,1.5,3.809,3.809,0,0,1-1.392.916q-.366.146-.623-.366a3.571,3.571,0,0,1-.33-1.245q-.586-9.521-1.135-16.516t-.769-9.448q-.22-2.454-.22-3.992a5.165,5.165,0,0,1,1.062-3.223A3.3,3.3,0,0,1,10.4,859.979Zm-3.149,46.8A4.339,4.339,0,0,1,6.006,903.7a3.973,3.973,0,0,1,1.245-2.966,4.156,4.156,0,0,1,3-1.208,4.127,4.127,0,0,1,4.175,4.175,4.281,4.281,0,0,1-1.208,3.04,3.918,3.918,0,0,1-2.966,1.282A4.092,4.092,0,0,1,7.251,906.78Z" transform="translate(1530 260)" fill="#0cb1f2"/>
    <path id="Path_550" data-name="Path 550" d="M0,0V960" transform="translate(817.021 241.5)" fill="none" stroke="#094c84" stroke-width="2"/>
    <path id="Path_548" data-name="Path 548" d="M37.148,49.277a38.953,38.953,0,0,1-.82,4.482q-.82,3.838-1.172,4.014-4.277,2.578-14,2.578A17.5,17.5,0,0,1,8,54.668a18.938,18.938,0,0,1-5.42-13.535A20.145,20.145,0,0,1,8.145,26.865,17.975,17.975,0,0,1,21.8,20.918a72.534,72.534,0,0,1,14.238,1.465q-.117,7.852-.117,8.438,0,.879-1.23.879-.586,0-.762-.293-.176-.762-.439-1.553A9.179,9.179,0,0,0,32.373,27.8a9.022,9.022,0,0,0-2.051-2.168,11.055,11.055,0,0,0-3.4-1.582,16.866,16.866,0,0,0-4.951-.674q-5.742,0-9.785,5.068A17.887,17.887,0,0,0,8.145,39.9a22.712,22.712,0,0,0,1.641,8.73,15.272,15.272,0,0,0,5.186,6.592,13.8,13.8,0,0,0,8.408,2.607q5.8,0,8.965-3.4a7.953,7.953,0,0,0,1.436-2.314q.615-1.436.938-2.4t.5-.967a3.807,3.807,0,0,1,.85.117,5.766,5.766,0,0,1,.791.234Zm32.8,2.813V41.777l-.117-.234q-5.508-.117-8.672-.117-9.023,0-9.023.293V51.855a22.656,22.656,0,0,0,.527,5.449q.117.41,1.641.791a10.473,10.473,0,0,0,2.109.381q.176,0,.205.7a2.665,2.665,0,0,1-.088,1q-5.859-.293-6.8-.293-.293,0-7.031.293a1.247,1.247,0,0,1-.234-.879q0-.82.234-.82a10.819,10.819,0,0,0,2.256-.352q1.494-.352,1.67-.82a23.2,23.2,0,0,0,.41-5.215V29.355a23.2,23.2,0,0,0-.41-5.215q-.176-.469-1.67-.85A10.048,10.048,0,0,0,42.7,22.91q-.234,0-.234-.762a1.357,1.357,0,0,1,.234-.937q.762.059,3.105.205t3.926.146q1.172,0,2.285-.059t2.4-.146q1.289-.088,2.109-.146a2.342,2.342,0,0,1,.088.967q-.029.732-.205.732a9.8,9.8,0,0,0-2.109.41q-1.523.41-1.641.82a22.656,22.656,0,0,0-.527,5.449v8.73l.117.176q5.742.117,8.906.117,3.4,0,8.672-.117a.338.338,0,0,0,.117-.234V29.355a23.2,23.2,0,0,0-.41-5.215q-.176-.469-1.67-.85a10.048,10.048,0,0,0-2.256-.381q-.234,0-.234-.732a1.414,1.414,0,0,1,.234-.967q.7.059,3.105.205t3.984.146q1.113,0,2.227-.059t2.373-.146l2.08-.146a2.815,2.815,0,0,1,.117.879q0,.82-.234.82a9.8,9.8,0,0,0-2.109.41q-1.523.41-1.641.82a23.473,23.473,0,0,0-.469,5.449V51.855a23.473,23.473,0,0,0,.469,5.449q.117.41,1.641.791a10.473,10.473,0,0,0,2.109.381q.234,0,.234.879a2.6,2.6,0,0,1-.117.82q-5.859-.293-6.68-.293-.352,0-7.09.293a1.414,1.414,0,0,1-.234-.967q0-.732.234-.732a10.819,10.819,0,0,0,2.256-.352q1.494-.352,1.67-.82A23.2,23.2,0,0,0,69.945,52.09ZM104.85,21.328l11.719,30.938q1.055,2.754,1.7,4.219a2.9,2.9,0,0,0,1.816,1.436,6.936,6.936,0,0,0,2.168.557q.234,0,.234,1.113a1.928,1.928,0,0,1-.117.586q-5.859-.293-6.445-.293-.059,0-6.8.293a1.337,1.337,0,0,1-.205-.967q.029-.732.264-.732a6.814,6.814,0,0,0,1.758-.293q1.055-.293,1.23-.762a3.853,3.853,0,0,0,.117-.937,9.279,9.279,0,0,0-.205-1.787q-.205-1.025-.381-1.611l-.234-.645-2.4-6.621a.472.472,0,0,0-.352-.234q-2.285-.176-4.453-.176-3.047,0-7.441.293l-.293.176-2.52,6.445a15.409,15.409,0,0,0-1,4.043,1.371,1.371,0,0,0,.469,1.172,4.419,4.419,0,0,0,1.7.674,8.809,8.809,0,0,0,1.7.264q.176,0,.205.7a2.665,2.665,0,0,1-.088,1q-5.859-.293-6.035-.293-1.172,0-2.051.059t-1.963.117q-1.084.059-2.08.117a1.247,1.247,0,0,1-.234-.879q0-.82.234-.82a7.474,7.474,0,0,0,1.816-.293,2.784,2.784,0,0,0,1.523-.82,23.435,23.435,0,0,0,2.754-5.508l10.2-26.191q.117-.293.322-.937t.322-.967q.117-.322.352-.82a4.437,4.437,0,0,1,.41-.732q.176-.234.439-.527a1.46,1.46,0,0,1,.586-.41,2.134,2.134,0,0,1,.732-.117Zm-6.8,21.152q3.047.117,4.16.117,2.578,0,5.332-.176l.176-.293L102.975,29.18,97.936,42.246Q97.936,42.48,98.053,42.48Zm44.1-18.574a15.957,15.957,0,0,0-4.1.41q-.234.059-.381.439a7.683,7.683,0,0,0-.234,1.758q-.088,1.377-.088,4.248v7.09q0,1.7,5.1,1.7h1.465a6.394,6.394,0,0,0,4.248-2.051,7.1,7.1,0,0,0,2.2-5.449Q150.361,23.906,142.158,23.906Zm.938-2.578a14.669,14.669,0,0,1,4.043.586,17.394,17.394,0,0,1,4.043,1.758,9.282,9.282,0,0,1,3.281,3.34,9.672,9.672,0,0,1,1.289,5.039,9.2,9.2,0,0,1-1.846,5.156,12.072,12.072,0,0,1-5.01,4.16q-.586.234-.352.586a41.7,41.7,0,0,0,6.738,10.313q5.625,6.152,9.141,6.152a1.812,1.812,0,0,1,.176.82,1.957,1.957,0,0,1-.176.879,6.1,6.1,0,0,1-1.582.176q-8.2,0-14.238-8.437-.937-1.289-2.139-3.076T144.707,46.2q-.557-.791-1.289-1.729a9.6,9.6,0,0,0-1.289-1.406,5.2,5.2,0,0,0-1.2-.762,7.029,7.029,0,0,0-2.168-.234,6.176,6.176,0,0,0-.7.029.825.825,0,0,0-.469.264.955.955,0,0,0-.234.7V51.68a17.061,17.061,0,0,0,.469,5.1q.293.762,2.08,1.23a11.682,11.682,0,0,0,2.549.469q.234,0,.234.82a2.815,2.815,0,0,1-.117.879q-5.859-.293-7.617-.293l-7.148.293a1.831,1.831,0,0,1-.176-1.055q0-.762.176-.762a10.508,10.508,0,0,0,2.285-.352q1.465-.352,1.758-.879.41-.7.41-5.508V29.473a22.108,22.108,0,0,0-.41-5.039q-.176-.469-1.729-.879a10.087,10.087,0,0,0-2.314-.41q-.234,0-.234-.7a1.473,1.473,0,0,1,.234-1l7.031.117q1.758,0,4.16-.117T143.1,21.328Zm44.1,0,11.719,30.938q1.055,2.754,1.7,4.219a2.9,2.9,0,0,0,1.816,1.436,6.936,6.936,0,0,0,2.168.557q.234,0,.234,1.113a1.928,1.928,0,0,1-.117.586q-5.859-.293-6.445-.293-.059,0-6.8.293a1.337,1.337,0,0,1-.205-.967q.029-.732.264-.732a6.814,6.814,0,0,0,1.758-.293q1.055-.293,1.23-.762a3.853,3.853,0,0,0,.117-.937,9.279,9.279,0,0,0-.205-1.787q-.205-1.025-.381-1.611l-.234-.645-2.4-6.621a.472.472,0,0,0-.352-.234q-2.285-.176-4.453-.176-3.047,0-7.441.293l-.293.176-2.52,6.445a15.409,15.409,0,0,0-1,4.043,1.371,1.371,0,0,0,.469,1.172,4.419,4.419,0,0,0,1.7.674,8.809,8.809,0,0,0,1.7.264q.176,0,.205.7a2.665,2.665,0,0,1-.088,1q-5.859-.293-6.035-.293-1.172,0-2.051.059t-1.963.117q-1.084.059-2.08.117a1.247,1.247,0,0,1-.234-.879q0-.82.234-.82a7.474,7.474,0,0,0,1.816-.293,2.784,2.784,0,0,0,1.523-.82,23.435,23.435,0,0,0,2.754-5.508l10.2-26.191q.117-.293.322-.937t.322-.967q.117-.322.352-.82a4.437,4.437,0,0,1,.41-.732q.176-.234.439-.527a1.46,1.46,0,0,1,.586-.41,2.134,2.134,0,0,1,.732-.117ZM180.4,42.48q3.047.117,4.16.117,2.578,0,5.332-.176l.176-.293L185.325,29.18l-5.039,13.066Q180.286,42.48,180.4,42.48Zm64.437,6.8a38.953,38.953,0,0,1-.82,4.482q-.82,3.838-1.172,4.014-4.277,2.578-14,2.578a17.5,17.5,0,0,1-13.154-5.684,18.938,18.938,0,0,1-5.42-13.535,20.145,20.145,0,0,1,5.566-14.268,17.975,17.975,0,0,1,13.652-5.947,72.534,72.534,0,0,1,14.238,1.465q-.117,7.852-.117,8.438,0,.879-1.23.879-.586,0-.762-.293-.176-.762-.439-1.553a9.179,9.179,0,0,0-1.113-2.051,9.022,9.022,0,0,0-2.051-2.168,11.055,11.055,0,0,0-3.4-1.582,16.866,16.866,0,0,0-4.951-.674q-5.742,0-9.785,5.068A17.887,17.887,0,0,0,215.836,39.9a22.712,22.712,0,0,0,1.641,8.73,15.272,15.272,0,0,0,5.186,6.592,13.8,13.8,0,0,0,8.408,2.607q5.8,0,8.965-3.4a7.953,7.953,0,0,0,1.436-2.314q.615-1.436.938-2.4t.5-.967a3.807,3.807,0,0,1,.85.117,5.766,5.766,0,0,1,.791.234Zm16.1-27.832q4.043.117,6.621.117t6.621-.117q4.043-.117,6.27-.117a17.839,17.839,0,0,0,4.043-.645l1.113,8.379a1.951,1.951,0,0,1-1.406.41q-.527,0-.586-.293-.82-3.281-2.021-4.248t-4.541-.967q-6.211,0-6.445.879a23.584,23.584,0,0,0-.527,5.859V51.855A22.656,22.656,0,0,0,270.6,57.3q.117.41,1.641.791a10.473,10.473,0,0,0,2.109.381q.234,0,.234.879a2.6,2.6,0,0,1-.117.82q-5.859-.293-6.8-.293-.293,0-7.031.293a1.247,1.247,0,0,1-.234-.879q0-.82.234-.82a10.819,10.819,0,0,0,2.256-.352q1.494-.352,1.67-.82a23.2,23.2,0,0,0,.41-5.215V30.879q0-5.1-.527-6.035-.469-.879-6.328-.879-3.34,0-4.541.967t-2.021,4.248q-.059.293-.586.293a1.951,1.951,0,0,1-1.406-.41l1.113-8.379a17.839,17.839,0,0,0,4.043.645Q256.952,21.328,260.937,21.445Zm36.9.117q2.637,0,9.141-.234t9.785-.234q.234,1.7.908,4.482t.791,3.486a1.481,1.481,0,0,1-1.055.293q-.762,0-.82-.41-.879-3.223-2.461-4.131a8.732,8.732,0,0,0-4.336-.908h-3.926q-5.039,0-5.156.762a27.847,27.847,0,0,0-.293,4.922v9.375q0,.352,2.52.352h5.479a5.658,5.658,0,0,0,1.553-.234q.82-.234,1.055-.293t.615-.762A4.082,4.082,0,0,0,312.073,37q.059-.322.41-1.67.059-.41.879-.41a1.38,1.38,0,0,1,1,.293V46.289a1.357,1.357,0,0,1-.937.234q-.762,0-.937-.469-.41-1.582-.7-2.373a3.455,3.455,0,0,0-.439-.937,3.49,3.49,0,0,0-.5-.381q-.762-.469-6.211-.469-4.219,0-4.219.527V51.5a18.426,18.426,0,0,0,.527,5.332q.176.586,3.984.586h2.813q5.449,0,7.383-1a6.339,6.339,0,0,0,1.963-2.08,13.613,13.613,0,0,0,1.729-3.838q.117-.352.82-.352a2.151,2.151,0,0,1,1.465.352q-.293.762-.908,2.432t-.967,2.7q-.352,1.025-.762,2.373a14.615,14.615,0,0,0-.527,2.227q-2.988,0-9.434-.117T297.952,60l-7.09.176a1.53,1.53,0,0,1-.176-.937q0-.762.176-.762a9.392,9.392,0,0,0,2.256-.41q1.494-.41,1.787-.937.41-.7.41-5.508V29.473a22.108,22.108,0,0,0-.41-5.039q-.176-.469-1.729-.879a10.087,10.087,0,0,0-2.314-.41q-.234,0-.234-.7a1.473,1.473,0,0,1,.234-1Q293.909,21.563,297.834,21.563ZM341,23.906a15.957,15.957,0,0,0-4.1.41q-.234.059-.381.439a7.683,7.683,0,0,0-.234,1.758q-.088,1.377-.088,4.248v7.09q0,1.7,5.1,1.7h1.465a6.394,6.394,0,0,0,4.248-2.051,7.1,7.1,0,0,0,2.2-5.449Q349.2,23.906,341,23.906Zm.938-2.578a14.669,14.669,0,0,1,4.043.586,17.394,17.394,0,0,1,4.043,1.758,9.282,9.282,0,0,1,3.281,3.34,9.672,9.672,0,0,1,1.289,5.039,9.2,9.2,0,0,1-1.846,5.156,12.072,12.072,0,0,1-5.01,4.16q-.586.234-.352.586a41.7,41.7,0,0,0,6.738,10.313q5.625,6.152,9.141,6.152a1.812,1.812,0,0,1,.176.82,1.957,1.957,0,0,1-.176.879,6.1,6.1,0,0,1-1.582.176q-8.2,0-14.238-8.437-.937-1.289-2.139-3.076T343.55,46.2q-.557-.791-1.289-1.729a9.6,9.6,0,0,0-1.289-1.406,5.2,5.2,0,0,0-1.2-.762,7.029,7.029,0,0,0-2.168-.234,6.176,6.176,0,0,0-.7.029.825.825,0,0,0-.469.264.955.955,0,0,0-.234.7V51.68a17.061,17.061,0,0,0,.469,5.1q.293.762,2.08,1.23a11.682,11.682,0,0,0,2.549.469q.234,0,.234.82a2.815,2.815,0,0,1-.117.879q-5.859-.293-7.617-.293l-7.148.293a1.831,1.831,0,0,1-.176-1.055q0-.762.176-.762a10.508,10.508,0,0,0,2.285-.352q1.465-.352,1.758-.879.41-.7.41-5.508V29.473a22.108,22.108,0,0,0-.41-5.039q-.176-.469-1.729-.879a10.087,10.087,0,0,0-2.314-.41q-.234,0-.234-.7a1.473,1.473,0,0,1,.234-1l7.031.117q1.758,0,4.16-.117T341.939,21.328Zm41.51,9.961a9.246,9.246,0,0,1,3.457-7.412,12.115,12.115,0,0,1,8.027-2.9,19.144,19.144,0,0,1,2.432.146,18.211,18.211,0,0,1,1.875.322q.732.176,2.109.557t2.432.615a39.57,39.57,0,0,1,.7,8.379q0,.41-.586.41-1.406,0-1.523-.586a9.026,9.026,0,0,0-2.49-5.01,6.956,6.956,0,0,0-5.361-2.432q-3.516,0-4.951,1.758a6.631,6.631,0,0,0-1.436,4.336,5.706,5.706,0,0,0,.41,2.139,11.584,11.584,0,0,0,.82,1.7,6.669,6.669,0,0,0,1.494,1.553q1.084.879,1.582,1.23t1.992,1.289q1.494.938,1.9,1.172.293.176,2.051,1.26t2.4,1.523q.645.439,2.021,1.582a11.131,11.131,0,0,1,1.992,2.021,11.965,11.965,0,0,1,1.172,2.2,6.939,6.939,0,0,1,.557,2.725,9.545,9.545,0,0,1-3.662,7.705,13.087,13.087,0,0,1-8.584,3.018,23.3,23.3,0,0,1-2.988-.205q-1.582-.205-2.637-.41T386,59.385q-1.611-.381-2.256-.5a62.677,62.677,0,0,1-1.465-9.316q0-.352.938-.352a1.757,1.757,0,0,1,1.465.527q1.992,8.438,9.727,8.438a7.392,7.392,0,0,0,4.98-1.758,6.2,6.2,0,0,0,2.051-4.98,6.471,6.471,0,0,0-.352-2.168,9.442,9.442,0,0,0-.732-1.641,5.163,5.163,0,0,0-1.348-1.377q-.967-.732-1.494-1.084t-1.934-1.113q-1.406-.762-1.934-1.055-1.7-1-2.373-1.406t-2.227-1.436a11.785,11.785,0,0,1-2.256-1.816q-.7-.791-1.641-1.934a6.907,6.907,0,0,1-1.318-2.432A9.463,9.463,0,0,1,383.449,31.289Zm35.9-9.727q2.637,0,9.141-.234t9.785-.234q.234,1.7.908,4.482t.791,3.486a1.481,1.481,0,0,1-1.055.293q-.762,0-.82-.41-.879-3.223-2.461-4.131a8.732,8.732,0,0,0-4.336-.908h-3.926q-5.039,0-5.156.762a27.847,27.847,0,0,0-.293,4.922v9.375q0,.352,2.52.352h5.479a5.658,5.658,0,0,0,1.553-.234q.82-.234,1.055-.293t.615-.762A4.082,4.082,0,0,0,433.589,37q.059-.322.41-1.67.059-.41.879-.41a1.38,1.38,0,0,1,1,.293V46.289a1.357,1.357,0,0,1-.937.234q-.762,0-.937-.469-.41-1.582-.7-2.373a3.455,3.455,0,0,0-.439-.937,3.49,3.49,0,0,0-.5-.381q-.762-.469-6.211-.469-4.219,0-4.219.527V51.5a18.426,18.426,0,0,0,.527,5.332q.176.586,3.984.586h2.813q5.449,0,7.383-1a6.339,6.339,0,0,0,1.963-2.08,13.613,13.613,0,0,0,1.729-3.838q.117-.352.82-.352a2.151,2.151,0,0,1,1.465.352q-.293.762-.908,2.432t-.967,2.7q-.352,1.025-.762,2.373a14.615,14.615,0,0,0-.527,2.227q-2.988,0-9.434-.117T419.468,60l-7.09.176a1.53,1.53,0,0,1-.176-.937q0-.762.176-.762a9.392,9.392,0,0,0,2.256-.41q1.494-.41,1.787-.937.41-.7.41-5.508V29.473a22.108,22.108,0,0,0-.41-5.039q-.176-.469-1.729-.879a10.087,10.087,0,0,0-2.314-.41q-.234,0-.234-.7a1.473,1.473,0,0,1,.234-1Q415.425,21.563,419.351,21.563Zm39.359-.117q4.043.117,6.621.117t6.621-.117q4.043-.117,6.27-.117a17.839,17.839,0,0,0,4.043-.645l1.113,8.379a1.951,1.951,0,0,1-1.406.41q-.527,0-.586-.293-.82-3.281-2.021-4.248t-4.541-.967q-6.211,0-6.445.879a23.584,23.584,0,0,0-.527,5.859V51.855a22.656,22.656,0,0,0,.527,5.449q.117.41,1.641.791a10.473,10.473,0,0,0,2.109.381q.234,0,.234.879a2.6,2.6,0,0,1-.117.82q-5.859-.293-6.8-.293-.293,0-7.031.293a1.247,1.247,0,0,1-.234-.879q0-.82.234-.82a10.819,10.819,0,0,0,2.256-.352q1.494-.352,1.67-.82a23.2,23.2,0,0,0,.41-5.215V30.879q0-5.1-.527-6.035-.469-.879-6.328-.879-3.34,0-4.541.967t-2.021,4.248q-.059.293-.586.293a1.951,1.951,0,0,1-1.406-.41l1.113-8.379a17.839,17.839,0,0,0,4.043.645Q454.725,21.328,458.709,21.445Z" transform="translate(581 124)" fill="#0cb1f2"/>
  </g>
</svg>
