<svg xmlns="http://www.w3.org/2000/svg" xmlns:xlink="http://www.w3.org/1999/xlink" width="1680" height="509" viewBox="0 0 1680 509">
  <defs>
    <clipPath id="clip-crimson_numbers">
      <rect width="1680" height="509"/>
    </clipPath>
  </defs>
  <g id="crimson_numbers" clip-path="url(#clip-crimson_numbers)">
    <path id="Path_552" data-name="Path 552" d="M0,0H1688V509H0Z" fill="none"/>
    <path id="Path_554" data-name="Path 554" d="M32.285,29.3a22.835,22.835,0,0,0-.41-5.156q-.176-.469-2.021-.908a13.2,13.2,0,0,0-2.607-.439q-.234,0-.234-.674a1.3,1.3,0,0,1,.234-.908q.762.059,3.047.205t3.867.146q1.523,0,3.838-.176t2.725-.176a2.815,2.815,0,0,1,.117.879q0,.7-.234.7a14.653,14.653,0,0,0-2.549.469q-1.963.469-2.08.879a23.473,23.473,0,0,0-.469,5.449V51.855q0,3.633.176,8.2a1.721,1.721,0,0,1-1.113.234,2.53,2.53,0,0,1-1.934-1.348L9.9,26.719v25.02a24.711,24.711,0,0,0,.41,5.449q.117.41,1.963.85a13.637,13.637,0,0,0,2.432.439q.176,0,.205.7a2.665,2.665,0,0,1-.088,1q-5.859-.293-6.738-.293l-6.738.293a1.391,1.391,0,0,1-.176-.879q0-.82.176-.82a13.167,13.167,0,0,0,2.666-.439q1.846-.439,2.021-.967a17.469,17.469,0,0,0,.586-5.508V28.535a17.924,17.924,0,0,0-.41-4.395q-.176-.469-1.992-.85a14.585,14.585,0,0,0-2.637-.381q-.234,0-.234-.732a1.414,1.414,0,0,1,.234-.967q4.57.117,5.977.117,3.047,0,4.688-.117Q14.414,25.2,32.109,49.922a14.065,14.065,0,0,0,.176-2.4ZM53.245,21.5q.938,0,6.8-.293a2.6,2.6,0,0,1,.117.82q0,.879-.234.879a9.8,9.8,0,0,0-2.109.41q-1.523.41-1.641.82a22.656,22.656,0,0,0-.527,5.449V42.656q0,6.621,2.813,10.547a9.224,9.224,0,0,0,7.969,3.926q10.02,0,10.02-13.184V29.3a22.835,22.835,0,0,0-.41-5.156q-.176-.469-2.021-.908a13.2,13.2,0,0,0-2.607-.439q-.234,0-.234-.674a1.3,1.3,0,0,1,.234-.908q.762.059,3.047.205t3.867.146q1.523,0,3.838-.176t2.725-.176A2.815,2.815,0,0,1,85,22.09q0,.7-.234.7a14.653,14.653,0,0,0-2.549.469q-1.963.469-2.08.879a23.473,23.473,0,0,0-.469,5.449V43.828q0,9.082-3.809,12.627T65.023,60Q58.05,60,54.3,55.9T50.55,42.656v-13.3a23.2,23.2,0,0,0-.41-5.215q-.176-.469-1.67-.85a10.048,10.048,0,0,0-2.256-.381q-.234,0-.234-.762a1.357,1.357,0,0,1,.234-.937Q52.952,21.5,53.245,21.5Zm44.515,0q2.168,0,5.391-.293.41,1.348,11.6,29.355a.236.236,0,0,0,.234.117.277.277,0,0,0,.293-.234q5.742-13.477,9.141-22.207l2.344-7.031q3.75.234,4.863.234,3.633,0,6.563-.234a2.892,2.892,0,0,1,.176.879q0,.82-.293.82h-.117a5.311,5.311,0,0,0-1.7.381,5.9,5.9,0,0,0-1.582.791q-.7.527-.7,3.926,0,.938.527,23.789a15.5,15.5,0,0,0,.879,5.391q.234.527,1.758.908a10.406,10.406,0,0,0,2.168.381q.234,0,.234.82a2.815,2.815,0,0,1-.117.879q-5.859-.293-6.973-.293-.293,0-7.031.293a1.357,1.357,0,0,1-.234-.937q0-.762.234-.762a8.392,8.392,0,0,0,1.787-.293,7.493,7.493,0,0,0,1.729-.586q.7-.41.7-2.52V51.973l-.7-20.625a15.715,15.715,0,0,0-.322-2.2q-.264-1.26-.557-1.26-.117,0-.293.41L115.514,57.6q-1.113,2.52-2.168,2.52a1.86,1.86,0,0,1-.527-.117L99.4,25.9q-.117,5.625-.352,12.891t-.41,11.982q-.176,4.717-.176,4.834a2.575,2.575,0,0,0,.352,1.523,4.311,4.311,0,0,0,2.139.908,12.747,12.747,0,0,0,2.373.439q.234,0,.234.879a2.6,2.6,0,0,1-.117.82q-5.859-.293-6.8-.293-.117,0-6.855.293A1.194,1.194,0,0,1,89.5,59.3q0-.82.293-.82a11.617,11.617,0,0,0,2.432-.381,4.711,4.711,0,0,0,2.139-.908q.938-1.055,1.055-5.1.117-6.094.264-12.012t.264-9.287q.117-3.369.117-4.307a9.419,9.419,0,0,0-.234-2.344q-.176-.469-1.992-.85A14.585,14.585,0,0,0,91.2,22.91q-.234,0-.234-.82a1.247,1.247,0,0,1,.234-.879q1,.059,2.2.117t2.2.117Q96.588,21.5,97.76,21.5Zm72.112,28.184a9.008,9.008,0,0,0-2.52-6.416q-2.52-2.666-7.91-2.666-1.289,0-4.219.234a6.34,6.34,0,0,0-.234,1.934v8.555q0,4.453.938,5.215a4.664,4.664,0,0,0,3.164.82,17.97,17.97,0,0,0,2.9-.234,22.125,22.125,0,0,0,3.428-.908,6.49,6.49,0,0,0,3.223-2.344A6.872,6.872,0,0,0,169.873,49.688Zm-19.98,1.934V29.473a22.108,22.108,0,0,0-.41-5.039q-.176-.469-1.729-.879a10.087,10.087,0,0,0-2.314-.41q-.234,0-.234-.7a1.473,1.473,0,0,1,.234-1q3.047.117,6.973.117,2.988,0,4.893-.029t3.369-.029a18.87,18.87,0,0,1,3.105.264,14.562,14.562,0,0,1,3.252.967,11.979,11.979,0,0,1,2.959,1.758,7.9,7.9,0,0,1,2.109,2.783,8.838,8.838,0,0,1,.82,3.838,6.458,6.458,0,0,1-1.348,3.926,9.765,9.765,0,0,1-2.49,2.52,10.917,10.917,0,0,1-1.963,1q-.469.176-.293.352,2.285.41,5.449,3.311a8.979,8.979,0,0,1,3.164,6.826,9.379,9.379,0,0,1-4.072,8Q167.295,60,160.556,60h-8.027l-7.09.176a1.53,1.53,0,0,1-.176-.937q0-.762.176-.762a9.392,9.392,0,0,0,2.256-.41q1.494-.41,1.787-.937Q149.892,56.426,149.892,51.621Zm12.246-13.652a6.858,6.858,0,0,0,4.014-1.67,4.886,4.886,0,0,0,1.611-3.838,9.109,9.109,0,0,0-2.021-6.3q-2.021-2.256-6.006-2.256a16.257,16.257,0,0,0-4.16.41q-.352.059-.352.527l-.234,5.918v6.973q0,.41,3.867.41A26.807,26.807,0,0,0,162.138,37.969Zm26.351-16.406q2.637,0,9.141-.234t9.785-.234q.234,1.7.908,4.482t.791,3.486a1.481,1.481,0,0,1-1.055.293q-.762,0-.82-.41-.879-3.223-2.461-4.131a8.732,8.732,0,0,0-4.336-.908h-3.926q-5.039,0-5.156.762a27.847,27.847,0,0,0-.293,4.922v9.375q0,.352,2.52.352h5.479a5.658,5.658,0,0,0,1.553-.234q.82-.234,1.055-.293t.615-.762A4.082,4.082,0,0,0,202.727,37q.059-.322.41-1.67.059-.41.879-.41a1.38,1.38,0,0,1,1,.293V46.289a1.357,1.357,0,0,1-.937.234q-.762,0-.937-.469-.41-1.582-.7-2.373a3.455,3.455,0,0,0-.439-.937,3.49,3.49,0,0,0-.5-.381q-.762-.469-6.211-.469-4.219,0-4.219.527V51.5a18.426,18.426,0,0,0,.527,5.332q.176.586,3.984.586h2.813q5.449,0,7.383-1a6.339,6.339,0,0,0,1.963-2.08,13.613,13.613,0,0,0,1.729-3.838q.117-.352.82-.352a2.151,2.151,0,0,1,1.465.352q-.293.762-.908,2.432t-.967,2.7q-.352,1.025-.762,2.373a14.615,14.615,0,0,0-.527,2.227q-2.988,0-9.434-.117T188.606,60l-7.09.176a1.53,1.53,0,0,1-.176-.937q0-.762.176-.762a9.392,9.392,0,0,0,2.256-.41q1.494-.41,1.787-.937.41-.7.41-5.508V29.473a22.108,22.108,0,0,0-.41-5.039q-.176-.469-1.729-.879a10.087,10.087,0,0,0-2.314-.41q-.234,0-.234-.7a1.473,1.473,0,0,1,.234-1Q184.563,21.563,188.489,21.563Zm43.167,2.344a15.957,15.957,0,0,0-4.1.41q-.234.059-.381.439a7.683,7.683,0,0,0-.234,1.758q-.088,1.377-.088,4.248v7.09q0,1.7,5.1,1.7h1.465a6.394,6.394,0,0,0,4.248-2.051,7.1,7.1,0,0,0,2.2-5.449Q239.859,23.906,231.656,23.906Zm.938-2.578a14.669,14.669,0,0,1,4.043.586,17.394,17.394,0,0,1,4.043,1.758,9.282,9.282,0,0,1,3.281,3.34,9.672,9.672,0,0,1,1.289,5.039,9.2,9.2,0,0,1-1.846,5.156,12.072,12.072,0,0,1-5.01,4.16q-.586.234-.352.586a41.7,41.7,0,0,0,6.738,10.313q5.625,6.152,9.141,6.152a1.812,1.812,0,0,1,.176.82,1.957,1.957,0,0,1-.176.879,6.1,6.1,0,0,1-1.582.176q-8.2,0-14.238-8.437-.937-1.289-2.139-3.076T234.205,46.2q-.557-.791-1.289-1.729a9.6,9.6,0,0,0-1.289-1.406,5.2,5.2,0,0,0-1.2-.762,7.029,7.029,0,0,0-2.168-.234,6.176,6.176,0,0,0-.7.029.825.825,0,0,0-.469.264.955.955,0,0,0-.234.7V51.68a17.061,17.061,0,0,0,.469,5.1q.293.762,2.08,1.23a11.682,11.682,0,0,0,2.549.469q.234,0,.234.82a2.815,2.815,0,0,1-.117.879q-5.859-.293-7.617-.293l-7.148.293a1.831,1.831,0,0,1-.176-1.055q0-.762.176-.762a10.508,10.508,0,0,0,2.285-.352q1.465-.352,1.758-.879.41-.7.41-5.508V29.473a22.108,22.108,0,0,0-.41-5.039q-.176-.469-1.729-.879a10.087,10.087,0,0,0-2.314-.41q-.234,0-.234-.7a1.473,1.473,0,0,1,.234-1l7.031.117q1.758,0,4.16-.117T232.594,21.328Zm26.292,9.961a9.246,9.246,0,0,1,3.457-7.412,12.115,12.115,0,0,1,8.027-2.9,19.144,19.144,0,0,1,2.432.146,18.211,18.211,0,0,1,1.875.322q.732.176,2.109.557t2.432.615a39.57,39.57,0,0,1,.7,8.379q0,.41-.586.41-1.406,0-1.523-.586a9.026,9.026,0,0,0-2.49-5.01,6.956,6.956,0,0,0-5.361-2.432q-3.516,0-4.951,1.758a6.631,6.631,0,0,0-1.436,4.336,5.706,5.706,0,0,0,.41,2.139,11.584,11.584,0,0,0,.82,1.7,6.669,6.669,0,0,0,1.494,1.553q1.084.879,1.582,1.23t1.992,1.289q1.494.938,1.9,1.172.293.176,2.051,1.26t2.4,1.523q.645.439,2.021,1.582a11.131,11.131,0,0,1,1.992,2.021,11.965,11.965,0,0,1,1.172,2.2,6.939,6.939,0,0,1,.557,2.725,9.545,9.545,0,0,1-3.662,7.705,13.087,13.087,0,0,1-8.584,3.018,23.3,23.3,0,0,1-2.988-.205q-1.582-.205-2.637-.41t-2.666-.586q-1.611-.381-2.256-.5a62.677,62.677,0,0,1-1.465-9.316q0-.352.938-.352a1.757,1.757,0,0,1,1.465.527q1.992,8.438,9.727,8.438a7.392,7.392,0,0,0,4.98-1.758,6.2,6.2,0,0,0,2.051-4.98,6.471,6.471,0,0,0-.352-2.168,9.442,9.442,0,0,0-.732-1.641,5.163,5.163,0,0,0-1.348-1.377q-.967-.732-1.494-1.084t-1.934-1.113q-1.406-.762-1.934-1.055-1.7-1-2.373-1.406t-2.227-1.436a11.785,11.785,0,0,1-2.256-1.816q-.7-.791-1.641-1.934a6.907,6.907,0,0,1-1.318-2.432A9.463,9.463,0,0,1,258.886,31.289Z" transform="translate(684 106)" fill="#fff"/>
    <path id="Path_555" data-name="Path 555" d="M7.676,30.938a2.041,2.041,0,0,1-.7-.674,1.549,1.549,0,0,1-.352-.791.477.477,0,0,1,.117-.352q9.9-6.738,10.137-6.738h.117q.469,0,.7,1.113A19.976,19.976,0,0,0,17.109,29V52.09a22.122,22.122,0,0,0,.469,5.215q.117.41,1.729.791a11.73,11.73,0,0,0,2.2.381q.234,0,.234,1.055a2,2,0,0,1-.059.645q-5.859-.293-7.09-.293-.937,0-6.8.293a1.414,1.414,0,0,1-.234-.967q0-.732.234-.732a11.577,11.577,0,0,0,2.373-.381q1.611-.381,1.729-.791a13.907,13.907,0,0,0,.352-3.34V32.871a21.064,21.064,0,0,0-.117-2.578,3.063,3.063,0,0,0-.264-1.084A.5.5,0,0,0,11.426,29a2.511,2.511,0,0,0-1.025.352q-.674.352-1.553.879ZM7.617,129.7a13.347,13.347,0,0,0,1.963,7.236q1.963,3.135,4.893,3.135a5.8,5.8,0,0,0,4.512-2.256,8.912,8.912,0,0,0,1.934-6.006,10.755,10.755,0,0,0-1.9-6.562,6.519,6.519,0,0,0-5.6-2.578,5.991,5.991,0,0,0-3.047.85A4.264,4.264,0,0,0,8.5,125.3,11.575,11.575,0,0,0,7.617,129.7Zm6.152,12.656a10.018,10.018,0,0,1-8.027-3.779,13.24,13.24,0,0,1-3.164-8.76,22,22,0,0,1,1.816-8.789,24.6,24.6,0,0,1,4.893-7.412,39.9,39.9,0,0,1,14.15-9.521q.352,0,.85.645a1.954,1.954,0,0,1,.5.938,37.713,37.713,0,0,0-10.049,6.24,18.985,18.985,0,0,0-5.713,9.463q-.117.586.059.586a.682.682,0,0,0,.176-.117,11.308,11.308,0,0,1,2.959-1.406,11.72,11.72,0,0,1,3.9-.762A8.543,8.543,0,0,1,23,123.1a11.6,11.6,0,0,1,2.783,7.471,11.075,11.075,0,0,1-3.633,8.32A11.8,11.8,0,0,1,13.77,142.352Z" transform="translate(487 241)" fill="#fff"/>
    <path id="Path_556" data-name="Path 556" d="M15,22.383a7.376,7.376,0,0,1,6.182,2.93,10.572,10.572,0,0,1,2.256,6.621,14.826,14.826,0,0,1-.732,4.482,19.678,19.678,0,0,1-2.285,4.717q-1.553,2.4-2.812,4.189a38.15,38.15,0,0,1-3.486,4.131q-2.227,2.344-3.076,3.223t-2.725,2.7q-.176.293.117.41H19.746a2.827,2.827,0,0,0,2.373-.937,11.531,11.531,0,0,0,1.494-3.574.84.84,0,0,1,.82-.645,1.748,1.748,0,0,1,1.055.234q-1.406,7.031-1.582,8.2A1.018,1.018,0,0,1,22.734,60H3.516q-.234,0-.439-.674a3.938,3.938,0,0,1-.205-1.084A87.126,87.126,0,0,0,13.828,44.854Q18.4,37.91,18.4,33.105a6.987,6.987,0,0,0-1.582-4.893,5.373,5.373,0,0,0-4.16-1.729q-4.863,0-7.793,4.863a1.076,1.076,0,0,1-.732-.381q-.381-.381-.381-.557a6.9,6.9,0,0,1,.967-1.9,21.392,21.392,0,0,1,2.109-2.637,11.032,11.032,0,0,1,3.516-2.461A10.883,10.883,0,0,1,15,22.383ZM7.793,109.6a2.427,2.427,0,0,0-1.787.82,5.566,5.566,0,0,0-1.143,1.641,21.824,21.824,0,0,0-.762,2.168q-.059.234-.82.293a2.571,2.571,0,0,1-1.172-.117q.117-.527.85-3.9t.967-4.893q.059-.7.938-.7H21.8q.938,0,2.4-.088t1.523-.088q.41,0,.41.527a2.479,2.479,0,0,1-.234.908q-.234.557-.732,1.553l-.732,1.465L9.023,142.176a.909.909,0,0,1-.645.176,2.1,2.1,0,0,1-1.348-.615q-.7-.615-.7-1.025L21.914,109.6Z" transform="translate(651 241)" fill="#fff"/>
    <path id="Path_557" data-name="Path 557" d="M14.648,22.383a7.178,7.178,0,0,1,4.834,2.08,6.945,6.945,0,0,1,2.314,5.42,7.384,7.384,0,0,1-1.26,4.365,16.365,16.365,0,0,1-3.6,3.545,15.075,15.075,0,0,1,5.654,3.691,8.8,8.8,0,0,1,2.549,6.445,11.278,11.278,0,0,1-3.926,8.965,14.336,14.336,0,0,1-9.727,3.4q-4.98,0-7.617-1.758a1.973,1.973,0,0,1-.586-1.7q0-2.754,2.168-2.754a1.765,1.765,0,0,1,1.084.439,12.36,12.36,0,0,1,1.23,1.143,10,10,0,0,0,1.143,1.055,7.42,7.42,0,0,0,4.453,1.23,6.531,6.531,0,0,0,4.658-2.021q2.08-2.021,2.08-6.475a8.3,8.3,0,0,0-2.227-5.859,6.9,6.9,0,0,0-5.215-2.4,15.8,15.8,0,0,0-3.809.41,2.44,2.44,0,0,1-.41-1.523,1.1,1.1,0,0,1,.117-.586A12.9,12.9,0,0,0,15,36.68a7.25,7.25,0,0,0,2.4-5.742,4.881,4.881,0,0,0-1.553-3.545A4.881,4.881,0,0,0,12.3,25.84a6.258,6.258,0,0,0-2.373.439,6.2,6.2,0,0,0-1.641.908,13.264,13.264,0,0,0-1.084,1.025q-.527.557-.586.615-.234,0-.469-.557a2.56,2.56,0,0,1-.234-.967,12.686,12.686,0,0,1,3.574-3.633A9.342,9.342,0,0,1,14.648,22.383Zm-.527,118.035a6.138,6.138,0,0,0,4.629-1.758,6.9,6.9,0,0,0,.7-8.115,11.727,11.727,0,0,0-2.52-2.959q-1.523-1.289-2.373-1.875a17.348,17.348,0,0,0-1.611-1,.9.9,0,0,0-.352-.117.339.339,0,0,0-.234.059,9.979,9.979,0,0,0-3.545,3.428A9.414,9.414,0,0,0,7.734,132.8a7.832,7.832,0,0,0,1.934,5.508A5.89,5.89,0,0,0,14.121,140.418Zm0-34.043a4.37,4.37,0,0,0-3.6,1.875,7.88,7.88,0,0,0-1.436,4.922q0,3.984,6.094,7.5a.9.9,0,0,0,.352.117.63.63,0,0,0,.352-.117,8.408,8.408,0,0,0,2.373-12.1A4.919,4.919,0,0,0,14.121,106.375Zm.352-2.051a10.009,10.009,0,0,1,6.826,2.432,8.171,8.171,0,0,1,2.783,6.475q0,4.453-6.562,8.613-.41.117,0,.352a20.852,20.852,0,0,1,5.361,4.424,8.445,8.445,0,0,1,2.314,5.6,9.419,9.419,0,0,1-3.369,7.324A11.428,11.428,0,0,1,14,142.527a11.543,11.543,0,0,1-7.881-2.637,8.74,8.74,0,0,1-3.018-6.914,6.38,6.38,0,0,1,.176-1.494,13.662,13.662,0,0,1,.381-1.318,5.339,5.339,0,0,1,.674-1.26q.469-.674.791-1.113a7.329,7.329,0,0,1,.967-1.025q.645-.586.938-.85a11.864,11.864,0,0,1,1.055-.791q.762-.527.967-.674t.908-.615l.762-.469q.293-.176,0-.352a14.414,14.414,0,0,1-4.131-3.779,8.666,8.666,0,0,1-1.846-5.361,9.1,9.1,0,0,1,2.93-6.65A9.371,9.371,0,0,1,14.473,104.324Z" transform="translate(817 241)" fill="#fff"/>
    <path id="Path_558" data-name="Path 558" d="M21.035,22.207q.762,0,.762.586V46.406H25.43q.938,0,.938,2.813a.689.689,0,0,1-.352.586H21.8V60.059q-.176.293-2.461.293-2.168,0-2.168-.469V49.8H2.344a3.035,3.035,0,0,1-.41-1.816L19.688,22.91A1.617,1.617,0,0,1,21.035,22.207Zm-3.867,24.2V30.82q0-.527-.293-.527a.169.169,0,0,1-.059.117L6.152,45.7a.239.239,0,0,0-.059.176q0,.527.41.527Zm3.516,70.34a13.308,13.308,0,0,0-1.963-7.266,5.836,5.836,0,0,0-5.068-3.105,5.357,5.357,0,0,0-4.336,2.344A9.766,9.766,0,0,0,7.5,114.871a10.216,10.216,0,0,0,1.934,6.357,6.5,6.5,0,0,0,5.508,2.549,5.991,5.991,0,0,0,3.047-.85,4.264,4.264,0,0,0,1.875-1.787A11.751,11.751,0,0,0,20.684,116.746ZM14.59,104.09a9.959,9.959,0,0,1,7.969,3.779,13.24,13.24,0,0,1,3.164,8.76,22.436,22.436,0,0,1-1.875,8.936,27.1,27.1,0,0,1-4.834,7.617,40,40,0,0,1-6.27,5.625,26.917,26.917,0,0,1-6.592,3.545q-.352,0-.82-.7a2.3,2.3,0,0,1-.469-1,26.381,26.381,0,0,0,8.672-5.771,21.058,21.058,0,0,0,5.742-9.814q.117-.586-.059-.586a.682.682,0,0,0-.176.117,5.992,5.992,0,0,1-2.7,1.406,12.309,12.309,0,0,1-3.633.645,9.374,9.374,0,0,1-7.148-3.164,10.741,10.741,0,0,1-2.93-7.559,11.21,11.21,0,0,1,3.6-8.35A11.647,11.647,0,0,1,14.59,104.09Z" transform="translate(981 241)" fill="#fff"/>
    <path id="Path_559" data-name="Path 559" d="M8.145,23.5q11.543-.352,13.77-.82a2.118,2.118,0,0,1,.293,1.23,16.536,16.536,0,0,1-.352,3.223,32.34,32.34,0,0,1-6.621.645l-5.1.234q-.293.059-.41.469-.645,3.223-1.7,9.375a15.617,15.617,0,0,1,5.508-.762,11.45,11.45,0,0,1,8.115,3.223,10.12,10.12,0,0,1,3.428,7.617A11.546,11.546,0,0,1,21.3,56.807a13.5,13.5,0,0,1-9.521,3.486q-5.215,0-7.852-1.758a1.973,1.973,0,0,1-.586-1.7q0-2.754,2.168-2.754a1.765,1.765,0,0,1,1.084.439,12.36,12.36,0,0,1,1.23,1.143,10,10,0,0,0,1.143,1.055,7.86,7.86,0,0,0,4.688,1.23,5.957,5.957,0,0,0,4.424-2.08q1.963-2.08,1.963-6.416a9.81,9.81,0,0,0-.41-2.871,9.674,9.674,0,0,0-1.318-2.666,6.053,6.053,0,0,0-2.666-2.08,10.408,10.408,0,0,0-4.16-.762,17.232,17.232,0,0,0-5.1.645,4.311,4.311,0,0,1-1.055-.82ZM6.563,123.25a30.4,30.4,0,0,0,2.051,11.865q2.051,4.834,5.273,4.834,3.75,0,5.83-4.863a30.932,30.932,0,0,0,2.08-12.129,28.916,28.916,0,0,0-2.051-11.631q-2.051-4.658-5.273-4.658-3.574,0-5.742,4.746A28.481,28.481,0,0,0,6.563,123.25Zm-5.156.059a24.564,24.564,0,0,1,3.457-13.418q3.457-5.449,9.316-5.449,5.918,0,9.346,5.42t3.428,13.447A24.564,24.564,0,0,1,23.5,136.727q-3.457,5.449-9.316,5.449-5.8,0-9.287-5.479A24.44,24.44,0,0,1,1.406,123.309Z" transform="translate(1146 241)" fill="#fff"/>
  </g>
</svg>
