<svg xmlns="http://www.w3.org/2000/svg" xmlns:xlink="http://www.w3.org/1999/xlink" width="1680" height="509" viewBox="0 0 1680 509">
  <defs>
    <clipPath id="clip-oldstandard_numbers">
      <rect width="1680" height="509"/>
    </clipPath>
  </defs>
  <g id="oldstandard_numbers" clip-path="url(#clip-oldstandard_numbers)">
    <path id="Path_569" data-name="Path 569" d="M12.3,9.82h-.24V39.28a5.4,5.4,0,0,0,1.05,3.51,3.355,3.355,0,0,0,2.73,1.29H18V46H3.72V44.08H5.88a3.333,3.333,0,0,0,2.76-1.29,5.511,5.511,0,0,0,1.02-3.51V6.82a1.991,1.991,0,0,0-.42-1.23,1.573,1.573,0,0,0-1.2-.39H3.72V3.28H15.06L35.88,36.76V10a5.511,5.511,0,0,0-1.02-3.51,3.272,3.272,0,0,0-2.7-1.29H30V3.28H44.28V5.2H42.12a3.44,3.44,0,0,0-2.76,1.29A5.3,5.3,0,0,0,38.28,10V47.08h-2.4ZM72.84,47.08a17.1,17.1,0,0,1-8.94-2.13,13,13,0,0,1-5.19-5.58,17.363,17.363,0,0,1-1.65-7.59V6.82a1.681,1.681,0,0,0-.39-1.23,1.681,1.681,0,0,0-1.23-.39H51.12V3.28H68.58V5.2H64.2a1.681,1.681,0,0,0-1.23.39,1.681,1.681,0,0,0-.39,1.23V33.4q0,5.58,2.7,8.67a9.507,9.507,0,0,0,7.56,3.09,12.942,12.942,0,0,0,6.48-1.53,10.322,10.322,0,0,0,4.08-4.05,11.186,11.186,0,0,0,1.38-5.46V10.06A5.421,5.421,0,0,0,83.7,6.52,3.409,3.409,0,0,0,80.94,5.2h-2.1V3.28H93.12V5.2h-2.1a3.409,3.409,0,0,0-2.76,1.32,5.421,5.421,0,0,0-1.08,3.54V33.52a13.948,13.948,0,0,1-1.71,6.87,12.346,12.346,0,0,1-4.98,4.89A15.615,15.615,0,0,1,72.84,47.08Zm36.18-38.4h-.36v30.6a5.4,5.4,0,0,0,1.05,3.51,3.355,3.355,0,0,0,2.73,1.29h2.16V46H100.32V44.08h2.16a3.355,3.355,0,0,0,2.73-1.29,5.4,5.4,0,0,0,1.05-3.51V6.82a1.681,1.681,0,0,0-.39-1.23,1.681,1.681,0,0,0-1.23-.39h-4.32V3.28h12.72l9.78,33.06,9.12-33.06h12.42V5.2h-4.32a1.681,1.681,0,0,0-1.23.39,1.681,1.681,0,0,0-.39,1.23V42.46a1.432,1.432,0,0,0,1.62,1.62h4.32V46h-17.4V44.08h4.32a1.432,1.432,0,0,0,1.62-1.62V7.06L121.92,46.72h-1.44Zm43.38,35.4h4.32a1.432,1.432,0,0,0,1.62-1.62V6.82a1.681,1.681,0,0,0-.39-1.23,1.681,1.681,0,0,0-1.23-.39H152.4V3.28h19.56a16.7,16.7,0,0,1,6.63,1.32,12.526,12.526,0,0,1,4.95,3.63,8.145,8.145,0,0,1,1.86,5.25,8.9,8.9,0,0,1-2.76,6.72,13.071,13.071,0,0,1-6.42,3.42v.24a11.792,11.792,0,0,1,4.89,1.53,11.638,11.638,0,0,1,4.02,3.69,9.178,9.178,0,0,1,1.59,5.28,10.42,10.42,0,0,1-1.92,6.3,11.889,11.889,0,0,1-5.13,3.99A18.006,18.006,0,0,1,172.62,46H152.4Zm19.32-21.36q4.86,0,6.63-2.49a11.449,11.449,0,0,0,1.77-6.75,8.162,8.162,0,0,0-2.28-5.94A7.561,7.561,0,0,0,172.2,5.2h-6.72a1.681,1.681,0,0,0-1.23.39,1.681,1.681,0,0,0-.39,1.23v15.9Zm.24,21.36a8.538,8.538,0,0,0,6.03-2.19q2.37-2.19,2.37-7.53t-2.37-7.53a8.538,8.538,0,0,0-6.03-2.19h-8.1V42.46a1.432,1.432,0,0,0,1.62,1.62Zm23.64,0h4.32a1.432,1.432,0,0,0,1.62-1.62V6.82a1.681,1.681,0,0,0-.39-1.23,1.681,1.681,0,0,0-1.23-.39H195.6V3.28h33.48l.24,15h-1.5a27.179,27.179,0,0,0-.51-4.08,13.585,13.585,0,0,0-2.01-5.16,8,8,0,0,0-7.08-3.84h-9.54a1.681,1.681,0,0,0-1.23.39,1.681,1.681,0,0,0-.39,1.23V22.96h4.62a4.565,4.565,0,0,0,4.41-3.12,16.589,16.589,0,0,0,1.35-6.66H219V34.66h-1.56A16.589,16.589,0,0,0,216.09,28a4.565,4.565,0,0,0-4.41-3.12h-4.62V42.46a1.432,1.432,0,0,0,1.62,1.62h9.6a8.859,8.859,0,0,0,3.54-.78,7.729,7.729,0,0,0,3.06-2.4,14.641,14.641,0,0,0,1.98-4.2,30.469,30.469,0,0,0,1.08-4.59q.3-2.07.36-2.67h1.5L229.08,46H195.6Zm74.28,2.64a7.543,7.543,0,0,1-3.33-.66,4.741,4.741,0,0,1-2.13-2.16q-1.62-3.12-1.74-10.62a14.984,14.984,0,0,0-1.44-6.69,4.65,4.65,0,0,0-4.44-2.67h-6.54V42.46a1.772,1.772,0,0,0,.36,1.23,1.666,1.666,0,0,0,1.26.39h5.34V46H238.8V44.08h4.32a1.432,1.432,0,0,0,1.62-1.62V6.82a1.681,1.681,0,0,0-.39-1.23,1.681,1.681,0,0,0-1.23-.39H238.8V3.28h19.68a18.4,18.4,0,0,1,9.54,2.22q3.72,2.22,3.72,7.38a8.737,8.737,0,0,1-3.33,7.14,14.809,14.809,0,0,1-8.01,3.18v.24a9.69,9.69,0,0,1,5.61,3.15q2.19,2.49,2.91,8.49.42,3.42.75,4.98a5.4,5.4,0,0,0,.84,2.19,1.852,1.852,0,0,0,1.53.63q2.58,0,2.58-6.48h1.5a21.125,21.125,0,0,1-1.14,7.11Q273.84,46.72,269.88,46.72ZM256.08,22q5.04,0,7.17-2.43a9.8,9.8,0,0,0,2.13-6.69,7.807,7.807,0,0,0-1.95-5.67,7.055,7.055,0,0,0-5.31-2.01h-6.24a1.681,1.681,0,0,0-1.23.39,1.681,1.681,0,0,0-.39,1.23V22Z" transform="translate(700 106)" fill="#fff"/>
    <g id="Group_130" data-name="Group 130">
      <path id="Path_567" data-name="Path 567" d="M0,0H1688V509H0Z" fill="none"/>
      <g id="Group_131" data-name="Group 131" transform="translate(5)">
        <path id="Path_570" data-name="Path 570" d="M7.2,44.08h5.76a1.876,1.876,0,0,0,1.29-.36,1.573,1.573,0,0,0,.39-1.2V13.06H7.2V10.9h3.3a7.735,7.735,0,0,0,5.25-1.74,7.29,7.29,0,0,0,2.49-4.2h1.92V42.52a1.573,1.573,0,0,0,.39,1.2,1.876,1.876,0,0,0,1.29.36H27.6V46H7.2Zm10.68,88.88a10.614,10.614,0,0,1-6.87-2.4,15.254,15.254,0,0,1-4.59-6.87A30.908,30.908,0,0,1,4.8,113.16a37.443,37.443,0,0,1,1.26-9.66,22.033,22.033,0,0,1,3.66-7.86Q14.1,90,19.98,90a8.922,8.922,0,0,1,6.9,2.88,6.665,6.665,0,0,1,1.29,2.4,8.384,8.384,0,0,1,.39,2.34,4.344,4.344,0,0,1-1.5,3.42,3.59,3.59,0,0,1-2.46.9,2.516,2.516,0,0,1-2.16-1.08,2.365,2.365,0,0,1-.39-.78,4.105,4.105,0,0,1-.09-.96,2.762,2.762,0,0,1,.78-1.8,6.736,6.736,0,0,1,1.14-1.02,2.22,2.22,0,0,0,.75-.75,1.935,1.935,0,0,0,.21-.93,2.287,2.287,0,0,0-1.23-1.89,6.915,6.915,0,0,0-3.75-.81,7.453,7.453,0,0,0-4.11,1.26,9.386,9.386,0,0,0-3.27,4.2,21.766,21.766,0,0,0-1.56,5.58,36.622,36.622,0,0,0-.54,5.64v2.7l.42.18a9.076,9.076,0,0,1,3.33-3.75,7.975,7.975,0,0,1,4.35-1.47,11.327,11.327,0,0,1,6.78,1.98,10.831,10.831,0,0,1,3.6,4.53,14.892,14.892,0,0,1,1.26,6.09,16.046,16.046,0,0,1-1.44,6.51,13.777,13.777,0,0,1-4.23,5.43A10.42,10.42,0,0,1,17.88,132.96Zm0-1.92a5.523,5.523,0,0,0,5.31-3.48,18.271,18.271,0,0,0,1.65-7.92,19.37,19.37,0,0,0-1.44-7.98,4.93,4.93,0,0,0-4.8-3.18,5.8,5.8,0,0,0-3.78,1.38,9.31,9.31,0,0,0-2.67,3.93,16.084,16.084,0,0,0-.99,5.85,18.745,18.745,0,0,0,1.56,8.19A5.33,5.33,0,0,0,17.88,131.04Z" transform="translate(487 241)" fill="#fff"/>
        <path id="Path_571" data-name="Path 571" d="M4.98,46a17.917,17.917,0,0,1,1.26-6.54q1.26-3.24,5.64-6.96l5.76-4.92a16.886,16.886,0,0,0,4.29-5.16,13.816,13.816,0,0,0,1.47-6.48q0-4.68-2.28-7.23a8.24,8.24,0,0,0-6.48-2.55,8.04,8.04,0,0,0-3.69.9A8.2,8.2,0,0,0,8.07,9.43a4.976,4.976,0,0,0-1.11,3.03,2.986,2.986,0,0,0,.66,2.13,3.067,3.067,0,0,0,1.8.87,4.806,4.806,0,0,1,2.85,1.29,3.341,3.341,0,0,1,.93,2.37,2.561,2.561,0,0,1-.81,1.92,3.11,3.11,0,0,1-2.25.78,5.084,5.084,0,0,1-4.08-1.95,7.766,7.766,0,0,1-1.62-5.13A10.238,10.238,0,0,1,5.97,9.22a10.442,10.442,0,0,1,4.26-3.84A13.306,13.306,0,0,1,16.32,4a16.012,16.012,0,0,1,6.9,1.44,11.286,11.286,0,0,1,4.8,4.14,11.482,11.482,0,0,1,1.74,6.36,9.751,9.751,0,0,1-2.58,6.6,39.671,39.671,0,0,1-6.78,5.94l-5.88,4.56a19.965,19.965,0,0,0-3.87,3.33A5.024,5.024,0,0,0,9.3,39.64q0,1.44,1.86,1.44H22.5a4.525,4.525,0,0,0,3.39-1.05,5.781,5.781,0,0,0,1.35-2.97l.66-3.54h1.32L28.38,46Zm12,86.96a4.248,4.248,0,0,1-3.45-1.56,6.388,6.388,0,0,1-1.29-4.2,17.53,17.53,0,0,1,1.77-7.41,51.909,51.909,0,0,1,4.53-7.77l4.8-6.9a19.818,19.818,0,0,0,2.19-3.99,10.029,10.029,0,0,0,.87-3.69,1.438,1.438,0,0,0-.45-1.23,2.4,2.4,0,0,0-1.41-.33H12.12a4.525,4.525,0,0,0-3.39,1.05A5.781,5.781,0,0,0,7.38,99.9l-.66,3.54H5.4l.84-12.48H29.28a32.106,32.106,0,0,1-.93,7.14,21.789,21.789,0,0,1-3.15,7.32l-3.42,5.16a13.552,13.552,0,0,0-2.46,7.8,24.7,24.7,0,0,0,.36,4.5l.36,2.1a21.781,21.781,0,0,1,.48,4.2Q20.52,132.96,16.98,132.96Z" transform="translate(651 241)" fill="#fff"/>
        <path id="Path_572" data-name="Path 572" d="M15.36,46.96a14.046,14.046,0,0,1-7.92-2.07,6.786,6.786,0,0,1-3.12-6.03,5.617,5.617,0,0,1,1.26-3.69,4.069,4.069,0,0,1,3.3-1.53,3.829,3.829,0,0,1,2.73.93,3.329,3.329,0,0,1,.99,2.55,3.383,3.383,0,0,1-.75,2.19,2.388,2.388,0,0,1-1.95.93q-2.1,0-2.1,1.02,0,3.78,7.56,3.78,4.38,0,6.33-3a12.921,12.921,0,0,0,1.95-7.2q0-4.8-2.07-7.2a6.448,6.448,0,0,0-5.07-2.4,7.359,7.359,0,0,0-1.47.12,11.227,11.227,0,0,0-1.41.42,10.534,10.534,0,0,1-3.06.66,3,3,0,0,1-1.59-.42,1.379,1.379,0,0,1-.69-1.26,1.4,1.4,0,0,1,.66-1.26,2.958,2.958,0,0,1,1.62-.42,18.284,18.284,0,0,1,2.82.3,23.472,23.472,0,0,0,3.3.18,4.841,4.841,0,0,0,4.41-2.61,11.583,11.583,0,0,0,1.53-5.97,11.058,11.058,0,0,0-1.8-6.48A5.969,5.969,0,0,0,15.6,5.92q-3.54,0-5.01,1.14A3.253,3.253,0,0,0,9.12,9.64a1.881,1.881,0,0,0,.42,1.11,3.112,3.112,0,0,0,1.14.93,3.051,3.051,0,0,1,2.16,2.94A2.751,2.751,0,0,1,12,16.69a3.319,3.319,0,0,1-2.4.81,3.919,3.919,0,0,1-3.03-1.47,4.839,4.839,0,0,1-1.29-3.27A7.476,7.476,0,0,1,8.49,6.28,13.069,13.069,0,0,1,16.26,4a12.878,12.878,0,0,1,8.79,2.91,9.668,9.668,0,0,1,3.33,7.65,8.518,8.518,0,0,1-1.17,4.47,10.205,10.205,0,0,1-2.94,3.18,10.419,10.419,0,0,1-3.57,1.65v.48a12.444,12.444,0,0,1,7.8,5.34A9.282,9.282,0,0,1,30,34.9a10.594,10.594,0,0,1-1.98,6.39,12.776,12.776,0,0,1-5.31,4.2A18,18,0,0,1,15.36,46.96Zm1.5,86a15.662,15.662,0,0,1-6.57-1.38,11.848,11.848,0,0,1-4.86-3.96,10.2,10.2,0,0,1-1.83-6.06,9.245,9.245,0,0,1,2.46-6.84,12.071,12.071,0,0,1,5.22-3.24v-.24l-.66-.3a10.335,10.335,0,0,1-4.86-3.9,10.747,10.747,0,0,1-1.68-6A9.2,9.2,0,0,1,6,95.37a12.834,12.834,0,0,1,4.98-3.96A15.032,15.032,0,0,1,17.34,90a14.973,14.973,0,0,1,6.93,1.47,10.475,10.475,0,0,1,4.29,3.84A9.5,9.5,0,0,1,30,100.32a8.25,8.25,0,0,1-2.07,5.61,14.182,14.182,0,0,1-4.83,3.63v.24l1.38.54q7.08,2.88,7.08,9.06a13.828,13.828,0,0,1-1.71,6.81,12.449,12.449,0,0,1-5.04,4.92A16.271,16.271,0,0,1,16.86,132.96Zm4.5-23.82a8.646,8.646,0,0,0,3.72-3.54,10.62,10.62,0,0,0,1.08-4.92,8.554,8.554,0,0,0-1.2-4.47,8.659,8.659,0,0,0-3.21-3.15,8.785,8.785,0,0,0-4.41-1.14,9.538,9.538,0,0,0-6.27,2.1A6.866,6.866,0,0,0,8.52,99.6a6.147,6.147,0,0,0,1.23,4.02,9.606,9.606,0,0,0,3.87,2.58Zm-3.84,21.9a9.66,9.66,0,0,0,5.4-1.38,8.258,8.258,0,0,0,3.03-3.33,8.593,8.593,0,0,0,.93-3.69,7.227,7.227,0,0,0-1.47-4.98,11.532,11.532,0,0,0-4.29-2.76l-8.1-2.94a8.023,8.023,0,0,0-3.84,3.24,12.391,12.391,0,0,0-1.38,6.48q0,4.8,2.91,7.08A10.721,10.721,0,0,0,17.52,131.04Z" transform="translate(817 241)" fill="#fff"/>
        <path id="Path_573" data-name="Path 573" d="M11.16,44.08h5.82a1.772,1.772,0,0,0,1.23-.36,1.573,1.573,0,0,0,.39-1.2V34.48H3.36V32.32L21.96,4.9h2.16V32.32h7.26v2.16H24.12v8.04a1.573,1.573,0,0,0,.39,1.2,1.772,1.772,0,0,0,1.23.36h5.82V46H11.16ZM6.12,32.32H18.6V13.96Zm8.7,100.64a8.922,8.922,0,0,1-6.9-2.88,6.665,6.665,0,0,1-1.29-2.4,8.384,8.384,0,0,1-.39-2.34,4.344,4.344,0,0,1,1.5-3.42,3.736,3.736,0,0,1,2.46-.9,2.516,2.516,0,0,1,2.16,1.08,2.365,2.365,0,0,1,.39.78,4.105,4.105,0,0,1,.09.96,2.762,2.762,0,0,1-.78,1.8,6.736,6.736,0,0,1-1.14,1.02,2.22,2.22,0,0,0-.75.75,1.935,1.935,0,0,0-.21.93,2.287,2.287,0,0,0,1.23,1.89,6.915,6.915,0,0,0,3.75.81,7.453,7.453,0,0,0,4.11-1.26,9.386,9.386,0,0,0,3.27-4.2,21.787,21.787,0,0,0,1.56-5.61,36.953,36.953,0,0,0,.54-5.61v-2.7l-.42-.18a9.076,9.076,0,0,1-3.33,3.75,7.975,7.975,0,0,1-4.35,1.47,11.327,11.327,0,0,1-6.78-1.98,10.831,10.831,0,0,1-3.6-4.53,14.892,14.892,0,0,1-1.26-6.09,16.046,16.046,0,0,1,1.44-6.51,13.777,13.777,0,0,1,4.23-5.43A10.42,10.42,0,0,1,16.92,90a10.614,10.614,0,0,1,6.87,2.4,15.254,15.254,0,0,1,4.59,6.87A30.908,30.908,0,0,1,30,109.8a37.443,37.443,0,0,1-1.26,9.66,22.033,22.033,0,0,1-3.66,7.86Q20.7,132.96,14.82,132.96Zm1.38-18.48a5.8,5.8,0,0,0,3.78-1.38,9.31,9.31,0,0,0,2.67-3.93,16.084,16.084,0,0,0,.99-5.85,18.745,18.745,0,0,0-1.56-8.19,5.33,5.33,0,0,0-5.16-3.21,5.523,5.523,0,0,0-5.31,3.48,18.271,18.271,0,0,0-1.65,7.92,19.37,19.37,0,0,0,1.44,7.98A4.93,4.93,0,0,0,16.2,114.48Z" transform="translate(981 241)" fill="#fff"/>
        <path id="Path_574" data-name="Path 574" d="M16.08,46.96a13.431,13.431,0,0,1-5.82-1.17,9.025,9.025,0,0,1-3.78-3.18,7.969,7.969,0,0,1-1.32-4.47A6,6,0,0,1,6.6,33.82a4.518,4.518,0,0,1,3.36-1.5,3.329,3.329,0,0,1,2.55.99,3.494,3.494,0,0,1,.93,2.49,3.262,3.262,0,0,1-.6,1.89,3.628,3.628,0,0,1-1.56,1.29,6.3,6.3,0,0,0-1.32.84,1.437,1.437,0,0,0-.48,1.14,3.49,3.49,0,0,0,1.5,3q1.5,1.08,5.1,1.08A6.708,6.708,0,0,0,22.5,41.2a21.12,21.12,0,0,0,1.98-9.72q0-5.52-1.92-8.46t-6.24-2.94a7.98,7.98,0,0,0-3,.51,8.018,8.018,0,0,0-2.58,1.83,4.6,4.6,0,0,0-.99,1.59,4.8,4.8,0,0,0-.39,1.71,1.7,1.7,0,0,1-.33,1.08,1.053,1.053,0,0,1-.87.42q-.96,0-.96-1.5V5.02L8.52,4a10.063,10.063,0,0,0,3.69,1.8,16,16,0,0,0,4.53.72,23.258,23.258,0,0,0,5.22-.54A17.211,17.211,0,0,0,26.76,4l.72.84a16.567,16.567,0,0,1-5.31,4.53,13.816,13.816,0,0,1-6.69,1.71,18.423,18.423,0,0,1-3.54-.27,9.758,9.758,0,0,1-2.58-.93V21.34l.36.12a9.9,9.9,0,0,1,3.51-2.61,10.359,10.359,0,0,1,4.29-.93q6.3,0,9.81,3.72a13.752,13.752,0,0,1,3.51,9.84,15.756,15.756,0,0,1-2.01,7.92,14.913,14.913,0,0,1-5.37,5.55A14.109,14.109,0,0,1,16.08,46.96Zm1.32,86a10.8,10.8,0,0,1-7.56-3.06,20.29,20.29,0,0,1-5.13-8.01,30.524,30.524,0,0,1,0-20.82,20.29,20.29,0,0,1,5.13-8.01,10.832,10.832,0,0,1,15.09,0,20.123,20.123,0,0,1,5.16,8.01,30.524,30.524,0,0,1,0,20.82,20.123,20.123,0,0,1-5.16,8.01A10.836,10.836,0,0,1,17.4,132.96Zm0-1.92q4.98,0,6.57-5.64a52.066,52.066,0,0,0,1.59-13.92,52.066,52.066,0,0,0-1.59-13.92q-1.59-5.64-6.57-5.64t-6.57,5.61a52,52,0,0,0-1.59,13.95,52,52,0,0,0,1.59,13.95Q12.42,131.04,17.4,131.04Z" transform="translate(1146 241)" fill="#fff"/>
      </g>
    </g>
  </g>
</svg>
