<svg xmlns="http://www.w3.org/2000/svg" xmlns:xlink="http://www.w3.org/1999/xlink" width="1680" height="1353" viewBox="0 0 1680 1353">
  <defs>
    <clipPath id="clip-oldstandard_characterset">
      <rect width="1680" height="1353"/>
    </clipPath>
  </defs>
  <g id="oldstandard_characterset" clip-path="url(#clip-oldstandard_characterset)">
    <path id="Path_426" data-name="Path 426" d="M0,0H1688V1357.944H0Z" fill="none"/>
    <path id="Path_561" data-name="Path 561" d="M3.45,54.6H6.225q4.425,0,6.45-5.475L28.8,3.6h1.875L46.95,51.3a5.491,5.491,0,0,0,1.8,2.588,4.713,4.713,0,0,0,2.7.712h4.2V57H32.4V54.6h4.95a3.037,3.037,0,0,0,1.875-.562,1.622,1.622,0,0,0,.75-1.312,4.055,4.055,0,0,0-.3-1.65L36.15,41.1H18.6l-1.8,5.025a15.215,15.215,0,0,0-1.05,4.35,5.083,5.083,0,0,0,.825,2.888,3.169,3.169,0,0,0,2.85,1.237H24V57H3.45ZM19.425,38.7h15.9l-7.8-22.875ZM4.65,162.6h5.4a1.79,1.79,0,0,0,2.025-2.025v-44.55a2.1,2.1,0,0,0-.488-1.537A2.1,2.1,0,0,0,10.05,114H4.65v-2.4H32.1a20.605,20.605,0,0,1,11.4,3.338,23.452,23.452,0,0,1,8.212,9.3A29.571,29.571,0,0,1,54.75,137.85a31.217,31.217,0,0,1-3.038,13.875,24.368,24.368,0,0,1-8.25,9.75A19.872,19.872,0,0,1,32.1,165H4.65Zm27.15,0a11.359,11.359,0,0,0,8.625-3.562,20.9,20.9,0,0,0,4.875-9.15,46.289,46.289,0,0,0,1.5-12.037q0-10.05-3.637-16.95A12.02,12.02,0,0,0,31.8,114H21a2.1,2.1,0,0,0-1.538.488,2.1,2.1,0,0,0-.488,1.537v44.55A1.79,1.79,0,0,0,21,162.6ZM26.25,274.35a17.476,17.476,0,0,1-11.213-3.788,23.729,23.729,0,0,1-7.275-10.275A39.684,39.684,0,0,1,5.25,245.85,36.652,36.652,0,0,1,7.8,231.975a23.732,23.732,0,0,1,7.275-10.013A17.328,17.328,0,0,1,26.1,218.25a13.453,13.453,0,0,1,6.225,1.5,21.656,21.656,0,0,1,4.8,3.225q1.8,1.65,2.4,1.65a.978.978,0,0,0,.862-.375,5.47,5.47,0,0,0,.563-1.2l1.425-4.2H44.25l.3,23.25h-2.1a47.769,47.769,0,0,0-4.275-11.963,21.653,21.653,0,0,0-5.737-7.162,10.329,10.329,0,0,0-6.187-2.325q-5.175,0-8.025,3.113a17.549,17.549,0,0,0-3.937,8.663,89.057,89.057,0,0,0,0,27.75,17.549,17.549,0,0,0,3.938,8.663q2.85,3.113,8.025,3.113a8.551,8.551,0,0,0,5.325-1.988,15.352,15.352,0,0,0,4.162-5.062,13.006,13.006,0,0,0,1.612-6.075v-6.75a1.752,1.752,0,0,0-2.025-2.025H27v-2.4H51.75v2.4H46.275a1.752,1.752,0,0,0-2.025,2.025v21.9h-2.4V267.15a4.686,4.686,0,0,0-.3-1.913,1.011,1.011,0,0,0-.975-.637,1.947,1.947,0,0,0-1.425.6,7.834,7.834,0,0,0-1.2,1.65,19.155,19.155,0,0,1-4.875,5.137A11.145,11.145,0,0,1,26.25,274.35Zm-10.2,108A14.288,14.288,0,0,1,6.9,379.5a9.488,9.488,0,0,1-3.6-7.875,7.13,7.13,0,0,1,.975-3.825,6.476,6.476,0,0,1,2.438-2.362,5.933,5.933,0,0,1,2.813-.788,4.3,4.3,0,0,1,3.225,1.087A3.688,3.688,0,0,1,13.8,368.4a3.3,3.3,0,0,1-.863,2.438A6.783,6.783,0,0,1,10.2,372.3a4.637,4.637,0,0,0-1.838.9,2.16,2.16,0,0,0-.562,1.65,4.175,4.175,0,0,0,2.4,3.712,11.512,11.512,0,0,0,5.85,1.388,6.587,6.587,0,0,0,5.7-2.85,11.475,11.475,0,0,0,2.025-6.825v-38.25a2.1,2.1,0,0,0-.487-1.538A2.1,2.1,0,0,0,21.75,330h-5.4v-2.4H38.1V330H32.7a1.752,1.752,0,0,0-2.025,2.025V366.45A17.166,17.166,0,0,1,28.65,375a13.955,13.955,0,0,1-5.362,5.475A14.532,14.532,0,0,1,16.05,382.35Zm-.525,60h-.45V480.6a6.751,6.751,0,0,0,1.313,4.387A4.194,4.194,0,0,0,19.8,486.6h2.7V489H4.65v-2.4h2.7a4.194,4.194,0,0,0,3.412-1.613,6.751,6.751,0,0,0,1.313-4.387V440.025a2.1,2.1,0,0,0-.488-1.538A2.1,2.1,0,0,0,10.05,438H4.65v-2.4h15.9l12.225,41.325,11.4-41.325H59.7V438H54.3a1.752,1.752,0,0,0-2.025,2.025v44.55A1.79,1.79,0,0,0,54.3,486.6h5.4V489H37.95v-2.4h5.4a1.79,1.79,0,0,0,2.025-2.025v-44.25L31.65,489.9h-1.8ZM4.65,594.6h5.4a1.79,1.79,0,0,0,2.025-2.025v-44.55a2.1,2.1,0,0,0-.488-1.538A2.1,2.1,0,0,0,10.05,546H4.65v-2.4H29.7a23.384,23.384,0,0,1,9.337,1.763,14.872,14.872,0,0,1,6.375,4.95A12.105,12.105,0,0,1,47.7,557.55a12.39,12.39,0,0,1-2.287,7.35,15.281,15.281,0,0,1-6.375,5.063A22.552,22.552,0,0,1,29.7,571.8H18.975v20.775a2.215,2.215,0,0,0,.45,1.537A2.083,2.083,0,0,0,21,594.6h6.6V597H4.65Zm26.025-25.2a7.738,7.738,0,0,0,6.562-3.488,13.924,13.924,0,0,0,2.512-8.362,13.4,13.4,0,0,0-2.475-8.212,7.811,7.811,0,0,0-6.6-3.338H21a2.1,2.1,0,0,0-1.538.487,2.1,2.1,0,0,0-.488,1.538V569.4Zm-4.35,136.95a14.754,14.754,0,0,1-6.187-1.387,30.006,30.006,0,0,1-5.288-3.038q-3.15-2.4-3.75-2.4-1.5,0-1.95,3.225l-.3,3H7.125L6.6,682.05H8.4a27.338,27.338,0,0,0,3.113,10.612,24.918,24.918,0,0,0,6.637,8.175,13.142,13.142,0,0,0,8.175,3.112q6.15,0,8.962-3a10.157,10.157,0,0,0,2.813-7.2,7.726,7.726,0,0,0-2.138-5.775,18.92,18.92,0,0,0-6.263-3.75L18.3,679.65a19.8,19.8,0,0,1-8.738-6.187A14.856,14.856,0,0,1,6.75,664.35q0-7.2,4.2-10.65a16,16,0,0,1,10.5-3.45q4.95,0,10.95,4.5a16.391,16.391,0,0,0,1.5.938,2.861,2.861,0,0,0,1.35.412q1.275,0,1.5-1.8l.3-2.7h1.8l.75,19.5H37.8a30.953,30.953,0,0,0-3.787-9.6,20.924,20.924,0,0,0-6.038-6.525,12.589,12.589,0,0,0-7.125-2.325,9.276,9.276,0,0,0-6.9,2.737A10.372,10.372,0,0,0,11.25,663a7.467,7.467,0,0,0,1.725,5.25,13.785,13.785,0,0,0,5.1,3.225L32.55,677.25a15.885,15.885,0,0,1,7.538,5.775A13.93,13.93,0,0,1,42.6,690.9a16.546,16.546,0,0,1-1.763,7.5,13.982,13.982,0,0,1-5.4,5.737A17.266,17.266,0,0,1,26.325,706.35ZM12.45,765.3a5.1,5.1,0,0,0-1.725-2.587,4.713,4.713,0,0,0-2.7-.713H3.3v-2.4h24V762H22.35a2.915,2.915,0,0,0-1.8.563,1.622,1.622,0,0,0-.75,1.313,4.8,4.8,0,0,0,.3,1.65L32.925,801.6l9.9-30.45a17.881,17.881,0,0,0,.9-5.175,4.632,4.632,0,0,0-.862-2.775A3.4,3.4,0,0,0,39.9,762H35.85v-2.4H56.1V762H53.325a5.249,5.249,0,0,0-4.05,1.537,10.93,10.93,0,0,0-2.25,3.938L31.8,814.35H29.925ZM16.8,918.6H24a1.79,1.79,0,0,0,2.025-2.025V897.15L11.475,873.3a8.956,8.956,0,0,0-2.025-2.625A3.9,3.9,0,0,0,7.05,870H3.15v-2.4H26.4V870H21.9a3.191,3.191,0,0,0-1.875.525,1.587,1.587,0,0,0-.75,1.35,2.873,2.873,0,0,0,.375,1.65L31.5,893.55l7.65-14.7a7.744,7.744,0,0,0,.825-2.1,9.653,9.653,0,0,0,.45-2.475,4.64,4.64,0,0,0-1.013-3.038A3.787,3.787,0,0,0,36.3,870H34.05v-2.4h18.6V870H50.475a5.35,5.35,0,0,0-3.9,1.463,17.544,17.544,0,0,0-2.925,4.012l-10.725,20.4v20.7A1.79,1.79,0,0,0,34.95,918.6h7.2V921H16.8Z" transform="translate(93 260)" fill="#0cb1f2"/>
    <path id="Path_566" data-name="Path 566" d="M13.2,57.9a11.968,11.968,0,0,1-6.862-1.95Q3.45,54,3.45,49.05a8.666,8.666,0,0,1,1.95-6,11.131,11.131,0,0,1,4.537-3.112A39.633,39.633,0,0,1,16.2,38.325l6.9-1.275V30.675q0-6.975-6.975-6.975a8.6,8.6,0,0,0-4.65,1.313q-2.1,1.312-2.1,2.962A2.231,2.231,0,0,0,9.6,29.1a1.728,1.728,0,0,0,.487.45,2.078,2.078,0,0,0,.638.3,4.841,4.841,0,0,1,2.062,1.05,2.459,2.459,0,0,1,.713,1.875,2.583,2.583,0,0,1-.938,2.25A3.941,3.941,0,0,1,10.2,35.7a4.273,4.273,0,0,1-3-1.275A4.813,4.813,0,0,1,5.85,30.75a7.71,7.71,0,0,1,1.537-4.8,9.431,9.431,0,0,1,3.975-3.037A12.889,12.889,0,0,1,16.35,21.9a14.26,14.26,0,0,1,8.55,2.587q3.6,2.588,3.6,8.062V51q0,3.75,2.325,3.75a2.836,2.836,0,0,0,2.7-2.175,15.083,15.083,0,0,0,.825-5.325H35.7a19.314,19.314,0,0,1-1.312,7.575A4.707,4.707,0,0,1,29.7,57.9a5.972,5.972,0,0,1-4.838-1.913A8.573,8.573,0,0,1,23.1,50.7l-.375-.15a15.06,15.06,0,0,1-3.638,4.987A8.319,8.319,0,0,1,13.2,57.9Zm1.2-2.7a6.151,6.151,0,0,0,5.287-2.663A28.117,28.117,0,0,0,23.1,45.75V38.625L16.575,40.05a8.205,8.205,0,0,0-5.213,2.962A10.493,10.493,0,0,0,9.75,49.275q0,3.45,1.425,4.688A4.786,4.786,0,0,0,14.4,55.2Zm2.4,110.7a10.479,10.479,0,0,1-6.563-2.362A16.236,16.236,0,0,1,5.4,157.05a24.156,24.156,0,0,1,0-18.3,16.236,16.236,0,0,1,4.838-6.488A10.479,10.479,0,0,1,16.8,129.9a8.046,8.046,0,0,1,5.25,1.913,11.758,11.758,0,0,1,3.45,4.613l.3-.075v-21.3a1.766,1.766,0,0,0-.375-1.275,1.766,1.766,0,0,0-1.275-.375h-5.4v-1.8H31.2v49.95a1.388,1.388,0,0,0,1.65,1.65h3.9V165H25.8v-5.55l-.3-.075a13.19,13.19,0,0,1-3.638,4.762A7.9,7.9,0,0,1,16.8,165.9Zm.825-2.1a6.109,6.109,0,0,0,4.125-1.65,11.124,11.124,0,0,0,2.962-4.537A17.627,17.627,0,0,0,25.8,151.35v-6.9a17.627,17.627,0,0,0-1.088-6.262,11.124,11.124,0,0,0-2.962-4.538A6.109,6.109,0,0,0,17.625,132q-3.675,0-5.55,4.125T10.2,147.9q0,7.65,1.875,11.775T17.625,163.8ZM20.1,290.85a28.3,28.3,0,0,1-11.4-2.1q-4.8-2.1-4.8-6.6a6.58,6.58,0,0,1,2.175-4.875,9.252,9.252,0,0,1,5.175-2.55V274.5q-6.6-1.425-6.6-5.55a5.706,5.706,0,0,1,2.363-4.838,13.4,13.4,0,0,1,5.813-2.362v-.225a13.806,13.806,0,0,1-5.363-4.087A11.165,11.165,0,0,1,5.25,250.2a11.506,11.506,0,0,1,1.875-6.6,12.223,12.223,0,0,1,4.913-4.238A14.929,14.929,0,0,1,18.6,237.9a13.559,13.559,0,0,1,4.313.713,17.989,17.989,0,0,1,3.675,1.65,7.62,7.62,0,0,1,1.988,1.538,5.6,5.6,0,0,1,5.175-3.9,6,6,0,0,1,4.2,1.5,5.026,5.026,0,0,1,1.65,3.9,4.675,4.675,0,0,1-.862,2.925,2.74,2.74,0,0,1-2.287,1.125,3.54,3.54,0,0,1-2.1-.638,2.351,2.351,0,0,1-.9-2.062,2.576,2.576,0,0,1,1.275-2.4,2.459,2.459,0,0,0,.638-.562,1.356,1.356,0,0,0,.188-.788.961.961,0,0,0-.6-.9,3.153,3.153,0,0,0-1.425-.3,3.371,3.371,0,0,0-2.438,1.088A4.083,4.083,0,0,0,29.85,243.3a11.518,11.518,0,0,1,2.1,6.9,11.908,11.908,0,0,1-1.8,6.563,11.609,11.609,0,0,1-4.838,4.275A15.27,15.27,0,0,1,18.6,262.5a23.08,23.08,0,0,0-7.613,1.163q-3.338,1.162-3.338,3.862a1.935,1.935,0,0,0,1.275,1.95A9.517,9.517,0,0,0,12.45,270q1.575,0,2.55-.075.9-.075,2.325-.075H25.05a12.415,12.415,0,0,1,8.025,2.587q3.225,2.588,3.225,7.612a8.9,8.9,0,0,1-4.462,8.025Q27.375,290.85,20.1,290.85ZM18.6,260.7a6.238,6.238,0,0,0,5.4-2.775q1.95-2.775,1.95-7.725T24,242.475a6.238,6.238,0,0,0-5.4-2.775,6.238,6.238,0,0,0-5.4,2.775q-1.95,2.775-1.95,7.725t1.95,7.725A6.238,6.238,0,0,0,18.6,260.7Zm1.5,28.35a21.914,21.914,0,0,0,9.45-1.912,6.641,6.641,0,0,0,4.05-6.488,6.119,6.119,0,0,0-1.388-4.012q-1.388-1.687-4.838-1.687H19.05a19.863,19.863,0,0,0-8.325,1.612A5.565,5.565,0,0,0,7.2,282q0,3.525,3.975,5.288A21.791,21.791,0,0,0,20.1,289.05ZM13.2,337.5a3.951,3.951,0,0,1-2.775-6.712A3.838,3.838,0,0,1,13.2,329.7a3.952,3.952,0,0,1,2.812,6.675A3.738,3.738,0,0,1,13.2,337.5ZM4.875,398.85a8.207,8.207,0,0,1-5.437-1.913A6.352,6.352,0,0,1-2.85,391.8a5.134,5.134,0,0,1,1.162-3.412A3.548,3.548,0,0,1,1.125,387a2.819,2.819,0,0,1,2.025.712,2.421,2.421,0,0,1,.75,1.837,2.769,2.769,0,0,1-.412,1.538A6.741,6.741,0,0,1,2.325,392.4,3.068,3.068,0,0,0,1.2,394.65a1.9,1.9,0,0,0,1.162,1.837,6.039,6.039,0,0,0,2.663.563,5.058,5.058,0,0,0,4.2-2.4q1.725-2.4,1.725-8.325V350.25a1.766,1.766,0,0,0-.375-1.275A1.766,1.766,0,0,0,9.3,348.6H3.9v-1.8H16.35v37.425a18.207,18.207,0,0,1-1.687,8.325,11.161,11.161,0,0,1-4.313,4.8A10.884,10.884,0,0,1,4.875,398.85ZM2.85,487.2H6a1.766,1.766,0,0,0,1.275-.375,1.766,1.766,0,0,0,.375-1.275v-27.3a1.766,1.766,0,0,0-.375-1.275A1.766,1.766,0,0,0,6,456.6H2.85v-1.8h10.2v6l.3.075a12.516,12.516,0,0,1,4.087-5.212A9.17,9.17,0,0,1,22.8,453.9q4.425,0,6.563,2.4A12.617,12.617,0,0,1,32.25,462h.3a12.79,12.79,0,0,1,3.563-5.55A8.671,8.671,0,0,1,42.3,453.9q5.475,0,7.763,3.675A15.984,15.984,0,0,1,52.35,466.2v19.35A1.388,1.388,0,0,0,54,487.2h3.15V489h-15v-1.8H45.3a1.388,1.388,0,0,0,1.65-1.65V463.575a9.791,9.791,0,0,0-1.425-5.288A4.575,4.575,0,0,0,41.4,456a6.3,6.3,0,0,0-4.237,1.763,12.628,12.628,0,0,0-3.225,4.837,18.338,18.338,0,0,0-1.237,6.9v16.05a1.388,1.388,0,0,0,1.65,1.65H37.5V489h-15v-1.8h3.15a1.766,1.766,0,0,0,1.275-.375,1.766,1.766,0,0,0,.375-1.275V463.575a9.791,9.791,0,0,0-1.425-5.288A4.575,4.575,0,0,0,21.75,456a6.3,6.3,0,0,0-4.237,1.763,12.628,12.628,0,0,0-3.225,4.837,18.338,18.338,0,0,0-1.238,6.9v16.05a1.766,1.766,0,0,0,.375,1.275,1.766,1.766,0,0,0,1.275.375h3.15V489h-15ZM2.1,612.45H6a1.766,1.766,0,0,0,1.275-.375A1.766,1.766,0,0,0,7.65,610.8V566.25a1.766,1.766,0,0,0-.375-1.275A1.766,1.766,0,0,0,6,564.6H2.1v-1.8H13.05v5.55l.3.075a13.19,13.19,0,0,1,3.638-4.763A7.9,7.9,0,0,1,22.05,561.9a10.479,10.479,0,0,1,6.563,2.362,16.236,16.236,0,0,1,4.837,6.487,24.156,24.156,0,0,1,0,18.3,16.236,16.236,0,0,1-4.837,6.487A10.479,10.479,0,0,1,22.05,597.9a8.046,8.046,0,0,1-5.25-1.913,11.758,11.758,0,0,1-3.45-4.612l-.3.075V610.8a1.766,1.766,0,0,0,.375,1.275,1.766,1.766,0,0,0,1.275.375h3.9v1.8H2.1ZM21.225,595.8q3.675,0,5.55-4.125T28.65,579.9q0-7.65-1.875-11.775T21.225,564a6.109,6.109,0,0,0-4.125,1.65,11.124,11.124,0,0,0-2.963,4.537,17.627,17.627,0,0,0-1.088,6.263v6.9a17.627,17.627,0,0,0,1.088,6.263A11.125,11.125,0,0,0,17.1,594.15,6.109,6.109,0,0,0,21.225,595.8ZM4.5,691.05H5.85l2.775,5.925q4.05,7.125,10.5,7.125a6.989,6.989,0,0,0,5.138-1.687A6.233,6.233,0,0,0,25.95,697.8a4.42,4.42,0,0,0-1.312-3.112,9.2,9.2,0,0,0-3.488-2.213l-8.55-3.45a19.083,19.083,0,0,1-6.375-3.975A8.025,8.025,0,0,1,3.9,679.125q0-4.575,2.85-6.9a11.018,11.018,0,0,1,7.2-2.325,11.614,11.614,0,0,1,4.087.712,12.288,12.288,0,0,1,3.187,1.688,5.077,5.077,0,0,0,2.475,1.2q.975,0,1.2-1.35l.15-1.5H26.4v11.4H25.05L24,679.425a11.97,11.97,0,0,0-4.538-6,10.627,10.627,0,0,0-5.587-1.725A7.276,7.276,0,0,0,9.3,673.088a4.6,4.6,0,0,0-1.8,3.862,4.336,4.336,0,0,0,1.762,3.563,20.731,20.731,0,0,0,4.837,2.662l8.1,3.375a13.9,13.9,0,0,1,5.4,3.638,8.986,8.986,0,0,1,1.8,5.963q0,5.025-2.85,7.387a11.371,11.371,0,0,1-7.5,2.363,11.407,11.407,0,0,1-4.5-.75,15.9,15.9,0,0,1-3.375-2.025,10.551,10.551,0,0,0-1.35-.9,2.537,2.537,0,0,0-1.2-.375q-1.8,0-2.475,2.55l-.3,1.5H4.5Zm2.925,93.3a9.741,9.741,0,0,0-1.537-2.85,2.972,2.972,0,0,0-2.363-.9H1.35v-1.8h16.2v1.8h-2.1a2.966,2.966,0,0,0-1.65.488,1.5,1.5,0,0,0-.75,1.313,6.993,6.993,0,0,0,.45,2.475l8.4,20.25,6.075-17.775q.3-.9.562-2.025a8.368,8.368,0,0,0,.263-1.8,3,3,0,0,0-.75-2.1,2.513,2.513,0,0,0-1.95-.825H24.3v-1.8H37.95v1.8H36.225a4.816,4.816,0,0,0-3.038,1.088,6.853,6.853,0,0,0-2.137,3.338L21.15,813.9H19.8Zm2.625,154.5a6.5,6.5,0,0,1-4.8-1.875,6.582,6.582,0,0,1-1.537-2.137,6.184,6.184,0,0,1-.563-2.588,5,5,0,0,1,.338-1.838A3.247,3.247,0,0,1,4.35,929.1a3.517,3.517,0,0,1,2.55-1.125,3.1,3.1,0,0,1,2.587,1.088,4.268,4.268,0,0,1,.863,2.737,4.834,4.834,0,0,1-.6,2.1,2.785,2.785,0,0,0-.45,1.425q0,1.125,1.5,1.125a4.833,4.833,0,0,0,3.788-1.763,11.432,11.432,0,0,0,2.288-4.162L18.9,924,8.25,893.025a12.789,12.789,0,0,0-1.725-3.413,3.289,3.289,0,0,0-2.7-1.013H1.35v-1.8H18.3v1.8H15.9a2.966,2.966,0,0,0-1.65.488,1.5,1.5,0,0,0-.75,1.313,6.993,6.993,0,0,0,.45,2.475l7.8,23.025,6.225-20.55q.3-.9.562-2.025a8.368,8.368,0,0,0,.263-1.8,3,3,0,0,0-.75-2.1,2.513,2.513,0,0,0-1.95-.825H24.3v-1.8H37.95v1.8H36.225a4.816,4.816,0,0,0-3.038,1.088,6.853,6.853,0,0,0-2.137,3.338l-12.075,38.4a12.053,12.053,0,0,1-3.15,5.1A7.841,7.841,0,0,1,10.05,938.85Z" transform="translate(1016 250)" fill="#0cb1f2"/>
    <path id="Path_562" data-name="Path 562" d="M4.65,54.6h5.4a1.79,1.79,0,0,0,2.025-2.025V8.025a2.1,2.1,0,0,0-.488-1.538A2.1,2.1,0,0,0,10.05,6H4.65V3.6H29.1a20.873,20.873,0,0,1,8.288,1.65,15.657,15.657,0,0,1,6.187,4.538A10.181,10.181,0,0,1,45.9,16.35a11.121,11.121,0,0,1-3.45,8.4,16.339,16.339,0,0,1-8.025,4.275v.3a14.739,14.739,0,0,1,6.112,1.913,14.547,14.547,0,0,1,5.025,4.612,11.472,11.472,0,0,1,1.987,6.6,13.026,13.026,0,0,1-2.4,7.875,14.861,14.861,0,0,1-6.413,4.987A22.507,22.507,0,0,1,29.925,57H4.65ZM28.8,27.9q6.075,0,8.288-3.113T39.3,16.35a10.2,10.2,0,0,0-2.85-7.425A9.451,9.451,0,0,0,29.4,6H21a2.1,2.1,0,0,0-1.538.487,2.1,2.1,0,0,0-.488,1.538V27.9Zm.3,26.7a10.672,10.672,0,0,0,7.538-2.737Q39.6,49.125,39.6,42.45t-2.962-9.413A10.672,10.672,0,0,0,29.1,30.3H18.975V52.575A1.79,1.79,0,0,0,21,54.6ZM4.65,162.6h5.4a1.79,1.79,0,0,0,2.025-2.025v-44.55a2.1,2.1,0,0,0-.488-1.537A2.1,2.1,0,0,0,10.05,114H4.65v-2.4H46.5l.3,18.75H44.925a33.976,33.976,0,0,0-.638-5.1,16.981,16.981,0,0,0-2.513-6.45,10,10,0,0,0-8.85-4.8H21a2.1,2.1,0,0,0-1.538.488,2.1,2.1,0,0,0-.488,1.537V136.2H24.75q3.825,0,5.512-3.9a20.737,20.737,0,0,0,1.688-8.325H33.9v26.85H31.95a20.737,20.737,0,0,0-1.688-8.325q-1.687-3.9-5.512-3.9H18.975v21.975A1.79,1.79,0,0,0,21,162.6H33a11.074,11.074,0,0,0,4.425-.975,9.661,9.661,0,0,0,3.825-3,18.3,18.3,0,0,0,2.475-5.25,38.087,38.087,0,0,0,1.35-5.738q.375-2.587.45-3.337H47.4L46.5,165H4.65Zm0,108h5.4a1.79,1.79,0,0,0,2.025-2.025v-44.55A1.79,1.79,0,0,0,10.05,222H4.65v-2.4H26.4V222H21a1.79,1.79,0,0,0-2.025,2.025V243.75h22.65V224.025A1.79,1.79,0,0,0,39.6,222H34.2v-2.4H55.95V222h-5.4a1.79,1.79,0,0,0-2.025,2.025v44.55A1.79,1.79,0,0,0,50.55,270.6h5.4V273H34.2v-2.4h5.4a1.79,1.79,0,0,0,2.025-2.025V246.15H18.975v22.425A1.79,1.79,0,0,0,21,270.6h5.4V273H4.65Zm0,108h5.4a1.79,1.79,0,0,0,2.025-2.025v-44.55a2.1,2.1,0,0,0-.488-1.538A2.1,2.1,0,0,0,10.05,330H4.65v-2.4H26.025V330H21a2.1,2.1,0,0,0-1.538.487,2.1,2.1,0,0,0-.488,1.538v23.25l17.25-17.625a7.442,7.442,0,0,0,1.425-2.1,6.043,6.043,0,0,0,.45-2.4,2.935,2.935,0,0,0-.975-2.25,3.406,3.406,0,0,0-2.4-.9H32.7v-2.4H52.5V330h-3q-2.475,0-6.75,4.425l-12.6,12.75L45.45,375.3a6.251,6.251,0,0,0,2.175,2.588,6.828,6.828,0,0,0,3.45.712H53.55V381H30.9v-2.4h5.025a2.19,2.19,0,0,0,1.425-.488,1.4,1.4,0,0,0,.6-1.087,3.971,3.971,0,0,0-.15-1.012,2.54,2.54,0,0,0-.375-.863L25.2,352.2l-6.225,6.3v18.075A1.79,1.79,0,0,0,21,378.6h5.025V381H4.65Zm10.725,65.175h-.3V480.6a6.751,6.751,0,0,0,1.313,4.387A4.194,4.194,0,0,0,19.8,486.6h2.7V489H4.65v-2.4h2.7a4.166,4.166,0,0,0,3.45-1.613,6.889,6.889,0,0,0,1.275-4.387V440.025a2.489,2.489,0,0,0-.525-1.538,1.966,1.966,0,0,0-1.5-.487H4.65v-2.4H18.825L44.85,477.45V444a6.889,6.889,0,0,0-1.275-4.388A4.09,4.09,0,0,0,40.2,438H37.5v-2.4H55.35V438h-2.7a4.3,4.3,0,0,0-3.45,1.612A6.623,6.623,0,0,0,47.85,444v46.35h-3ZM40.125,609.6q-4.5,0-6.3-3.375A21.584,21.584,0,0,1,31.65,597.6a17.792,17.792,0,0,1-4.65.75,17.429,17.429,0,0,1-11.288-4.05,26.563,26.563,0,0,1-7.725-10.575A35.121,35.121,0,0,1,5.25,570a33.724,33.724,0,0,1,2.775-13.537A25.952,25.952,0,0,1,15.75,546.15,17.692,17.692,0,0,1,27,542.25a17.692,17.692,0,0,1,11.25,3.9,25.952,25.952,0,0,1,7.725,10.313A33.724,33.724,0,0,1,48.75,570a35.507,35.507,0,0,1-3.187,15.075,23.215,23.215,0,0,1-9.187,10.5,19.71,19.71,0,0,0,2.288,6.263,4.4,4.4,0,0,0,3.862,2.362q2.85,0,3.825-3.038a26.5,26.5,0,0,0,.975-7.912H48.75q0,7.575-1.763,11.963T40.125,609.6Zm-20.25-16.125a5.43,5.43,0,0,1-.375-2.1,6.876,6.876,0,0,1,2.1-5.175,7.168,7.168,0,0,1,5.175-2.025,7.326,7.326,0,0,1,5.625,2.25,13.618,13.618,0,0,1,3.075,5.85,17.269,17.269,0,0,0,4.087-8.475A64.755,64.755,0,0,0,40.8,570q0-12.225-3.188-18.787A10.943,10.943,0,0,0,27,544.65a10.943,10.943,0,0,0-10.613,6.563Q13.2,557.775,13.2,570a66.025,66.025,0,0,0,1.35,13.95,17,17,0,0,0,5.25,9.6ZM27,595.95a11.619,11.619,0,0,0,4.425-.825,19.5,19.5,0,0,0-1.2-6.187,3.632,3.632,0,0,0-3.675-2.362,4.306,4.306,0,0,0-3.225,1.313,4.895,4.895,0,0,0-1.275,3.563Q22.05,595.95,27,595.95ZM14.85,702.6h7.2a1.79,1.79,0,0,0,2.025-2.025V655.8a2.215,2.215,0,0,0-.45-1.537,2.083,2.083,0,0,0-1.575-.487h-2.7q-4.725,0-8.175,4.8a18.185,18.185,0,0,0-2.925,7.688,47.226,47.226,0,0,0-.75,6.787H5.4L6,651.6H49.05l.6,21.45h-2.1a47.226,47.226,0,0,0-.75-6.787,18.185,18.185,0,0,0-2.925-7.687q-3.45-4.8-8.175-4.8H33a2.083,2.083,0,0,0-1.575.487,2.215,2.215,0,0,0-.45,1.537v44.775A1.79,1.79,0,0,0,33,702.6h7.2V705H14.85Zm-2.925,62.7a5.1,5.1,0,0,0-1.725-2.587A4.713,4.713,0,0,0,7.5,762H2.85v-2.4h22.2V762h-3.6a2.915,2.915,0,0,0-1.8.563,1.622,1.622,0,0,0-.75,1.313,6.436,6.436,0,0,0,.3,1.65l9.975,34.5,9.075-32.85-.75-2.4a3.485,3.485,0,0,0-2.1-2.138A8.524,8.524,0,0,0,32.175,762H30v-2.4H52.2V762H49.275q-3.825,0-3.825,3.9a7.047,7.047,0,0,0,.45,2.325L55.35,800.7l9.3-29.55q.525-2.025.713-3.113a16,16,0,0,0,.188-2.662,2.9,2.9,0,0,0-1.312-2.4A5.989,5.989,0,0,0,60.6,762H58.05v-2.4H78.3V762H75.075a5.1,5.1,0,0,0-3.938,1.5A10.045,10.045,0,0,0,69,767.475L54.075,814.35H52.2l-12.3-41.7-11.85,41.7H26.175ZM5.1,918.6,36.15,870H22.05a8.48,8.48,0,0,0-4.612,1.35,15.82,15.82,0,0,0-3.562,3,19.251,19.251,0,0,0-3,4.838,34.417,34.417,0,0,0-1.8,5.025,22.09,22.09,0,0,0-.6,2.587H6.6l1.8-19.2H44.1V870L13.35,918.6h15a10.591,10.591,0,0,0,5.25-1.537,13.731,13.731,0,0,0,4.425-3.937,27.5,27.5,0,0,0,3.112-5.963,45.3,45.3,0,0,0,1.838-5.887q.6-2.625.6-2.925H45.45L44.25,921H5.1Z" transform="translate(345 260)" fill="#0cb1f2"/>
    <path id="Path_568" data-name="Path 568" d="M21.6,57.9a8.739,8.739,0,0,1-5.55-2.025A14.111,14.111,0,0,1,12,50.55h-.3L8.55,57H7.2V7.05a1.766,1.766,0,0,0-.375-1.275A1.766,1.766,0,0,0,5.55,5.4H1.65V3.6H12.6V28.35l.3.075a11.758,11.758,0,0,1,3.45-4.612A8.046,8.046,0,0,1,21.6,21.9a10.479,10.479,0,0,1,6.563,2.362A16.236,16.236,0,0,1,33,30.75a22.639,22.639,0,0,1,1.8,9.15A22.639,22.639,0,0,1,33,49.05a16.236,16.236,0,0,1-4.837,6.487A10.479,10.479,0,0,1,21.6,57.9Zm-.825-2.1q3.675,0,5.55-4.125T28.2,39.9q0-7.65-1.875-11.775T20.775,24a6.109,6.109,0,0,0-4.125,1.65,11.124,11.124,0,0,0-2.962,4.538A17.627,17.627,0,0,0,12.6,36.45v6.9a17.627,17.627,0,0,0,1.088,6.263A11.124,11.124,0,0,0,16.65,54.15,6.109,6.109,0,0,0,20.775,55.8ZM19.05,165.9a14.332,14.332,0,0,1-11.213-4.725Q3.6,156.45,3.6,148.05a21.567,21.567,0,0,1,1.875-8.963,16.8,16.8,0,0,1,5.213-6.675A12.105,12.105,0,0,1,18.15,129.9a11.21,11.21,0,0,1,7.5,2.475,14.061,14.061,0,0,1,4.237,6.262A23.547,23.547,0,0,1,31.2,146.4a1.1,1.1,0,0,1-.525,1.088,4.377,4.377,0,0,1-1.8.262H10.2q0,7.5,2.137,11.925A7.258,7.258,0,0,0,19.35,164.1a9.769,9.769,0,0,0,6.488-2.625q3.037-2.625,3.863-8.175h1.8a14.522,14.522,0,0,1-3.787,9.037A11.329,11.329,0,0,1,19.05,165.9Zm5.7-19.95a28.52,28.52,0,0,0-1.575-10.125Q21.6,131.7,18,131.7q-3.825,0-5.812,4.163A23.263,23.263,0,0,0,10.2,145.95ZM2.1,271.2H6.3a1.766,1.766,0,0,0,1.275-.375,1.766,1.766,0,0,0,.375-1.275v-46.5a1.766,1.766,0,0,0-.375-1.275A1.766,1.766,0,0,0,6.3,221.4H2.1v-1.8H13.35v25.35l.3.075a13.3,13.3,0,0,1,4.275-5.362A9.678,9.678,0,0,1,23.55,237.9q5.475,0,7.762,3.375a14.091,14.091,0,0,1,2.288,8.1V269.55a1.388,1.388,0,0,0,1.65,1.65H38.4V273h-15v-1.8h3.15a1.766,1.766,0,0,0,1.275-.375,1.766,1.766,0,0,0,.375-1.275v-21.6a11.277,11.277,0,0,0-1.312-5.625A4.7,4.7,0,0,0,22.425,240a6.853,6.853,0,0,0-4.687,1.837,12.142,12.142,0,0,0-3.225,5.025,20.561,20.561,0,0,0-1.162,7.087v15.6a1.766,1.766,0,0,0,.375,1.275A1.766,1.766,0,0,0,15,271.2h3.15V273H2.1Zm0,108H6a1.766,1.766,0,0,0,1.275-.375,1.766,1.766,0,0,0,.375-1.275v-46.5a1.766,1.766,0,0,0-.375-1.275A1.766,1.766,0,0,0,6,329.4H2.1v-1.8H13.05v38.175l10.2-12.45a7.111,7.111,0,0,0,1.087-1.425,3.019,3.019,0,0,0,.263-1.35,1.654,1.654,0,0,0-.712-1.462,3.189,3.189,0,0,0-1.838-.487H20.1v-1.8H35.4v1.8H33a6.34,6.34,0,0,0-3.6,1.05,17.829,17.829,0,0,0-3.6,3.525l-5.7,6.975L31.8,376.8a9.836,9.836,0,0,0,1.575,1.838,2.845,2.845,0,0,0,1.875.563h1.5V381H20.85v-1.8H22.8a2.777,2.777,0,0,0,1.5-.338,1.274,1.274,0,0,0,.525-1.162,3.456,3.456,0,0,0-.225-1.35,10.069,10.069,0,0,0-.75-1.35L16.5,364.5l-3.45,4.2v8.85a1.766,1.766,0,0,0,.375,1.275,1.766,1.766,0,0,0,1.275.375h2.4V381H2.1Zm.75,108H6a1.766,1.766,0,0,0,1.275-.375,1.766,1.766,0,0,0,.375-1.275v-27.3a1.766,1.766,0,0,0-.375-1.275A1.766,1.766,0,0,0,6,456.6H2.85v-1.8h10.2v6.15l.3.075a13.3,13.3,0,0,1,4.275-5.362A9.678,9.678,0,0,1,23.25,453.9q5.475,0,7.763,3.375a14.092,14.092,0,0,1,2.287,8.1V485.55a1.388,1.388,0,0,0,1.65,1.65H38.1V489h-15v-1.8h3.15a1.766,1.766,0,0,0,1.275-.375,1.766,1.766,0,0,0,.375-1.275v-21.6a11.276,11.276,0,0,0-1.313-5.625A4.7,4.7,0,0,0,22.125,456a6.853,6.853,0,0,0-4.687,1.837,12.142,12.142,0,0,0-3.225,5.025,20.561,20.561,0,0,0-1.163,7.088v15.6a1.766,1.766,0,0,0,.375,1.275,1.766,1.766,0,0,0,1.275.375h3.15V489h-15Zm17.4,125.25h3.9a1.766,1.766,0,0,0,1.275-.375A1.766,1.766,0,0,0,25.8,610.8V591.45l-.3-.075a11.758,11.758,0,0,1-3.45,4.612A8.046,8.046,0,0,1,16.8,597.9a10.479,10.479,0,0,1-6.563-2.363A16.236,16.236,0,0,1,5.4,589.05a24.156,24.156,0,0,1,0-18.3,16.236,16.236,0,0,1,4.838-6.487A10.479,10.479,0,0,1,16.8,561.9a8.739,8.739,0,0,1,5.55,2.025,14.111,14.111,0,0,1,4.05,5.325h.3l3.15-6.45H31.2v48a1.388,1.388,0,0,0,1.65,1.65h3.9v1.8H20.25ZM17.625,595.8a6.109,6.109,0,0,0,4.125-1.65,11.125,11.125,0,0,0,2.962-4.538A17.627,17.627,0,0,0,25.8,583.35v-6.9a17.627,17.627,0,0,0-1.088-6.263,11.124,11.124,0,0,0-2.962-4.537A6.109,6.109,0,0,0,17.625,564q-3.675,0-5.55,4.125T10.2,579.9q0,7.65,1.875,11.775T17.625,595.8ZM15.45,705.9a7.273,7.273,0,0,1-5.587-2.4,9.253,9.253,0,0,1-2.213-6.525V672.9H2.1v-2.1H3.75q3.375,0,5.287-3.638A17.056,17.056,0,0,0,10.95,659.1v-2.7h2.1v14.4h9.3v2.1h-9.3v24.45a7.181,7.181,0,0,0,.9,3.75,3.294,3.294,0,0,0,3.075,1.5q5.325,0,5.325-9H23.7a23.181,23.181,0,0,1-1.463,8.663Q20.775,705.9,15.45,705.9ZM7.725,785.025a13.45,13.45,0,0,0-1.912-3.45,3.478,3.478,0,0,0-2.737-.975H1.35v-1.8h16.2v1.8H15.225a2,2,0,0,0-2.175,2.1,6.262,6.262,0,0,0,.45,2.175l8.4,20.25L27,788.85a11.858,11.858,0,0,0,.375-1.425,6.673,6.673,0,0,0,.15-1.275,8.681,8.681,0,0,0-.975-3.45,4.632,4.632,0,0,0-1.012-1.575A2.164,2.164,0,0,0,24,780.6H21.75v-1.8h16.2v1.8h-3a1.956,1.956,0,0,0-2.175,2.25,7.462,7.462,0,0,0,.6,2.4l6.975,19.875,6.075-17.775q.3-.9.562-2.025a8.368,8.368,0,0,0,.263-1.8q0-2.925-2.7-2.925h-1.8v-1.8H56.4v1.8H54.675a4.816,4.816,0,0,0-3.037,1.088,6.853,6.853,0,0,0-2.137,3.338L39.3,813.9H37.95l-9-24.6-7.8,24.6H19.8ZM3,919.05,22.5,888.6H13.35a6.84,6.84,0,0,0-6.6,3.75,21.01,21.01,0,0,0-1.688,4.688A20.729,20.729,0,0,0,4.5,900H3l.45-13.2h25.2v2.4l-19.425,30H18.75a7.607,7.607,0,0,0,4.05-1.013,6.9,6.9,0,0,0,2.55-2.737,21.01,21.01,0,0,0,1.688-4.687A20.729,20.729,0,0,0,27.6,907.8h1.5L28.65,921H3Z" transform="translate(1268 250)" fill="#0cb1f2"/>
    <path id="Path_563" data-name="Path 563" d="M27.45,58.35a18.528,18.528,0,0,1-12-4.05A25.173,25.173,0,0,1,7.838,43.688,37.382,37.382,0,0,1,5.25,29.85,36.652,36.652,0,0,1,7.8,15.975,23.732,23.732,0,0,1,15.075,5.963,17.328,17.328,0,0,1,26.1,2.25a13.453,13.453,0,0,1,6.225,1.5,21.656,21.656,0,0,1,4.8,3.225q1.8,1.65,2.4,1.65a.978.978,0,0,0,.862-.375,5.47,5.47,0,0,0,.563-1.2l1.425-4.2H44.25l.3,23.25h-2.1a47.769,47.769,0,0,0-4.275-11.962,21.653,21.653,0,0,0-5.737-7.163A10.485,10.485,0,0,0,16.163,11.1Q13.2,17.55,13.2,29.85q0,12.675,3.075,19.387T27.45,55.95q7.2,0,10.988-5.362A25.056,25.056,0,0,0,42.75,37.575h2.7a33.6,33.6,0,0,1-1.838,9.15A18.692,18.692,0,0,1,38.025,54.9Q34.05,58.35,27.45,58.35ZM4.65,162.6h5.4a1.79,1.79,0,0,0,2.025-2.025v-44.55a2.1,2.1,0,0,0-.488-1.537A2.1,2.1,0,0,0,10.05,114H4.65v-2.4H46.5l.3,18.75H44.925a33.976,33.976,0,0,0-.638-5.1,16.981,16.981,0,0,0-2.513-6.45,10,10,0,0,0-8.85-4.8H21a2.1,2.1,0,0,0-1.538.488,2.1,2.1,0,0,0-.488,1.537V136.2H24.75q3.825,0,5.512-4.087a22.285,22.285,0,0,0,1.688-8.588H33.9v27.75H31.95a22.285,22.285,0,0,0-1.688-8.587Q28.575,138.6,24.75,138.6H18.975v21.525a3.011,3.011,0,0,0,.488,1.8A1.768,1.768,0,0,0,21,162.6h6.6V165H4.65Zm0,108h5.4a1.79,1.79,0,0,0,2.025-2.025v-44.55a2.1,2.1,0,0,0-.488-1.537A2.1,2.1,0,0,0,10.05,222H4.65v-2.4H26.4V222H21a2.1,2.1,0,0,0-1.538.488,2.1,2.1,0,0,0-.488,1.537v44.55A1.79,1.79,0,0,0,21,270.6h5.4V273H4.65Zm0,108h5.4a1.79,1.79,0,0,0,2.025-2.025v-44.55a2.1,2.1,0,0,0-.488-1.538A2.1,2.1,0,0,0,10.05,330H4.65v-2.4H27.6V330H21a2.1,2.1,0,0,0-1.538.487,2.1,2.1,0,0,0-.488,1.538v44.55A1.79,1.79,0,0,0,21,378.6h7.575a14.1,14.1,0,0,0,7.125-1.8,11.249,11.249,0,0,0,4.725-5.25,33.351,33.351,0,0,0,1.988-5.437q.787-2.887,1.162-4.912t.45-2.55H45.9L45.225,381H4.65ZM27,490.35a17.482,17.482,0,0,1-11.25-3.975,26.47,26.47,0,0,1-7.725-10.462,34.775,34.775,0,0,1,0-27.225,26.47,26.47,0,0,1,7.725-10.462A17.482,17.482,0,0,1,27,434.25a17.482,17.482,0,0,1,11.25,3.975,26.47,26.47,0,0,1,7.725,10.462,34.775,34.775,0,0,1,0,27.225,26.47,26.47,0,0,1-7.725,10.462A17.482,17.482,0,0,1,27,490.35Zm0-2.4a10.942,10.942,0,0,0,10.575-6.713Q40.8,474.525,40.8,462.3q0-12.3-3.225-18.975A10.946,10.946,0,0,0,27,436.65a10.946,10.946,0,0,0-10.575,6.675Q13.2,450,13.2,462.3q0,12.225,3.225,18.938A10.942,10.942,0,0,0,27,487.95ZM43.5,597.9a9.429,9.429,0,0,1-4.162-.825,5.926,5.926,0,0,1-2.663-2.7q-2.025-3.9-2.175-13.275a18.73,18.73,0,0,0-1.8-8.362,5.812,5.812,0,0,0-5.55-3.337H18.975v23.175a2.215,2.215,0,0,0,.45,1.537A2.083,2.083,0,0,0,21,594.6h6.675V597H4.65v-2.4h5.4a1.79,1.79,0,0,0,2.025-2.025v-44.55a2.1,2.1,0,0,0-.488-1.538A2.1,2.1,0,0,0,10.05,546H4.65v-2.4h24.6q7.275,0,11.925,2.775t4.65,9.225a10.921,10.921,0,0,1-4.163,8.925A18.511,18.511,0,0,1,31.65,568.5v.3a12.112,12.112,0,0,1,7.013,3.938Q41.4,575.85,42.3,583.35q.525,4.275.938,6.225a6.743,6.743,0,0,0,1.05,2.737,2.315,2.315,0,0,0,1.913.787q3.225,0,3.225-8.1H51.3a26.405,26.405,0,0,1-1.425,8.888Q48.45,597.9,43.5,597.9ZM26.25,567q6.3,0,8.963-3.037t2.662-8.363q0-4.575-2.437-7.087A8.819,8.819,0,0,0,28.8,546H21a2.1,2.1,0,0,0-1.538.487,2.1,2.1,0,0,0-.488,1.538V567Zm4.8,139.35a21.376,21.376,0,0,1-11.175-2.662,16.248,16.248,0,0,1-6.487-6.975,21.7,21.7,0,0,1-2.062-9.488v-31.2a2.1,2.1,0,0,0-.487-1.538A2.1,2.1,0,0,0,9.3,654H3.9v-2.4H25.725V654H20.25a2.1,2.1,0,0,0-1.538.487,2.1,2.1,0,0,0-.487,1.538V689.25q0,6.975,3.375,10.838t9.45,3.862a16.178,16.178,0,0,0,8.1-1.913,12.9,12.9,0,0,0,5.1-5.062,13.982,13.982,0,0,0,1.725-6.825V660.075a6.776,6.776,0,0,0-1.35-4.425,4.262,4.262,0,0,0-3.45-1.65H38.55v-2.4H56.4V654H53.775a4.262,4.262,0,0,0-3.45,1.65,6.776,6.776,0,0,0-1.35,4.425V689.4a17.435,17.435,0,0,1-2.138,8.587,15.432,15.432,0,0,1-6.225,6.112A19.519,19.519,0,0,1,31.05,706.35ZM3.45,810.6H5.775a6.574,6.574,0,0,0,4.162-1.312,15.237,15.237,0,0,0,3.263-3.712L25.875,786.6,14.7,765.9a9.349,9.349,0,0,0-2.287-3,5.942,5.942,0,0,0-3.638-.9H4.2v-2.4H27.45V762h-4.5q-1.35,0-1.35,1.125a3.564,3.564,0,0,0,.15.975,3.46,3.46,0,0,0,.45.975l8.1,15,7.125-10.65a7.776,7.776,0,0,0,1.5-4.275,2.921,2.921,0,0,0-1.012-2.213A3.763,3.763,0,0,0,35.25,762H32.925v-2.4h20.25V762H49.8a7.645,7.645,0,0,0-3.787.862,8.363,8.363,0,0,0-2.813,2.813l-11.475,17.25L45,807.3a7.536,7.536,0,0,0,2.1,2.588,4.434,4.434,0,0,0,2.55.712H54.3V813H31.05v-2.4h4.5a2.215,2.215,0,0,0,1.538-.45,1.467,1.467,0,0,0,.487-1.125,3.564,3.564,0,0,0-.15-.975,3.749,3.749,0,0,0-.375-.9l-9.6-17.7-8.625,13.125A9.292,9.292,0,0,0,16.95,807.3a3.982,3.982,0,0,0,.675,2.325,2.3,2.3,0,0,0,2.025.975H23.7V813H3.45ZM8.4,894.3a82.7,82.7,0,0,0-1.275-8.85,66.327,66.327,0,0,1-1.275-11.1,5.782,5.782,0,0,1,1.275-3.937A4.258,4.258,0,0,1,10.5,868.95a4.258,4.258,0,0,1,3.375,1.462,5.782,5.782,0,0,1,1.275,3.938,66.327,66.327,0,0,1-1.275,11.1A82.7,82.7,0,0,0,12.6,894.3l-1.2,15H9.6Zm2.1,27.6a4.651,4.651,0,1,1,0-9.3,4.651,4.651,0,1,1,0,9.3Z" transform="translate(607 260)" fill="#0cb1f2"/>
    <path id="Path_575" data-name="Path 575" d="M18.3,57.9a12.829,12.829,0,0,1-7.688-2.4,15.7,15.7,0,0,1-5.175-6.525A22.052,22.052,0,0,1,3.6,39.9a21.673,21.673,0,0,1,1.875-9.075A15.98,15.98,0,0,1,10.688,24.3,12.711,12.711,0,0,1,18.3,21.9a11.854,11.854,0,0,1,6,1.462,10.432,10.432,0,0,1,3.9,3.75,8.994,8.994,0,0,1,1.35,4.612,5.19,5.19,0,0,1-1.2,3.638,3.815,3.815,0,0,1-2.925,1.313,3.481,3.481,0,0,1-2.512-.975A3.117,3.117,0,0,1,21.9,33.375a3.4,3.4,0,0,1,.75-2.25,3.6,3.6,0,0,1,1.8-1.2q1.2-.375,1.2-1.35a3.655,3.655,0,0,0-.788-2.025,6.66,6.66,0,0,0-2.437-1.988A8.844,8.844,0,0,0,18.3,23.7q-4.725,0-6.413,4.05T10.2,39.9q0,8.1,1.65,12.15T18.3,56.1a8.362,8.362,0,0,0,7.05-3.225,15.175,15.175,0,0,0,3-7.575h1.8a16.886,16.886,0,0,1-1.575,5.963A12.025,12.025,0,0,1,24.6,56.025,10.553,10.553,0,0,1,18.3,57.9ZM2.1,163.2H6a1.766,1.766,0,0,0,1.275-.375,1.766,1.766,0,0,0,.375-1.275V132.9H2.1v-2.1H7.65v-5.175A18.207,18.207,0,0,1,9.337,117.3a11.161,11.161,0,0,1,4.312-4.8,10.884,10.884,0,0,1,5.475-1.5,7.979,7.979,0,0,1,5.475,1.988,7.156,7.156,0,0,1,2.25,5.662,4.658,4.658,0,0,1-.938,3.075,3.186,3.186,0,0,1-2.587,1.125,3,3,0,0,1-2.212-.863,3.092,3.092,0,0,1-.863-2.288A3.564,3.564,0,0,1,21.6,117a2.024,2.024,0,0,0,1.2-1.8,1.9,1.9,0,0,0-1.162-1.837,6.039,6.039,0,0,0-2.663-.562,5.058,5.058,0,0,0-4.2,2.4q-1.725,2.4-1.725,8.325V130.8H20.1v2.1H13.05v28.65a1.766,1.766,0,0,0,.375,1.275,1.766,1.766,0,0,0,1.275.375h5.4V165H2.1Zm7.8,66.3a3.951,3.951,0,0,1-2.775-6.712A3.838,3.838,0,0,1,9.9,221.7a3.952,3.952,0,0,1,2.812,6.675A3.738,3.738,0,0,1,9.9,229.5ZM2.85,271.2H6a1.766,1.766,0,0,0,1.275-.375,1.766,1.766,0,0,0,.375-1.275v-27.3a1.766,1.766,0,0,0-.375-1.275A1.766,1.766,0,0,0,6,240.6H2.85v-1.8h10.2v30.75a1.766,1.766,0,0,0,.375,1.275,1.766,1.766,0,0,0,1.275.375h3.15V273h-15Zm-.75,108H6a1.766,1.766,0,0,0,1.275-.375,1.766,1.766,0,0,0,.375-1.275v-46.5a1.766,1.766,0,0,0-.375-1.275A1.766,1.766,0,0,0,6,329.4H2.1v-1.8H13.05v49.95a1.766,1.766,0,0,0,.375,1.275,1.766,1.766,0,0,0,1.275.375h3.9V381H2.1ZM18.6,489.9a12.844,12.844,0,0,1-7.575-2.437A16.754,16.754,0,0,1,5.588,480.9a21.371,21.371,0,0,1,0-18,16.754,16.754,0,0,1,5.437-6.562,12.989,12.989,0,0,1,15.15,0,16.754,16.754,0,0,1,5.437,6.563,21.371,21.371,0,0,1,0,18,16.754,16.754,0,0,1-5.437,6.563A12.844,12.844,0,0,1,18.6,489.9Zm0-1.8a6.643,6.643,0,0,0,6.45-4.238Q27,479.625,27,471.9t-1.95-11.962A6.643,6.643,0,0,0,18.6,455.7a6.643,6.643,0,0,0-6.45,4.237Q10.2,464.175,10.2,471.9t1.95,11.962A6.643,6.643,0,0,0,18.6,488.1ZM2.85,595.2H6a1.766,1.766,0,0,0,1.275-.375,1.766,1.766,0,0,0,.375-1.275v-27.3a1.766,1.766,0,0,0-.375-1.275A1.766,1.766,0,0,0,6,564.6H2.85v-1.8h10.2v7.5l.3.075a16.613,16.613,0,0,1,4.087-6.187A7.861,7.861,0,0,1,22.8,561.9a6.613,6.613,0,0,1,4.65,1.65,5.8,5.8,0,0,1,1.8,4.5,5.38,5.38,0,0,1-1.162,3.225,3.54,3.54,0,0,1-2.962,1.575,3.819,3.819,0,0,1-2.4-.75,2.5,2.5,0,0,1-.975-2.1,3.3,3.3,0,0,1,1.5-2.7,5.443,5.443,0,0,0,1.013-.825,1.4,1.4,0,0,0,.337-.975,1.248,1.248,0,0,0-.638-1.088A3.226,3.226,0,0,0,22.2,564a6.188,6.188,0,0,0-4.463,2.25,16.224,16.224,0,0,0-3.412,5.85,22.3,22.3,0,0,0-1.275,7.5v13.95a1.766,1.766,0,0,0,.375,1.275,1.766,1.766,0,0,0,1.275.375h3.15V597h-15Zm14.4,110.7q-5.475,0-7.763-3.375a14.092,14.092,0,0,1-2.287-8.1V674.25a1.766,1.766,0,0,0-.375-1.275A1.766,1.766,0,0,0,5.55,672.6H2.4v-1.8H12.6v25.05a11.276,11.276,0,0,0,1.313,5.625,4.7,4.7,0,0,0,4.463,2.325,6.853,6.853,0,0,0,4.688-1.837,12.143,12.143,0,0,0,3.225-5.025,20.561,20.561,0,0,0,1.163-7.088v-15.6a1.766,1.766,0,0,0-.375-1.275A1.766,1.766,0,0,0,25.8,672.6H22.65v-1.8h10.2v30.75a1.388,1.388,0,0,0,1.65,1.65h3.15V705H27.45v-6.15l-.3-.075a13.3,13.3,0,0,1-4.275,5.362A9.678,9.678,0,0,1,17.25,705.9ZM2.55,811.2H4.5a4.3,4.3,0,0,0,3-1.088,15.7,15.7,0,0,0,2.475-3.037l6.825-10.2L7.65,782.25a4.542,4.542,0,0,0-1.162-1.275A3.421,3.421,0,0,0,4.65,780.6H2.85v-1.8H17.7v1.8H15.9a1.326,1.326,0,0,0-1.5,1.5,3.016,3.016,0,0,0,.45,1.575l5.175,8.4,4.95-7.35a4.114,4.114,0,0,0,.675-2.4,1.539,1.539,0,0,0-.562-1.275,1.936,1.936,0,0,0-1.238-.45h-1.8v-1.8H35.1v1.8H33.225a5.126,5.126,0,0,0-2.775.75,8.511,8.511,0,0,0-2.4,2.55l-6.825,10.05,9.525,15.3a5.062,5.062,0,0,0,1.35,1.5,4.4,4.4,0,0,0,2.325.45H36.15V813H20.55v-1.8H22.8a2.091,2.091,0,0,0,1.275-.338,1.106,1.106,0,0,0,.45-.937,2.3,2.3,0,0,0-.15-.787A4.547,4.547,0,0,0,24,808.35l-6-9.6-5.1,7.575a6.02,6.02,0,0,0-1.125,2.625q0,2.25,1.875,2.25H15V813H2.55ZM8.4,894.3a82.7,82.7,0,0,0-1.275-8.85,66.327,66.327,0,0,1-1.275-11.1,5.782,5.782,0,0,1,1.275-3.937A4.258,4.258,0,0,1,10.5,868.95a4.258,4.258,0,0,1,3.375,1.462,5.782,5.782,0,0,1,1.275,3.938,66.327,66.327,0,0,1-1.275,11.1A82.7,82.7,0,0,0,12.6,894.3l-1.2,15H9.6Zm2.1,27.6a4.651,4.651,0,1,1,0-9.3,4.651,4.651,0,1,1,0,9.3Z" transform="translate(1530 250)" fill="#0cb1f2"/>
    <path id="Path_565" data-name="Path 565" d="M0,0V960" transform="translate(851.021 241.5)" fill="none" stroke="#0cb1f2" stroke-width="3"/>
    <path id="Path_564" data-name="Path 564" d="M21.96,47.08a14.823,14.823,0,0,1-9.6-3.24,20.139,20.139,0,0,1-6.09-8.49A29.906,29.906,0,0,1,4.2,24.28a29.321,29.321,0,0,1,2.04-11.1,18.985,18.985,0,0,1,5.82-8.01A13.862,13.862,0,0,1,20.88,2.2a10.762,10.762,0,0,1,4.98,1.2A17.325,17.325,0,0,1,29.7,5.98Q31.14,7.3,31.62,7.3a.783.783,0,0,0,.69-.3,4.376,4.376,0,0,0,.45-.96L33.9,2.68h1.5l.24,18.6H33.96a38.215,38.215,0,0,0-3.42-9.57,17.322,17.322,0,0,0-4.59-5.73,8.388,8.388,0,0,0-13.02,3.3q-2.37,5.16-2.37,15,0,10.14,2.46,15.51t8.94,5.37a10.091,10.091,0,0,0,8.79-4.29A20.045,20.045,0,0,0,34.2,30.46h2.16a26.879,26.879,0,0,1-1.47,7.32,14.954,14.954,0,0,1-4.47,6.54A12.452,12.452,0,0,1,21.96,47.08Zm23.76-3h4.32a1.432,1.432,0,0,0,1.62-1.62V6.82A1.432,1.432,0,0,0,50.04,5.2H45.72V3.28h17.4V5.2H58.8a1.432,1.432,0,0,0-1.62,1.62V22.6H75.3V6.82A1.432,1.432,0,0,0,73.68,5.2H69.36V3.28h17.4V5.2H82.44a1.432,1.432,0,0,0-1.62,1.62V42.46a1.432,1.432,0,0,0,1.62,1.62h4.32V46H69.36V44.08h4.32a1.432,1.432,0,0,0,1.62-1.62V24.52H57.18V42.46a1.432,1.432,0,0,0,1.62,1.62h4.32V46H45.72Zm48.12,0h2.22q3.54,0,5.16-4.38l12.9-36.42h1.5l13.02,38.16a4.393,4.393,0,0,0,1.44,2.07,3.77,3.77,0,0,0,2.16.57h3.36V46H117V44.08h3.96a2.43,2.43,0,0,0,1.5-.45,1.3,1.3,0,0,0,.6-1.05,3.244,3.244,0,0,0-.24-1.32L120,33.28H105.96l-1.44,4.02a12.172,12.172,0,0,0-.84,3.48,4.067,4.067,0,0,0,.66,2.31,2.535,2.535,0,0,0,2.28.99h3.66V46H93.84Zm12.78-12.72h12.72l-6.24-18.3Zm66.9,15.36a7.543,7.543,0,0,1-3.33-.66,4.741,4.741,0,0,1-2.13-2.16q-1.62-3.12-1.74-10.62a14.984,14.984,0,0,0-1.44-6.69,4.65,4.65,0,0,0-4.44-2.67H153.9V42.46a1.772,1.772,0,0,0,.36,1.23,1.666,1.666,0,0,0,1.26.39h5.34V46H142.44V44.08h4.32a1.432,1.432,0,0,0,1.62-1.62V6.82a1.681,1.681,0,0,0-.39-1.23,1.681,1.681,0,0,0-1.23-.39h-4.32V3.28h19.68a18.4,18.4,0,0,1,9.54,2.22q3.72,2.22,3.72,7.38a8.737,8.737,0,0,1-3.33,7.14,14.809,14.809,0,0,1-8.01,3.18v.24a9.69,9.69,0,0,1,5.61,3.15q2.19,2.49,2.91,8.49.42,3.42.75,4.98a5.4,5.4,0,0,0,.84,2.19,1.852,1.852,0,0,0,1.53.63q2.58,0,2.58-6.48h1.5a21.124,21.124,0,0,1-1.14,7.11Q177.48,46.72,173.52,46.72ZM159.72,22q5.04,0,7.17-2.43a9.8,9.8,0,0,0,2.13-6.69,7.807,7.807,0,0,0-1.95-5.67,7.055,7.055,0,0,0-5.31-2.01h-6.24a1.681,1.681,0,0,0-1.23.39,1.681,1.681,0,0,0-.39,1.23V22Zm26.52,22.08h2.22q3.54,0,5.16-4.38l12.9-36.42h1.5l13.02,38.16a4.393,4.393,0,0,0,1.44,2.07,3.77,3.77,0,0,0,2.16.57H228V46H209.4V44.08h3.96a2.43,2.43,0,0,0,1.5-.45,1.3,1.3,0,0,0,.6-1.05,3.244,3.244,0,0,0-.24-1.32l-2.82-7.98H198.36l-1.44,4.02a12.172,12.172,0,0,0-.84,3.48,4.067,4.067,0,0,0,.66,2.31,2.535,2.535,0,0,0,2.28.99h3.66V46H186.24Zm12.78-12.72h12.72l-6.24-18.3ZM250.2,47.08a14.823,14.823,0,0,1-9.6-3.24,20.139,20.139,0,0,1-6.09-8.49,29.906,29.906,0,0,1-2.07-11.07,29.321,29.321,0,0,1,2.04-11.1,18.985,18.985,0,0,1,5.82-8.01,13.863,13.863,0,0,1,8.82-2.97,10.762,10.762,0,0,1,4.98,1.2,17.325,17.325,0,0,1,3.84,2.58q1.44,1.32,1.92,1.32a.783.783,0,0,0,.69-.3,4.377,4.377,0,0,0,.45-.96l1.14-3.36h1.5l.24,18.6H262.2a38.216,38.216,0,0,0-3.42-9.57,17.322,17.322,0,0,0-4.59-5.73,8.388,8.388,0,0,0-13.02,3.3q-2.37,5.16-2.37,15,0,10.14,2.46,15.51t8.94,5.37a10.091,10.091,0,0,0,8.79-4.29,20.044,20.044,0,0,0,3.45-10.41h2.16a26.878,26.878,0,0,1-1.47,7.32,14.954,14.954,0,0,1-4.47,6.54A12.452,12.452,0,0,1,250.2,47.08Zm31.92-3h5.76a1.432,1.432,0,0,0,1.62-1.62V6.64a1.772,1.772,0,0,0-.36-1.23,1.666,1.666,0,0,0-1.26-.39h-2.16q-3.78,0-6.54,3.84a14.548,14.548,0,0,0-2.34,6.15,37.782,37.782,0,0,0-.6,5.43h-1.68l.48-17.16h34.44l.48,17.16h-1.68a37.782,37.782,0,0,0-.6-5.43,14.548,14.548,0,0,0-2.34-6.15q-2.76-3.84-6.54-3.84h-2.16a1.666,1.666,0,0,0-1.26.39,1.772,1.772,0,0,0-.36,1.23V42.46a1.432,1.432,0,0,0,1.62,1.62h5.76V46H282.12Zm36.48,0h4.32a1.432,1.432,0,0,0,1.62-1.62V6.82a1.681,1.681,0,0,0-.39-1.23,1.681,1.681,0,0,0-1.23-.39H318.6V3.28h33.48l.24,15h-1.5a27.181,27.181,0,0,0-.51-4.08,13.584,13.584,0,0,0-2.01-5.16,8,8,0,0,0-7.08-3.84h-9.54a1.681,1.681,0,0,0-1.23.39,1.681,1.681,0,0,0-.39,1.23V22.96h4.62a4.565,4.565,0,0,0,4.41-3.12,16.59,16.59,0,0,0,1.35-6.66H342V34.66h-1.56A16.59,16.59,0,0,0,339.09,28a4.565,4.565,0,0,0-4.41-3.12h-4.62V42.46a1.432,1.432,0,0,0,1.62,1.62h9.6a8.859,8.859,0,0,0,3.54-.78,7.729,7.729,0,0,0,3.06-2.4,14.641,14.641,0,0,0,1.98-4.2,30.469,30.469,0,0,0,1.08-4.59q.3-2.07.36-2.67h1.5L352.08,46H318.6Zm74.28,2.64a7.543,7.543,0,0,1-3.33-.66,4.741,4.741,0,0,1-2.13-2.16q-1.62-3.12-1.74-10.62a14.984,14.984,0,0,0-1.44-6.69,4.65,4.65,0,0,0-4.44-2.67h-6.54V42.46a1.772,1.772,0,0,0,.36,1.23,1.666,1.666,0,0,0,1.26.39h5.34V46H361.8V44.08h4.32a1.432,1.432,0,0,0,1.62-1.62V6.82a1.681,1.681,0,0,0-.39-1.23,1.681,1.681,0,0,0-1.23-.39H361.8V3.28h19.68a18.4,18.4,0,0,1,9.54,2.22q3.72,2.22,3.72,7.38a8.737,8.737,0,0,1-3.33,7.14,14.809,14.809,0,0,1-8.01,3.18v.24a9.69,9.69,0,0,1,5.61,3.15q2.19,2.49,2.91,8.49.42,3.42.75,4.98a5.4,5.4,0,0,0,.84,2.19,1.852,1.852,0,0,0,1.53.63q2.58,0,2.58-6.48h1.5a21.124,21.124,0,0,1-1.14,7.11Q396.84,46.72,392.88,46.72ZM379.08,22q5.04,0,7.17-2.43a9.8,9.8,0,0,0,2.13-6.69,7.807,7.807,0,0,0-1.95-5.67,7.055,7.055,0,0,0-5.31-2.01h-6.24a1.681,1.681,0,0,0-1.23.39,1.681,1.681,0,0,0-.39,1.23V22ZM442.5,47.08a11.8,11.8,0,0,1-4.95-1.11,24.006,24.006,0,0,1-4.23-2.43q-2.52-1.92-3-1.92-1.2,0-1.56,2.58l-.24,2.4h-1.38l-.42-18.96h1.44a21.87,21.87,0,0,0,2.49,8.49,19.935,19.935,0,0,0,5.31,6.54,10.514,10.514,0,0,0,6.54,2.49q4.92,0,7.17-2.4A8.125,8.125,0,0,0,451.92,37a6.181,6.181,0,0,0-1.71-4.62,15.135,15.135,0,0,0-5.01-3l-9.12-3.66a15.837,15.837,0,0,1-6.99-4.95,11.884,11.884,0,0,1-2.25-7.29q0-5.76,3.36-8.52a12.8,12.8,0,0,1,8.4-2.76q3.96,0,8.76,3.6a13.124,13.124,0,0,0,1.2.75,2.289,2.289,0,0,0,1.08.33q1.02,0,1.2-1.44l.24-2.16h1.44l.6,15.6h-1.44a24.762,24.762,0,0,0-3.03-7.68,16.739,16.739,0,0,0-4.83-5.22,10.071,10.071,0,0,0-5.7-1.86,7.421,7.421,0,0,0-5.52,2.19,8.3,8.3,0,0,0-2.16,6.09,5.973,5.973,0,0,0,1.38,4.2,11.028,11.028,0,0,0,4.08,2.58l11.58,4.62a12.708,12.708,0,0,1,6.03,4.62,11.144,11.144,0,0,1,2.01,6.3,13.236,13.236,0,0,1-1.41,6,11.185,11.185,0,0,1-4.32,4.59A13.813,13.813,0,0,1,442.5,47.08Zm21.66-3h4.32a1.432,1.432,0,0,0,1.62-1.62V6.82a1.681,1.681,0,0,0-.39-1.23,1.681,1.681,0,0,0-1.23-.39h-4.32V3.28h33.48l.24,15h-1.5a27.181,27.181,0,0,0-.51-4.08,13.584,13.584,0,0,0-2.01-5.16,8,8,0,0,0-7.08-3.84h-9.54a1.681,1.681,0,0,0-1.23.39,1.681,1.681,0,0,0-.39,1.23V22.96h4.62a4.565,4.565,0,0,0,4.41-3.12A16.59,16.59,0,0,0,486,13.18h1.56V34.66H486A16.59,16.59,0,0,0,484.65,28a4.565,4.565,0,0,0-4.41-3.12h-4.62V42.46a1.432,1.432,0,0,0,1.62,1.62h9.6a8.859,8.859,0,0,0,3.54-.78,7.729,7.729,0,0,0,3.06-2.4,14.641,14.641,0,0,0,1.98-4.2,30.469,30.469,0,0,0,1.08-4.59q.3-2.07.36-2.67h1.5L497.64,46H464.16Zm51.36,0h5.76a1.432,1.432,0,0,0,1.62-1.62V6.64a1.772,1.772,0,0,0-.36-1.23,1.666,1.666,0,0,0-1.26-.39h-2.16q-3.78,0-6.54,3.84a14.548,14.548,0,0,0-2.34,6.15,37.782,37.782,0,0,0-.6,5.43h-1.68l.48-17.16h34.44l.48,17.16h-1.68a37.785,37.785,0,0,0-.6-5.43,14.547,14.547,0,0,0-2.34-6.15q-2.76-3.84-6.54-3.84h-2.16a1.666,1.666,0,0,0-1.26.39,1.772,1.772,0,0,0-.36,1.23V42.46a1.432,1.432,0,0,0,1.62,1.62h5.76V46H515.52Z" transform="translate(566 124)" fill="#0cb1f2"/>
  </g>
</svg>
