<svg xmlns="http://www.w3.org/2000/svg" xmlns:xlink="http://www.w3.org/1999/xlink" width="1680" height="1353" viewBox="0 0 1680 1353">
  <defs>
    <clipPath id="clip-oswald_characterset">
      <rect width="1680" height="1353"/>
    </clipPath>
  </defs>
  <g id="oswald_characterset" clip-path="url(#clip-oswald_characterset)">
    <path id="Path_426" data-name="Path 426" d="M0,0H1688V1357.944H0Z" fill="none"/>
    <path id="Path_592" data-name="Path 592" d="M2.025,89h5.55L10.65,72.725H25.125l3,16.275H33.75L20.85,28.25h-6Zm9.45-20.4,6.45-32.775L24.375,68.6ZM5.325,200H19.05c12.15,0,15.975-7.425,15.975-18.75V157.1c0-10.725-3.9-17.85-16.5-17.85H5.325Zm5.7-4.275v-52.05H18.45c9.075,0,10.725,4.95,10.725,14.025v22.65c0,8.85-.9,15.375-10.5,15.375Zm8.025,116.1c6.225,0,9.375-3.075,10.95-7.725l.675,6.9H34.35V281.6H20.1v4.275h9V293c0,9-2.025,14.175-9.525,14.175-7.875,0-9.75-5.175-9.75-14.025V268.175c0-8.1,1.275-13.95,9.675-13.95,7.425,0,9.225,4.35,9.225,12.9v2.1h5.4v-2.1c0-11.175-3.825-17.475-14.7-17.475-12.15,0-15.375,7.5-15.375,19.125v23.7C4.05,304.1,7.5,311.825,19.05,311.825ZM.6,424.625H3.375c10.35,0,12.225-4.5,12.225-14.55V361.25H9.9v48.525c0,8.925-.975,10.575-9.3,10.575ZM4.8,533H9.525l1.2-48.3L22.2,533h3.675L37.5,484.625,38.7,533h4.725l-1.5-60.75h-5.7L24,524.975,12,472.25H6.3Zm.525,111h5.7V615.275H19.95c10.425,0,14.325-7.275,14.325-15.9,0-9.6-3.525-16.125-14.4-16.125H5.325Zm5.7-33V587.525h7.35c8.025,0,10.275,2.55,10.275,11.85,0,8.7-3,11.625-10.35,11.625Zm7.2,144.75c8.175,0,13.95-4.725,13.95-13.8,0-6.9-4.125-12.3-8.85-16.8L12.6,715.025c-3.15-3-4.275-5.55-4.275-8.85,0-5.475,3.525-8.025,8.55-8.025,6.975,0,9.075,4.5,9.675,12.15l4.875-1.275C30.6,697.85,25.65,693.65,16.875,693.65c-8.25,0-13.725,4.65-13.725,13.05,0,4.725,1.65,8.55,5.55,12.225L19.425,729.2c4.575,4.35,7.425,7.725,7.425,13.125,0,6.15-3.15,8.775-8.55,8.775-7.425,0-9.375-5.85-10.2-13.35l-5.025,1.5C3.75,749.15,8.325,755.75,18.225,755.75ZM16.05,866h5.175L34.95,805.25h-5.4l-10.8,50.325L7.275,805.25H1.8Z" transform="translate(93 260)" fill="#0cb1f2"/>
    <path id="Path_596" data-name="Path 596" d="M11.7,89.675A9.444,9.444,0,0,0,20.625,83c.15,1.35.6,4.125.825,6h4.875c-.225-1.575-.375-6.375-.375-8.625V59.3c0-9.75-2.85-14.325-10.575-14.325-8.325,0-11.7,4.2-11.775,12.975l5.4.075v-1.5c0-5.7,2.7-7.425,6.075-7.425,4.125,0,5.4,2.625,5.4,10.5v3.075C7.725,68.375,3,71.3,3,80,3,85.4,6.45,89.675,11.7,89.675Zm1.725-4.65c-2.625,0-4.95-1.8-4.95-6.375,0-5.925,3.45-7.8,12-12.3v13.5C19.2,82.25,16.65,85.025,13.425,85.025Zm.375,115.65c3.3,0,5.7-1.875,7.425-3.75V200H26.7V139.25H21.225v20.475a10.326,10.326,0,0,0-7.65-3.75c-8.25,0-10.2,7.2-10.2,18.525v8.025C3.375,195.5,6.375,200.675,13.8,200.675Zm1.125-4.35c-5.025,0-6.075-4.575-6.075-13.35V172.7c0-8.175,1.05-12.45,5.925-12.45,2.7,0,4.95,1.725,6.45,3.075v30.15A9.788,9.788,0,0,1,14.925,196.325Zm.3,128.925c8.4,0,14.325-3.15,14.325-10.05,0-5.925-3.9-9-10.875-10.05l-6.9-1.05c-2.55-.3-3.6-1.05-3.6-2.4,0-1.65,1.425-3.45,2.925-4.95a15.247,15.247,0,0,0,4.425.675c8.7,0,11.925-6.45,11.925-15.15A28.161,28.161,0,0,0,26.1,274.7c1.2-1.425,4.725-3.3,7.125-3.75l-1.5-3.825L30.6,267.5a13.99,13.99,0,0,0-5.85,4.875c-1.5-3-4.275-5.4-9.3-5.4-8.4,0-12.15,6.9-12.15,15.15,0,5.925,1.575,10.35,5.475,13.2C5.625,298.025,3.6,300.2,3.6,303.2c0,2.25,1.425,3.825,4.8,4.725-3.525,1.8-7.125,5.175-7.125,9.45C1.275,322.775,6.6,325.25,15.225,325.25Zm.3-31.8c-6.3,0-7.275-6.375-7.275-11.325,0-4.875,1.2-11.25,7.275-11.25,6,0,7.125,6.075,7.125,11.25C22.65,287.375,21.9,293.45,15.525,293.45Zm-.075,27.375c-6.45,0-9.525-1.425-9.525-4.8s3.375-5.775,5.55-7.35l5.55.75c6.75,1.05,8.175,2.925,8.175,5.85C25.2,319.175,21.225,320.825,15.45,320.825ZM5.775,372.65H11.25v-7.425H5.775ZM1.65,433.4c6,0,9.6-3,9.6-9.9V378.65H5.775v44.4c0,3.075-.6,6-5.175,6a15.787,15.787,0,0,1-1.875-.15v4.2A12.084,12.084,0,0,0,1.65,433.4ZM4.2,533H9.3V497.075c2.475-2.625,5.475-4.425,8.1-4.425,2.55,0,4.35,1.2,4.35,6.3V533h5.175V498.8a11.234,11.234,0,0,0-.15-1.65c2.475-2.7,5.475-4.5,8.175-4.5,2.475,0,4.35,1.2,4.35,6.3V533h5.1V498.8c0-7.575-3.525-9.9-7.35-9.9-3.975,0-7.725,1.95-10.65,5.625-1.125-4.275-3.9-5.625-6.9-5.625a13.376,13.376,0,0,0-10.2,5.175V489.65H4.2Zm0,125.25H9.675v-17.7c1.725,1.95,4.275,4.125,7.725,4.125,8.1,0,10.425-7.2,10.425-18.3v-9.15c0-8.7-1.425-17.25-9.825-17.25a10.468,10.468,0,0,0-8.325,4.275v-3.6H4.2Zm12.375-17.925a9.515,9.515,0,0,1-6.9-3.15v-29.55c1.5-1.5,3.975-3.375,6.75-3.375,5.1,0,5.925,4.5,5.925,12.975v9.3C22.35,635.525,21.45,640.325,16.575,640.325ZM14.1,755.675c6.675,0,11.1-3.675,11.1-10.425,0-6-3.675-9.45-7.2-12.6l-6.15-5.475c-2.7-2.475-3.525-4.2-3.525-6.825,0-3.3,2.175-5.25,5.55-5.25,3.75,0,5.85,2.7,6.15,8.55l3.9-1.275c-.375-6.675-3.675-11.4-10.275-11.4-6.225,0-10.35,3.525-10.35,9.75,0,4.65,2.025,7.65,5.925,10.875l5.925,5.1c3.675,3.075,5.25,5.85,5.25,8.7,0,3.9-2.175,6.15-5.925,6.15-4.425,0-6.975-2.925-7.575-9.6l-4.575,1.425C2.925,750.875,7.2,755.675,14.1,755.675ZM10.725,866h6.45l9.075-43.35H20.925L13.95,859.7,6.9,822.65H1.35Z" transform="translate(1016 260)" fill="#0cb1f2"/>
    <path id="Path_593" data-name="Path 593" d="M5.325,89h15c11.4,0,14.325-7.875,14.325-17.55,0-6.6-2.025-13.275-9.15-15.225,5.925-1.2,7.725-6.975,7.725-12.825,0-9.15-3.75-15.15-14.85-15.15H5.325Zm5.7-34.575V32.675h5.4c9.225,0,11.625,3.375,11.625,10.725,0,6.675-1.875,11.025-8.775,11.025Zm0,30.3V58.85H19.35c7.35,0,9.75,5.25,9.75,12.6,0,9.15-2.025,13.275-9.9,13.275ZM5.25,200H27.375v-4.275H11.025v-25.05h13.2v-4.2h-13.2v-22.8h16.2V139.25H5.25Zm0,111h5.775V281.45H30.15V311h5.7V250.25h-5.7v26.925H11.025V250.25H5.25Zm0,111h5.775V401.525l5.4-9.9L29.775,422H35.4L20.25,387.35l12.45-26.1H27.225l-16.2,32.1v-32.1H5.25Zm.075,111h4.95V485.3L29.7,533h4.05V472.25H28.8v47.175L9.45,472.25H5.325Zm27,122.925.75-4.8c-1.875-1.275-5.1-4.875-6.975-7.35,7.125-2.25,9.525-8.925,9.525-17.625V600.875c0-10.95-3.975-18.225-15.825-18.225-11.775,0-15.75,7.2-15.75,18.225v25.2C4.05,637.1,7.8,644.75,19.8,644.75a16.31,16.31,0,0,0,1.95-.075C25.125,649.4,29.025,654.275,32.325,655.925ZM19.8,640.175c-7.95,0-9.975-5.175-9.975-12.825V599.825c0-7.725,2.025-12.6,9.975-12.6,8.1,0,10.05,4.875,10.05,12.6V627.35C29.85,635,27.825,640.175,19.8,640.175ZM12.825,755h5.7V698.675H29.7V694.25H1.35v4.425H12.825ZM12.9,866h4.65l9.525-50.1L36.75,866h4.425L51,805.25H46.2l-7.425,49.425L29.4,806.15H24.675l-9.15,48.45L7.5,805.25H2.625Z" transform="translate(345 260)" fill="#0cb1f2"/>
    <path id="Path_597" data-name="Path 597" d="M17.475,89.675c8.1,0,10.425-7.2,10.425-18.3v-9.15c0-8.7-1.5-17.25-9.9-17.25A10.316,10.316,0,0,0,9.75,49.25v-21H4.275V89H9.75V85.55C11.4,87.5,13.95,89.675,17.475,89.675Zm-.975-4.35a9.177,9.177,0,0,1-6.75-3.15V52.625c1.5-1.5,3.9-3.375,6.675-3.375,5.1,0,5.925,4.5,5.925,12.975v9.3C22.35,80.525,21.525,85.325,16.5,85.325Zm-1.425,115.35c8.4,0,11.25-5.175,11.25-13.05v-2.4H21v3c0,6.825-2.55,8.325-5.925,8.325-4.425,0-6.225-2.7-6.225-11.175V177.8H26.4v-3.9c0-12.225-2.175-17.925-11.25-17.925-8.025,0-11.775,3.975-11.775,16.8v10.95C3.375,196.325,6.9,200.675,15.075,200.675ZM8.85,174.65v-2.925c0-9.225,1.725-11.625,6.225-11.625C20.4,160.1,21,164.225,21,171.05v3.6ZM4.275,311H9.75V275.375c2.325-2.4,5.1-4.125,7.575-4.125,2.775,0,4.125,1.65,4.125,6.15V311H27V276.2c0-5.85-2.4-9.225-6.675-9.225-4.125,0-7.725,2.175-10.575,5.25V250.25H4.275Zm0,111H9.75V405.575l5.1-7.125L24,422h5.55l-10.5-26.625L30,378.65H24.225L9.75,399.8V361.25H4.275ZM4.2,533H9.675V497.3c2.25-2.325,4.95-4.05,7.5-4.05,2.775,0,4.125,1.65,4.125,6.15V533h5.475V498.2c0-5.85-2.4-9.225-6.675-9.225-4.05,0-7.65,2.175-10.425,5.175v-4.5H4.2ZM21.375,658.25H26.85v-57.6H21.375v3.15a10.1,10.1,0,0,0-7.575-3.825c-8.325,0-10.275,7.2-10.275,18.525v8.025c0,12.975,3,18.15,10.425,18.15a9.966,9.966,0,0,0,7.425-3.75Zm-6.3-17.925C10.05,640.325,9,635.75,9,626.975V616.7c0-8.175,1.05-12.45,5.925-12.45,2.625,0,4.95,1.725,6.45,3.15v30A9.52,9.52,0,0,1,15.075,640.325Zm-.6,115.2a25.016,25.016,0,0,0,4.65-.45v-4.2a16.32,16.32,0,0,1-3.15.375c-3.225,0-3.825-1.575-3.825-5.775V715.25h7.2v-3.6h-7.2V698.225H6.675V711.65H1.35v3.6H6.675V746C6.675,751.55,8.1,755.525,14.475,755.525ZM9.375,866h5.55l6.75-35.25L28.65,866h5.1l7.05-43.35H36.075L30.9,858.725,24,822.65H19.275L12.45,858.875,7.05,822.65H2.325Z" transform="translate(1268 260)" fill="#0cb1f2"/>
    <path id="Path_594" data-name="Path 594" d="M19.425,89.75c11.325,0,14.4-7.5,14.4-18.15V68h-5.4v3.975c0,7.95-1.35,13.2-8.925,13.2-7.5,0-9.675-4.5-9.675-13.5V45.8c0-8.1,1.425-13.575,9.675-13.575,7.575,0,8.925,4.95,8.925,12.825v3.525h5.4V44.9c0-10.575-3.525-17.25-14.4-17.25C7.35,27.65,4.05,35.45,4.05,46.625v24.15C4.05,81.35,7.125,89.75,19.425,89.75ZM5.325,200h5.7V170.6H24.45v-4.2H11.025V143.525H27.15V139.25H5.325Zm.15,111h5.7V250.25h-5.7Zm-.15,111h22.95v-4.275H11.025V361.25h-5.7Zm14.4,111.75c11.925,0,15.525-7.65,15.525-18.6V489.875c0-10.95-3.825-18.225-15.525-18.225-11.85,0-15.675,7.2-15.675,18.225v25.2C4.05,526.1,7.65,533.75,19.725,533.75Zm0-4.575c-8.1,0-9.9-5.175-9.9-12.825V488.825c0-7.725,1.8-12.6,9.9-12.6,7.95,0,9.75,4.875,9.75,12.6V516.35C29.475,524,27.675,529.175,19.725,529.175ZM5.325,644h5.7V614.15H20.55L29.475,644h5.55l-9.3-31.05c6.6-1.425,8.4-7.35,8.4-14.25,0-9.6-3.75-15.45-15.075-15.45H5.325Zm5.7-34.05V587.525H18.9c7.725,0,9.675,3.675,9.675,11.175s-2.325,11.25-9.825,11.25Zm9.15,145.8c12,0,15.45-7.2,15.45-17.325V694.25H30.15v44.325c0,7.125-2.175,12.6-9.975,12.6-8.175,0-9.975-5.475-9.975-12.6V694.25H4.65v44.175C4.65,748.55,7.725,755.75,20.175,755.75ZM1.05,866H6.525l10.2-25.65L28.275,866H33.75L19.875,835.025,33.3,805.25H27.825L17.4,829.475,6.525,805.25H1.2l12.975,29.1Z" transform="translate(607 260)" fill="#0cb1f2"/>
    <path id="Path_605" data-name="Path 605" d="M15,89.675c9.375,0,11.025-6.075,11.025-14.85v-2.1h-5.1v2.4c0,7.05-.675,10.425-5.85,10.425-4.95,0-6.225-3.15-6.225-11.85V61.55c0-9.15.975-12.45,6.15-12.45,4.35,0,5.925,2.175,5.925,9.75v2.1h5.1v-2.1c0-8.25-1.875-13.875-11.025-13.875-9.3,0-11.625,5.475-11.625,17.475V72.575C3.375,82.4,4.875,89.675,15,89.675ZM6.9,200h5.55V160.625h6.975V156.65H12.45v-5.025c0-4.275.45-6.3,3.75-6.3a14.364,14.364,0,0,1,3.075.375v-4.05a17.036,17.036,0,0,0-4.425-.525c-7.125,0-7.95,4.575-7.95,11.025v4.5H1.35v3.975H6.9ZM4.8,261.65h5.475v-7.425H4.8ZM4.8,311h5.475V267.65H4.8Zm.15,111h5.475V361.25H4.95Zm9.975,111.675c9.075,0,11.625-5.85,11.625-16.35v-12c0-10.5-2.55-16.35-11.625-16.35-9,0-11.55,5.925-11.55,16.35v12C3.375,527.825,5.925,533.675,14.925,533.675Zm0-4.125c-5.625,0-6-4.875-6-11.925v-12.6c0-7.05.375-11.925,6-11.925,5.7,0,6.075,4.875,6.075,11.925v12.6C21,524.675,20.625,529.55,14.925,529.55ZM4.575,644h5.55V610.7c2.1-3.45,4.8-5.025,8.25-5.025a9.67,9.67,0,0,1,2.7.45v-5.85a4.977,4.977,0,0,0-.975-.075c-3.3,0-7.2,1.8-9.975,6.375V600.65H4.575Zm6,111.675c4.125,0,7.8-2.25,10.575-5.475V755h5.475V711.65H21.15v35.4c-2.25,2.475-5.025,4.275-7.65,4.275-2.775,0-4.125-1.575-4.125-6.075v-33.6H3.825v34.8C3.825,752.3,6.15,755.675,10.575,755.675ZM1.2,866H6.45l7.575-17.025L22.125,866h5.25L17.1,843.95l10.125-21.3h-5.55l-7.125,15.9-7.425-15.9h-5.4l9.75,20.7Z" transform="translate(1530 260)" fill="#0cb1f2"/>
    <path id="Path_595" data-name="Path 595" d="M0,0V960" transform="translate(817.021 241.5)" fill="none" stroke="#094c84" stroke-width="2"/>
    <path id="Path_591" data-name="Path 591" d="M15.54,72.6c9.06,0,11.52-6,11.52-14.52V55.2H22.74v3.18c0,6.36-1.08,10.56-7.14,10.56-6,0-7.74-3.6-7.74-10.8V37.44c0-6.48,1.14-10.86,7.74-10.86,6.06,0,7.14,3.96,7.14,10.26v2.82h4.32V36.72c0-8.46-2.82-13.8-11.52-13.8-9.66,0-12.3,6.24-12.3,15.18V57.42C3.24,65.88,5.7,72.6,15.54,72.6Zm20.4-.6h4.62V48.36h15.3V72h4.56V23.4H55.86V44.94H40.56V23.4H35.94ZM68.1,72h4.44L75,58.98H86.58L88.98,72h4.5L83.16,23.4h-4.8Zm7.56-16.32,5.16-26.22,5.16,26.22ZM101.16,72h4.56V48.12h7.62L120.48,72h4.44l-7.44-24.84c5.28-1.14,6.72-5.88,6.72-11.4,0-7.68-3-12.36-12.06-12.36H101.16Zm4.56-27.24V26.82h6.3c6.18,0,7.74,2.94,7.74,8.94s-1.86,9-7.86,9ZM131.04,72h4.44l2.46-13.02h11.58L151.92,72h4.5L146.1,23.4h-4.8Zm7.56-16.32,5.16-26.22,5.16,26.22ZM175.26,72.6c9.06,0,11.52-6,11.52-14.52V55.2h-4.32v3.18c0,6.36-1.08,10.56-7.14,10.56-6,0-7.74-3.6-7.74-10.8V37.44c0-6.48,1.14-10.86,7.74-10.86,6.06,0,7.14,3.96,7.14,10.26v2.82h4.32V36.72c0-8.46-2.82-13.8-11.52-13.8-9.66,0-12.3,6.24-12.3,15.18V57.42C162.96,65.88,165.42,72.6,175.26,72.6Zm26.46-.6h4.56V26.94h8.94V23.4H192.54v3.54h9.18Zm20.58,0H240V68.58H226.92V48.54h10.56V45.18H226.92V26.94h12.96V23.4H222.3Zm25.74,0h4.56V48.12h7.62L267.36,72h4.44l-7.44-24.84c5.28-1.14,6.72-5.88,6.72-11.4,0-7.68-3-12.36-12.06-12.36H248.04Zm4.56-27.24V26.82h6.3c6.18,0,7.74,2.94,7.74,8.94s-1.86,9-7.86,9ZM304.92,72.6c6.54,0,11.16-3.78,11.16-11.04,0-5.52-3.3-9.84-7.08-13.44l-8.58-8.1c-2.52-2.4-3.42-4.44-3.42-7.08,0-4.38,2.82-6.42,6.84-6.42,5.58,0,7.26,3.6,7.74,9.72l3.9-1.02c-.66-8.94-4.62-12.3-11.64-12.3-6.6,0-10.98,3.72-10.98,10.44a12.645,12.645,0,0,0,4.44,9.78l8.58,8.22c3.66,3.48,5.94,6.18,5.94,10.5,0,4.92-2.52,7.02-6.84,7.02-5.94,0-7.5-4.68-8.16-10.68l-4.02,1.2C293.34,67.32,297,72.6,304.92,72.6Zm19.02-.6h17.7V68.58H328.56V48.54h10.56V45.18H328.56V26.94h12.96V23.4H323.94Zm31.74,0h4.56V26.94h8.94V23.4H346.5v3.54h9.18Z" transform="translate(631 124)" fill="#0cb1f2"/>
  </g>
</svg>
