<svg xmlns="http://www.w3.org/2000/svg" xmlns:xlink="http://www.w3.org/1999/xlink" width="1680" height="1353" viewBox="0 0 1680 1353">
  <defs>
    <clipPath id="clip-path">
      <rect id="Rectangle_50" data-name="Rectangle 50" width="1680" height="1353"/>
    </clipPath>
  </defs>
  <g id="oswald_characterset_1" data-name="oswald_characterset – 1" clip-path="url(#clip-path)">
    <g id="oswald_characterset" clip-path="url(#clip-path)">
      <g id="Group_131" data-name="Group 131" transform="translate(98 143)">
        <text id="A_D_G_J_M_P_S_V_Y" data-name="A D G J M P S V Y" transform="translate(0 175)" fill="#0cb1f2" font-size="60" font-family="Oswald-Light, Oswald" font-weight="300" letter-spacing="0.03em"><tspan x="0" y="0">A</tspan><tspan x="0" y="111">D</tspan><tspan x="0" y="222">G</tspan><tspan x="0" y="333">J</tspan><tspan x="0" y="444">M</tspan><tspan x="0" y="555">P</tspan><tspan x="0" y="666">S</tspan><tspan x="0" y="777">V</tspan><tspan x="0" y="888">Y</tspan></text>
        <text id="a_d_g_j_m_p_s_v_y-2" data-name="a d g j m p s v y" transform="translate(923 167)" fill="#0cb1f2" font-size="60" font-family="Oswald-Light, Oswald" font-weight="300" letter-spacing="0.03em"><tspan x="0" y="0">a</tspan><tspan x="0" y="111">d</tspan><tspan x="0" y="222">g</tspan><tspan x="0" y="333">j</tspan><tspan x="0" y="444">m</tspan><tspan x="0" y="555">p</tspan><tspan x="0" y="666">s</tspan><tspan x="0" y="777">v</tspan><tspan x="0" y="888">y</tspan></text>
        <text id="B_E_H_K_N_Q_T_W_Z" data-name="B E H K N Q T W Z" transform="translate(252 175)" fill="#0cb1f2" font-size="60" font-family="Oswald-Light, Oswald" font-weight="300" letter-spacing="0.03em"><tspan x="0" y="0">B</tspan><tspan x="0" y="111">E</tspan><tspan x="0" y="222">H</tspan><tspan x="0" y="333">K</tspan><tspan x="0" y="444">N</tspan><tspan x="0" y="555">Q</tspan><tspan x="0" y="666">T</tspan><tspan x="0" y="777">W</tspan><tspan x="0" y="888">Z</tspan></text>
        <text id="b_e_h_k_n_q_t_w_z-2" data-name="b e h k n q t w z" transform="translate(1175 167)" fill="#0cb1f2" font-size="60" font-family="Oswald-Light, Oswald" font-weight="300" letter-spacing="0.03em"><tspan x="0" y="0">b</tspan><tspan x="0" y="111">e</tspan><tspan x="0" y="222">h</tspan><tspan x="0" y="333">k</tspan><tspan x="0" y="444">n</tspan><tspan x="0" y="555">q</tspan><tspan x="0" y="666">t</tspan><tspan x="0" y="777">w</tspan><tspan x="0" y="888">z</tspan></text>
        <text id="C_F_I_L_O_R_U_X_" data-name="C F I L O R U X !" transform="translate(514 175)" fill="#0cb1f2" font-size="60" font-family="Oswald-Light, Oswald" font-weight="300" letter-spacing="0.03em"><tspan x="0" y="0">C</tspan><tspan x="0" y="111">F</tspan><tspan x="0" y="222">I</tspan><tspan x="0" y="333">L</tspan><tspan x="0" y="444">O</tspan><tspan x="0" y="555">R</tspan><tspan x="0" y="666">U</tspan><tspan x="0" y="777">X</tspan><tspan x="0" y="888">!</tspan></text>
        <text id="c_f_i_l_o_r_u_x_2" data-name="c f i l o r u x !" transform="translate(1437 167)" fill="#0cb1f2" font-size="60" font-family="Oswald-Light, Oswald" font-weight="300" letter-spacing="0.03em"><tspan x="0" y="0">c</tspan><tspan x="0" y="111">f</tspan><tspan x="0" y="222">i</tspan><tspan x="0" y="333">l</tspan><tspan x="0" y="444">o</tspan><tspan x="0" y="555">r</tspan><tspan x="0" y="666">u</tspan><tspan x="0" y="777">x</tspan><tspan x="0" y="888">!</tspan></text>
        <line id="Line_2" data-name="Line 2" y2="973" transform="translate(722.021 103.5)" fill="none" stroke="#0cb1f2" stroke-width="3"/>
        <text id="CHARACTER_SET" data-name="CHARACTER SET" transform="translate(537 12)" fill="#0cb1f2" font-size="60" font-family="Oswald-Light, Oswald" font-weight="300" letter-spacing="0.03em"><tspan x="0" y="0">CHARACTER SET</tspan></text>
      </g>
    </g>
  </g>
</svg>
