<svg xmlns="http://www.w3.org/2000/svg" xmlns:xlink="http://www.w3.org/1999/xlink" width="1680" height="1353" viewBox="0 0 1680 1353">
  <defs>
    <clipPath id="clip-oswald_characterset">
      <rect width="1680" height="1353"/>
    </clipPath>
  </defs>
  <g id="oswald_characterset" clip-path="url(#clip-oswald_characterset)">
    <path id="A_D_G_J_M_P_S_V_Y" data-name="A D G J M P S V Y" d="M1.62,0H6.06L8.52-13.02H20.1L22.5,0H27L16.68-48.6h-4.8ZM9.18-16.32l5.16-26.22L19.5-16.32ZM4.26,111H15.24c9.72,0,12.78-5.94,12.78-15V76.68c0-8.58-3.12-14.28-13.2-14.28H4.26Zm4.56-3.42V65.94h5.94c7.26,0,8.58,3.96,8.58,11.22V95.28c0,7.08-.72,12.3-8.4,12.3Zm6.42,115.08c4.98,0,7.5-2.46,8.76-6.18l.54,5.52h2.94V198.48H16.08v3.42h7.2v5.7c0,7.2-1.62,11.34-7.62,11.34-6.3,0-7.8-4.14-7.8-11.22V187.74c0-6.48,1.02-11.16,7.74-11.16,5.94,0,7.38,3.48,7.38,10.32v1.68H27.3V186.9c0-8.94-3.06-13.98-11.76-13.98-9.72,0-12.3,6-12.3,15.3v18.96C3.24,216.48,6,222.66,15.24,222.66ZM.48,335.1H2.7c8.28,0,9.78-3.6,9.78-11.64V284.4H7.92v38.82c0,7.14-.78,8.46-7.44,8.46ZM3.84,444H7.62l.96-38.64L17.76,444H20.7L30,405.3l.96,38.7h3.78l-1.2-48.6H28.98L19.2,437.58,9.6,395.4H5.04Zm.42,111H8.82V532.02h7.14c8.34,0,11.46-5.82,11.46-12.72,0-7.68-2.82-12.9-11.52-12.9H4.26Zm4.56-26.4V509.82H14.7c6.42,0,8.22,2.04,8.22,9.48,0,6.96-2.4,9.3-8.28,9.3Zm5.76,138c6.54,0,11.16-3.78,11.16-11.04,0-5.52-3.3-9.84-7.08-13.44l-8.58-8.1c-2.52-2.4-3.42-4.44-3.42-7.08,0-4.38,2.82-6.42,6.84-6.42,5.58,0,7.26,3.6,7.74,9.72l3.9-1.02c-.66-8.94-4.62-12.3-11.64-12.3-6.6,0-10.98,3.72-10.98,10.44a12.645,12.645,0,0,0,4.44,9.78l8.58,8.22c3.66,3.48,5.94,6.18,5.94,10.5,0,4.92-2.52,7.02-6.84,7.02-5.94,0-7.5-4.68-8.16-10.68l-4.02,1.2C3,661.32,6.66,666.6,14.58,666.6ZM12.84,777h4.14l10.98-48.6H23.64L15,768.66,5.82,728.4H1.44ZM12,888h4.44V871.86L27.12,839.4h-4.5l-8.4,27-8.76-27H1.02L12,871.86Z" transform="translate(109 342)" fill="#0cb1f2"/>
    <path id="a_d_g_j_m_p_s_v_y-2" data-name="a d g j m p s v y" d="M9.36.54A7.556,7.556,0,0,0,16.5-4.8c.12,1.08.48,3.3.66,4.8h3.9c-.18-1.26-.3-5.1-.3-6.9V-23.76c0-7.8-2.28-11.46-8.46-11.46-6.66,0-9.36,3.36-9.42,10.38l4.32.06v-1.2c0-4.56,2.16-5.94,4.86-5.94,3.3,0,4.32,2.1,4.32,8.4v2.46C6.18-16.5,2.4-14.16,2.4-7.2,2.4-2.88,5.16.54,9.36.54Zm1.38-3.72c-2.1,0-3.96-1.44-3.96-5.1,0-4.74,2.76-6.24,9.6-9.84v10.8C15.36-5.4,13.32-3.18,10.74-3.18Zm.3,114.72a8.08,8.08,0,0,0,5.94-3V111h4.38V62.4H16.98V78.78a8.261,8.261,0,0,0-6.12-3c-6.6,0-8.16,5.76-8.16,14.82v6.42C2.7,107.4,5.1,111.54,11.04,111.54Zm.9-3.48c-4.02,0-4.86-3.66-4.86-10.68V89.16c0-6.54.84-9.96,4.74-9.96,2.16,0,3.96,1.38,5.16,2.46v24.12A7.83,7.83,0,0,1,11.94,108.06Zm.24,125.34c6.72,0,11.46-2.52,11.46-8.04,0-4.74-3.12-7.2-8.7-8.04l-5.52-.84c-2.04-.24-2.88-.84-2.88-1.92,0-1.32,1.14-2.76,2.34-3.96a12.2,12.2,0,0,0,3.54.54c6.96,0,9.54-5.16,9.54-12.12a22.528,22.528,0,0,0-1.08-6.06,12.335,12.335,0,0,1,5.7-3l-1.2-3.06-.9.3a11.192,11.192,0,0,0-4.68,3.9c-1.2-2.4-3.42-4.32-7.44-4.32-6.72,0-9.72,5.52-9.72,12.12,0,4.74,1.26,8.28,4.38,10.56-2.52,2.16-4.14,3.9-4.14,6.3,0,1.8,1.14,3.06,3.84,3.78-2.82,1.44-5.7,4.14-5.7,7.56C1.02,231.42,5.28,233.4,12.18,233.4Zm.24-25.44c-5.04,0-5.82-5.1-5.82-9.06,0-3.9.96-9,5.82-9,4.8,0,5.7,4.86,5.7,9C18.12,203.1,17.52,207.96,12.42,207.96Zm-.06,21.9c-5.16,0-7.62-1.14-7.62-3.84s2.7-4.62,4.44-5.88l4.44.6c5.4.84,6.54,2.34,6.54,4.68C20.16,228.54,16.98,229.86,12.36,229.86ZM4.62,293.52H9v-5.94H4.62Zm-3.3,48.6c4.8,0,7.68-2.4,7.68-7.92V298.32H4.62v35.52c0,2.46-.48,4.8-4.14,4.8a12.632,12.632,0,0,1-1.5-.12v3.36A9.668,9.668,0,0,0,1.32,342.12ZM3.36,444H7.44V415.26c1.98-2.1,4.38-3.54,6.48-3.54,2.04,0,3.48.96,3.48,5.04V444h4.14V416.64a8.987,8.987,0,0,0-.12-1.32c1.98-2.16,4.38-3.6,6.54-3.6,1.98,0,3.48.96,3.48,5.04V444h4.08V416.64c0-6.06-2.82-7.92-5.88-7.92a10.882,10.882,0,0,0-8.52,4.5c-.9-3.42-3.12-4.5-5.52-4.5a10.7,10.7,0,0,0-8.16,4.14v-3.54H3.36Zm0,122.4H7.74V552.24c1.38,1.56,3.42,3.3,6.18,3.3,6.48,0,8.34-5.76,8.34-14.64v-7.32c0-6.96-1.14-13.8-7.86-13.8a8.374,8.374,0,0,0-6.66,3.42v-2.88H3.36Zm9.9-14.34a7.612,7.612,0,0,1-5.52-2.52V525.9c1.2-1.2,3.18-2.7,5.4-2.7,4.08,0,4.74,3.6,4.74,10.38v7.44C17.88,548.22,17.16,552.06,13.26,552.06ZM11.28,666.54c5.34,0,8.88-2.94,8.88-8.34,0-4.8-2.94-7.56-5.76-10.08l-4.92-4.38c-2.16-1.98-2.82-3.36-2.82-5.46,0-2.64,1.74-4.2,4.44-4.2,3,0,4.68,2.16,4.92,6.84l3.12-1.02c-.3-5.34-2.94-9.12-8.22-9.12-4.98,0-8.28,2.82-8.28,7.8,0,3.72,1.62,6.12,4.74,8.7l4.74,4.08c2.94,2.46,4.2,4.68,4.2,6.96,0,3.12-1.74,4.92-4.74,4.92-3.54,0-5.58-2.34-6.06-7.68L1.86,656.7C2.34,662.7,5.76,666.54,11.28,666.54ZM8.58,777h5.16L21,742.32H16.74l-5.58,29.64L5.52,742.32H1.08ZM2.4,896.64H3.54c5.88,0,8.88-1.74,9.9-6.18l8.4-37.14H17.4l-5.82,29.52-6-29.52H1.2l7.14,30.54a32.941,32.941,0,0,1,1.14,5.76c0,2.16-1.02,3.6-7.08,3.6Z" transform="translate(1032 334)" fill="#0cb1f2"/>
    <path id="B_E_H_K_N_Q_T_W_Z" data-name="B E H K N Q T W Z" d="M4.26,0h12c9.12,0,11.46-6.3,11.46-14.04,0-5.28-1.62-10.62-7.32-12.18,4.74-.96,6.18-5.58,6.18-10.26,0-7.32-3-12.12-11.88-12.12H4.26ZM8.82-27.66v-17.4h4.32c7.38,0,9.3,2.7,9.3,8.58,0,5.34-1.5,8.82-7.02,8.82Zm0,24.24v-20.7h6.66c5.88,0,7.8,4.2,7.8,10.08,0,7.32-1.62,10.62-7.92,10.62ZM4.2,111H21.9v-3.42H8.82V87.54H19.38V84.18H8.82V65.94H21.78V62.4H4.2Zm0,111H8.82V198.36h15.3V222h4.56V173.4H24.12v21.54H8.82V173.4H4.2Zm0,111H8.82V316.62l4.32-7.92L23.82,333h4.5L16.2,305.28l9.96-20.88H21.78L8.82,310.08V284.4H4.2Zm.06,111H8.22V405.84L23.76,444H27V395.4H23.04v37.74L7.56,395.4H4.26Zm21.6,120.54.6-3.84a33.135,33.135,0,0,1-5.58-5.88c5.7-1.8,7.62-7.14,7.62-14.1V520.5c0-8.76-3.18-14.58-12.66-14.58-9.42,0-12.6,5.76-12.6,14.58v20.16c0,8.82,3,14.94,12.6,14.94a13.05,13.05,0,0,0,1.56-.06C20.1,559.32,23.22,563.22,25.86,564.54Zm-10.02-12.6c-6.36,0-7.98-4.14-7.98-10.26V519.66c0-6.18,1.62-10.08,7.98-10.08,6.48,0,8.04,3.9,8.04,10.08v22.02C23.88,547.8,22.26,551.94,15.84,551.94ZM10.26,666h4.56V620.94h8.94V617.4H1.08v3.54h9.18Zm.06,111h3.72l7.62-40.08L29.4,777h3.54l7.86-48.6H36.96l-5.94,39.54-7.5-38.82H19.74l-7.32,38.76L6,728.4H2.1ZM2.04,888H23.22v-3.42H6.54L23.22,841.8v-2.4H3.36v3.42H18.3L2.04,884.58Z" transform="translate(361 342)" fill="#0cb1f2"/>
    <path id="b_e_h_k_n_q_t_w_z-2" data-name="b e h k n q t w z" d="M13.98.54c6.48,0,8.34-5.76,8.34-14.64v-7.32c0-6.96-1.2-13.8-7.92-13.8A8.253,8.253,0,0,0,7.8-31.8V-48.6H3.42V0H7.8V-2.76A8.218,8.218,0,0,0,13.98.54ZM13.2-2.94A7.341,7.341,0,0,1,7.8-5.46V-29.1c1.2-1.2,3.12-2.7,5.34-2.7,4.08,0,4.74,3.6,4.74,10.38v7.44C17.88-6.78,17.22-2.94,13.2-2.94ZM12.06,111.54c6.72,0,9-4.14,9-10.44V99.18H16.8v2.4c0,5.46-2.04,6.66-4.74,6.66-3.54,0-4.98-2.16-4.98-8.94V93.24H21.12V90.12c0-9.78-1.74-14.34-9-14.34-6.42,0-9.42,3.18-9.42,13.44v8.76C2.7,108.06,5.52,111.54,12.06,111.54ZM7.08,90.72V88.38c0-7.38,1.38-9.3,4.98-9.3,4.26,0,4.74,3.3,4.74,8.76v2.88ZM3.42,222H7.8V193.5c1.86-1.92,4.08-3.3,6.06-3.3,2.22,0,3.3,1.32,3.3,4.92V222H21.6V194.16c0-4.68-1.92-7.38-5.34-7.38-3.3,0-6.18,1.74-8.46,4.2V173.4H3.42Zm0,111H7.8V319.86l4.08-5.7L19.2,333h4.44l-8.4-21.3L24,298.32H19.38L7.8,315.24V284.4H3.42ZM3.36,444H7.74V415.44c1.8-1.86,3.96-3.24,6-3.24,2.22,0,3.3,1.32,3.3,4.92V444h4.38V416.16c0-4.68-1.92-7.38-5.34-7.38a11.587,11.587,0,0,0-8.34,4.14v-3.6H3.36ZM17.1,566.4h4.38V520.32H17.1v2.52a8.083,8.083,0,0,0-6.06-3.06c-6.66,0-8.22,5.76-8.22,14.82v6.42c0,10.38,2.4,14.52,8.34,14.52a7.973,7.973,0,0,0,5.94-3Zm-5.04-14.34c-4.02,0-4.86-3.66-4.86-10.68v-8.22c0-6.54.84-9.96,4.74-9.96,2.1,0,3.96,1.38,5.16,2.52v24A7.616,7.616,0,0,1,12.06,552.06Zm-.48,114.36a20.013,20.013,0,0,0,3.72-.36V662.7a13.055,13.055,0,0,1-2.52.3c-2.58,0-3.06-1.26-3.06-4.62V634.2h5.76v-2.88H9.72V620.58H5.34v10.74H1.08v2.88H5.34v24.6C5.34,663.24,6.48,666.42,11.58,666.42ZM7.5,777h4.44l5.4-28.2L22.92,777H27l5.64-34.68H28.86l-4.14,28.86L19.2,742.32H15.42L9.96,771.3,5.64,742.32H1.86ZM1.92,888H18.18v-3.36H6.6l11.76-28.68v-2.64H3.18v3.36H13.74L1.92,884.94Z" transform="translate(1284 334)" fill="#0cb1f2"/>
    <path id="C_F_I_L_O_R_U_X_" data-name="C F I L O R U X !" d="M15.54.6c9.06,0,11.52-6,11.52-14.52V-16.8H22.74v3.18c0,6.36-1.08,10.56-7.14,10.56-6,0-7.74-3.6-7.74-10.8v-20.7c0-6.48,1.14-10.86,7.74-10.86,6.06,0,7.14,3.96,7.14,10.26v2.82h4.32v-2.94c0-8.46-2.82-13.8-11.52-13.8-9.66,0-12.3,6.24-12.3,15.18v19.32C3.24-6.12,5.7.6,15.54.6ZM4.26,111H8.82V87.48H19.56V84.12H8.82V65.82h12.9V62.4H4.26Zm.12,111H8.94V173.4H4.38ZM4.26,333H22.62v-3.42H8.82V284.4H4.26ZM15.78,444.6c9.54,0,12.42-6.12,12.42-14.88V409.5c0-8.76-3.06-14.58-12.42-14.58-9.48,0-12.54,5.76-12.54,14.58v20.16C3.24,438.48,6.12,444.6,15.78,444.6Zm0-3.66c-6.48,0-7.92-4.14-7.92-10.26V408.66c0-6.18,1.44-10.08,7.92-10.08,6.36,0,7.8,3.9,7.8,10.08v22.02C23.58,436.8,22.14,440.94,15.78,440.94ZM4.26,555H8.82V531.12h7.62L23.58,555h4.44l-7.44-24.84c5.28-1.14,6.72-5.88,6.72-11.4,0-7.68-3-12.36-12.06-12.36H4.26Zm4.56-27.24V509.82h6.3c6.18,0,7.74,2.94,7.74,8.94s-1.86,9-7.86,9ZM16.14,666.6c9.6,0,12.36-5.76,12.36-13.86V617.4H24.12v35.46c0,5.7-1.74,10.08-7.98,10.08-6.54,0-7.98-4.38-7.98-10.08V617.4H3.72v35.34C3.72,660.84,6.18,666.6,16.14,666.6ZM.84,777H5.22l8.16-20.52L22.62,777H27L15.9,752.22,26.64,728.4H22.26l-8.34,19.38L5.22,728.4H.96l10.38,23.28ZM5.22,877.56H6.78L8.4,839.4H3.72ZM3.66,888H8.34v-5.28H3.66Z" transform="translate(623 342)" fill="#0cb1f2"/>
    <path id="c_f_i_l_o_r_u_x_2" data-name="c f i l o r u x !" d="M12,.54c7.5,0,8.82-4.86,8.82-11.88v-1.68H16.74v1.92c0,5.64-.54,8.34-4.68,8.34-3.96,0-4.98-2.52-4.98-9.48v-9.72c0-7.32.78-9.96,4.92-9.96,3.48,0,4.74,1.74,4.74,7.8v1.68h4.08v-1.68c0-6.6-1.5-11.1-8.82-11.1-7.44,0-9.3,4.38-9.3,13.98v8.1C2.7-5.28,3.9.54,12,.54ZM5.52,111H9.96V79.5h5.58V76.32H9.96V72.3c0-3.42.36-5.04,3-5.04a11.491,11.491,0,0,1,2.46.3V64.32a13.629,13.629,0,0,0-3.54-.42c-5.7,0-6.36,3.66-6.36,8.82v3.6H1.08V79.5H5.52ZM3.84,182.52H8.22v-5.94H3.84Zm0,39.48H8.22V187.32H3.84Zm.12,111H8.34V284.4H3.96Zm7.98,111.54c7.26,0,9.3-4.68,9.3-13.08v-9.6c0-8.4-2.04-13.08-9.3-13.08-7.2,0-9.24,4.74-9.24,13.08v9.6C2.7,439.86,4.74,444.54,11.94,444.54Zm0-3.3c-4.5,0-4.8-3.9-4.8-9.54V421.62c0-5.64.3-9.54,4.8-9.54,4.56,0,4.86,3.9,4.86,9.54V431.7C16.8,437.34,16.5,441.24,11.94,441.24ZM3.66,555H8.1V528.36c1.68-2.76,3.84-4.02,6.6-4.02a7.736,7.736,0,0,1,2.16.36v-4.68a3.983,3.983,0,0,0-.78-.06c-2.64,0-5.76,1.44-7.98,5.1v-4.74H3.66Zm4.8,111.54a11.371,11.371,0,0,0,8.46-4.38V666H21.3V631.32H16.92v28.32c-1.8,1.98-4.02,3.42-6.12,3.42-2.22,0-3.3-1.26-3.3-4.86V631.32H3.06v27.84C3.06,663.84,4.92,666.54,8.46,666.54ZM.96,777h4.2l6.06-13.62L17.7,777h4.2l-8.22-17.64,8.1-17.04H17.34l-5.7,12.72L5.7,742.32H1.38l7.8,16.56ZM5.22,877.56H6.78L8.4,839.4H3.72ZM3.66,888H8.34v-5.28H3.66Z" transform="translate(1546 334)" fill="#0cb1f2"/>
    <path id="Line_2" data-name="Line 2" d="M0,0V973" transform="translate(840.021 270.5)" fill="none" stroke="#0cb1f2" stroke-width="3"/>
    <path id="CHARACTER_SET" data-name="CHARACTER SET" d="M15.54.6c9.06,0,11.52-6,11.52-14.52V-16.8H22.74v3.18c0,6.36-1.08,10.56-7.14,10.56-6,0-7.74-3.6-7.74-10.8v-20.7c0-6.48,1.14-10.86,7.74-10.86,6.06,0,7.14,3.96,7.14,10.26v2.82h4.32v-2.94c0-8.46-2.82-13.8-11.52-13.8-9.66,0-12.3,6.24-12.3,15.18v19.32C3.24-6.12,5.7.6,15.54.6ZM35.94,0h4.62V-23.64h15.3V0h4.56V-48.6H55.86v21.54H40.56V-48.6H35.94ZM68.1,0h4.44L75-13.02H86.58L88.98,0h4.5L83.16-48.6h-4.8Zm7.56-16.32,5.16-26.22,5.16,26.22ZM101.16,0h4.56V-23.88h7.62L120.48,0h4.44l-7.44-24.84c5.28-1.14,6.72-5.88,6.72-11.4,0-7.68-3-12.36-12.06-12.36H101.16Zm4.56-27.24V-45.18h6.3c6.18,0,7.74,2.94,7.74,8.94s-1.86,9-7.86,9ZM131.04,0h4.44l2.46-13.02h11.58L151.92,0h4.5L146.1-48.6h-4.8Zm7.56-16.32,5.16-26.22,5.16,26.22ZM175.26.6c9.06,0,11.52-6,11.52-14.52V-16.8h-4.32v3.18c0,6.36-1.08,10.56-7.14,10.56-6,0-7.74-3.6-7.74-10.8v-20.7c0-6.48,1.14-10.86,7.74-10.86,6.06,0,7.14,3.96,7.14,10.26v2.82h4.32v-2.94c0-8.46-2.82-13.8-11.52-13.8-9.66,0-12.3,6.24-12.3,15.18v19.32C162.96-6.12,165.42.6,175.26.6ZM201.72,0h4.56V-45.06h8.94V-48.6H192.54v3.54h9.18ZM222.3,0H240V-3.42H226.92V-23.46h10.56v-3.36H226.92V-45.06h12.96V-48.6H222.3Zm25.74,0h4.56V-23.88h7.62L267.36,0h4.44l-7.44-24.84c5.28-1.14,6.72-5.88,6.72-11.4,0-7.68-3-12.36-12.06-12.36H248.04Zm4.56-27.24V-45.18h6.3c6.18,0,7.74,2.94,7.74,8.94s-1.86,9-7.86,9ZM304.92.6c6.54,0,11.16-3.78,11.16-11.04,0-5.52-3.3-9.84-7.08-13.44l-8.58-8.1c-2.52-2.4-3.42-4.44-3.42-7.08,0-4.38,2.82-6.42,6.84-6.42,5.58,0,7.26,3.6,7.74,9.72l3.9-1.02c-.66-8.94-4.62-12.3-11.64-12.3-6.6,0-10.98,3.72-10.98,10.44a12.645,12.645,0,0,0,4.44,9.78l8.58,8.22c3.66,3.48,5.94,6.18,5.94,10.5,0,4.92-2.52,7.02-6.84,7.02-5.94,0-7.5-4.68-8.16-10.68l-4.02,1.2C293.34-4.68,297,.6,304.92.6ZM323.94,0h17.7V-3.42H328.56V-23.46h10.56v-3.36H328.56V-45.06h12.96V-48.6H323.94Zm31.74,0h4.56V-45.06h8.94V-48.6H346.5v3.54h9.18Z" transform="translate(654 179)" fill="#0cb1f2"/>
  </g>
</svg>
