<svg xmlns="http://www.w3.org/2000/svg" xmlns:xlink="http://www.w3.org/1999/xlink" width="1680" height="509" viewBox="0 0 1680 509">
  <defs>
    <clipPath id="clip-oswald_numbers">
      <rect width="1680" height="509"/>
    </clipPath>
  </defs>
  <g id="oswald_numbers" clip-path="url(#clip-oswald_numbers)">
    <path id="Path_598" data-name="Path 598" d="M0,0H1688V509H0Z" fill="none"/>
    <path id="Path_599" data-name="Path 599" d="M4.26,72H8.22V33.84L23.76,72H27V23.4H23.04V61.14L7.56,23.4H4.26Zm44.88.6c9.6,0,12.36-5.76,12.36-13.86V23.4H57.12V58.86c0,5.7-1.74,10.08-7.98,10.08-6.54,0-7.98-4.38-7.98-10.08V23.4H36.72V58.74C36.72,66.84,39.18,72.6,49.14,72.6ZM70.86,72h3.78l.96-38.64L84.78,72h2.94l9.3-38.7L97.98,72h3.78l-1.2-48.6H96L86.22,65.58,76.62,23.4H72.06Zm40.8,0h12c9.12,0,11.46-6.3,11.46-14.04,0-5.28-1.62-10.62-7.32-12.18,4.74-.96,6.18-5.58,6.18-10.26,0-7.32-3-12.12-11.88-12.12H111.66Zm4.56-27.66V26.94h4.32c7.38,0,9.3,2.7,9.3,8.58,0,5.34-1.5,8.82-7.02,8.82Zm0,24.24V47.88h6.66c5.88,0,7.8,4.2,7.8,10.08,0,7.32-1.62,10.62-7.92,10.62ZM143.52,72h17.7V68.58H148.14V48.54H158.7V45.18H148.14V26.94H161.1V23.4H143.52Zm25.74,0h4.56V48.12h7.62L188.58,72h4.44l-7.44-24.84c5.28-1.14,6.72-5.88,6.72-11.4,0-7.68-3-12.36-12.06-12.36H169.26Zm4.56-27.24V26.82h6.3c6.18,0,7.74,2.94,7.74,8.94s-1.86,9-7.86,9ZM212.1,72.6c6.54,0,11.16-3.78,11.16-11.04,0-5.52-3.3-9.84-7.08-13.44l-8.58-8.1c-2.52-2.4-3.42-4.44-3.42-7.08,0-4.38,2.82-6.42,6.84-6.42,5.58,0,7.26,3.6,7.74,9.72l3.9-1.02c-.66-8.94-4.62-12.3-11.64-12.3-6.6,0-10.98,3.72-10.98,10.44a12.644,12.644,0,0,0,4.44,9.78l8.58,8.22c3.66,3.48,5.94,6.18,5.94,10.5,0,4.92-2.52,7.02-6.84,7.02-5.94,0-7.5-4.68-8.16-10.68l-4.02,1.2C200.52,67.32,204.18,72.6,212.1,72.6Z" transform="translate(684 95)" fill="#fff"/>
    <path id="Path_600" data-name="Path 600" d="M10.08,72h4.44V23.4H10.98c-2.16,3-6.06,4.86-8.4,5.52v3.54c.78-.24,6.54-1.8,7.5-3.18Zm5.1,89.6c8.28,0,11.46-5.88,11.46-14.82,0-10.08-2.52-14.46-10.5-14.46a11.96,11.96,0,0,0-7.8,2.82v-9.18c0-7.8,2.88-10.44,6.96-10.44,4.62,0,6.42,2.4,6.42,8.64H26.1l-.06-1.02c-.06-7.44-3.6-11.22-10.92-11.22-8.22,0-11.16,6.18-11.16,15.06v19.38C3.96,155.78,7.2,161.6,15.18,161.6Zm0-3.66c-4.68,0-6.84-3.24-6.84-11.04v-8.4a11.091,11.091,0,0,1,6.84-2.76c6.3,0,7.02,3.96,7.02,11.88C22.2,154.94,19.92,157.94,15.18,157.94Z" transform="translate(487 230)" fill="#fff"/>
    <path id="Path_601" data-name="Path 601" d="M2.94,72H24.96V68.28H8.1L20.22,49.92c2.94-4.5,5.76-8.7,5.76-14.64,0-7.8-3.72-12.36-11.04-12.36C6.72,22.92,3.3,27.66,3.3,36.6v1.2H7.68V36.72c0-5.7,1.44-10.14,7.44-10.14,4.38,0,6.48,3.18,6.48,8.34,0,5.82-2.7,9.36-5.58,13.8L2.94,68.76Zm4.08,89h4.32L21,114.56V112.4H1.8v3.54H16.5Z" transform="translate(651 230)" fill="#fff"/>
    <path id="Path_602" data-name="Path 602" d="M14.28,72.6c8.28,0,11.58-5.64,11.58-13.86,0-7.74-3.42-11.34-6.96-12.3,4.02-.96,6.96-4.56,6.96-11.4,0-7.08-3.48-12.12-11.16-12.12-8.04,0-11.22,4.56-11.22,11.7v1.14H7.74v-.84c.06-5.76,2.1-8.46,7.02-8.46,5.04,0,6.6,3.54,6.6,8.58,0,6.48-1.98,9.24-7.26,9.24H12.9v4.2h1.2c5.4.18,7.26,4.32,7.26,10.32,0,7.38-2.52,10.2-7.08,10.2-4.86,0-6.48-3.24-6.54-8.4V59.58H3.48v1.2C3.48,67.98,6.72,72.6,14.28,72.6Zm.72,89c8.28,0,11.4-5.4,11.4-13.62,0-8.46-3.78-10.86-7.02-12.48,3.96-1.62,6.48-5.1,6.48-11.28,0-7.14-2.94-12.3-10.86-12.3-7.98,0-10.98,5.1-10.98,12.18,0,6.18,2.58,9.78,6.54,11.4-3.3,1.62-7.02,4.02-7.02,12.48C3.54,156.2,6.6,161.6,15,161.6Zm0-28.08c-5.1-.24-6.66-4.26-6.66-9.48,0-5.58,2.04-8.58,6.66-8.58,4.56,0,6.54,3,6.54,8.58C21.54,129.26,19.98,133.28,15,133.52Zm0,24.54c-4.8,0-7.2-3.18-7.2-10.08,0-5.94,1.86-10.02,7.2-10.44,5.22.42,7.08,4.56,7.08,10.44C22.08,154.88,19.74,158.06,15,158.06Z" transform="translate(817 230)" fill="#fff"/>
    <path id="Path_603" data-name="Path 603" d="M17.64,72h4.32V57.78h5.58V53.82H21.96V23.4H16.8L3,53.34v4.44H17.64ZM7.44,53.82l10.2-24.6v24.6ZM15.12,161.6c8.22,0,11.04-6.24,11.04-15.12V127.1c0-9.42-3.24-15.18-11.16-15.18-8.34,0-11.58,5.88-11.58,14.76,0,10.14,2.52,14.52,10.5,14.52,4.02,0,6.6-1.5,7.8-2.88v9.18c0,7.86-2.46,10.44-6.54,10.44-5.16,0-6.84-2.4-6.84-8.58H4.02v.84C4.08,157.76,7.74,161.6,15.12,161.6Zm-.18-23.82c-6.36,0-7.02-3.96-7.02-11.94,0-7.02,2.28-10.26,7.08-10.26,4.68,0,6.72,3.18,6.72,11.04v8.34A8.976,8.976,0,0,1,14.94,137.78Z" transform="translate(981 230)" fill="#fff"/>
    <path id="Path_604" data-name="Path 604" d="M14.46,72.54c8.22,0,11.28-5.94,11.28-16.44,0-9.36-2.7-14.94-9.9-14.94A9.1,9.1,0,0,0,8.4,44.4l.24-16.86H23.58l.06-4.14H4.74V48.6H8.4c1.62-2.7,3.78-4.02,6.3-4.02,4.92,0,6.66,3.24,6.66,12.06,0,8.1-1.2,12.36-6.72,12.36-5.1,0-6.6-3.6-6.6-9.54H3.66C3.66,67.92,6.66,72.54,14.46,72.54Zm1.02,89.06c8.76,0,11.64-5.94,11.64-14.34V126.14c0-8.4-3.06-14.22-11.64-14.22-8.52,0-11.52,5.82-11.52,14.22v21.12C3.96,155.6,6.84,161.6,15.48,161.6Zm0-3.48c-5.46,0-7.08-4.68-7.08-10.5V125.84c0-5.88,1.5-10.44,7.08-10.44,5.64,0,7.14,4.56,7.14,10.44v21.78C22.62,153.44,21.06,158.12,15.48,158.12Z" transform="translate(1146 230)" fill="#fff"/>
  </g>
</svg>
