<svg xmlns="http://www.w3.org/2000/svg" xmlns:xlink="http://www.w3.org/1999/xlink" width="1680" height="509" viewBox="0 0 1680 509">
  <defs>
    <clipPath id="clip-oswald_numbers">
      <rect width="1680" height="509"/>
    </clipPath>
  </defs>
  <g id="oswald_numbers" clip-path="url(#clip-oswald_numbers)">
    <g id="Group_129" data-name="Group 129" transform="translate(-20001 7838)">
      <path id="NUMBERS" d="M4.26,0H8.22V-38.16L23.76,0H27V-48.6H23.04v37.74L7.56-48.6H4.26ZM49.14.6C58.74.6,61.5-5.16,61.5-13.26V-48.6H57.12v35.46c0,5.7-1.74,10.08-7.98,10.08-6.54,0-7.98-4.38-7.98-10.08V-48.6H36.72v35.34C36.72-5.16,39.18.6,49.14.6ZM70.86,0h3.78l.96-38.64L84.78,0h2.94l9.3-38.7L97.98,0h3.78l-1.2-48.6H96L86.22-6.42,76.62-48.6H72.06Zm40.8,0h12c9.12,0,11.46-6.3,11.46-14.04,0-5.28-1.62-10.62-7.32-12.18,4.74-.96,6.18-5.58,6.18-10.26,0-7.32-3-12.12-11.88-12.12H111.66Zm4.56-27.66v-17.4h4.32c7.38,0,9.3,2.7,9.3,8.58,0,5.34-1.5,8.82-7.02,8.82Zm0,24.24v-20.7h6.66c5.88,0,7.8,4.2,7.8,10.08,0,7.32-1.62,10.62-7.92,10.62ZM143.52,0h17.7V-3.42H148.14V-23.46H158.7v-3.36H148.14V-45.06H161.1V-48.6H143.52Zm25.74,0h4.56V-23.88h7.62L188.58,0h4.44l-7.44-24.84c5.28-1.14,6.72-5.88,6.72-11.4,0-7.68-3-12.36-12.06-12.36H169.26Zm4.56-27.24V-45.18h6.3c6.18,0,7.74,2.94,7.74,8.94s-1.86,9-7.86,9ZM212.1.6c6.54,0,11.16-3.78,11.16-11.04,0-5.52-3.3-9.84-7.08-13.44l-8.58-8.1c-2.52-2.4-3.42-4.44-3.42-7.08,0-4.38,2.82-6.42,6.84-6.42,5.58,0,7.26,3.6,7.74,9.72l3.9-1.02c-.66-8.94-4.62-12.3-11.64-12.3-6.6,0-10.98,3.72-10.98,10.44a12.644,12.644,0,0,0,4.44,9.78l8.58,8.22c3.66,3.48,5.94,6.18,5.94,10.5,0,4.92-2.52,7.02-6.84,7.02-5.94,0-7.5-4.68-8.16-10.68l-4.02,1.2C200.52-4.68,204.18.6,212.1.6Z" transform="translate(20734 -7680)" fill="#fff"/>
      <g id="Group_135" data-name="Group 135">
        <path id="_1_6" data-name="1 6" d="M10.08,0h4.44V-48.6H10.98c-2.16,3-6.06,4.86-8.4,5.52v3.54c.78-.24,6.54-1.8,7.5-3.18Zm5.1,89.6c8.28,0,11.46-5.88,11.46-14.82,0-10.08-2.52-14.46-10.5-14.46a11.96,11.96,0,0,0-7.8,2.82V53.96c0-7.8,2.88-10.44,6.96-10.44,4.62,0,6.42,2.4,6.42,8.64H26.1l-.06-1.02c-.06-7.44-3.6-11.22-10.92-11.22C6.9,39.92,3.96,46.1,3.96,54.98V74.36C3.96,83.78,7.2,89.6,15.18,89.6Zm0-3.66c-4.68,0-6.84-3.24-6.84-11.04V66.5a11.091,11.091,0,0,1,6.84-2.76c6.3,0,7.02,3.96,7.02,11.88C22.2,82.94,19.92,85.94,15.18,85.94Z" transform="translate(20497 -7565)" fill="#fff"/>
        <path id="_2_7" data-name="2 7" d="M2.94,0H24.96V-3.72H8.1L20.22-22.08c2.94-4.5,5.76-8.7,5.76-14.64,0-7.8-3.72-12.36-11.04-12.36C6.72-49.08,3.3-44.34,3.3-35.4v1.2H7.68v-1.08c0-5.7,1.44-10.14,7.44-10.14,4.38,0,6.48,3.18,6.48,8.34,0,5.82-2.7,9.36-5.58,13.8L2.94-3.24ZM7.02,89h4.32L21,42.56V40.4H1.8v3.54H16.5Z" transform="translate(20661 -7565)" fill="#fff"/>
        <path id="_3_8" data-name="3 8" d="M14.28.6c8.28,0,11.58-5.64,11.58-13.86,0-7.74-3.42-11.34-6.96-12.3,4.02-.96,6.96-4.56,6.96-11.4,0-7.08-3.48-12.12-11.16-12.12-8.04,0-11.22,4.56-11.22,11.7v1.14H7.74v-.84c.06-5.76,2.1-8.46,7.02-8.46,5.04,0,6.6,3.54,6.6,8.58,0,6.48-1.98,9.24-7.26,9.24H12.9v4.2h1.2c5.4.18,7.26,4.32,7.26,10.32C21.36-5.82,18.84-3,14.28-3,9.42-3,7.8-6.24,7.74-11.4v-1.02H3.48v1.2C3.48-4.02,6.72.6,14.28.6Zm.72,89c8.28,0,11.4-5.4,11.4-13.62,0-8.46-3.78-10.86-7.02-12.48,3.96-1.62,6.48-5.1,6.48-11.28,0-7.14-2.94-12.3-10.86-12.3-7.98,0-10.98,5.1-10.98,12.18,0,6.18,2.58,9.78,6.54,11.4-3.3,1.62-7.02,4.02-7.02,12.48C3.54,84.2,6.6,89.6,15,89.6Zm0-28.08c-5.1-.24-6.66-4.26-6.66-9.48,0-5.58,2.04-8.58,6.66-8.58,4.56,0,6.54,3,6.54,8.58C21.54,57.26,19.98,61.28,15,61.52Zm0,24.54c-4.8,0-7.2-3.18-7.2-10.08,0-5.94,1.86-10.02,7.2-10.44,5.22.42,7.08,4.56,7.08,10.44C22.08,82.88,19.74,86.06,15,86.06Z" transform="translate(20827 -7565)" fill="#fff"/>
        <path id="_4_9" data-name="4 9" d="M17.64,0h4.32V-14.22h5.58v-3.96H21.96V-48.6H16.8L3-18.66v4.44H17.64ZM7.44-18.18l10.2-24.6v24.6ZM15.12,89.6c8.22,0,11.04-6.24,11.04-15.12V55.1c0-9.42-3.24-15.18-11.16-15.18-8.34,0-11.58,5.88-11.58,14.76,0,10.14,2.52,14.52,10.5,14.52,4.02,0,6.6-1.5,7.8-2.88V75.5c0,7.86-2.46,10.44-6.54,10.44-5.16,0-6.84-2.4-6.84-8.58H4.02v.84C4.08,85.76,7.74,89.6,15.12,89.6Zm-.18-23.82c-6.36,0-7.02-3.96-7.02-11.94,0-7.02,2.28-10.26,7.08-10.26,4.68,0,6.72,3.18,6.72,11.04v8.34A8.976,8.976,0,0,1,14.94,65.78Z" transform="translate(20991 -7565)" fill="#fff"/>
        <path id="_5_0" data-name="5 0" d="M14.46.54C22.68.54,25.74-5.4,25.74-15.9c0-9.36-2.7-14.94-9.9-14.94A9.1,9.1,0,0,0,8.4-27.6l.24-16.86H23.58l.06-4.14H4.74v25.2H8.4c1.62-2.7,3.78-4.02,6.3-4.02,4.92,0,6.66,3.24,6.66,12.06C21.36-7.26,20.16-3,14.64-3c-5.1,0-6.6-3.6-6.6-9.54H3.66C3.66-4.08,6.66.54,14.46.54ZM15.48,89.6c8.76,0,11.64-5.94,11.64-14.34V54.14c0-8.4-3.06-14.22-11.64-14.22-8.52,0-11.52,5.82-11.52,14.22V75.26C3.96,83.6,6.84,89.6,15.48,89.6Zm0-3.48c-5.46,0-7.08-4.68-7.08-10.5V53.84c0-5.88,1.5-10.44,7.08-10.44,5.64,0,7.14,4.56,7.14,10.44V75.62C22.62,81.44,21.06,86.12,15.48,86.12Z" transform="translate(21156 -7565)" fill="#fff"/>
      </g>
    </g>
  </g>
</svg>
