<svg xmlns="http://www.w3.org/2000/svg" xmlns:xlink="http://www.w3.org/1999/xlink" width="1680" height="1353" viewBox="0 0 1680 1353">
  <defs>
    <clipPath id="clip-playfairdisplay_characterset">
      <rect width="1680" height="1353"/>
    </clipPath>
  </defs>
  <g id="playfairdisplay_characterset" clip-path="url(#clip-playfairdisplay_characterset)">
    <path id="Path_426" data-name="Path 426" d="M0,0H1688V1357.944H0Z" fill="none"/>
    <path id="Path_487" data-name="Path 487" d="M42.525,74.7q1.8,4.65,5.175,4.8V81q-3-.225-8.025-.225-6.45,0-9.6.225V79.5a12.268,12.268,0,0,0,4.088-.713A2.065,2.065,0,0,0,35.4,76.725a10.3,10.3,0,0,0-.9-3.525L29.925,60.9H11.775L8.7,68.85A19.629,19.629,0,0,0,7.2,75a3.729,3.729,0,0,0,1.612,3.375A9.55,9.55,0,0,0,13.725,79.5V81Q9.45,80.775,5.1,80.775q-3.375,0-5.625.225V79.5q3.75-.9,5.925-6.525l17.625-45.45h1.2Zm-13.2-15.3-8.4-22.425L12.375,59.4Zm-5.7,68.5q13.275,0,19.875,6.638t6.6,19.313a30.415,30.415,0,0,1-3.225,14.325,22.485,22.485,0,0,1-9.337,9.488A30.013,30.013,0,0,1,22.95,181l-4.35-.075q-4.2-.15-6.15-.15-6.15,0-9.3.225v-1.5a14.939,14.939,0,0,0,3.937-.6,2.7,2.7,0,0,0,1.688-1.725,13.544,13.544,0,0,0,.45-4.125v-37.2a13.544,13.544,0,0,0-.45-4.125A2.7,2.7,0,0,0,7.087,130a14.94,14.94,0,0,0-3.937-.6v-1.5q2.625.225,7.275.225l6.375-.075Q21.9,127.9,23.625,127.9Zm-1.875,1.35a8.868,8.868,0,0,0-3.488.525,2.968,2.968,0,0,0-1.612,1.875,13.651,13.651,0,0,0-.45,4.05v37.5a13.651,13.651,0,0,0,.45,4.05,2.968,2.968,0,0,0,1.612,1.875,9.122,9.122,0,0,0,3.563.525q7.95,0,12.525-2.887a15.282,15.282,0,0,0,6.413-8.437A45.9,45.9,0,0,0,42.6,154.15q0-8.625-2.025-14.062a15.321,15.321,0,0,0-6.562-8.137Q29.475,129.25,21.75,129.25Zm6.45,97.6a18.383,18.383,0,0,1,7.275,1.237,35.089,35.089,0,0,1,6.225,3.638,2.914,2.914,0,0,0,1.5.75q1.425,0,1.875-4.575H46.8q-.3,4.875-.3,17.25H44.775a60.759,60.759,0,0,0-1.425-6.562,12.8,12.8,0,0,0-2.325-4.537,15.106,15.106,0,0,0-5.662-4.275A17.57,17.57,0,0,0,28.05,228.2a12.94,12.94,0,0,0-8.7,3.225,20.467,20.467,0,0,0-5.775,9.188,43.289,43.289,0,0,0-2.025,13.912q0,13.5,4.313,19.763T29.4,280.55a13.194,13.194,0,0,0,7.8-2.325,4.87,4.87,0,0,0,1.763-1.763,5.564,5.564,0,0,0,.412-2.362v-7.2a12.7,12.7,0,0,0-.6-4.575,3.387,3.387,0,0,0-2.1-1.95A18.7,18.7,0,0,0,31.8,259.7v-1.5q3.9.225,10.575.225,5.1,0,7.8-.225v1.5a6.441,6.441,0,0,0-2.513.6,2.41,2.41,0,0,0-1.05,1.725,22.811,22.811,0,0,0-.263,4.125V281h-1.5a9.441,9.441,0,0,0-.6-2.888q-.525-1.387-1.425-1.387a2,2,0,0,0-.9.225A13.566,13.566,0,0,0,40.35,278a20,20,0,0,1-5.437,3.038,18.385,18.385,0,0,1-6.262,1.012,26.015,26.015,0,0,1-13.237-3.187,20.9,20.9,0,0,1-8.438-9.187A32.4,32.4,0,0,1,4.05,255.35a34.384,34.384,0,0,1,3.112-15.038,23.565,23.565,0,0,1,8.587-9.975A22.675,22.675,0,0,1,28.2,226.85ZM-1.5,393.675q5.25-.15,7.762-3.9T8.775,377.1V335.85a13.544,13.544,0,0,0-.45-4.125A2.7,2.7,0,0,0,6.637,330a14.939,14.939,0,0,0-3.937-.6v-1.5q3.15.225,9.45.225,6.15,0,9.675-.225v1.5a14.939,14.939,0,0,0-3.937.6,2.7,2.7,0,0,0-1.687,1.725,13.544,13.544,0,0,0-.45,4.125V363.3q0,6.375-.225,11.288a44.019,44.019,0,0,1-1.05,8.288,15.975,15.975,0,0,1-5.513,8.85A16.075,16.075,0,0,1-1.5,395.1ZM62.175,429.4a14.939,14.939,0,0,0-3.937.6,2.7,2.7,0,0,0-1.687,1.725,13.545,13.545,0,0,0-.45,4.125v37.2a13.545,13.545,0,0,0,.45,4.125,2.7,2.7,0,0,0,1.688,1.725,14.939,14.939,0,0,0,3.938.6V481q-3.45-.225-9.525-.225-6.45,0-9.6.225v-1.5a14.939,14.939,0,0,0,3.938-.6,2.7,2.7,0,0,0,1.688-1.725,13.545,13.545,0,0,0,.45-4.125v-40.2L31.05,481.375h-1.2L10.95,432.7v39.6a14.394,14.394,0,0,0,.488,4.35,3.387,3.387,0,0,0,1.913,2.063,13.106,13.106,0,0,0,4.425.788V481q-2.7-.225-7.65-.225-4.5,0-6.975.225v-1.5a10.468,10.468,0,0,0,3.9-.788,3.324,3.324,0,0,0,1.725-2.1,15.592,15.592,0,0,0,.45-4.312V435.85a13.544,13.544,0,0,0-.45-4.125A2.7,2.7,0,0,0,7.087,430a14.939,14.939,0,0,0-3.937-.6v-1.5q2.475.225,6.975.225,3.9,0,6.375-.225L33,471.325l16.125-43.2H52.65q6.075,0,9.525-.225ZM16.2,559.55v13.5a10.368,10.368,0,0,0,.6,4.125,3.2,3.2,0,0,0,2.1,1.725,22.183,22.183,0,0,0,4.875.6V581q-3.9-.225-11.025-.225-6.45,0-9.6.225v-1.5a14.942,14.942,0,0,0,3.937-.6,2.7,2.7,0,0,0,1.688-1.725,13.544,13.544,0,0,0,.45-4.125v-37.2a13.545,13.545,0,0,0-.45-4.125A2.7,2.7,0,0,0,7.087,530a14.94,14.94,0,0,0-3.937-.6v-1.5q3.15.225,9.15.225l8.1-.075q1.425-.075,3.225-.075,8.775,0,13.425,4.013A13.5,13.5,0,0,1,41.7,542.75a17.911,17.911,0,0,1-1.838,7.912A14.987,14.987,0,0,1,33.638,557q-4.388,2.55-11.663,2.55Zm5.55-30.15a8.868,8.868,0,0,0-3.488.525A2.968,2.968,0,0,0,16.65,531.8a13.651,13.651,0,0,0-.45,4.05v22.2h5.025q7.35,0,10.163-3.937T34.2,543.575q0-7.275-2.888-10.725T21.75,529.4ZM19.2,627.075a15.37,15.37,0,0,1,5.212.712,19.305,19.305,0,0,1,3.937,2.063,5.423,5.423,0,0,0,2.55,1.05,1.158,1.158,0,0,0,1.05-.788,8.958,8.958,0,0,0,.6-2.513h1.725q-.375,4.35-.375,15.3H32.175a19.421,19.421,0,0,0-3.487-10.238,10.234,10.234,0,0,0-8.813-4.162,9.158,9.158,0,0,0-6.6,2.438,8.281,8.281,0,0,0-2.55,6.263,9.146,9.146,0,0,0,1.313,4.95,13.067,13.067,0,0,0,3.337,3.6q2.025,1.5,5.775,3.825l2.175,1.35a75.082,75.082,0,0,1,7.462,5.138,18.257,18.257,0,0,1,4.388,5.063,13.086,13.086,0,0,1,1.65,6.675q0,6.825-4.5,10.538a17.318,17.318,0,0,1-11.4,3.712,19.274,19.274,0,0,1-5.888-.75,21.1,21.1,0,0,1-4.387-2.025,5.423,5.423,0,0,0-2.55-1.05,1.158,1.158,0,0,0-1.05.788,8.958,8.958,0,0,0-.6,2.513H4.725q.3-4.125.3-18H6.75q.525,7.575,3.75,12.3t9.9,4.725a10.072,10.072,0,0,0,6.9-2.513q2.85-2.512,2.85-7.462a9.9,9.9,0,0,0-2.813-7.125,44.925,44.925,0,0,0-8.887-6.6,83.478,83.478,0,0,1-7.163-4.8,17.288,17.288,0,0,1-4.463-5.062A13.539,13.539,0,0,1,5.1,640.05q0-6.3,4.05-9.638A15.279,15.279,0,0,1,19.2,627.075Zm22.95,101.05q3.375,0,5.625-.225v1.5q-3.75.9-5.925,6.525l-17.625,45.45h-1.2L4.725,734.2q-1.8-4.65-5.175-4.8v-1.5q3,.225,8.025.225,6.45,0,9.6-.225v1.5a12.267,12.267,0,0,0-4.087.712,2.065,2.065,0,0,0-1.238,2.063,10.3,10.3,0,0,0,.9,3.525l13.575,36.075L38.55,740.05a19.629,19.629,0,0,0,1.5-6.15,3.729,3.729,0,0,0-1.612-3.375,9.55,9.55,0,0,0-4.912-1.125v-1.5Q37.8,728.125,42.15,728.125Zm-3.675,100q3.375,0,5.625-.225v1.5a6.11,6.11,0,0,0-2.925,1.912,21.807,21.807,0,0,0-3.075,4.763L26.325,859.4v13.65a13.544,13.544,0,0,0,.45,4.125,2.7,2.7,0,0,0,1.688,1.725,14.942,14.942,0,0,0,3.938.6V881q-3.45-.225-9.525-.225-6.45,0-9.6.225v-1.5a14.942,14.942,0,0,0,3.938-.6,2.7,2.7,0,0,0,1.688-1.725,13.544,13.544,0,0,0,.45-4.125V861.8L4.125,833.675a12.394,12.394,0,0,0-2.363-3.337,3.1,3.1,0,0,0-1.987-.863V827.9q2.925.225,6.6.225,7.275,0,10.5-.225v1.575q-5.25,0-5.25,2.85a6.043,6.043,0,0,0,.75,2.625l12.45,23.925,9.6-19.05a15.256,15.256,0,0,0,2.025-6.45,3.145,3.145,0,0,0-1.65-3,11.19,11.19,0,0,0-4.95-.975v-1.5Q34.125,828.125,38.475,828.125Z" transform="translate(93 260)" fill="#0cb1f2"/>
    <path id="Path_491" data-name="Path 491" d="M12.225,81.525q-4.725,0-7.013-2.363A9.04,9.04,0,0,1,2.925,72.6a8.3,8.3,0,0,1,1.838-5.55,13.845,13.845,0,0,1,4.35-3.45,54.2,54.2,0,0,1,6.637-2.7,35.008,35.008,0,0,0,6.225-2.625A3.629,3.629,0,0,0,24,55.05V50.4q0-4.35-1.837-5.963a7.533,7.533,0,0,0-5.138-1.612q-5.25,0-7.425,2.7A4.709,4.709,0,0,1,12.113,47.1a4.492,4.492,0,0,1,1.012,3,3.8,3.8,0,0,1-1.2,2.963A4.4,4.4,0,0,1,8.85,54.15,3.791,3.791,0,0,1,5.7,52.838,4.942,4.942,0,0,1,4.65,49.65a5.009,5.009,0,0,1,.862-3A10.607,10.607,0,0,1,8.1,44.25a15.561,15.561,0,0,1,4.575-2.1,21.248,21.248,0,0,1,6.075-.825q5.85,0,8.85,2.775a8.457,8.457,0,0,1,2.512,4.163,26.159,26.159,0,0,1,.638,6.412v20.85a5.228,5.228,0,0,0,.525,2.7,1.966,1.966,0,0,0,1.8.825,3.584,3.584,0,0,0,1.688-.413,9.786,9.786,0,0,0,1.688-1.162l.825,1.275a18.363,18.363,0,0,1-3.338,2.137,8.36,8.36,0,0,1-3.488.638q-3.6,0-5.025-1.8A7.644,7.644,0,0,1,24,74.85a13.088,13.088,0,0,1-5.175,5.213A14.555,14.555,0,0,1,12.225,81.525Zm3.3-3q4.95,0,8.475-5.7v-14.7a5.216,5.216,0,0,1-1.875,1.725q-1.2.675-3.675,1.8a34.366,34.366,0,0,0-4.613,2.287A10.063,10.063,0,0,0,10.8,66.9a8.362,8.362,0,0,0-1.275,4.8,7.111,7.111,0,0,0,1.65,5.1A5.743,5.743,0,0,0,15.525,78.525Zm20.775,94.3q0,3.45,1.275,5.025T42,179.425V181q-2.325-.225-4.65-.225a24.5,24.5,0,0,0-7.8,1.05V175.15a10.642,10.642,0,0,1-4.05,5.138,11.817,11.817,0,0,1-6.6,1.762,13.588,13.588,0,0,1-11.287-5.175Q3.525,171.7,3.6,161.725a24.855,24.855,0,0,1,2.288-11.138,16.258,16.258,0,0,1,6.15-6.937,16.2,16.2,0,0,1,8.512-2.325,12.316,12.316,0,0,1,5.212,1.088,8.726,8.726,0,0,1,3.788,3.337V131.2q0-3.45-1.275-5.025T23.85,124.6v-1.575q2.4.225,4.65.225a24.5,24.5,0,0,0,7.8-1.05ZM21.075,179.8a7.361,7.361,0,0,0,5.25-2.25,12.255,12.255,0,0,0,3.225-6.375v-22.35q-2.025-5.775-8.4-5.775-4.65,0-7.5,4.762t-2.775,13.913q-.075,9,2.55,13.537A8.355,8.355,0,0,0,21.075,179.8Zm14.25,69.325a3.18,3.18,0,0,1-2.288-.9A3.472,3.472,0,0,1,32.1,245.6a9.79,9.79,0,0,1,.75-3.45,10.978,10.978,0,0,0-3.075,1.838A10.868,10.868,0,0,0,27.75,246.5a11.927,11.927,0,0,1,1.725,6.675q0,5.925-3.6,8.887t-9.525,2.962h-.075a20.553,20.553,0,0,0-3.75,2.625,3.633,3.633,0,0,0-1.275,2.7q0,2.4,3.6,2.4h9.375a14.967,14.967,0,0,1,8.437,2.212A7.432,7.432,0,0,1,36,281.6a10.84,10.84,0,0,1-2.325,6.675,16.029,16.029,0,0,1-6.825,4.95A28.246,28.246,0,0,1,15.975,295.1a26.44,26.44,0,0,1-10.913-1.988Q.675,291.125.675,287.225A5.8,5.8,0,0,1,2.737,282.8a14.222,14.222,0,0,1,5.737-2.925l.45,1.2a4.7,4.7,0,0,0-2.625,2.1,6.562,6.562,0,0,0-.975,3.525,5.814,5.814,0,0,0,3.112,5.287,16.394,16.394,0,0,0,8.363,1.838,20.679,20.679,0,0,0,9.9-2.213,7.289,7.289,0,0,0,4.125-6.862,5.034,5.034,0,0,0-1.913-4.2q-1.912-1.5-6.788-1.5h-5.55a18.516,18.516,0,0,1-7.088-1.125q-2.662-1.125-2.662-4.5A6.964,6.964,0,0,1,8.512,269a17.451,17.451,0,0,1,5.587-4.125,12.787,12.787,0,0,1-7.912-3.45q-2.963-2.925-2.963-8.25,0-5.925,3.6-8.887t9.525-2.963q7.05,0,10.425,3.9a11.8,11.8,0,0,1,3.6-3.338,8.358,8.358,0,0,1,4.35-1.312,4.419,4.419,0,0,1,3.15,1.125,4.206,4.206,0,0,1,1.2,3.225,4.032,4.032,0,0,1-1.162,3.15A3.77,3.77,0,0,1,35.325,249.125ZM16.35,263.675a5.067,5.067,0,0,0,4.537-2.362q1.537-2.362,1.538-8.137t-1.538-8.137a5.067,5.067,0,0,0-4.537-2.363,5.067,5.067,0,0,0-4.538,2.363q-1.538,2.362-1.538,8.137t1.538,8.137A5.067,5.067,0,0,0,16.35,263.675Zm-18.3,130.3A8.206,8.206,0,0,0,4.988,390q2.362-3.75,2.362-10.425V350.55q0-3.45-1.275-5.025T1.65,343.95v-1.575q2.325.225,4.65.225a24.5,24.5,0,0,0,7.8-1.05v30.825q0,12.45-5.4,18.15a15.3,15.3,0,0,1-4.763,3.337A14.125,14.125,0,0,1-1.95,395.1Zm12-70.35a4.613,4.613,0,0,1,3.375,1.425,4.709,4.709,0,0,1,0,6.75,4.709,4.709,0,0,1-6.75,0,4.709,4.709,0,0,1,0-6.75A4.613,4.613,0,0,1,10.05,323.625Zm49.725,150.4q0,3.075,1.275,4.238t4.425,1.162V481q-6.9-.3-9-.3t-8.4.3v-1.575q2.775,0,3.863-1.162t1.088-4.238V452.35a25.426,25.426,0,0,0-.338-4.613,5.073,5.073,0,0,0-1.575-2.887,5.486,5.486,0,0,0-3.788-1.125,8.249,8.249,0,0,0-5.175,1.8,11.9,11.9,0,0,0-3.638,4.913A17.488,17.488,0,0,0,37.2,457.3v16.725q0,3.075,1.275,4.238t4.425,1.162V481q-6.9-.3-9-.3t-8.4.3v-1.575q2.775,0,3.862-1.162t1.087-4.238V452.35a25.427,25.427,0,0,0-.337-4.613,5.073,5.073,0,0,0-1.575-2.887,5.486,5.486,0,0,0-3.787-1.125,8.249,8.249,0,0,0-5.175,1.8,11.864,11.864,0,0,0-3.638,4.95,17.765,17.765,0,0,0-1.313,6.9v16.65q0,3.075,1.088,4.238t3.863,1.162V481q-6.3-.3-8.4-.3t-9,.3v-1.575q3.15,0,4.425-1.162t1.275-4.238V450.55q0-3.45-1.275-5.025T2.175,443.95v-1.575q2.4.225,4.65.225a24.5,24.5,0,0,0,7.8-1.05v8.85a14.034,14.034,0,0,1,5.1-6.862,12.667,12.667,0,0,1,7.2-2.212q5.1,0,7.8,2.85a10.06,10.06,0,0,1,2.325,6,12.735,12.735,0,0,1,12.45-8.85q5.1,0,7.8,2.85A8.637,8.637,0,0,1,59.213,448a26.252,26.252,0,0,1,.562,6ZM26.1,541.325a12.416,12.416,0,0,1,7.163,2.175,14.26,14.26,0,0,1,4.987,6.375,25.425,25.425,0,0,1,1.8,10.05,31.206,31.206,0,0,1-1.837,10.8,18.5,18.5,0,0,1-5.7,8.175,14.751,14.751,0,0,1-9.638,3.15,11.725,11.725,0,0,1-5.175-1.125A9.2,9.2,0,0,1,14.1,578v9.6q0,3.075,1.8,4.238A10.075,10.075,0,0,0,21.3,593v1.575l-1.725-.075q-6.975-.225-9.075-.225-1.8,0-8.1.3V593q2.775,0,3.862-1.013T7.35,588.35v-37.8q0-3.45-1.275-5.025T1.65,543.95v-1.575q2.325.225,4.65.225a24.5,24.5,0,0,0,7.8-1.05v7.95a13.371,13.371,0,0,1,4.8-6.037A12.52,12.52,0,0,1,26.1,541.325Zm-4.05,39q10.725,0,10.725-19.35,0-17.4-8.7-17.4A8.834,8.834,0,0,0,18,546.013a13.928,13.928,0,0,0-3.9,7.013v22.5a8.466,8.466,0,0,0,3.075,3.487A8.769,8.769,0,0,0,22.05,580.325Zm-6.45,61a13.053,13.053,0,0,1,4.8.825,11.322,11.322,0,0,1,3.375,1.95,2.537,2.537,0,0,0,1.35.6q1.35,0,1.65-3.3H28.5q-.3,3.675-.3,12.75H26.475a18.888,18.888,0,0,0-3.187-8.175,8.137,8.137,0,0,0-7.013-3.225,6.4,6.4,0,0,0-4.425,1.537,5.385,5.385,0,0,0-1.725,4.238,5.891,5.891,0,0,0,1.8,4.387A35.282,35.282,0,0,0,17.7,657.15q.675.375,2.025,1.275a64.216,64.216,0,0,1,5.55,3.975,14.722,14.722,0,0,1,3.412,3.975A10.08,10.08,0,0,1,30,671.55a9.1,9.1,0,0,1-3.713,7.725,14.789,14.789,0,0,1-9.112,2.775A15.476,15.476,0,0,1,11.25,681a15.567,15.567,0,0,1-3.075-2.025.933.933,0,0,0-.675-.3q-.525,0-.937.75a6.759,6.759,0,0,0-.637,2.1H4.2q.3-4.275.3-15H6.225q.825,7.05,3,10.537t7.425,3.487a6.964,6.964,0,0,0,4.65-1.725q2.025-1.725,2.025-5.4a6.8,6.8,0,0,0-1.987-4.95A37.937,37.937,0,0,0,14.85,663.6q-3.675-2.325-5.663-3.825A13.426,13.426,0,0,1,5.85,656.1,9.472,9.472,0,0,1,4.5,651a8.608,8.608,0,0,1,3.15-7.2A12.475,12.475,0,0,1,15.6,641.325ZM30.75,742.6q3.3,0,5.7-.225v1.5a4.224,4.224,0,0,0-2.662,1.35,11.872,11.872,0,0,0-2.213,3.9l-12.3,32.25H18L4.2,748.15a9.048,9.048,0,0,0-2.175-3.375A3.483,3.483,0,0,0-.15,743.95v-1.575q3.9.3,6.6.3,5.775,0,9.75-.3v1.575a14.344,14.344,0,0,0-4.05.412,1.961,1.961,0,0,0-1.275,2.138,10.971,10.971,0,0,0,.825,3.3l9.225,22.8,8.25-21.675A11.075,11.075,0,0,0,30,747.4a2.711,2.711,0,0,0-1.312-2.513,10.136,10.136,0,0,0-4.237-1.013v-1.5Q28.35,742.6,30.75,742.6Zm.6,100q3.3,0,5.7-.225v1.5a4.224,4.224,0,0,0-2.662,1.35,11.872,11.872,0,0,0-2.213,3.9l-12.3,32.25-2.55,6.525a13.339,13.339,0,0,1-3.225,5.25,6.511,6.511,0,0,1-2.7,1.5,11.419,11.419,0,0,1-3.15.45,5.51,5.51,0,0,1-3.675-1.2,4.084,4.084,0,0,1-1.425-3.3,3.981,3.981,0,0,1,1.05-2.887,3.876,3.876,0,0,1,2.925-1.088,4.043,4.043,0,0,1,2.738.938,3.236,3.236,0,0,1,1.087,2.588,3.635,3.635,0,0,1-2.025,3.375,1.045,1.045,0,0,0,.45.075q4.125,0,6.375-5.85l2.625-6.825L4.8,848.15a8.512,8.512,0,0,0-2.55-3.375A4.664,4.664,0,0,0-.3,843.95v-1.575a53.655,53.655,0,0,0,7.35.45q3.75,0,9.75-.45v1.575a12.489,12.489,0,0,0-3.938.45,2.034,2.034,0,0,0-1.238,2.175,9.561,9.561,0,0,0,.9,3.675l9,22.35,8.325-21.675a11.016,11.016,0,0,0,.825-3.45,2.779,2.779,0,0,0-1.35-2.55,9.985,9.985,0,0,0-4.275-1.05v-1.5Q29.025,842.6,31.35,842.6Z" transform="translate(1016 260)" fill="#0cb1f2"/>
    <path id="Path_488" data-name="Path 488" d="M28.05,52.95q8.25,1.125,11.775,4.763A12.108,12.108,0,0,1,43.35,66.45a13.451,13.451,0,0,1-2.175,7.575,14.308,14.308,0,0,1-6.225,5.137A23.078,23.078,0,0,1,25.35,81q-2.025,0-3.45-.075-4.8-.15-9.45-.15-6.15,0-9.3.225V79.5a14.94,14.94,0,0,0,3.937-.6,2.7,2.7,0,0,0,1.688-1.725,13.544,13.544,0,0,0,.45-4.125V35.85a13.544,13.544,0,0,0-.45-4.125A2.7,2.7,0,0,0,7.087,30a14.94,14.94,0,0,0-3.937-.6V27.9q3.15.225,9.15.225l8.1-.075q1.425-.075,3.225-.075,7.65,0,11.737,3.225a10.35,10.35,0,0,1,4.088,8.55,12.219,12.219,0,0,1-2.738,7.8Q33.975,51,28.05,52.8ZM21.75,29.4a8.868,8.868,0,0,0-3.488.525A2.968,2.968,0,0,0,16.65,31.8a13.651,13.651,0,0,0-.45,4.05V52.8h5.025q6.15,0,8.588-3.338t2.438-8.888q0-5.625-2.475-8.4T21.75,29.4Zm.075,49.875q14.025,0,14.025-13.125,0-5.925-3.187-9T22.5,54.075H16.2V73.05a12.869,12.869,0,0,0,.45,3.975,2.83,2.83,0,0,0,1.612,1.762A9.761,9.761,0,0,0,21.825,79.275ZM41.55,171.4q0,4.275.525,9.6-5.1-.225-17.175-.225-14.4,0-21.75.225v-1.5a14.939,14.939,0,0,0,3.937-.6,2.7,2.7,0,0,0,1.688-1.725,13.544,13.544,0,0,0,.45-4.125v-37.2a13.544,13.544,0,0,0-.45-4.125A2.7,2.7,0,0,0,7.087,130a14.94,14.94,0,0,0-3.937-.6v-1.5q7.35.225,21.75.225,11.025,0,15.675-.225a84.824,84.824,0,0,0-.525,8.85,37.74,37.74,0,0,0,.225,4.65H38.55a35,35,0,0,0-1.35-7.237,6.053,6.053,0,0,0-2.775-3.45,12.549,12.549,0,0,0-5.925-1.087H22.275a13.561,13.561,0,0,0-3.937.413,2.586,2.586,0,0,0-1.687,1.688,13.544,13.544,0,0,0-.45,4.125v17.7h4.95a5.99,5.99,0,0,0,4.05-1.238,6.05,6.05,0,0,0,1.913-2.925,26.966,26.966,0,0,0,.788-4.238l.225-1.5H29.85q-.225,3.15-.225,7.05v3.6q0,3.825.45,10.65H28.35q-.075-.525-.45-3.637a7.381,7.381,0,0,0-2.063-4.687,6.6,6.6,0,0,0-4.687-1.575H16.2v18a13.544,13.544,0,0,0,.45,4.125,2.586,2.586,0,0,0,1.688,1.688,13.562,13.562,0,0,0,3.938.412H27.75a16.086,16.086,0,0,0,7.088-1.237,7.444,7.444,0,0,0,3.563-3.975A30.087,30.087,0,0,0,40.05,166h1.725A51.214,51.214,0,0,0,41.55,171.4Zm12.075,58a14.94,14.94,0,0,0-3.937.6A2.7,2.7,0,0,0,48,231.725a13.544,13.544,0,0,0-.45,4.125v37.2a13.544,13.544,0,0,0,.45,4.125,2.7,2.7,0,0,0,1.688,1.725,14.939,14.939,0,0,0,3.937.6V281q-3.15-.225-9.6-.225-6.075,0-9.525.225v-1.5a14.939,14.939,0,0,0,3.938-.6,2.7,2.7,0,0,0,1.688-1.725,13.545,13.545,0,0,0,.45-4.125v-18H16.2v18a13.544,13.544,0,0,0,.45,4.125,2.7,2.7,0,0,0,1.688,1.725,14.939,14.939,0,0,0,3.938.6V281q-3.45-.225-9.525-.225-6.45,0-9.6.225v-1.5a14.939,14.939,0,0,0,3.937-.6,2.7,2.7,0,0,0,1.688-1.725,13.544,13.544,0,0,0,.45-4.125v-37.2a13.544,13.544,0,0,0-.45-4.125A2.7,2.7,0,0,0,7.087,230a14.94,14.94,0,0,0-3.937-.6v-1.5q3.15.225,9.6.225,6,0,9.525-.225v1.5a14.94,14.94,0,0,0-3.937.6,2.7,2.7,0,0,0-1.687,1.725,13.544,13.544,0,0,0-.45,4.125v17.7H40.575v-17.7a13.544,13.544,0,0,0-.45-4.125A2.7,2.7,0,0,0,38.438,230a14.94,14.94,0,0,0-3.937-.6v-1.5q3.45.225,9.525.225,6.45,0,9.6-.225ZM42.45,374.925a11.455,11.455,0,0,0,2.813,2.963A10.706,10.706,0,0,0,49.05,379.5V381q-3.6-.225-9-.225-4.05,0-7.725.225v-1.5a7.539,7.539,0,0,0,2.625-.45,1.2,1.2,0,0,0,.825-1.125,3.3,3.3,0,0,0-.75-1.8l-10.95-16.5a16.068,16.068,0,0,0-3.675-4.312,8.3,8.3,0,0,0-4.2-1.163v18.9a13.544,13.544,0,0,0,.45,4.125,2.7,2.7,0,0,0,1.688,1.725,14.939,14.939,0,0,0,3.938.6V381q-3.45-.225-9.525-.225-6.45,0-9.6.225v-1.5a14.939,14.939,0,0,0,3.937-.6,2.7,2.7,0,0,0,1.688-1.725,13.544,13.544,0,0,0,.45-4.125v-37.2a13.544,13.544,0,0,0-.45-4.125A2.7,2.7,0,0,0,7.087,330a14.939,14.939,0,0,0-3.937-.6v-1.5q3.15.225,9.6.225,6,0,9.525-.225v1.5a14.939,14.939,0,0,0-3.937.6,2.7,2.7,0,0,0-1.687,1.725,13.544,13.544,0,0,0-.45,4.125v16.8a10.8,10.8,0,0,0,8.55-4.2l7.2-9.15q3.825-4.725,3.825-7.2,0-2.625-4.65-2.7v-1.5q4.275.225,8.625.225,4.125,0,6.375-.225v1.5a13.377,13.377,0,0,0-4.65,1.613,14.564,14.564,0,0,0-4.2,3.862L25.05,350.55Zm7.8,54.475a10.468,10.468,0,0,0-3.9.788,3.324,3.324,0,0,0-1.725,2.1,15.592,15.592,0,0,0-.45,4.313v44.775H42.45L10.95,432.7v39.6a14.394,14.394,0,0,0,.488,4.35,3.387,3.387,0,0,0,1.913,2.063,13.106,13.106,0,0,0,4.425.788V481q-2.7-.225-7.65-.225-4.5,0-6.975.225v-1.5a10.468,10.468,0,0,0,3.9-.788,3.324,3.324,0,0,0,1.725-2.1,15.592,15.592,0,0,0,.45-4.312V435.85a13.544,13.544,0,0,0-.45-4.125A2.7,2.7,0,0,0,7.087,430a14.939,14.939,0,0,0-3.937-.6v-1.5q2.475.225,6.975.225,3.375,0,5.85-.225L42.45,468.7V436.6a14.394,14.394,0,0,0-.487-4.35,3.387,3.387,0,0,0-1.912-2.062,13.106,13.106,0,0,0-4.425-.788v-1.5q2.7.225,7.65.225,4.5,0,6.975-.225Zm6.975,153.775q-1.65,5.7-4.725,8.55Q48.825,595.1,42.375,595.1a22.132,22.132,0,0,1-6.75-1.05,82.53,82.53,0,0,1-8.325-3.3q-5.55-2.4-9.075-3.6l-1.8-.525A18.864,18.864,0,0,1,10.2,587.75q-3.45,0-3.45-1.5,0-1.575,4.05-1.575a28.759,28.759,0,0,1,5.625.6,40.165,40.165,0,0,0,5.55-2.1q1.95-.9,2.925-1.275a22.094,22.094,0,0,1-11.062-3.975,22.035,22.035,0,0,1-7.275-9.263A33.964,33.964,0,0,1,3.975,554.9a33.614,33.614,0,0,1,3.038-14.625,23.545,23.545,0,0,1,8.475-9.9,22.181,22.181,0,0,1,12.337-3.525,23.759,23.759,0,0,1,12.488,3.225,21.528,21.528,0,0,1,8.325,9.337A33.155,33.155,0,0,1,51.6,554a34.107,34.107,0,0,1-2.7,13.912,23.944,23.944,0,0,1-7.575,9.75A21.764,21.764,0,0,1,30.15,581.9v.075a17.884,17.884,0,0,0-3.113.638q-1.312.413-3.487,1.313a37.261,37.261,0,0,1-4.5,1.725q8.325,1.65,14.137,2.625a60.333,60.333,0,0,0,9.637.975,19.272,19.272,0,0,0,8.438-1.537,10.654,10.654,0,0,0,4.838-4.988ZM11.475,554.6a39.123,39.123,0,0,0,2.213,13.725,21.846,21.846,0,0,0,5.962,9.15,12.557,12.557,0,0,0,8.4,3.225,12.1,12.1,0,0,0,8.437-3.338,21.576,21.576,0,0,0,5.625-9.337A43.594,43.594,0,0,0,44.1,554.3a39.122,39.122,0,0,0-2.212-13.725,21.847,21.847,0,0,0-5.963-9.15,12.558,12.558,0,0,0-8.4-3.225,12.1,12.1,0,0,0-8.438,3.337,21.577,21.577,0,0,0-5.625,9.338A43.594,43.594,0,0,0,11.475,554.6ZM44.4,627.9q-.525,5.325-.525,9.6,0,3.75.225,6.15H42.375a46.016,46.016,0,0,0-1.5-8.588,7.031,7.031,0,0,0-3.15-4.125q-2.25-1.312-6.9-1.312h-4.05V672.3a12.7,12.7,0,0,0,.6,4.575,3.387,3.387,0,0,0,2.1,1.95,18.7,18.7,0,0,0,4.875.675V681q-3.9-.225-11.025-.225-7.5,0-11.1.225v-1.5a18.7,18.7,0,0,0,4.875-.675,3.387,3.387,0,0,0,2.1-1.95,12.7,12.7,0,0,0,.6-4.575V629.625H15.75q-4.65,0-6.9,1.313a7.031,7.031,0,0,0-3.15,4.125,46.016,46.016,0,0,0-1.5,8.588H2.475q.225-2.4.225-6.15,0-4.275-.525-9.6,6.225.225,21.15.225Q38.175,628.125,44.4,627.9Zm18,100.225q3.375,0,5.625-.225v1.5q-4.2.975-5.925,6.525l-14.175,45.45h-1.2L33.675,742.75,21.75,781.375h-1.2L4.65,734.2q-1.575-4.65-5.175-4.8v-1.5q3.075.225,8.025.225,5.4,0,8.1-.225v1.5a5.777,5.777,0,0,0-2.85.75,2.163,2.163,0,0,0-.825,1.875,13.081,13.081,0,0,0,.825,3.675L23.7,769.15l9.15-29.025L30.825,734.2q-1.5-4.65-4.425-4.8v-1.5q2.7.225,7.275.225,6.45,0,9.6-.225v1.5a12.884,12.884,0,0,0-3.975.637,2.007,2.007,0,0,0-1.125,2.063,12.107,12.107,0,0,0,.75,3.6l10.8,33.375L58.95,740.05a20.436,20.436,0,0,0,1.2-6.075,3.9,3.9,0,0,0-1.5-3.487,9.352,9.352,0,0,0-4.875-1.087v-1.5Q58.05,728.125,62.4,728.125ZM41.25,829.4,11.325,879.275h14.7a15.283,15.283,0,0,0,7.087-1.312,7.75,7.75,0,0,0,3.563-4.238,33.625,33.625,0,0,0,1.65-8.475H40.05q-.225,2.325-.225,6.15,0,4.275.525,9.6-5.55-.225-18.675-.225-12.825,0-18.525.225v-1.5L33.3,829.625H18.675a15.283,15.283,0,0,0-7.087,1.313,7.75,7.75,0,0,0-3.562,4.237,33.626,33.626,0,0,0-1.65,8.475H4.65q.225-2.4.225-6.15,0-4.275-.525-9.6,5.55.225,18.675.225,12.75,0,18.225-.225Z" transform="translate(345 260)" fill="#0cb1f2"/>
    <path id="Path_492" data-name="Path 492" d="M24.45,41.325a12.3,12.3,0,0,1,10.313,5.25q3.937,5.25,3.937,15.15a24.962,24.962,0,0,1-2.25,11.1,16.237,16.237,0,0,1-6.038,6.9,15.808,15.808,0,0,1-8.437,2.325,13.315,13.315,0,0,1-5.363-1.125A13.457,13.457,0,0,1,12.075,77.7L6.75,82.2l-1.275-.525A16.2,16.2,0,0,0,6,77.325V31.275q0-3.45-1.275-5.025T.3,24.675V23.1q2.4.225,4.65.225a24.5,24.5,0,0,0,7.8-1.05V49.35a13.279,13.279,0,0,1,4.763-5.925A12.129,12.129,0,0,1,24.45,41.325Zm-3.075,39a8.114,8.114,0,0,0,7.538-4.537q2.512-4.538,2.512-14.063,0-9.15-2.25-13.65t-6.9-4.5A8.315,8.315,0,0,0,16.5,46.013a13.7,13.7,0,0,0-3.75,6.862V76.65a11.679,11.679,0,0,0,3.975,2.737A11.978,11.978,0,0,0,21.375,80.325ZM34.725,172a14.916,14.916,0,0,1-5.062,7.087A13.921,13.921,0,0,1,20.7,182.05a17.047,17.047,0,0,1-9.225-2.437,15.73,15.73,0,0,1-5.962-6.825A23.643,23.643,0,0,1,3.45,162.625,28.088,28.088,0,0,1,5.55,151.3a16.748,16.748,0,0,1,5.925-7.387,15.546,15.546,0,0,1,8.925-2.588q6.75,0,10.387,4.088t3.638,12.412H10.95a45.522,45.522,0,0,0-.225,4.8,21.325,21.325,0,0,0,1.612,8.625,13.769,13.769,0,0,0,4.275,5.663A9.2,9.2,0,0,0,22.2,178.9a11.824,11.824,0,0,0,6.375-1.725,12.914,12.914,0,0,0,4.65-5.775ZM20.1,142.75q-3.525,0-6.075,3.45t-3.15,10.2h16.35a21.522,21.522,0,0,0-1.687-9.75Q23.7,142.75,20.1,142.75ZM13.95,250.325a13.884,13.884,0,0,1,5.212-6.863,13.676,13.676,0,0,1,7.538-2.137q5.25,0,7.95,2.85a8.518,8.518,0,0,1,2.025,3.75,24.5,24.5,0,0,1,.6,6.075v20.025q0,3.075,1.275,4.238t4.425,1.162V281q-6.9-.3-9-.3t-8.4.3v-1.575q2.775,0,3.863-1.162t1.087-4.238V252.35a13.73,13.73,0,0,0-1.2-6.413q-1.2-2.212-4.875-2.212a8.98,8.98,0,0,0-5.437,1.725,11.471,11.471,0,0,0-3.713,4.838,17.455,17.455,0,0,0-1.35,7.012v16.725q0,3.075,1.087,4.238t3.863,1.162V281q-6.3-.3-8.4-.3t-9,.3v-1.575q3.15,0,4.425-1.162T7.2,274.025v-42.75q0-3.45-1.275-5.025T1.5,224.675V223.1q2.4.225,4.65.225a24.5,24.5,0,0,0,7.8-1.05Zm21.525,125.2a16,16,0,0,0,2.55,2.775,5.469,5.469,0,0,0,2.7,1.125V381q-4.5-.3-6.075-.3-2.025,0-8.325.3v-1.575a3.066,3.066,0,0,0,1.687-.412A1.194,1.194,0,0,0,28.65,378a1.7,1.7,0,0,0-.45-1.125l-8.625-12.6a7.8,7.8,0,0,0-2.438-2.512,7.917,7.917,0,0,0-3.187-.788v13.05q0,3.075,1.087,4.238t3.863,1.162V381q-6.3-.3-8.325-.3-2.175,0-9.075.3v-1.575q3.15,0,4.425-1.162T7.2,374.025V331.2q0-3.45-1.275-5.025T1.5,324.6v-1.575q2.4.225,4.65.225a24.505,24.505,0,0,0,7.8-1.05v37.2a12.117,12.117,0,0,0,3.637-1.012,10.531,10.531,0,0,0,2.813-2.062l5.55-5.775q2.4-2.475,2.4-4.125a2.07,2.07,0,0,0-1.538-1.912,10.615,10.615,0,0,0-4.012-.638v-1.5q5.25.3,8.475.3,3.525,0,6.525-.3v1.5a10.432,10.432,0,0,0-6.75,3.525L21.9,357Zm-8.1,65.8q5.25,0,7.95,2.85a8.518,8.518,0,0,1,2.025,3.75,24.5,24.5,0,0,1,.6,6.075v20.025q0,3.075,1.275,4.238t4.425,1.162V481q-6.9-.3-9-.3t-8.4.3v-1.575q2.775,0,3.862-1.162t1.088-4.238V452.35a13.73,13.73,0,0,0-1.2-6.413q-1.2-2.213-4.875-2.212a8.886,8.886,0,0,0-5.475,1.8,11.624,11.624,0,0,0-3.712,4.913,17.687,17.687,0,0,0-1.313,6.938v16.65q0,3.075,1.088,4.238t3.863,1.162V481q-6.3-.3-8.4-.3t-9,.3v-1.575q3.15,0,4.425-1.162t1.275-4.238V450.55q0-3.45-1.275-5.025T2.175,443.95v-1.575q2.4.225,4.65.225a24.5,24.5,0,0,0,7.8-1.05v8.85a13.878,13.878,0,0,1,5.213-6.937A13.676,13.676,0,0,1,27.375,441.325Zm8.85,147.025q0,2.625,1.087,3.638T41.175,593v1.575q-6.3-.3-8.1-.3-2.1,0-9.075.225l-1.725.075V593a10.075,10.075,0,0,0,5.4-1.162q1.8-1.163,1.8-4.238V574.7a12.308,12.308,0,0,1-4.238,5.438,10.667,10.667,0,0,1-6.263,1.912,14.276,14.276,0,0,1-7.912-2.25,15.1,15.1,0,0,1-5.512-6.825,27.769,27.769,0,0,1-2.025-11.25,26.956,26.956,0,0,1,2.1-11.212,15.392,15.392,0,0,1,5.738-6.9,15.1,15.1,0,0,1,8.213-2.287,13.847,13.847,0,0,1,6.375,1.313,10.334,10.334,0,0,1,4.2,4.162l5.325-5.625,1.275.525a16.2,16.2,0,0,0-.525,4.35ZM21.15,579.8a7.079,7.079,0,0,0,5.063-2.25,12.863,12.863,0,0,0,3.263-6.375V548a9.26,9.26,0,0,0-3.825-3.713,11.775,11.775,0,0,0-5.475-1.237q-4.5,0-6.937,4.65T10.8,561.725q0,9,2.663,13.538A8.437,8.437,0,0,0,21.15,579.8Zm-6.9,62.65h11.1v1.5H14.25v29.025q0,3.375,1.237,4.875a4.355,4.355,0,0,0,3.563,1.5,5.114,5.114,0,0,0,3.975-1.875,15.39,15.39,0,0,0,2.775-6.15l1.5.375q-1.875,10.35-9.75,10.35a12.458,12.458,0,0,1-4.2-.6,7.929,7.929,0,0,1-2.925-1.875,8.805,8.805,0,0,1-2.288-4.05,26.076,26.076,0,0,1-.637-6.45V643.95H.3v-1.5H7.5V630.975a23.294,23.294,0,0,0,6.75-1.05ZM51.825,742.6q3.3,0,5.7-.225v1.5a4.908,4.908,0,0,0-2.775,1.388,9.631,9.631,0,0,0-2.1,3.862l-10.875,32.25H40.5l-11.85-30.15-10.725,30.15H16.65L4.35,748.15a7.891,7.891,0,0,0-2.137-3.413A3.741,3.741,0,0,0,0,743.95v-1.575a43.7,43.7,0,0,0,6.6.45q3.75,0,9.75-.45v1.575a12.82,12.82,0,0,0-4.013.45q-1.237.45-1.237,2.325a11.424,11.424,0,0,0,.75,3.525l7.5,21.6,10.8-29.775h1.725l11.475,30.3,7.05-21.45a11.1,11.1,0,0,0,.675-3.375,2.9,2.9,0,0,0-1.275-2.625,9.583,9.583,0,0,0-4.275-1.05v-1.5Q49.5,742.6,51.825,742.6ZM11.25,879.875H19.5a9.335,9.335,0,0,0,7.275-2.888q2.625-2.887,3.15-9.187H31.65q0,9.825.3,13.5Q26.025,881,18,881q-7.125,0-15.15.375L24.525,843.5h-8.25q-5.025,0-7.462,2.813T5.85,855.575H4.125q0-9.825-.3-13.5,5.925.3,13.95.3,7.125,0,15.15-.375Z" transform="translate(1268 260)" fill="#0cb1f2"/>
    <path id="Path_489" data-name="Path 489" d="M27.825,26.85a20.406,20.406,0,0,1,7.65,1.275,25.961,25.961,0,0,1,6.15,3.6,2.428,2.428,0,0,0,1.425.675q1.5,0,1.95-4.5h1.725q-.3,4.875-.3,17.25H44.7a58.273,58.273,0,0,0-1.5-7.013,12.485,12.485,0,0,0-2.25-4.088,13.871,13.871,0,0,0-5.737-4.387A19.292,19.292,0,0,0,27.675,28.2a12.426,12.426,0,0,0-8.513,3.225A20.988,20.988,0,0,0,13.5,40.612,43.554,43.554,0,0,0,11.475,54.6,40.32,40.32,0,0,0,13.65,68.625a19.688,19.688,0,0,0,6.038,8.887,13.764,13.764,0,0,0,8.738,3.038A19.24,19.24,0,0,0,35.7,79.125a12.253,12.253,0,0,0,5.55-4.275,14.41,14.41,0,0,0,2.175-4.5A53.121,53.121,0,0,0,44.7,63h1.725q0,12.9.3,18H45a13.278,13.278,0,0,0-.638-3.412q-.412-1.013-1.163-1.013a3.288,3.288,0,0,0-1.575.6,31.7,31.7,0,0,1-6.45,3.637A19.891,19.891,0,0,1,27.75,82.05a23.759,23.759,0,0,1-12.488-3.225,21.528,21.528,0,0,1-8.325-9.337A33.155,33.155,0,0,1,3.975,54.9,33.614,33.614,0,0,1,7.013,40.275a23.544,23.544,0,0,1,8.475-9.9A22.182,22.182,0,0,1,27.825,26.85ZM40.575,127.9q-.525,5.325-.525,9.6,0,3.75.225,6.15H38.55a46.017,46.017,0,0,0-1.5-8.587,7.031,7.031,0,0,0-3.15-4.125q-2.25-1.312-6.9-1.312H22.275a13.561,13.561,0,0,0-3.937.413,2.586,2.586,0,0,0-1.687,1.688,13.544,13.544,0,0,0-.45,4.125V154.3h5.475a5.99,5.99,0,0,0,4.05-1.238,6.05,6.05,0,0,0,1.912-2.925,26.966,26.966,0,0,0,.788-4.238l.225-1.5h1.725q-.225,3.15-.225,7.05v3.6q0,3.825.45,10.65H28.875q-.075-.525-.45-3.637a7.381,7.381,0,0,0-2.062-4.687,6.6,6.6,0,0,0-4.687-1.575H16.2v17.25a10.368,10.368,0,0,0,.6,4.125,3.2,3.2,0,0,0,2.1,1.725,22.179,22.179,0,0,0,4.875.6V181q-3.9-.225-11.025-.225-6.45,0-9.6.225v-1.5a14.939,14.939,0,0,0,3.937-.6,2.7,2.7,0,0,0,1.688-1.725,13.544,13.544,0,0,0,.45-4.125v-37.2a13.544,13.544,0,0,0-.45-4.125A2.7,2.7,0,0,0,7.087,130a14.94,14.94,0,0,0-3.937-.6v-1.5q7.35.225,21.75.225Q35.925,128.125,40.575,127.9Zm-18.3,101.5a14.94,14.94,0,0,0-3.937.6,2.7,2.7,0,0,0-1.687,1.725,13.544,13.544,0,0,0-.45,4.125v37.2a13.544,13.544,0,0,0,.45,4.125,2.7,2.7,0,0,0,1.688,1.725,14.939,14.939,0,0,0,3.938.6V281q-3.45-.225-9.525-.225-6.45,0-9.6.225v-1.5a14.939,14.939,0,0,0,3.937-.6,2.7,2.7,0,0,0,1.688-1.725,13.544,13.544,0,0,0,.45-4.125v-37.2a13.544,13.544,0,0,0-.45-4.125A2.7,2.7,0,0,0,7.087,230a14.94,14.94,0,0,0-3.937-.6v-1.5q3.15.225,9.6.225,6,0,9.525-.225Zm0,100a14.939,14.939,0,0,0-3.937.6,2.7,2.7,0,0,0-1.687,1.725,13.544,13.544,0,0,0-.45,4.125v37.2a13.544,13.544,0,0,0,.45,4.125,2.586,2.586,0,0,0,1.688,1.688,13.562,13.562,0,0,0,3.938.413H27.75a15.283,15.283,0,0,0,7.088-1.312,7.75,7.75,0,0,0,3.563-4.237,33.626,33.626,0,0,0,1.65-8.475h1.725q-.225,2.325-.225,6.15,0,4.275.525,9.6-5.1-.225-17.175-.225-14.4,0-21.75.225v-1.5a14.939,14.939,0,0,0,3.937-.6,2.7,2.7,0,0,0,1.688-1.725,13.544,13.544,0,0,0,.45-4.125v-37.2a13.544,13.544,0,0,0-.45-4.125A2.7,2.7,0,0,0,7.087,330a14.939,14.939,0,0,0-3.937-.6v-1.5q3.15.225,9.6.225,6,0,9.525-.225Zm5.55,97.45a23.759,23.759,0,0,1,12.488,3.225,21.528,21.528,0,0,1,8.325,9.337A33.155,33.155,0,0,1,51.6,454a33.614,33.614,0,0,1-3.038,14.625,23.545,23.545,0,0,1-8.475,9.9A22.181,22.181,0,0,1,27.75,482.05a23.759,23.759,0,0,1-12.488-3.225,21.528,21.528,0,0,1-8.325-9.338A33.155,33.155,0,0,1,3.975,454.9a33.614,33.614,0,0,1,3.038-14.625,23.545,23.545,0,0,1,8.475-9.9A22.181,22.181,0,0,1,27.825,426.85Zm-.3,1.35a12.1,12.1,0,0,0-8.438,3.337,21.576,21.576,0,0,0-5.625,9.337A43.594,43.594,0,0,0,11.475,454.6a39.123,39.123,0,0,0,2.213,13.725,21.847,21.847,0,0,0,5.962,9.15,12.557,12.557,0,0,0,8.4,3.225,12.1,12.1,0,0,0,8.437-3.338,21.576,21.576,0,0,0,5.625-9.337A43.594,43.594,0,0,0,44.1,454.3a39.122,39.122,0,0,0-2.212-13.725,21.847,21.847,0,0,0-5.963-9.15A12.557,12.557,0,0,0,27.525,428.2ZM49.5,577.25a13.012,13.012,0,0,1-3.45,3.675,8.264,8.264,0,0,1-4.575,1.125,7.253,7.253,0,0,1-5.062-1.8q-1.988-1.8-2.963-6.3l-1.65-7.5a50.264,50.264,0,0,0-1.687-6,7.723,7.723,0,0,0-2.362-3.375,6.859,6.859,0,0,0-4.425-1.275H16.2v17.25a13.544,13.544,0,0,0,.45,4.125,2.7,2.7,0,0,0,1.688,1.725,14.942,14.942,0,0,0,3.938.6V581q-3.45-.225-9.525-.225-6.45,0-9.6.225v-1.5a14.942,14.942,0,0,0,3.937-.6,2.7,2.7,0,0,0,1.688-1.725,13.544,13.544,0,0,0,.45-4.125v-37.2a13.545,13.545,0,0,0-.45-4.125A2.7,2.7,0,0,0,7.087,530a14.94,14.94,0,0,0-3.937-.6v-1.5q3.15.225,9.15.225l8.1-.075q1.425-.075,3.225-.075,8.7,0,13.388,3.638a11.38,11.38,0,0,1,4.688,9.413,13.789,13.789,0,0,1-1.388,5.887,14.014,14.014,0,0,1-4.65,5.325,19.5,19.5,0,0,1-8.512,3.188l.9.15q4.95.825,7.2,3t3.3,6.9l1.875,7.65a17,17,0,0,0,1.575,4.8,2.529,2.529,0,0,0,2.25,1.35,3.362,3.362,0,0,0,2.138-.675,11.8,11.8,0,0,0,1.987-2.175ZM21.75,529.4a8.868,8.868,0,0,0-3.488.525A2.968,2.968,0,0,0,16.65,531.8a13.651,13.651,0,0,0-.45,4.05V554.3h5.025q7.425,0,10.2-3.3t2.775-9.15q0-6.15-2.925-9.3T21.75,529.4Zm27.375,100a10.468,10.468,0,0,0-3.9.787,3.324,3.324,0,0,0-1.725,2.1,15.592,15.592,0,0,0-.45,4.313v22.575a51.869,51.869,0,0,1-.713,9.263,20,20,0,0,1-2.362,6.638,13.155,13.155,0,0,1-5.512,5.1,17.661,17.661,0,0,1-8.213,1.875q-8.25,0-12.6-4.05a15.246,15.246,0,0,1-4.425-6.975A44.876,44.876,0,0,1,8.1,659.4V635.85a13.545,13.545,0,0,0-.45-4.125A2.7,2.7,0,0,0,5.962,630a14.94,14.94,0,0,0-3.937-.6v-1.5q3.15.225,9.6.225,6.075,0,9.525-.225v1.5a14.94,14.94,0,0,0-3.937.6,2.7,2.7,0,0,0-1.687,1.725,13.545,13.545,0,0,0-.45,4.125v24.825a50.288,50.288,0,0,0,.825,9.975,11.652,11.652,0,0,0,3.413,6.375q2.588,2.4,7.612,2.4,7.95,0,11.175-5.1T41.325,660V636.6q0-4.05-1.463-5.55T34.5,629.4v-1.5q2.7.225,7.65.225,4.5,0,6.975-.225ZM42,775.675a12.515,12.515,0,0,0,2.4,2.925,4.551,4.551,0,0,0,2.625.825V781q-5.1-.3-6.45-.3Q38.1,780.7,30,781v-1.575a22.066,22.066,0,0,0,4.125-.263q1.2-.262,1.2-.937a2.436,2.436,0,0,0-.525-1.35l-12.825-19.65-8.1,12.075q-2.85,4.275-2.85,6.6a2.777,2.777,0,0,0,1.725,2.737,13.043,13.043,0,0,0,4.95.862V781q-4.275-.225-10.125-.225-4.125,0-6.375.225v-1.5a8.441,8.441,0,0,0,4.312-2.025A22.851,22.851,0,0,0,9.675,772.6L21,755.725l-14.7-22.5A12.515,12.515,0,0,0,3.9,730.3a4.551,4.551,0,0,0-2.625-.825V727.9q5.1.3,6.45.3,5.025,0,10.575-.3v1.575a12.752,12.752,0,0,0-3.863.413q-1.163.412-1.163,1.237a4.381,4.381,0,0,0,.675,1.65l11.7,17.85L33,739.6q3.225-4.725,3.225-7.2a2.315,2.315,0,0,0-1.425-2.25,11.345,11.345,0,0,0-4.35-.75v-1.5q4.275.225,8.625.225,4.125,0,6.375-.225v1.5a8.441,8.441,0,0,0-4.312,2.025,22.854,22.854,0,0,0-4.163,4.875l-10.5,15.675ZM9.825,822.35A3.231,3.231,0,0,1,12.3,823.4a4.485,4.485,0,0,1,.975,3.15q0,3.9-1.05,13.35-.9,9.15-1.312,14.737T10.5,866.3H9.15q0-6.075-.413-11.662T7.425,839.9q-1.05-9.45-1.05-13.35a4.581,4.581,0,0,1,.937-3.187A3.259,3.259,0,0,1,9.825,822.35Zm0,50.1a4.613,4.613,0,0,1,3.375,1.425,4.709,4.709,0,0,1,0,6.75,4.709,4.709,0,0,1-6.75,0,4.709,4.709,0,0,1,0-6.75A4.613,4.613,0,0,1,9.825,872.45Z" transform="translate(607 260)" fill="#0cb1f2"/>
    <path id="Path_500" data-name="Path 500" d="M20.925,41.325a15.552,15.552,0,0,1,8.7,2.4Q33.15,46.05,33.15,49.5a4.155,4.155,0,0,1-1.125,3.075,3.862,3.862,0,0,1-2.85,1.125,4.383,4.383,0,0,1-2.925-1.013,3.4,3.4,0,0,1-1.2-2.738,4.038,4.038,0,0,1,.9-2.662,4.378,4.378,0,0,1,2.25-1.463,5.651,5.651,0,0,0-2.662-2.25,9.48,9.48,0,0,0-4.087-.9,8.572,8.572,0,0,0-5.175,1.762,12.7,12.7,0,0,0-3.975,5.85A30.5,30.5,0,0,0,10.725,61.05q0,9.3,3,13.538a9.165,9.165,0,0,0,7.8,4.237,11.039,11.039,0,0,0,6.112-1.875A13.686,13.686,0,0,0,32.4,71.1l1.425.525a15.6,15.6,0,0,1-4.763,7.35,13.161,13.161,0,0,1-9.038,3.075,15.438,15.438,0,0,1-8.437-2.4,16.305,16.305,0,0,1-5.962-6.937A24.116,24.116,0,0,1,3.45,62.175a25.187,25.187,0,0,1,2.212-10.8,17.679,17.679,0,0,1,6.188-7.388A15.929,15.929,0,0,1,20.925,41.325ZM20.7,122.35a10.364,10.364,0,0,1,6.525,2.025,5.753,5.753,0,0,1,2.325,4.65A3.848,3.848,0,0,1,25.575,133a4.2,4.2,0,0,1-2.925-1.087,3.8,3.8,0,0,1-1.2-2.963,3.706,3.706,0,0,1,.863-2.55,4.076,4.076,0,0,1,2.287-1.275,2.017,2.017,0,0,0-1.2-1.2,5.92,5.92,0,0,0-2.475-.45,5.66,5.66,0,0,0-2.925.75,5.061,5.061,0,0,0-1.95,2.025,11.608,11.608,0,0,0-1.087,4.425Q14.7,133.6,14.7,140.5v1.95h8.025v1.5H14.7v29.325q0,3.45,1.988,4.8a10.68,10.68,0,0,0,5.962,1.35V181l-1.8-.075q-7.65-.225-9.75-.225-1.95,0-8.85.3v-1.575q3.15,0,4.425-1.163t1.275-4.238V143.95h-6v-1.5h6a48.337,48.337,0,0,1,.825-10.2,14.188,14.188,0,0,1,3-6.15,10.565,10.565,0,0,1,3.825-2.738A12.636,12.636,0,0,1,20.7,122.35ZM10.725,223.625A4.613,4.613,0,0,1,14.1,225.05a4.709,4.709,0,0,1,0,6.75,4.709,4.709,0,0,1-6.75,0,4.709,4.709,0,0,1,0-6.75A4.613,4.613,0,0,1,10.725,223.625Zm3.9,50.4q0,3.075,1.275,4.238t4.425,1.162V281q-6.9-.3-9.075-.3t-9.075.3v-1.575q3.15,0,4.425-1.162t1.275-4.238V250.55q0-3.45-1.275-5.025T2.175,243.95v-1.575q2.4.225,4.65.225a24.5,24.5,0,0,0,7.8-1.05Zm-.525,100q0,3.075,1.275,4.238t4.425,1.162V381q-6.9-.3-9.075-.3T1.65,381v-1.575q3.15,0,4.425-1.162t1.275-4.238V331.2q0-3.45-1.275-5.025T1.65,324.6v-1.575q2.325.225,4.65.225a24.505,24.505,0,0,0,7.8-1.05Zm6.45,67.3a16.023,16.023,0,0,1,12.338,5.063q4.688,5.063,4.688,15.337t-4.687,15.3A16.082,16.082,0,0,1,20.55,482.05a16.082,16.082,0,0,1-12.337-5.025Q3.525,472,3.525,461.725t4.687-15.337A16.023,16.023,0,0,1,20.55,441.325Zm0,1.5q-4.5,0-7.125,4.612T10.8,461.725q0,9.675,2.625,14.25t7.125,4.575q4.5,0,7.125-4.575t2.625-14.25q0-9.675-2.625-14.288T20.55,442.825Zm4.95,98.5a7.055,7.055,0,0,1,4.913,1.725,5.447,5.447,0,0,1,1.913,4.2,5.027,5.027,0,0,1-1.163,3.338,3.853,3.853,0,0,1-3.112,1.387,4.048,4.048,0,0,1-2.813-1.05,3.648,3.648,0,0,1-1.162-2.85,4.657,4.657,0,0,1,2.55-4.05,1.8,1.8,0,0,0-1.575-.75,7.553,7.553,0,0,0-5.325,2.287,15.94,15.94,0,0,0-3.75,5.588,16.475,16.475,0,0,0-1.35,6.225v15.9q0,3.45,1.988,4.8a10.68,10.68,0,0,0,5.963,1.35V581l-1.8-.075q-7.65-.225-9.75-.225-1.95,0-8.85.3v-1.575q3.15,0,4.425-1.162t1.275-4.237V550.55q0-3.45-1.275-5.025T2.175,543.95v-1.575q2.4.225,4.65.225a24.5,24.5,0,0,0,7.8-1.05v9.375a17.745,17.745,0,0,1,4.313-6.675A9.158,9.158,0,0,1,25.5,541.325ZM36.225,672.9q0,3.45,1.275,5.025t4.425,1.575v1.575q-2.325-.225-4.65-.225a24.5,24.5,0,0,0-7.8,1.05v-8.85a13.811,13.811,0,0,1-5.1,6.825,12.822,12.822,0,0,1-7.2,2.175q-5.1,0-7.8-2.85a8.637,8.637,0,0,1-1.912-3.825,26.251,26.251,0,0,1-.562-6V650.55q0-3.45-1.275-5.025T1.2,643.95v-1.575q2.325.225,4.65.225a24.5,24.5,0,0,0,7.8-1.05v29.475a25.426,25.426,0,0,0,.338,4.612,5.073,5.073,0,0,0,1.575,2.888,5.486,5.486,0,0,0,3.787,1.125,8.249,8.249,0,0,0,5.175-1.8,11.9,11.9,0,0,0,3.638-4.912,17.488,17.488,0,0,0,1.313-6.862V650.55q0-3.45-1.275-5.025t-4.425-1.575v-1.575q2.325.225,4.65.225a24.5,24.5,0,0,0,7.8-1.05ZM33.3,775.675a15.241,15.241,0,0,0,2.288,2.663,5.3,5.3,0,0,0,2.362,1.087V781q-3.9-.3-5.325-.3-2.55,0-8.85.3v-1.575a4.406,4.406,0,0,0,2.063-.45,1.349,1.349,0,0,0,.863-1.2,1.4,1.4,0,0,0-.3-.9l-8.55-12.45-5.475,7.125q-2.1,2.775-2.1,4.5a2.694,2.694,0,0,0,1.463,2.438,9.137,9.137,0,0,0,4.087,1.013V781q-3.9-.225-8.55-.225-3.3,0-5.7.225v-1.5a5.942,5.942,0,0,0,3.038-1.35,21.1,21.1,0,0,0,3.563-3.9L16.8,762.925,6.375,747.7a14.354,14.354,0,0,0-2.4-2.888,4.307,4.307,0,0,0-2.25-.862v-1.575q3.9.3,5.325.3,2.55,0,8.85-.3v1.575a4.406,4.406,0,0,0-2.062.45,1.349,1.349,0,0,0-.863,1.2,1.4,1.4,0,0,0,.3.9L21.3,758.2l5.175-7.275q2.25-3.225,2.25-4.725a1.761,1.761,0,0,0-1.012-1.612,8.212,8.212,0,0,0-3.263-.713v-1.5q3.9.225,6.3.225,3.3,0,5.7-.225v1.5q-3.075.375-6.6,5.25l-7.575,10.5ZM9.825,822.35A3.231,3.231,0,0,1,12.3,823.4a4.485,4.485,0,0,1,.975,3.15q0,3.9-1.05,13.35-.9,9.15-1.312,14.737T10.5,866.3H9.15q0-6.075-.413-11.662T7.425,839.9q-1.05-9.45-1.05-13.35a4.581,4.581,0,0,1,.937-3.187A3.259,3.259,0,0,1,9.825,822.35Zm0,50.1a4.613,4.613,0,0,1,3.375,1.425,4.709,4.709,0,0,1,0,6.75,4.709,4.709,0,0,1-6.75,0,4.709,4.709,0,0,1,0-6.75A4.613,4.613,0,0,1,9.825,872.45Z" transform="translate(1530 260)" fill="#0cb1f2"/>
    <path id="Path_490" data-name="Path 490" d="M0,0V960" transform="translate(817.021 241.5)" fill="none" stroke="#094c84" stroke-width="2"/>
    <path id="Path_486" data-name="Path 486" d="M22.26,21.68a16.325,16.325,0,0,1,6.12,1.02,20.768,20.768,0,0,1,4.92,2.88,1.943,1.943,0,0,0,1.14.54q1.2,0,1.56-3.6h1.38q-.24,3.9-.24,13.8H35.76a46.619,46.619,0,0,0-1.2-5.61,9.988,9.988,0,0,0-1.8-3.27,11.1,11.1,0,0,0-4.59-3.51,15.434,15.434,0,0,0-6.03-1.17,9.941,9.941,0,0,0-6.81,2.58,16.791,16.791,0,0,0-4.53,7.35A34.843,34.843,0,0,0,9.18,43.88,32.256,32.256,0,0,0,10.92,55.1a15.751,15.751,0,0,0,4.83,7.11,11.011,11.011,0,0,0,6.99,2.43,15.392,15.392,0,0,0,5.82-1.14A9.8,9.8,0,0,0,33,60.08a11.528,11.528,0,0,0,1.74-3.6,42.5,42.5,0,0,0,1.02-5.88h1.38q0,10.32.24,14.4H36a10.623,10.623,0,0,0-.51-2.73q-.33-.81-.93-.81a2.63,2.63,0,0,0-1.26.48,25.357,25.357,0,0,1-5.16,2.91,15.913,15.913,0,0,1-5.94.99,19.007,19.007,0,0,1-9.99-2.58,17.222,17.222,0,0,1-6.66-7.47A26.524,26.524,0,0,1,3.18,44.12a26.891,26.891,0,0,1,2.43-11.7,18.836,18.836,0,0,1,6.78-7.92A17.745,17.745,0,0,1,22.26,21.68Zm63.72,2.04a11.952,11.952,0,0,0-3.15.48,2.157,2.157,0,0,0-1.35,1.38,10.836,10.836,0,0,0-.36,3.3V58.64a10.836,10.836,0,0,0,.36,3.3,2.157,2.157,0,0,0,1.35,1.38,11.952,11.952,0,0,0,3.15.48V65q-2.52-.18-7.68-.18-4.86,0-7.62.18V63.8a11.952,11.952,0,0,0,3.15-.48,2.157,2.157,0,0,0,1.35-1.38,10.836,10.836,0,0,0,.36-3.3V44.24H56.04v14.4a10.835,10.835,0,0,0,.36,3.3,2.157,2.157,0,0,0,1.35,1.38,11.952,11.952,0,0,0,3.15.48V65q-2.76-.18-7.62-.18-5.16,0-7.68.18V63.8a11.952,11.952,0,0,0,3.15-.48,2.157,2.157,0,0,0,1.35-1.38,10.835,10.835,0,0,0,.36-3.3V28.88a10.836,10.836,0,0,0-.36-3.3,2.157,2.157,0,0,0-1.35-1.38,11.952,11.952,0,0,0-3.15-.48v-1.2q2.52.18,7.68.18,4.8,0,7.62-.18v1.2a11.952,11.952,0,0,0-3.15.48,2.157,2.157,0,0,0-1.35,1.38,10.836,10.836,0,0,0-.36,3.3V43.04h19.5V28.88a10.836,10.836,0,0,0-.36-3.3,2.157,2.157,0,0,0-1.35-1.38,11.952,11.952,0,0,0-3.15-.48v-1.2q2.76.18,7.62.18,5.16,0,7.68-.18Zm38.34,36.24q1.44,3.72,4.14,3.84V65q-2.4-.18-6.42-.18-5.16,0-7.68.18V63.8a9.814,9.814,0,0,0,3.27-.57,1.652,1.652,0,0,0,.99-1.65,8.243,8.243,0,0,0-.72-2.82l-3.66-9.84H99.72l-2.46,6.36a15.7,15.7,0,0,0-1.2,4.92,2.983,2.983,0,0,0,1.29,2.7,7.64,7.64,0,0,0,3.93.9V65q-3.42-.18-6.9-.18-2.7,0-4.5.18V63.8q3-.72,4.74-5.22l14.1-36.36h.96ZM113.76,47.72l-6.72-17.94L100.2,47.72ZM168.3,62a10.409,10.409,0,0,1-2.76,2.94,6.611,6.611,0,0,1-3.66.9,5.8,5.8,0,0,1-4.05-1.44,9.406,9.406,0,0,1-2.37-5.04l-1.32-6a40.214,40.214,0,0,0-1.35-4.8,6.178,6.178,0,0,0-1.89-2.7,5.487,5.487,0,0,0-3.54-1.02h-5.7v13.8a10.836,10.836,0,0,0,.36,3.3,2.157,2.157,0,0,0,1.35,1.38,11.952,11.952,0,0,0,3.15.48V65q-2.76-.18-7.62-.18-5.16,0-7.68.18V63.8a11.952,11.952,0,0,0,3.15-.48,2.157,2.157,0,0,0,1.35-1.38,10.835,10.835,0,0,0,.36-3.3V28.88a10.835,10.835,0,0,0-.36-3.3,2.157,2.157,0,0,0-1.35-1.38,11.952,11.952,0,0,0-3.15-.48v-1.2q2.52.18,7.32.18l6.48-.06q1.14-.06,2.58-.06,6.96,0,10.71,2.91a9.1,9.1,0,0,1,3.75,7.53,11.031,11.031,0,0,1-1.11,4.71,11.211,11.211,0,0,1-3.72,4.26,15.6,15.6,0,0,1-6.81,2.55l.72.12a10.717,10.717,0,0,1,5.76,2.4,10.8,10.8,0,0,1,2.64,5.52l1.5,6.12a13.6,13.6,0,0,0,1.26,3.84,2.023,2.023,0,0,0,1.8,1.08,2.69,2.69,0,0,0,1.71-.54,9.439,9.439,0,0,0,1.59-1.74ZM146.1,23.72a7.094,7.094,0,0,0-2.79.42,2.375,2.375,0,0,0-1.29,1.5,10.921,10.921,0,0,0-.36,3.24V43.64h4.02q5.94,0,8.16-2.64a11.035,11.035,0,0,0,2.22-7.32q0-4.92-2.34-7.44T146.1,23.72Zm57.3,36.24q1.44,3.72,4.14,3.84V65q-2.4-.18-6.42-.18-5.16,0-7.68.18V63.8a9.814,9.814,0,0,0,3.27-.57,1.652,1.652,0,0,0,.99-1.65,8.243,8.243,0,0,0-.72-2.82l-3.66-9.84H178.8l-2.46,6.36a15.7,15.7,0,0,0-1.2,4.92,2.983,2.983,0,0,0,1.29,2.7,7.64,7.64,0,0,0,3.93.9V65q-3.42-.18-6.9-.18-2.7,0-4.5.18V63.8q3-.72,4.74-5.22l14.1-36.36h.96ZM192.84,47.72l-6.72-17.94-6.84,17.94Zm37.8-26.04a16.325,16.325,0,0,1,6.12,1.02,20.769,20.769,0,0,1,4.92,2.88,1.943,1.943,0,0,0,1.14.54q1.2,0,1.56-3.6h1.38q-.24,3.9-.24,13.8h-1.38a46.618,46.618,0,0,0-1.2-5.61,9.988,9.988,0,0,0-1.8-3.27,11.1,11.1,0,0,0-4.59-3.51,15.433,15.433,0,0,0-6.03-1.17,9.941,9.941,0,0,0-6.81,2.58,16.791,16.791,0,0,0-4.53,7.35,34.843,34.843,0,0,0-1.62,11.19A32.256,32.256,0,0,0,219.3,55.1a15.751,15.751,0,0,0,4.83,7.11,11.011,11.011,0,0,0,6.99,2.43,15.392,15.392,0,0,0,5.82-1.14,9.8,9.8,0,0,0,4.44-3.42,11.528,11.528,0,0,0,1.74-3.6,42.5,42.5,0,0,0,1.02-5.88h1.38q0,10.32.24,14.4h-1.38a10.622,10.622,0,0,0-.51-2.73q-.33-.81-.93-.81a2.63,2.63,0,0,0-1.26.48,25.357,25.357,0,0,1-5.16,2.91,15.913,15.913,0,0,1-5.94.99,19.007,19.007,0,0,1-9.99-2.58,17.222,17.222,0,0,1-6.66-7.47,26.524,26.524,0,0,1-2.37-11.67,26.891,26.891,0,0,1,2.43-11.7,18.835,18.835,0,0,1,6.78-7.92A17.745,17.745,0,0,1,230.64,21.68Zm56.34.84q-.42,4.26-.42,7.68,0,3,.18,4.92h-1.38a36.813,36.813,0,0,0-1.2-6.87,5.625,5.625,0,0,0-2.52-3.3,11.28,11.28,0,0,0-5.52-1.05h-3.24V58.04a10.157,10.157,0,0,0,.48,3.66,2.71,2.71,0,0,0,1.68,1.56,14.96,14.96,0,0,0,3.9.54V65q-3.12-.18-8.82-.18-6,0-8.88.18V63.8a14.961,14.961,0,0,0,3.9-.54,2.71,2.71,0,0,0,1.68-1.56,10.157,10.157,0,0,0,.48-3.66V23.9h-3.24a11.28,11.28,0,0,0-5.52,1.05,5.625,5.625,0,0,0-2.52,3.3,36.811,36.811,0,0,0-1.2,6.87h-1.38q.18-1.92.18-4.92,0-3.42-.42-7.68,4.98.18,16.92.18Q282,22.7,286.98,22.52Zm36.78,34.8q0,3.42.42,7.68-4.08-.18-13.74-.18-11.52,0-17.4.18V63.8a11.952,11.952,0,0,0,3.15-.48,2.157,2.157,0,0,0,1.35-1.38,10.835,10.835,0,0,0,.36-3.3V28.88a10.835,10.835,0,0,0-.36-3.3,2.157,2.157,0,0,0-1.35-1.38,11.952,11.952,0,0,0-3.15-.48v-1.2q5.88.18,17.4.18,8.82,0,12.54-.18a67.859,67.859,0,0,0-.42,7.08,30.194,30.194,0,0,0,.18,3.72h-1.38a28,28,0,0,0-1.08-5.79,4.842,4.842,0,0,0-2.22-2.76,10.039,10.039,0,0,0-4.74-.87h-4.98a10.849,10.849,0,0,0-3.15.33,2.069,2.069,0,0,0-1.35,1.35,10.835,10.835,0,0,0-.36,3.3V43.04h3.96a4.792,4.792,0,0,0,3.24-.99,4.84,4.84,0,0,0,1.53-2.34,21.575,21.575,0,0,0,.63-3.39l.18-1.2h1.38q-.18,2.52-.18,5.64v2.88q0,3.06.36,8.52H313.2q-.06-.42-.36-2.91a5.9,5.9,0,0,0-1.65-3.75,5.283,5.283,0,0,0-3.75-1.26h-3.96v14.4a10.835,10.835,0,0,0,.36,3.3,2.069,2.069,0,0,0,1.35,1.35,10.849,10.849,0,0,0,3.15.33h4.38a12.868,12.868,0,0,0,5.67-.99,5.955,5.955,0,0,0,2.85-3.18A24.069,24.069,0,0,0,322.56,53h1.38A40.963,40.963,0,0,0,323.76,57.32ZM368.46,62a10.409,10.409,0,0,1-2.76,2.94,6.611,6.611,0,0,1-3.66.9,5.8,5.8,0,0,1-4.05-1.44,9.406,9.406,0,0,1-2.37-5.04l-1.32-6a40.214,40.214,0,0,0-1.35-4.8,6.179,6.179,0,0,0-1.89-2.7,5.487,5.487,0,0,0-3.54-1.02h-5.7v13.8a10.835,10.835,0,0,0,.36,3.3,2.157,2.157,0,0,0,1.35,1.38,11.952,11.952,0,0,0,3.15.48V65q-2.76-.18-7.62-.18-5.16,0-7.68.18V63.8a11.952,11.952,0,0,0,3.15-.48,2.157,2.157,0,0,0,1.35-1.38,10.835,10.835,0,0,0,.36-3.3V28.88a10.835,10.835,0,0,0-.36-3.3,2.157,2.157,0,0,0-1.35-1.38,11.952,11.952,0,0,0-3.15-.48v-1.2q2.52.18,7.32.18l6.48-.06q1.14-.06,2.58-.06,6.96,0,10.71,2.91a9.1,9.1,0,0,1,3.75,7.53,11.031,11.031,0,0,1-1.11,4.71,11.211,11.211,0,0,1-3.72,4.26,15.6,15.6,0,0,1-6.81,2.55l.72.12a10.718,10.718,0,0,1,5.76,2.4,10.8,10.8,0,0,1,2.64,5.52l1.5,6.12a13.6,13.6,0,0,0,1.26,3.84,2.023,2.023,0,0,0,1.8,1.08,2.69,2.69,0,0,0,1.71-.54,9.44,9.44,0,0,0,1.59-1.74Zm-22.2-38.28a7.094,7.094,0,0,0-2.79.42,2.375,2.375,0,0,0-1.29,1.5,10.92,10.92,0,0,0-.36,3.24V43.64h4.02q5.94,0,8.16-2.64a11.035,11.035,0,0,0,2.22-7.32q0-4.92-2.34-7.44T346.26,23.72Zm54.66-1.86a12.3,12.3,0,0,1,4.17.57,15.441,15.441,0,0,1,3.15,1.65,4.338,4.338,0,0,0,2.04.84.926.926,0,0,0,.84-.63,7.168,7.168,0,0,0,.48-2.01h1.38q-.3,3.48-.3,12.24H411.3a15.537,15.537,0,0,0-2.79-8.19A8.187,8.187,0,0,0,401.46,23a7.326,7.326,0,0,0-5.28,1.95,6.624,6.624,0,0,0-2.04,5.01,7.317,7.317,0,0,0,1.05,3.96,10.453,10.453,0,0,0,2.67,2.88q1.62,1.2,4.62,3.06l1.74,1.08a60.069,60.069,0,0,1,5.97,4.11,14.6,14.6,0,0,1,3.51,4.05,10.47,10.47,0,0,1,1.32,5.34q0,5.46-3.6,8.43a13.854,13.854,0,0,1-9.12,2.97,15.419,15.419,0,0,1-4.71-.6,16.877,16.877,0,0,1-3.51-1.62,4.338,4.338,0,0,0-2.04-.84.926.926,0,0,0-.84.63,7.166,7.166,0,0,0-.48,2.01h-1.38q.24-3.3.24-14.4h1.38a19.61,19.61,0,0,0,3,9.84q2.58,3.78,7.92,3.78a8.057,8.057,0,0,0,5.52-2.01,7.539,7.539,0,0,0,2.28-5.97,7.918,7.918,0,0,0-2.25-5.7,35.94,35.94,0,0,0-7.11-5.28,66.787,66.787,0,0,1-5.73-3.84,13.832,13.832,0,0,1-3.57-4.05,10.832,10.832,0,0,1-1.38-5.55q0-5.04,3.24-7.71A12.223,12.223,0,0,1,400.92,21.86ZM453,57.32q0,3.42.42,7.68-4.08-.18-13.74-.18-11.52,0-17.4.18V63.8a11.952,11.952,0,0,0,3.15-.48,2.157,2.157,0,0,0,1.35-1.38,10.835,10.835,0,0,0,.36-3.3V28.88a10.835,10.835,0,0,0-.36-3.3,2.157,2.157,0,0,0-1.35-1.38,11.952,11.952,0,0,0-3.15-.48v-1.2q5.88.18,17.4.18,8.82,0,12.54-.18a67.859,67.859,0,0,0-.42,7.08,30.194,30.194,0,0,0,.18,3.72H450.6a28,28,0,0,0-1.08-5.79,4.842,4.842,0,0,0-2.22-2.76,10.039,10.039,0,0,0-4.74-.87h-4.98a10.849,10.849,0,0,0-3.15.33,2.069,2.069,0,0,0-1.35,1.35,10.835,10.835,0,0,0-.36,3.3V43.04h3.96a4.792,4.792,0,0,0,3.24-.99,4.84,4.84,0,0,0,1.53-2.34,21.575,21.575,0,0,0,.63-3.39l.18-1.2h1.38q-.18,2.52-.18,5.64v2.88q0,3.06.36,8.52h-1.38q-.06-.42-.36-2.91a5.9,5.9,0,0,0-1.65-3.75,5.283,5.283,0,0,0-3.75-1.26h-3.96v14.4a10.835,10.835,0,0,0,.36,3.3,2.069,2.069,0,0,0,1.35,1.35,10.849,10.849,0,0,0,3.15.33h4.38a12.868,12.868,0,0,0,5.67-.99,5.955,5.955,0,0,0,2.85-3.18A24.069,24.069,0,0,0,451.8,53h1.38A40.972,40.972,0,0,0,453,57.32Zm40.62-34.8q-.42,4.26-.42,7.68,0,3,.18,4.92H492a36.811,36.811,0,0,0-1.2-6.87,5.625,5.625,0,0,0-2.52-3.3,11.28,11.28,0,0,0-5.52-1.05h-3.24V58.04A10.158,10.158,0,0,0,480,61.7a2.71,2.71,0,0,0,1.68,1.56,14.961,14.961,0,0,0,3.9.54V65q-3.12-.18-8.82-.18-6,0-8.88.18V63.8a14.96,14.96,0,0,0,3.9-.54,2.71,2.71,0,0,0,1.68-1.56,10.158,10.158,0,0,0,.48-3.66V23.9H470.7a11.28,11.28,0,0,0-5.52,1.05,5.625,5.625,0,0,0-2.52,3.3,36.813,36.813,0,0,0-1.2,6.87h-1.38q.18-1.92.18-4.92,0-3.42-.42-7.68,4.98.18,16.92.18Q488.64,22.7,493.62,22.52Z" transform="translate(591 124)" fill="#0cb1f2"/>
  </g>
</svg>
