<svg xmlns="http://www.w3.org/2000/svg" xmlns:xlink="http://www.w3.org/1999/xlink" width="1680" height="509" viewBox="0 0 1680 509">
  <defs>
    <clipPath id="clip-playfairdisplay_numbers">
      <rect width="1680" height="509"/>
    </clipPath>
  </defs>
  <g id="playfairdisplay_numbers" clip-path="url(#clip-playfairdisplay_numbers)">
    <path id="Path_493" data-name="Path 493" d="M0,0H1688V509H0Z" fill="none"/>
    <path id="Path_494" data-name="Path 494" d="M40.2,23.72a8.375,8.375,0,0,0-3.12.63,2.659,2.659,0,0,0-1.38,1.68,12.473,12.473,0,0,0-.36,3.45V65.3H33.96L8.76,26.36V58.04a11.515,11.515,0,0,0,.39,3.48,2.71,2.71,0,0,0,1.53,1.65,10.485,10.485,0,0,0,3.54.63V65q-2.16-.18-6.12-.18-3.6,0-5.58.18V63.8a8.375,8.375,0,0,0,3.12-.63,2.659,2.659,0,0,0,1.38-1.68,12.474,12.474,0,0,0,.36-3.45V28.88a10.836,10.836,0,0,0-.36-3.3A2.157,2.157,0,0,0,5.67,24.2a11.952,11.952,0,0,0-3.15-.48v-1.2q1.98.18,5.58.18,2.7,0,4.68-.18L33.96,55.16V29.48A11.515,11.515,0,0,0,33.57,26a2.71,2.71,0,0,0-1.53-1.65,10.485,10.485,0,0,0-3.54-.63v-1.2q2.16.18,6.12.18,3.6,0,5.58-.18Zm43.26,0a8.375,8.375,0,0,0-3.12.63,2.659,2.659,0,0,0-1.38,1.68,12.474,12.474,0,0,0-.36,3.45V47.54a41.5,41.5,0,0,1-.57,7.41,16,16,0,0,1-1.89,5.31,10.523,10.523,0,0,1-4.41,4.08,14.129,14.129,0,0,1-6.57,1.5q-6.6,0-10.08-3.24a12.2,12.2,0,0,1-3.54-5.58,35.9,35.9,0,0,1-.9-9.3V28.88a10.836,10.836,0,0,0-.36-3.3,2.157,2.157,0,0,0-1.35-1.38,11.952,11.952,0,0,0-3.15-.48v-1.2q2.52.18,7.68.18,4.86,0,7.62-.18v1.2a11.952,11.952,0,0,0-3.15.48,2.157,2.157,0,0,0-1.35,1.38,10.836,10.836,0,0,0-.36,3.3V48.74a40.23,40.23,0,0,0,.66,7.98,9.321,9.321,0,0,0,2.73,5.1q2.07,1.92,6.09,1.92,6.36,0,8.94-4.08T77.22,48.2V29.48q0-3.24-1.17-4.44t-4.29-1.32v-1.2q2.16.18,6.12.18,3.6,0,5.58-.18Zm53.16,0a11.952,11.952,0,0,0-3.15.48,2.157,2.157,0,0,0-1.35,1.38,10.835,10.835,0,0,0-.36,3.3V58.64a10.835,10.835,0,0,0,.36,3.3,2.157,2.157,0,0,0,1.35,1.38,11.952,11.952,0,0,0,3.15.48V65q-2.76-.18-7.62-.18-5.16,0-7.68.18V63.8a11.952,11.952,0,0,0,3.15-.48,2.157,2.157,0,0,0,1.35-1.38,10.836,10.836,0,0,0,.36-3.3V26.48L111.72,65.3h-.96L95.64,26.36V58.04a11.515,11.515,0,0,0,.39,3.48,2.71,2.71,0,0,0,1.53,1.65,10.485,10.485,0,0,0,3.54.63V65q-2.16-.18-6.12-.18-3.6,0-5.58.18V63.8a8.375,8.375,0,0,0,3.12-.63,2.659,2.659,0,0,0,1.38-1.68,12.474,12.474,0,0,0,.36-3.45V28.88a10.836,10.836,0,0,0-.36-3.3,2.157,2.157,0,0,0-1.35-1.38,11.952,11.952,0,0,0-3.15-.48v-1.2q1.98.18,5.58.18,3.12,0,5.1-.18l13.2,34.74,12.9-34.56H129q4.86,0,7.62-.18Zm26.76,18.84q6.6.9,9.42,3.81a9.686,9.686,0,0,1,2.82,6.99,10.761,10.761,0,0,1-1.74,6.06,11.446,11.446,0,0,1-4.98,4.11A18.462,18.462,0,0,1,161.22,65q-1.62,0-2.76-.06-3.84-.12-7.56-.12-4.92,0-7.44.18V63.8a11.952,11.952,0,0,0,3.15-.48,2.157,2.157,0,0,0,1.35-1.38,10.835,10.835,0,0,0,.36-3.3V28.88a10.835,10.835,0,0,0-.36-3.3,2.157,2.157,0,0,0-1.35-1.38,11.952,11.952,0,0,0-3.15-.48v-1.2q2.52.18,7.32.18l6.48-.06q1.14-.06,2.58-.06,6.12,0,9.39,2.58A8.28,8.28,0,0,1,172.5,32a9.775,9.775,0,0,1-2.19,6.24,13.6,13.6,0,0,1-6.93,4.2Zm-5.04-18.84a7.094,7.094,0,0,0-2.79.42,2.375,2.375,0,0,0-1.29,1.5,10.921,10.921,0,0,0-.36,3.24V42.44h4.02q4.92,0,6.87-2.67a11.793,11.793,0,0,0,1.95-7.11q0-4.5-1.98-6.72T158.34,23.72Zm.06,39.9q11.22,0,11.22-10.5,0-4.74-2.55-7.2t-8.13-2.46H153.9V58.64a10.3,10.3,0,0,0,.36,3.18,2.264,2.264,0,0,0,1.29,1.41A7.809,7.809,0,0,0,158.4,63.62Zm54.54-6.3q0,3.42.42,7.68-4.08-.18-13.74-.18-11.52,0-17.4.18V63.8a11.952,11.952,0,0,0,3.15-.48,2.157,2.157,0,0,0,1.35-1.38,10.835,10.835,0,0,0,.36-3.3V28.88a10.835,10.835,0,0,0-.36-3.3,2.157,2.157,0,0,0-1.35-1.38,11.952,11.952,0,0,0-3.15-.48v-1.2q5.88.18,17.4.18,8.82,0,12.54-.18a67.856,67.856,0,0,0-.42,7.08,30.19,30.19,0,0,0,.18,3.72h-1.38a28,28,0,0,0-1.08-5.79,4.842,4.842,0,0,0-2.22-2.76,10.039,10.039,0,0,0-4.74-.87h-4.98a10.849,10.849,0,0,0-3.15.33,2.069,2.069,0,0,0-1.35,1.35,10.836,10.836,0,0,0-.36,3.3V43.04h3.96a4.792,4.792,0,0,0,3.24-.99,4.84,4.84,0,0,0,1.53-2.34,21.572,21.572,0,0,0,.63-3.39l.18-1.2h1.38q-.18,2.52-.18,5.64v2.88q0,3.06.36,8.52h-1.38q-.06-.42-.36-2.91a5.9,5.9,0,0,0-1.65-3.75,5.283,5.283,0,0,0-3.75-1.26h-3.96v14.4a10.836,10.836,0,0,0,.36,3.3,2.069,2.069,0,0,0,1.35,1.35,10.849,10.849,0,0,0,3.15.33h4.38a12.868,12.868,0,0,0,5.67-.99,5.955,5.955,0,0,0,2.85-3.18A24.07,24.07,0,0,0,211.74,53h1.38A40.972,40.972,0,0,0,212.94,57.32ZM257.64,62a10.409,10.409,0,0,1-2.76,2.94,6.611,6.611,0,0,1-3.66.9,5.8,5.8,0,0,1-4.05-1.44,9.406,9.406,0,0,1-2.37-5.04l-1.32-6a40.214,40.214,0,0,0-1.35-4.8,6.178,6.178,0,0,0-1.89-2.7,5.487,5.487,0,0,0-3.54-1.02H231v13.8a10.836,10.836,0,0,0,.36,3.3,2.157,2.157,0,0,0,1.35,1.38,11.952,11.952,0,0,0,3.15.48V65q-2.76-.18-7.62-.18-5.16,0-7.68.18V63.8a11.952,11.952,0,0,0,3.15-.48,2.157,2.157,0,0,0,1.35-1.38,10.835,10.835,0,0,0,.36-3.3V28.88a10.835,10.835,0,0,0-.36-3.3,2.157,2.157,0,0,0-1.35-1.38,11.952,11.952,0,0,0-3.15-.48v-1.2q2.52.18,7.32.18l6.48-.06q1.14-.06,2.58-.06,6.96,0,10.71,2.91a9.1,9.1,0,0,1,3.75,7.53,11.031,11.031,0,0,1-1.11,4.71,11.211,11.211,0,0,1-3.72,4.26,15.6,15.6,0,0,1-6.81,2.55l.72.12a10.717,10.717,0,0,1,5.76,2.4,10.8,10.8,0,0,1,2.64,5.52l1.5,6.12a13.6,13.6,0,0,0,1.26,3.84,2.023,2.023,0,0,0,1.8,1.08,2.69,2.69,0,0,0,1.71-.54,9.44,9.44,0,0,0,1.59-1.74Zm-22.2-38.28a7.094,7.094,0,0,0-2.79.42,2.375,2.375,0,0,0-1.29,1.5,10.921,10.921,0,0,0-.36,3.24V43.64h4.02q5.94,0,8.16-2.64a11.035,11.035,0,0,0,2.22-7.32q0-4.92-2.34-7.44T235.44,23.72Zm38.64-1.86a12.3,12.3,0,0,1,4.17.57,15.441,15.441,0,0,1,3.15,1.65,4.338,4.338,0,0,0,2.04.84.926.926,0,0,0,.84-.63,7.166,7.166,0,0,0,.48-2.01h1.38q-.3,3.48-.3,12.24h-1.38a15.537,15.537,0,0,0-2.79-8.19A8.187,8.187,0,0,0,274.62,23a7.326,7.326,0,0,0-5.28,1.95,6.624,6.624,0,0,0-2.04,5.01,7.317,7.317,0,0,0,1.05,3.96,10.453,10.453,0,0,0,2.67,2.88q1.62,1.2,4.62,3.06l1.74,1.08a60.069,60.069,0,0,1,5.97,4.11,14.6,14.6,0,0,1,3.51,4.05,10.47,10.47,0,0,1,1.32,5.34q0,5.46-3.6,8.43a13.854,13.854,0,0,1-9.12,2.97,15.419,15.419,0,0,1-4.71-.6,16.877,16.877,0,0,1-3.51-1.62,4.338,4.338,0,0,0-2.04-.84.926.926,0,0,0-.84.63,7.166,7.166,0,0,0-.48,2.01H262.5q.24-3.3.24-14.4h1.38a19.61,19.61,0,0,0,3,9.84q2.58,3.78,7.92,3.78a8.057,8.057,0,0,0,5.52-2.01,7.539,7.539,0,0,0,2.28-5.97,7.918,7.918,0,0,0-2.25-5.7,35.94,35.94,0,0,0-7.11-5.28,66.787,66.787,0,0,1-5.73-3.84,13.832,13.832,0,0,1-3.57-4.05,10.832,10.832,0,0,1-1.38-5.55q0-5.04,3.24-7.71A12.223,12.223,0,0,1,274.08,21.86Z" transform="translate(684 106)" fill="#fff"/>
    <path id="Path_495" data-name="Path 495" d="M15.18,58.82q0,2.82,1.29,3.87t4.47,1.05V65q-6.48-.24-8.28-.24-1.68,0-7.8.18L3.42,65V63.74a8.544,8.544,0,0,0,4.77-1.08q1.59-1.08,1.59-3.84V44.3a11.073,11.073,0,0,0-.6-4.23,3.158,3.158,0,0,0-2.01-1.8,15.435,15.435,0,0,0-4.35-.45V36.5a37.426,37.426,0,0,0,7.23-.78,14.349,14.349,0,0,0,5.13-2.28Zm2.76,59.9a9.783,9.783,0,0,1,5.34,1.56,11.158,11.158,0,0,1,3.96,4.53,17.033,17.033,0,0,1-.27,14.55,12.055,12.055,0,0,1-4.77,4.83,13.588,13.588,0,0,1-6.66,1.65,10.469,10.469,0,0,1-9-4.5Q3.3,136.84,3.3,128.8a29.254,29.254,0,0,1,3.21-14.25,24.831,24.831,0,0,1,7.83-8.94,25.362,25.362,0,0,1,9.3-3.99l.24,1.2a24.852,24.852,0,0,0-6.57,3.24,17.178,17.178,0,0,0-5.13,6.3,30.025,30.025,0,0,0-2.82,11.22,8.519,8.519,0,0,1,3.78-3.69A10.87,10.87,0,0,1,17.94,118.72Zm-1.8,25.92q2.94,0,4.86-3.06t1.92-9.36q0-6.12-1.8-8.94a5.383,5.383,0,0,0-4.68-2.82,8.092,8.092,0,0,0-4.17,1.23,7.406,7.406,0,0,0-3.09,3.93q-.06.96-.06,3.06,0,8.64,2.04,12.3T16.14,144.64Z" transform="translate(487 241)" fill="#fff"/>
    <path id="Path_496" data-name="Path 496" d="M14.64,33.26a10.072,10.072,0,0,1,6.6,1.98,6.829,6.829,0,0,1,2.4,5.58,9.662,9.662,0,0,1-1.29,4.77,20.822,20.822,0,0,1-3.12,4.23q-1.83,1.92-4.83,4.62-2.46,2.28-3.66,3.45a19.466,19.466,0,0,0-2.16,2.49H20.76a8.191,8.191,0,0,0,2.43-.27,1.769,1.769,0,0,0,1.11-.9,6.886,6.886,0,0,0,.48-1.89H25.8q0,5.52.24,7.98A68.688,68.688,0,0,0,17.1,65H3.06V63.98q1.02-1.08,3.48-3.42,3.42-3.18,5.7-5.73a27.05,27.05,0,0,0,3.93-5.79,15,15,0,0,0,1.65-6.9q0-6.48-6-6.48-4.92,0-8.04,5.64l-.96-.54a14.291,14.291,0,0,1,4.44-5.37A12.088,12.088,0,0,1,14.64,33.26Zm9.24,82.16q-.9,2.1-3.12,6.42-2.34,4.5-3.78,7.77a44.59,44.59,0,0,0-2.46,7.5,38.162,38.162,0,0,0-1.02,8.97q0,1.2.12,2.88.12,1.32.12,1.86a3.132,3.132,0,0,1-.78,2.22,2.654,2.654,0,0,1-2.04.84,2.32,2.32,0,0,1-2.01-.96,4.007,4.007,0,0,1-.69-2.4,30.337,30.337,0,0,1,1.41-9.12,49.469,49.469,0,0,1,3.42-8.31q2.01-3.81,5.25-9.15l2.82-4.74H6.9a8.191,8.191,0,0,0-2.43.27,1.769,1.769,0,0,0-1.11.9,6.886,6.886,0,0,0-.48,1.89H1.86q0-5.94-.24-8.4a69.6,69.6,0,0,0,8.94.3H23.88Z" transform="translate(651 241)" fill="#fff"/>
    <path id="Path_497" data-name="Path 497" d="M13.62,33.26a9.926,9.926,0,0,1,6.21,1.86,5.952,5.952,0,0,1,2.43,4.98,8.251,8.251,0,0,1-2.61,5.94A16.532,16.532,0,0,1,13.32,50a13.7,13.7,0,0,1,7.86,2.46,7.725,7.725,0,0,1,3.24,6.66,10.815,10.815,0,0,1-3.33,7.74,22.4,22.4,0,0,1-8.46,5.31A29.9,29.9,0,0,1,2.22,74.06V72.98a21.412,21.412,0,0,0,8.04-1.77,15.079,15.079,0,0,0,6.12-4.74,11.825,11.825,0,0,0,2.34-7.35,9.452,9.452,0,0,0-1.74-5.85,6.187,6.187,0,0,0-4.62-2.55q-.24.12-1.23.51a4.628,4.628,0,0,1-1.59.39q-.96,0-.96-.78A.954.954,0,0,1,9.03,50a1.957,1.957,0,0,1,1.11-.3,7.441,7.441,0,0,1,.99.09q.63.09,1.11.15a12.082,12.082,0,0,0,3.48-4.02,9.989,9.989,0,0,0,1.14-4.62,5.41,5.41,0,0,0-1.38-4.08,5.329,5.329,0,0,0-3.84-1.32,8.082,8.082,0,0,0-4.56,1.35,10.44,10.44,0,0,0-3.42,3.99l-1.02-.48Q6.12,33.26,13.62,33.26Zm4.74,87.68q3.36,2.46,5.22,4.11a15.9,15.9,0,0,1,3.21,3.99,10.491,10.491,0,0,1,1.35,5.34,10.788,10.788,0,0,1-1.68,5.97,11.246,11.246,0,0,1-4.62,4.05,14.945,14.945,0,0,1-6.66,1.44,13.893,13.893,0,0,1-8.58-2.61,8.777,8.777,0,0,1-3.48-7.47,11.363,11.363,0,0,1,2.64-7.38,20.811,20.811,0,0,1,6.96-5.4,32.577,32.577,0,0,1-5.64-5.7,10.273,10.273,0,0,1-1.98-6.24,8.524,8.524,0,0,1,1.44-4.89,9.473,9.473,0,0,1,3.96-3.3,13.09,13.09,0,0,1,5.58-1.17,11.3,11.3,0,0,1,7.08,2.16,7.194,7.194,0,0,1,2.82,6.06A9.821,9.821,0,0,1,24,115.84,21.5,21.5,0,0,1,18.36,120.94Zm-2.94-18.18a5.244,5.244,0,0,0-4.05,1.74,6.67,6.67,0,0,0-1.59,4.68,9.055,9.055,0,0,0,1.95,5.85,31.609,31.609,0,0,0,5.73,5.25q3.72-3.54,3.72-9.6a9.921,9.921,0,0,0-1.5-5.76A4.88,4.88,0,0,0,15.42,102.76Zm.12,42a7.362,7.362,0,0,0,5.34-2.1,7.661,7.661,0,0,0,2.16-5.76,10.009,10.009,0,0,0-1.29-5.07,15.952,15.952,0,0,0-3.06-3.87q-1.77-1.62-5.07-4.26Q8.4,127.48,8.4,134.86a13.267,13.267,0,0,0,1.74,7.08A5.9,5.9,0,0,0,15.54,144.76Z" transform="translate(817 241)" fill="#fff"/>
    <path id="Path_498" data-name="Path 498" d="M27.48,62.06a55.4,55.4,0,0,0-6-.3v11.7h-4.8V61.76H1.02V60.5l19.5-27.24h.96V57.74h.72a8.191,8.191,0,0,0,2.43-.27,1.769,1.769,0,0,0,1.11-.9,6.886,6.886,0,0,0,.48-1.89h1.02Q27.24,59.72,27.48,62.06Zm-10.8-4.32V40.58L4.56,57.74Zm-1.26,55.52a10.757,10.757,0,0,1,9,4.17q3.24,4.17,3.24,11.67a24.716,24.716,0,0,1-3.21,12.96,23.635,23.635,0,0,1-7.86,8.19,26.057,26.057,0,0,1-9.27,3.63l-.24-1.2a21.852,21.852,0,0,0,9.24-5.16q3.78-3.6,5.04-11.58a8.113,8.113,0,0,1-3.72,3.39,11.222,11.222,0,0,1-4.62,1.05,9.783,9.783,0,0,1-5.34-1.56,11.158,11.158,0,0,1-3.96-4.53,17.033,17.033,0,0,1,.27-14.55,12.055,12.055,0,0,1,4.77-4.83A13.588,13.588,0,0,1,15.42,113.26Zm-.9,25.38a8.136,8.136,0,0,0,4.05-1.14,7.064,7.064,0,0,0,3.03-3.66,37.972,37.972,0,0,0,.24-4.62q0-7.98-2.04-11.37t-4.98-3.39q-2.94,0-4.86,3.06t-1.92,9.36q0,6.12,1.8,8.94A5.383,5.383,0,0,0,14.52,138.64Z" transform="translate(981 241)" fill="#fff"/>
    <path id="Path_499" data-name="Path 499" d="M20.04,31.1q0,6.12.24,8.76a60.215,60.215,0,0,0-8.34-.3H5.58L4.86,51.14A21.251,21.251,0,0,1,8.1,49.82a12.971,12.971,0,0,1,3.78-.48q5.22,0,7.92,2.55a8.777,8.777,0,0,1,2.7,6.69,12.121,12.121,0,0,1-2.91,7.95,19.133,19.133,0,0,1-7.5,5.43A24.121,24.121,0,0,1,2.7,73.88V72.8a16.13,16.13,0,0,0,6.87-1.62,12.9,12.9,0,0,0,5.22-4.62,13.143,13.143,0,0,0,2.01-7.38,8.346,8.346,0,0,0-1.98-5.91,7.242,7.242,0,0,0-5.58-2.13,10.889,10.889,0,0,0-2.46.24,20.77,20.77,0,0,0-2.46.78l-.6-.36L4.86,33.92a17.271,17.271,0,0,0,3.24.24h6.78a8.191,8.191,0,0,0,2.43-.27,1.769,1.769,0,0,0,1.11-.9,6.886,6.886,0,0,0,.48-1.89ZM18.3,113.26a14.461,14.461,0,0,1,7.5,1.95,13.452,13.452,0,0,1,5.16,5.55,17.784,17.784,0,0,1,1.86,8.28,18.865,18.865,0,0,1-1.92,8.61,14.875,14.875,0,0,1-5.37,6,14.405,14.405,0,0,1-7.89,2.19,14.346,14.346,0,0,1-7.44-1.95,13.651,13.651,0,0,1-5.19-5.55A17.685,17.685,0,0,1,3.12,130a18.977,18.977,0,0,1,1.89-8.55,14.664,14.664,0,0,1,5.34-6A14.514,14.514,0,0,1,18.3,113.26Zm-.54,1.08a6.626,6.626,0,0,0-4.59,1.83,11.9,11.9,0,0,0-3.12,5.34,27.685,27.685,0,0,0-1.11,8.31q0,7.62,2.58,11.28a7.833,7.833,0,0,0,6.66,3.66,6.569,6.569,0,0,0,4.59-1.86,12.13,12.13,0,0,0,3.12-5.37A27.685,27.685,0,0,0,27,129.22q0-7.56-2.58-11.22A7.833,7.833,0,0,0,17.76,114.34Z" transform="translate(1146 241)" fill="#fff"/>
  </g>
</svg>
