<svg xmlns="http://www.w3.org/2000/svg" xmlns:xlink="http://www.w3.org/1999/xlink" width="1680" height="1353" viewBox="0 0 1680 1353">
  <defs>
    <clipPath id="clip-ptmono_characterset">
      <rect width="1680" height="1353"/>
    </clipPath>
  </defs>
  <g id="ptmono_characterset" clip-path="url(#clip-ptmono_characterset)">
    <path id="Path_426" data-name="Path 426" d="M0,0H1688V1357.944H0Z" fill="none"/>
    <path id="Path_531" data-name="Path 531" d="M32.325,51.45H12.15L7.35,66H1.2L18.75,13.5H26.1L43.8,66H37.275ZM14.1,46.05H30.6L22.875,21.375h-.9ZM6,97.5q2.85-.375,5.963-.488T17.25,96.9a29.443,29.443,0,0,1,11.438,1.95,18.653,18.653,0,0,1,7.425,5.437,21.579,21.579,0,0,1,4.05,8.362A43.56,43.56,0,0,1,41.4,123.375a45.727,45.727,0,0,1-1.125,10.238,23.358,23.358,0,0,1-3.9,8.7,19.811,19.811,0,0,1-7.462,6.075,26.687,26.687,0,0,1-11.738,2.288q-.975,0-2.55-.038t-3.225-.15q-1.65-.112-3.15-.187A16.691,16.691,0,0,1,6,150.075Zm11.55,4.95q-1.05,0-2.662.075a16.782,16.782,0,0,0-2.663.3v42a8.117,8.117,0,0,0,1.087.113l1.462.075,1.462.075q.713.038,1.163.038a19.032,19.032,0,0,0,8.887-1.8,13.4,13.4,0,0,0,5.288-4.837,19.366,19.366,0,0,0,2.55-6.975,48.089,48.089,0,0,0,.675-8.137,46.237,46.237,0,0,0-.6-7.387,18.3,18.3,0,0,0-2.438-6.713,14.044,14.044,0,0,0-5.25-4.912A18.268,18.268,0,0,0,17.55,102.45Zm15.225,84.225a31.434,31.434,0,0,0-6.225-.525,16.988,16.988,0,0,0-6.038,1.088,12.588,12.588,0,0,0-5.1,3.637,18.721,18.721,0,0,0-3.525,6.675,34.048,34.048,0,0,0-1.312,10.2q0,11.1,4.088,16.35t11.812,5.25a16.6,16.6,0,0,0,8.175-1.875V212.85H23.85v-5.025H39.975v23.1a14.868,14.868,0,0,1-2.887,1.65,25.421,25.421,0,0,1-3.6,1.275,28.676,28.676,0,0,1-3.975.787,31.777,31.777,0,0,1-4.013.262,23.767,23.767,0,0,1-9-1.612,16.939,16.939,0,0,1-6.75-4.95,23.291,23.291,0,0,1-4.275-8.475,43.463,43.463,0,0,1-1.5-12.113A36.666,36.666,0,0,1,5.85,195.3a24.074,24.074,0,0,1,4.95-8.437,18.667,18.667,0,0,1,7.05-4.762,22.973,22.973,0,0,1,8.175-1.5,46.524,46.524,0,0,1,7.425.487A23.478,23.478,0,0,1,38.4,182.4l-.075.3v12.525h-5.55ZM7.275,265.5h29.7v33.9q0,9.45-4.5,14.4T19.5,318.75a24.271,24.271,0,0,1-4.275-.375,24.659,24.659,0,0,1-3.9-1.013,19.246,19.246,0,0,1-3.113-1.387A7.7,7.7,0,0,1,6.3,314.55L9,309.6q.825.525,1.838,1.125a23.466,23.466,0,0,0,2.25,1.163,15.687,15.687,0,0,0,2.775.938,14.765,14.765,0,0,0,3.487.375q5.625,0,8.513-3.525t2.888-11.4V271.05H7.275Zm27,101.625.75-7.125H34.65l-3.6,6.45L23.4,379.275H21.525l-8.025-12.9L10.05,360H9.675l.9,7.05V402H4.5V349.5h5.775l12.45,19.95h.15l12-19.95H40.5V402H34.275ZM7.5,434.025a37.874,37.874,0,0,1,6.15-.9q3.3-.225,6.525-.225a37.611,37.611,0,0,1,7.013.675,19.014,19.014,0,0,1,6.487,2.475A13.931,13.931,0,0,1,38.438,441a15.755,15.755,0,0,1,1.838,8.025,17.325,17.325,0,0,1-1.725,8.1,15.179,15.179,0,0,1-4.575,5.362,18.514,18.514,0,0,1-6.525,2.963,31.729,31.729,0,0,1-7.575.9H18.638q-.863,0-1.8-.038T15,466.2q-.9-.075-1.275-.15V486H7.5ZM20.325,438.3q-1.95,0-3.75.075a12.719,12.719,0,0,0-2.85.375V460.5a3.981,3.981,0,0,0,1.2.188q.825.037,1.725.075t1.725.037h1.2a26.519,26.519,0,0,0,5.063-.487,13.121,13.121,0,0,0,4.537-1.763,9.314,9.314,0,0,0,3.263-3.6,12.547,12.547,0,0,0,1.237-5.925,10.343,10.343,0,0,0-1.162-5.137,9.293,9.293,0,0,0-3.075-3.3,12.959,12.959,0,0,0-4.313-1.762A22.4,22.4,0,0,0,20.325,438.3ZM11.25,562.575a25.13,25.13,0,0,0,5.063,1.987,20.912,20.912,0,0,0,5.663.787,21.226,21.226,0,0,0,4.65-.487,11.008,11.008,0,0,0,3.788-1.575,8.086,8.086,0,0,0,2.55-2.737,7.765,7.765,0,0,0,.937-3.9,6.606,6.606,0,0,0-2.062-5.025,20.485,20.485,0,0,0-5.137-3.45q-3.075-1.5-6.675-2.925a39.736,39.736,0,0,1-6.675-3.375,18.74,18.74,0,0,1-5.138-4.763A11.8,11.8,0,0,1,6.15,529.95a12.237,12.237,0,0,1,1.237-5.55,12,12,0,0,1,3.488-4.2,16.483,16.483,0,0,1,5.438-2.663A25.072,25.072,0,0,1,23.4,516.6a48.029,48.029,0,0,1,8.175.638,22.656,22.656,0,0,1,5.85,1.688l.15-.075V519h.075l-.075.225v12h-5.55V523.2a40.909,40.909,0,0,0-4.125-.75,36.36,36.36,0,0,0-4.8-.3,15.421,15.421,0,0,0-4.462.6,11.141,11.141,0,0,0-3.375,1.612,7.341,7.341,0,0,0-2.137,2.362,5.783,5.783,0,0,0-.75,2.85,6.431,6.431,0,0,0,2.062,4.875,21.249,21.249,0,0,0,5.138,3.487q3.075,1.537,6.675,3.037a42.074,42.074,0,0,1,6.675,3.488,19.539,19.539,0,0,1,5.138,4.762,11.246,11.246,0,0,1,2.063,6.9,14.417,14.417,0,0,1-1.238,6.075,13.36,13.36,0,0,1-3.525,4.65,15.911,15.911,0,0,1-5.625,3A25.077,25.077,0,0,1,22.2,570.9a31.057,31.057,0,0,1-5.4-.45,36.788,36.788,0,0,1-8.513-2.55q-1.688-.75-2.663-1.275L5.7,566.4V554.25h5.55Zm11.4,83.7h.825L37.725,601.5H43.95L26.325,654H19.05l-18-52.5H7.875ZM19.425,717.9.675,685.5H7.95l15,25.95h.075L37.65,685.5h6.675L25.65,717.825V738H19.425Z" transform="translate(93 260)" fill="#0cb1f2"/>
    <path id="Path_536" data-name="Path 536" d="M8.1,31.425a23.823,23.823,0,0,1,7.275-2.7,39.766,39.766,0,0,1,7.95-.825,14.191,14.191,0,0,1,6.263,1.2,10.143,10.143,0,0,1,3.825,3.112,10.974,10.974,0,0,1,1.875,4.35,24.989,24.989,0,0,1,.488,4.912q0,2.85-.15,6.075T35.4,54a53.935,53.935,0,0,0,.45,7.125h5.025V66H30.9l-.675-5.625H29.85A19.147,19.147,0,0,1,28.5,62.1a12.35,12.35,0,0,1-2.362,2.063,15.265,15.265,0,0,1-3.562,1.763,14.727,14.727,0,0,1-4.95.75q-5.55,0-8.775-2.85a9.874,9.874,0,0,1-3.225-7.8A11.313,11.313,0,0,1,7.312,49.65a10.645,10.645,0,0,1,4.838-3.9,22.164,22.164,0,0,1,7.613-1.575,51.128,51.128,0,0,1,10.013.6,26.589,26.589,0,0,0,.112-5.738,7.9,7.9,0,0,0-1.2-3.637,5.024,5.024,0,0,0-2.625-1.913,13.3,13.3,0,0,0-4.163-.562,22,22,0,0,0-6.45.938q-3.075.938-5.475,1.913ZM19.125,61.65a11.019,11.019,0,0,0,3.9-.675,11.89,11.89,0,0,0,3.15-1.725,11.428,11.428,0,0,0,2.25-2.287,11.058,11.058,0,0,0,1.35-2.363V49.35a42.433,42.433,0,0,0-7.2-.675,20.159,20.159,0,0,0-5.7.713,7.948,7.948,0,0,0-3.75,2.212,5.608,5.608,0,0,0-1.35,3.9,6.17,6.17,0,0,0,1.687,4.313Q15.15,61.65,19.125,61.65Zm7.05,35.85h12.15v39.675q0,.675.075,1.688T38.588,141q.112,1.125.263,2.212t.3,1.913h5.025V150H34.2l-.75-5.775h-.3a13.244,13.244,0,0,1-4.913,4.762A14.627,14.627,0,0,1,20.7,150.9q-8.475,0-12.487-4.762T4.2,131.325a23.95,23.95,0,0,1,1.35-8.362,16.139,16.139,0,0,1,3.862-6.075,16.7,16.7,0,0,1,6.038-3.712,23.026,23.026,0,0,1,7.875-1.275q1.575,0,2.813.075t2.288.225a15.5,15.5,0,0,1,1.987.413q.938.262,2.062.563v-10.65h-6.3Zm-4.5,48.375a10.37,10.37,0,0,0,7.2-2.363,12.666,12.666,0,0,0,3.6-7.087v-17.4a11.615,11.615,0,0,0-3.712-1.65,22.781,22.781,0,0,0-5.438-.525q-6,0-9.45,3.488t-3.45,10.987a27.742,27.742,0,0,0,.563,5.738,12.972,12.972,0,0,0,1.875,4.613,9.237,9.237,0,0,0,3.488,3.075A11.487,11.487,0,0,0,21.675,145.875Zm17.625,90a13.507,13.507,0,0,1-1.35,6.188,12.153,12.153,0,0,1-3.712,4.387,16.749,16.749,0,0,1-5.513,2.588,25.77,25.77,0,0,1-6.825.862,29.534,29.534,0,0,1-7.725-.9,22.981,22.981,0,0,1-5.7-2.325l2.85-5.325a8.607,8.607,0,0,0,1.763,1.162,18.574,18.574,0,0,0,2.512,1.05,21.56,21.56,0,0,0,3.038.788,17.4,17.4,0,0,0,3.188.3,21.438,21.438,0,0,0,5.512-.6,8.212,8.212,0,0,0,3.563-1.875,7.272,7.272,0,0,0,1.95-3.3,17.629,17.629,0,0,0,.6-4.95v-4.2h-.3a11.676,11.676,0,0,1-4.425,3.825,15.612,15.612,0,0,1-6.975,1.35q-8.55,0-12.562-4.762T5.175,215.325q0-9.6,5.1-14.512t15.15-4.913a41.983,41.983,0,0,1,7.913.638A40.365,40.365,0,0,1,39.3,198.15Zm-16.725-6a10.37,10.37,0,0,0,7.2-2.363q2.625-2.362,3.675-7.238V202.5q-3.3-1.575-9.225-1.575-6,0-9.45,3.525t-3.45,10.8a26.813,26.813,0,0,0,.6,5.887,13.486,13.486,0,0,0,1.913,4.613,9.008,9.008,0,0,0,3.45,3.038A11.582,11.582,0,0,0,22.575,229.875Zm2.625,55.65H7.05V280.5H31.2v38.4q0,7.575-3.863,11.288T16.65,333.9a14.806,14.806,0,0,1-3.937-.525,27.03,27.03,0,0,1-3.562-1.237,23.786,23.786,0,0,1-2.888-1.463q-1.237-.75-1.837-1.2L6.9,324.6a23.367,23.367,0,0,0,4.613,2.625,13.315,13.315,0,0,0,5.362,1.125q4.5,0,6.413-2.812a13.657,13.657,0,0,0,1.912-7.763ZM22.05,269.85a4.965,4.965,0,0,1,1.35-3.488,4.487,4.487,0,0,1,3.45-1.462,4.938,4.938,0,0,1,3.638,1.462,4.761,4.761,0,0,1,1.462,3.488,4.32,4.32,0,0,1-1.462,3.3,5.159,5.159,0,0,1-3.638,1.35,4.672,4.672,0,0,1-3.45-1.35A4.489,4.489,0,0,1,22.05,269.85ZM19.65,402V377.025q0-1.575-.112-3.038a10.175,10.175,0,0,0-.525-2.625,4.212,4.212,0,0,0-1.2-1.837,3.059,3.059,0,0,0-2.063-.675,5.429,5.429,0,0,0-4.312,2.1,14.052,14.052,0,0,0-2.663,5.25V402h-5.7V364.5h3.9L8.1,369.075h.3q.75-1.125,1.462-2.138a8.523,8.523,0,0,1,1.65-1.763,6.9,6.9,0,0,1,2.212-1.162,10.649,10.649,0,0,1,3.225-.413,8.573,8.573,0,0,1,2.325.337,7.206,7.206,0,0,1,2.213,1.05A6.52,6.52,0,0,1,23.25,366.9a7.22,7.22,0,0,1,.975,2.925,15.843,15.843,0,0,1,3.862-4.575,9.417,9.417,0,0,1,5.888-1.65,8.472,8.472,0,0,1,4.012.825,5.9,5.9,0,0,1,2.4,2.363,10.96,10.96,0,0,1,1.2,3.675,30.686,30.686,0,0,1,.338,4.763V402h-5.7V376.5a27.613,27.613,0,0,0-.15-2.962,9.448,9.448,0,0,0-.562-2.437,4.03,4.03,0,0,0-1.125-1.65,2.873,2.873,0,0,0-1.913-.6,5.609,5.609,0,0,0-4.425,2.1,13.949,13.949,0,0,0-2.7,6V402ZM7.2,461.625q0-.675-.038-1.763t-.113-2.25q-.075-1.162-.187-2.287t-.262-1.95H1.575V448.5H11.55l.75,5.25h.375a16.919,16.919,0,0,1,5.137-4.388,15.238,15.238,0,0,1,7.612-1.762q8.025,0,12.075,4.425T41.55,466.5a24.616,24.616,0,0,1-1.388,8.513,17.9,17.9,0,0,1-3.937,6.412,17.357,17.357,0,0,1-6.15,4.05,21.422,21.422,0,0,1-7.95,1.425q-1.575,0-2.812-.112t-2.25-.3A17.734,17.734,0,0,1,15.075,486q-.975-.3-2.1-.75V501H7.2Zm17.25-8.55a10.942,10.942,0,0,0-4.238.825,12.642,12.642,0,0,0-3.525,2.175,12.347,12.347,0,0,0-2.513,3,8.823,8.823,0,0,0-1.2,3.3v17.1a13.751,13.751,0,0,0,3.713,1.762,18.926,18.926,0,0,0,5.437.638,12.378,12.378,0,0,0,9.6-3.937q3.6-3.937,3.6-11.513,0-6.375-2.513-9.862T24.45,453.075Zm8.4,106.8a4.267,4.267,0,0,0-1.875-3.713,15.385,15.385,0,0,0-4.65-2.1q-2.775-.787-6.038-1.463a34.832,34.832,0,0,1-6.038-1.8,13.528,13.528,0,0,1-4.65-3.037A7.335,7.335,0,0,1,7.725,542.4a9.173,9.173,0,0,1,1.237-4.875,10.4,10.4,0,0,1,3.263-3.338,14.912,14.912,0,0,1,4.725-1.95,24.4,24.4,0,0,1,5.625-.638,27.692,27.692,0,0,1,9.037,1.313,29.581,29.581,0,0,1,6.037,2.738l-2.4,4.725q-2.475-1.35-5.363-2.588a18.44,18.44,0,0,0-7.237-1.237,15.88,15.88,0,0,0-3.262.338,11.528,11.528,0,0,0-2.925,1.013,5.83,5.83,0,0,0-2.1,1.762,4.418,4.418,0,0,0-.787,2.663,3.283,3.283,0,0,0,1.875,3,19.463,19.463,0,0,0,4.65,1.763q2.775.712,6.038,1.35a29.35,29.35,0,0,1,6.037,1.838,13.586,13.586,0,0,1,4.65,3.225,7.742,7.742,0,0,1,1.875,5.475,10.617,10.617,0,0,1-4.087,8.55Q30.525,570.9,22.35,570.9a26.4,26.4,0,0,1-4.875-.45,29.566,29.566,0,0,1-4.5-1.2,27.076,27.076,0,0,1-3.825-1.687A16.087,16.087,0,0,1,6.3,565.65l3-4.875a13.588,13.588,0,0,0,2.4,1.837,22.63,22.63,0,0,0,7.163,2.888,19.472,19.472,0,0,0,4.163.45,20.135,20.135,0,0,0,3.787-.338,11.114,11.114,0,0,0,3.113-1.05,5.786,5.786,0,0,0,2.138-1.875A4.9,4.9,0,0,0,32.85,559.875Zm-10.2,86.85h.825L35.25,616.5h6.525L25.95,654h-6.6L3.225,616.5h6.9Zm.675,85.5h2.85l9.3-31.725H41.55L31.125,734.175q-.825,2.625-1.687,5.963A27.854,27.854,0,0,1,27,746.4a15.036,15.036,0,0,1-4.275,4.95,11.448,11.448,0,0,1-7.05,2.025,10.2,10.2,0,0,1-2.062-.225,20.668,20.668,0,0,1-2.138-.562,13.8,13.8,0,0,1-1.95-.788,5.235,5.235,0,0,1-1.35-.9l2.1-5.4a5.948,5.948,0,0,0,1.238.75,10.745,10.745,0,0,0,1.725.638q.938.262,1.838.45a7.609,7.609,0,0,0,1.5.188q5.625,0,7.65-9.525H19.2L3.45,700.5H10.2Z" transform="translate(1016 252)" fill="#0cb1f2"/>
    <path id="Path_532" data-name="Path 532" d="M39.15,25.5a12.965,12.965,0,0,1-.6,3.825,12.671,12.671,0,0,1-1.8,3.638,12,12,0,0,1-3.075,2.963,14.318,14.318,0,0,1-4.425,1.95v.3a18.236,18.236,0,0,1,4.313,1.275A11.732,11.732,0,0,1,37.2,41.925a12.2,12.2,0,0,1,2.55,3.825,13.323,13.323,0,0,1,.975,5.325,13.935,13.935,0,0,1-1.687,7.013,14.432,14.432,0,0,1-4.425,4.837A19.522,19.522,0,0,1,28.35,65.7a28.99,28.99,0,0,1-7.2.9h-3q-1.725,0-3.6-.112t-3.75-.3a21.465,21.465,0,0,1-3.3-.562V13.95q2.775-.45,6.45-.75t8.025-.3a37.591,37.591,0,0,1,5.962.487,16.529,16.529,0,0,1,5.513,1.875,11.607,11.607,0,0,1,4.088,3.863A11.482,11.482,0,0,1,39.15,25.5ZM21.75,61.2a17.969,17.969,0,0,0,4.65-.6,12.562,12.562,0,0,0,3.975-1.8,8.977,8.977,0,0,0,2.737-3,8.583,8.583,0,0,0,1.013-4.275,8.853,8.853,0,0,0-1.237-4.95,8.64,8.64,0,0,0-3.225-2.925A13.954,13.954,0,0,0,25.2,42.225a33,33,0,0,0-4.95-.375H13.725V60.675a8.014,8.014,0,0,0,1.5.225q.975.075,2.1.15t2.325.112Q20.85,61.2,21.75,61.2ZM17.625,36.6q1.275,0,3.075-.075t3-.225a20.517,20.517,0,0,0,3.375-1.462,12.95,12.95,0,0,0,2.812-2.062,9.3,9.3,0,0,0,1.95-2.7,7.592,7.592,0,0,0,.712-3.3,8.254,8.254,0,0,0-.937-4.125A7.235,7.235,0,0,0,29.1,20.025a10.351,10.351,0,0,0-3.6-1.35,22.606,22.606,0,0,0-4.125-.375q-2.475,0-4.538.112a21.645,21.645,0,0,0-3.113.338V36.6Zm-9.6,60.9H38.85v5.55H14.25v17.175H36.975v5.55H14.25V144.45H39.225V150H8.025Zm26.25,112.425H10.725V234H4.5V181.5h6.225v22.875h23.55V181.5H40.5V234H34.275ZM18.375,293.7H12.6V318H6.375V265.5H12.6v23.4h5.625L35.1,265.5h7.2L23.775,290.475,44.625,318H36.75ZM14.7,369.15l-4.05-7.575h-.3l.75,7.575V402H5.25V349.5H9.3l21.15,32.7,3.9,7.2h.375l-.825-7.2V349.5h5.85V402H35.7ZM3.6,459.75q0-13.05,4.612-20.1t14.212-7.05a18.6,18.6,0,0,1,8.888,1.95,15.568,15.568,0,0,1,5.888,5.513,24.775,24.775,0,0,1,3.225,8.55A58.264,58.264,0,0,1,41.4,459.75q0,12.075-3.825,18.938a15.353,15.353,0,0,1-12,7.987,6.665,6.665,0,0,0,2.513,3.938,7.871,7.871,0,0,0,4.688,1.313,10.4,10.4,0,0,0,5.775-1.65l1.65,4.575a7.149,7.149,0,0,1-3.263,1.913,14.954,14.954,0,0,1-4.612.712,16.324,16.324,0,0,1-4.163-.562,12.957,12.957,0,0,1-4.013-1.837,11.85,11.85,0,0,1-5.1-8.475,15.683,15.683,0,0,1-7.2-2.738,16.16,16.16,0,0,1-4.763-5.625,27.8,27.8,0,0,1-2.662-8.175A59.657,59.657,0,0,1,3.6,459.75Zm6.6,0a57.81,57.81,0,0,0,.562,8.25,23.517,23.517,0,0,0,1.988,6.862,12.709,12.709,0,0,0,3.75,4.725,9.534,9.534,0,0,0,5.925,1.763q6.45,0,9.413-5.25T34.8,459.75a58.044,58.044,0,0,0-.562-8.212,23.547,23.547,0,0,0-1.987-6.9,12.4,12.4,0,0,0-3.825-4.725,9.864,9.864,0,0,0-6-1.763,9.866,9.866,0,0,0-9.3,5.288Q10.2,448.725,10.2,459.75ZM3,517.5H42v13.725H36.45V523.05H25.575v41.4h8.25V570H11.1v-5.55h8.25v-41.4H8.55v8.175H3Zm9.975,121.425.375,4.875h.525l1.05-5.325L20.475,618h4.95L30.6,638.325l1.35,5.55h.375l.45-5.1,5.55-37.275h5.55l-8.1,52.5H29.55l-6.075-21.3-.75-5.1H22.5l-.825,5.175L15.6,654H9.3L1.125,601.5H7.05Zm-8.85,93.45L33.75,691.05H4.125V685.5h36.75v5.625L11.1,732.45H40.875V738H4.125Z" transform="translate(345 260)" fill="#0cb1f2"/>
    <path id="Path_544" data-name="Path 544" d="M.15,13.5h12V32.775h.375A12.842,12.842,0,0,1,17.55,28.95a16.42,16.42,0,0,1,6.675-1.35q16.5,0,16.5,19.05,0,9.675-5.325,14.813T20.25,66.6a36.062,36.062,0,0,1-8.4-.9,16.838,16.838,0,0,1-5.475-2.1V18.525H.15ZM23.475,32.625a10.329,10.329,0,0,0-7.275,2.55,14.832,14.832,0,0,0-4.05,7.2v17.25a16.581,16.581,0,0,0,4.125,1.425,23.457,23.457,0,0,0,5.025.525,16.217,16.217,0,0,0,5.437-.862,10.358,10.358,0,0,0,4.163-2.7,12.387,12.387,0,0,0,2.663-4.687,21.679,21.679,0,0,0,.938-6.75,23.517,23.517,0,0,0-.6-5.4,13.109,13.109,0,0,0-1.912-4.462,9.2,9.2,0,0,0-3.412-3A10.981,10.981,0,0,0,23.475,32.625Zm16.2,112.65a18.875,18.875,0,0,1-3.187,2.25,23.52,23.52,0,0,1-4.013,1.8,29.418,29.418,0,0,1-4.537,1.163,27.638,27.638,0,0,1-4.763.412,21.188,21.188,0,0,1-7.95-1.387,15.31,15.31,0,0,1-5.775-3.975,17.323,17.323,0,0,1-3.525-6.187,25.535,25.535,0,0,1-1.2-8.1,24.9,24.9,0,0,1,1.313-8.4,16.3,16.3,0,0,1,3.787-6.15,16.5,16.5,0,0,1,6-3.787A22.43,22.43,0,0,1,23.7,111.6a23.923,23.923,0,0,1,6.225.825,12.293,12.293,0,0,1,5.437,3.112,14.83,14.83,0,0,1,3.638,6.3,29.322,29.322,0,0,1,.9,10.388H10.875q0,6.75,3.637,10.087t9.713,3.337a16.785,16.785,0,0,0,4.013-.487A33.523,33.523,0,0,0,32.025,144a19.929,19.929,0,0,0,3.188-1.5A13.849,13.849,0,0,0,37.35,141ZM23.85,116.55a20.25,20.25,0,0,0-4.687.525,10.685,10.685,0,0,0-3.9,1.763,9.7,9.7,0,0,0-2.775,3.225,12.935,12.935,0,0,0-1.387,4.912H34.425a11.515,11.515,0,0,0-3.187-7.687A10.141,10.141,0,0,0,23.85,116.55ZM.3,181.5H12v19.65h.375a16.8,16.8,0,0,1,5.4-4.087,17.766,17.766,0,0,1,7.65-1.462,23.237,23.237,0,0,1,6.263.75,8.976,8.976,0,0,1,4.35,2.625,11.92,11.92,0,0,1,2.512,5.137,34.613,34.613,0,0,1,.825,8.287V234h-5.85V213.525a36.906,36.906,0,0,0-.375-5.625,9.8,9.8,0,0,0-1.462-4.012,6.776,6.776,0,0,0-2.963-2.437,11.994,11.994,0,0,0-4.8-.825,11.5,11.5,0,0,0-3.975.712,13.324,13.324,0,0,0-3.562,1.95,12.242,12.242,0,0,0-2.775,3A11.221,11.221,0,0,0,12,210.15V234H6.225V186.525H.3Zm1.5,84H13.95v31.05h4.125L32.85,280.5H39.9L23.325,298.275l13.65,14.7H41.85V318H34.125l-16.05-16.95H13.95V318H8.175V270.525H1.8ZM6.975,377.625q0-.675-.038-1.763t-.113-2.25q-.075-1.162-.187-2.287t-.262-1.95H1.35V364.5H11.4l.675,6.075h.375a12.679,12.679,0,0,1,1.988-2.513,15.59,15.59,0,0,1,2.888-2.25A15.3,15.3,0,0,1,21,364.2a14.972,14.972,0,0,1,4.275-.6,22.6,22.6,0,0,1,6.112.75,9.313,9.313,0,0,1,4.425,2.663,12.347,12.347,0,0,1,2.663,5.175,31.847,31.847,0,0,1,.9,8.288V402h-5.85V381.6q0-6.225-2.025-9.375t-7.35-3.15a9.524,9.524,0,0,0-3.788.787,13.071,13.071,0,0,0-3.337,2.063,14.2,14.2,0,0,0-2.625,2.963,12.442,12.442,0,0,0-1.65,3.563V402H6.975ZM38.625,501h-5.85V481.8h-.3a11.37,11.37,0,0,1-4.425,3.788,16,16,0,0,1-6.975,1.313q-8.55,0-12.562-4.762T4.5,467.325q0-9.6,5.1-14.513T24.75,447.9a42.881,42.881,0,0,1,8.25.75,26.924,26.924,0,0,1,5.625,1.575Zm-16.65-19.125q8.925,0,10.8-9.375V454.425a13.043,13.043,0,0,0-3.938-1.162,36.013,36.013,0,0,0-5.212-.338q-6,0-9.45,3.45t-3.45,10.875a28.535,28.535,0,0,0,.563,5.888A12.572,12.572,0,0,0,13.2,477.75a9.305,9.305,0,0,0,3.488,3.038A11.581,11.581,0,0,0,21.975,481.875ZM2.325,532.5H11.25v-7.425l5.85-1.65V532.5H37.125v5.025H17.1v17.7q0,5.475,2.663,8.1t7.612,2.625a12.85,12.85,0,0,0,5.888-1.275A31.722,31.722,0,0,0,37.8,561.9l1.95,4.425a21.1,21.1,0,0,1-6.262,3.375,22.4,22.4,0,0,1-7.462,1.275,18.263,18.263,0,0,1-5.663-.862,13,13,0,0,1-4.687-2.662,12.751,12.751,0,0,1-3.225-4.612,17.043,17.043,0,0,1-1.2-6.713v-18.6H2.325Zm23.1,92.25,7.5,20.85h.525l5.325-29.1H44.25L36.9,654H30.225l-7.2-20.7H22.8L15.3,654H8.625L.75,616.5H6.525L12.6,645.75h.45l7.275-21ZM6.3,732.975l25.425-27.45H6.3V700.5H38.7v5.025l-25.65,27.45H38.7V738H6.3Z" transform="translate(1268 252)" fill="#0cb1f2"/>
    <path id="Path_533" data-name="Path 533" d="M34.35,19.2a13.21,13.21,0,0,0-2.812-.788,22.457,22.457,0,0,0-3.713-.263,16.88,16.88,0,0,0-6.038,1.125,13.4,13.4,0,0,0-5.25,3.675,18.876,18.876,0,0,0-3.675,6.675A32.045,32.045,0,0,0,11.475,39.75a32.44,32.44,0,0,0,1.238,9.45,19.518,19.518,0,0,0,3.45,6.75A14.021,14.021,0,0,0,21.488,60a17.259,17.259,0,0,0,6.938,1.35,18.546,18.546,0,0,0,3.637-.337,16.184,16.184,0,0,0,3.112-.937v-7.5h5.55V62.7l.075.15a19.6,19.6,0,0,1-5.7,2.888A26.5,26.5,0,0,1,26.7,66.9a23.218,23.218,0,0,1-8.738-1.613,18.265,18.265,0,0,1-6.937-4.912,22.841,22.841,0,0,1-4.537-8.437A40.9,40.9,0,0,1,4.875,39.75a37.992,37.992,0,0,1,1.8-12.487,23.273,23.273,0,0,1,4.875-8.4A18.49,18.49,0,0,1,18.712,14.1a25.163,25.163,0,0,1,8.737-1.5q2.55,0,4.425.188a25.437,25.437,0,0,1,3.3.525,12.3,12.3,0,0,1,2.513.863,20.159,20.159,0,0,1,2.138,1.2H39.9v11.85H34.35ZM8.775,97.5H38.85v5.55H15v17.925H37.35v5.55H15V150H8.775ZM4.5,181.5h36v5.55H25.575v41.4H40.5V234H4.5v-5.55H19.35v-41.4H4.5Zm2.25,84h6.225v46.95H34.2V299.4h5.55V318h-33ZM3.6,375.75q0-13.05,4.612-20.1t14.212-7.05a18.6,18.6,0,0,1,8.888,1.95,15.568,15.568,0,0,1,5.888,5.513,24.775,24.775,0,0,1,3.225,8.55A58.264,58.264,0,0,1,41.4,375.75q0,13.05-4.612,20.1T22.425,402.9a18.208,18.208,0,0,1-8.775-1.95,15.65,15.65,0,0,1-5.85-5.513,24.775,24.775,0,0,1-3.225-8.55A58.264,58.264,0,0,1,3.6,375.75Zm6.6,0a57.81,57.81,0,0,0,.562,8.25,23.517,23.517,0,0,0,1.988,6.862,12.709,12.709,0,0,0,3.75,4.725,9.534,9.534,0,0,0,5.925,1.763q6.45,0,9.413-5.25T34.8,375.75a58.044,58.044,0,0,0-.562-8.212,23.547,23.547,0,0,0-1.987-6.9,12.4,12.4,0,0,0-3.825-4.725,9.864,9.864,0,0,0-6-1.763,9.866,9.866,0,0,0-9.3,5.288Q10.2,364.725,10.2,375.75ZM7.5,434.025a65.894,65.894,0,0,1,6.563-.825q3.713-.3,6.788-.3a27.931,27.931,0,0,1,6.563.75,15.217,15.217,0,0,1,5.475,2.475,12.585,12.585,0,0,1,3.787,4.5,14.639,14.639,0,0,1,1.425,6.75,13.7,13.7,0,0,1-1.013,5.438,15.665,15.665,0,0,1-8.213,8.288L42.75,486H35.475L23.1,462.9H13.725V486H7.5ZM21,438.3H18.975q-1.05,0-2.025.075t-1.837.15a7.631,7.631,0,0,0-1.388.225V458.1h5.85a13.786,13.786,0,0,0,8.55-2.55Q31.5,453,31.5,447.6a8.789,8.789,0,0,0-2.775-6.675Q25.95,438.3,21,438.3Zm13.5,79.2h6v35.025a24.243,24.243,0,0,1-1.237,8.175,14.8,14.8,0,0,1-3.487,5.662,13.742,13.742,0,0,1-5.475,3.263,22.918,22.918,0,0,1-7.125,1.05q-9.3,0-13.987-4.2T4.5,553.725V517.5h6.225v33.3a24.6,24.6,0,0,0,.788,6.713,10.95,10.95,0,0,0,2.325,4.425,8.732,8.732,0,0,0,3.9,2.438,18.26,18.26,0,0,0,5.513.75q6.075,0,8.663-3.338T34.5,550.8ZM18.825,627.3,3,601.5h7.5L21,619.275l1.875,3.525,1.8-3.525L35.85,601.5h6.9L26.325,626.775,43.5,654H36.225L24.45,635.175l-2.025-3.75-1.95,3.75L8.475,654H1.5Zm.6,58.2H25.65v26.025l-1.275,13.2H20.7l-1.275-13.2ZM18.15,734.55a4.307,4.307,0,0,1,1.163-3.187,4.206,4.206,0,0,1,3.112-1.162,4.438,4.438,0,0,1,3.225,1.162,4.784,4.784,0,0,1,0,6.338,4.358,4.358,0,0,1-3.225,1.2,4.134,4.134,0,0,1-3.112-1.2A4.336,4.336,0,0,1,18.15,734.55Z" transform="translate(607 260)" fill="#0cb1f2"/>
    <path id="Path_545" data-name="Path 545" d="M32.925,34.275a29.63,29.63,0,0,0-3.712-1.013,19.335,19.335,0,0,0-3.937-.413q-7.35,0-10.95,3.45t-3.6,10.95a15.549,15.549,0,0,0,1.05,5.888,12.042,12.042,0,0,0,3,4.388A13.485,13.485,0,0,0,19.462,60.3a17.886,17.886,0,0,0,6.038.975,20.135,20.135,0,0,0,6.862-1.2,17.438,17.438,0,0,0,5.587-3.15l2.625,4.35A21.231,21.231,0,0,1,37.95,63.15a25.915,25.915,0,0,1-3.637,1.838,25.222,25.222,0,0,1-4.575,1.387A26.581,26.581,0,0,1,24.3,66.9a24.455,24.455,0,0,1-8.587-1.388,16.31,16.31,0,0,1-6.187-3.975,17.013,17.013,0,0,1-3.75-6.225A24.243,24.243,0,0,1,4.5,47.25a24.9,24.9,0,0,1,1.313-8.4A16.3,16.3,0,0,1,9.6,32.7a16.5,16.5,0,0,1,6-3.788A22.43,22.43,0,0,1,23.475,27.6a34.454,34.454,0,0,1,9.038.975A33.388,33.388,0,0,1,38.4,30.75l-.075.225V41.4h-5.4ZM6.6,150v-5.025h8.925v-27.45H6.6V112.5h8.925v-2.1q0-7.05,3.675-10.2t10.5-3.15a29.322,29.322,0,0,1,4.425.3,19.3,19.3,0,0,1,4.2,1.2l-1.35,4.875a15.332,15.332,0,0,0-3.75-1.088,23.011,23.011,0,0,0-3.3-.262q-4.95,0-6.75,2.438t-1.8,7.988H36.9v5.025H21.375v27.45H36.9V150Zm1.275,84v-5.025h13.05v-27.45H7.875V196.5h19.05v32.475h12.75V234ZM18.9,185.85a4.965,4.965,0,0,1,1.35-3.488A4.487,4.487,0,0,1,23.7,180.9a4.938,4.938,0,0,1,3.637,1.463A4.761,4.761,0,0,1,28.8,185.85a4.32,4.32,0,0,1-1.463,3.3A5.159,5.159,0,0,1,23.7,190.5a4.672,4.672,0,0,1-3.45-1.35A4.489,4.489,0,0,1,18.9,185.85ZM8.925,265.5h12.45v39.9q0,4.575,1.538,6.45a5.526,5.526,0,0,0,4.537,1.875,10.892,10.892,0,0,0,4.013-.75,17.743,17.743,0,0,0,4.238-2.55l2.7,4.125a16.614,16.614,0,0,1-2.625,1.875,19.53,19.53,0,0,1-5.925,2.25,14.216,14.216,0,0,1-2.775.3,15.876,15.876,0,0,1-4.95-.712,8.458,8.458,0,0,1-3.637-2.288,10.164,10.164,0,0,1-2.212-4.163,23.381,23.381,0,0,1-.75-6.413V270.525h-6.6ZM4.275,383.25q0-9.075,4.725-14.362T22.5,363.6a19.7,19.7,0,0,1,8.137,1.538A15.971,15.971,0,0,1,36.3,369.3a16.973,16.973,0,0,1,3.338,6.225,26.588,26.588,0,0,1,1.087,7.725,25.886,25.886,0,0,1-1.2,8.138A16.9,16.9,0,0,1,36,397.575a15.576,15.576,0,0,1-5.738,3.938A20.465,20.465,0,0,1,22.5,402.9a19.758,19.758,0,0,1-8.1-1.538A15.9,15.9,0,0,1,8.7,397.2a16.973,16.973,0,0,1-3.337-6.225A26.588,26.588,0,0,1,4.275,383.25Zm6.225,0a22.175,22.175,0,0,0,.637,5.25,14.376,14.376,0,0,0,2.063,4.725,10.72,10.72,0,0,0,3.713,3.375,11.328,11.328,0,0,0,5.587,1.275q6,0,9.038-3.712t3.038-10.913a22.021,22.021,0,0,0-.638-5.288,13.971,13.971,0,0,0-2.1-4.687,11.068,11.068,0,0,0-3.75-3.375,11.328,11.328,0,0,0-5.587-1.275q-6,0-9,3.675T10.5,383.25ZM4.95,486v-5.025H15.075v-27.45H4.95V448.5H18.975l1.2,4.875h.375a27.032,27.032,0,0,1,5.7-3.975,15.964,15.964,0,0,1,7.5-1.65,7.551,7.551,0,0,1,4.087.975,6.463,6.463,0,0,1,2.4,2.85,14.845,14.845,0,0,1,1.162,4.537,54.4,54.4,0,0,1,.3,6.038l-5.25.075a19.582,19.582,0,0,0-.937-7.05,3.406,3.406,0,0,0-3.413-2.25,12.335,12.335,0,0,0-4.2.675,13.74,13.74,0,0,0-3.263,1.65,17.853,17.853,0,0,0-2.363,1.95,11.632,11.632,0,0,0-1.425,1.65v22.125h14.4V486Zm22.275,46.5h10.65v25.575a53.334,53.334,0,0,0,.45,7.05H43.35V570H33.375l-.225-6.375h-.3a15.742,15.742,0,0,1-5.175,5.25,14.376,14.376,0,0,1-7.8,2.025,19.289,19.289,0,0,1-5.887-.788,8.337,8.337,0,0,1-4.012-2.737,12.736,12.736,0,0,1-2.325-5.213,37.1,37.1,0,0,1-.75-8.137v-16.5H1.875V532.5H12.75v20.325a51.929,51.929,0,0,0,.262,5.513,12.413,12.413,0,0,0,1.087,4.125,5.6,5.6,0,0,0,2.438,2.55,9.172,9.172,0,0,0,4.313.862,9.925,9.925,0,0,0,6.787-2.55,16.278,16.278,0,0,0,4.387-6.375V537.525h-4.8Zm-8.25,102.3L4.5,616.5H12l10.8,14.1,11.1-14.1h6.75l-14.475,18L41.55,654h-7.2L22.425,638.625,10.275,654H3.45Zm.45,50.7H25.65v26.025l-1.275,13.2H20.7l-1.275-13.2ZM18.15,734.55a4.307,4.307,0,0,1,1.163-3.187,4.206,4.206,0,0,1,3.112-1.162,4.438,4.438,0,0,1,3.225,1.162,4.784,4.784,0,0,1,0,6.338,4.358,4.358,0,0,1-3.225,1.2,4.134,4.134,0,0,1-3.112-1.2A4.336,4.336,0,0,1,18.15,734.55Z" transform="translate(1530 252)" fill="#0cb1f2"/>
    <path id="Path_535" data-name="Path 535" d="M0,0V751.024" transform="translate(840.021 265.5)" fill="none" stroke="#0cb1f2" stroke-width="3"/>
    <path id="Path_534" data-name="Path 534" d="M27.48,15.56a10.568,10.568,0,0,0-2.25-.63,17.966,17.966,0,0,0-2.97-.21,13.5,13.5,0,0,0-4.83.9,10.719,10.719,0,0,0-4.2,2.94,15.1,15.1,0,0,0-2.94,5.34A25.636,25.636,0,0,0,9.18,32a25.952,25.952,0,0,0,.99,7.56,15.614,15.614,0,0,0,2.76,5.4,11.217,11.217,0,0,0,4.26,3.24,13.807,13.807,0,0,0,5.55,1.08,14.837,14.837,0,0,0,2.91-.27,12.947,12.947,0,0,0,2.49-.75v-6h4.44v8.1l.06.12a15.683,15.683,0,0,1-4.56,2.31,21.2,21.2,0,0,1-6.72.93,18.574,18.574,0,0,1-6.99-1.29A14.612,14.612,0,0,1,8.82,48.5a18.273,18.273,0,0,1-3.63-6.75A32.721,32.721,0,0,1,3.9,32a30.393,30.393,0,0,1,1.44-9.99,18.618,18.618,0,0,1,3.9-6.72,14.792,14.792,0,0,1,5.73-3.81,20.13,20.13,0,0,1,6.99-1.2q2.04,0,3.54.15a20.349,20.349,0,0,1,2.64.42,9.843,9.843,0,0,1,2.01.69,16.128,16.128,0,0,1,1.71.96h.06v9.48H27.48ZM65.22,33.74H46.38V53H41.4V11h4.98V29.3H65.22V11H70.2V53H65.22Zm36.24,7.62H85.32L81.48,53H76.56L90.6,11h5.88l14.16,42h-5.22ZM86.88,37.04h13.2L93.9,17.3h-.72ZM119.4,11.42a52.721,52.721,0,0,1,5.25-.66q2.97-.24,5.43-.24a22.345,22.345,0,0,1,5.25.6,12.173,12.173,0,0,1,4.38,1.98,10.068,10.068,0,0,1,3.03,3.6,11.711,11.711,0,0,1,1.14,5.4,10.959,10.959,0,0,1-.81,4.35,12.532,12.532,0,0,1-6.57,6.63L147.6,53h-5.82l-9.9-18.48h-7.5V53H119.4Zm10.8,3.42h-1.62q-.84,0-1.62.06t-1.47.12a6.1,6.1,0,0,0-1.11.18V30.68h4.68a11.028,11.028,0,0,0,6.84-2.04q2.7-2.04,2.7-6.36a7.031,7.031,0,0,0-2.22-5.34A8.635,8.635,0,0,0,130.2,14.84Zm46.86,26.52H160.92L157.08,53h-4.92L166.2,11h5.88l14.16,42h-5.22Zm-14.58-4.32h13.2L169.5,17.3h-.72Zm54-21.48a10.568,10.568,0,0,0-2.25-.63,17.966,17.966,0,0,0-2.97-.21,13.5,13.5,0,0,0-4.83.9,10.719,10.719,0,0,0-4.2,2.94,15.1,15.1,0,0,0-2.94,5.34,25.636,25.636,0,0,0-1.11,8.1,25.952,25.952,0,0,0,.99,7.56,15.615,15.615,0,0,0,2.76,5.4,11.217,11.217,0,0,0,4.26,3.24,13.807,13.807,0,0,0,5.55,1.08,14.837,14.837,0,0,0,2.91-.27,12.946,12.946,0,0,0,2.49-.75v-6h4.44v8.1l.06.12a15.683,15.683,0,0,1-4.56,2.31,21.2,21.2,0,0,1-6.72.93,18.574,18.574,0,0,1-6.99-1.29,14.612,14.612,0,0,1-5.55-3.93,18.273,18.273,0,0,1-3.63-6.75A32.721,32.721,0,0,1,192.9,32a30.393,30.393,0,0,1,1.44-9.99,18.618,18.618,0,0,1,3.9-6.72,14.792,14.792,0,0,1,5.73-3.81,20.13,20.13,0,0,1,6.99-1.2q2.04,0,3.54.15a20.349,20.349,0,0,1,2.64.42,9.843,9.843,0,0,1,2.01.69,16.128,16.128,0,0,1,1.71.96h.06v9.48h-4.44ZM229.2,11h31.2V21.98h-4.44V15.44h-8.7V48.56h6.6V53H235.68V48.56h6.6V15.44h-8.64v6.54H229.2Zm41.82,0h24.66v4.44H276V29.18h18.18v4.44H276V48.56h19.98V53H271.02Zm37.38.42a52.72,52.72,0,0,1,5.25-.66q2.97-.24,5.43-.24a22.345,22.345,0,0,1,5.25.6,12.173,12.173,0,0,1,4.38,1.98,10.067,10.067,0,0,1,3.03,3.6,11.711,11.711,0,0,1,1.14,5.4,10.958,10.958,0,0,1-.81,4.35,12.532,12.532,0,0,1-6.57,6.63L336.6,53h-5.82l-9.9-18.48h-7.5V53H308.4Zm10.8,3.42h-1.62q-.84,0-1.62.06t-1.47.12a6.1,6.1,0,0,0-1.11.18V30.68h4.68a11.029,11.029,0,0,0,6.84-2.04q2.7-2.04,2.7-6.36a7.031,7.031,0,0,0-2.22-5.34A8.635,8.635,0,0,0,319.2,14.84ZM387,47.06a20.1,20.1,0,0,0,4.05,1.59,16.729,16.729,0,0,0,4.53.63,16.982,16.982,0,0,0,3.72-.39,8.807,8.807,0,0,0,3.03-1.26,6.469,6.469,0,0,0,2.04-2.19,6.212,6.212,0,0,0,.75-3.12,5.285,5.285,0,0,0-1.65-4.02,16.387,16.387,0,0,0-4.11-2.76q-2.46-1.2-5.34-2.34a31.788,31.788,0,0,1-5.34-2.7,14.992,14.992,0,0,1-4.11-3.81,9.439,9.439,0,0,1-1.65-5.73,9.79,9.79,0,0,1,.99-4.44,9.6,9.6,0,0,1,2.79-3.36,13.187,13.187,0,0,1,4.35-2.13,20.058,20.058,0,0,1,5.67-.75,38.422,38.422,0,0,1,6.54.51,18.126,18.126,0,0,1,4.68,1.35l.12-.06v.12h.06l-.06.18v9.6h-4.44V15.56a32.723,32.723,0,0,0-3.3-.6,29.09,29.09,0,0,0-3.84-.24,12.336,12.336,0,0,0-3.57.48,8.914,8.914,0,0,0-2.7,1.29,5.873,5.873,0,0,0-1.71,1.89,4.626,4.626,0,0,0-.6,2.28,5.145,5.145,0,0,0,1.65,3.9,17,17,0,0,0,4.11,2.79q2.46,1.23,5.34,2.43a33.659,33.659,0,0,1,5.34,2.79,15.631,15.631,0,0,1,4.11,3.81,9,9,0,0,1,1.65,5.52,11.534,11.534,0,0,1-.99,4.86,10.688,10.688,0,0,1-2.82,3.72,12.729,12.729,0,0,1-4.5,2.4,20.062,20.062,0,0,1-6.03.84,24.845,24.845,0,0,1-4.32-.36,29.43,29.43,0,0,1-6.81-2.04q-1.35-.6-2.13-1.02l.06-.18V40.4H387ZM422.22,11h24.66v4.44H427.2V29.18h18.18v4.44H427.2V48.56h19.98V53H422.22ZM456,11h31.2V21.98h-4.44V15.44h-8.7V48.56h6.6V53H462.48V48.56h6.6V15.44h-8.64v6.54H456Z" transform="translate(594 124)" fill="#0cb1f2"/>
  </g>
</svg>
