<svg xmlns="http://www.w3.org/2000/svg" xmlns:xlink="http://www.w3.org/1999/xlink" width="1680" height="509" viewBox="0 0 1680 509">
  <defs>
    <clipPath id="clip-ptmono_numbers">
      <rect width="1680" height="509"/>
    </clipPath>
  </defs>
  <g id="ptmono_numbers" clip-path="url(#clip-ptmono_numbers)">
    <path id="Path_537" data-name="Path 537" d="M0,0H1688V509H0Z" fill="none"/>
    <path id="Path_538" data-name="Path 538" d="M11.76,26.72,8.52,20.66H8.28l.6,6.06V53H4.2V11H7.44L24.36,37.16l3.12,5.76h.3l-.66-5.76V11H31.8V53H28.56ZM65.4,11h4.8V39.02a19.394,19.394,0,0,1-.99,6.54,11.841,11.841,0,0,1-2.79,4.53,10.994,10.994,0,0,1-4.38,2.61,18.335,18.335,0,0,1-5.7.84q-7.44,0-11.19-3.36T41.4,39.98V11h4.98V37.64a19.679,19.679,0,0,0,.63,5.37,8.76,8.76,0,0,0,1.86,3.54,6.986,6.986,0,0,0,3.12,1.95,14.608,14.608,0,0,0,4.41.6q4.86,0,6.93-2.67t2.07-8.79Zm37.62,14.1.6-5.7h-.3l-2.88,5.16L94.32,34.82h-1.5L86.4,24.5l-2.76-5.1h-.3l.72,5.64V53H79.2V11h4.62l9.96,15.96h.12L103.5,11H108V53h-4.98Zm41.7-4.5a10.372,10.372,0,0,1-.48,3.06,10.137,10.137,0,0,1-1.44,2.91,9.6,9.6,0,0,1-2.46,2.37,11.454,11.454,0,0,1-3.54,1.56v.24a14.588,14.588,0,0,1,3.45,1.02,9.386,9.386,0,0,1,2.91,1.98,9.757,9.757,0,0,1,2.04,3.06,10.658,10.658,0,0,1,.78,4.26,11.148,11.148,0,0,1-1.35,5.61,11.546,11.546,0,0,1-3.54,3.87,15.618,15.618,0,0,1-5.01,2.22,23.192,23.192,0,0,1-5.76.72h-2.4q-1.38,0-2.88-.09t-3-.24a17.172,17.172,0,0,1-2.64-.45V11.36q2.22-.36,5.16-.6t6.42-.24a30.073,30.073,0,0,1,4.77.39,13.223,13.223,0,0,1,4.41,1.5,9.286,9.286,0,0,1,3.27,3.09A9.185,9.185,0,0,1,144.72,20.6ZM130.8,49.16a14.375,14.375,0,0,0,3.72-.48,10.05,10.05,0,0,0,3.18-1.44,7.181,7.181,0,0,0,2.19-2.4,6.866,6.866,0,0,0,.81-3.42,7.083,7.083,0,0,0-.99-3.96,6.912,6.912,0,0,0-2.58-2.34,11.164,11.164,0,0,0-3.57-1.14,26.4,26.4,0,0,0-3.96-.3h-5.22V48.74a6.411,6.411,0,0,0,1.2.18q.78.06,1.68.12t1.86.09Q130.08,49.16,130.8,49.16Zm-3.3-19.68q1.02,0,2.46-.06t2.4-.18a16.413,16.413,0,0,0,2.7-1.17,10.36,10.36,0,0,0,2.25-1.65,7.439,7.439,0,0,0,1.56-2.16,6.074,6.074,0,0,0,.57-2.64,6.6,6.6,0,0,0-.75-3.3,5.788,5.788,0,0,0-2.01-2.1,8.281,8.281,0,0,0-2.88-1.08,18.085,18.085,0,0,0-3.3-.3q-1.98,0-3.63.09a17.317,17.317,0,0,0-2.49.27V29.48ZM157.62,11h24.66v4.44H162.6V29.18h18.18v4.44H162.6V48.56h19.98V53H157.62Zm37.38.42a52.721,52.721,0,0,1,5.25-.66q2.97-.24,5.43-.24a22.345,22.345,0,0,1,5.25.6,12.173,12.173,0,0,1,4.38,1.98,10.068,10.068,0,0,1,3.03,3.6,11.711,11.711,0,0,1,1.14,5.4,10.959,10.959,0,0,1-.81,4.35,12.532,12.532,0,0,1-6.57,6.63L223.2,53h-5.82l-9.9-18.48h-7.5V53H195Zm10.8,3.42h-1.62q-.84,0-1.62.06t-1.47.12a6.1,6.1,0,0,0-1.11.18V30.68h4.68a11.028,11.028,0,0,0,6.84-2.04q2.7-2.04,2.7-6.36a7.031,7.031,0,0,0-2.22-5.34A8.635,8.635,0,0,0,205.8,14.84Zm30,32.22a20.105,20.105,0,0,0,4.05,1.59,16.729,16.729,0,0,0,4.53.63,16.982,16.982,0,0,0,3.72-.39,8.807,8.807,0,0,0,3.03-1.26,6.469,6.469,0,0,0,2.04-2.19,6.212,6.212,0,0,0,.75-3.12,5.285,5.285,0,0,0-1.65-4.02,16.387,16.387,0,0,0-4.11-2.76q-2.46-1.2-5.34-2.34a31.787,31.787,0,0,1-5.34-2.7,14.992,14.992,0,0,1-4.11-3.81,9.439,9.439,0,0,1-1.65-5.73,9.79,9.79,0,0,1,.99-4.44,9.6,9.6,0,0,1,2.79-3.36,13.187,13.187,0,0,1,4.35-2.13,20.057,20.057,0,0,1,5.67-.75,38.422,38.422,0,0,1,6.54.51,18.125,18.125,0,0,1,4.68,1.35l.12-.06v.12h.06l-.06.18v9.6h-4.44V15.56a32.723,32.723,0,0,0-3.3-.6,29.09,29.09,0,0,0-3.84-.24,12.336,12.336,0,0,0-3.57.48,8.913,8.913,0,0,0-2.7,1.29,5.873,5.873,0,0,0-1.71,1.89,4.626,4.626,0,0,0-.6,2.28,5.145,5.145,0,0,0,1.65,3.9,17,17,0,0,0,4.11,2.79q2.46,1.23,5.34,2.43a33.66,33.66,0,0,1,5.34,2.79,15.631,15.631,0,0,1,4.11,3.81,9,9,0,0,1,1.65,5.52,11.534,11.534,0,0,1-.99,4.86,10.688,10.688,0,0,1-2.82,3.72,12.728,12.728,0,0,1-4.5,2.4,20.062,20.062,0,0,1-6.03.84,24.845,24.845,0,0,1-4.32-.36,29.43,29.43,0,0,1-6.81-2.04q-1.35-.6-2.13-1.02l.06-.18V40.4h4.44Z" transform="translate(708 106)" fill="#fff"/>
    <path id="Path_539" data-name="Path 539" d="M7.62,48.68h9.42V17.12l-9.6,6.72L5.1,20.42,18.3,11h3.36V48.68H30.9V53H7.62Zm24.72,58.66a13.666,13.666,0,0,1-.93,4.98,12.63,12.63,0,0,1-2.73,4.26,13.581,13.581,0,0,1-4.44,3,15.326,15.326,0,0,1-6.12,1.14,16.2,16.2,0,0,1-5.88-1.02,13.193,13.193,0,0,1-4.56-2.91,12.812,12.812,0,0,1-2.97-4.65,17.268,17.268,0,0,1-1.05-6.18A34.111,34.111,0,0,1,5.31,95.28,29.246,29.246,0,0,1,9.93,86.4a24.509,24.509,0,0,1,7.08-6.24,21.9,21.9,0,0,1,9.03-2.88l.84,3.84a19.189,19.189,0,0,0-6.93,2.22,21.161,21.161,0,0,0-5.49,4.32,23.094,23.094,0,0,0-3.81,5.7,21.277,21.277,0,0,0-1.89,6.36,7.676,7.676,0,0,1,1.41-1.62,9.517,9.517,0,0,1,2.22-1.47,15.677,15.677,0,0,1,2.88-1.05,13.478,13.478,0,0,1,3.45-.42,17.408,17.408,0,0,1,5.7.87,12.371,12.371,0,0,1,4.29,2.46,10.461,10.461,0,0,1,2.7,3.84A13,13,0,0,1,32.34,107.34Zm-4.92.48a8.431,8.431,0,0,0-2.34-6.42q-2.34-2.22-7.2-2.22a11.976,11.976,0,0,0-3.24.42,11.748,11.748,0,0,0-2.7,1.11,9.993,9.993,0,0,0-2.1,1.59,7.734,7.734,0,0,0-1.38,1.8,9.922,9.922,0,0,0-.12,1.32v1.14a11.6,11.6,0,0,0,.6,3.63,9.577,9.577,0,0,0,1.83,3.27,9.361,9.361,0,0,0,3.09,2.34,9.956,9.956,0,0,0,4.38.9,9.349,9.349,0,0,0,3.72-.72,9.45,9.45,0,0,0,2.91-1.92,8.235,8.235,0,0,0,1.89-2.82A8.977,8.977,0,0,0,27.42,107.82Z" transform="translate(487 241)" fill="#fff"/>
    <path id="Path_540" data-name="Path 540" d="M30,21.62q0,5.52-5.22,12.3A101.811,101.811,0,0,1,10.2,48.68H31.32V53H4.68V48.68Q5.82,47.6,7.8,45.86t4.26-3.87q2.28-2.13,4.65-4.59A52.134,52.134,0,0,0,21,32.36a29.556,29.556,0,0,0,3.12-5.16,11.786,11.786,0,0,0,1.2-4.98,8.092,8.092,0,0,0-1.89-5.67q-1.89-2.07-5.67-2.07a17.884,17.884,0,0,0-5.46.72,13.292,13.292,0,0,0-4.02,2.1L6.24,14a19.352,19.352,0,0,1,5.73-2.82,23.208,23.208,0,0,1,6.63-.9q5.64,0,8.52,3.06A11.592,11.592,0,0,1,30,21.62ZM7.44,120,25.8,82.32H4.14V78H30.66v3.9L12.36,120Z" transform="translate(651 241)" fill="#fff"/>
    <path id="Path_541" data-name="Path 541" d="M14.88,49.58a14.686,14.686,0,0,0,4.41-.63,11.356,11.356,0,0,0,3.51-1.77,8.145,8.145,0,0,0,2.34-2.76,7.7,7.7,0,0,0,.84-3.6q0-4.14-2.91-5.91a14.985,14.985,0,0,0-7.83-1.77H11.4V30.26L23.22,15.32H5.28V11h23.7v4.32L17.16,29.18h.96a15.492,15.492,0,0,1,5.04.78,11.96,11.96,0,0,1,3.96,2.22,9.975,9.975,0,0,1,2.61,3.48,11.018,11.018,0,0,1,.93,4.62,12.709,12.709,0,0,1-1.26,5.76,12.386,12.386,0,0,1-3.42,4.23,14.988,14.988,0,0,1-5.07,2.58,21.575,21.575,0,0,1-6.21.87,27.4,27.4,0,0,1-5.31-.45,29.764,29.764,0,0,1-4.11-1.11l1.2-4.2a17.508,17.508,0,0,0,3.66,1.17A22.716,22.716,0,0,0,14.88,49.58ZM4.5,109.8q0-7.26,8.82-11.7-1.68-.9-3.12-1.86a12.486,12.486,0,0,1-2.49-2.16,9.125,9.125,0,0,1-1.65-2.76,9.987,9.987,0,0,1-.6-3.6,9.632,9.632,0,0,1,.9-4.14,9.381,9.381,0,0,1,2.58-3.3,12.808,12.808,0,0,1,4.08-2.19,16.627,16.627,0,0,1,5.34-.81,16.385,16.385,0,0,1,5.01.72,11.667,11.667,0,0,1,3.84,2.01,8.81,8.81,0,0,1,2.43,3.03,8.446,8.446,0,0,1,.84,3.72,11.959,11.959,0,0,1-1.71,6.27,16.053,16.053,0,0,1-5.49,5.19,31.454,31.454,0,0,1,3.24,1.92,13.781,13.781,0,0,1,2.61,2.28,9.658,9.658,0,0,1,1.74,2.85,9.8,9.8,0,0,1,.63,3.63,12.269,12.269,0,0,1-.9,4.71,10,10,0,0,1-2.67,3.75,12.934,12.934,0,0,1-4.35,2.46,18.207,18.207,0,0,1-6,.9,16.359,16.359,0,0,1-5.64-.9,12.318,12.318,0,0,1-4.11-2.4,9.876,9.876,0,0,1-2.49-3.48A10.494,10.494,0,0,1,4.5,109.8Zm22.26-.6a5.888,5.888,0,0,0-.81-3.09,9.134,9.134,0,0,0-2.16-2.43,18.631,18.631,0,0,0-3.09-1.98q-1.74-.9-3.6-1.8a16.182,16.182,0,0,0-6.15,4.62,8.206,8.206,0,0,0-1.83,4.74,7.252,7.252,0,0,0,.57,2.85,6.762,6.762,0,0,0,1.68,2.37,8.125,8.125,0,0,0,2.76,1.62,11.121,11.121,0,0,0,3.81.6,11.46,11.46,0,0,0,3.33-.48,8.888,8.888,0,0,0,2.82-1.41,6.723,6.723,0,0,0,1.95-2.34A7.1,7.1,0,0,0,26.76,109.2ZM10.14,87.54a5.785,5.785,0,0,0,.78,3,8.88,8.88,0,0,0,2.07,2.37,17.26,17.26,0,0,0,2.97,1.92q1.68.87,3.54,1.71a19.185,19.185,0,0,0,4.77-4.2,7.482,7.482,0,0,0,1.59-4.62,5.542,5.542,0,0,0-.63-2.67,6.494,6.494,0,0,0-1.68-2.01,7.64,7.64,0,0,0-2.43-1.29,9.231,9.231,0,0,0-2.88-.45,10.061,10.061,0,0,0-3.42.54,7.7,7.7,0,0,0-2.52,1.44,6.853,6.853,0,0,0-1.59,2.01A4.878,4.878,0,0,0,10.14,87.54Z" transform="translate(817 241)" fill="#fff"/>
    <path id="Path_542" data-name="Path 542" d="M34.8,39.92H26.7V53H22.02V39.92H2.64V36.44L22.74,11H26.7V35.96h8.1ZM22.02,18.5,8.16,35.96H22.02ZM3.66,90.66a14.823,14.823,0,0,1,.9-5.19,11.7,11.7,0,0,1,2.73-4.26,12.937,12.937,0,0,1,4.53-2.88,17.326,17.326,0,0,1,6.3-1.05,15.731,15.731,0,0,1,6,1.08,12.557,12.557,0,0,1,4.47,3.03,13,13,0,0,1,2.79,4.74,19,19,0,0,1,.96,6.21,37.8,37.8,0,0,1-1.68,11.82,25.562,25.562,0,0,1-4.68,8.64,21.416,21.416,0,0,1-7.11,5.52,25.461,25.461,0,0,1-8.91,2.4l-.9-3.78a21.448,21.448,0,0,0,7.08-1.92,18.884,18.884,0,0,0,5.4-3.84,19.677,19.677,0,0,0,3.72-5.4,23.868,23.868,0,0,0,1.98-6.54,12.57,12.57,0,0,1-1.95,1.71,9.017,9.017,0,0,1-2.19,1.11,12.781,12.781,0,0,1-2.64.6,26.878,26.878,0,0,1-3.3.18,16.043,16.043,0,0,1-5.22-.84,12.737,12.737,0,0,1-4.29-2.43,11.773,11.773,0,0,1-2.91-3.84A11.569,11.569,0,0,1,3.66,90.66Zm4.92-.48q0,4.32,2.61,6.48a10.524,10.524,0,0,0,6.93,2.16,15.152,15.152,0,0,0,5.91-1.05,7.526,7.526,0,0,0,3.51-2.61,10.022,10.022,0,0,0,.12-1.35V92.64a15.315,15.315,0,0,0-.57-4.14,11.111,11.111,0,0,0-1.77-3.66,8.943,8.943,0,0,0-3.09-2.61,9.648,9.648,0,0,0-4.53-.99,9.221,9.221,0,0,0-6.72,2.34A8.8,8.8,0,0,0,8.58,90.18Z" transform="translate(981 241)" fill="#fff"/>
    <path id="Path_543" data-name="Path 543" d="M15.36,49.52a14.708,14.708,0,0,0,4.2-.57,8.7,8.7,0,0,0,3.27-1.74,7.952,7.952,0,0,0,2.1-2.91,10.245,10.245,0,0,0,.75-4.08,7.618,7.618,0,0,0-3.09-6.57Q19.5,31.4,14.16,31.4l-5.64.3V11H29.1v4.32H13.02V27.5l3-.12q6.66,0,10.5,3.24t3.84,9.24a14.246,14.246,0,0,1-1.17,5.94,12.52,12.52,0,0,1-3.21,4.35,13.68,13.68,0,0,1-4.83,2.67,19.741,19.741,0,0,1-6.09.9,20.794,20.794,0,0,1-3.42-.27,24.809,24.809,0,0,1-2.94-.66,17.817,17.817,0,0,1-2.31-.84,6.272,6.272,0,0,1-1.41-.81l1.92-3.9a24.567,24.567,0,0,0,3.12,1.44A14.515,14.515,0,0,0,15.36,49.52ZM3.3,99a42.342,42.342,0,0,1,.9-9.15,20.9,20.9,0,0,1,2.7-6.84,12.219,12.219,0,0,1,4.56-4.26A13.725,13.725,0,0,1,18,77.28a14.712,14.712,0,0,1,6.81,1.44,11.554,11.554,0,0,1,4.53,4.2,19.655,19.655,0,0,1,2.52,6.81A49.369,49.369,0,0,1,32.64,99a42.342,42.342,0,0,1-.9,9.15,20.9,20.9,0,0,1-2.7,6.84,12.219,12.219,0,0,1-4.56,4.26,13.725,13.725,0,0,1-6.54,1.47,13.429,13.429,0,0,1-6.75-1.59,12.67,12.67,0,0,1-4.56-4.47,20.547,20.547,0,0,1-2.55-6.87A45.912,45.912,0,0,1,3.3,99Zm24.42,0a48.878,48.878,0,0,0-.36-6.06L9.54,109.2a12.677,12.677,0,0,0,3.06,5.46,7.221,7.221,0,0,0,5.34,2.04,7.806,7.806,0,0,0,7.53-4.38Q27.72,107.94,27.72,99ZM8.28,99q0,1.5.09,2.88t.21,2.7l17.88-16.2a11.92,11.92,0,0,0-3.03-5.16A7.535,7.535,0,0,0,18,81.3q-5.34,0-7.53,4.41T8.28,99Z" transform="translate(1146 241)" fill="#fff"/>
  </g>
</svg>
