<svg xmlns="http://www.w3.org/2000/svg" xmlns:xlink="http://www.w3.org/1999/xlink" width="1680" height="509" viewBox="0 0 1680 509">
  <defs>
    <clipPath id="clip-robotoslab_numbers">
      <rect width="1680" height="509"/>
    </clipPath>
  </defs>
  <g id="robotoslab_numbers" clip-path="url(#clip-robotoslab_numbers)">
    <path id="Path_462" data-name="Path 462" d="M0,0H1688V509H0Z" transform="translate(-4)" fill="none"/>
    <path id="Path_463" data-name="Path 463" d="M42.363,20.344v1.582H37.588V63H36.006L8.643,23.273l-.176.059V61.418h4.775V63H2.08V61.418H6.855V21.926H2.08V20.344H8.467L35.83,59.982l.176-.059v-38H31.23V20.344H42.363Zm16.771,0v1.582H54.359V49.26q0,6.006,3.633,9.39a13.206,13.206,0,0,0,9.375,3.384,13.166,13.166,0,0,0,9.346-3.384q3.633-3.384,3.633-9.39V21.926H75.57V20.344H86.7v1.582H81.927V49.26q0,6.973-4.043,10.664a14.991,14.991,0,0,1-10.518,3.691q-6.533,0-10.562-3.706T52.777,49.26V21.926H48V20.344H59.134ZM117.565,63h-1.26L98.873,23.273l-.176.059V61.418h4.775V63H92.34V61.418h4.775V21.926H92.34V20.344h7.031L116.832,60.48h.176l17.52-40.137h7.09v1.582h-4.775V61.418h4.775V63H130.485V61.418h4.775V23.127l-.176-.059Zm46.009-42.656q6.621,0,10.283,2.725t3.662,8.2a10.362,10.362,0,0,1-1.963,6.416,8.525,8.525,0,0,1-5.537,3.252,10.779,10.779,0,0,1,6.709,3.486,9.778,9.778,0,0,1,2.725,6.826q0,5.6-3.618,8.672T166.269,63H147.578V61.418h4.775V21.926h-4.775V20.344h16Zm-9.639,21.592V61.418h12.334q5.391,0,8.5-2.666a9.281,9.281,0,0,0,3.105-7.441,8.68,8.68,0,0,0-2.974-6.65q-2.974-2.725-8.335-2.725Zm0-1.582H164.16q5.83,0,8.789-2.271t2.959-6.929a8.066,8.066,0,0,0-3.12-6.9q-3.12-2.329-9.214-2.329h-9.639ZM187.552,63V61.418h4.775V21.926h-4.775V20.344h30.732v8.584H216.7v-7H193.909V39.973h18.457v1.582H193.909V61.418H216.7v-7h1.582V63Zm55.911-42.627q6.738,0,10.371,2.915t3.633,8.511a10.381,10.381,0,0,1-2.3,6.548,10.571,10.571,0,0,1-6.284,3.823q4.6.791,6.592,3.369a10.468,10.468,0,0,1,1.992,6.592v4.307a6.565,6.565,0,0,0,.864,3.75,2.929,2.929,0,0,0,2.563,1.23h1.494V63h-1.494a4.114,4.114,0,0,1-3.926-1.919,9.433,9.433,0,0,1-1.084-4.7V52.189a8.258,8.258,0,0,0-2.974-6.768q-2.974-2.432-8.481-2.432H232.916V61.447h4.775v1.582H226.559V61.447h4.775V21.955h-4.775V20.373h16.9ZM232.916,41.408H243.17q6.533,0,9.624-2.754a8.808,8.808,0,0,0,3.091-6.855,8.871,8.871,0,0,0-3.12-7.31q-3.12-2.534-9.3-2.534H232.916Zm64.876-8.35H296.21V27.082a11.913,11.913,0,0,0-5.024-4.307,17.54,17.54,0,0,0-7.456-1.465q-5.8,0-9.185,2.593a7.645,7.645,0,0,0-.586,12.261q2.8,2.4,10.122,4.277,7.09,1.875,10.708,4.585a9.04,9.04,0,0,1,3.618,7.69,9.255,9.255,0,0,1-4.131,7.983,17.5,17.5,0,0,1-10.342,2.915,21.68,21.68,0,0,1-8.218-1.6,15.413,15.413,0,0,1-6.548-5V49.992h1.582V56.35a13.021,13.021,0,0,0,5.83,4.336,20.523,20.523,0,0,0,7.354,1.348,15.55,15.55,0,0,0,9.243-2.578,8.2,8.2,0,0,0,.674-13.1q-2.944-2.4-10.21-4.395Q276.347,40,272.963,37.5a8.528,8.528,0,0,1-3.384-7.31,8.9,8.9,0,0,1,3.984-7.617,17.089,17.089,0,0,1,10.166-2.842,19.866,19.866,0,0,1,8.394,1.655,12.962,12.962,0,0,1,5.669,4.966Z" transform="translate(684 113)" fill="#fff"/>
    <path id="Path_464" data-name="Path 464" d="M3.164,61.418h8.584V21.809l-9.9,2.227V22.57L13.33,20.109V61.418h8.584V63H3.164ZM16.816,98.729a19.543,19.543,0,0,1,4.351.483,14.272,14.272,0,0,1,4,1.567l-.615,1.494a14.57,14.57,0,0,0-3.589-1.538,17.014,17.014,0,0,0-4.146-.425,10.452,10.452,0,0,0-8.408,3.94q-3.281,3.94-3.281,11.938v5.127a12.28,12.28,0,0,1,11.426-7.354,11.089,11.089,0,0,1,9.053,3.984q3.281,3.984,3.281,10.576a14.63,14.63,0,0,1-3.56,10.078,11.583,11.583,0,0,1-9.067,4.014,11.23,11.23,0,0,1-9.185-4.395q-3.53-4.395-3.53-12.393v-9.609q0-8.555,3.75-13.022A11.893,11.893,0,0,1,16.816,98.729ZM5.127,125.711v.088q0,7.266,3.047,11.265a9.665,9.665,0,0,0,8.086,4,9.89,9.89,0,0,0,7.969-3.691,13.373,13.373,0,0,0,3.076-8.848q0-5.918-2.812-9.448t-8.145-3.53a11.38,11.38,0,0,0-7.837,3,9.3,9.3,0,0,0-3.354,7.163Z" transform="translate(487 248)" fill="#fff"/>
    <path id="Path_465" data-name="Path 465" d="M3.105,63V61.418L17.08,45.3A48.249,48.249,0,0,0,22.9,37.365a13,13,0,0,0,1.831-6.182,9.886,9.886,0,0,0-2.578-7.266q-2.578-2.607-7.529-2.607-5.244,0-8.115,3.076a11.211,11.211,0,0,0-2.871,7.969H2.285l-.059-.176A11.826,11.826,0,0,1,14.619,19.729a11.951,11.951,0,0,1,8.511,3q3.208,3,3.208,8.452a13.653,13.653,0,0,1-2.3,7.236A73.338,73.338,0,0,1,17.549,47L5.332,61.271l.059.146h21.65v-7h1.582V63Zm26.367,37.926A73.137,73.137,0,0,0,18.765,117.64a67.771,67.771,0,0,0-5.728,21.694L12.861,142H11.279l.176-2.666a72.667,72.667,0,0,1,5.376-21.064,69.171,69.171,0,0,1,10.737-17.344H3.809v7H2.227V99.344H29.473Z" transform="translate(651 248)" fill="#fff"/>
    <path id="Path_466" data-name="Path 466" d="M11.221,40.412h3.252q5.361,0,8.438-2.666a8.353,8.353,0,0,0,3.076-6.562,9.863,9.863,0,0,0-2.651-7.09q-2.651-2.783-7.808-2.783a11.432,11.432,0,0,0-7.881,2.783,9.424,9.424,0,0,0-3.135,7.412H3.164l-.059-.176a10.267,10.267,0,0,1,3.472-8.394,13,13,0,0,1,8.95-3.208,12.175,12.175,0,0,1,8.774,3.12A11.137,11.137,0,0,1,27.568,31.3a9.429,9.429,0,0,1-2.124,6.035,11.759,11.759,0,0,1-5.728,3.838,12.043,12.043,0,0,1,6.475,3.721,10.064,10.064,0,0,1,2.314,6.8,11.147,11.147,0,0,1-3.545,8.745,13.215,13.215,0,0,1-9.17,3.179,15.256,15.256,0,0,1-9.58-3.208Q2.051,57.2,2.2,51.311l.059-.176H3.6a9.991,9.991,0,0,0,3.472,7.822,12.659,12.659,0,0,0,8.716,3.076q5.273,0,8.2-2.71a9.729,9.729,0,0,0,2.93-7.515q0-4.98-3.354-7.368t-9.1-2.388H11.221Zm17.432,69.771a9.553,9.553,0,0,1-2.183,6.24,11.576,11.576,0,0,1-5.728,3.75,13.22,13.22,0,0,1,6.606,3.984,9.858,9.858,0,0,1,2.534,6.738q0,5.625-3.823,8.672a15.144,15.144,0,0,1-9.741,3.047,15.211,15.211,0,0,1-9.829-3.047Q2.7,136.521,2.7,130.9a10.032,10.032,0,0,1,2.476-6.768,12.714,12.714,0,0,1,6.577-3.955,11.362,11.362,0,0,1-5.713-3.735A9.66,9.66,0,0,1,3.9,110.184a10.594,10.594,0,0,1,3.472-8.423,13.025,13.025,0,0,1,8.892-3.032,13.068,13.068,0,0,1,8.877,3.047A10.54,10.54,0,0,1,28.652,110.184Zm-.381,20.859a8.915,8.915,0,0,0-3.457-7.295,13.2,13.2,0,0,0-8.555-2.783,13.1,13.1,0,0,0-8.584,2.783,8.974,8.974,0,0,0-3.4,7.295A8.81,8.81,0,0,0,7.646,138.4a13.655,13.655,0,0,0,8.672,2.637,13.488,13.488,0,0,0,8.555-2.651A8.789,8.789,0,0,0,28.271,131.043Zm-1.2-21.006a8.891,8.891,0,0,0-3.135-6.958,11.183,11.183,0,0,0-7.676-2.769,11.343,11.343,0,0,0-7.749,2.651,8.93,8.93,0,0,0-3.032,7.075,8.4,8.4,0,0,0,3.047,6.812,11.778,11.778,0,0,0,7.793,2.534,11.628,11.628,0,0,0,7.676-2.549A8.38,8.38,0,0,0,27.07,110.037Z" transform="translate(817 248)" fill="#fff"/>
    <path id="Path_467" data-name="Path 467" d="M24.111,49.787h7.383v1.582H24.111V61.418h4.775V63H17.754V61.418h4.775V51.369H1.846V50.49L22.207,20.344h1.9Zm-19.8,0H22.529V22.57l-.176-.059-2.285,3.779Zm10.371,91.246a10.212,10.212,0,0,0,8.6-4.043q3.091-4.043,3.091-11.924v-3.6a12.3,12.3,0,0,1-4.644,5.01A12.737,12.737,0,0,1,15,128.289a11.232,11.232,0,0,1-9.023-4.2,15.3,15.3,0,0,1-3.516-10.151,16.55,16.55,0,0,1,3.6-10.752,11.291,11.291,0,0,1,9.17-4.453,11.972,11.972,0,0,1,9.4,3.984q3.545,3.984,3.545,12.246v10.049q0,8.76-3.633,13.184a12.1,12.1,0,0,1-9.873,4.424,22.69,22.69,0,0,1-4.57-.469,27.981,27.981,0,0,1-4.6-1.377l.469-1.67a22.913,22.913,0,0,0,4.189,1.465A19.767,19.767,0,0,0,14.678,141.033Zm.322-14.3a10.791,10.791,0,0,0,7.266-2.5,13.4,13.4,0,0,0,4.1-5.991v-3.252q0-7.5-3-11.089a9.919,9.919,0,0,0-8.013-3.589,9.553,9.553,0,0,0-8,4.1,15.435,15.435,0,0,0-3.076,9.521,14.307,14.307,0,0,0,2.93,9.009A9.355,9.355,0,0,0,15,126.736Z" transform="translate(981 248)" fill="#fff"/>
    <path id="Path_468" data-name="Path 468" d="M24.434,25.939V21.9H6.943L5.156,40a12.879,12.879,0,0,1,4.028-2.783,18.316,18.316,0,0,1,6.431-1.055,10.442,10.442,0,0,1,8.408,3.486q3.311,3.633,3.311,9.756,0,6.533-3.076,10.371t-9.521,3.838a12.751,12.751,0,0,1-8.613-2.944Q2.7,57.727,2.842,51.955l.059-.176H4.277q0,5.039,2.813,7.646a10.806,10.806,0,0,0,7.646,2.607q5.684,0,8.335-3.135t2.651-9.434q0-5.391-2.651-8.5a9.237,9.237,0,0,0-7.427-3.105,14.624,14.624,0,0,0-7.368,1.567,8.831,8.831,0,0,0-3.853,4.644l-1.2-.469L5.508,20.344H26.016v5.6Zm5.1,99.244q0,8.35-3.384,12.891a11.229,11.229,0,0,1-9.565,4.541,11.333,11.333,0,0,1-9.609-4.556Q3.545,133.5,3.545,125.184V116.16q0-8.32,3.4-12.876a11.255,11.255,0,0,1,9.58-4.556,11.294,11.294,0,0,1,9.595,4.556q3.413,4.556,3.413,12.876Zm-1.582-9.023q0-7.441-2.93-11.646a9.711,9.711,0,0,0-8.5-4.2,9.674,9.674,0,0,0-8.481,4.2q-2.915,4.2-2.915,11.646v8.965q0,7.383,2.944,11.646a9.706,9.706,0,0,0,8.511,4.263,9.614,9.614,0,0,0,8.452-4.248q2.915-4.248,2.915-11.66Z" transform="translate(1146 248)" fill="#fff"/>
  </g>
</svg>
