<svg xmlns="http://www.w3.org/2000/svg" xmlns:xlink="http://www.w3.org/1999/xlink" width="1680" height="1353" viewBox="0 0 1680 1353">
  <defs>
    <clipPath id="clip-robotoslab_characterset">
      <rect width="1680" height="1353"/>
    </clipPath>
  </defs>
  <g id="robotoslab_characterset" clip-path="url(#clip-robotoslab_characterset)">
    <path id="Path_426" data-name="Path 426" d="M0,0H1688V1357.944H0Z" fill="none"/>
    <path id="Path_456" data-name="Path 456" d="M2.014,77.022H5.933L25.122,25.68h2.417L46.765,77.022h3.918V79H39.368V77.022H44.6L39.368,63.07H13.293l-5.2,13.953H13.33V79H2.014Zm12.012-15.93H38.635L27.466,31.063l-1.025-3h-.22l-.989,3Zm9.3,63.587a20.938,20.938,0,0,1,15.6,6.592q6.409,6.592,6.409,16.809V154.6q0,10.254-6.409,16.827A20.966,20.966,0,0,1,23.328,178H2.6v-1.978H8.569V126.657H2.6V124.68H23.328Zm-12.781,1.978v49.365H23.328A18.961,18.961,0,0,0,37.5,169.943,21.218,21.218,0,0,0,43.359,154.6v-6.628A21.077,21.077,0,0,0,37.5,132.736a18.961,18.961,0,0,0-14.172-6.079ZM45.7,271.287q-1.685,2.344-6.464,4.413A29.536,29.536,0,0,1,27.5,277.769a20.418,20.418,0,0,1-16.443-7.526q-6.3-7.526-6.3-19.611v-1.392q0-11.682,6.335-19.006a20.8,20.8,0,0,1,16.516-7.324A26.158,26.158,0,0,1,38.4,225.016,18.079,18.079,0,0,1,45.886,231v8.936H43.909l.037-8.2a16.6,16.6,0,0,0-6.665-5.054,24.14,24.14,0,0,0-9.668-1.794,18.856,18.856,0,0,0-15.143,6.775q-5.731,6.775-5.731,17.5v1.465q0,11.169,5.695,18.164a18.467,18.467,0,0,0,15.07,6.995,28.28,28.28,0,0,0,10.309-1.721q4.413-1.721,5.914-3.7V256.309H32.19v-2.014H45.7ZM38.2,324.657H32.227v35.889q0,7.434-4.193,11.829a14.246,14.246,0,0,1-10.785,4.395q-7.324,0-11.536-3.882T1.685,361.535l.073-.22H3.442q0,6.519,3.552,10t10.254,3.479a12.365,12.365,0,0,0,9.3-3.845q3.7-3.845,3.7-10.4V324.657H24.28V322.68H38.2ZM34.131,475H32.556l-21.79-49.658-.22.073v47.607h5.969V475H2.6v-1.978H8.569V423.657H2.6V421.68h8.789l21.826,50.171h.22l21.9-50.171H64.2v1.978H58.228v49.365H64.2V475H50.281v-1.978H56.25V425.159l-.22-.073ZM23.4,520.68q8.276,0,12.744,4.156a14.364,14.364,0,0,1,4.468,11.041q0,6.958-4.449,11.1T23.4,551.112H10.547v20.911h5.969V574H2.6v-1.978H8.569V522.657H2.6V520.68H23.4ZM10.547,549.134H23.4q7.581,0,11.407-3.772a12.677,12.677,0,0,0,3.827-9.412,12.826,12.826,0,0,0-3.809-9.54q-3.809-3.754-11.426-3.754H10.547Zm28.894,86.439H37.463V628.1a14.891,14.891,0,0,0-6.281-5.383,21.926,21.926,0,0,0-9.32-1.831q-7.251,0-11.481,3.241t-4.23,7.782a9.528,9.528,0,0,0,3.5,7.544q3.5,3,12.653,5.347,8.862,2.344,13.385,5.731a11.3,11.3,0,0,1,4.523,9.613,11.568,11.568,0,0,1-5.164,9.979q-5.164,3.644-12.927,3.644a27.1,27.1,0,0,1-10.272-2,19.266,19.266,0,0,1-8.185-6.244V656.74H5.64v7.947a16.276,16.276,0,0,0,7.288,5.42,25.654,25.654,0,0,0,9.192,1.685q7.031,0,11.554-3.223a10.249,10.249,0,0,0,.842-16.37q-3.68-3-12.762-5.493-9.119-2.454-13.348-5.585t-4.23-9.137a11.124,11.124,0,0,1,4.98-9.521q4.98-3.552,12.708-3.552a24.832,24.832,0,0,1,10.492,2.069,16.2,16.2,0,0,1,7.086,6.207ZM13.4,720.657H8.167L25.342,766.8l.952,2.893h.22l.952-2.893,17.175-46.143H39.4V718.68H50.72v1.978H46.8L27.612,772H25.2L6.006,720.657H2.087V718.68H13.4Zm.183,99h-4.8l16.443,27.649.952,1.831.989-1.831,16.516-27.649h-4.8V817.68H50.464v1.978H46.069L27.246,850.749v18.274h5.969V871H19.263v-1.978h5.969V850.749L6.372,819.657H2.014V817.68H13.586Z" transform="translate(93 260)" fill="#0cb1f2"/>
    <path id="Path_461" data-name="Path 461" d="M32.41,79q-.476-2.6-.641-3.9a22.327,22.327,0,0,1-.165-2.8v-.586a17.228,17.228,0,0,1-6.354,5.8,19.6,19.6,0,0,1-9.613,2.252q-5.493,0-8.661-2.985a10.247,10.247,0,0,1-3.168-7.819q0-5.347,4.871-8.716t13.074-3.369H31.6V51.095a9.691,9.691,0,0,0-3.168-7.709q-3.168-2.765-8.917-2.765a22.741,22.741,0,0,0-7.05,1.062,17.2,17.2,0,0,0-5.585,2.93l-.037,6.335H4.871L4.907,43.4a24.875,24.875,0,0,1,6.647-3.424,23.981,23.981,0,0,1,7.965-1.337q6.372,0,10.217,3.223t3.845,9.3V71.017q0,1.538.128,3.04a26.688,26.688,0,0,0,.421,2.966h4.761V79ZM15.637,77.828A18.322,18.322,0,0,0,25.378,75.3,15.886,15.886,0,0,0,31.6,68.307V58.9H21.863q-7.288,0-11.682,2.838T5.786,69.112A8.12,8.12,0,0,0,8.5,75.32,10.1,10.1,0,0,0,15.637,77.828ZM32.19,171.665a14.177,14.177,0,0,1-5.383,5.182,16.41,16.41,0,0,1-8.13,1.923,12.812,12.812,0,0,1-10.931-5.347q-3.937-5.347-3.937-14.5v-.769q0-9.412,3.955-14.96a12.739,12.739,0,0,1,10.986-5.548,14.7,14.7,0,0,1,8.057,2.142,15.562,15.562,0,0,1,5.383,5.878V122.849H26.221v-1.978h7.947v55.151h5.969V178H32.263ZM5.859,158.92q0,8.2,3.241,13.037a10.749,10.749,0,0,0,9.54,4.834,14.862,14.862,0,0,0,8.588-2.344,13.3,13.3,0,0,0,4.962-6.262V149.619a16.483,16.483,0,0,0-4.614-7.123q-3.186-2.875-8.862-2.875a10.655,10.655,0,0,0-9.576,5.145q-3.278,5.145-3.278,13.385ZM4.1,257.151q0-9.412,3.955-14.96a12.739,12.739,0,0,1,10.986-5.548,14.7,14.7,0,0,1,8.075,2.161,15.371,15.371,0,0,1,5.365,5.9l.293-7.324H34.46v39.111q0,7.617-4.01,12.067T19.482,293a31.791,31.791,0,0,1-6.024-.6,24.556,24.556,0,0,1-5.475-1.666l.586-1.978a28.9,28.9,0,0,0,5.164,1.74,25.662,25.662,0,0,0,5.676.568q6.335,0,9.686-3.9t3.351-10.675v-5.75a14.449,14.449,0,0,1-5.4,5.127,16.354,16.354,0,0,1-8.075,1.9,12.812,12.812,0,0,1-10.931-5.347Q4.1,267.076,4.1,257.92Zm2.014.769q0,8.2,3.259,13.037a10.8,10.8,0,0,0,9.558,4.834,14.557,14.557,0,0,0,8.661-2.417,13.288,13.288,0,0,0,4.852-6.482V248.912a17.028,17.028,0,0,0-4.523-7.324q-3.131-2.966-8.917-2.966a10.7,10.7,0,0,0-9.595,5.145q-3.3,5.145-3.3,13.385Zm7.947,121.339q0,6.116-2.747,9.43A9.435,9.435,0,0,1,3.625,392a10.861,10.861,0,0,1-2.051-.183,16.2,16.2,0,0,1-2.051-.549l.476-1.9a16.587,16.587,0,0,0,1.666.439,9.18,9.18,0,0,0,1.959.22,7.484,7.484,0,0,0,6.244-2.82q2.216-2.82,2.216-7.947V338.354H6.116v-1.978h7.947Zm-.22-55.481H11.865v-4.907h1.978ZM3.259,473.022H9.229V437.354H3.259v-1.978h7.69l.256,8.167a14.838,14.838,0,0,1,5.164-6.555,14.008,14.008,0,0,1,8.2-2.344,12.746,12.746,0,0,1,8.331,2.618q3.2,2.618,4.413,8.075a15.734,15.734,0,0,1,5.145-7.892,13.881,13.881,0,0,1,8.917-2.838q6.555,0,9.961,4.285t3.406,13.477v20.618h5.969v1.978H56.763v-1.978h5.969V452.295q0-8.606-3.076-12.158a10.309,10.309,0,0,0-8.2-3.552q-6.3,0-9.521,3.79a18.56,18.56,0,0,0-4.028,9.8q0,.732.037,1.263t.037,1.044v20.544h5.969V475H29.993v-1.978h5.969V452.332q0-8.643-3.076-12.177a10.375,10.375,0,0,0-8.24-3.534q-6.152,0-9.338,3.607a17.849,17.849,0,0,0-4.065,9.357v23.438h5.969V475H3.259ZM2.38,587.257H8.35v-50.9H2.38v-1.978H9.888l.4,7.1a14.9,14.9,0,0,1,5.383-5.75,15.184,15.184,0,0,1,8.093-2.087,12.752,12.752,0,0,1,10.968,5.548q3.973,5.548,3.973,14.96v.769q0,9.155-3.955,14.5a12.824,12.824,0,0,1-10.913,5.347,16.828,16.828,0,0,1-8.112-1.868,13.92,13.92,0,0,1-5.4-5.054v19.409H16.3v1.978H2.38Zm34.314-33.105q0-8.24-3.314-13.385a10.709,10.709,0,0,0-9.576-5.145q-5.75,0-8.936,2.893a16.06,16.06,0,0,0-4.541,7.1v18.53a12.818,12.818,0,0,0,4.907,6.3,15.018,15.018,0,0,0,8.643,2.344,10.805,10.805,0,0,0,9.54-4.834q3.278-4.834,3.278-13.037ZM31.2,645.424H29.224v-6.409a12.346,12.346,0,0,0-4.852-3.259,18.935,18.935,0,0,0-6.83-1.135q-5.566,0-8.423,2.4a7.1,7.1,0,0,0-2.856,5.548,6.92,6.92,0,0,0,2.417,5.31q2.417,2.2,9.595,3.845,6.628,1.538,10.052,4.193a8.85,8.85,0,0,1,3.424,7.416,9.041,9.041,0,0,1-3.809,7.544q-3.809,2.893-10.107,2.893a22.148,22.148,0,0,1-7.965-1.392,17.123,17.123,0,0,1-6.1-3.845v-7.068H5.75v5.969a12.376,12.376,0,0,0,5.347,3.333,21.861,21.861,0,0,0,6.738,1.025q5.493,0,8.716-2.563a7.464,7.464,0,0,0,3.223-5.933,7.8,7.8,0,0,0-2.692-5.731q-2.692-2.582-9.393-4.047-6.995-1.465-10.2-3.9a8.238,8.238,0,0,1-3.2-6.976,8.794,8.794,0,0,1,3.589-7.123q3.589-2.875,9.668-2.875a20.682,20.682,0,0,1,7.855,1.465,15.419,15.419,0,0,1,5.8,3.918ZM13.55,734.354H8.35l11.462,29.26,1.868,5.347h.22l1.9-5.347,11.426-29.26h-5.2v-1.978H41.675v1.978H37.354l-14.648,37.61.037.037h-1.9L6.226,734.354H1.9v-1.978H13.55Zm.146,99H8.5l12.268,30.469,1.465,3.955h.22l.22-.586L35.6,833.354H30.4v-1.978H42.114v1.978H37.793L20.947,877.592a24.766,24.766,0,0,1-3.754,6.793Q15.051,887,10.364,887a10.294,10.294,0,0,1-1.538-.128,7.037,7.037,0,0,1-1.245-.275l.33-1.868a10.206,10.206,0,0,0,1.208.22,9.9,9.9,0,0,0,1.245.11,6.916,6.916,0,0,0,5.255-1.978,17.346,17.346,0,0,0,3.351-5.859l2.38-6.445L6.335,833.354H2.014v-1.978H13.7Z" transform="translate(1016 260)" fill="#0cb1f2"/>
    <path id="Path_457" data-name="Path 457" d="M22.6,25.68q8.276,0,12.854,3.406t4.578,10.254a12.952,12.952,0,0,1-2.454,8.02,10.656,10.656,0,0,1-6.921,4.065,13.474,13.474,0,0,1,8.386,4.358,12.222,12.222,0,0,1,3.406,8.533q0,6.995-4.523,10.84T25.964,79H2.6V77.022H8.569V27.657H2.6V25.68h20ZM10.547,52.669V77.022H25.964q6.738,0,10.62-3.333t3.882-9.3a10.849,10.849,0,0,0-3.717-8.313q-3.717-3.406-10.419-3.406Zm0-1.978H23.328q7.288,0,10.986-2.838t3.7-8.661q0-5.713-3.9-8.624T22.6,27.657H10.547ZM2.6,178v-1.978H8.569V126.657H2.6V124.68H41.016v10.73H39.038v-8.752H10.547v22.559H33.618v1.978H10.547v24.829H39.038V167.27h1.978V178Zm0,47.657V223.68H16.516v1.978H10.547v23.914H44.6V225.657H38.635V223.68H52.551v1.978H46.582v49.365h5.969V277H38.635v-1.978H44.6V251.548H10.547v23.474h5.969V277H2.6v-1.978H8.569V225.657Zm0,148.365H8.569V324.657H2.6V322.68H16.516v1.978H10.547v23.364h8.716L39.954,324.84l-.073-.183H33.728V322.68h13.22v1.978H42.737L20.911,349.267l23.4,24.756h4.321V376H35.413v-1.978h5.969l.11-.22-22.778-23.84H10.547v24.06h5.969V376H2.6ZM52.954,421.68v1.978H46.985V475H45.007L10.8,425.342l-.22.073v47.607h5.969V475H2.6v-1.978H8.569V423.657H2.6V421.68h7.983l34.2,49.548.22-.073v-47.5H39.038V421.68H52.954Zm-3.589,125.99a33.647,33.647,0,0,1-3.058,14.813,21.314,21.314,0,0,1-8.478,9.467l11.353,8.093-1.428,1.392-11.9-8.459a19.279,19.279,0,0,1-4.211,1.355,23.1,23.1,0,0,1-4.541.439,20.032,20.032,0,0,1-16.15-7.416q-6.189-7.416-6.189-19.684v-.659q0-12.268,6.152-19.684a19.927,19.927,0,0,1,16.113-7.416,20.046,20.046,0,0,1,16.132,7.416q6.207,7.416,6.207,19.684Zm-1.978-.732q0-11.316-5.548-18.182a18.075,18.075,0,0,0-14.813-6.866,17.934,17.934,0,0,0-14.74,6.866q-5.511,6.866-5.511,18.182v.732q0,11.389,5.53,18.256A18.023,18.023,0,0,0,27.1,572.792a17.972,17.972,0,0,0,14.777-6.866q5.511-6.866,5.511-18.256ZM43.726,619.68v10.73H41.748v-8.752H24.316v49.365h5.969V673H16.37v-1.978h5.969V621.657H4.907v8.752H2.93V619.68ZM13.44,720.657H7.947L17.8,759.915,20.1,768.3h.22l2.307-8.386,13.33-41.235h2.2l13.257,41.235,2.271,8.386h.22l2.38-8.386,9.741-39.258H60.571V718.68H71.887v1.978h-3.7L55.078,772H52.844L38.892,727.542l-1.758-5.31h-.22l-1.685,5.31L21.167,772H18.933L5.786,720.657h-3.7V718.68H13.44ZM6.079,869.022H39.331V860.27h1.978V871H3.369v-1.611L37.39,819.621H6.812v8.789H4.834V817.68h35.3v1.392Z" transform="translate(345 260)" fill="#0cb1f2"/>
    <path id="Path_469" data-name="Path 469" d="M36.035,59.92q0,9.155-3.955,14.5a12.824,12.824,0,0,1-10.913,5.347,16.594,16.594,0,0,1-8.185-1.923,14.142,14.142,0,0,1-5.4-5.182L7.324,79H5.676V23.849H-.293V21.871H7.654V46.59A15.208,15.208,0,0,1,13,40.768a14.866,14.866,0,0,1,8.093-2.124,12.752,12.752,0,0,1,10.968,5.548q3.973,5.548,3.973,14.96Zm-2.051-.769q0-8.24-3.3-13.385a10.666,10.666,0,0,0-9.558-5.145q-5.786,0-8.954,2.948A16.481,16.481,0,0,0,7.654,50.8V68.966a12.915,12.915,0,0,0,4.852,6.427,14.81,14.81,0,0,0,8.7,2.4,10.76,10.76,0,0,0,9.521-4.834q3.259-4.834,3.259-13.037ZM20.728,178.769a15.239,15.239,0,0,1-11.7-5.475,19.589,19.589,0,0,1-4.926-13.6v-2.344q0-8.533,4.761-14.117a14.855,14.855,0,0,1,11.755-5.585,14.5,14.5,0,0,1,10.931,4.395q4.23,4.395,4.23,11.792v3.04H6.079v2.82a18.122,18.122,0,0,0,4.211,12.14,13.157,13.157,0,0,0,10.437,4.962,19.85,19.85,0,0,0,7.416-1.208,13.411,13.411,0,0,0,5.109-3.625l1.062,1.538a15.067,15.067,0,0,1-5.695,3.937A21.238,21.238,0,0,1,20.728,178.769Zm-.11-39.148a12.719,12.719,0,0,0-9.814,4.3,17.525,17.525,0,0,0-4.431,10.748l.11.22H33.8v-1.208a14.34,14.34,0,0,0-3.662-10.052A12.3,12.3,0,0,0,20.618,139.621ZM2.271,221.849v-1.978h7.947v25.854a14.758,14.758,0,0,1,5.383-6.7,15.236,15.236,0,0,1,8.679-2.38q6.189,0,9.393,3.918t3.2,12.341v22.119h5.969V277H28.894v-1.978h5.969V252.83q0-7.8-2.875-11a9.8,9.8,0,0,0-7.672-3.2q-6.409,0-9.814,3.827a18.374,18.374,0,0,0-4.285,9.8v22.778h5.969V277H2.271v-1.978H8.24V221.849Zm0,99v-1.978h7.947v34.9h4.651l15.747-15.2-.073-.22H26.184v-1.978H37.939v1.978H33.472L17.1,354.43,35.01,374.022h4.285V376H27.576v-1.978H32.19l.073-.183L15.637,355.749h-5.42v18.274h5.969V376H2.271v-1.978H8.24V320.849Zm.989,152.174H9.229V437.354H3.259v-1.978h7.654l.256,8.167a14.5,14.5,0,0,1,5.237-6.573,14.833,14.833,0,0,1,8.5-2.325q6.482,0,9.723,4.083t3.241,12.946v21.35h5.969V475H29.919v-1.978h5.969V451.6q0-8.24-2.948-11.609a10.088,10.088,0,0,0-8-3.369q-6.409,0-9.668,3.827a18.562,18.562,0,0,0-4.065,9.8v22.778h5.969V475H3.259Zm.549,81.129q0-9.412,3.955-14.96a12.739,12.739,0,0,1,10.986-5.548,14.917,14.917,0,0,1,8.038,2.106,15.3,15.3,0,0,1,5.4,5.8l.183-7.178h1.794v52.881h5.969v1.978H26.221v-1.978H32.19V567.774a14.273,14.273,0,0,1-5.42,5.109,16.588,16.588,0,0,1-8.093,1.886,12.812,12.812,0,0,1-10.931-5.347q-3.937-5.347-3.937-14.5Zm2.051.769q0,8.2,3.241,13.037a10.749,10.749,0,0,0,9.54,4.834,14.743,14.743,0,0,0,8.661-2.4,13.124,13.124,0,0,0,4.889-6.427V545.875a17.125,17.125,0,0,0-4.614-7.233q-3.223-3.021-8.862-3.021a10.655,10.655,0,0,0-9.576,5.145q-3.278,5.145-3.278,13.385Zm5.859,67.762v10.693H21.46v2.014H11.719v27.393q0,4.871,1.648,6.94a5.3,5.3,0,0,0,4.358,2.069q1.172,0,2.087-.073t2.527-.256l.366,1.794a13.8,13.8,0,0,1-2.252.4q-1.154.11-2.618.11a7.283,7.283,0,0,1-6.061-2.6q-2.069-2.6-2.069-8.386V635.39H2.38v-2.014H9.7V622.683ZM13.7,734.354H8.276l7.544,26.184,2.051,8.13.22.037,2.6-8.167,8.9-28.162H31.6l8.862,28.162L43.03,768.7l.22-.037,2.124-8.13,7.471-26.184H47.461v-1.978H59.29v1.978H55.151L44.2,772H42.224l-9.778-29.773-1.758-6.7h-.22l-1.9,6.7L18.933,772H16.956L6.006,734.354H1.9v-1.978H13.7ZM4.395,871v-1.611l26.038-36H6.409v8.716H4.431v-10.73H33.105v1.758L7.068,869.022H33.289V860.27h1.978V871Z" transform="translate(1268 260)" fill="#0cb1f2"/>
    <path id="Path_459" data-name="Path 459" d="M46,42.672H43.982V34.1a17.267,17.267,0,0,0-6.555-5.255,21.408,21.408,0,0,0-9.338-1.959A19.349,19.349,0,0,0,12.671,33.81Q6.738,40.731,6.738,51.937v.732q0,11.243,5.9,18.182a18.911,18.911,0,0,0,15.088,6.94,22.72,22.72,0,0,0,9.558-1.959,16.7,16.7,0,0,0,6.7-5.255V62.008H46v9.3A18.16,18.16,0,0,1,38.452,77.5a25.082,25.082,0,0,1-10.73,2.271,20.736,20.736,0,0,1-16.553-7.526Q4.761,64.718,4.761,52.669V52.01q0-12.085,6.445-19.592a21.18,21.18,0,0,1,16.882-7.507A23.83,23.83,0,0,1,38.58,27.181,18.644,18.644,0,0,1,46,33.37ZM2.6,176.022H8.569V126.657H2.6V124.68h39v10.73H39.624v-8.752H10.547v23.071H34.2v2.051H10.547v24.243h5.969V178H2.6Zm1.392,49.635V223.68H17.908v1.978H11.938v49.365h5.969V277H3.992v-1.978H9.961V225.657ZM2.6,376v-1.978H8.569V324.657H2.6V322.68H16.553v1.978H10.583v49.365H35.962V365.27h1.978V376Zm46.765,72.669q0,12.3-6.171,19.7a19.961,19.961,0,0,1-16.095,7.4,20.032,20.032,0,0,1-16.15-7.416q-6.189-7.416-6.189-19.684v-.659q0-12.268,6.152-19.684a19.927,19.927,0,0,1,16.113-7.416,20.046,20.046,0,0,1,16.132,7.416q6.207,7.416,6.207,19.684Zm-1.978-.732q0-11.316-5.548-18.182a18.075,18.075,0,0,0-14.813-6.866,17.934,17.934,0,0,0-14.74,6.866q-5.511,6.866-5.511,18.182v.732q0,11.389,5.53,18.256A18.023,18.023,0,0,0,27.1,473.792a17.972,17.972,0,0,0,14.777-6.866q5.511-6.866,5.511-18.256ZM23.73,520.716q8.423,0,12.964,3.644T41.235,535a12.976,12.976,0,0,1-2.875,8.185,13.214,13.214,0,0,1-7.855,4.779q5.75.989,8.24,4.211a13.085,13.085,0,0,1,2.49,8.24V565.8a8.207,8.207,0,0,0,1.08,4.688,3.662,3.662,0,0,0,3.2,1.538h1.868V574H45.52q-3.552,0-4.907-2.4a11.791,11.791,0,0,1-1.355-5.878v-5.237a10.323,10.323,0,0,0-3.717-8.459q-3.717-3.04-10.6-3.04H10.547v23.071h5.969v1.978H2.6v-1.978H8.569V522.694H2.6v-1.978H23.73ZM10.547,547.01H23.364q8.167,0,12.03-3.442A11.01,11.01,0,0,0,39.258,535q0-5.969-3.9-9.137T23.73,522.694H10.547Zm5.566,72.669v1.978H10.144v34.167q0,7.507,4.541,11.737a16.508,16.508,0,0,0,11.719,4.23,16.457,16.457,0,0,0,11.682-4.23q4.541-4.23,4.541-11.737V621.657H36.658V619.68H50.574v1.978H44.6v34.167q0,8.716-5.054,13.33T26.4,673.769q-8.167,0-13.2-4.633T8.167,655.825V621.657H2.2V619.68H16.113ZM2.307,770.022H6.519l17.8-25.232L7.251,720.657H3.04V718.68H15.417v1.978H9.7l15.82,22.6,15.857-22.6H35.706V718.68H48.047v1.978H43.835L26.807,744.791l17.8,25.232h4.211V772H36.475v-1.978h5.676L25.525,746.329,8.936,770.022h5.676V772H2.307ZM7.947,853.5H5.969V817.68H7.947ZM8.716,871H5.237v-4.907H8.716Z" transform="translate(607 260)" fill="#0cb1f2"/>
    <path id="Path_470" data-name="Path 470" d="M20,77.792a14.858,14.858,0,0,0,8.862-2.747Q32.7,72.3,32.7,66.805h1.685l.073.22a10.815,10.815,0,0,1-4.266,9.283A16.061,16.061,0,0,1,20,79.769q-7.581,0-11.884-5.457t-4.3-14.355V58.419q0-8.862,4.285-14.319t11.829-5.457A18.694,18.694,0,0,1,28.2,40.493a16.179,16.179,0,0,1,6.116,5v8.5H32.336V46.224a15.074,15.074,0,0,0-5.255-4.083,16.346,16.346,0,0,0-7.159-1.52q-6.958,0-10.547,4.98T5.786,58.419v1.538q0,7.91,3.589,12.872T20,77.792ZM4.175,176.022h5.969V140.39H3.259v-2.014h6.885v-6.519q0-5.6,2.728-8.679a9.673,9.673,0,0,1,7.635-3.076,19.618,19.618,0,0,1,2.4.146,13.83,13.83,0,0,1,2.289.476l-.293,1.9a20.8,20.8,0,0,0-2.069-.421,16.715,16.715,0,0,0-2.289-.128,7.725,7.725,0,0,0-6.189,2.6,10.661,10.661,0,0,0-2.234,7.178v6.519H22.6v2.014H12.122v35.632h5.969V178H4.175Zm-.916,99H9.229V239.354H3.259v-1.978h7.947v37.646h5.969V277H3.259Zm7.947-50.1H9.229v-5.054h1.978ZM3,320.849v-1.978H10.95v55.151h5.969V376H3v-1.978H8.972V320.849Zm.806,133.57q0-8.716,4.816-14.246a15.805,15.805,0,0,1,12.506-5.53,15.846,15.846,0,0,1,12.543,5.53q4.816,5.53,4.816,14.246v1.538q0,8.752-4.816,14.282a15.765,15.765,0,0,1-12.469,5.53,15.9,15.9,0,0,1-12.561-5.53q-4.834-5.53-4.834-14.282Zm1.978,1.538A19.525,19.525,0,0,0,9.961,468.61,13.685,13.685,0,0,0,21.2,473.792a13.552,13.552,0,0,0,11.133-5.2,19.544,19.544,0,0,0,4.175-12.634v-1.538A19.438,19.438,0,0,0,32.3,441.876a13.6,13.6,0,0,0-11.169-5.255,13.535,13.535,0,0,0-11.169,5.255,19.548,19.548,0,0,0-4.175,12.543Zm5.054,78.419.366,6.885v1.355a14.3,14.3,0,0,1,4.907-6.61,13.3,13.3,0,0,1,8.02-2.362,8.824,8.824,0,0,1,1.556.128q.714.128,1.227.275L26.7,535.8l-2.563-.22a11.465,11.465,0,0,0-8.624,3.424,16.809,16.809,0,0,0-4.3,9.027v23.987h5.969V574H3.259v-1.978H9.229V536.354H3.259v-1.978H10.84ZM33.618,665.9a13.617,13.617,0,0,1-5.328,5.823,16.211,16.211,0,0,1-8.4,2.051,11.57,11.57,0,0,1-9.576-4.34q-3.461-4.34-3.461-13.458V635.354H1.611v-1.978H8.826v22.668q0,8.057,2.966,11.9a9.6,9.6,0,0,0,8.02,3.845q6.189,0,9.5-3.04a13.97,13.97,0,0,0,4.23-8.057V635.354H27.576v-1.978h7.983v37.646h5.969V673H33.911ZM3,770.022H7.617l13.22-18.347L8.35,734.354H3.735v-1.978H15.381v1.978H10.84l11.243,15.6,11.206-15.6H28.748v-1.978H40.393v1.978H35.779L23.291,751.675l13.22,18.347h4.614V772H29.517v-1.978h4.541L22.046,753.4,10.071,770.022h4.541V772H3ZM7.947,853.5H5.969V817.68H7.947ZM8.716,871H5.237v-4.907H8.716Z" transform="translate(1530 260)" fill="#0cb1f2"/>
    <path id="Path_460" data-name="Path 460" d="M0,0V960" transform="translate(817.021 241.5)" fill="none" stroke="#094c84" stroke-width="2"/>
    <path id="Path_458" data-name="Path 458" d="M36.8,33.938H35.186V27.082a13.814,13.814,0,0,0-5.244-4.2,17.126,17.126,0,0,0-7.471-1.567,15.48,15.48,0,0,0-12.334,5.537q-4.746,5.537-4.746,14.5v.586q0,8.994,4.717,14.546a15.129,15.129,0,0,0,12.07,5.552,18.176,18.176,0,0,0,7.646-1.567,13.363,13.363,0,0,0,5.361-4.2V49.406H36.8v7.441A14.528,14.528,0,0,1,30.762,61.8a20.066,20.066,0,0,1-8.584,1.816A16.589,16.589,0,0,1,8.936,57.595Q3.809,51.574,3.809,41.936v-.527q0-9.668,5.156-15.674a16.944,16.944,0,0,1,13.506-6.006,19.064,19.064,0,0,1,8.394,1.816A14.915,14.915,0,0,1,36.8,26.5ZM44.1,21.926V20.344H55.237v1.582H50.462V41.057H77.708V21.926H72.933V20.344H84.066v1.582H79.29V61.418h4.775V63H72.933V61.418h4.775V42.639H50.462V61.418h4.775V63H44.1V61.418H48.88V21.926ZM89.557,61.418h3.135l15.352-41.074h1.934l15.381,41.074h3.135V63H119.44V61.418h4.189L119.44,50.256H98.58L94.42,61.418H98.61V63H89.557Zm9.609-12.744h19.688L109.918,24.65l-.82-2.4h-.176l-.791,2.4Zm52.689-28.3q6.738,0,10.371,2.915t3.633,8.511a10.381,10.381,0,0,1-2.3,6.548,10.571,10.571,0,0,1-6.284,3.823q4.6.791,6.592,3.369a10.468,10.468,0,0,1,1.992,6.592v4.307a6.565,6.565,0,0,0,.864,3.75,2.929,2.929,0,0,0,2.563,1.23h1.494V63h-1.494a4.114,4.114,0,0,1-3.926-1.919,9.433,9.433,0,0,1-1.084-4.7V52.189a8.258,8.258,0,0,0-2.974-6.768q-2.974-2.432-8.481-2.432H141.308V61.447h4.775v1.582H134.951V61.447h4.775V21.955h-4.775V20.373h16.9ZM141.308,41.408h10.254q6.533,0,9.624-2.754a8.808,8.808,0,0,0,3.091-6.855,8.871,8.871,0,0,0-3.12-7.31q-3.12-2.534-9.3-2.534H141.308Zm34.935,20.01h3.135l15.352-41.074h1.934l15.381,41.074h3.135V63h-9.053V61.418h4.189l-4.189-11.162H185.266l-4.16,11.162H185.3V63h-9.053Zm9.609-12.744H205.54L196.6,24.65l-.82-2.4h-.176l-.791,2.4ZM254.01,33.938H252.4V27.082a13.814,13.814,0,0,0-5.244-4.2,17.126,17.126,0,0,0-7.471-1.567,15.48,15.48,0,0,0-12.334,5.537q-4.746,5.537-4.746,14.5v.586q0,8.994,4.717,14.546a15.129,15.129,0,0,0,12.07,5.552,18.176,18.176,0,0,0,7.646-1.567,13.363,13.363,0,0,0,5.361-4.2V49.406h1.611v7.441a14.528,14.528,0,0,1-6.035,4.951,20.066,20.066,0,0,1-8.584,1.816,16.589,16.589,0,0,1-13.242-6.021q-5.127-6.021-5.127-15.659v-.527q0-9.668,5.156-15.674a16.944,16.944,0,0,1,13.506-6.006,19.064,19.064,0,0,1,8.394,1.816A14.915,14.915,0,0,1,254.01,26.5Zm39.359-13.594v8.584h-1.582v-7H277.841V61.418h4.775V63H271.484V61.418h4.775V21.926H262.314v7h-1.582V20.344ZM299.68,63V61.418h4.775V21.926H299.68V20.344h30.732v8.584H328.83v-7H306.038V39.973h18.457v1.582H306.038V61.418H328.83v-7h1.582V63Zm55.911-42.627q6.738,0,10.371,2.915T369.6,31.8a10.381,10.381,0,0,1-2.3,6.548,10.571,10.571,0,0,1-6.284,3.823q4.6.791,6.592,3.369a10.468,10.468,0,0,1,1.992,6.592v4.307a6.565,6.565,0,0,0,.864,3.75,2.929,2.929,0,0,0,2.563,1.23h1.494V63h-1.494a4.114,4.114,0,0,1-3.926-1.919,9.433,9.433,0,0,1-1.084-4.7V52.189a8.258,8.258,0,0,0-2.974-6.768q-2.974-2.432-8.481-2.432H345.045V61.447h4.775v1.582H338.687V61.447h4.775V21.955h-4.775V20.373h16.9ZM345.045,41.408H355.3q6.533,0,9.624-2.754a8.808,8.808,0,0,0,3.091-6.855,8.871,8.871,0,0,0-3.12-7.31q-3.12-2.534-9.3-2.534H345.045Zm81.032-8.35h-1.582V27.082a11.913,11.913,0,0,0-5.024-4.307,17.54,17.54,0,0,0-7.456-1.465q-5.8,0-9.185,2.593a7.645,7.645,0,0,0-.586,12.261q2.8,2.4,10.122,4.277,7.09,1.875,10.708,4.585a9.04,9.04,0,0,1,3.618,7.69,9.255,9.255,0,0,1-4.131,7.983,17.5,17.5,0,0,1-10.342,2.915,21.68,21.68,0,0,1-8.218-1.6,15.413,15.413,0,0,1-6.548-5V49.992h1.582V56.35a13.021,13.021,0,0,0,5.83,4.336,20.523,20.523,0,0,0,7.354,1.348,15.55,15.55,0,0,0,9.243-2.578,8.2,8.2,0,0,0,.674-13.1q-2.944-2.4-10.21-4.395Q404.631,40,401.247,37.5a8.528,8.528,0,0,1-3.384-7.31,8.9,8.9,0,0,1,3.984-7.617,17.089,17.089,0,0,1,10.166-2.842,19.866,19.866,0,0,1,8.394,1.655,12.962,12.962,0,0,1,5.669,4.966ZM433.5,63V61.418h4.775V21.926H433.5V20.344h30.732v8.584h-1.582v-7H439.859V39.973h18.457v1.582H439.859V61.418h22.793v-7h1.582V63Zm72.493-42.656v8.584h-1.582v-7H490.467V61.418h4.775V63H484.11V61.418h4.775V21.926H474.94v7h-1.582V20.344Z" transform="translate(581 124)" fill="#0cb1f2"/>
  </g>
</svg>
