<svg xmlns="http://www.w3.org/2000/svg" xmlns:xlink="http://www.w3.org/1999/xlink" width="1680" height="509" viewBox="0 0 1680 509">
  <defs>
    <clipPath id="clip-titling_numbers">
      <rect width="1680" height="509"/>
    </clipPath>
  </defs>
  <g id="titling_numbers" clip-path="url(#clip-titling_numbers)">
    <path id="Path_447" data-name="Path 447" d="M0,0H1688V509H0Z" fill="none"/>
    <path id="Path_449" data-name="Path 449" d="M24,48V.3H22.38V45L6.42.3H4.08V48H5.64V2.64L21.78,48Zm29.4-8.52V.3H51.66V39.12c0,4.92-3.36,7.62-8.1,7.62-5.64,0-8.46-2.76-8.46-7.68V.3H33.3V39.48c0,5.94,4.02,8.94,10.26,8.94C49.68,48.42,53.4,45,53.4,39.48ZM89.1,48V.3H86.58L75.9,45.78,65.4.3H62.94V48h1.68V3.54L74.76,48h2.1L87.42,3.48,87.36,48Zm28.98-3.54a22.374,22.374,0,0,0,1.62-9.18,21.811,21.811,0,0,0-1.56-8.82,5.684,5.684,0,0,0-4.26-3.12,4.433,4.433,0,0,0,2.52-2.16c.96-1.68,1.62-4.8,1.62-9.06,0-3.54-.42-6.24-1.44-8.34-1.2-2.4-3.6-3.48-6.54-3.48H99V48h12.48C115.02,48,116.94,46.74,118.08,44.46Zm-1.92-32.34c0,3.96-.36,6.6-1.14,8.28a3.819,3.819,0,0,1-3.78,2.4h-10.5V1.92h9.06c2.28,0,4.26.9,5.1,2.76A18.581,18.581,0,0,1,116.16,12.12Zm.36,31.74c-.84,1.74-2.28,2.46-4.62,2.46H100.74V24.42h10.8c2.58,0,4.02.9,4.98,2.52.9,1.56,1.38,5.64,1.38,8.46C117.9,38.1,117.6,41.58,116.52,43.86ZM145.92,48V46.38H129.66V24.66h15.12V23.04H129.66V1.98h16.08V.3H127.92V48Zm26.4-35.16a30.076,30.076,0,0,0-.48-6.6C171.12,2.58,169.08.3,164.76.3h-11.1V48h1.74V24.36h10.2L172.86,48h1.8l-7.38-24a5.653,5.653,0,0,0,3.96-3.42A21.433,21.433,0,0,0,172.32,12.84Zm-1.74.24a26.757,26.757,0,0,1-.84,6.78c-.66,1.62-1.74,3-5.22,3H155.4V1.98h9.42A4.869,4.869,0,0,1,169.92,6,39.5,39.5,0,0,1,170.58,13.08Zm30.6,24.96c0-6.36-3.18-10.02-7.74-13.86-1.08-.9-3.48-2.76-4.26-3.42-3.96-3.36-7.38-6.42-7.38-11.22,0-4.86,2.82-7.92,8.22-7.92,4.8,0,7.56,2.34,8.52,6.6a26.549,26.549,0,0,1,.48,4.5h1.8a30.738,30.738,0,0,0-.48-4.74C199.44,3,196.32,0,190.14,0,183.54,0,180,3.96,180,9.48c0,5.1,3.12,8.58,7.56,12.24,1.5,1.2,3.3,2.58,4.32,3.48,4.44,3.96,7.5,6.72,7.5,13.08,0,5.46-2.52,8.52-8.52,8.52-4.86,0-7.92-1.92-8.88-6.12a30.278,30.278,0,0,1-.42-5.28h-1.8a26.242,26.242,0,0,0,.48,5.94c1.26,4.68,4.8,7.08,10.68,7.08C197.82,48.42,201.18,44.82,201.18,38.04Z" transform="translate(737 113)" fill="#fff"/>
    <g id="Group_136" data-name="Group 136" transform="translate(7)">
      <path id="Path_450" data-name="Path 450" d="M12.24,48V.18H10.92c-.78,1.92-2.46,2.04-9,3.78v1.5L10.5,3.3V48Zm9.36,77.46c.72-3.24.84-12.3.12-16.62-.66-3.9-4.02-6.12-9.06-6.12-4.2,0-7.56,2.1-8.76,4.5,0-2.52.06-10.56.36-13.32.54-5.34,2.7-8.34,7.92-8.34,4.92,0,6.78,2.1,7.32,5.58a23.381,23.381,0,0,1,.24,3.3h1.74a17.9,17.9,0,0,0-.3-4.08c-.72-3.6-2.88-6.36-9-6.36-6.42,0-9,3.6-9.66,10.2-.3,2.46-.3,9.54-.3,13.92,0,4.68.12,12.18.48,15.18.78,6.78,4.2,9.06,9.72,9.06S20.58,129.9,21.6,125.46Zm-1.68-.18c-.84,3.84-3.42,5.52-7.5,5.52-4.32,0-7.38-1.68-8.04-7.32-.24-2.1-.48-9.78-.48-13.2.48-2.64,3.42-5.94,8.82-5.94,4.32,0,6.72,2.04,7.26,4.86C20.58,112.38,20.52,122.46,19.92,125.28Z" transform="translate(491 248)" fill="#fff"/>
      <path id="Path_451" data-name="Path 451" d="M21.72,48V46.44H3c8.46-10.08,17.76-20.22,18.06-32.7V8.88C20.94,3.9,18.54,0,11.7,0,5.4,0,2.34,3.54,1.92,8.64c-.12,1.44-.12,2.82-.12,4.56H3.54c0-1.44,0-3.36.12-4.8.42-4.44,3-6.84,7.92-6.84,5.16,0,7.8,2.52,7.8,7.68,0,.6-.06,3.36-.06,4.14C18.9,26.7,9.96,35.22,1.5,46.2V48ZM19.68,86.16V84.3H.3v1.62H18.06L3.84,132H5.76Z" transform="translate(655 248)" fill="#fff"/>
      <path id="Path_452" data-name="Path 452" d="M13.92,22.32A7.55,7.55,0,0,0,19.5,18c1.5-3.06,1.44-8.76.72-12.06C19.62,2.7,17.34,0,11.76,0,6.6,0,3.54,2.58,2.94,6.72a37.215,37.215,0,0,0-.36,6.18H4.32a33.481,33.481,0,0,1,.24-6c.54-3.24,2.7-5.34,7.26-5.34,4.14,0,6.3,1.8,6.84,4.56.54,2.7.72,8.1-.54,11.28-1.26,2.46-3.06,4.26-6.54,4.26H6.96v1.62h4.68c4.74,0,7.5,2.46,8.16,5.94a46.526,46.526,0,0,1,.06,11.94c-.72,3.48-3.48,5.64-8.04,5.64-3.96,0-6.12-1.26-7.26-3.48s-1.32-5.88-1.32-8.76H1.56c0,3.48.18,6.9,1.62,9.66,1.02,1.92,3.3,4.14,8.64,4.14,5.46,0,8.88-2.64,9.78-7.32a44.952,44.952,0,0,0-.12-12.36A7.721,7.721,0,0,0,13.92,22.32Zm7.56,103.74c1.32-4.2,1.08-12.06-.06-15.48a7.592,7.592,0,0,0-6.3-5.16,6.192,6.192,0,0,0,4.62-4.2,21.017,21.017,0,0,0,0-12.48C18.72,85.8,16.08,84,11.94,84c-4.02,0-6.78,1.92-7.8,4.86a20.645,20.645,0,0,0-.18,12.12,5.852,5.852,0,0,0,4.74,4.44,7.775,7.775,0,0,0-6.18,5.22c-1.14,3.54-1.26,12.12.06,15.72,1.5,4.14,4.8,6,9.36,6C16.68,132.36,20.1,130.5,21.48,126.06Zm-3.12-25.38c-.96,2.64-3.12,3.9-6.42,3.9-3.42,0-5.82-1.56-6.42-3.84-.78-3-.96-8.4.18-11.46,1.02-2.76,3.72-3.72,6.12-3.72,2.46,0,5.34.9,6.3,3.66C19.08,91.92,19.38,97.8,18.36,100.68ZM19.86,126c-1.08,3.24-4.08,4.8-7.98,4.8-4.02,0-6.48-1.8-7.62-4.86-.9-2.7-1.08-12-.24-14.64,1.02-3.18,4.02-5.04,7.92-5.04,3.96,0,6.84,1.8,7.92,4.62C20.94,113.76,21.18,121.98,19.86,126Z" transform="translate(821 248)" fill="#fff"/>
      <path id="Path_453" data-name="Path 453" d="M23.4,35.04V33.48H18V.12H15.36L.9,33v2.04H16.26V48H18V35.04Zm-7.14-1.56H2.46L16.26,1.92Zm5.28,89.34c.3-2.46.3-11.16.3-15.54,0-4.74-.06-12-.48-14.88-.9-5.94-4.14-8.4-9.54-8.4-6,0-9.12,3.42-9.78,8.16a84.955,84.955,0,0,0-.06,13.56c.42,4.98,3.12,8.16,8.82,8.16,4.56,0,7.92-2.04,9.3-4.68,0,2.46,0,11.1-.3,13.92-.6,4.86-3.3,7.62-7.92,7.62s-6.78-1.62-7.38-5.52c-.06-.6-.12-2.34-.18-3.3H2.58c0,.9.06,2.94.18,4.08.6,4.14,3.6,6.36,9.06,6.36C17.64,132.36,20.88,129.24,21.54,122.82Zm-1.5-16.26c-.48,1.92-3.36,5.7-8.94,5.7-5.04,0-7.02-2.88-7.38-6.9a118.349,118.349,0,0,1,.12-13.02c.54-4.26,3.24-6.72,7.92-6.72,4.44,0,7.08,2.22,7.86,7.02C19.92,94.8,20.04,103.14,20.04,106.56Z" transform="translate(985 248)" fill="#fff"/>
      <path id="Path_454" data-name="Path 454" d="M21.84,40.08a90.1,90.1,0,0,0-.06-15.06c-.36-4.98-3.9-7.98-9.06-7.98-3.84,0-6.9,1.86-8.16,4.56V1.98H20.4V.36H2.88v23.7H4.8c1.44-4.02,4.44-5.28,7.68-5.28,4.32,0,7.2,2.1,7.56,6.6a86.453,86.453,0,0,1,.12,14.16c-.72,4.74-3.36,7.26-8.28,7.26-4.44,0-7.44-2.16-8.04-6.78a29.772,29.772,0,0,1-.06-4.56H1.98a27.037,27.037,0,0,0,.24,4.8c.84,5.64,4.38,8.1,9.72,8.1C17.64,48.36,21.06,45.36,21.84,40.08ZM12.3,84c-5.64,0-9,3.42-9.66,8.34-.6,4.26-.54,10.86-.54,15.78,0,4.68.24,12.9.78,15.66,1.14,6.12,3.78,8.58,9.42,8.58,5.4,0,8.28-2.4,9.36-8.16a142.118,142.118,0,0,0,.84-16.08c0-4.32-.18-13.14-.6-16.14C21.24,87.6,18.3,84,12.3,84Zm8.4,23.94c0,4.8,0,12.18-.78,16.08-.9,4.56-3.3,6.78-7.62,6.78-4.26,0-6.6-2.1-7.62-6.9-.48-2.4-.84-10.38-.84-15.78,0-4.2.12-12.36.6-15.6.54-3.84,3.12-6.9,7.8-6.9,4.5,0,7.2,2.58,7.8,6.42C20.4,94.8,20.7,102.6,20.7,107.94Z" transform="translate(1150 248)" fill="#fff"/>
    </g>
  </g>
</svg>
