<svg xmlns="http://www.w3.org/2000/svg" xmlns:xlink="http://www.w3.org/1999/xlink" width="1680" height="1353" viewBox="0 0 1680 1353">
  <defs>
    <clipPath id="clip-titling_characterset">
      <rect width="1680" height="1353"/>
    </clipPath>
  </defs>
  <g id="titling_characterset" clip-path="url(#clip-titling_characterset)">
    <path id="Path_426" data-name="Path 426" d="M0,0H1688V1357.944H0Z" fill="none"/>
    <path id="Path_441" data-name="Path 441" d="M6,44.475H24.225L27.675,60H29.85L16.8.375H14.4L.225,60H2.4Zm17.85-1.95H6.45L14.1,9.6l1.5-7.275L16.725,9.6ZM18.375,165c5.1,0,8.175-1.5,9.975-4.8,2.55-4.65,2.625-12.975,2.625-26.025,0-8.475-.15-18.9-2.625-23.325-2.25-3.975-5.025-5.475-10.575-5.475H5.1V165ZM28.65,134.175c-.075,13.275-.075,21.075-2.25,25.05-1.5,2.7-3.975,3.675-7.875,3.675H7.275V107.475H18.15c4.125,0,6.525,1.35,8.325,4.725C28.35,115.725,28.65,126.9,28.65,134.175ZM30,270V239.775H14.775v2.1h13.05S27.9,258.3,27.75,260.25c-1.35,4.425-4.5,8.25-10.8,8.25-10.65,0-11.775-11.625-11.775-28.275,0-22.05,3.15-28.05,11.775-28.05,8.475,0,10.575,8.55,10.575,16.575H29.85c0-12.15-3.975-18.825-12.9-18.825-8.55,0-14.1,4.275-14.1,30.225,0,18.225,1.05,30.375,14.175,30.375,6.9,0,10.35-4.275,11.1-6.75L28.35,270ZM19.425,364.2V315.375H17.25V364.35c0,5.7-2.55,8.925-9.15,8.925a36.786,36.786,0,0,1-7.5-.75v1.95a36.615,36.615,0,0,0,8.025.825C15.3,375.3,19.425,372,19.425,364.2ZM37.8,480V420.375H34.65L21.3,477.225,8.175,420.375H5.1V480H7.2V424.425L19.875,480H22.5l13.2-55.65L35.625,480Zm-8.55,62.85c0-6.45-.75-10.725-1.725-12.75-1.275-2.55-3.6-4.725-8.7-4.725H5.1V585H7.275V560.175s10.425.075,11.325,0c4.5-.225,7.2-1.8,8.85-4.65C28.8,553.2,29.25,549.45,29.25,542.85Zm-2.25,0c0,6.15-.45,9.6-1.425,11.475-1.05,2.1-3.075,3.75-7.35,3.825H7.275V527.475h11.1c3.525,0,5.85,1.275,7.125,3.675C26.325,532.725,27,536.7,27,542.85Zm2.4,134.7c0-7.95-3.975-12.525-9.675-17.325-1.35-1.125-4.35-3.45-5.325-4.275-4.95-4.2-9.225-8.025-9.225-14.025,0-6.075,3.525-9.9,10.275-9.9,6,0,9.45,2.925,10.65,8.25a33.186,33.186,0,0,1,.6,5.625h2.25a38.425,38.425,0,0,0-.6-5.925C27.225,633.75,23.325,630,15.6,630c-8.25,0-12.675,4.95-12.675,11.85,0,6.375,3.9,10.725,9.45,15.3,1.875,1.5,4.125,3.225,5.4,4.35,5.55,4.95,9.375,8.4,9.375,16.35,0,6.825-3.15,10.65-10.65,10.65-6.075,0-9.9-2.4-11.1-7.65a37.847,37.847,0,0,1-.525-6.6H2.625a32.8,32.8,0,0,0,.6,7.425c1.575,5.85,6,8.85,13.35,8.85C25.2,690.525,29.4,686.025,29.4,677.55Zm1.275,57.825H28.35L15.45,791.85,2.4,735.375H.075L14.1,795h2.7Zm.975,105H29.4l-13.8,36.15L2.4,840.375H.15L14.4,879v21h2.25V878.925Z" transform="translate(93 260)" fill="#0cb1f2"/>
    <path id="Path_446" data-name="Path 446" d="M24.15,60a44.69,44.69,0,0,1-.45-5.625v-12.9c0-3.45.075-11.25,0-14.55-.15-5.55-3.075-8.775-9.975-8.775C8.85,18.15,6,20.775,4.65,24.75a20.276,20.276,0,0,0-.9,6.3H5.775a19.815,19.815,0,0,1,.675-5.7A7.2,7.2,0,0,1,13.8,20.1c5.55,0,7.725,2.475,7.875,7.2.075,1.95.075,7.35.075,8.925a48.284,48.284,0,0,0-8.025.225c-6.975.75-10.95,3.75-11.4,10.8-.075,1.275-.075,4.5,0,5.25C2.7,57.3,6,60.375,12.15,60.375c5.625,0,8.4-2.775,9.6-5.775-.075,1.125.375,5.4.375,5.4Zm-2.4-21.9v5.625c0,5.925-.45,8.025-1.5,10.425-1.125,2.625-4.2,4.35-7.95,4.35-4.8,0-7.35-1.875-7.8-5.925a41.078,41.078,0,0,1-.075-5.25c.15-1.875.3-4.2,1.8-5.85,1.65-1.875,4.35-3,8.925-3.3C17.025,38.1,19.275,38.025,21.75,38.1Zm-7.725,85.2c-8.25,0-11.625,6-11.625,21.45,0,15.9,3.525,20.7,11.175,20.7,5.325,0,8.025-2.55,9.225-5.55l.225,5.1H25.05s-.15-1.875-.15-3.375v-56.25H22.8v23.85C21.9,125.85,19.5,123.3,14.025,123.3Zm.15,2.025c3.525,0,5.925,1.05,7.2,4.5,1.125,3,1.425,7.725,1.425,15.15,0,6.375-.15,11.025-1.35,14.025-1.275,3.225-3.675,4.65-7.575,4.65-6.6,0-9.375-4.05-9.375-18.9C4.5,130.725,6.825,125.325,14.175,125.325ZM12.75,228c-6.9,0-10.35,4.575-10.35,9.825V247.8c0,2.625.9,5.775,2.55,6.975a4.03,4.03,0,0,0-3,4.05c0,2.1,1.35,3.825,4.35,4.5a8.916,8.916,0,0,0-5.55,8.4c0,6.075,3.9,8.85,12.525,8.85,9.15,0,13.125-2.7,13.125-8.85,0-5.55-3.075-8.4-12.525-9.15-8.1-.675-10.05-1.95-10.05-3.975a2.809,2.809,0,0,1,2.4-2.85,10.753,10.753,0,0,0,6.525,1.8c7.275,0,10.575-4.5,10.575-9.525v-10.35a10.351,10.351,0,0,0-1.95-5.775c.825-.75,4.875-1.2,5.85-1.2v-2.025c-2.325,0-5.325.75-6.6,2.325C19.575,229.65,17.1,228,12.75,228Zm0,1.875c5.7,0,8.475,3.825,8.55,8.175v9.825c-.075,4.2-2.25,7.95-8.55,7.95-5.925,0-8.4-3.45-8.4-7.875v-9.675C4.35,233.625,7.2,229.875,12.75,229.875Zm.525,48.975c-7.725,0-10.575-2.925-10.575-7.125a8.182,8.182,0,0,1,5.775-7.8c.6.075,1.95.225,5.025.525,8.625.825,10.95,2.925,10.95,7.35C24.45,276.675,21.3,278.85,13.275,278.85ZM6.6,329.25v-5.775H3.975v5.775Zm-.225,50.625V333.75h-2.1v46.425c0,3.75-1.65,5.325-4.65,5.325a18.043,18.043,0,0,1-2.325-.15v1.875a23.047,23.047,0,0,0,2.55.225C3.825,387.45,6.375,385.65,6.375,379.875ZM36.15,480h2.175c-.15-.15-.225-.6-.225-33.525,0-5.325-3.075-8.325-8.325-8.325-3.525,0-7.05,1.35-8.25,5.55-.75-3.45-3.825-5.55-7.425-5.55-3.75,0-7.275,2.025-8.175,5.55v-4.95H3.9V480H5.925V448.35c0-3.9,3-8.175,7.575-8.175,4.125,0,6.525,2.4,6.525,6.15V480h2.1V447.45a6.95,6.95,0,0,1,7.2-7.275c5.25,0,6.75,2.475,6.75,6.675C36.075,479.625,36.075,480,36.15,480Zm-9.675,83.925c0-17.25-3.6-20.775-10.95-20.775-4.725,0-8.7,2.475-9.675,6.975V543.75H3.9v53.775H5.925V579.6c.9,3.075,4.275,5.7,9.675,5.7C23.25,585.3,26.475,580.5,26.475,563.925Zm-2.1.075c0,15.225-2.55,19.35-8.85,19.35-3.75,0-6.975-1.275-8.175-5.175-.975-2.55-1.425-6.15-1.425-14.175,0-5.475.15-9.15,1.125-12.675.9-3.3,3.3-6.225,8.4-6.225C22.35,545.1,24.375,549.3,24.375,564Zm-.3,116.175c0-5.925-3.45-8.775-8.1-11.325-1.125-.6-3.075-1.8-4.35-2.475-3.9-2.175-6.6-4.5-6.6-9.225,0-4.275,1.95-7.125,7.725-7.125,4.425,0,6.825,1.125,7.8,4.2a22.479,22.479,0,0,1,.525,6.45H23.1a23.337,23.337,0,0,0-.6-6.9c-1.275-4.125-4.5-5.625-9.675-5.625-6.975,0-9.9,3.975-9.9,8.625,0,5.925,2.85,8.7,7.425,11.25,1.8.975,3.45,1.95,4.35,2.475,3.975,2.325,7.2,4.575,7.2,9.825,0,5.325-2.625,8.25-8.4,8.25-5.175,0-8.55-1.5-9-5.85a34.309,34.309,0,0,1-.15-4.425H2.325a31.675,31.675,0,0,0,.225,4.575c.6,5.475,4.275,7.575,10.95,7.575C20.775,690.45,24.075,686.55,24.075,680.175ZM25.35,753.75H23.175l-10.2,38.625L2.7,753.75H.45L11.625,795h2.55Zm-.15,105H23.1L12.825,894.825,2.625,858.75H.45l11.325,39.825L7.8,912.525H9.975Z" transform="translate(1016 248)" fill="#0cb1f2"/>
    <path id="Path_442" data-name="Path 442" d="M28.95,55.575c1.5-3.15,2.025-7.425,2.025-11.475,0-3.75-.525-8.1-1.95-11.025a7.1,7.1,0,0,0-5.325-3.9,5.542,5.542,0,0,0,3.15-2.7c1.2-2.1,2.025-6,2.025-11.325,0-4.425-.525-7.8-1.8-10.425-1.5-3-4.5-4.35-8.175-4.35H5.1V60H20.7C25.125,60,27.525,58.425,28.95,55.575ZM26.55,15.15c0,4.95-.45,8.25-1.425,10.35a4.774,4.774,0,0,1-4.725,3H7.275V2.4H18.6c2.85,0,5.325,1.125,6.375,3.45A23.226,23.226,0,0,1,26.55,15.15ZM27,54.825C25.95,57,24.15,57.9,21.225,57.9H7.275V30.525h13.5C24,30.525,25.8,31.65,27,33.675c1.125,1.95,1.725,7.05,1.725,10.575C28.725,47.625,28.35,51.975,27,54.825ZM27.6,165v-2.025H7.275v-27.15h18.9V133.8H7.275V107.475h20.1v-2.1H5.1V165Zm2.325,105V210.375H27.75V238.8H7.275V210.375H5.1V270H7.275V240.825H27.75V270Zm.225,105L12.675,340.875l16.875-25.5H27.3L7.275,345.6V315.375H5.1V375H7.275V348.825l3.975-5.85L27.75,375ZM30,480V420.375H27.975V476.25L8.025,420.375H5.1V480H7.05V423.3L27.225,480ZM21.375,584.7c4.5-1.35,10.5-4.875,10.5-29.7,0-22.125-3.6-30-14.55-30S2.85,533.625,2.85,554.925c0,24.75,5.625,30.3,14.475,30.3a10.569,10.569,0,0,0,1.575-.075,25.884,25.884,0,0,0,4.05,3.6,17.912,17.912,0,0,0,5.4,2.625l1.2-1.725a15.1,15.1,0,0,1-5.1-2.475A16.774,16.774,0,0,1,21.375,584.7Zm-3.9-1.425c-9,0-12.375-9.15-12.375-28.125,0-17.025,1.275-27.975,12.3-27.975,10.875,0,12.225,11.025,12.225,27.75C29.625,574.575,26.775,583.275,17.475,583.275Zm9.975,49.2v-2.1H.225v2.1h12.45V690h2.25V632.475Zm18.825,102.9H44.1s-9.825,53.55-10.275,57.375c-.375-3.825-9.3-57.375-9.3-57.375H21.75s-8.925,53.1-9.45,57.375c-.525-4.275-9.975-57.375-9.975-57.375H.075L10.875,795H13.8s9-52.95,9.3-57.075c.45,4.05,9.3,57.075,9.3,57.075h2.925ZM26.4,900v-2.025H3.825l21.9-56.1v-1.5H2.625v2.1h20.7L1.575,898.05V900Z" transform="translate(345 260)" fill="#0cb1f2"/>
    <path id="Path_448" data-name="Path 448" d="M15.375,18.15c-5.55,0-8.7,2.925-9.525,5.925V.15H3.9V60H5.7l.225-5.325c1.5,3.9,4.875,5.625,9.225,5.625,9.45,0,11.325-7.725,11.325-21.6C26.475,21.675,22.875,18.15,15.375,18.15Zm-.3,1.95c6.75,0,9.3,3.075,9.3,18.75,0,16.875-3.525,19.575-9.675,19.575-5.7,0-7.8-3.975-8.55-7.125-.075-2.25-.225-3-.225-11.55,0-5.175,0-7.875.075-11.55C6.45,23.625,9.15,20.1,15.075,20.1Zm10.05,133.05H23.1c0,6.375-3.075,10.5-8.85,10.5-6.675,0-9.75-4.575-9.75-18.225H25.275V141.75c0-14.775-3.975-18.6-11.1-18.6C6.45,123.15,2.4,128.925,2.4,144.675c0,16.05,4.125,20.85,11.775,20.85C21.675,165.525,25.125,159.975,25.125,153.15Zm-1.95-9.6H4.5c0-13.425,3.45-18.45,9.675-18.45,6.525,0,9,4.425,9,17.025ZM24.225,270c-.075,0-.075-.15-.075-33,0-5.4-3.15-8.85-9.3-8.85-4.275,0-8.175,2.175-8.925,5.55V210.15H3.9V270H5.925V238.8c0-6,4.2-8.7,8.775-8.7,5.55,0,7.35,3.45,7.35,7.65,0,32.025,0,32.25.075,32.25Zm.525,105-11.4-27.15,10.2-14.1H21.225L5.925,354.9V315.15H3.9V375H5.925V358.125L12,349.8,22.65,375Zm-.525,105c-.075,0-.075-.3-.075-32.625,0-5.925-3-9.225-8.85-9.225-3.825,0-8.4,1.2-9.45,5.55v-4.95H3.9V480H5.925V449.1c0-6.6,4.425-9,8.85-9,4.8,0,7.275,2.25,7.275,7.5,0,32.025,0,32.4.15,32.4Zm.75,117.525c0-.225-.225-2.625-.225-6.075V543.675H22.875v4.5c-1.425-3.225-4.725-4.95-8.625-4.95-7.35,0-11.775,5.7-11.775,21,0,18.675,5.4,21.225,11.4,21.225,4.2,0,7.5-2.1,8.85-5.4v16.875l.375.6Zm-2.25-33.6c0,11.55.075,12.075-1.425,15.3-1.05,2.25-3,4.35-7.575,4.35-7.05,0-9.15-6.75-9.15-19.35,0-11.4,2.625-19.05,9.45-19.05,3.825,0,6.825,1.8,7.95,5.25C22.5,552.075,22.725,558.075,22.725,563.925Zm-7.05,86.7V648.75h-8.7V641.7l-2.025.075s-.075,6.975-.3,6.975H-.15v1.875H4.8v33.3c0,4.875,2.325,6.375,6.225,6.375a24.015,24.015,0,0,0,4.5-.375v-1.8c-.75.075-2.775.225-3.825.225-3.075,0-4.725-.825-4.725-5.175v-32.55ZM42.15,753.75H39.9l-8.85,38.925L22.5,753.75H20.025L11.85,792.675,2.7,753.75H.45L10.5,795h2.475s7.8-33.375,7.95-36.375c.075-1.125.375-3.45.375-3.45s.3,2.25.375,3.45C21.9,761.625,29.7,795,29.7,795h2.475ZM21.15,900v-1.875H3.45l17.1-36.9V858.75H1.575v1.875h17.1L1.35,897.75V900Z" transform="translate(1268 248)" fill="#0cb1f2"/>
    <path id="Path_443" data-name="Path 443" d="M31.575,41.25H29.25c0,10.725-3.375,17.25-11.325,17.25C7.95,58.5,5.25,49.125,5.25,29.85c0-19.95,3.825-27.6,13.125-27.6,8.475,0,10.875,7.5,10.875,16.95h2.4C31.65,6.075,27.225,0,18.375,0,8.925,0,2.925,6,2.925,29.775c0,23.7,4.875,30.75,15.075,30.75C26.7,60.525,31.575,53.85,31.575,41.25Zm-3.9,66.225v-2.1H5.1V165H7.275V135.825H26.55V133.8H7.275V107.475ZM7.35,270V210.375H5.1V270ZM26.925,375v-2.1H7.275V315.375H5.1V375Zm-9.6,45C8.4,420,2.85,424.5,2.85,450.075c0,20.4,3.525,30.45,14.475,30.45,11.325,0,14.55-9.75,14.55-30.375C31.875,423.825,25.35,420,17.325,420Zm.15,58.425c-10.725,0-12.3-12.525-12.3-28.125,0-21.525,3.375-28.125,12.225-28.125,7.95,0,12.225,6.075,12.225,27.9C29.625,466.65,27.825,478.425,17.475,478.425Zm10.95,62.625a37.6,37.6,0,0,0-.6-8.25c-.9-4.575-3.45-7.425-8.85-7.425H5.1V585H7.275V555.45h12.75L29.1,585h2.25l-9.225-30a7.066,7.066,0,0,0,4.95-4.275C27.9,548.85,28.425,545.4,28.425,541.05Zm-2.175.3a33.447,33.447,0,0,1-1.05,8.475c-.825,2.025-2.175,3.75-6.525,3.75H7.275v-26.1H19.05a6.087,6.087,0,0,1,6.375,5.025A49.381,49.381,0,0,1,26.25,541.35Zm3.3,138V630.375H27.375V678.9c0,6.15-4.2,9.525-10.125,9.525-7.05,0-10.575-3.45-10.575-9.6v-48.45H4.425V679.35c0,7.425,5.025,11.175,12.825,11.175C24.9,690.525,29.55,686.25,29.55,679.35ZM14.625,766.575,26.775,795H29.1L15.975,764.175l12.525-28.8H26.25L14.85,761.55,3.675,735.375H1.35L13.5,763.95,0,795H2.25ZM7.8,840.375H5.55l.15,47.85H7.575ZM8.1,900v-6.9H5.175V900Z" transform="translate(607 260)" fill="#0cb1f2"/>
    <path id="Path_455" data-name="Path 455" d="M24.975,32.1c0-7.125-1.95-13.95-10.65-13.95C6.525,18.15,2.4,23.475,2.4,39.3,2.4,57,6.825,60.525,14.25,60.525c7.725,0,10.05-5.025,10.725-13.35H22.95c-.525,6.375-2.175,11.475-8.625,11.475-6.6,0-9.825-3.75-9.825-19.2,0-12.975,2.4-19.2,9.75-19.2,6.825,0,8.55,5.325,8.55,11.85ZM17.4,125.625V123.75h-9V111.525c0-2.7,1.2-4.725,5.175-4.725a29.986,29.986,0,0,1,4.425.45v-2.025a17.019,17.019,0,0,0-4.425-.525c-5.4,0-7.35,2.925-7.35,7.5v11.55H.75v1.875H6.225V165H8.4V125.625ZM6.15,266.7V228.75H4.05v38.475A11.51,11.51,0,0,0,4.2,270H6.3C6.15,270,6.15,269.475,6.15,266.7Zm.225-42.45v-5.775H3.75v5.775ZM6.075,375a25.743,25.743,0,0,1-.15-3.6V317.7c0-2.1-.075-2.55-.075-2.7H3.825a27.729,27.729,0,0,1,.075,3.6v54.6a4.181,4.181,0,0,0,.225,1.8ZM26.25,459.375c0-13.875-2.175-21.225-11.85-21.225s-12,8.025-12,21.225c0,13.35,2.325,21.15,12,21.15S26.25,471.75,26.25,459.375Zm-2.1,0c0,10.05-.675,19.275-9.75,19.275-8.85,0-9.9-9-9.9-19.275,0-9.3.45-19.275,9.825-19.275C23.85,440.1,24.15,449.55,24.15,459.375Zm-4.575,84.45a15.838,15.838,0,0,0-4.725-.675c-4.5,0-7.95,2.7-8.85,6.525V543.75H3.9V585H6V556.05c0-5.925,3.3-10.8,8.775-10.8a18.947,18.947,0,0,1,4.8.75ZM24,683.85v-35.1H21.975v32.175c0,4.725-3.375,7.65-8.85,7.65-4.65,0-7.35-1.95-7.35-7.05,0-33.225,0-32.775-.075-32.775H3.675c.075,0,.075-.525.075,33.3,0,5.025,3.075,8.4,8.85,8.4,3.45,0,7.5-.825,9.375-4.425l.15,3.975h1.95C24,690,24,689.25,24,683.85ZM12.375,771.9,3.15,753.75H.975L11.25,774,.225,795H2.4l9.9-18.9L21.9,795h2.175l-10.65-21,10.65-20.25H21.9ZM7.8,840.375H5.55l.15,47.85H7.575ZM8.1,900v-6.9H5.175V900Z" transform="translate(1530 248)" fill="#0cb1f2"/>
    <path id="Path_445" data-name="Path 445" d="M0,0V942.444" transform="translate(840.021 248.15)" fill="none" stroke="#0cb1f2" stroke-width="3"/>
    <path id="Path_444" data-name="Path 444" d="M25.26,33H23.4c0,8.58-2.7,13.8-9.06,13.8C6.36,46.8,4.2,39.3,4.2,23.88,4.2,7.92,7.26,1.8,14.7,1.8c6.78,0,8.7,6,8.7,13.56h1.92C25.32,4.86,21.78,0,14.7,0,7.14,0,2.34,4.8,2.34,23.82c0,18.96,3.9,24.6,12.06,24.6C21.36,48.42,25.26,43.08,25.26,33ZM52.68,48V.3H50.94V23.04H34.56V.3H32.82V48h1.74V24.66H50.94V48ZM63.36,35.58H77.94L80.7,48h1.74L72,.3H70.08L58.74,48h1.74Zm14.28-1.56H63.72L69.84,7.68l1.2-5.82.9,5.82ZM107.1,12.84a30.077,30.077,0,0,0-.48-6.6C105.9,2.58,103.86.3,99.54.3H88.44V48h1.74V24.36h10.2L107.64,48h1.8l-7.38-24a5.653,5.653,0,0,0,3.96-3.42A21.433,21.433,0,0,0,107.1,12.84Zm-1.74.24a26.757,26.757,0,0,1-.84,6.78c-.66,1.62-1.74,3-5.22,3H90.18V1.98H99.6A4.869,4.869,0,0,1,104.7,6,39.5,39.5,0,0,1,105.36,13.08Zm12.18,22.5h14.58L134.88,48h1.74L126.18.3h-1.92L112.92,48h1.74Zm14.28-1.56H117.9l6.12-26.34,1.2-5.82.9,5.82ZM163.5,33h-1.86c0,8.58-2.7,13.8-9.06,13.8-7.98,0-10.14-7.5-10.14-22.92,0-15.96,3.06-22.08,10.5-22.08,6.78,0,8.7,6,8.7,13.56h1.92C163.56,4.86,160.02,0,152.94,0c-7.56,0-12.36,4.8-12.36,23.82,0,18.96,3.9,24.6,12.06,24.6C159.6,48.42,163.5,43.08,163.5,33ZM188.64,1.98V.3H166.86V1.98h9.96V48h1.8V1.98Zm24,46.02V46.38H196.38V24.66H211.5V23.04H196.38V1.98h16.08V.3H194.64V48Zm26.4-35.16a30.076,30.076,0,0,0-.48-6.6C237.84,2.58,235.8.3,231.48.3h-11.1V48h1.74V24.36h10.2L239.58,48h1.8L234,24a5.653,5.653,0,0,0,3.96-3.42A21.433,21.433,0,0,0,239.04,12.84Zm-1.74.24a26.757,26.757,0,0,1-.84,6.78c-.66,1.62-1.74,3-5.22,3h-9.12V1.98h9.42A4.869,4.869,0,0,1,236.64,6,39.5,39.5,0,0,1,237.3,13.08Zm43.56,24.96c0-6.36-3.18-10.02-7.74-13.86-1.08-.9-3.48-2.76-4.26-3.42-3.96-3.36-7.38-6.42-7.38-11.22,0-4.86,2.82-7.92,8.22-7.92,4.8,0,7.56,2.34,8.52,6.6a26.551,26.551,0,0,1,.48,4.5h1.8a30.738,30.738,0,0,0-.48-4.74C279.12,3,276,0,269.82,0c-6.6,0-10.14,3.96-10.14,9.48,0,5.1,3.12,8.58,7.56,12.24,1.5,1.2,3.3,2.58,4.32,3.48,4.44,3.96,7.5,6.72,7.5,13.08,0,5.46-2.52,8.52-8.52,8.52-4.86,0-7.92-1.92-8.88-6.12a30.277,30.277,0,0,1-.42-5.28h-1.8a26.243,26.243,0,0,0,.48,5.94c1.26,4.68,4.8,7.08,10.68,7.08C277.5,48.42,280.86,44.82,280.86,38.04ZM306.96,48V46.38H290.7V24.66h15.12V23.04H290.7V1.98h16.08V.3H288.96V48ZM332.28,1.98V.3H310.5V1.98h9.96V48h1.8V1.98Z" transform="translate(673 124)" fill="#0cb1f2"/>
  </g>
</svg>
