<svg xmlns="http://www.w3.org/2000/svg" xmlns:xlink="http://www.w3.org/1999/xlink" width="1680" height="509" viewBox="0 0 1680 509">
  <defs>
    <clipPath id="clip-ubuntu_numbers">
      <rect width="1680" height="509"/>
    </clipPath>
  </defs>
  <g id="ubuntu_numbers" clip-path="url(#clip-ubuntu_numbers)">
    <path id="Path_427" data-name="Path 427" d="M0,0H1688V509H0Z" transform="translate(0 -2)" fill="none"/>
    <path id="Path_433" data-name="Path 433" d="M21.66,50q-2.04-4.98-3.84-9.03t-3.45-7.59q-1.65-3.54-3.27-6.69T7.8,20.36V50H3.3V12.86H8.34q2.46,4.5,4.29,7.86t3.36,6.51q1.53,3.15,2.97,6.48t3.24,7.71V12.86h4.5V50Zm25.14.78a14.616,14.616,0,0,1-5.61-.96,9.49,9.49,0,0,1-3.75-2.7,10.914,10.914,0,0,1-2.1-4.26,22.275,22.275,0,0,1-.66-5.64V12.86H39.6V36.68a18.4,18.4,0,0,0,.51,4.71,8.069,8.069,0,0,0,1.44,3.03,5.129,5.129,0,0,0,2.25,1.62,9.615,9.615,0,0,0,6,0,5.129,5.129,0,0,0,2.25-1.62,8.069,8.069,0,0,0,1.44-3.03A18.4,18.4,0,0,0,54,36.68V12.86h4.92V37.22a22.275,22.275,0,0,1-.66,5.64,10.914,10.914,0,0,1-2.1,4.26,9.49,9.49,0,0,1-3.75,2.7A14.616,14.616,0,0,1,46.8,50.78ZM78.66,31.34l5.76-18.48h4.62q1.2,8.76,1.71,17.94T91.68,50h-4.8q-.06-3.24-.12-7.02t-.15-7.8q-.09-4.02-.18-8.16t-.21-8.04L80.82,35.9H76.5L70.98,18.98q-.06,3.9-.15,8.01t-.18,8.16q-.09,4.05-.18,7.83T70.32,50h-4.8q.18-4.56.42-9.36t.57-9.54q.33-4.74.78-9.36t.99-8.88h4.56ZM107.64,50.3q-.9,0-2.1-.06t-2.4-.15q-1.2-.09-2.4-.27a19.418,19.418,0,0,1-2.1-.42v-36a19.773,19.773,0,0,1,2.07-.42q1.17-.18,2.4-.27t2.4-.15q1.17-.06,2.13-.06a26.3,26.3,0,0,1,5.16.48,11.953,11.953,0,0,1,4.17,1.62,7.96,7.96,0,0,1,2.76,3,9.748,9.748,0,0,1,.99,4.62,7.837,7.837,0,0,1-.42,2.55,9.4,9.4,0,0,1-2.91,4.2,7.379,7.379,0,0,1-2.13,1.23,10.648,10.648,0,0,1,5.13,3.09,8.3,8.3,0,0,1,2.07,5.85q0,5.52-3.54,8.34T107.64,50.3Zm-4.08-17.64V45.92a8.311,8.311,0,0,0,1.35.15q1.23.09,3.09.09a20.634,20.634,0,0,0,3.57-.3,8.562,8.562,0,0,0,3.03-1.11,6.381,6.381,0,0,0,2.13-2.13,6.461,6.461,0,0,0,.81-3.42,6.007,6.007,0,0,0-.75-3.12,5.775,5.775,0,0,0-1.98-2.01,8.8,8.8,0,0,0-2.85-1.08,16.8,16.8,0,0,0-3.36-.33Zm0-4.08h3.9a15.263,15.263,0,0,0,3-.3,9.385,9.385,0,0,0,2.7-.96,5.189,5.189,0,0,0,1.92-1.8,5.3,5.3,0,0,0,.72-2.88,5.422,5.422,0,0,0-.66-2.76,5.538,5.538,0,0,0-1.74-1.86A7.106,7.106,0,0,0,110.91,17a14.243,14.243,0,0,0-2.97-.3q-1.56,0-2.73.03a8.665,8.665,0,0,0-1.65.15ZM132.66,50V12.86h20.82v4.2h-15.9v11.4H151.5v4.2H137.58V45.8H154.8V50Zm52.2-25.8a10.361,10.361,0,0,1-1.8,6.03,11.943,11.943,0,0,1-4.86,4.05q.9,1.44,2.01,3.27t2.25,3.9q1.14,2.07,2.25,4.26T186.78,50H181.5q-1.8-4.32-3.93-8.28a42.332,42.332,0,0,0-4.11-6.42,6.866,6.866,0,0,1-1.05.06h-5.13V50H162.3V13.4a19.773,19.773,0,0,1,2.07-.42q1.17-.18,2.4-.27t2.43-.15q1.2-.06,2.16-.06,6.72,0,10.11,2.94T184.86,24.2Zm-13.08-7.44q-1.38,0-2.67.03a10.733,10.733,0,0,0-1.83.15V31.28h3.18a22.538,22.538,0,0,0,3.87-.3,7.7,7.7,0,0,0,2.94-1.11,5.266,5.266,0,0,0,1.89-2.22,8.768,8.768,0,0,0,.66-3.69,8.223,8.223,0,0,0-.66-3.54,5.8,5.8,0,0,0-1.74-2.19,6.6,6.6,0,0,0-2.55-1.14A14.072,14.072,0,0,0,171.78,16.76Zm33.06,29.76a9.715,9.715,0,0,0,5.76-1.44,4.994,4.994,0,0,0,1.98-4.32,5.782,5.782,0,0,0-.72-2.97,7.551,7.551,0,0,0-1.92-2.16,13.8,13.8,0,0,0-2.7-1.62q-1.5-.69-3.06-1.29a32.067,32.067,0,0,1-3.45-1.62,14.449,14.449,0,0,1-2.94-2.1,8.945,8.945,0,0,1-2.04-2.82,9.071,9.071,0,0,1-.75-3.84,9.646,9.646,0,0,1,3.06-7.59q3.06-2.73,8.52-2.73a20.974,20.974,0,0,1,2.97.21q1.47.21,2.73.51a14.188,14.188,0,0,1,2.25.72,8.817,8.817,0,0,1,1.59.84l-1.56,4.14a17.818,17.818,0,0,0-3.3-1.44,14.365,14.365,0,0,0-4.68-.72,8.1,8.1,0,0,0-4.68,1.35,4.575,4.575,0,0,0-1.98,4.05,5.6,5.6,0,0,0,.57,2.64,6.118,6.118,0,0,0,1.56,1.89,12.364,12.364,0,0,0,2.31,1.47q1.32.66,2.88,1.32,2.28.96,4.17,1.92a13.033,13.033,0,0,1,3.24,2.28,9.331,9.331,0,0,1,2.1,3.12,11.388,11.388,0,0,1,.75,4.38,9,9,0,0,1-3.27,7.47q-3.27,2.61-9.39,2.61a24.279,24.279,0,0,1-3.72-.27,21.624,21.624,0,0,1-3.09-.69q-1.35-.42-2.37-.84a9.306,9.306,0,0,1-1.56-.78l1.5-4.08a28.075,28.075,0,0,0,3.54,1.53A16.428,16.428,0,0,0,204.84,46.52Z" transform="translate(730 95)" fill="#fff"/>
    <g id="Group_134" data-name="Group 134" transform="translate(8)">
      <path id="Path_438" data-name="Path 438" d="M4.5,20.54a34.653,34.653,0,0,0,5.94-3.03,24.634,24.634,0,0,0,5.34-4.65h3.48V45.8h7.02V50H6.3V45.8h8.04V19.76a14.252,14.252,0,0,1-1.59,1.23q-.93.63-2.04,1.23T8.4,23.36a21.464,21.464,0,0,1-2.34.9ZM3.24,107.12a28.717,28.717,0,0,1,1.47-9.57,18.933,18.933,0,0,1,4.2-6.99,18.159,18.159,0,0,1,6.63-4.32,25.3,25.3,0,0,1,8.82-1.56l.42,4.2a26.868,26.868,0,0,0-5.79.69,13.779,13.779,0,0,0-4.65,2.04,12.134,12.134,0,0,0-3.42,3.63,17.48,17.48,0,0,0-2.1,5.46,17.651,17.651,0,0,1,3.15-1.08,15.175,15.175,0,0,1,3.63-.42,13.192,13.192,0,0,1,5.31.96,9.332,9.332,0,0,1,3.51,2.55,10,10,0,0,1,1.92,3.69,15.648,15.648,0,0,1,.6,4.32,14.046,14.046,0,0,1-.66,4.17,12.135,12.135,0,0,1-2.04,3.9,10.49,10.49,0,0,1-3.54,2.88,11.163,11.163,0,0,1-5.16,1.11q-6.18,0-9.24-4.14T3.24,107.12Zm11.82-3.84a15.91,15.91,0,0,0-3.51.36,17.327,17.327,0,0,0-3.21,1.08q-.06.6-.06,1.17v1.23a28.023,28.023,0,0,0,.33,4.41,12.28,12.28,0,0,0,1.14,3.66,6.563,6.563,0,0,0,2.19,2.52,6.21,6.21,0,0,0,3.54.93,5.563,5.563,0,0,0,3-.75A6.619,6.619,0,0,0,20.46,116a7.5,7.5,0,0,0,1.11-2.55,11.732,11.732,0,0,0,.33-2.67,8.334,8.334,0,0,0-1.65-5.58Q18.6,103.28,15.06,103.28Z" transform="translate(487 230)" fill="#fff"/>
      <path id="Path_439" data-name="Path 439" d="M25.2,22.34a9.582,9.582,0,0,1-.75,3.72,18.4,18.4,0,0,1-1.98,3.54,33.2,33.2,0,0,1-2.79,3.42q-1.56,1.68-3.18,3.3-.9.9-2.1,2.16t-2.28,2.58a18.966,18.966,0,0,0-1.8,2.58A4.556,4.556,0,0,0,9.6,45.8H26.7V50H4.2a3.207,3.207,0,0,1-.06-.63v-.63a12.8,12.8,0,0,1,.84-4.68,19.929,19.929,0,0,1,2.16-4.08,28.367,28.367,0,0,1,2.97-3.63q1.65-1.71,3.27-3.33,1.32-1.32,2.55-2.58a24.189,24.189,0,0,0,2.16-2.52,12.734,12.734,0,0,0,1.5-2.61,7.105,7.105,0,0,0,.57-2.79,6.734,6.734,0,0,0-.51-2.76,5.321,5.321,0,0,0-1.38-1.89,5.644,5.644,0,0,0-2.01-1.11,8.128,8.128,0,0,0-2.46-.36,9.168,9.168,0,0,0-2.85.42,10.894,10.894,0,0,0-2.28,1.02,16.768,16.768,0,0,0-1.71,1.17,13.136,13.136,0,0,0-1.08.93L3.42,16.46a12.735,12.735,0,0,1,1.44-1.32,13.139,13.139,0,0,1,2.31-1.47A16.776,16.776,0,0,1,10.2,12.5a13.051,13.051,0,0,1,3.6-.48q5.82,0,8.61,2.67T25.2,22.34ZM9.3,122a50.465,50.465,0,0,1,1.53-9.03,81.649,81.649,0,0,1,2.97-9.24,68.965,68.965,0,0,1,3.84-8.28,40.529,40.529,0,0,1,4.14-6.27h-18V84.86H27.3V89a40.755,40.755,0,0,0-3.9,5.64,68.425,68.425,0,0,0-3.99,7.95,73.32,73.32,0,0,0-3.27,9.42A51.548,51.548,0,0,0,14.4,122Z" transform="translate(651 230)" fill="#fff"/>
      <path id="Path_434" data-name="Path 434" d="M12.72,46.4q4.74,0,6.75-1.89a6.628,6.628,0,0,0,2.01-5.07,6.47,6.47,0,0,0-.84-3.42,6.549,6.549,0,0,0-2.22-2.22,9.734,9.734,0,0,0-3.18-1.2,19.241,19.241,0,0,0-3.78-.36H10.2V28.22h1.74a14.508,14.508,0,0,0,2.73-.27,8,8,0,0,0,2.58-.96,5.347,5.347,0,0,0,1.89-1.89,5.873,5.873,0,0,0,.72-3.06q0-3.06-1.89-4.35a7.632,7.632,0,0,0-4.41-1.29,11.388,11.388,0,0,0-4.38.75,18.869,18.869,0,0,0-3,1.53L4.26,14.9a18.06,18.06,0,0,1,3.81-1.89,15.55,15.55,0,0,1,5.67-.99,15.61,15.61,0,0,1,5.04.72,9.039,9.039,0,0,1,3.45,2.04,8.351,8.351,0,0,1,2.01,3.09,10.994,10.994,0,0,1,.66,3.87,8.063,8.063,0,0,1-1.53,4.98,9.9,9.9,0,0,1-3.93,3.12,10.316,10.316,0,0,1,4.98,3.27,9.519,9.519,0,0,1,2.1,6.45,12.159,12.159,0,0,1-.81,4.47,9.385,9.385,0,0,1-2.46,3.57,11.448,11.448,0,0,1-4.26,2.34,20.368,20.368,0,0,1-6.21.84,20.151,20.151,0,0,1-2.85-.21,24.429,24.429,0,0,1-2.73-.54q-1.26-.33-2.25-.66t-1.41-.51L4.5,44.6a22.583,22.583,0,0,0,3.06,1.14A17.4,17.4,0,0,0,12.72,46.4Zm14.22,65.94a10.055,10.055,0,0,1-2.97,7.56q-2.97,2.88-9.03,2.88a15.363,15.363,0,0,1-5.76-.93,9.92,9.92,0,0,1-3.63-2.4,8.665,8.665,0,0,1-1.92-3.27,11.684,11.684,0,0,1-.57-3.54A9.523,9.523,0,0,1,4.8,107a14.411,14.411,0,0,1,4.14-3.96,9.471,9.471,0,0,1-5.1-8.82,9.985,9.985,0,0,1,.78-3.9,9.557,9.557,0,0,1,2.22-3.24,10.963,10.963,0,0,1,3.51-2.22A12.269,12.269,0,0,1,15,84.02a13.154,13.154,0,0,1,5.13.9,9.945,9.945,0,0,1,3.45,2.31,8.8,8.8,0,0,1,1.92,3.12,10.027,10.027,0,0,1,.6,3.33,9.317,9.317,0,0,1-1.62,5.49,13.863,13.863,0,0,1-3.72,3.69Q26.94,105.8,26.94,112.34Zm-19.08.36a6.193,6.193,0,0,0,.36,2.01,5.435,5.435,0,0,0,1.2,1.95,6.239,6.239,0,0,0,2.22,1.47,8.805,8.805,0,0,0,3.36.57,9.084,9.084,0,0,0,3.21-.51,6.17,6.17,0,0,0,2.22-1.38,5.625,5.625,0,0,0,1.29-1.95,5.922,5.922,0,0,0,.42-2.16,6.148,6.148,0,0,0-2.46-5.25,17.8,17.8,0,0,0-6.78-2.79,10.352,10.352,0,0,0-3.72,3.3A8.347,8.347,0,0,0,7.86,112.7ZM21.3,93.68a5.6,5.6,0,0,0-1.47-3.57,6.3,6.3,0,0,0-1.95-1.38A6.664,6.664,0,0,0,15,88.16a6.937,6.937,0,0,0-2.91.54,6.382,6.382,0,0,0-1.95,1.35,4.741,4.741,0,0,0-1.11,1.8A6.142,6.142,0,0,0,8.7,93.8a7.05,7.05,0,0,0,1.77,4.59,10.494,10.494,0,0,0,5.85,3.09,11.909,11.909,0,0,0,3.63-3.12A7.6,7.6,0,0,0,21.3,93.68Z" transform="translate(817 230)" fill="#fff"/>
      <path id="Path_435" data-name="Path 435" d="M2.16,37.16a55.2,55.2,0,0,1,2.79-5.52q1.77-3.12,3.99-6.45t4.74-6.54a64.516,64.516,0,0,1,5.1-5.79h4.8V36.44h4.38v4.08H23.58V50h-4.8V40.52H2.16ZM18.78,18.74q-1.62,1.74-3.27,3.84T12.3,26.99Q10.74,29.3,9.39,31.7T6.96,36.44H18.78Zm8.04,81q0,11.1-5.4,16.71T5.16,122.12l-.18-4.2q6.72,0,10.83-2.67t5.43-9.21a16.031,16.031,0,0,1-3.18,1.05,16.693,16.693,0,0,1-3.66.39,13.518,13.518,0,0,1-5.34-.93,9.1,9.1,0,0,1-3.48-2.52,10.062,10.062,0,0,1-1.92-3.63,15.236,15.236,0,0,1-.6-4.32,14.046,14.046,0,0,1,.66-4.17,11.789,11.789,0,0,1,2.04-3.87A10.986,10.986,0,0,1,9.3,85.16a10.918,10.918,0,0,1,5.16-1.14q6.12,0,9.24,4.2T26.82,99.74ZM14.94,103.4a16.739,16.739,0,0,0,3.57-.36,18.152,18.152,0,0,0,3.21-1.02q.06-.6.06-1.14V99.74a28.6,28.6,0,0,0-.33-4.44,11.922,11.922,0,0,0-1.14-3.66,6.525,6.525,0,0,0-2.22-2.49,6.358,6.358,0,0,0-3.57-.93,5.563,5.563,0,0,0-3,.75,6.778,6.778,0,0,0-1.98,1.86,7.2,7.2,0,0,0-1.11,2.49,11.352,11.352,0,0,0-.33,2.64,8.212,8.212,0,0,0,1.65,5.55Q11.4,103.4,14.94,103.4Z" transform="translate(981 230)" fill="#fff"/>
      <path id="Path_430" data-name="Path 430" d="M11.16,27.2q8.04.3,11.7,3.54a11.038,11.038,0,0,1,3.66,8.7A13,13,0,0,1,25.74,44a9.058,9.058,0,0,1-2.43,3.6,11.492,11.492,0,0,1-4.2,2.34,19.336,19.336,0,0,1-6.03.84,19.32,19.32,0,0,1-2.85-.21q-1.41-.21-2.67-.51t-2.22-.63a8.792,8.792,0,0,1-1.38-.57l.96-4.26a23.674,23.674,0,0,0,2.97,1.14,16.5,16.5,0,0,0,5.07.66,12.857,12.857,0,0,0,4.02-.54,6.97,6.97,0,0,0,2.61-1.47,5.6,5.6,0,0,0,1.44-2.13,7.118,7.118,0,0,0,.45-2.52,9.039,9.039,0,0,0-.69-3.63,5.989,5.989,0,0,0-2.4-2.67,13.652,13.652,0,0,0-4.68-1.65,40.669,40.669,0,0,0-7.47-.57q.36-2.64.57-4.95t.36-4.5q.15-2.19.24-4.35t.21-4.56H25.5v4.2H11.94q-.06.84-.15,2.19t-.21,2.85q-.12,1.5-.24,2.88T11.16,27.2Zm7.32,75.54a4.139,4.139,0,0,1-.93,2.7,2.986,2.986,0,0,1-2.43,1.14,3.135,3.135,0,0,1-2.52-1.14,4.058,4.058,0,0,1-.96-2.7,4.294,4.294,0,0,1,.96-2.76,3.071,3.071,0,0,1,2.52-1.2,2.931,2.931,0,0,1,2.43,1.2A4.381,4.381,0,0,1,18.48,102.74Zm-15.72.66q0-9.36,3.21-14.37A10.148,10.148,0,0,1,15,84.02a10.128,10.128,0,0,1,9.06,5.01q3.18,5.01,3.18,14.37t-3.18,14.37A10.128,10.128,0,0,1,15,122.78a10.148,10.148,0,0,1-9.03-5.01Q2.76,112.76,2.76,103.4Zm19.44,0a44.323,44.323,0,0,0-.36-5.79,19.1,19.1,0,0,0-1.2-4.77,8.477,8.477,0,0,0-2.22-3.24A5.027,5.027,0,0,0,15,88.4a5.027,5.027,0,0,0-3.42,1.2,8.477,8.477,0,0,0-2.22,3.24,19.1,19.1,0,0,0-1.2,4.77,46.741,46.741,0,0,0,0,11.58,19.1,19.1,0,0,0,1.2,4.77,8.476,8.476,0,0,0,2.22,3.24A5.027,5.027,0,0,0,15,118.4a5.027,5.027,0,0,0,3.42-1.2,8.476,8.476,0,0,0,2.22-3.24,19.1,19.1,0,0,0,1.2-4.77A44.323,44.323,0,0,0,22.2,103.4Z" transform="translate(1146 230)" fill="#fff"/>
    </g>
  </g>
</svg>
