<svg xmlns="http://www.w3.org/2000/svg" xmlns:xlink="http://www.w3.org/1999/xlink" width="1680" height="1353" viewBox="0 0 1680 1353">
  <defs>
    <clipPath id="clip-ubuntu_characterset">
      <rect width="1680" height="1353"/>
    </clipPath>
  </defs>
  <g id="ubuntu_characterset" clip-path="url(#clip-ubuntu_characterset)">
    <path id="Path_426" data-name="Path 426" d="M0,0H1688V1357.944H0Z" fill="none"/>
    <path id="Path_606" data-name="Path 606" d="M30.3,62,27.525,49.85H9.675L6.975,62H.675q1.275-4.95,2.85-10.725t3.413-11.85Q8.775,33.35,10.8,27.237t4.275-11.663h7.65q2.175,5.55,4.163,11.663t3.75,12.187Q32.4,45.5,33.975,51.275T36.825,62ZM18.675,20.975q-1.725,4.725-3.75,10.95T11.1,44.75h15Q24.375,38,22.388,31.738T18.675,20.975ZM34.5,128.75a32.638,32.638,0,0,1-1.612,10.95,19.416,19.416,0,0,1-4.425,7.313,16.7,16.7,0,0,1-6.675,4.088,26.528,26.528,0,0,1-8.362,1.275A40.365,40.365,0,0,1,4.05,151.25v-45a40.365,40.365,0,0,1,9.375-1.125,26.527,26.527,0,0,1,8.362,1.275,16.509,16.509,0,0,1,6.675,4.125,19.779,19.779,0,0,1,4.425,7.35A32.377,32.377,0,0,1,34.5,128.75ZM10.2,146.825a32.078,32.078,0,0,0,3.825.225,16.587,16.587,0,0,0,6-1.012,10.48,10.48,0,0,0,4.425-3.225,15.564,15.564,0,0,0,2.775-5.7,31.354,31.354,0,0,0,.975-8.363q0-9.45-3.638-13.875T13.8,110.45q-.975,0-1.913.038a10.866,10.866,0,0,0-1.687.188Zm17.775,72.3h6.15v21.75q-1.425.525-4.575,1.313a30.877,30.877,0,0,1-7.425.788,17.845,17.845,0,0,1-7.65-1.613,16.176,16.176,0,0,1-5.888-4.687A22.4,22.4,0,0,1,4.8,229.063,36.172,36.172,0,0,1,3.45,218.75a32.705,32.705,0,0,1,1.5-10.35,22.838,22.838,0,0,1,4.087-7.575,17.552,17.552,0,0,1,6.038-4.687,17.317,17.317,0,0,1,7.425-1.613,24.031,24.031,0,0,1,4.5.375,20.438,20.438,0,0,1,3.337.9,13.128,13.128,0,0,1,2.287,1.087q.9.563,1.35.863l-2.025,5.175a14.825,14.825,0,0,0-4.088-2.213,14.429,14.429,0,0,0-4.987-.862,10.736,10.736,0,0,0-5.288,1.35,12.352,12.352,0,0,0-4.162,3.825,19.554,19.554,0,0,0-2.7,5.963,28.8,28.8,0,0,0-.975,7.762,31.55,31.55,0,0,0,.862,7.65,18.83,18.83,0,0,0,2.513,5.925,12.042,12.042,0,0,0,4.087,3.863,11.1,11.1,0,0,0,5.587,1.387,14.665,14.665,0,0,0,3.375-.3,9.3,9.3,0,0,0,1.8-.6Zm-18.45,71.7v-5.25H31.5v31.5a26.234,26.234,0,0,1-.712,6.225,12.471,12.471,0,0,1-2.475,5.063,11.951,11.951,0,0,1-4.725,3.375,19.471,19.471,0,0,1-7.462,1.238A19.82,19.82,0,0,1,8.55,331.7a17.8,17.8,0,0,1-4.5-2.475L6.525,324.2a27.507,27.507,0,0,0,3.788,2.25,12.019,12.019,0,0,0,5.512,1.2q4.8,0,7.162-2.55t2.363-8.625v-25.65Zm9.3,107.85,7.2-23.1H31.8q1.5,10.95,2.138,22.425T35.1,422h-6q-.075-4.05-.15-8.775t-.187-9.75q-.113-5.025-.225-10.2t-.262-10.05l-6.75,21.15h-5.4l-6.9-21.15q-.075,4.875-.188,10.012t-.225,10.2q-.112,5.063-.225,9.788T8.4,422h-6q.225-5.7.525-11.7t.713-11.925q.413-5.925.975-11.7t1.237-11.1h5.7Zm-1.2,66.45a22.65,22.65,0,0,1,7.237,1.05,14.133,14.133,0,0,1,5.175,2.963,12,12,0,0,1,3.075,4.537,16.14,16.14,0,0,1,1.013,5.85q0,7.275-4.275,11.212t-12.825,3.938h-5.4V512H5.475V466.25q1.35-.3,2.963-.525t3.225-.375q1.612-.15,3.15-.187T17.625,465.125Zm.45,5.325q-1.95,0-3.75.037a20.433,20.433,0,0,0-2.7.188v18.75h5.1q5.625,0,8.363-2.25t2.737-7.425Q27.825,470.45,18.075,470.45Zm-.525,127.2q4.725,0,7.2-1.8a6.243,6.243,0,0,0,2.475-5.4,7.228,7.228,0,0,0-.9-3.713,9.439,9.439,0,0,0-2.4-2.7,17.256,17.256,0,0,0-3.375-2.025q-1.875-.863-3.825-1.612a40.092,40.092,0,0,1-4.312-2.025,18.061,18.061,0,0,1-3.675-2.625,11.18,11.18,0,0,1-2.55-3.525,11.339,11.339,0,0,1-.938-4.8q0-6.075,3.825-9.487t10.65-3.412a26.22,26.22,0,0,1,3.712.262q1.838.262,3.413.638a17.732,17.732,0,0,1,2.813.9,11.017,11.017,0,0,1,1.987,1.05L29.7,562.55a22.276,22.276,0,0,0-4.125-1.8,17.955,17.955,0,0,0-5.85-.9,10.131,10.131,0,0,0-5.85,1.688A5.719,5.719,0,0,0,11.4,566.6a7,7,0,0,0,.713,3.3,7.648,7.648,0,0,0,1.95,2.362A15.455,15.455,0,0,0,16.95,574.1q1.65.825,3.6,1.65,2.85,1.2,5.212,2.4a16.289,16.289,0,0,1,4.05,2.85,11.664,11.664,0,0,1,2.625,3.9,14.235,14.235,0,0,1,.938,5.475q0,6.075-4.087,9.338T17.55,602.975a30.352,30.352,0,0,1-4.65-.337,27.039,27.039,0,0,1-3.863-.862q-1.687-.525-2.962-1.05a11.633,11.633,0,0,1-1.95-.975L6,594.65a35.1,35.1,0,0,0,4.425,1.912A20.534,20.534,0,0,0,17.55,597.65Zm-9.9,47.925q.9,4.725,2.287,10.313t2.925,11.175q1.538,5.588,3.113,10.688t2.925,8.925q1.2-3.825,2.813-9T24.9,666.912q1.575-5.587,2.962-11.137t2.288-10.2H36.6q-.6,3-1.95,8.063t-3.225,11.325q-1.875,6.262-4.162,13.275T22.5,692H14.85q-2.325-6.75-4.538-13.725T6.225,665.037Q4.35,658.775,3,653.675t-2.025-8.1ZM15.75,782V764.75q-4.575-7.5-8.287-14.625a129.815,129.815,0,0,1-6.488-14.55h6.9a105.637,105.637,0,0,0,4.988,12.037q2.813,5.738,6.037,11.813,3.45-6.375,6.113-12.112t4.837-11.737H36.6A136.829,136.829,0,0,1,30.075,749.9Q26.4,756.875,21.9,764.6V782Z" transform="translate(93 260)" fill="#0cb1f2"/>
    <path id="Path_431" data-name="Path 431" d="M19.125,57.575q2.325,0,4.163-.15a30.4,30.4,0,0,0,3.038-.375V46.7a17.6,17.6,0,0,0-2.888-.6,26.968,26.968,0,0,0-3.563-.225,21.45,21.45,0,0,0-3.375.263,9.35,9.35,0,0,0-2.925.938,6.284,6.284,0,0,0-2.1,1.763,4.4,4.4,0,0,0-.825,2.737q0,3.375,2.287,4.688A12.434,12.434,0,0,0,19.125,57.575Zm-.6-31.2a19.218,19.218,0,0,1,6.563.975,11.16,11.16,0,0,1,4.312,2.7,9.623,9.623,0,0,1,2.325,4.2,20.476,20.476,0,0,1,.675,5.4V61.4q-2.175.375-5.738.9a50.1,50.1,0,0,1-7.313.525,31.177,31.177,0,0,1-5.55-.487A14.415,14.415,0,0,1,9,60.612,9.4,9.4,0,0,1,5.625,57.2,10.855,10.855,0,0,1,4.35,51.65a9.244,9.244,0,0,1,1.313-5.062A10.5,10.5,0,0,1,9.037,43.25a14.676,14.676,0,0,1,4.725-1.838,25.874,25.874,0,0,1,5.362-.562,31.489,31.489,0,0,1,7.2.825V39.95a13.467,13.467,0,0,0-.337-3.038,6.739,6.739,0,0,0-1.275-2.662,6.48,6.48,0,0,0-2.55-1.912A10.379,10.379,0,0,0,18,31.625a30.869,30.869,0,0,0-5.625.45,26.225,26.225,0,0,0-3.675.9l-.75-5.1a16.772,16.772,0,0,1,4.238-1.05A42.239,42.239,0,0,1,18.525,26.375ZM25.95,124.55a10.7,10.7,0,0,0-3.075-1.838,10.614,10.614,0,0,0-4.2-.863,8.631,8.631,0,0,0-4.237.975,8.188,8.188,0,0,0-2.887,2.663,11.878,11.878,0,0,0-1.65,4.05,23.305,23.305,0,0,0-.525,5.063q0,6.075,2.85,9.375a9.346,9.346,0,0,0,7.425,3.3,29.122,29.122,0,0,0,3.938-.225,17.388,17.388,0,0,0,2.362-.45Zm0-23.475,6.225-1.05v51q-2.025.6-5.175,1.2a39.691,39.691,0,0,1-7.35.6,17.657,17.657,0,0,1-6.825-1.275,14.677,14.677,0,0,1-5.25-3.637A16.522,16.522,0,0,1,4.2,142.175,22.5,22.5,0,0,1,3,134.6a25.377,25.377,0,0,1,1.012-7.388,16.647,16.647,0,0,1,2.963-5.738,13.538,13.538,0,0,1,10.95-5.1,15.951,15.951,0,0,1,4.875.675,11.778,11.778,0,0,1,3.15,1.425Zm0,137.7a17.619,17.619,0,0,1-8.25,1.95,16.007,16.007,0,0,1-5.738-1.013,12.606,12.606,0,0,1-4.65-3.075,14.7,14.7,0,0,1-3.15-5.25A22.009,22.009,0,0,1,3,223.85a21.6,21.6,0,0,1,1.088-7.013,15.967,15.967,0,0,1,3.15-5.512,14.358,14.358,0,0,1,5.062-3.637,16.871,16.871,0,0,1,6.825-1.312,39.83,39.83,0,0,1,7.687.637q3.188.638,5.363,1.238V239.3q0,8.1-4.087,11.7T15.75,254.6A32.414,32.414,0,0,1,4.8,252.8l1.125-5.475a24.15,24.15,0,0,0,4.463,1.35,26.982,26.982,0,0,0,5.512.525q5.4,0,7.725-2.175t2.325-7.05Zm0-26.1a17.044,17.044,0,0,0-2.475-.562,27.294,27.294,0,0,0-4.275-.262,8.628,8.628,0,0,0-7.313,3.3,14.12,14.12,0,0,0-2.512,8.775,16.337,16.337,0,0,0,.712,5.137,9.945,9.945,0,0,0,1.95,3.525,7.549,7.549,0,0,0,2.813,2.025,8.909,8.909,0,0,0,3.375.637,14.019,14.019,0,0,0,4.387-.675A12.6,12.6,0,0,0,25.95,233ZM23.1,291.8a4.742,4.742,0,0,1-3.375-1.35,5.451,5.451,0,0,1,0-7.35,4.941,4.941,0,0,1,6.788,0,5.561,5.561,0,0,1,0,7.35A4.705,4.705,0,0,1,23.1,291.8ZM8.55,302.375V297.2H28.8v34.425a16.374,16.374,0,0,1-1.013,6.112,11.227,11.227,0,0,1-2.7,4.088,9.859,9.859,0,0,1-3.9,2.25,15.979,15.979,0,0,1-4.687.675,28.14,28.14,0,0,1-5.738-.6,22.2,22.2,0,0,1-5.437-1.875l1.875-5.25a25.32,25.32,0,0,0,4.162,1.538,16.333,16.333,0,0,0,4.387.638,7.75,7.75,0,0,0,4.95-1.538q1.95-1.537,1.95-5.962V302.375Zm-5.475,85.8a23.728,23.728,0,0,1,8.475-1.725,12.845,12.845,0,0,1,4.087.637,8.209,8.209,0,0,1,3.262,1.988,10.742,10.742,0,0,1,6.9-2.625,8.748,8.748,0,0,1,3.412.675,8.058,8.058,0,0,1,2.85,2.025,10.136,10.136,0,0,1,1.987,3.375,13.581,13.581,0,0,1,.75,4.725V422H29.175V397.1a6.245,6.245,0,0,0-1.2-4.125,3.763,3.763,0,0,0-3-1.425A4.469,4.469,0,0,0,23.1,392a5.274,5.274,0,0,0-1.8,1.425,15.149,15.149,0,0,1,.45,3.825v11.325H16.125v-11.4a8.618,8.618,0,0,0-.825-4.125q-.825-1.5-3.225-1.5a10.088,10.088,0,0,0-3.375.675V422H3.075Zm25.05,106.5q0-6.075-2.85-9.412a9.3,9.3,0,0,0-7.425-3.338,27.815,27.815,0,0,0-4.013.225,12.585,12.585,0,0,0-2.287.525V504.65a10.168,10.168,0,0,0,3.075,1.8,11.03,11.03,0,0,0,4.2.825,8.631,8.631,0,0,0,4.238-.975,8.188,8.188,0,0,0,2.887-2.662,11.892,11.892,0,0,0,1.65-3.975A22.289,22.289,0,0,0,28.125,494.675Zm6.375,0a25.1,25.1,0,0,1-1.013,7.313,17.028,17.028,0,0,1-2.925,5.738,13.43,13.43,0,0,1-4.687,3.75,14.219,14.219,0,0,1-6.3,1.35,15.951,15.951,0,0,1-4.875-.675,10.28,10.28,0,0,1-3.15-1.5v13.725H5.325V478.25q2.025-.6,5.212-1.2a39.837,39.837,0,0,1,7.313-.6,17.656,17.656,0,0,1,6.825,1.275,14.677,14.677,0,0,1,5.25,3.637A16.522,16.522,0,0,1,33.3,487.1,22.5,22.5,0,0,1,34.5,494.675ZM26.325,593.3a3.733,3.733,0,0,0-1.538-3.075,15.286,15.286,0,0,0-3.825-2.1q-2.288-.9-4.988-1.763a27.236,27.236,0,0,1-4.988-2.138,13.173,13.173,0,0,1-3.825-3.15A7.441,7.441,0,0,1,5.625,576.2a8.731,8.731,0,0,1,3.412-7.013q3.413-2.812,10.688-2.812a43.758,43.758,0,0,1,5.888.412,32.606,32.606,0,0,1,5.212,1.088l-1.125,5.55a12.134,12.134,0,0,0-1.65-.638,20.985,20.985,0,0,0-2.4-.6q-1.35-.262-2.888-.412t-2.962-.15q-8.1,0-8.1,4.425a3.189,3.189,0,0,0,1.537,2.663A17.881,17.881,0,0,0,17.1,580.7q2.325.9,5.025,1.837a28.772,28.772,0,0,1,5.025,2.288,13.737,13.737,0,0,1,3.863,3.263,7.475,7.475,0,0,1,1.537,4.837,8.421,8.421,0,0,1-3.675,7.313q-3.675,2.588-11.625,2.588a33.712,33.712,0,0,1-6.6-.6,27.046,27.046,0,0,1-5.7-1.8l1.2-5.625a36.041,36.041,0,0,0,5.512,1.987,23.434,23.434,0,0,0,6.188.788Q26.325,597.575,26.325,593.3Zm8.925,63.9q-1.35,4.875-3.075,9.563t-3.525,9.15q-1.8,4.463-3.675,8.513T21.375,692H15.75q-3.525-7.05-7.125-16.05A191.887,191.887,0,0,1,2.25,657.2H9q.9,3.3,2.062,6.975t2.438,7.35q1.275,3.675,2.587,7.087t2.587,6.112q1.275-2.7,2.663-6.112t2.738-7.087q1.35-3.675,2.587-7.35T28.8,657.2ZM3.825,788.525a6.391,6.391,0,0,0,1.912.6,12.853,12.853,0,0,0,2.287.225,9.1,9.1,0,0,0,5.738-1.612,14.339,14.339,0,0,0,3.787-5.287,183.225,183.225,0,0,1-7.875-17.062A153.663,153.663,0,0,1,3.6,747.2h6.75q.75,3,1.763,6.487T14.4,760.85q1.275,3.675,2.737,7.388t3.113,7.088q1.2-3.45,2.25-6.825t1.95-6.787q.9-3.413,1.8-6.975t1.875-7.537h6.45q-2.4,9.75-5.363,18.9t-6.337,16.95a31.05,31.05,0,0,1-2.737,5.175,16.724,16.724,0,0,1-3.188,3.6,11.337,11.337,0,0,1-3.9,2.1,16.693,16.693,0,0,1-4.95.675,14.423,14.423,0,0,1-3.113-.375A11.491,11.491,0,0,1,2.7,793.55Z" transform="translate(1016 256)" fill="#0cb1f2"/>
    <path id="Path_440" data-name="Path 440" d="M15.3,62.375q-1.125,0-2.625-.075t-3-.187q-1.5-.113-3-.337A24.273,24.273,0,0,1,4.05,61.25v-45a24.715,24.715,0,0,1,2.587-.525q1.463-.225,3-.338t3-.187q1.462-.075,2.662-.075a32.879,32.879,0,0,1,6.45.6,14.941,14.941,0,0,1,5.212,2.025,9.95,9.95,0,0,1,3.45,3.75,12.185,12.185,0,0,1,1.237,5.775,9.8,9.8,0,0,1-.525,3.187,11.749,11.749,0,0,1-3.638,5.25,9.224,9.224,0,0,1-2.662,1.537,13.31,13.31,0,0,1,6.412,3.863,10.375,10.375,0,0,1,2.588,7.312q0,6.9-4.425,10.425T15.3,62.375Zm-5.1-22.05V56.9a10.389,10.389,0,0,0,1.687.188q1.538.113,3.862.112a25.793,25.793,0,0,0,4.463-.375A10.7,10.7,0,0,0,24,55.438a7.976,7.976,0,0,0,2.663-2.662A8.076,8.076,0,0,0,27.675,48.5a7.509,7.509,0,0,0-.937-3.9,7.218,7.218,0,0,0-2.475-2.512,11,11,0,0,0-3.563-1.35,20.993,20.993,0,0,0-4.2-.413Zm0-5.1h4.875a19.078,19.078,0,0,0,3.75-.375,11.732,11.732,0,0,0,3.375-1.2,6.486,6.486,0,0,0,2.4-2.25,6.628,6.628,0,0,0,.9-3.6,6.778,6.778,0,0,0-.825-3.45A6.923,6.923,0,0,0,22.5,22.025a8.882,8.882,0,0,0-3.112-1.275,17.8,17.8,0,0,0-3.713-.375q-1.95,0-3.413.038A10.831,10.831,0,0,0,10.2,20.6ZM6.825,152V105.575H32.85v5.25H12.975v14.25h17.4v5.25h-17.4V146.75H34.5V152Zm21.15,43.575h6.15V242h-6.15V220.4H9.525V242H3.375V195.575h6.15V215.15h18.45Zm7.275,90q-3.675,5.475-8.062,10.875T17.7,307.25q2.4,2.025,5.1,4.725a76.494,76.494,0,0,1,5.288,5.887,72.154,72.154,0,0,1,4.875,6.788A49.29,49.29,0,0,1,36.825,332H29.85q-1.875-3.45-4.05-6.75a61.611,61.611,0,0,0-4.613-6.15,58.761,58.761,0,0,0-5.025-5.212A41.838,41.838,0,0,0,10.95,309.8V332H4.8V285.575h6.15v20.7q4.875-5.025,9.338-10.5t7.837-10.2ZM27.075,422q-2.55-6.225-4.8-11.288t-4.312-9.487q-2.062-4.425-4.087-8.363T9.75,384.95V422H4.125V375.575h6.3Q13.5,381.2,15.788,385.4t4.2,8.138q1.912,3.938,3.713,8.1t4.05,9.637v-35.7h5.625V422Zm-24.9,66.825a42.909,42.909,0,0,1,1.2-10.8,22.12,22.12,0,0,1,3.375-7.538,13.942,13.942,0,0,1,5.213-4.425A15.444,15.444,0,0,1,18.75,464.6a15.513,15.513,0,0,1,6.75,1.462,13.859,13.859,0,0,1,5.25,4.425,22.628,22.628,0,0,1,3.413,7.538,41.67,41.67,0,0,1,1.237,10.8,43.935,43.935,0,0,1-.975,9.787,24.835,24.835,0,0,1-2.775,7.238,14.733,14.733,0,0,1-4.35,4.725,14.182,14.182,0,0,1-5.625,2.25,4.626,4.626,0,0,0,1.275,2.587,9.368,9.368,0,0,0,2.663,1.875,19.116,19.116,0,0,0,3.675,1.313,37.637,37.637,0,0,0,4.313.825l-1.425,4.95a52,52,0,0,1-5.888-1.35,21.619,21.619,0,0,1-5.062-2.175,14.363,14.363,0,0,1-3.825-3.3,10.527,10.527,0,0,1-2.1-4.8,14.421,14.421,0,0,1-9.6-7.087Q2.175,499.85,2.175,488.825Zm6.3,0q0,9.15,2.475,14.025a8.09,8.09,0,0,0,7.65,4.875,8.449,8.449,0,0,0,7.875-4.875q2.625-4.875,2.625-14.025T26.475,474.8a8.449,8.449,0,0,0-7.875-4.875,8.09,8.09,0,0,0-7.65,4.875Q8.475,479.675,8.475,488.825Zm26.1,66.75v5.25H21.825V602h-6.15V560.825H2.925v-5.25ZM11.475,692H5.7q-.675-4.575-1.162-10.088t-.9-11.512q-.412-6-.713-12.3T2.4,645.575h6l.825,38.775,6.75-21.15h5.4l6.9,21.15.825-38.775h6q-.225,6.3-.562,12.6t-.787,12.263q-.45,5.963-.975,11.438T31.65,692h-5.7l-7.275-23.1Zm22.05,48.375q-2.4,3.3-5.363,7.838T22.125,757.7q-3.075,4.95-5.962,9.938T11.1,776.75H34.125V782H4.05v-4.05q2.325-4.725,5.137-9.713t5.738-9.787q2.925-4.8,5.85-9.3t5.625-8.325H5.175v-5.25h28.35Z" transform="translate(345 260)" fill="#0cb1f2"/>
    <path id="Path_428" data-name="Path 428" d="M11.55,28.475a17.11,17.11,0,0,1,3.262-1.387,15,15,0,0,1,4.763-.713,14.219,14.219,0,0,1,6.3,1.35,13.431,13.431,0,0,1,4.688,3.75,17.028,17.028,0,0,1,2.925,5.738A25.377,25.377,0,0,1,34.5,44.6a22.5,22.5,0,0,1-1.2,7.575,16.522,16.522,0,0,1-3.375,5.737,14.677,14.677,0,0,1-5.25,3.638,17.656,17.656,0,0,1-6.825,1.275,40.46,40.46,0,0,1-7.35-.6,48.36,48.36,0,0,1-5.175-1.2V11.075l6.225-1.05Zm0,28.125a22.96,22.96,0,0,0,2.85.563,20.736,20.736,0,0,0,2.7.188,10.444,10.444,0,0,0,8.1-3.187q2.925-3.187,2.925-9.562a23.305,23.305,0,0,0-.525-5.062,11.878,11.878,0,0,0-1.65-4.05,8.188,8.188,0,0,0-2.887-2.662,8.631,8.631,0,0,0-4.238-.975,10.614,10.614,0,0,0-4.2.863A10.7,10.7,0,0,0,11.55,34.55Zm7.875,59.775q7.05,0,10.875,4.387t3.825,13.312v2.175H9.225q.375,5.4,3.562,8.212t8.963,2.813a25.924,25.924,0,0,0,5.625-.525,16.276,16.276,0,0,0,3.525-1.125l.825,5.25a18.477,18.477,0,0,1-4.05,1.275,29.447,29.447,0,0,1-6.6.675,20.9,20.9,0,0,1-7.912-1.387A15.768,15.768,0,0,1,7.5,147.65a15.508,15.508,0,0,1-3.375-5.737A22.524,22.524,0,0,1,3,134.675a21.124,21.124,0,0,1,1.425-8.1,16.646,16.646,0,0,1,3.75-5.7,15.484,15.484,0,0,1,5.25-3.375A16.581,16.581,0,0,1,19.425,116.375Zm8.4,14.85a10.1,10.1,0,0,0-2.325-7.013,7.868,7.868,0,0,0-6.15-2.588,9.176,9.176,0,0,0-3.937.825,9.907,9.907,0,0,0-3.037,2.175A10.594,10.594,0,0,0,10.35,127.7a12.78,12.78,0,0,0-.975,3.525ZM5.325,242V191.075l6.225-1.05v17.7a17.378,17.378,0,0,1,3.375-.937,20.721,20.721,0,0,1,3.675-.338,16.619,16.619,0,0,1,6.637,1.163,10.337,10.337,0,0,1,4.238,3.262,13.211,13.211,0,0,1,2.25,5.025,28.7,28.7,0,0,1,.675,6.45V242H26.25V223.7q0-6.45-1.8-9.113T18,211.925a17.24,17.24,0,0,0-3.787.412,14.9,14.9,0,0,0-2.663.788V242ZM17.85,312.875q2.025,1.5,4.575,3.788t5.063,4.913Q30,324.2,32.25,326.938A38.9,38.9,0,0,1,35.85,332H28.5a36.9,36.9,0,0,0-3.525-4.763q-2.1-2.437-4.463-4.687t-4.725-4.125q-2.362-1.875-4.238-3.15V332H5.325V281.075l6.225-1.05V311.75q4.125-3.6,8.25-7.163a71.5,71.5,0,0,0,7.425-7.387H34.5a78.617,78.617,0,0,1-7.763,7.875Q22.2,309.125,17.85,312.875Zm-12.525,75.3a64.633,64.633,0,0,1,6.713-1.275,47.007,47.007,0,0,1,6.263-.45q6.975,0,10.537,3.6T32.4,401.6V422H26.25V402.725a20.476,20.476,0,0,0-.6-5.475,7.866,7.866,0,0,0-1.688-3.263,5.737,5.737,0,0,0-2.625-1.612,11.838,11.838,0,0,0-3.337-.45,28.931,28.931,0,0,0-3.187.188q-1.687.188-3.262.488V422H5.325Zm4.05,106.5a20.864,20.864,0,0,0,.562,4.988,12.471,12.471,0,0,0,1.688,3.975,8.188,8.188,0,0,0,2.887,2.662,8.631,8.631,0,0,0,4.238.975,11.03,11.03,0,0,0,4.2-.825,10.168,10.168,0,0,0,3.075-1.8V482.675a12.585,12.585,0,0,0-2.287-.525,27.815,27.815,0,0,0-4.013-.225,9.411,9.411,0,0,0-7.463,3.338Q9.375,488.6,9.375,494.675Zm-6.375,0A22.5,22.5,0,0,1,4.2,487.1a16.522,16.522,0,0,1,3.375-5.738,14.605,14.605,0,0,1,5.287-3.637,17.938,17.938,0,0,1,6.863-1.275,35.961,35.961,0,0,1,7.163.637q3.112.638,5.287,1.238v46.05H25.95V510.65a14.192,14.192,0,0,1-3.225,1.462,14.654,14.654,0,0,1-4.725.713,14.219,14.219,0,0,1-6.3-1.35,13.43,13.43,0,0,1-4.687-3.75,17.554,17.554,0,0,1-2.963-5.738A24.265,24.265,0,0,1,3,494.675ZM18.225,567.2h14.7v5.175h-14.7v16.2a19.89,19.89,0,0,0,.375,4.275,6.129,6.129,0,0,0,1.237,2.663A4.367,4.367,0,0,0,22.05,596.9a12.494,12.494,0,0,0,3.3.375,17.057,17.057,0,0,0,4.35-.45,17.063,17.063,0,0,0,3.15-1.2l.9,5.25q-1.05.45-3.337,1.2a18.383,18.383,0,0,1-5.662.75,18.956,18.956,0,0,1-6.375-.9,8.318,8.318,0,0,1-3.863-2.7,10.526,10.526,0,0,1-1.913-4.462,32.284,32.284,0,0,1-.525-6.187v-16.2H4.725V567.2h7.35v-9.75l6.15-1.05Zm7.5,124.8q-1.125-2.55-1.95-4.65t-1.612-4.2q-.787-2.1-1.575-4.388T18.75,673.55q-1.05,2.925-1.875,5.213t-1.613,4.388q-.787,2.1-1.65,4.2T11.625,692H6.975q-2.1-9.225-3.488-18.263T1.425,657.2h5.85q.225,2.925.488,5.737t.638,5.888q.375,3.075.862,6.675t1.087,8.1q1.2-3,2.025-5.25t1.5-4.275q.675-2.025,1.313-4.125t1.388-4.725h4.65l1.35,4.725q.6,2.1,1.275,4.125l1.425,4.275q.75,2.25,1.875,5.175.675-4.125,1.2-7.65t.9-6.638q.375-3.113.675-6.037t.525-6h5.625q-.375,3.75-.9,8.025T33.9,674q-.75,4.5-1.65,9.112T30.375,692ZM31.5,751.85q-1.35,1.575-3.675,4.388t-4.987,6.225q-2.663,3.412-5.288,7.162T12.9,776.75H32.025V782H5.475v-4.125a75.687,75.687,0,0,1,3.937-6.562q2.363-3.562,4.913-7.05t4.988-6.638q2.438-3.15,4.238-5.25H6.45V747.2H31.5Z" transform="translate(1268 256)" fill="#0cb1f2"/>
    <path id="Path_436" data-name="Path 436" d="M34.5,60.05a21.192,21.192,0,0,1-5.587,2.213,27.042,27.042,0,0,1-6.337.712,19.487,19.487,0,0,1-7.613-1.462,16.1,16.1,0,0,1-6.037-4.425A21.38,21.38,0,0,1,4.912,49.55,35.6,35.6,0,0,1,3.45,38.75,32.229,32.229,0,0,1,4.988,28.325,22.951,22.951,0,0,1,9.15,20.75,17.3,17.3,0,0,1,15.3,16.1a18.176,18.176,0,0,1,7.5-1.575,22.469,22.469,0,0,1,5.663.75,20.454,20.454,0,0,1,5.663,2.475l-1.8,5.1a18.783,18.783,0,0,0-9.3-2.85,11.441,11.441,0,0,0-5.513,1.313A11.985,11.985,0,0,0,13.35,25.1a18.976,18.976,0,0,0-2.663,5.925A29.462,29.462,0,0,0,9.75,38.75a30.346,30.346,0,0,0,1.012,8.325,17.23,17.23,0,0,0,2.813,5.85,11.2,11.2,0,0,0,4.313,3.45A13.152,13.152,0,0,0,23.325,57.5a20.059,20.059,0,0,0,4.575-.562,19.166,19.166,0,0,0,4.95-1.987ZM6.825,152V105.575H33.15v5.25H12.975V125.3H30.75v5.175H12.975V152Zm15,48.825V236.75h9V242H6.675v-5.25h9V200.825h-9v-5.25h24.15v5.25ZM34.5,326.75V332H6.825V285.575h6.15V326.75Zm-32.325,72a42.909,42.909,0,0,1,1.2-10.8,22.12,22.12,0,0,1,3.375-7.538,13.942,13.942,0,0,1,5.213-4.425,15.444,15.444,0,0,1,6.787-1.462,15.513,15.513,0,0,1,6.75,1.462,13.86,13.86,0,0,1,5.25,4.425,22.628,22.628,0,0,1,3.413,7.538,41.67,41.67,0,0,1,1.237,10.8,41.67,41.67,0,0,1-1.237,10.8,23.08,23.08,0,0,1-3.413,7.575,13.426,13.426,0,0,1-5.25,4.425,15.857,15.857,0,0,1-6.75,1.425,15.787,15.787,0,0,1-6.787-1.425,13.5,13.5,0,0,1-5.213-4.425,22.555,22.555,0,0,1-3.375-7.575A42.909,42.909,0,0,1,2.175,398.75Zm6.3,0q0,9.15,2.475,14.025a8.09,8.09,0,0,0,7.65,4.875,8.449,8.449,0,0,0,7.875-4.875Q29.1,407.9,29.1,398.75t-2.625-14.025A8.449,8.449,0,0,0,18.6,379.85a8.09,8.09,0,0,0-7.65,4.875Q8.475,389.6,8.475,398.75Zm23.85,81a12.951,12.951,0,0,1-2.25,7.538A14.929,14.929,0,0,1,24,492.35q1.125,1.8,2.513,4.087t2.813,4.875q1.425,2.588,2.813,5.325T34.725,512h-6.6q-2.25-5.4-4.912-10.35a52.915,52.915,0,0,0-5.138-8.025,8.58,8.58,0,0,1-1.312.075H10.35V512H4.125V466.25a24.719,24.719,0,0,1,2.588-.525q1.462-.225,3-.337t3.037-.187q1.5-.075,2.7-.075,8.4,0,12.637,3.675T32.325,479.75Zm-16.35-9.3q-1.725,0-3.337.037a13.415,13.415,0,0,0-2.288.188V488.6h3.975a28.172,28.172,0,0,0,4.837-.375,9.628,9.628,0,0,0,3.675-1.388,6.583,6.583,0,0,0,2.362-2.775,10.96,10.96,0,0,0,.825-4.612,10.279,10.279,0,0,0-.825-4.425,7.254,7.254,0,0,0-2.175-2.737,8.249,8.249,0,0,0-3.188-1.425A17.59,17.59,0,0,0,15.975,470.45ZM18.75,602.975a18.27,18.27,0,0,1-7.012-1.2A11.862,11.862,0,0,1,7.05,598.4a13.643,13.643,0,0,1-2.625-5.325,27.843,27.843,0,0,1-.825-7.05v-30.45H9.75V585.35a23.006,23.006,0,0,0,.638,5.888,10.086,10.086,0,0,0,1.8,3.788A6.41,6.41,0,0,0,15,597.05a10.927,10.927,0,0,0,3.75.6,10.927,10.927,0,0,0,3.75-.6,6.41,6.41,0,0,0,2.813-2.025,10.086,10.086,0,0,0,1.8-3.788,23.006,23.006,0,0,0,.638-5.888V555.575H33.9v30.45a27.843,27.843,0,0,1-.825,7.05A13.643,13.643,0,0,1,30.45,598.4a11.862,11.862,0,0,1-4.687,3.375A18.27,18.27,0,0,1,18.75,602.975ZM28.8,692q-.825-2.025-1.95-4.575t-2.4-5.25q-1.275-2.7-2.738-5.4t-3.038-5.025a101.552,101.552,0,0,0-5.25,9.638Q10.8,686.825,8.55,692H1.875q2.475-5.55,5.775-12.037t7.05-12.488l-12.075-21.9H9.45l9.075,17.775,9.75-17.775H34.95L22.65,667.25q3.6,5.85,6.975,12.15t6,12.6Zm-6.825,56.175q0,2.775-.075,5.1t-.262,4.425q-.187,2.1-.413,4.162t-.45,4.313H16.5q-.225-2.25-.45-4.312t-.412-4.162q-.187-2.1-.262-4.425t-.075-5.1v-12.6h6.675ZM18.6,782.9a5.023,5.023,0,0,1-3.525-1.388,5.344,5.344,0,0,1,0-7.425,5.219,5.219,0,0,1,7.087,0,5.443,5.443,0,0,1,0,7.425A4.985,4.985,0,0,1,18.6,782.9Z" transform="translate(607 260)" fill="#0cb1f2"/>
    <path id="Path_429" data-name="Path 429" d="M3.675,44.675a20.4,20.4,0,0,1,1.5-8.175A15.522,15.522,0,0,1,9.3,30.8a17.091,17.091,0,0,1,6.113-3.337,24.936,24.936,0,0,1,7.462-1.088,37.983,37.983,0,0,1,5.063.338A32.075,32.075,0,0,1,33.3,27.95l-1.425,5.325a21.283,21.283,0,0,0-4.538-1.162,32.936,32.936,0,0,0-4.163-.263,17.833,17.833,0,0,0-5.1.713,11.005,11.005,0,0,0-4.162,2.25A10.889,10.889,0,0,0,11.1,38.787a14.846,14.846,0,0,0-1.05,5.888,14.816,14.816,0,0,0,.975,5.663,10.283,10.283,0,0,0,2.738,3.9A11.363,11.363,0,0,0,18,56.525a18.826,18.826,0,0,0,5.475.75,39.151,39.151,0,0,0,4.612-.263,23.636,23.636,0,0,0,4.837-1.163l.9,5.175A26.95,26.95,0,0,1,28.5,62.412a38.812,38.812,0,0,1-5.85.413,24.194,24.194,0,0,1-7.687-1.163,16.86,16.86,0,0,1-6-3.412,15.1,15.1,0,0,1-3.9-5.662A20.9,20.9,0,0,1,3.675,44.675ZM12.075,152V122.375H4.725V117.2h7.35v-3.15a17.339,17.339,0,0,1,1.125-6.713,11.919,11.919,0,0,1,2.963-4.312,10.5,10.5,0,0,1,4.275-2.325,19.167,19.167,0,0,1,5.137-.675,25.336,25.336,0,0,1,5.438.6,46.3,46.3,0,0,1,5.137,1.425l-1.125,5.325A19.688,19.688,0,0,0,30.9,105.95a21.254,21.254,0,0,0-5.025-.6,10.347,10.347,0,0,0-2.962.412,5.877,5.877,0,0,0-2.437,1.425,6.875,6.875,0,0,0-1.65,2.7,12.8,12.8,0,0,0-.6,4.238V117.2H32.25v5.175H18.225V152Zm3.6,49.8a4.742,4.742,0,0,1-3.375-1.35,5.451,5.451,0,0,1,0-7.35,4.742,4.742,0,0,1,3.375-1.35,4.705,4.705,0,0,1,3.412,1.35,5.561,5.561,0,0,1,0,7.35A4.705,4.705,0,0,1,15.675,201.8ZM14.1,212.375H4.05V207.2h16.2v21.375q0,5.175,1.425,6.938a5.171,5.171,0,0,0,4.275,1.762,14.564,14.564,0,0,0,4.013-.525,13.366,13.366,0,0,0,2.887-1.125l.9,5.25q-.45.225-1.275.563a17.092,17.092,0,0,1-1.912.637q-1.088.3-2.4.525a16.183,16.183,0,0,1-2.738.225,14.406,14.406,0,0,1-5.475-.9,8,8,0,0,1-3.488-2.7,11.125,11.125,0,0,1-1.838-4.463,32.283,32.283,0,0,1-.525-6.187Zm11.25,120.45a14.405,14.405,0,0,1-5.475-.9,7.751,7.751,0,0,1-3.45-2.7,11.465,11.465,0,0,1-1.8-4.462,32.283,32.283,0,0,1-.525-6.187V285.65H4.05V280.4h16.2v38.175a22.036,22.036,0,0,0,.338,4.275,7.058,7.058,0,0,0,1.05,2.663A3.631,3.631,0,0,0,23.4,326.9a7.363,7.363,0,0,0,2.475.375,14.97,14.97,0,0,0,4.05-.525,13.27,13.27,0,0,0,2.925-1.125l.9,5.25q-.45.225-1.275.563a16.275,16.275,0,0,1-1.95.638q-1.125.3-2.437.525A16.183,16.183,0,0,1,25.35,332.825ZM34.5,404.6a22.583,22.583,0,0,1-1.162,7.462,17.186,17.186,0,0,1-3.263,5.737,14.469,14.469,0,0,1-5.025,3.713,15.392,15.392,0,0,1-6.375,1.313,14.954,14.954,0,0,1-6.262-1.312A14.565,14.565,0,0,1,7.425,417.8a17.186,17.186,0,0,1-3.263-5.737A22.583,22.583,0,0,1,3,404.6a22.919,22.919,0,0,1,1.162-7.5,16.707,16.707,0,0,1,3.263-5.738,14.786,14.786,0,0,1,4.988-3.675,14.954,14.954,0,0,1,6.262-1.312,15.392,15.392,0,0,1,6.375,1.313,14.687,14.687,0,0,1,5.025,3.675,16.707,16.707,0,0,1,3.263,5.738A22.919,22.919,0,0,1,34.5,404.6Zm-6.375,0q0-5.925-2.55-9.337a8.164,8.164,0,0,0-6.9-3.413,7.994,7.994,0,0,0-6.787,3.413q-2.513,3.412-2.512,9.337,0,5.85,2.512,9.262a7.994,7.994,0,0,0,6.787,3.413,8.164,8.164,0,0,0,6.9-3.413Q28.125,410.45,28.125,404.6ZM8.025,512V479.075a47.316,47.316,0,0,1,15.45-2.625q2.4,0,4.575.188a35.343,35.343,0,0,1,4.8.787L31.725,482.9a25.485,25.485,0,0,0-4.238-.862,39.691,39.691,0,0,0-4.012-.187,35.6,35.6,0,0,0-9.3,1.275V512Zm24.15,89.025q-2.025.525-5.363,1.125a44.834,44.834,0,0,1-7.837.6,16.344,16.344,0,0,1-6.6-1.162,10.832,10.832,0,0,1-4.275-3.3,12.917,12.917,0,0,1-2.325-5.062,28.7,28.7,0,0,1-.675-6.45V567.2h6.15v18.225q0,6.45,1.913,9.15t6.413,2.7q.975,0,1.987-.075t1.913-.187q.9-.113,1.575-.225a7.23,7.23,0,0,0,.9-.187V567.2h6.225ZM28.5,692q-.75-1.5-1.837-3.3T24.3,684.987q-1.275-1.912-2.662-3.787T18.9,677.675q-1.35,1.725-2.85,3.6t-2.887,3.787q-1.388,1.912-2.588,3.713T8.55,692H2.175a79.6,79.6,0,0,1,6.037-9.263q3.563-4.762,7.012-9.037L2.7,657.2H9.675l9.375,12.15,8.625-12.15h6.6L22.8,673.325q3.375,4.425,6.788,9.225A78.544,78.544,0,0,1,35.4,692Zm-6.525,56.175q0,2.775-.075,5.1t-.262,4.425q-.187,2.1-.413,4.162t-.45,4.313H16.5q-.225-2.25-.45-4.312t-.412-4.162q-.187-2.1-.262-4.425t-.075-5.1v-12.6h6.675ZM18.6,782.9a5.023,5.023,0,0,1-3.525-1.388,5.344,5.344,0,0,1,0-7.425,5.219,5.219,0,0,1,7.087,0,5.443,5.443,0,0,1,0,7.425A4.985,4.985,0,0,1,18.6,782.9Z" transform="translate(1530 256)" fill="#0cb1f2"/>
    <path id="Path_432" data-name="Path 432" d="M0,0V960" transform="translate(840.021 241.5)" fill="none" stroke="#0cb1f2" stroke-width="3"/>
    <path id="Path_437" data-name="Path 437" d="M27.6,48.44a16.953,16.953,0,0,1-4.47,1.77,21.634,21.634,0,0,1-5.07.57,15.59,15.59,0,0,1-6.09-1.17,12.881,12.881,0,0,1-4.83-3.54,17.1,17.1,0,0,1-3.21-6.03A28.483,28.483,0,0,1,2.76,31.4a25.783,25.783,0,0,1,1.23-8.34A18.361,18.361,0,0,1,7.32,17a13.843,13.843,0,0,1,4.92-3.72,14.541,14.541,0,0,1,6-1.26,17.975,17.975,0,0,1,4.53.6A16.363,16.363,0,0,1,27.3,14.6l-1.44,4.08a15.026,15.026,0,0,0-7.44-2.28,9.152,9.152,0,0,0-4.41,1.05,9.588,9.588,0,0,0-3.33,3.03,15.181,15.181,0,0,0-2.13,4.74A23.57,23.57,0,0,0,7.8,31.4a24.277,24.277,0,0,0,.81,6.66,13.784,13.784,0,0,0,2.25,4.68,8.963,8.963,0,0,0,3.45,2.76,10.521,10.521,0,0,0,4.35.9,16.047,16.047,0,0,0,3.66-.45,15.333,15.333,0,0,0,3.96-1.59ZM54.18,12.86H59.1V50H54.18V32.72H39.42V50H34.5V12.86h4.92V28.52H54.18ZM87.84,50l-2.22-9.72H71.34L69.18,50H64.14q1.02-3.96,2.28-8.58t2.73-9.48q1.47-4.86,3.09-9.75t3.42-9.33h6.12q1.74,4.44,3.33,9.33t3,9.75q1.41,4.86,2.67,9.48T93.06,50Zm-9.3-32.82q-1.38,3.78-3,8.76T72.48,36.2h12q-1.38-5.4-2.97-10.41T78.54,17.18Zm42.72,7.02a10.361,10.361,0,0,1-1.8,6.03,11.943,11.943,0,0,1-4.86,4.05q.9,1.44,2.01,3.27t2.25,3.9q1.14,2.07,2.25,4.26T123.18,50H117.9q-1.8-4.32-3.93-8.28a42.332,42.332,0,0,0-4.11-6.42,6.866,6.866,0,0,1-1.05.06h-5.13V50H98.7V13.4a19.773,19.773,0,0,1,2.07-.42q1.17-.18,2.4-.27t2.43-.15q1.2-.06,2.16-.06,6.72,0,10.11,2.94T121.26,24.2Zm-13.08-7.44q-1.38,0-2.67.03a10.733,10.733,0,0,0-1.83.15V31.28h3.18a22.538,22.538,0,0,0,3.87-.3,7.7,7.7,0,0,0,2.94-1.11,5.266,5.266,0,0,0,1.89-2.22,8.768,8.768,0,0,0,.66-3.69,8.223,8.223,0,0,0-.66-3.54,5.8,5.8,0,0,0-1.74-2.19,6.6,6.6,0,0,0-2.55-1.14A14.072,14.072,0,0,0,108.18,16.76ZM151.44,50l-2.22-9.72H134.94L132.78,50h-5.04q1.02-3.96,2.28-8.58t2.73-9.48q1.47-4.86,3.09-9.75t3.42-9.33h6.12q1.74,4.44,3.33,9.33t3,9.75q1.41,4.86,2.67,9.48T156.66,50Zm-9.3-32.82q-1.38,3.78-3,8.76T136.08,36.2h12q-1.38-5.4-2.97-10.41T142.14,17.18ZM186.6,48.44a16.953,16.953,0,0,1-4.47,1.77,21.634,21.634,0,0,1-5.07.57,15.59,15.59,0,0,1-6.09-1.17,12.881,12.881,0,0,1-4.83-3.54,17.1,17.1,0,0,1-3.21-6.03,28.483,28.483,0,0,1-1.17-8.64,25.783,25.783,0,0,1,1.23-8.34A18.361,18.361,0,0,1,166.32,17a13.843,13.843,0,0,1,4.92-3.72,14.541,14.541,0,0,1,6-1.26,17.976,17.976,0,0,1,4.53.6,16.363,16.363,0,0,1,4.53,1.98l-1.44,4.08a15.026,15.026,0,0,0-7.44-2.28,9.153,9.153,0,0,0-4.41,1.05,9.588,9.588,0,0,0-3.33,3.03,15.181,15.181,0,0,0-2.13,4.74,23.57,23.57,0,0,0-.75,6.18,24.277,24.277,0,0,0,.81,6.66,13.784,13.784,0,0,0,2.25,4.68,8.963,8.963,0,0,0,3.45,2.76,10.521,10.521,0,0,0,4.35.9,16.048,16.048,0,0,0,3.66-.45,15.333,15.333,0,0,0,3.96-1.59Zm31.86-35.58v4.2h-10.2V50h-4.92V17.06h-10.2v-4.2ZM228.06,50V12.86h20.82v4.2h-15.9v11.4H246.9v4.2H232.98V45.8H250.2V50Zm52.2-25.8a10.361,10.361,0,0,1-1.8,6.03,11.943,11.943,0,0,1-4.86,4.05q.9,1.44,2.01,3.27t2.25,3.9q1.14,2.07,2.25,4.26T282.18,50H276.9q-1.8-4.32-3.93-8.28a42.332,42.332,0,0,0-4.11-6.42,6.866,6.866,0,0,1-1.05.06h-5.13V50H257.7V13.4a19.774,19.774,0,0,1,2.07-.42q1.17-.18,2.4-.27t2.43-.15q1.2-.06,2.16-.06,6.72,0,10.11,2.94T280.26,24.2Zm-13.08-7.44q-1.38,0-2.67.03a10.733,10.733,0,0,0-1.83.15V31.28h3.18a22.537,22.537,0,0,0,3.87-.3,7.7,7.7,0,0,0,2.94-1.11,5.266,5.266,0,0,0,1.89-2.22,8.768,8.768,0,0,0,.66-3.69,8.223,8.223,0,0,0-.66-3.54,5.8,5.8,0,0,0-1.74-2.19,6.6,6.6,0,0,0-2.55-1.14A14.072,14.072,0,0,0,267.18,16.76Zm64.86,29.76a9.715,9.715,0,0,0,5.76-1.44,4.994,4.994,0,0,0,1.98-4.32,5.782,5.782,0,0,0-.72-2.97,7.551,7.551,0,0,0-1.92-2.16,13.8,13.8,0,0,0-2.7-1.62q-1.5-.69-3.06-1.29a32.068,32.068,0,0,1-3.45-1.62,14.449,14.449,0,0,1-2.94-2.1,8.945,8.945,0,0,1-2.04-2.82,9.071,9.071,0,0,1-.75-3.84,9.646,9.646,0,0,1,3.06-7.59q3.06-2.73,8.52-2.73a20.974,20.974,0,0,1,2.97.21q1.47.21,2.73.51a14.189,14.189,0,0,1,2.25.72,8.817,8.817,0,0,1,1.59.84l-1.56,4.14a17.819,17.819,0,0,0-3.3-1.44,14.365,14.365,0,0,0-4.68-.72,8.1,8.1,0,0,0-4.68,1.35,4.575,4.575,0,0,0-1.98,4.05,5.6,5.6,0,0,0,.57,2.64,6.118,6.118,0,0,0,1.56,1.89,12.364,12.364,0,0,0,2.31,1.47q1.32.66,2.88,1.32,2.28.96,4.17,1.92a13.032,13.032,0,0,1,3.24,2.28,9.331,9.331,0,0,1,2.1,3.12,11.388,11.388,0,0,1,.75,4.38,9,9,0,0,1-3.27,7.47q-3.27,2.61-9.39,2.61a24.279,24.279,0,0,1-3.72-.27,21.623,21.623,0,0,1-3.09-.69q-1.35-.42-2.37-.84a9.307,9.307,0,0,1-1.56-.78l1.5-4.08a28.076,28.076,0,0,0,3.54,1.53A16.428,16.428,0,0,0,332.04,46.52ZM355.26,50V12.86h20.82v4.2h-15.9v11.4H374.1v4.2H360.18V45.8H377.4V50Zm54-37.14v4.2h-10.2V50h-4.92V17.06h-10.2v-4.2Z" transform="translate(634 124)" fill="#0cb1f2"/>
    <text id="_a_" data-name="&lt;/a&gt;" transform="translate(690 527)" fill="#707070" font-size="20" font-family="HelveticaNeue, Helvetica Neue"><tspan x="0" y="19">&lt;/a&gt;</tspan></text>
    <path id="Path_608" data-name="Path 608" d="M0,0H1688V1357.944H0Z" fill="none"/>
  </g>
</svg>
