<svg xmlns="http://www.w3.org/2000/svg" xmlns:xlink="http://www.w3.org/1999/xlink" width="1680" height="1353" viewBox="0 0 1680 1353">
  <defs>
    <clipPath id="clip-vollkorn_characterset">
      <rect width="1680" height="1353"/>
    </clipPath>
  </defs>
  <g id="vollkorn_characterset" clip-path="url(#clip-vollkorn_characterset)">
    <path id="Path_426" data-name="Path 426" d="M0,0H1688V1357.944H0Z" fill="none"/>
    <path id="Path_576" data-name="Path 576" d="M50.475,68a11.172,11.172,0,0,1,.45,3.225Q46.425,71,42.375,71q-3.975,0-8.475.225A7.541,7.541,0,0,1,34.425,68a9.067,9.067,0,0,0,2.963-.675,1.56,1.56,0,0,0,.862-1.5,13.026,13.026,0,0,0-1.125-3.675l-3.3-7.65q-11.925,0-19.8.3L12,59.975a15.03,15.03,0,0,0-1.2,4.95,2.6,2.6,0,0,0,.938,2.212A5.633,5.633,0,0,0,14.7,68a8.531,8.531,0,0,1,.525,3.225Q12.675,71,8.1,71q-1.95,0-6.225.225a8.3,8.3,0,0,1,.525-3.15,4.737,4.737,0,0,0,3.075-1.95A32.592,32.592,0,0,0,8.4,59.975L23.925,20.15a12.838,12.838,0,0,1,2.925-.3L44.7,60.8a29.053,29.053,0,0,0,2.963,5.55A4.482,4.482,0,0,0,50.475,68ZM32.4,51.125l-5.7-13.35Q24.45,32.6,23.4,29.6q-.825,2.55-2.85,8.1L15.375,51.125ZM23.625,124.15q12.375,0,20.438,5.138t8.063,19.087q0,15.825-9.037,21.225A37.288,37.288,0,0,1,23.625,175q-13.8,0-19.425.225A10.27,10.27,0,0,1,4.575,172a7.944,7.944,0,0,0,3.188-.75,3.5,3.5,0,0,0,1.575-2.137,15.6,15.6,0,0,0,.488-4.463V133.825q0-3.75-1.087-5.062T4.65,127.3a10.27,10.27,0,0,1-.375-3.225q3.45.225,10.5.225l4.425-.075Q20.7,124.15,23.625,124.15Zm0,47.475q9.75,0,15.262-5.062T44.4,149.5q0-7.725-3.037-12.788a18.3,18.3,0,0,0-7.988-7.387A25.435,25.435,0,0,0,22.425,127a25.8,25.8,0,0,0-2.962.188,14.993,14.993,0,0,0-2.587.488V164.65A13.424,13.424,0,0,0,17.4,169a3.39,3.39,0,0,0,1.95,2.025A11.587,11.587,0,0,0,23.625,171.625ZM27.3,279.675a24.961,24.961,0,0,1-12.937-3.3A22.311,22.311,0,0,1,5.7,267a30.647,30.647,0,0,1-3.075-14.025A24.973,24.973,0,0,1,6.3,239.212a23.639,23.639,0,0,1,9.638-8.662,28.485,28.485,0,0,1,12.712-2.925,50.041,50.041,0,0,1,9.9.938,34.662,34.662,0,0,1,8.1,2.587,64.308,64.308,0,0,0-.825,11.625,11.241,11.241,0,0,1-3.975.675q-.225-7.275-3.488-10.012T29.25,230.7a18.008,18.008,0,0,0-10.35,2.85,17.389,17.389,0,0,0-6.262,7.537,25.138,25.138,0,0,0-2.063,10.238,36.08,36.08,0,0,0,2.063,12.563,19.775,19.775,0,0,0,6.15,8.85A15.544,15.544,0,0,0,28.8,276a27.881,27.881,0,0,0,4.125-.263,16.1,16.1,0,0,0,3.45-.937,3.668,3.668,0,0,0,1.987-1.762,9.56,9.56,0,0,0,.563-3.863v-3.75a21.2,21.2,0,0,0-.413-5.062,2.632,2.632,0,0,0-1.687-1.912,15.76,15.76,0,0,0-4.35-.525,9.877,9.877,0,0,1-.45-3.45q2.85.225,9.15.225,5.625,0,8.775-.15a9.978,9.978,0,0,1-.45,3.375,4.48,4.48,0,0,0-2.325.563,3.021,3.021,0,0,0-.937,1.988,32.393,32.393,0,0,0-.263,4.95V268.8a20.116,20.116,0,0,0,.188,2.963,6.543,6.543,0,0,0,.788,2.287,27.8,27.8,0,0,1-8.513,4.088A38.2,38.2,0,0,1,27.3,279.675Zm-11.25,93.95A61.139,61.139,0,0,1,15.037,386a19.478,19.478,0,0,1-4.125,8.475,32.245,32.245,0,0,1-9.413,7.2,2.6,2.6,0,0,1-1.275-1.95,25.975,25.975,0,0,0,6.637-8.138A25.115,25.115,0,0,0,9,380.45V341.825q0-3.75-1.088-5.062T3.825,335.3a10.269,10.269,0,0,1-.375-3.225q3.3.225,9.075.225,6.375,0,9.075-.225a10.269,10.269,0,0,1-.375,3.225q-2.925.15-4.05,1.5t-1.125,5.025Zm50.775,110.3a11.984,11.984,0,0,1,.375,3.3q-3.45-.225-9-.225-5.325,0-9.15.225A10.7,10.7,0,0,1,49.5,484q2.85-.3,3.825-1.275t.975-3.6q0-1.5-.225-3.75l-2.7-25.725L35.85,487.15a8.069,8.069,0,0,1-3.075.525L15.3,449.725,12.9,473.8q-.225,2.25-.225,3.9,0,3.45,1.162,4.762A5.7,5.7,0,0,0,17.775,484a11.649,11.649,0,0,1,.375,3.225Q14.55,487,10.125,487t-7.5.225A11.649,11.649,0,0,1,3,484a6.626,6.626,0,0,0,3.225-1.05,5.558,5.558,0,0,0,1.763-3.038,41.161,41.161,0,0,0,1.087-6.788l2.4-26.7a17.07,17.07,0,0,0,.075-1.8q0-2.925-1.2-4.125a5.356,5.356,0,0,0-3.9-1.2,11.166,11.166,0,0,1-.375-3.225q2.25.225,5.7.225,2.775,0,5.7-.225l18.75,41.475,16.35-41.475q2.55.225,5.85.225,2.7,0,5.7-.225a12.7,12.7,0,0,1-.375,3.225,5.331,5.331,0,0,0-3.862,1.275Q58.575,441.85,58.575,445a18.012,18.012,0,0,0,.075,1.875l2.7,27.525a32.119,32.119,0,0,0,.975,5.738,5.494,5.494,0,0,0,1.65,2.813A5.224,5.224,0,0,0,66.825,483.925Zm-42.9,56.225q8.775,0,12.9,4.087A14.1,14.1,0,0,1,40.95,554.7,18.755,18.755,0,0,1,39,563.138a15.908,15.908,0,0,1-5.812,6.412,16.8,16.8,0,0,1-9.262,2.475,14.458,14.458,0,0,1-5.25-.825,9.182,9.182,0,0,1-.15-1.425,5.725,5.725,0,0,1,.225-1.65,16.988,16.988,0,0,0,3.975.45q10.575,0,10.575-11.7,0-6.3-3.075-9.862t-9.6-3.562a19.178,19.178,0,0,0-3.825.45v36.075a13.825,13.825,0,0,0,.675,4.913,4.072,4.072,0,0,0,2.063,2.325,11.318,11.318,0,0,0,3.938.787,10.269,10.269,0,0,1,.375,3.225Q20.4,591,14.4,591q-7.275,0-10.2.225A10.269,10.269,0,0,1,4.575,588q3-.15,4.088-1.463t1.087-5.062v-31.65q0-3.75-1.087-5.062T4.575,543.3a10.269,10.269,0,0,1-.375-3.225q3.9.225,10.2.225Zm-3.6,155.525a24.358,24.358,0,0,1-7.8-1.162A36.045,36.045,0,0,1,5.1,690.875a69.142,69.142,0,0,0,.675-10.65,16.161,16.161,0,0,1,4.05-.45q.3,6,3.038,9.15t8.512,3.15q4.875,0,7.238-2.138a7.267,7.267,0,0,0,2.362-5.662,8.084,8.084,0,0,0-1.5-4.95,12.68,12.68,0,0,0-3.675-3.338,65.007,65.007,0,0,0-6.075-3.112,71.805,71.805,0,0,1-7.2-3.9,15.6,15.6,0,0,1-4.612-4.612A12.838,12.838,0,0,1,6,657.125q0-6.3,4.05-9.9t11.025-3.6a26.221,26.221,0,0,1,7.05.938,18.655,18.655,0,0,1,5.475,2.362,78.669,78.669,0,0,0,.45,9.9,11.189,11.189,0,0,1-4.2.675q-1.05-6.15-3.15-8.362a7.485,7.485,0,0,0-5.7-2.213,9.194,9.194,0,0,0-6.225,1.95,6.857,6.857,0,0,0-2.25,5.475,8.273,8.273,0,0,0,1.538,5.025,12.994,12.994,0,0,0,3.75,3.45q2.213,1.35,6.113,3.3a63.278,63.278,0,0,1,7.087,3.825,15.865,15.865,0,0,1,4.537,4.5,11.912,11.912,0,0,1,1.875,6.825,14.345,14.345,0,0,1-1.837,7.162,13.269,13.269,0,0,1-5.7,5.25A20.748,20.748,0,0,1,20.325,695.675Zm21.6,52.625q4.425,0,7.65-.225A12.7,12.7,0,0,1,49.2,751.3a5.639,5.639,0,0,0-3.488,2.55,36.341,36.341,0,0,0-2.962,6.3q-7.425,19.05-15.675,39a12.837,12.837,0,0,1-2.925.3q-8.7-23.475-15.525-39.525-1.725-4.05-2.55-5.662a6.539,6.539,0,0,0-1.612-2.213,4.365,4.365,0,0,0-2.213-.75,13.267,13.267,0,0,1-.375-3.225q2.925.225,9.075.225,4.8,0,9.075-.225a15.228,15.228,0,0,1-.375,3.225,9.772,9.772,0,0,0-3.638.713A2.043,2.043,0,0,0,14.925,754a16.475,16.475,0,0,0,1.725,5.55q5.1,12.075,11.175,28.8Q34.35,773.5,39,760.45a15.685,15.685,0,0,0,1.05-4.95,4,4,0,0,0-.975-2.888,5.269,5.269,0,0,0-3.15-1.312,12.7,12.7,0,0,1-.375-3.225Q38.85,748.3,41.925,748.3Zm-3,104q3,0,6.45-.15a14.16,14.16,0,0,1-.3,2.925,8.758,8.758,0,0,0-3.9,2.475,23.234,23.234,0,0,0-3.675,5.625L27.375,883.5v7.275a31.3,31.3,0,0,0,.375,5.85,3.347,3.347,0,0,0,1.5,2.362A11.791,11.791,0,0,0,33.15,900a10.245,10.245,0,0,1,.45,3.225l-3.525-.075q-4.2-.15-6-.15-6,0-10.2.15a9.972,9.972,0,0,1,.45-3.15,11.519,11.519,0,0,0,4.012-.825A3.193,3.193,0,0,0,19.913,897a23.24,23.24,0,0,0,.413-5.25v-8.175L7.875,859.65a10.667,10.667,0,0,0-2.362-3.375,5.117,5.117,0,0,0-3.187-1.05,9.706,9.706,0,0,1-.45-3.075q4.2.15,7.8.15,7.725,0,10.05-.15a10.9,10.9,0,0,1-.375,2.925q-3.45.3-3.45,2.25a9.881,9.881,0,0,0,1.35,3.9q4.5,8.625,8.775,18.225,4.125-9.075,8.1-17.1a12.126,12.126,0,0,0,1.575-4.575,1.88,1.88,0,0,0-.862-1.687,7.322,7.322,0,0,0-2.738-.863,11.922,11.922,0,0,1-.525-3.075Q33.375,852.3,38.925,852.3Z" transform="translate(93 260)" fill="#0cb1f2"/>
    <path id="Path_580" data-name="Path 580" d="M29.7,60.05a13.41,13.41,0,0,0,.337,3.487,2.665,2.665,0,0,0,1.313,1.688,7.82,7.82,0,0,0,3,.675,10.675,10.675,0,0,1-.45,3.45,22.278,22.278,0,0,0-4.162.787,20.686,20.686,0,0,0-4.012,1.538,2.536,2.536,0,0,1-1.35-1.388,7.836,7.836,0,0,1-.45-3.037A18.987,18.987,0,0,1,24,65.3a9.72,9.72,0,0,1-2.625,3.675,11.681,11.681,0,0,1-7.95,2.55q-4.65,0-7.163-2.1a7.207,7.207,0,0,1-2.512-5.85,8.727,8.727,0,0,1,3.225-7.088,19.567,19.567,0,0,1,7.2-3.788,66.109,66.109,0,0,1,8.775-1.8,44.323,44.323,0,0,0-.3-6.338A6.271,6.271,0,0,0,21.375,41.6a5.684,5.684,0,0,0-4.65-2.25,5.208,5.208,0,0,0-4.913,2.775,13.384,13.384,0,0,0-1.687,5.925A17.679,17.679,0,0,1,7.95,47.9a6.981,6.981,0,0,1-1.725-.375q.075-.75.075-2.55a30.109,30.109,0,0,0-.45-5.625,30.248,30.248,0,0,1,6.45-2.475,25.142,25.142,0,0,1,6.3-.9q5.1,0,7.95,2.85a9.559,9.559,0,0,1,2.475,4.763A38.864,38.864,0,0,1,29.7,51.8Zm-6.75-6.075a46.29,46.29,0,0,0-6,1.088,9.412,9.412,0,0,0-4.162,2.325,6.182,6.182,0,0,0-1.762,4.688A5.585,5.585,0,0,0,12.3,66.05a4.246,4.246,0,0,0,3.225,1.35,6.207,6.207,0,0,0,3.488-1.125,8.348,8.348,0,0,0,2.813-3.525,13.918,13.918,0,0,0,1.125-5.925ZM34.65,164.8a6.772,6.772,0,0,0,.862,3.975q.863,1.125,3.787,1.125a10.675,10.675,0,0,1-.45,3.45,25.965,25.965,0,0,0-4.425.787,18.1,18.1,0,0,0-4.125,1.538,3.042,3.042,0,0,1-1.425-1.238,7.126,7.126,0,0,1-.45-3.113,13.741,13.741,0,0,1,.262-2.625q.263-1.35.337-1.725a34.787,34.787,0,0,1-1.725,3.15,11.8,11.8,0,0,1-4.012,3.788,11.554,11.554,0,0,1-6.263,1.762q-6.75,0-10.387-4.088T3,159.025a20.042,20.042,0,0,1,2.325-9.6,17.512,17.512,0,0,1,6.6-6.9,18.664,18.664,0,0,1,9.75-2.55,19.6,19.6,0,0,1,6.225,1.05v-9.15a10.066,10.066,0,0,0-.375-3.075,2.82,2.82,0,0,0-1.575-1.688,9.1,9.1,0,0,0-3.675-.562,5.067,5.067,0,0,1,.675-2.775,24.746,24.746,0,0,0,5.325-.825A14.984,14.984,0,0,0,33,121.225q1.65.525,1.65,3Zm-15.825,6.15a7.845,7.845,0,0,0,6.413-3.525q2.663-3.525,2.663-10.8V146.05a11.229,11.229,0,0,0-2.963-1.95,9,9,0,0,0-3.637-.675,10.725,10.725,0,0,0-4.95,1.275,10.239,10.239,0,0,0-4.2,4.538,18.966,18.966,0,0,0-1.725,8.813,17.5,17.5,0,0,0,1.35,7.387,10.134,10.134,0,0,0,3.262,4.2A6.675,6.675,0,0,0,18.825,170.95ZM21.15,274.275a30.812,30.812,0,0,1,8.025.825,7.562,7.562,0,0,1,4.237,2.625,8.112,8.112,0,0,1,1.313,4.875,12.236,12.236,0,0,1-2.437,6.975,18.684,18.684,0,0,1-6.712,5.813,19.71,19.71,0,0,1-9.45,2.287q-6.75,0-9.9-2.55t-3.15-7.575q0-5.55,5.55-8.1a4.918,4.918,0,0,1-2.812-1.988,6.9,6.9,0,0,1-.787-3.562q0-4.125,3.975-7.95a10.792,10.792,0,0,1-3.488-4.013A13,13,0,0,1,7.8,247.5q3.525-3.525,9.975-3.525a14.958,14.958,0,0,1,4.725.675H34.8a17.014,17.014,0,0,1,.525,4.65,53.865,53.865,0,0,0-7.275-1.2,11.44,11.44,0,0,1,2.587,3.9,10.883,10.883,0,0,1,.862,3.975,12.178,12.178,0,0,1-3.6,9.038q-3.6,3.563-9.975,3.563a16.469,16.469,0,0,1-5.775-.975,5.25,5.25,0,0,0-1.875,3.525,2.567,2.567,0,0,0,.75,2.063,5.685,5.685,0,0,0,2.925.862Q16.125,274.275,21.15,274.275ZM17.025,247.35a4.844,4.844,0,0,0-4.35,2.362,10.488,10.488,0,0,0-1.5,5.738q0,4.65,2.025,7.162a6.823,6.823,0,0,0,5.625,2.513,4.822,4.822,0,0,0,4.088-2.1A9.888,9.888,0,0,0,24.45,257.1a11.718,11.718,0,0,0-1.988-6.938A6.307,6.307,0,0,0,17.025,247.35Zm.9,46.35a13.2,13.2,0,0,0,5.587-1.125,8.816,8.816,0,0,0,3.713-3,7.063,7.063,0,0,0,1.275-4.05,4.51,4.51,0,0,0-.975-3.112,6.584,6.584,0,0,0-3.638-1.613,43.02,43.02,0,0,0-7.763-.525q-1.8,0-4.05-.15a6.836,6.836,0,0,0-1.988,2.55,8.586,8.586,0,0,0-.562,3.3q0,3.9,1.95,5.813T17.925,293.7ZM11.1,339.5a4.279,4.279,0,0,1-3.15-1.275,4.191,4.191,0,0,1-1.275-3.075,4.429,4.429,0,0,1,1.313-3.262,4.253,4.253,0,0,1,3.113-1.312,4.34,4.34,0,0,1,3.262,1.275,4.539,4.539,0,0,1,1.238,3.3,4.17,4.17,0,0,1-1.312,3.038A4.34,4.34,0,0,1,11.1,339.5ZM2.625,401.675a2.872,2.872,0,0,1-1.65-2.1,32.408,32.408,0,0,0,5.812-8.663,24.9,24.9,0,0,0,1.537-9.337v-22.95a10.066,10.066,0,0,0-.375-3.075,2.82,2.82,0,0,0-1.575-1.687A9.1,9.1,0,0,0,2.7,353.3a5.067,5.067,0,0,1,.675-2.775A24.746,24.746,0,0,0,8.7,349.7a14.984,14.984,0,0,0,4.725-1.725q1.65.525,1.65,3v29.55a22.4,22.4,0,0,1-3.6,12.788A26.355,26.355,0,0,1,2.625,401.675ZM63.3,484a10.708,10.708,0,0,1,.375,3.225Q60.3,487,55.5,487q-5.175,0-8.925.225A10.269,10.269,0,0,1,46.95,484q3-.15,4.087-1.462t1.088-5.062v-11.4q0-5.025-1.8-7.088a6.407,6.407,0,0,0-5.1-2.062A6.95,6.95,0,0,0,41.25,458.2a9.28,9.28,0,0,0-3.113,4.125A17.936,17.936,0,0,0,36.9,469.45v8.025q0,3.75,1.125,5.063T42.15,484a10.708,10.708,0,0,1,.375,3.225Q38.7,487,33.6,487q-4.875,0-8.925.225A10.269,10.269,0,0,1,25.05,484q3-.15,4.088-1.462t1.087-5.062V465.7q0-5.025-1.8-7.088a6.407,6.407,0,0,0-5.1-2.062,6.95,6.95,0,0,0-3.975,1.275,9.28,9.28,0,0,0-3.112,4.125A17.936,17.936,0,0,0,15,469.075v8.4q0,3.675,1.125,5.025T20.25,484a10.708,10.708,0,0,1,.375,3.225Q16.8,487,11.7,487q-5.325,0-8.925.225A10.269,10.269,0,0,1,3.15,484q3-.15,4.088-1.462t1.087-5.062v-14.85a8.868,8.868,0,0,0-.412-3.038,2.974,2.974,0,0,0-1.613-1.65,9.568,9.568,0,0,0-3.6-.638,5.067,5.067,0,0,1,.675-2.775,32.331,32.331,0,0,0,5.1-.937,18.872,18.872,0,0,0,4.575-1.612q1.65.525,1.65,3,0,1.8-.3,4.8a11.815,11.815,0,0,1,1.2-2.4,13.267,13.267,0,0,1,10.725-5.4,11.25,11.25,0,0,1,5.925,1.538,8.638,8.638,0,0,1,3.675,4.762,6.914,6.914,0,0,1,.3,1.875,9.036,9.036,0,0,1,1.275-2.4A13.7,13.7,0,0,1,41.813,454a12.434,12.434,0,0,1,6.413-1.65,10.376,10.376,0,0,1,7.612,2.925q2.963,2.925,2.963,9.3v12.9q0,3.675,1.013,5.025A4.448,4.448,0,0,0,63.3,484Zm-42,107.675a19.6,19.6,0,0,1-6.225-1.05v7.5a13.825,13.825,0,0,0,.675,4.912,4.072,4.072,0,0,0,2.063,2.325,11.318,11.318,0,0,0,3.938.788,10.269,10.269,0,0,1,.375,3.225q-3.45-.225-9.45-.225-6.975,0-9.9.225a10.269,10.269,0,0,1,.375-3.225q3-.15,4.088-1.463t1.087-5.062v-33a8.868,8.868,0,0,0-.412-3.037,2.974,2.974,0,0,0-1.613-1.65,9.568,9.568,0,0,0-3.6-.638,5.067,5.067,0,0,1,.675-2.775,30.348,30.348,0,0,0,5.325-.9,22.06,22.06,0,0,0,4.725-1.65q1.65.525,1.65,3.3a9.719,9.719,0,0,1-.263,2.287q-.263,1.088-.862,3.112a34.777,34.777,0,0,1,1.725-3.15,11.8,11.8,0,0,1,4.012-3.788,11.554,11.554,0,0,1,6.262-1.763q6.75,0,10.387,3.975t3.638,12A21.567,21.567,0,0,1,37.65,582a17.517,17.517,0,0,1-6.6,7.088A18.455,18.455,0,0,1,21.3,591.675ZM24.15,560.7a7.845,7.845,0,0,0-6.413,3.525q-2.662,3.525-2.662,10.8V585.6a11.228,11.228,0,0,0,2.962,1.95,9,9,0,0,0,3.638.675,10.725,10.725,0,0,0,4.95-1.275,10.239,10.239,0,0,0,4.2-4.538A18.966,18.966,0,0,0,32.55,573.6q0-5.85-2.362-9.375A7.046,7.046,0,0,0,24.15,560.7Zm2.625,109.7a6.939,6.939,0,0,1-3.75.9,9.12,9.12,0,0,0-2.55-5.775,7.687,7.687,0,0,0-5.85-2.475,5.72,5.72,0,0,0-3.712,1.125,3.666,3.666,0,0,0-1.387,3,4.3,4.3,0,0,0,.6,2.362,6.984,6.984,0,0,0,2.475,1.988,52.547,52.547,0,0,0,5.85,2.625,34.392,34.392,0,0,1,6.412,3.075,9.373,9.373,0,0,1,3.263,3.338A9.592,9.592,0,0,1,29.1,685.1a9.125,9.125,0,0,1-3.9,7.65,15.919,15.919,0,0,1-9.825,2.925A29.087,29.087,0,0,1,8.438,695,25.83,25.83,0,0,1,3,692.9a45.458,45.458,0,0,0,.225-5.025q0-2.025-.15-4.275a6.844,6.844,0,0,1,3.9-.825q.525,4.65,2.887,7.012a8.465,8.465,0,0,0,6.262,2.363,7.479,7.479,0,0,0,4.725-1.35,4.4,4.4,0,0,0,1.087-5.775,6.74,6.74,0,0,0-2.362-1.95,44.8,44.8,0,0,0-5.1-2.325A45.2,45.2,0,0,1,7.8,677.6a9.186,9.186,0,0,1-3.375-3.337,10.149,10.149,0,0,1-1.05-4.913,7.223,7.223,0,0,1,1.95-5.1,12.45,12.45,0,0,1,4.875-3.187,16.116,16.116,0,0,1,5.625-1.088,24.227,24.227,0,0,1,5.85.638,19.927,19.927,0,0,1,4.95,1.987q-.15,2.25-.15,3.525A27.277,27.277,0,0,0,26.775,670.4ZM31.5,764.65q4.275,0,6.975-.225a7.14,7.14,0,0,1-.675,3.225,4.631,4.631,0,0,0-2.925,1.987,39.3,39.3,0,0,0-3.075,6.188L21.675,799a7.707,7.707,0,0,1-3.45.675q-1.275-3.3-5.513-12.825T6.225,772.375a15.993,15.993,0,0,0-2.25-3.75,3.785,3.785,0,0,0-2.4-.975,13.758,13.758,0,0,1-.337-1.575,11.164,11.164,0,0,1-.112-1.65q3.15.225,7.875.225,5.625,0,9.225-.225A9.694,9.694,0,0,1,17.7,767.5a11.88,11.88,0,0,0-3.6.6,1.541,1.541,0,0,0-1.05,1.5,7.526,7.526,0,0,0,.975,3.075q1.425,3.15,3.75,8.775t4.05,10.05l6-15a16.692,16.692,0,0,0,1.35-5.475,3.124,3.124,0,0,0-.937-2.475,4.873,4.873,0,0,0-2.888-.975,6.445,6.445,0,0,1-.825-3.15Q27.45,764.65,31.5,764.65Zm.45,104q5.25,0,7.5-.15a8.668,8.668,0,0,1-.45,3.225,5.5,5.5,0,0,0-3.112,1.95,31.265,31.265,0,0,0-2.963,5.85L21.9,905.775A85.689,85.689,0,0,1,17.025,915.9a14.077,14.077,0,0,1-3.862,4.575,7.708,7.708,0,0,1-4.313,1.2,8.974,8.974,0,0,1-5.625-1.725A9.859,9.859,0,0,1,3,917.625a16.034,16.034,0,0,1,.3-3.15,27.687,27.687,0,0,0,4.8.45,8.547,8.547,0,0,0,7.575-4.425,46.505,46.505,0,0,0,3.45-6.975q-4.05-9.15-10.2-22.575Q7.125,877.2,6,875.325a8.892,8.892,0,0,0-2.1-2.588,6.15,6.15,0,0,0-2.325-1.013,10.245,10.245,0,0,1-.45-3.225q5.7.15,8.475.15,3.825,0,9.975-.15a8.531,8.531,0,0,1-.525,3.225,8.9,8.9,0,0,0-3.675,1.163A2.546,2.546,0,0,0,14.25,875.1a13.1,13.1,0,0,0,1.575,4.875q2.55,5.175,6.75,15.45l.675-1.725,5.175-13.05A14.84,14.84,0,0,0,29.7,875.7a3.142,3.142,0,0,0-1.125-2.663,8.45,8.45,0,0,0-3.525-1.312,9.7,9.7,0,0,1-.525-3.225Q26.85,868.65,31.95,868.65Z" transform="translate(1016 260)" fill="#0cb1f2"/>
    <path id="Path_577" data-name="Path 577" d="M27.9,43.475q14.7.825,14.7,12.75a13.815,13.815,0,0,1-4.463,10.688Q33.675,71,24.6,71q-14.775,0-20.4.225A10.27,10.27,0,0,1,4.575,68a7.944,7.944,0,0,0,3.188-.75,3.5,3.5,0,0,0,1.575-2.137,15.6,15.6,0,0,0,.488-4.463V29.825q0-3.75-1.087-5.062T4.65,23.3a10.27,10.27,0,0,1-.375-3.225q3,.225,7.8.225l5.4-.075q1.8-.075,5.325-.075,7.35,0,11.663,2.438T38.775,31.1a12.065,12.065,0,0,1-2.963,8.25A12.658,12.658,0,0,1,27.9,43.475ZM31.125,33.35q0-5.25-3.337-7.575A13.366,13.366,0,0,0,19.95,23.45a12.051,12.051,0,0,0-3.075.375v19.05H19.2Q31.125,42.875,31.125,33.35ZM23.85,67.775q5.4,0,8.063-2.738t2.663-7.762Q34.575,46.1,18.6,46.1H16.875V60.65a13.834,13.834,0,0,0,.563,4.612,3.262,3.262,0,0,0,1.988,1.988A13.739,13.739,0,0,0,23.85,67.775Zm14.85,94.4a7.914,7.914,0,0,1,3.3,1.8,65.493,65.493,0,0,0-2.325,11.175q-5.85-.15-16.05-.15-13.8,0-19.425.225A10.27,10.27,0,0,1,4.575,172a7.944,7.944,0,0,0,3.188-.75,3.355,3.355,0,0,0,1.537-2.1,16.768,16.768,0,0,0,.45-4.5V133.825q0-3.75-1.087-5.062T4.575,127.3a10.27,10.27,0,0,1-.375-3.225q4.425.225,12.6.225,13.65,0,21.075-.225a100.249,100.249,0,0,0,1.575,11.85,5.332,5.332,0,0,1-3.375.9,10.705,10.705,0,0,0-3.038-6.863q-2.662-2.662-9.262-2.662H16.8v20.55h4.725q4.725,0,6.487-1.238t1.838-4.838a12.8,12.8,0,0,1,3.6-.525q-.15,2.55-.15,8.175,0,6.15.15,8.7A13.726,13.726,0,0,1,30,157.75q-.3-3.9-2.062-5.288t-6.413-1.387H16.8V164.65a13.476,13.476,0,0,0,.525,4.313,3.38,3.38,0,0,0,1.987,2.063,11.9,11.9,0,0,0,4.313.6h.45a23.438,23.438,0,0,0,7.95-1.05,8.45,8.45,0,0,0,4.088-2.925A23.5,23.5,0,0,0,38.7,162.175Zm8.025,107.3q0,3.75,1.087,5.063T51.9,276a10.269,10.269,0,0,1,.375,3.225Q47.775,279,43.2,279q-5.25,0-9.075.225A10.269,10.269,0,0,1,34.5,276q3-.15,4.088-1.462t1.087-5.062v-14.85q-17.175,0-22.875.45v14.4q0,3.75,1.087,5.063T21.975,276a10.269,10.269,0,0,1,.375,3.225Q17.85,279,13.275,279q-5.25,0-9.075.225A10.269,10.269,0,0,1,4.575,276q3-.15,4.088-1.462t1.087-5.062v-31.65q0-3.75-1.087-5.062T4.575,231.3a10.27,10.27,0,0,1-.375-3.225q4.125.225,9.075.225,4.575,0,9.075-.225a10.27,10.27,0,0,1-.375,3.225q-3,.15-4.087,1.462T16.8,237.825V251.4H39.675V237.825q0-3.75-1.087-5.062T34.5,231.3a10.27,10.27,0,0,1-.375-3.225q4.125.225,9.075.225,4.575,0,9.075-.225A10.269,10.269,0,0,1,51.9,231.3q-3,.15-4.087,1.462t-1.087,5.063ZM37.875,372.35a49.366,49.366,0,0,0,3.525,4.237,10.394,10.394,0,0,0,3.15,2.212,12.881,12.881,0,0,0,4.65.975A12.157,12.157,0,0,1,48.825,383q-7.5,0-11.925.45a135.129,135.129,0,0,0-9.075-12.675A101.544,101.544,0,0,0,16.8,358.55v14.925q0,3.75,1.087,5.063T21.975,380a10.269,10.269,0,0,1,.375,3.225Q17.85,383,13.275,383q-5.25,0-9.075.225A10.269,10.269,0,0,1,4.575,380q3-.15,4.088-1.462t1.087-5.062v-31.65q0-3.75-1.087-5.062T4.575,335.3a10.269,10.269,0,0,1-.375-3.225q4.125.225,9.075.225,4.575,0,9.075-.225a10.269,10.269,0,0,1-.375,3.225q-3,.15-4.087,1.463T16.8,341.825v14.55l14.175-14.85q2.775-2.85,2.775-4.5T31.275,335.3a11.166,11.166,0,0,1-.375-3.225q2.475.225,7.725.225,4.725,0,7.725-.225a8.668,8.668,0,0,1-.45,3.225,10.618,10.618,0,0,0-4.95,1.5,29.717,29.717,0,0,0-5.7,5.025L23.025,354.8Q28.425,359.975,37.875,372.35ZM45.45,436.3q4.05,0,7.125-.225A12.157,12.157,0,0,1,52.2,439.3a3.521,3.521,0,0,0-2.662.975,6.314,6.314,0,0,0-1.35,3.263,38.28,38.28,0,0,0-.412,6.413V487a9.416,9.416,0,0,1-3.225.45L13.575,447.025v25.95a37.473,37.473,0,0,0,.45,6.675,5.882,5.882,0,0,0,1.575,3.337A4.543,4.543,0,0,0,18.75,484a10.708,10.708,0,0,1,.375,3.225Q15.75,487,11.7,487q-4.65,0-7.5.225A10.708,10.708,0,0,1,4.575,484a4.543,4.543,0,0,0,3.15-1.013A5.882,5.882,0,0,0,9.3,479.65a37.473,37.473,0,0,0,.45-6.675V442l-.3-.375A6.286,6.286,0,0,0,7.463,439.9a8.552,8.552,0,0,0-2.887-.6,12.157,12.157,0,0,1-.375-3.225q2.25.225,5.55.225a46.739,46.739,0,0,0,5.025-.225l29.175,38.7V449.95a35.047,35.047,0,0,0-.45-6.45,5.6,5.6,0,0,0-1.575-3.225,4.658,4.658,0,0,0-3.15-.975,21.068,21.068,0,0,1-.375-3.225Q41.625,436.3,45.45,436.3ZM36.225,590.1a21.484,21.484,0,0,1,4.012,1.688q1.838,1.012,4.088,2.438a43.47,43.47,0,0,0,5.7,3.15,13.737,13.737,0,0,0,5.55,1.05,18.015,18.015,0,0,0,1.875-.075,9.9,9.9,0,0,1-.45,3,76.029,76.029,0,0,0-9.3,3.45,12.62,12.62,0,0,1-4.912-2.287,32.5,32.5,0,0,1-4.163-4.163,28.131,28.131,0,0,0-4.95-4.612,13.671,13.671,0,0,0-6.3-2.062,24.374,24.374,0,0,1-12.9-3.412,23.406,23.406,0,0,1-8.738-9.375A28.49,28.49,0,0,1,2.625,565.5a27.153,27.153,0,0,1,3.263-13.388,23.715,23.715,0,0,1,8.925-9.187,24.493,24.493,0,0,1,12.563-3.3,25.147,25.147,0,0,1,12.787,3.263,22.931,22.931,0,0,1,8.85,9.15A27.825,27.825,0,0,1,52.2,565.5a27.213,27.213,0,0,1-4.35,15.263A23.291,23.291,0,0,1,36.225,590.1ZM10.35,563.475a32.691,32.691,0,0,0,2.213,12.075,21.508,21.508,0,0,0,6.412,9.038,15.22,15.22,0,0,0,9.9,3.412,13.34,13.34,0,0,0,8.287-2.7,16.882,16.882,0,0,0,5.438-7.388,27.948,27.948,0,0,0,1.875-10.462,30.072,30.072,0,0,0-2.437-12.225,21.585,21.585,0,0,0-6.713-8.775,15.436,15.436,0,0,0-9.525-3.225,13.231,13.231,0,0,0-7.95,2.55,16.813,16.813,0,0,0-5.513,7.125A26.336,26.336,0,0,0,10.35,563.475Zm31.05,83.3q0,3,.525,9.3a7.994,7.994,0,0,1-3.75.675q-.15-4.5-2.175-6.825T29.7,647.6H25.725v37.875a12.923,12.923,0,0,0,.45,3.938,3.063,3.063,0,0,0,1.687,1.875,11.024,11.024,0,0,0,3.713.713,10.269,10.269,0,0,1,.375,3.225Q27.15,695,22.125,695q-5.625,0-9.825.225A10.269,10.269,0,0,1,12.675,692a11.419,11.419,0,0,0,3.75-.713,3.178,3.178,0,0,0,1.763-1.912,12.04,12.04,0,0,0,.487-3.9V647.6H14.85a10.715,10.715,0,0,0-5.325,1.088,6.136,6.136,0,0,0-2.663,2.925,24.84,24.84,0,0,0-1.387,5.138,7.275,7.275,0,0,1-3.6-.675,69.423,69.423,0,0,0,1.2-12q4.2.225,19.125.225,15.15,0,19.275-.225ZM66.225,748.3q4.125,0,7.125-.225a9.7,9.7,0,0,1-.525,3.225,4.234,4.234,0,0,0-2.25,1.275,10.964,10.964,0,0,0-1.8,3.112q-.9,2.137-2.25,6.487l-11.7,37.05a8.619,8.619,0,0,1-3,.45q-7.5-21.3-14.625-39.825L24,799.225a9.417,9.417,0,0,1-3.225.45q-6.675-21.825-12.6-39.75a61.216,61.216,0,0,0-2.213-5.85,5.5,5.5,0,0,0-1.5-2.138A4.857,4.857,0,0,0,2.25,751.3a11.166,11.166,0,0,1-.375-3.225q3.6.225,8.475.225,4.95,0,9.075-.225a13.267,13.267,0,0,1-.375,3.225,11.452,11.452,0,0,0-3.75.638,1.9,1.9,0,0,0-1.05,1.912,18.873,18.873,0,0,0,1.275,5.175Q21.075,776.275,24.3,787l13.2-38.925a10.174,10.174,0,0,1,3.3-.375q6.75,17.625,14.325,39.45l7.95-25.2a23.718,23.718,0,0,0,1.2-6,4.259,4.259,0,0,0-1.163-3.263,6.358,6.358,0,0,0-3.638-1.388,8.9,8.9,0,0,1-.525-3.225Q62.1,748.3,66.225,748.3ZM38.7,890.325a7.659,7.659,0,0,1,3.9,1.275,54.239,54.239,0,0,0-1.35,11.625Q33.9,903,21.675,903,9.6,903,4.95,903.225a5.325,5.325,0,0,1-.6-2.4Q13.95,885.3,19.987,875.4t11.888-20.1H21.225a16.925,16.925,0,0,0-5.512.713,6.165,6.165,0,0,0-3.225,2.775A18.948,18.948,0,0,0,10.5,864.9a8.66,8.66,0,0,1-4.275-.75,34.4,34.4,0,0,0,1.05-5.625,56.486,56.486,0,0,0,.375-6.375q6.15.15,18.3.15,9.075,0,14.4-.15a3.7,3.7,0,0,1,.825,2.475q-14.325,25.05-27.3,45.225h11.55a28.392,28.392,0,0,0,7.35-.712,6.582,6.582,0,0,0,3.787-2.663A17.43,17.43,0,0,0,38.7,890.325Z" transform="translate(345 260)" fill="#0cb1f2"/>
    <path id="Path_582" data-name="Path 582" d="M24,35.975q6.75,0,10.388,4.088t3.638,12.563a20.042,20.042,0,0,1-2.325,9.6,17.512,17.512,0,0,1-6.6,6.9,18.663,18.663,0,0,1-9.75,2.55,23.906,23.906,0,0,1-8.475-1.388,18.288,18.288,0,0,1-6.15-3.713,7.493,7.493,0,0,0,1.237-3.187,36.09,36.09,0,0,0,.413-6.338V27.875A10.066,10.066,0,0,0,6,24.8a2.82,2.82,0,0,0-1.575-1.687A9.1,9.1,0,0,0,.75,22.55a5.067,5.067,0,0,1,.675-2.775A24.746,24.746,0,0,0,6.75,18.95a14.984,14.984,0,0,0,4.725-1.725q1.65.525,1.65,3V39.8a19.827,19.827,0,0,1-.3,3.225l.9-1.5a11.8,11.8,0,0,1,4.012-3.788A11.554,11.554,0,0,1,24,35.975Zm-4.275,32.25a10.725,10.725,0,0,0,4.95-1.275,10.239,10.239,0,0,0,4.2-4.537A18.966,18.966,0,0,0,30.6,53.6a17.5,17.5,0,0,0-1.35-7.387,10.134,10.134,0,0,0-3.262-4.2A6.675,6.675,0,0,0,22.2,40.7a7.845,7.845,0,0,0-6.413,3.525q-2.663,3.525-2.663,10.8V65.6a11.229,11.229,0,0,0,2.962,1.95A9,9,0,0,0,19.725,68.225Zm10.725,98.9a4.968,4.968,0,0,1,1.163,1.05,2.55,2.55,0,0,1,.638,1.275,15.284,15.284,0,0,1-5.812,4.762,18.264,18.264,0,0,1-7.538,1.463,15.462,15.462,0,0,1-8.737-2.363A14.654,14.654,0,0,1,4.8,166.9,22.11,22.11,0,0,1,3,157.825,20.636,20.636,0,0,1,4.912,148.9a16.053,16.053,0,0,1,5.437-6.487,14.018,14.018,0,0,1,8.175-2.437q6.825,0,10.163,4.237T32.55,155.5a5.943,5.943,0,0,1-1.125,2.55q-13.2,0-21,.375a18.393,18.393,0,0,0,2.887,9.412q2.513,3.638,7.988,3.638a11.539,11.539,0,0,0,4.95-1.125A12.453,12.453,0,0,0,30.45,167.125Zm-12.6-23.55a6.389,6.389,0,0,0-5.1,2.55q-2.1,2.55-2.4,8.55h14.4a15.463,15.463,0,0,0-1.838-8.062A5.662,5.662,0,0,0,17.85,143.575ZM41.625,276A10.708,10.708,0,0,1,42,279.225Q38.775,279,33.825,279q-3.075,0-7.425.15a11.336,11.336,0,0,1-1.5.075A10.269,10.269,0,0,1,25.275,276a4.934,4.934,0,0,0,3.975-1.425q1.2-1.425,1.2-5.1v-11.4q0-4.95-1.837-7.05a6.466,6.466,0,0,0-5.138-2.1,7.3,7.3,0,0,0-4.05,1.275,9.039,9.039,0,0,0-3.188,4.125A17.936,17.936,0,0,0,15,261.45v8.025q0,3.75,1.125,5.137T20.175,276a10.708,10.708,0,0,1,.375,3.225Q14.25,279,11.625,279,6,279,2.7,279.225A10.269,10.269,0,0,1,3.075,276q2.925,0,4.05-1.388t1.125-5.137v-33.6a10.065,10.065,0,0,0-.375-3.075A2.82,2.82,0,0,0,6.3,231.113a9.1,9.1,0,0,0-3.675-.562,5.067,5.067,0,0,1,.675-2.775,24.746,24.746,0,0,0,5.325-.825,14.984,14.984,0,0,0,4.725-1.725q1.65.525,1.65,3v19.05a17.605,17.605,0,0,1-.525,4.425,6.676,6.676,0,0,0,.413-.787,6.63,6.63,0,0,1,.712-1.163A13.492,13.492,0,0,1,19.987,246a12.841,12.841,0,0,1,6.487-1.65,10.6,10.6,0,0,1,7.725,2.925q3,2.925,3,9.3v12.9q0,3.75,1.05,5.137A3.96,3.96,0,0,0,41.625,276Zm-10.05,99.05a17.515,17.515,0,0,0,3.712,3.6,9.375,9.375,0,0,0,4.088,1.125A10.269,10.269,0,0,1,39,383a61.922,61.922,0,0,0-9.6.675q-2.325-3.525-6.45-8.587T15,366.125v7.35q0,3.75.975,5.137A3.929,3.929,0,0,0,19.425,380a11.649,11.649,0,0,1,.375,3.225Q15.9,383,11.325,383q-4.875,0-8.625.225A11.167,11.167,0,0,1,3.075,380q3,0,4.087-1.388t1.088-5.137v-33.6a10.066,10.066,0,0,0-.375-3.075A2.82,2.82,0,0,0,6.3,335.112a9.1,9.1,0,0,0-3.675-.562,5.067,5.067,0,0,1,.675-2.775,24.746,24.746,0,0,0,5.325-.825,14.984,14.984,0,0,0,4.725-1.725q1.65.525,1.65,3V363.8l5.55-5.025q4.8-4.275,4.8-6,0-1.2-2.175-1.2a10.644,10.644,0,0,1-.45-3.075q3.225.15,7.8.15,4.35,0,7.05-.15a8.3,8.3,0,0,1-.525,3.15,10.477,10.477,0,0,0-4.312,1.087,22.87,22.87,0,0,0-4.837,3.488l-7.125,6.45Q25.2,367.325,31.575,375.05ZM41.7,484a10.708,10.708,0,0,1,.375,3.225Q38.85,487,33.9,487q-3.075,0-7.425.15a11.336,11.336,0,0,1-1.5.075A10.269,10.269,0,0,1,25.35,484a4.934,4.934,0,0,0,3.975-1.425q1.2-1.425,1.2-5.1v-11.4q0-4.95-1.837-7.05a6.466,6.466,0,0,0-5.137-2.1A7.3,7.3,0,0,0,19.5,458.2a9.039,9.039,0,0,0-3.187,4.125,17.936,17.936,0,0,0-1.237,7.125v8.025q0,3.75,1.125,5.137T20.25,484a10.708,10.708,0,0,1,.375,3.225Q14.325,487,11.7,487q-5.7,0-8.925.225A10.269,10.269,0,0,1,3.15,484q2.925,0,4.05-1.388t1.125-5.137v-14.85a8.868,8.868,0,0,0-.412-3.038,2.974,2.974,0,0,0-1.613-1.65,9.568,9.568,0,0,0-3.6-.638,5.067,5.067,0,0,1,.675-2.775,30.345,30.345,0,0,0,5.325-.9,22.062,22.062,0,0,0,4.725-1.65q1.65.525,1.65,3.3a17.605,17.605,0,0,1-.525,4.425,6.676,6.676,0,0,0,.412-.788,6.629,6.629,0,0,1,.713-1.163A13.493,13.493,0,0,1,20.063,454a12.841,12.841,0,0,1,6.487-1.65,10.6,10.6,0,0,1,7.725,2.925q3,2.925,3,9.3v12.9q0,3.75,1.05,5.137A3.96,3.96,0,0,0,41.7,484ZM39.825,606.15a10.708,10.708,0,0,1,.375,3.225q-2.85-.225-9.3-.225-5.475,0-9.3.225a10.269,10.269,0,0,1,.375-3.225,11.186,11.186,0,0,0,3.675-.713,3.178,3.178,0,0,0,1.762-1.912,12.04,12.04,0,0,0,.488-3.9V589.5a32.627,32.627,0,0,1,1.125-7.725,17.068,17.068,0,0,1-2.175,4.5,12.429,12.429,0,0,1-4.35,3.412,12.607,12.607,0,0,1-5.7,1.388,13.449,13.449,0,0,1-6.9-1.838,13.062,13.062,0,0,1-5.025-5.475A19.043,19.043,0,0,1,3,574.95a19.735,19.735,0,0,1,2.325-9.45,18.036,18.036,0,0,1,6.487-6.937,17.6,17.6,0,0,1,9.488-2.588q9.675,0,14.85,5.025a9.2,9.2,0,0,0-1.125,3.075,27.245,27.245,0,0,0-.375,5.1v30.45q0,3.75,1.087,5.063T39.825,606.15ZM19.575,586.5a6.774,6.774,0,0,0,3.862-1.312,9.641,9.641,0,0,0,3.188-4.2,18.622,18.622,0,0,0,1.275-7.462V562.05a8.367,8.367,0,0,0-2.738-1.8,8.674,8.674,0,0,0-3.563-.825,9.885,9.885,0,0,0-8.1,3.825q-3.075,3.825-3.075,10.725,0,6.45,2.7,9.488A8.349,8.349,0,0,0,19.575,586.5ZM15.6,695.675q-4.5,0-6.6-2.287T6.9,686V665.675a22.22,22.22,0,0,0-5.4-.975,8.291,8.291,0,0,1,.675-3.3H6.9v-9.9a15.113,15.113,0,0,0,5.55-3,1.827,1.827,0,0,1,.975,1.013,11.144,11.144,0,0,1,.225,2.888v9H23.4a9.05,9.05,0,0,1-.675,3.3,55.859,55.859,0,0,0-9.075.975v18.75q0,7.2,4.35,7.2a7.339,7.339,0,0,0,2.663-.45,8.715,8.715,0,0,0,2.287-1.35,4.481,4.481,0,0,1,1.125,2.475,9.746,9.746,0,0,1-3.713,2.4A12.775,12.775,0,0,1,15.6,695.675ZM50.325,764.65q4.05,0,6.6-.225a8.449,8.449,0,0,1-.6,3.3,3.811,3.811,0,0,0-1.95,1.125,9.909,9.909,0,0,0-1.537,2.625q-.788,1.8-2.063,5.7L43.2,799a6.883,6.883,0,0,1-3.45.675q-5.175-13.2-10.5-25.275L19.425,799a4.018,4.018,0,0,1-1.312.525,10.181,10.181,0,0,1-1.988.15q-5.25-14.925-10.35-27.525a9.407,9.407,0,0,0-1.687-3,5.884,5.884,0,0,0-2.513-1.425,9.416,9.416,0,0,1-.45-3.225q3.9.15,7.35.15,4.425,0,8.25-.225a10.174,10.174,0,0,1-.375,3.3,7.668,7.668,0,0,0-2.963.75,1.661,1.661,0,0,0-.863,1.5,6.275,6.275,0,0,0,.6,2.25q2.4,6,6.525,17.85l9.825-25.425a11.011,11.011,0,0,1,3-.3q4.2,9.6,10.575,25.8l4.275-12.75a18.1,18.1,0,0,0,1.05-5.4,4.1,4.1,0,0,0-1.013-3.075,5.071,5.071,0,0,0-3.037-1.2,8.291,8.291,0,0,1-.675-3.3Q46.5,764.65,50.325,764.65ZM33.6,891.75a64.1,64.1,0,0,0,.6,9.975,2.43,2.43,0,0,1-2.4,1.425Q24.15,903,18.375,903q-7.95,0-13.35.15a4.07,4.07,0,0,1-1.2-3q4.65-6.45,10.913-15.3t8.887-12.9h-6.9a11.616,11.616,0,0,0-4.312.638,4.731,4.731,0,0,0-2.4,2.287A21.532,21.532,0,0,0,8.4,879.9a10.65,10.65,0,0,1-3.9-.6q.525-5.775.525-10.875,4.575.225,13.725.225,8.925,0,13.275-.225A4.963,4.963,0,0,1,33,871.65q-3.75,5.4-10.05,14.1t-10.2,13.875h9.525a11.588,11.588,0,0,0,4.275-.6,3.9,3.9,0,0,0,2.1-2.325,20.537,20.537,0,0,0,.975-5.4A16.388,16.388,0,0,1,33.6,891.75Z" transform="translate(1268 260)" fill="#0cb1f2"/>
    <path id="Path_578" data-name="Path 578" d="M26.475,71.675a23.106,23.106,0,0,1-12.337-3.338A22.734,22.734,0,0,1,5.662,59,29.973,29.973,0,0,1,2.625,45.275,26.652,26.652,0,0,1,6.113,31.25a22.675,22.675,0,0,1,9.225-8.7,26.778,26.778,0,0,1,12.337-2.925,36.22,36.22,0,0,1,8.475.938,42.293,42.293,0,0,1,8.175,2.962A60.623,60.623,0,0,0,43.5,35.15a10.49,10.49,0,0,1-3.975.675q-.3-7.5-3.075-10.313T28.275,22.7a16.819,16.819,0,0,0-10.05,2.85,16.717,16.717,0,0,0-5.85,7.5A27.03,27.03,0,0,0,10.5,43.25a31.147,31.147,0,0,0,2.287,12.188,19.544,19.544,0,0,0,6.638,8.55,17.069,17.069,0,0,0,10.2,3.112A23.816,23.816,0,0,0,36.9,65.9a30.584,30.584,0,0,0,6.975-3.225,4.029,4.029,0,0,1,.862,1.088A3.592,3.592,0,0,1,45.225,65a33.72,33.72,0,0,1-8.888,5.1A28.645,28.645,0,0,1,26.475,71.675ZM16.8,127.3v22.05h5.175q4.725,0,6.487-1.238t1.838-4.838a12.8,12.8,0,0,1,3.6-.525q-.15,2.55-.15,8.175,0,6.15.15,8.7a13.726,13.726,0,0,1-3.45-.375q-.3-3.9-2.062-5.288t-6.413-1.387H16.8v11.4a13.825,13.825,0,0,0,.675,4.912,4.072,4.072,0,0,0,2.063,2.325,11.317,11.317,0,0,0,3.938.788,10.27,10.27,0,0,1,.375,3.225Q20.4,175,14.4,175q-7.275,0-10.2.225A10.27,10.27,0,0,1,4.575,172q3-.15,4.088-1.462t1.087-5.062v-31.65q0-3.75-1.087-5.062T4.575,127.3a10.27,10.27,0,0,1-.375-3.225q4.95.225,12.525.225,13.425,0,20.85-.225a100.248,100.248,0,0,0,1.575,11.85,5.332,5.332,0,0,1-3.375.9,10.705,10.705,0,0,0-3.038-6.863q-2.662-2.662-9.262-2.662ZM9.75,237.825q0-3.75-1.087-5.062T4.575,231.3a10.27,10.27,0,0,1-.375-3.225q4.125.225,9.075.225,4.575,0,9.075-.225a10.27,10.27,0,0,1-.375,3.225q-3,.15-4.087,1.462T16.8,237.825v31.65q0,3.75,1.087,5.063T21.975,276a10.269,10.269,0,0,1,.375,3.225Q17.85,279,13.275,279q-5.25,0-9.075.225A10.269,10.269,0,0,1,4.575,276q3-.15,4.088-1.462t1.087-5.062Zm14.325,141.8a19.11,19.11,0,0,0,6.525-.9,8.162,8.162,0,0,0,3.825-2.85,23.237,23.237,0,0,0,2.775-5.7,7.914,7.914,0,0,1,3.3,1.8,65.492,65.492,0,0,0-2.325,11.175q-5.85-.15-14.55-.15-13.8,0-19.425.225A10.269,10.269,0,0,1,4.575,380a7.944,7.944,0,0,0,3.188-.75,3.5,3.5,0,0,0,1.575-2.138,15.6,15.6,0,0,0,.488-4.462V341.825q0-3.75-1.087-5.062T4.65,335.3a10.269,10.269,0,0,1-.375-3.225q4.35.225,9.075.225,4.575,0,9.075-.225a10.269,10.269,0,0,1-.375,3.225,8.475,8.475,0,0,0-3.187.713A3.179,3.179,0,0,0,17.325,338a14.114,14.114,0,0,0-.45,4.05v30.6A13.424,13.424,0,0,0,17.4,377a3.39,3.39,0,0,0,1.95,2.025,11.587,11.587,0,0,0,4.275.6Zm3.3,108.05a24.374,24.374,0,0,1-12.9-3.412,23.406,23.406,0,0,1-8.738-9.375A28.49,28.49,0,0,1,2.625,461.5a27.153,27.153,0,0,1,3.263-13.388,23.715,23.715,0,0,1,8.925-9.187,24.493,24.493,0,0,1,12.563-3.3,25.147,25.147,0,0,1,12.787,3.263,22.931,22.931,0,0,1,8.85,9.15,29.707,29.707,0,0,1,0,26.775,23.975,23.975,0,0,1-21.638,12.862Zm1.5-3.675a13.339,13.339,0,0,0,8.287-2.7,16.882,16.882,0,0,0,5.438-7.387,27.948,27.948,0,0,0,1.875-10.462,30.072,30.072,0,0,0-2.437-12.225,21.586,21.586,0,0,0-6.713-8.775,15.436,15.436,0,0,0-9.525-3.225,13.232,13.232,0,0,0-7.95,2.55,16.813,16.813,0,0,0-5.513,7.125,26.336,26.336,0,0,0-1.988,10.575,32.691,32.691,0,0,0,2.213,12.075,21.508,21.508,0,0,0,6.412,9.038A15.22,15.22,0,0,0,28.875,484Zm10.5,94.325a29.191,29.191,0,0,0,6.037,7.125,11.727,11.727,0,0,0,6.938,2.325,12.7,12.7,0,0,1-.3,3.225,77.815,77.815,0,0,0-11.775.675q-3.75-4.95-7.95-11.625a67.4,67.4,0,0,0-4.463-6.45,46.632,46.632,0,0,0-5.587-5.625l-2.475.075q-1.05,0-3-.15v13.575q0,3.75,1.087,5.063T21.975,588a10.708,10.708,0,0,1,.375,3.225Q19.05,591,13.2,591q-5.625,0-9,.225A11.166,11.166,0,0,1,4.575,588q3.075-.15,4.125-1.463t1.05-5.062v-31.65q0-3.75-1.087-5.138T4.575,543.3a10.839,10.839,0,0,1-.375-3.15q3,.15,8.7.15l7.8-.075q1.65-.075,3.975-.075,9.075,0,13.238,3.375a11,11,0,0,1,4.162,9,12.327,12.327,0,0,1-3.263,8.7,18.719,18.719,0,0,1-9.187,5.1,27.775,27.775,0,0,1,4.65,4.537Q36.075,573.15,39.375,578.325ZM20.1,564.675q6.525,0,10.575-2.812t4.05-8.362a9.424,9.424,0,0,0-2.962-7.388Q28.8,543.45,22.35,543.45a26.911,26.911,0,0,0-5.55.6v20.4A26.778,26.778,0,0,0,20.1,564.675Zm22.65,110.15a46.339,46.339,0,0,1-.9,10.425,12.806,12.806,0,0,1-3.375,6.15q-4.275,4.275-12.15,4.275-10.05,0-14.213-4.425T7.95,677.675v-23.85a16.949,16.949,0,0,0-.338-3.975,2.785,2.785,0,0,0-1.237-1.8,7.668,7.668,0,0,0-2.85-.75,12.157,12.157,0,0,1-.375-3.225q3,.225,8.7.225,5.325,0,8.7-.225a12.157,12.157,0,0,1-.375,3.225,10.92,10.92,0,0,0-3.412.713,2.651,2.651,0,0,0-1.388,1.725A15.654,15.654,0,0,0,15,653.825v22.8q0,7.05,2.888,11.063T27.75,691.7a14.028,14.028,0,0,0,4.313-.713A8.9,8.9,0,0,0,35.7,688.85a9.774,9.774,0,0,0,2.513-4.687,39.433,39.433,0,0,0,.712-8.737v-18.6a31.635,31.635,0,0,0-.375-5.7,4.462,4.462,0,0,0-1.462-2.737A6.394,6.394,0,0,0,33.75,647.3a16.813,16.813,0,0,1-.375-3.225q2.55.225,7.05.225,4.2,0,7.125-.225a19.822,19.822,0,0,1-.375,3.225,5.007,5.007,0,0,0-2.738,1.05,4.856,4.856,0,0,0-1.312,2.813,32.509,32.509,0,0,0-.375,5.663ZM46.575,796a10.245,10.245,0,0,1,.45,3.225Q43.8,799,37.875,799q-4.575,0-9.075.15a15.319,15.319,0,0,1,.3-3.15,9.17,9.17,0,0,0,2.663-.638,1.545,1.545,0,0,0,.862-1.537q0-1.8-2.325-5.625-2.55-4.35-3.9-6.525L24,777.7l-6.6,9.675q-2.7,3.975-2.7,5.775,0,2.175,3.975,2.85a11.649,11.649,0,0,1,.375,3.225Q15.225,799,10.8,799q-4.725,0-7.8.225a10.385,10.385,0,0,1,.45-3.375q4.125-1.05,8.925-7.65l9.6-13.725q-6-9.45-9.15-14.175-2.775-4.275-4.013-5.925a10.854,10.854,0,0,0-2.025-2.213,5.1,5.1,0,0,0-2.137-.787,10.974,10.974,0,0,1-.45-3.3q3.975.225,9.15.225,4.425,0,9.075-.15a16.034,16.034,0,0,1-.3,3.15,7.55,7.55,0,0,0-2.737.975,1.9,1.9,0,0,0-.863,1.65q0,1.8,2.4,5.4,2.1,3.15,6.15,9.45l5.475-8.625q2.7-4.425,2.7-6.225a2.018,2.018,0,0,0-.937-1.763,6.586,6.586,0,0,0-2.888-.862,12.7,12.7,0,0,1-.375-3.225q3.75.225,7.65.225,4.65,0,7.425-.225a13.248,13.248,0,0,1-.3,3.225,8.8,8.8,0,0,0-3.713,2.175,39.211,39.211,0,0,0-4.912,6.45L29.175,772.15q4.725,7.575,9.225,15.075a44.089,44.089,0,0,0,4.688,6.788A6.181,6.181,0,0,0,46.575,796ZM19.8,851.775q-1.95,18.15-2.55,33.9a9.219,9.219,0,0,1-3.375.45q-1.125-20.025-3-34.2A40.694,40.694,0,0,0,15,850.8a22.526,22.526,0,0,0,3.45-1.35A1.918,1.918,0,0,1,19.8,851.775Zm.15,47.475a4.073,4.073,0,0,1-1.275,3.225,4.59,4.59,0,0,1-3.15,1.125,4.345,4.345,0,0,1-3.15-1.087,3.832,3.832,0,0,1-1.125-2.888,4.068,4.068,0,0,1,1.275-3.037,4.539,4.539,0,0,1,3.3-1.238,3.887,3.887,0,0,1,2.963,1.238A3.834,3.834,0,0,1,19.95,899.25Z" transform="translate(607 260)" fill="#0cb1f2"/>
    <path id="Path_590" data-name="Path 590" d="M18.6,71.675a15.023,15.023,0,0,1-7.538-2.025A15.388,15.388,0,0,1,5.25,63.612,19.414,19.414,0,0,1,3,53.975,21.321,21.321,0,0,1,4.837,45.2,16.21,16.21,0,0,1,10.2,38.525a13.946,13.946,0,0,1,8.4-2.55q7.05,0,11.325,3.375A57.306,57.306,0,0,0,29.4,47.9a7.617,7.617,0,0,1-3.45.6,11.558,11.558,0,0,0-2.55-6.638A6.9,6.9,0,0,0,18,39.5a6.6,6.6,0,0,0-5.887,3.488Q9.975,46.475,9.975,52.85a19.9,19.9,0,0,0,1.275,7.163,12.848,12.848,0,0,0,3.675,5.362A8.66,8.66,0,0,0,20.7,67.4a9.6,9.6,0,0,0,4.538-1.125,11.815,11.815,0,0,0,3.788-3.225,3.983,3.983,0,0,1,1.125.862,3.363,3.363,0,0,1,.75,1.238Q26.775,71.675,18.6,71.675Zm5.775,49.775a14.525,14.525,0,0,1,4.087.45,13.188,13.188,0,0,1,3.037,1.425q-.3,4.2-.3,8.775a14.972,14.972,0,0,1-4.275.6,8.577,8.577,0,0,0-1.425-5.175,5.115,5.115,0,0,0-4.425-1.95,4.487,4.487,0,0,0-4.275,2.663q-1.35,2.662-1.35,7.837V141.4H23.1a6.372,6.372,0,0,1-.75,3.375,26.642,26.642,0,0,0-6.9.825v18.375a13.825,13.825,0,0,0,.675,4.912,4.072,4.072,0,0,0,2.063,2.325,11.317,11.317,0,0,0,3.937.788,10.27,10.27,0,0,1,.375,3.225Q19.05,175,13.05,175q-6.975,0-9.9.225A10.27,10.27,0,0,1,3.525,172q3-.15,4.087-1.462T8.7,165.475v-20.1a29.783,29.783,0,0,0-6-.6A5.332,5.332,0,0,1,3.75,141.4H8.7v-3a18.13,18.13,0,0,1,2.213-9.225,14.827,14.827,0,0,1,5.813-5.775A15.826,15.826,0,0,1,24.375,121.45ZM11.1,235.5a4.279,4.279,0,0,1-3.15-1.275,4.191,4.191,0,0,1-1.275-3.075,4.429,4.429,0,0,1,1.313-3.262,4.253,4.253,0,0,1,3.113-1.312,4.34,4.34,0,0,1,3.262,1.275,4.539,4.539,0,0,1,1.238,3.3,4.17,4.17,0,0,1-1.312,3.038A4.34,4.34,0,0,1,11.1,235.5ZM2.775,279.225A11.167,11.167,0,0,1,3.15,276q3,0,4.088-1.388t1.087-5.137v-14.85a10.066,10.066,0,0,0-.375-3.075,2.82,2.82,0,0,0-1.575-1.687A9.1,9.1,0,0,0,2.7,249.3a5.067,5.067,0,0,1,.675-2.775A24.746,24.746,0,0,0,8.7,245.7a14.984,14.984,0,0,0,4.725-1.725q1.65.525,1.65,3v22.5q0,3.75.975,5.137A3.929,3.929,0,0,0,19.5,276a11.649,11.649,0,0,1,.375,3.225Q15.975,279,11.4,279,6.525,279,2.775,279.225Zm-.075,104A11.167,11.167,0,0,1,3.075,380q3,0,4.087-1.388t1.088-5.137v-33.6a10.066,10.066,0,0,0-.375-3.075A2.82,2.82,0,0,0,6.3,335.112a9.1,9.1,0,0,0-3.675-.562,5.067,5.067,0,0,1,.675-2.775,24.746,24.746,0,0,0,5.325-.825,14.984,14.984,0,0,0,4.725-1.725q1.65.525,1.65,3v41.25q0,3.75.975,5.137A3.929,3.929,0,0,0,19.425,380a11.649,11.649,0,0,1,.375,3.225Q15.9,383,11.325,383,6.45,383,2.7,383.225Zm17.25,104.45a17.507,17.507,0,0,1-8.925-2.212A15.084,15.084,0,0,1,5.1,479.2,20.084,20.084,0,0,1,3,469.825a19.091,19.091,0,0,1,2.175-9.113,16.22,16.22,0,0,1,6.037-6.413,16.61,16.61,0,0,1,8.738-2.325q7.875,0,12.412,4.875T36.9,469.825a19.3,19.3,0,0,1-2.138,9.15,16.02,16.02,0,0,1-6,6.375A16.751,16.751,0,0,1,19.95,487.675Zm.6-3.6a7.3,7.3,0,0,0,6.6-3.6q2.25-3.6,2.25-9.75a21.188,21.188,0,0,0-1.388-7.95A12.785,12.785,0,0,0,24.3,457.45a7.945,7.945,0,0,0-5.1-1.875,7.159,7.159,0,0,0-6.413,3.45q-2.212,3.45-2.212,9.225,0,7.5,2.662,11.663A8.267,8.267,0,0,0,20.55,484.075Zm4.2,72.575a8.249,8.249,0,0,1,5.175,1.8,60.812,60.812,0,0,0-.525,8.85,13.43,13.43,0,0,1-4.275.675q-.15-3.375-1.088-4.612a3.066,3.066,0,0,0-2.587-1.237,4.256,4.256,0,0,0-2.85,1.463,11.489,11.489,0,0,0-2.513,3.938,13.73,13.73,0,0,0-1.012,5.25v7.2a13.825,13.825,0,0,0,.675,4.913,4.072,4.072,0,0,0,2.063,2.325A11.318,11.318,0,0,0,21.75,588a10.269,10.269,0,0,1,.375,3.225q-3.45-.225-9.45-.225-6.975,0-9.9.225A10.269,10.269,0,0,1,3.15,588q3-.15,4.088-1.463t1.087-5.062v-14.85a8.868,8.868,0,0,0-.412-3.037,2.974,2.974,0,0,0-1.613-1.65,9.568,9.568,0,0,0-3.6-.638,5.067,5.067,0,0,1,.675-2.775,30.348,30.348,0,0,0,5.325-.9,22.06,22.06,0,0,0,4.725-1.65q1.65.525,1.65,3.3a23.886,23.886,0,0,1-.45,4.762q-.45,2.213-.525,2.588l.6-1.8a8.3,8.3,0,0,1,.975-2.1Q19.5,556.65,24.75,556.65Zm9.9,128.15a6.772,6.772,0,0,0,.862,3.975q.863,1.125,3.787,1.125a10.675,10.675,0,0,1-.45,3.45,25.971,25.971,0,0,0-4.425.788,18.1,18.1,0,0,0-4.125,1.537,3.042,3.042,0,0,1-1.425-1.237,7.125,7.125,0,0,1-.45-3.112,21.229,21.229,0,0,1,.225-3.15,10.947,10.947,0,0,1-2.4,3.3,13.076,13.076,0,0,1-4.2,2.925,13.5,13.5,0,0,1-5.175.9q-5.325,0-8.025-3.075T6.15,681.95V670.625a11.907,11.907,0,0,0-.3-3.075,2.6,2.6,0,0,0-1.35-1.612,7.881,7.881,0,0,0-3.3-.638,6.238,6.238,0,0,1,.525-2.775,25.5,25.5,0,0,0,5.062-.9,22.868,22.868,0,0,0,4.463-1.65q1.65.525,1.65,3.3V680.3q0,5.25,1.425,7.838a5.034,5.034,0,0,0,4.8,2.587,7.561,7.561,0,0,0,6.338-3.262Q27.9,684.2,27.9,677.9v-7.65a8.868,8.868,0,0,0-.413-3.037,2.974,2.974,0,0,0-1.612-1.65,9.568,9.568,0,0,0-3.6-.638,13.066,13.066,0,0,1,.075-1.612,2.942,2.942,0,0,1,.45-1.162,36.234,36.234,0,0,0,5.663-.75A20.778,20.778,0,0,0,33,659.975q1.65.525,1.65,3.3ZM36.525,796a9.533,9.533,0,0,1,.375,3.15q-3.075-.15-7.875-.15-5.7,0-8.625.15a11.286,11.286,0,0,1,.3-3.15,7.042,7.042,0,0,0,2.475-.45,1.25,1.25,0,0,0,.825-1.2,6.517,6.517,0,0,0-1.35-3l-4.275-6.375-3.15,4.575q-1.95,2.925-1.95,4.5,0,1.95,2.625,1.95a8.763,8.763,0,0,1,.45,3.15Q13.575,799,8.475,799q-3.15,0-6.225.15A8.054,8.054,0,0,1,2.7,796a7.263,7.263,0,0,0,3.9-1.5,24.212,24.212,0,0,0,4.5-5.175l5.25-7.275q-2.85-4.125-5.7-7.875-2.325-3.075-3.413-4.35A7.489,7.489,0,0,0,5.325,768.1a5.685,5.685,0,0,0-2.025-.6,7.176,7.176,0,0,1-.525-3q4.35.15,7.875.15,6.075,0,8.625-.15a19.643,19.643,0,0,1-.375,3,7.181,7.181,0,0,0-2.362.412,1.181,1.181,0,0,0-.788,1.163q0,1.125,2.025,3.975.975,1.2,3.375,4.575l3-4.575q1.8-2.7,1.8-3.975a1.223,1.223,0,0,0-.637-1.125,4.564,4.564,0,0,0-1.988-.45,7.882,7.882,0,0,1-.45-3q3.75.15,6.675.15,3.15,0,6.3-.15a11.5,11.5,0,0,1-.45,3,5.7,5.7,0,0,0-3.038,1.088,20.744,20.744,0,0,0-3.487,4.087l-5.55,7.8,6.75,9.375a35.909,35.909,0,0,0,3.75,4.838A4.18,4.18,0,0,0,36.525,796ZM19.8,851.775q-1.95,18.15-2.55,33.9a9.219,9.219,0,0,1-3.375.45q-1.125-20.025-3-34.2A40.694,40.694,0,0,0,15,850.8a22.526,22.526,0,0,0,3.45-1.35A1.918,1.918,0,0,1,19.8,851.775Zm.15,47.475a4.073,4.073,0,0,1-1.275,3.225,4.59,4.59,0,0,1-3.15,1.125,4.345,4.345,0,0,1-3.15-1.087,3.832,3.832,0,0,1-1.125-2.888,4.068,4.068,0,0,1,1.275-3.037,4.539,4.539,0,0,1,3.3-1.238,3.887,3.887,0,0,1,2.963,1.238A3.834,3.834,0,0,1,19.95,899.25Z" transform="translate(1530 260)" fill="#0cb1f2"/>
    <path id="Path_581" data-name="Path 581" d="M0,0V960" transform="translate(817.021 241.5)" fill="none" stroke="#094c84" stroke-width="2"/>
    <path id="Path_579" data-name="Path 579" d="M21.18,57.54a18.485,18.485,0,0,1-9.87-2.67A18.187,18.187,0,0,1,4.53,47.4,23.979,23.979,0,0,1,2.1,36.42,21.322,21.322,0,0,1,4.89,25.2a18.14,18.14,0,0,1,7.38-6.96,21.422,21.422,0,0,1,9.87-2.34,28.976,28.976,0,0,1,6.78.75,33.835,33.835,0,0,1,6.54,2.37,48.5,48.5,0,0,0-.66,9.3,8.392,8.392,0,0,1-3.18.54q-.24-6-2.46-8.25t-6.54-2.25a13.455,13.455,0,0,0-8.04,2.28,13.374,13.374,0,0,0-4.68,6A21.624,21.624,0,0,0,8.4,34.8a24.917,24.917,0,0,0,1.83,9.75,15.636,15.636,0,0,0,5.31,6.84,13.656,13.656,0,0,0,8.16,2.49,19.053,19.053,0,0,0,5.82-.96,24.467,24.467,0,0,0,5.58-2.58,3.223,3.223,0,0,1,.69.87,2.874,2.874,0,0,1,.39.99,26.976,26.976,0,0,1-7.11,4.08A22.916,22.916,0,0,1,21.18,57.54Zm57.18-8.16q0,3,.87,4.05A4.4,4.4,0,0,0,82.5,54.6a8.216,8.216,0,0,1,.3,2.58Q79.2,57,75.54,57q-4.2,0-7.26.18a8.216,8.216,0,0,1,.3-2.58,4.4,4.4,0,0,0,3.27-1.17q.87-1.05.87-4.05V37.5q-13.74,0-18.3.36V49.38q0,3,.87,4.05a4.4,4.4,0,0,0,3.27,1.17,8.216,8.216,0,0,1,.3,2.58Q55.26,57,51.6,57q-4.2,0-7.26.18a8.216,8.216,0,0,1,.3-2.58,4.4,4.4,0,0,0,3.27-1.17q.87-1.05.87-4.05V24.06q0-3-.87-4.05a4.4,4.4,0,0,0-3.27-1.17,8.216,8.216,0,0,1-.3-2.58q3.3.18,7.26.18,3.66,0,7.26-.18a8.216,8.216,0,0,1-.3,2.58,4.4,4.4,0,0,0-3.27,1.17q-.87,1.05-.87,4.05V34.92h18.3V24.06q0-3-.87-4.05a4.4,4.4,0,0,0-3.27-1.17,8.215,8.215,0,0,1-.3-2.58q3.3.18,7.26.18,3.66,0,7.26-.18a8.215,8.215,0,0,1-.3,2.58,4.4,4.4,0,0,0-3.27,1.17q-.87,1.05-.87,4.05Zm49.98,5.22a8.938,8.938,0,0,1,.36,2.58q-3.6-.18-6.84-.18-3.18,0-6.78.18a6.033,6.033,0,0,1,.42-2.58,7.253,7.253,0,0,0,2.37-.54,1.248,1.248,0,0,0,.69-1.2,10.421,10.421,0,0,0-.9-2.94l-2.64-6.12q-9.54,0-15.84.24l-1.62,4.14a12.024,12.024,0,0,0-.96,3.96,2.081,2.081,0,0,0,.75,1.77,4.506,4.506,0,0,0,2.37.69,6.825,6.825,0,0,1,.42,2.58Q98.1,57,94.44,57q-1.56,0-4.98.18a6.638,6.638,0,0,1,.42-2.52,3.79,3.79,0,0,0,2.46-1.56,26.073,26.073,0,0,0,2.34-4.92L107.1,16.32a10.27,10.27,0,0,1,2.34-.24l14.28,32.76a23.243,23.243,0,0,0,2.37,4.44A3.586,3.586,0,0,0,128.34,54.6ZM113.88,41.1l-4.56-10.68q-1.8-4.14-2.64-6.54-.66,2.04-2.28,6.48L100.26,41.1Zm49.5,7.5a26.84,26.84,0,0,0,2.34,3.48,5.9,5.9,0,0,0,2.25,1.68,10.835,10.835,0,0,0,3.51.66,10.161,10.161,0,0,1-.24,2.58,62.253,62.253,0,0,0-9.42.54q-2.28-3.66-4.02-7.08l-.72-1.32q-1.86-3.36-3.39-5.61a42.311,42.311,0,0,0-4.05-4.95l-1.86.06q-.9,0-2.34-.12V49.38q0,3,.81,4.05a4.1,4.1,0,0,0,3.15,1.17,8.566,8.566,0,0,1,.3,2.58q-2.58-.18-7.14-.18-4.5,0-7.2.18a8.933,8.933,0,0,1,.3-2.58q2.46-.12,3.3-1.17t.84-4.05V24.06q0-3-.87-4.11t-3.27-1.11a8.672,8.672,0,0,1-.3-2.52q2.4.12,7.2.12,3.3,0,4.98-.06l5.04-.06q6.48,0,9.78,2.79a9.089,9.089,0,0,1,3.3,7.29,9.72,9.72,0,0,1-2.67,6.84,14.744,14.744,0,0,1-7.41,4.08,34.55,34.55,0,0,1,3.54,4.35Q160.56,43.8,163.38,48.6ZM145.44,35.76a21.417,21.417,0,0,0,2.64.18,14.536,14.536,0,0,0,8.46-2.25A7.613,7.613,0,0,0,159.78,27a7.539,7.539,0,0,0-2.37-5.91q-2.37-2.13-7.53-2.13a21.527,21.527,0,0,0-4.44.48ZM215.22,54.6a8.938,8.938,0,0,1,.36,2.58q-3.6-.18-6.84-.18-3.18,0-6.78.18a6.033,6.033,0,0,1,.42-2.58,7.253,7.253,0,0,0,2.37-.54,1.248,1.248,0,0,0,.69-1.2,10.421,10.421,0,0,0-.9-2.94L201.9,43.8q-9.54,0-15.84.24l-1.62,4.14a12.024,12.024,0,0,0-.96,3.96,2.081,2.081,0,0,0,.75,1.77,4.506,4.506,0,0,0,2.37.69,6.825,6.825,0,0,1,.42,2.58q-2.04-.18-5.7-.18-1.56,0-4.98.18a6.638,6.638,0,0,1,.42-2.52,3.79,3.79,0,0,0,2.46-1.56,26.075,26.075,0,0,0,2.34-4.92l12.42-31.86a10.27,10.27,0,0,1,2.34-.24L210.6,48.84a23.241,23.241,0,0,0,2.37,4.44A3.586,3.586,0,0,0,215.22,54.6ZM200.76,41.1,196.2,30.42q-1.8-4.14-2.64-6.54-.66,2.04-2.28,6.48L187.14,41.1Zm38.1,16.44a18.485,18.485,0,0,1-9.87-2.67,18.187,18.187,0,0,1-6.78-7.47,23.979,23.979,0,0,1-2.43-10.98,21.322,21.322,0,0,1,2.79-11.22,18.14,18.14,0,0,1,7.38-6.96,21.422,21.422,0,0,1,9.87-2.34,28.976,28.976,0,0,1,6.78.75,33.835,33.835,0,0,1,6.54,2.37,48.5,48.5,0,0,0-.66,9.3,8.392,8.392,0,0,1-3.18.54q-.24-6-2.46-8.25t-6.54-2.25a12.845,12.845,0,0,0-12.72,8.28,21.624,21.624,0,0,0-1.5,8.16,24.917,24.917,0,0,0,1.83,9.75,15.636,15.636,0,0,0,5.31,6.84,13.656,13.656,0,0,0,8.16,2.49,19.053,19.053,0,0,0,5.82-.96,24.467,24.467,0,0,0,5.58-2.58,3.223,3.223,0,0,1,.69.87,2.874,2.874,0,0,1,.39.99,26.976,26.976,0,0,1-7.11,4.08A22.916,22.916,0,0,1,238.86,57.54Zm52.92-39.12q0,2.4.42,7.44a6.4,6.4,0,0,1-3,.54,8.545,8.545,0,0,0-1.74-5.46q-1.62-1.86-5.04-1.86h-3.18v30.3a10.338,10.338,0,0,0,.36,3.15,2.45,2.45,0,0,0,1.35,1.5,8.819,8.819,0,0,0,2.97.57,8.216,8.216,0,0,1,.3,2.58q-3.84-.18-7.86-.18-4.5,0-7.86.18a8.215,8.215,0,0,1,.3-2.58,9.134,9.134,0,0,0,3-.57,2.542,2.542,0,0,0,1.41-1.53,9.632,9.632,0,0,0,.39-3.12V19.08h-3.06a8.573,8.573,0,0,0-4.26.87,4.909,4.909,0,0,0-2.13,2.34,19.869,19.869,0,0,0-1.11,4.11,5.82,5.82,0,0,1-2.88-.54,55.54,55.54,0,0,0,.96-9.6q3.36.18,15.3.18,12.12,0,15.42-.18Zm33.18,28.32a6.331,6.331,0,0,1,2.64,1.44,52.394,52.394,0,0,0-1.86,8.94Q321.06,57,312.9,57q-11.04,0-15.54.18a8.215,8.215,0,0,1,.3-2.58,6.355,6.355,0,0,0,2.55-.6,2.684,2.684,0,0,0,1.23-1.68,13.415,13.415,0,0,0,.36-3.6V24.06q0-3-.87-4.05a4.4,4.4,0,0,0-3.27-1.17,8.215,8.215,0,0,1-.3-2.58q3.54.18,10.08.18,10.92,0,16.86-.18a80.2,80.2,0,0,0,1.26,9.48,4.265,4.265,0,0,1-2.7.72,8.564,8.564,0,0,0-2.43-5.49q-2.13-2.13-7.41-2.13h-5.58V35.28h3.78q3.78,0,5.19-.99t1.47-3.87a10.242,10.242,0,0,1,2.88-.42q-.12,2.04-.12,6.54,0,4.92.12,6.96a10.981,10.981,0,0,1-2.76-.3q-.24-3.12-1.65-4.23t-5.13-1.11h-3.78V48.72a10.781,10.781,0,0,0,.42,3.45,2.7,2.7,0,0,0,1.59,1.65,9.524,9.524,0,0,0,3.45.48h.36a18.75,18.75,0,0,0,6.36-.84,6.76,6.76,0,0,0,3.27-2.34A18.8,18.8,0,0,0,324.96,46.74Zm38.4.12a23.353,23.353,0,0,0,4.83,5.7,9.382,9.382,0,0,0,5.55,1.86A10.161,10.161,0,0,1,373.5,57a62.253,62.253,0,0,0-9.42.54q-3-3.96-6.36-9.3a53.912,53.912,0,0,0-3.57-5.16,37.3,37.3,0,0,0-4.47-4.5l-1.98.06q-.84,0-2.4-.12V49.38q0,3,.87,4.05a4.4,4.4,0,0,0,3.27,1.17,8.566,8.566,0,0,1,.3,2.58Q347.1,57,342.42,57q-4.5,0-7.2.18a8.933,8.933,0,0,1,.3-2.58q2.46-.12,3.3-1.17t.84-4.05V24.06q0-3-.87-4.11t-3.27-1.11a8.671,8.671,0,0,1-.3-2.52q2.4.12,6.96.12l6.24-.06q1.32-.06,3.18-.06,7.26,0,10.59,2.7a8.8,8.8,0,0,1,3.33,7.2,9.862,9.862,0,0,1-2.61,6.96,14.975,14.975,0,0,1-7.35,4.08,22.219,22.219,0,0,1,3.72,3.63Q360.72,42.72,363.36,46.86ZM347.94,35.94a14.536,14.536,0,0,0,8.46-2.25A7.613,7.613,0,0,0,359.64,27a7.539,7.539,0,0,0-2.37-5.91q-2.37-2.13-7.53-2.13a21.527,21.527,0,0,0-4.44.48V35.76A21.417,21.417,0,0,0,347.94,35.94Zm56.82,21.6a19.486,19.486,0,0,1-6.24-.93,28.834,28.834,0,0,1-5.94-2.91,55.311,55.311,0,0,0,.54-8.52,12.928,12.928,0,0,1,3.24-.36q.24,4.8,2.43,7.32t6.81,2.52q3.9,0,5.79-1.71a5.814,5.814,0,0,0,1.89-4.53,6.467,6.467,0,0,0-1.2-3.96,10.144,10.144,0,0,0-2.94-2.67,52,52,0,0,0-4.86-2.49,57.449,57.449,0,0,1-5.76-3.12,12.476,12.476,0,0,1-3.69-3.69,10.27,10.27,0,0,1-1.53-5.79,10.052,10.052,0,0,1,3.24-7.92q3.24-2.88,8.82-2.88a20.977,20.977,0,0,1,5.64.75,14.924,14.924,0,0,1,4.38,1.89,62.937,62.937,0,0,0,.36,7.92,8.951,8.951,0,0,1-3.36.54q-.84-4.92-2.52-6.69a5.988,5.988,0,0,0-4.56-1.77,7.355,7.355,0,0,0-4.98,1.56,5.486,5.486,0,0,0-1.8,4.38,6.618,6.618,0,0,0,1.23,4.02,10.4,10.4,0,0,0,3,2.76q1.77,1.08,4.89,2.64a50.633,50.633,0,0,1,5.67,3.06,12.693,12.693,0,0,1,3.63,3.6,9.529,9.529,0,0,1,1.5,5.46,11.476,11.476,0,0,1-1.47,5.73,10.615,10.615,0,0,1-4.56,4.2A16.6,16.6,0,0,1,404.76,57.54Zm49.62-10.8a6.331,6.331,0,0,1,2.64,1.44,52.394,52.394,0,0,0-1.86,8.94Q450.48,57,442.32,57q-11.04,0-15.54.18a8.215,8.215,0,0,1,.3-2.58,6.355,6.355,0,0,0,2.55-.6,2.684,2.684,0,0,0,1.23-1.68,13.415,13.415,0,0,0,.36-3.6V24.06q0-3-.87-4.05a4.4,4.4,0,0,0-3.27-1.17,8.215,8.215,0,0,1-.3-2.58q3.54.18,10.08.18,10.92,0,16.86-.18a80.2,80.2,0,0,0,1.26,9.48,4.265,4.265,0,0,1-2.7.72,8.564,8.564,0,0,0-2.43-5.49q-2.13-2.13-7.41-2.13h-5.58V35.28h3.78q3.78,0,5.19-.99t1.47-3.87a10.242,10.242,0,0,1,2.88-.42q-.12,2.04-.12,6.54,0,4.92.12,6.96a10.981,10.981,0,0,1-2.76-.3q-.24-3.12-1.65-4.23t-5.13-1.11h-3.78V48.72a10.781,10.781,0,0,0,.42,3.45,2.7,2.7,0,0,0,1.59,1.65,9.524,9.524,0,0,0,3.45.48h.36a18.75,18.75,0,0,0,6.36-.84,6.76,6.76,0,0,0,3.27-2.34A18.8,18.8,0,0,0,454.38,46.74ZM493.2,18.42q0,2.4.42,7.44a6.4,6.4,0,0,1-3,.54,8.545,8.545,0,0,0-1.74-5.46q-1.62-1.86-5.04-1.86h-3.18v30.3a10.338,10.338,0,0,0,.36,3.15,2.45,2.45,0,0,0,1.35,1.5,8.819,8.819,0,0,0,2.97.57,8.216,8.216,0,0,1,.3,2.58Q481.8,57,477.78,57q-4.5,0-7.86.18a8.215,8.215,0,0,1,.3-2.58,9.134,9.134,0,0,0,3-.57,2.542,2.542,0,0,0,1.41-1.53,9.632,9.632,0,0,0,.39-3.12V19.08h-3.06a8.573,8.573,0,0,0-4.26.87,4.909,4.909,0,0,0-2.13,2.34,19.869,19.869,0,0,0-1.11,4.11,5.82,5.82,0,0,1-2.88-.54,55.54,55.54,0,0,0,.96-9.6q3.36.18,15.3.18,12.12,0,15.42-.18Z" transform="translate(591 124)" fill="#0cb1f2"/>
  </g>
</svg>
