<svg xmlns="http://www.w3.org/2000/svg" xmlns:xlink="http://www.w3.org/1999/xlink" width="1680" height="509" viewBox="0 0 1680 509">
  <defs>
    <clipPath id="clip-vollkorn_numbers">
      <rect width="1680" height="509"/>
    </clipPath>
  </defs>
  <g id="vollkorn_numbers" clip-path="url(#clip-vollkorn_numbers)">
    <path id="Path_584" data-name="Path 584" d="M36.36,16.44q3.24,0,5.7-.18a9.726,9.726,0,0,1-.3,2.58,2.817,2.817,0,0,0-2.13.78,5.051,5.051,0,0,0-1.08,2.61,30.624,30.624,0,0,0-.33,5.13V57a7.533,7.533,0,0,1-2.58.36L10.86,25.02V45.78a29.978,29.978,0,0,0,.36,5.34,4.705,4.705,0,0,0,1.26,2.67A3.635,3.635,0,0,0,15,54.6a8.566,8.566,0,0,1,.3,2.58Q12.6,57,9.36,57q-3.72,0-6,.18a8.566,8.566,0,0,1,.3-2.58,3.635,3.635,0,0,0,2.52-.81,4.705,4.705,0,0,0,1.26-2.67,29.978,29.978,0,0,0,.36-5.34V21l-.24-.3a5.028,5.028,0,0,0-1.59-1.38,6.841,6.841,0,0,0-2.31-.48,9.726,9.726,0,0,1-.3-2.58q1.8.18,4.44.18a37.389,37.389,0,0,0,4.02-.18L35.16,47.22V27.36a28.037,28.037,0,0,0-.36-5.16,4.477,4.477,0,0,0-1.26-2.58,3.726,3.726,0,0,0-2.52-.78,16.854,16.854,0,0,1-.3-2.58Q33.3,16.44,36.36,16.44ZM80.52,40.86a37.071,37.071,0,0,1-.72,8.34,10.245,10.245,0,0,1-2.7,4.92q-3.42,3.42-9.72,3.42-8.04,0-11.37-3.54T52.68,43.14V24.06a13.559,13.559,0,0,0-.27-3.18,2.228,2.228,0,0,0-.99-1.44,6.134,6.134,0,0,0-2.28-.6,9.726,9.726,0,0,1-.3-2.58q2.4.18,6.96.18,4.26,0,6.96-.18a9.726,9.726,0,0,1-.3,2.58,8.736,8.736,0,0,0-2.73.57,2.121,2.121,0,0,0-1.11,1.38,12.523,12.523,0,0,0-.3,3.27V42.3q0,5.64,2.31,8.85t7.89,3.21a11.223,11.223,0,0,0,3.45-.57,7.119,7.119,0,0,0,2.91-1.71,7.819,7.819,0,0,0,2.01-3.75,31.547,31.547,0,0,0,.57-6.99V26.46a25.308,25.308,0,0,0-.3-4.56,3.569,3.569,0,0,0-1.17-2.19,5.115,5.115,0,0,0-2.67-.87,13.45,13.45,0,0,1-.3-2.58q2.04.18,5.64.18,3.36,0,5.7-.18a15.858,15.858,0,0,1-.3,2.58,4.005,4.005,0,0,0-2.19.84,3.885,3.885,0,0,0-1.05,2.25,26.007,26.007,0,0,0-.3,4.53Zm61.56,13.68a9.588,9.588,0,0,1,.3,2.64q-2.76-.18-7.2-.18-4.26,0-7.32.18a8.556,8.556,0,0,1,.36-2.58,5.207,5.207,0,0,0,3.06-1.02,4.07,4.07,0,0,0,.78-2.88q0-1.2-.18-3l-2.16-20.58-12.42,30a6.455,6.455,0,0,1-2.46.42L100.86,27.18,98.94,46.44q-.18,1.8-.18,3.12,0,2.76.93,3.81a4.557,4.557,0,0,0,3.15,1.23,9.319,9.319,0,0,1,.3,2.58Q100.26,57,96.72,57t-6,.18a9.319,9.319,0,0,1,.3-2.58,5.3,5.3,0,0,0,2.58-.84,4.447,4.447,0,0,0,1.41-2.43,32.928,32.928,0,0,0,.87-5.43L97.8,24.54a13.657,13.657,0,0,0,.06-1.44,4.582,4.582,0,0,0-.96-3.3,4.284,4.284,0,0,0-3.12-.96,8.933,8.933,0,0,1-.3-2.58q1.8.18,4.56.18,2.22,0,4.56-.18l15,33.18,13.08-33.18q2.04.18,4.68.18,2.16,0,4.56-.18a10.156,10.156,0,0,1-.3,2.58,4.265,4.265,0,0,0-3.09,1.02,4.831,4.831,0,0,0-1.05,3.54,14.412,14.412,0,0,0,.06,1.5l2.16,22.02a25.7,25.7,0,0,0,.78,4.59,4.395,4.395,0,0,0,1.32,2.25A4.179,4.179,0,0,0,142.08,54.54ZM168.6,34.98q11.76.66,11.76,10.2a11.052,11.052,0,0,1-3.57,8.55Q173.22,57,165.96,57q-11.82,0-16.32.18a8.216,8.216,0,0,1,.3-2.58,6.355,6.355,0,0,0,2.55-.6,2.8,2.8,0,0,0,1.26-1.71,12.478,12.478,0,0,0,.39-3.57V24.06q0-3-.87-4.05A4.4,4.4,0,0,0,150,18.84a8.216,8.216,0,0,1-.3-2.58q2.4.18,6.24.18l4.32-.06q1.44-.06,4.26-.06,5.88,0,9.33,1.95t3.45,6.81a9.652,9.652,0,0,1-2.37,6.6A10.126,10.126,0,0,1,168.6,34.98Zm2.58-8.1q0-4.2-2.67-6.06a10.692,10.692,0,0,0-6.27-1.86,9.641,9.641,0,0,0-2.46.3V34.5h1.86Q171.18,34.5,171.18,26.88Zm-5.82,27.54q4.32,0,6.45-2.19a8.54,8.54,0,0,0,2.13-6.21q0-8.94-12.78-8.94h-1.38V48.72a11.067,11.067,0,0,0,.45,3.69A2.61,2.61,0,0,0,161.82,54,10.991,10.991,0,0,0,165.36,54.42Zm51.06-7.68a6.331,6.331,0,0,1,2.64,1.44,52.394,52.394,0,0,0-1.86,8.94Q212.52,57,204.36,57q-11.04,0-15.54.18a8.216,8.216,0,0,1,.3-2.58,6.355,6.355,0,0,0,2.55-.6,2.684,2.684,0,0,0,1.23-1.68,13.415,13.415,0,0,0,.36-3.6V24.06q0-3-.87-4.05a4.4,4.4,0,0,0-3.27-1.17,8.216,8.216,0,0,1-.3-2.58q3.54.18,10.08.18,10.92,0,16.86-.18a80.2,80.2,0,0,0,1.26,9.48,4.265,4.265,0,0,1-2.7.72,8.564,8.564,0,0,0-2.43-5.49q-2.13-2.13-7.41-2.13H198.9V35.28h3.78q3.78,0,5.19-.99t1.47-3.87a10.242,10.242,0,0,1,2.88-.42q-.12,2.04-.12,6.54,0,4.92.12,6.96a10.981,10.981,0,0,1-2.76-.3q-.24-3.12-1.65-4.23t-5.13-1.11H198.9V48.72a10.781,10.781,0,0,0,.42,3.45,2.7,2.7,0,0,0,1.59,1.65,9.524,9.524,0,0,0,3.45.48h.36a18.75,18.75,0,0,0,6.36-.84,6.76,6.76,0,0,0,3.27-2.34A18.8,18.8,0,0,0,216.42,46.74ZM254.7,48.6a26.841,26.841,0,0,0,2.34,3.48,5.9,5.9,0,0,0,2.25,1.68,10.835,10.835,0,0,0,3.51.66,10.161,10.161,0,0,1-.24,2.58,62.253,62.253,0,0,0-9.42.54q-2.28-3.66-4.02-7.08l-.72-1.32q-1.86-3.36-3.39-5.61a42.311,42.311,0,0,0-4.05-4.95l-1.86.06q-.9,0-2.34-.12V49.38q0,3,.81,4.05a4.1,4.1,0,0,0,3.15,1.17,8.566,8.566,0,0,1,.3,2.58q-2.58-.18-7.14-.18-4.5,0-7.2.18a8.933,8.933,0,0,1,.3-2.58q2.46-.12,3.3-1.17t.84-4.05V24.06q0-3-.87-4.11t-3.27-1.11a8.672,8.672,0,0,1-.3-2.52q2.4.12,7.2.12,3.3,0,4.98-.06l5.04-.06q6.48,0,9.78,2.79a9.089,9.089,0,0,1,3.3,7.29,9.72,9.72,0,0,1-2.67,6.84,14.744,14.744,0,0,1-7.41,4.08,34.55,34.55,0,0,1,3.54,4.35Q251.88,43.8,254.7,48.6ZM236.76,35.76a21.417,21.417,0,0,0,2.64.18,14.536,14.536,0,0,0,8.46-2.25A7.613,7.613,0,0,0,251.1,27a7.539,7.539,0,0,0-2.37-5.91q-2.37-2.13-7.53-2.13a21.527,21.527,0,0,0-4.44.48Zm45.66,21.78a19.486,19.486,0,0,1-6.24-.93,28.834,28.834,0,0,1-5.94-2.91,55.311,55.311,0,0,0,.54-8.52,12.928,12.928,0,0,1,3.24-.36q.24,4.8,2.43,7.32t6.81,2.52q3.9,0,5.79-1.71a5.814,5.814,0,0,0,1.89-4.53,6.467,6.467,0,0,0-1.2-3.96,10.144,10.144,0,0,0-2.94-2.67,52,52,0,0,0-4.86-2.49,57.449,57.449,0,0,1-5.76-3.12,12.476,12.476,0,0,1-3.69-3.69,10.27,10.27,0,0,1-1.53-5.79,10.052,10.052,0,0,1,3.24-7.92q3.24-2.88,8.82-2.88a20.977,20.977,0,0,1,5.64.75,14.924,14.924,0,0,1,4.38,1.89,62.937,62.937,0,0,0,.36,7.92,8.951,8.951,0,0,1-3.36.54q-.84-4.92-2.52-6.69a5.988,5.988,0,0,0-4.56-1.77,7.355,7.355,0,0,0-4.98,1.56,5.486,5.486,0,0,0-1.8,4.38,6.618,6.618,0,0,0,1.23,4.02,10.4,10.4,0,0,0,3,2.76q1.77,1.08,4.89,2.64a50.631,50.631,0,0,1,5.67,3.06,12.693,12.693,0,0,1,3.63,3.6,9.529,9.529,0,0,1,1.5,5.46,11.476,11.476,0,0,1-1.47,5.73,10.615,10.615,0,0,1-4.56,4.2A16.6,16.6,0,0,1,282.42,57.54Z" transform="translate(690 101)" fill="#fff"/>
    <g id="Group_132" data-name="Group 132">
      <path id="Path_583" data-name="Path 583" d="M0,0H1688V509H0Z" fill="none"/>
      <g id="Group_133" data-name="Group 133" transform="translate(10)">
        <path id="Path_585" data-name="Path 585" d="M14.34,49.38q0,2.94.87,4.02a4.328,4.328,0,0,0,3.27,1.2,9.319,9.319,0,0,1,.3,2.58Q15.3,57,11.64,57q-3.9,0-7.14.18a9.319,9.319,0,0,1,.3-2.58,4.379,4.379,0,0,0,3.21-1.2q.93-1.08.93-4.02V34.62q0-2.94-.84-4.02T4.8,29.4a10.613,10.613,0,0,1-.3-2.58q2.88.18,7.14.18t7.14-.18a10.613,10.613,0,0,1-.3,2.58,4.328,4.328,0,0,0-3.27,1.2q-.87,1.08-.87,4.02Zm2.4,66.92q5.22,0,8.22,2.88t3,8.1a13.687,13.687,0,0,1-1.71,6.9,12.473,12.473,0,0,1-10.95,6.36q-6.42,0-9.81-3.84T2.1,125.6q0-8.34,3.45-13.62a20.523,20.523,0,0,1,8.55-7.65,27.514,27.514,0,0,1,10.44-2.61,2.671,2.671,0,0,1,.45.75,3.217,3.217,0,0,1,.15,1.11q-7.62,1.56-11.7,5.16T8.28,119.42a24.574,24.574,0,0,1,4.47-2.4A11.112,11.112,0,0,1,16.74,116.3Zm-.9,21.36a5.75,5.75,0,0,0,5.07-2.49,9.777,9.777,0,0,0,1.71-5.67q0-5.16-2.61-7.41a8.883,8.883,0,0,0-5.97-2.25,10.139,10.139,0,0,0-2.91.42,13.37,13.37,0,0,0-3.15,1.5q-.12,2.28-.12,3.6a16.946,16.946,0,0,0,1.32,7.26,8.985,8.985,0,0,0,3.15,3.9A6.663,6.663,0,0,0,15.84,137.66Z" transform="translate(487 236)" fill="#fff"/>
        <path id="Path_586" data-name="Path 586" d="M27.66,48.36a35.532,35.532,0,0,0,.66,7.38,2.077,2.077,0,0,1-1.92,1.38Q18.72,57,14.82,57q-5.58,0-10.14.12a2.818,2.818,0,0,1-.63-1.05,5.213,5.213,0,0,1-.15-1.41q4.68-4.38,10.26-9.3a22.324,22.324,0,0,0,4.59-5.19,9.351,9.351,0,0,0,1.23-4.65,6.89,6.89,0,0,0-1.32-4.56,4.822,4.822,0,0,0-3.9-1.56,4.352,4.352,0,0,0-3.75,1.77q-1.29,1.77-1.95,6.57a9.45,9.45,0,0,1-3.24-.42A32.4,32.4,0,0,0,6,33.66a21.636,21.636,0,0,0-.3-4.14,15.286,15.286,0,0,1,4.41-2.1,19.336,19.336,0,0,1,5.67-.78,12.743,12.743,0,0,1,7.29,1.86q2.73,1.86,2.73,6.06a7.841,7.841,0,0,1-1.38,4.65,42.392,42.392,0,0,1-5.22,5.55L11.88,51.6h8.76a10.112,10.112,0,0,0,2.61-.24,1.726,1.726,0,0,0,1.14-.96,7.77,7.77,0,0,0,.45-2.46A7.909,7.909,0,0,1,27.66,48.36ZM8.94,150.56a2.565,2.565,0,0,1-1.74-2.64q0-5.28,3.42-13.11a188.964,188.964,0,0,1,10.2-19.35H11.46a10.085,10.085,0,0,0-2.79.3,3,3,0,0,0-1.62,1.2,8.786,8.786,0,0,0-1.11,2.76A5.873,5.873,0,0,1,2.88,119a47.549,47.549,0,0,0,1.14-9.18q3.12.18,10.68.18,7.44,0,10.92-.18a3.793,3.793,0,0,1,.9,2.28,139.485,139.485,0,0,0-8.28,14.1,41.952,41.952,0,0,0-3.72,9.93,54.178,54.178,0,0,0-.96,11.13,15.569,15.569,0,0,0-2.73,1.53A8.151,8.151,0,0,0,8.94,150.56Z" transform="translate(651 236)" fill="#fff"/>
        <path id="Path_587" data-name="Path 587" d="M11.76,67.26a16.267,16.267,0,0,1-5.1-.75A10.534,10.534,0,0,1,3,64.56a2.844,2.844,0,0,1,.84-1.98,8.725,8.725,0,0,0,2.88,1.17,19.208,19.208,0,0,0,4.74.51,11.35,11.35,0,0,0,4.8-1.11,9.844,9.844,0,0,0,3.93-3.24,8.459,8.459,0,0,0,1.53-5.07,8.015,8.015,0,0,0-2.25-5.88,8.661,8.661,0,0,0-6.45-2.28,4.008,4.008,0,0,0-1.92.42,4.132,4.132,0,0,1-.78-1.08,2.38,2.38,0,0,1-.3-1.02q6.84-8.7,10.02-13.2H12.72a10.033,10.033,0,0,0-2.82.3,3.057,3.057,0,0,0-1.59,1.17A10.157,10.157,0,0,0,7.08,36a3.776,3.776,0,0,1-2.46-.78,26.86,26.86,0,0,0,.54-3.78q.12-1.8.12-4.56,3.96.12,10.5.12,5.46,0,9.78-.12a2.737,2.737,0,0,1,.72,2.4q-4.32,5.16-10.2,12.84a10.879,10.879,0,0,1,5.7,1.2,10.73,10.73,0,0,1,4.35,4.11A12.469,12.469,0,0,1,27.78,54a11.909,11.909,0,0,1-1.95,6.57,13.83,13.83,0,0,1-5.61,4.86A18.678,18.678,0,0,1,11.76,67.26Zm7.14,51.5a27.876,27.876,0,0,1,6.48,5.64,9.879,9.879,0,0,1,2.1,6.24,8.717,8.717,0,0,1-3.39,7.23q-3.39,2.67-9.21,2.67-5.46,0-8.67-2.43A7.809,7.809,0,0,1,3,131.54a10.179,10.179,0,0,1,2.07-6.48,23.1,23.1,0,0,1,6.39-5.22,22.208,22.208,0,0,1-5.19-4.56,7.719,7.719,0,0,1-1.65-4.8,7.865,7.865,0,0,1,2.79-6.36,11.345,11.345,0,0,1,7.53-2.34,13.208,13.208,0,0,1,7.98,2.16,6.853,6.853,0,0,1,2.94,5.82A7.365,7.365,0,0,1,24,114.92,19.96,19.96,0,0,1,18.9,118.76Zm-8.64-9.3a6.07,6.07,0,0,0,1.26,3.84,16.71,16.71,0,0,0,4.38,3.54l.78.48a8.625,8.625,0,0,0,2.91-2.85,7.887,7.887,0,0,0,.87-3.93,6.558,6.558,0,0,0-1.41-4.41,4.753,4.753,0,0,0-3.81-1.65,4.905,4.905,0,0,0-3.63,1.35A4.905,4.905,0,0,0,10.26,109.46Zm5.4,28.38a6.1,6.1,0,0,0,4.47-1.62,5.858,5.858,0,0,0,1.65-4.38,8.145,8.145,0,0,0-1.95-5.31,29.651,29.651,0,0,0-6.21-5.25,13.959,13.959,0,0,0-4.11,4.29,11.632,11.632,0,0,0-1.11,5.49,6.411,6.411,0,0,0,1.98,4.95A7.472,7.472,0,0,0,15.66,137.84Z" transform="translate(817 236)" fill="#fff"/>
        <path id="Path_588" data-name="Path 588" d="M32.82,52.8a10.955,10.955,0,0,0-.75,2.1,8.593,8.593,0,0,0-.33,2.1H25.86v9.12a13.211,13.211,0,0,0-2.88.45,6.977,6.977,0,0,0-2.1.69,2.689,2.689,0,0,1-.66-1.98V57H19.8q-5.82,0-16.02.36a4.278,4.278,0,0,1-.75-1.05,2.642,2.642,0,0,1-.33-1.23L23.16,26.64a6.668,6.668,0,0,1,1.5.18,4.553,4.553,0,0,1,1.2.42V52.26h5.22A2.386,2.386,0,0,1,32.82,52.8Zm-12.6-.54V35.58L9.12,52.26Zm-4.44,57.38q6.78,0,10.02,3.99t3.24,11.85a21.36,21.36,0,0,1-3.81,12.69,27.483,27.483,0,0,1-9.3,8.37A30.3,30.3,0,0,1,5.4,150.2a2.7,2.7,0,0,1-.48-.96,5.049,5.049,0,0,1-.12-1.2,37.8,37.8,0,0,0,12.33-7.02,18.7,18.7,0,0,0,5.79-9.72,13.382,13.382,0,0,1-3.93,2.37,12.171,12.171,0,0,1-4.29.75,13.39,13.39,0,0,1-6.18-1.44,11.289,11.289,0,0,1-4.47-4.02,10.784,10.784,0,0,1-1.65-5.94,13.964,13.964,0,0,1,1.77-7.17,11.85,11.85,0,0,1,4.8-4.62A14.431,14.431,0,0,1,15.78,109.64Zm1.8,21a8.255,8.255,0,0,0,5.82-2.16q.12-1.68.12-2.58,0-6.96-2.28-10.29a7.227,7.227,0,0,0-6.3-3.33,6.086,6.086,0,0,0-4.98,2.52,9.6,9.6,0,0,0-1.98,6.12q0,5.58,2.85,7.65A11.176,11.176,0,0,0,17.58,130.64Z" transform="translate(981 236)" fill="#fff"/>
        <path id="Path_589" data-name="Path 589" d="M8.04,26.88q4.2.12,10.38.12,3.12,0,3.12-2.88a9.1,9.1,0,0,1,2.7-.3,58.388,58.388,0,0,0-.36,7.5q-.6,1.08-2.7,1.08-9.18,0-11.58.18L8.16,38.64q8.4,1.8,12.75,5.07a10.913,10.913,0,0,1,4.35,9.27,13.024,13.024,0,0,1-2.25,7.62,14.916,14.916,0,0,1-5.7,4.95,15.248,15.248,0,0,1-6.81,1.71,14.683,14.683,0,0,1-4.05-.54A7.418,7.418,0,0,1,3.6,65.34a3.114,3.114,0,0,1,.78-1.98,11.359,11.359,0,0,0,2.52.63,21.143,21.143,0,0,0,3.36.27,8.827,8.827,0,0,0,7.77-4.59,10.178,10.178,0,0,0,1.23-5.07,8.139,8.139,0,0,0-2.07-5.58,14.388,14.388,0,0,0-5.25-3.69A21.548,21.548,0,0,0,5.4,43.68a2.09,2.09,0,0,1-.75-.81,2.218,2.218,0,0,1-.27-1.05ZM33.66,124.7a16.128,16.128,0,0,1-2.1,8.28,14.811,14.811,0,0,1-5.64,5.58,15.473,15.473,0,0,1-7.68,1.98,16.1,16.1,0,0,1-7.83-1.98,15.277,15.277,0,0,1-5.82-5.58A15.612,15.612,0,0,1,2.4,124.7a14.154,14.154,0,0,1,2.28-8.04,15.012,15.012,0,0,1,5.91-5.22,17,17,0,0,1,7.65-1.8,16.448,16.448,0,0,1,7.56,1.8,14.31,14.31,0,0,1,5.7,5.22A14.737,14.737,0,0,1,33.66,124.7Zm-25.8-.84a14.217,14.217,0,0,0,1.47,6.15,13.361,13.361,0,0,0,4.2,5.1,10.3,10.3,0,0,0,6.27,2.01,6.863,6.863,0,0,0,6.18-3.15,14.354,14.354,0,0,0,2.04-7.95,14.55,14.55,0,0,0-1.41-6,13.993,13.993,0,0,0-4.02-5.22,9.428,9.428,0,0,0-6.09-2.1,7.406,7.406,0,0,0-6.36,3.15A13.318,13.318,0,0,0,7.86,123.86Z" transform="translate(1146 236)" fill="#fff"/>
      </g>
    </g>
  </g>
</svg>
