<svg xmlns="http://www.w3.org/2000/svg" xmlns:xlink="http://www.w3.org/1999/xlink" width="302" height="411" viewBox="0 0 302 411">
  <defs>
    <clipPath id="clip-Aileron2">
      <rect width="302" height="411"/>
    </clipPath>
  </defs>
  <g id="Aileron2" clip-path="url(#clip-Aileron2)">
    <g id="Group_79" data-name="Group 79" transform="translate(-17)">
      <g id="Group_73" data-name="Group 73" transform="translate(11061 4221)">
        <path id="Path_247" data-name="Path 247" d="M14.817,9.362a22.871,22.871,0,0,0-3.069-.132h-6.3L1.419,32H3.465l1.716-9.636H9.438a23.878,23.878,0,0,0,3.1-.132c3.762-.5,7.029-3.1,7.029-7.689C19.569,11.474,17.688,9.758,14.817,9.362ZM12.7,20.45a17.814,17.814,0,0,1-2.8.165H5.478l1.716-9.636h4.422a16.456,16.456,0,0,1,2.739.165,3.37,3.37,0,0,1,3,3.663A5.275,5.275,0,0,1,12.7,20.45Zm19.9,3.2L34.056,32h2.211L32.076,9.23H29.139L16.7,32h2.376l4.455-8.349Zm-.3-1.716H24.453L30.36,10.88ZM58.113,14.18c0-2.838-1.782-4.455-4.686-4.818a22.871,22.871,0,0,0-3.069-.132H43.626L39.6,32h2.046l1.815-10.3h4.686c.528,0,1.188,0,1.815.033,2.178.132,2.772,1.749,2.805,3.894A33.44,33.44,0,0,0,53.2,32h2.211a13.216,13.216,0,0,1-.594-4.719c-.033-4.62-.66-6.105-2.508-6.468A6.668,6.668,0,0,0,58.113,14.18ZM50.82,19.922c-.825.066-1.353.066-2.31.066H43.758l1.584-9.042h4.719a19.292,19.292,0,0,1,2.574.132c2.046.3,3.234,1.386,3.234,3.465A5.169,5.169,0,0,1,50.82,19.922Zm22.341,3.729L74.613,32h2.211L72.633,9.23H69.7L57.255,32h2.376l4.455-8.349Zm-.3-1.716H65.01L70.917,10.88ZM92.532,8.768c-7.26,0-13.1,6.138-13.1,14.322,0,5.544,3,9.372,8.382,9.372a9.4,9.4,0,0,0,7.194-3.1l1.254-2.079L95.436,32h1.848l1.881-10.659h-8.25l-.3,1.683h6.2a8.976,8.976,0,0,1-8.58,7.788c-3.96,0-6.5-3-6.5-7.986,0-7.326,4.851-12.408,10.395-12.408,4.059,0,6.006,1.914,6.006,5.907v.33h2.046l.033-.33C100.419,12,98.01,8.768,92.532,8.768ZM122,14.18c0-2.838-1.782-4.455-4.686-4.818a22.871,22.871,0,0,0-3.069-.132h-6.732L103.488,32h2.046l1.815-10.3h4.686c.528,0,1.188,0,1.815.033,2.178.132,2.772,1.749,2.805,3.894A33.44,33.44,0,0,0,117.084,32h2.211a13.216,13.216,0,0,1-.594-4.719c-.033-4.62-.66-6.105-2.508-6.468A6.668,6.668,0,0,0,122,14.18Zm-7.293,5.742c-.825.066-1.353.066-2.31.066h-4.752l1.584-9.042h4.719a19.292,19.292,0,0,1,2.574.132c2.046.3,3.234,1.386,3.234,3.465A5.169,5.169,0,0,1,114.708,19.922Zm22.341,3.729L138.5,32h2.211L136.521,9.23h-2.937L121.143,32h2.376l4.455-8.349Zm-.3-1.716H128.9L134.8,10.88ZM157.443,9.362a22.871,22.871,0,0,0-3.069-.132h-6.3L144.045,32h2.046l1.716-9.636h4.257a23.877,23.877,0,0,0,3.1-.132c3.762-.5,7.029-3.1,7.029-7.689C162.2,11.474,160.314,9.758,157.443,9.362ZM155.331,20.45a17.814,17.814,0,0,1-2.805.165H148.1l1.716-9.636h4.422a16.456,16.456,0,0,1,2.739.165,3.37,3.37,0,0,1,3,3.663A5.275,5.275,0,0,1,155.331,20.45ZM183.909,9.23h-2.046l-1.881,10.725H166.65L168.531,9.23h-2.046L162.459,32H164.5l1.815-10.3h13.332L177.837,32h2.046Z" transform="translate(-10960.757 -4072.923)" fill="#258abf"/>
        <path id="Path_238" data-name="Path 238" d="M7.4-14.08c-3.78,0-6.42,3-6.42,7.24C.98-2.64,3.34.28,7.12.28c3.52,0,5.32-2.12,5.68-4.66l.02-.2H11.58l-.04.2A4.14,4.14,0,0,1,7.2-.72C4.4-.72,2.36-3.06,2.36-6.9c0-3.76,2.14-6.18,4.98-6.18A4.08,4.08,0,0,1,11.6-9.5l.04.2h1.24l-.02-.2A5.052,5.052,0,0,0,7.4-14.08Zm18.96.28H25.12v6.5H17.04v-6.5H15.8V0h1.24V-6.24h8.08V0h1.24ZM37.1-5.06,38.9,0h1.34L35.26-13.8H33.6L28.5,0h1.32L31.6-5.06ZM31.96-6.1l2.44-6.7,2.34,6.7ZM51.08-3.68a3.552,3.552,0,0,0-1.9-3.18,3.246,3.246,0,0,0,2.6-3.28c0-2.2-1.36-3.32-3.4-3.58a14.318,14.318,0,0,0-1.88-.08H42.44V0h1.24V-6.24H46.5c.32,0,.72,0,1.08.02,1.48.08,2.08,1.22,2.26,2.68A12.732,12.732,0,0,0,50.62,0H52A8.581,8.581,0,0,1,51.08-3.68Zm-7.4-3.6v-5.48H46.5a12.015,12.015,0,0,1,1.58.08,2.422,2.422,0,0,1,2.36,2.64,2.547,2.547,0,0,1-2.52,2.72c-.46.04-.8.04-1.4.04ZM61.72-5.06,63.52,0h1.34L59.88-13.8H58.22L53.12,0h1.32l1.78-5.06ZM56.58-6.1l2.44-6.7,2.34,6.7ZM72.1-14.08c-3.78,0-6.42,3-6.42,7.24,0,4.2,2.36,7.12,6.14,7.12,3.52,0,5.32-2.12,5.68-4.66l.02-.2H76.28l-.04.2A4.14,4.14,0,0,1,71.9-.72c-2.8,0-4.84-2.34-4.84-6.18,0-3.76,2.14-6.18,4.98-6.18A4.08,4.08,0,0,1,76.3-9.5l.04.2h1.24l-.02-.2A5.052,5.052,0,0,0,72.1-14.08Zm18.24,1.3V-13.8H78.98v1.02h5.06V0h1.24V-12.78Zm10.9,11.76h-7.7V-6.38h6.98V-7.42H93.54v-5.36h7.5V-13.8H92.3V0h8.94Zm11.22-2.66a3.552,3.552,0,0,0-1.9-3.18,3.246,3.246,0,0,0,2.6-3.28c0-2.2-1.36-3.32-3.4-3.58a14.318,14.318,0,0,0-1.88-.08h-4.06V0h1.24V-6.24h2.82c.32,0,.72,0,1.08.02,1.48.08,2.08,1.22,2.26,2.68A12.731,12.731,0,0,0,112,0h1.38A8.581,8.581,0,0,1,112.46-3.68Zm-7.4-3.6v-5.48h2.82a12.015,12.015,0,0,1,1.58.08,2.422,2.422,0,0,1,2.36,2.64,2.547,2.547,0,0,1-2.52,2.72c-.46.04-.8.04-1.4.04Z" transform="translate(-10983.413 -3895.412)" fill="#2371aa"/>
        <path id="Path_250" data-name="Path 250" d="M15.8-35.2c-6.45,0-11.9,3.75-11.9,9.85,0,6,4.35,8.45,10.9,10,5.6,1.3,7.7,3.15,7.7,6.75,0,3.15-2.85,5.1-6.45,5.1A7.641,7.641,0,0,1,8.1-10H2.4C3.1-3.05,8.15.7,16.05.7,22.75.7,28.3-3.1,28.3-9.35c0-5.75-3.6-9-11.2-10.75-5.35-1.25-7.4-2.8-7.4-6.15C9.7-29.5,12.25-31,15.5-31c4,0,6.3,2.35,6.7,6.3h5.7C27.2-30.7,23.45-35.2,15.8-35.2Zm44.95,5.05V-34.5H31.2v4.35H43.25V0H48.7V-30.15ZM79.15-13.5l12.2-21h-6.1l-8.6,15.95L67.75-34.5H61.5l12.2,21V0h5.45ZM119.3-4.55H100.95V-34.5h-5.5V0H119.3Zm29.4.15H130.35V-15.1H146.8v-4.35H130.35v-10.7H148.2V-34.5H124.85V0H148.7Z" transform="translate(-10945.947 -4084.28)" fill="#24648d"/>
        <path id="Path_232" data-name="Path 232" d="M17.015-50.049H46.646V-57.27H7.885V0h9.13V-25.066H43.492v-7.221H17.015Zm62.748-8.383c-17.6,0-27.639,12.035-27.639,29.8,0,17.679,10.043,29.8,27.639,29.8,17.513,0,27.556-12.118,27.556-29.8C107.319-46.4,97.276-58.432,79.763-58.432Zm0,52.622c-11.205,0-17.845-8.632-17.845-22.825,0-14.276,6.64-22.825,17.845-22.825,11.122,0,17.762,8.549,17.762,22.825C97.525-14.442,90.885-5.81,79.763-5.81ZM165.5,0l-.083-57.27h-8.964v27.556c0,5.893.083,13.529.249,20L131.057-57.27H118.192V0h9.13V-27.39c0-5.893-.083-13.28-.332-19.837L152.388,0Zm57.436-50.049V-57.27H173.885v7.221h20V0h9.047V-50.049Z" transform="translate(-10964.758 -3811.343)" fill="#2d7198"/>
        <path id="Path_240" data-name="Path 240" d="M15.8-35.2c-6.45,0-11.9,3.75-11.9,9.85,0,6,4.35,8.45,10.9,10,5.6,1.3,7.7,3.15,7.7,6.75,0,3.15-2.85,5.1-6.45,5.1A7.641,7.641,0,0,1,8.1-10H2.4C3.1-3.05,8.15.7,16.05.7,22.75.7,28.3-3.1,28.3-9.35c0-5.75-3.6-9-11.2-10.75-5.35-1.25-7.4-2.8-7.4-6.15C9.7-29.5,12.25-31,15.5-31c4,0,6.3,2.35,6.7,6.3h5.7C27.2-30.7,23.45-35.2,15.8-35.2Zm45,.9a35.04,35.04,0,0,0-4.7-.2H44.8V0h5.5V-13.6h5.8a35.04,35.04,0,0,0,4.7-.2c5-.65,9.1-4.15,9.1-10.25S66.2-33.6,60.8-34.3ZM59.75-18.25a22.76,22.76,0,0,1-3.5.2H50.3v-12h5.95a22.76,22.76,0,0,1,3.5.2c2.4.45,4.35,2.15,4.35,5.8S62.15-18.7,59.75-18.25Zm44.1,6.85L107.6,0h5.95L101.5-34.5H94.4L82,0h5.85L91.6-11.4Zm-10.8-4.35,4.8-14.2,4.55,14.2ZM142.9-35.2c-9.7,0-16.5,7.25-16.5,18.1C126.4-6.6,132.45.7,142.3.7c9,0,14.05-5.15,14.75-11.9l.05-.5h-5.45l-.1.5c-.95,4.65-3.8,7.7-9,7.7-6.1,0-10.2-5.3-10.2-13.85C132.35-25.5,136.4-31,142.8-31c5.2,0,8.05,2.95,9,7.6l.1.5h5.45l-.05-.5C156.6-30.2,151.9-35.2,142.9-35.2ZM198.25-4.4H179.9V-15.1h16.45v-4.35H179.9v-10.7h17.85V-34.5H174.4V0h23.85Z" transform="translate(-10961.757 -3927.167)" fill="#166183"/>
        <path id="Path_256" data-name="Path 256" d="M25.865-24.15h-2.03L14.665-1.155,5.565-24.15H3.395V0h1.33V-13.615c0-3.045,0-6.44-.07-9.38,1.085,2.905,2.45,6.37,3.64,9.345L13.79,0h1.68l5.495-13.615c1.225-3.01,2.555-6.475,3.64-9.415-.07,2.94-.035,6.37-.035,9.415V0h1.3ZM44.765-9.2,48.23,0h1.435l-9.1-24.15h-1.75L29.61,0h1.435L34.44-9.2ZM34.9-10.36l4.76-12.7,4.69,12.7ZM67.97-6.545c-.28-2.66-1.4-4.83-3.535-5.565a5.737,5.737,0,0,0,4.795-5.845c0-3.6-2.2-5.565-5.88-6.02a26.542,26.542,0,0,0-3.4-.175h-6.37V0h1.33V-11.48H60.27c.56,0,1.365,0,2.1.035,2.8.14,3.955,2.45,4.27,5.11A23.684,23.684,0,0,0,68.075,0H69.58A17.719,17.719,0,0,1,67.97-6.545Zm-13.055-6.09V-23h5.04a20.6,20.6,0,0,1,3.08.175c3.045.385,4.76,1.96,4.76,4.97A4.952,4.952,0,0,1,62.86-12.7c-1.015.07-1.61.07-2.555.07Zm29.12,1.645v1.155H91.56c0,6.65-4.725,9.17-8.435,9.17-5.18,0-9.31-3.885-9.31-11.41,0-7.245,4.55-11.41,9.73-11.41a7.778,7.778,0,0,1,8.085,6.65l.07.35h1.33l-.07-.35c-.77-4.41-3.78-7.8-9.275-7.8-6.545,0-11.34,5.145-11.34,12.635,0,7.665,4.34,12.5,10.675,12.5a8.964,8.964,0,0,0,7.84-4.1l.805-2.24V0H92.89V-10.99ZM99.75,0V-24.15H98.42V0Zm23.03,0-.035-24.15h-1.3v12.845c0,3.15,0,6.9.07,10.045L107.73-24.15H105.7V0h1.33V-12.88c0-3.15,0-6.86-.07-10.01L120.715,0Z" transform="translate(-10946.025 -4140)" fill="#225576"/>
        <path id="Path_258" data-name="Path 258" d="M20.68-37.84c-1.54-.11-2.42-.11-4.235-.11H5.335V0H16.39a36.459,36.459,0,0,0,4.84-.22c6-.715,14.465-6.16,14.465-18.975C35.695-32.12,27.225-37.235,20.68-37.84Zm.275,35.75a31.9,31.9,0,0,1-4.675.275H7.425v-34.32H16.39a28.517,28.517,0,0,1,4.125.165c6.1.66,12.87,5.72,12.87,16.775C33.385-8.415,27.06-2.86,20.955-2.09Zm46.2.275H45.21v-16.28H65.34v-1.76H45.21V-36.19H66.6v-1.76H43.12V0H67.155ZM84.92-38.72c-6.49,0-11.99,4.015-11.99,9.79,0,5.94,3.85,8.36,11.66,10.45,7.425,2.035,10.5,4.125,10.5,9.35,0,4.84-4.4,8.085-10.175,8.085-5.83,0-10.725-3.19-11.55-9.075h-2.2C72-2.8,77.77.77,84.865.77,92.015.77,97.35-3.575,97.35-9.46c0-6.05-3.9-8.855-11.88-11-7.15-1.98-10.285-3.685-10.285-8.8s4.95-7.645,9.57-7.645c5.225,0,9.02,3.245,9.845,8.855h2.2C96.085-33.935,92.18-38.72,84.92-38.72ZM107.415,0V-37.95h-2.09V0ZM132.55-17.27v1.815h11.825c0,10.45-7.425,14.41-13.255,14.41-8.14,0-14.63-6.1-14.63-17.93,0-11.385,7.15-17.93,15.29-17.93,7.26,0,11.495,4.455,12.705,10.45l.11.55h2.09l-.11-.55c-1.21-6.93-5.94-12.265-14.575-12.265-10.285,0-17.82,8.085-17.82,19.855C114.18-6.82,121,.77,130.955.77a14.086,14.086,0,0,0,12.32-6.435l1.265-3.52V0h1.925V-17.27ZM182,0l-.055-37.95H179.9v20.185c0,4.95,0,10.835.11,15.785l-21.67-35.97h-3.19V0h2.09V-20.24c0-4.95,0-10.78-.11-15.73L178.75,0Z" transform="translate(-10961.757 -4181)" fill="#5f88b1"/>
        <path id="Path_251" data-name="Path 251" d="M4.425,5.16,9,.21H6.54l-4.47,5v-5H0V10.56H2.07V7.3l.855-.93L6.12,10.56H8.79ZM20.04,8.925h-5.4V6.195h4.875V4.56H14.64V1.83h5.25V.21H12.57V10.56h7.47Zm11.6-.975a2.524,2.524,0,0,0-1.53-2.4A2.5,2.5,0,0,0,32.13,3.03c0-1.785-1.215-2.565-2.715-2.745a11.662,11.662,0,0,0-1.5-.075h-3.78V10.56h2.07V6.39h1.2c.27,0,.525,0,.81.015.84.06,1.26.735,1.4,1.845a9.1,9.1,0,0,0,.51,2.31h2.265A5.3,5.3,0,0,1,31.635,7.95Zm-5.43-3.105V1.83H27.72a6.766,6.766,0,0,1,.87.045,1.337,1.337,0,0,1,1.365,1.47A1.417,1.417,0,0,1,28.47,4.83c-.225.015-.48.015-.84.015ZM45.36,10.56,45.345.21H43.29V4.965c0,.885.015,2.145.075,3.255L39.015.21H36.27V10.56h2.07V5.88c0-.87-.015-2.055-.075-3.18l4.26,7.86Zm6.7,0V.21h-2.07V10.56Zm13.725,0L65.775.21H63.72V4.965c0,.885.015,2.145.075,3.255L59.445.21H56.7V10.56h2.07V5.88c0-.87-.015-2.055-.075-3.18l4.26,7.86Zm9.375-5.28V6.9h2.19a2.454,2.454,0,0,1-2.49,2.325c-1.62,0-2.82-1.32-2.82-3.9,0-2.355,1.2-3.78,2.88-3.78A2.266,2.266,0,0,1,77.34,3.57l.03.15h2.07l-.015-.15C79.215,1.53,77.76,0,74.955,0c-2.895,0-5.1,2.055-5.1,5.445,0,3.285,1.815,5.325,4.695,5.325a3.389,3.389,0,0,0,2.52-.84l.465-1.05.135,1.68h1.665V5.28Z" transform="translate(-10984.597 -4084.57) rotate(-90)" fill="#0099d1"/>
        <path id="Path_243" data-name="Path 243" d="M29.5,16.1V14.5H1.65v1.6H14.6V49h1.9V16.1ZM44.65,35,56.9,14.5H54.7L43.8,33.1,32.7,14.5H30.5L42.75,35V49h1.9ZM75.2,14.75a37.917,37.917,0,0,0-4.85-.25h-8.4V49h1.9V33.9h6.5a38.145,38.145,0,0,0,4.85-.2c4.75-.65,8.5-3.7,8.5-9.7C83.7,18.15,80.05,15.35,75.2,14.75ZM75,32a31.99,31.99,0,0,1-4.55.25h-6.6V16.2h6.6a31.99,31.99,0,0,1,4.55.25c3.75.5,6.65,2.7,6.65,7.55C81.65,29.1,78.75,31.45,75,32Zm35.8,15.35H90.85V32.55h18.3v-1.6H90.85V16.1H110.3V14.5H88.95V49H110.8Z" transform="translate(-10984.104 -4032.567)" fill="#094c84"/>
        <path id="Path_233" data-name="Path 233" d="M36.978,9.009V.819H0v8.19H13.19V41.184h10.6V9.009ZM62.12,25.74,76.429.819h-11.6L57.116,16.789,49.108.819H37.213L51.522,25.74V41.184h10.6ZM101.807,1.111A54,54,0,0,0,95.448.819H80.138V41.184h10.6V27.027h4.711a54,54,0,0,0,6.359-.293c5.888-.7,11.246-4.855,11.246-12.811S107.7,1.813,101.807,1.111ZM97.685,18.778c-.765.058-1.708.058-2.826.058H90.737V9.009h4.122c1.119,0,2.061,0,2.826.058,2.709.234,4.3,1.814,4.3,4.856S100.394,18.544,97.685,18.778ZM137.313,0c-12.66,0-20.785,8.014-20.785,21,0,12.929,8.126,21,20.785,21S158.1,33.93,158.1,21C158.1,8.014,149.972,0,137.313,0Zm0,34.281c-6.124,0-9.951-4.739-9.951-13.28,0-8.6,3.827-13.279,9.951-13.279S147.264,12.4,147.264,21C147.264,29.542,143.437,34.281,137.313,34.281ZM183.83,19.656v8.19h7.89c-1.472,4.446-4.181,6.435-8.3,6.435-5,0-9.421-3.451-9.421-13.631,0-8.716,4.3-12.929,9.48-12.929,4.3,0,6.948,2.048,7.831,6.377l.118.585h10.6l-.059-.585C201.141,6.142,195.194,0,183.594,0c-11.129,0-20.668,7.254-20.668,21.294,0,13.572,7.6,20.709,18.43,20.709,4.3,0,7.066-.644,9.362-2.574l1.766-4.446,1,6.2h8.243V19.656Zm57,11.7c-.589-4.855-2.12-7.956-6.359-9.477,5.417-1.579,8.185-4.972,8.185-10.062,0-7.137-5.123-10-11.011-10.705a54,54,0,0,0-6.359-.293H209.149V41.184h10.6V25.857H222.1c1.178,0,2.179,0,3.356.058,2.709.176,4.475,2.75,5,7.2a40.052,40.052,0,0,0,1.884,8.073h11.541C242.3,38.785,241.357,35.919,240.827,31.356Zm-21.08-13.1V9.009h4.122c1.119,0,2.061,0,2.826.058,2.709.234,4.887,1.17,4.887,4.563s-2.473,4.329-5.182,4.563c-.765.059-1.708.059-2.826.059Zm52.4,12.46,3.415,10.472h11.541L272.447.819H259.493L244.831,41.184h11.246l3.415-10.472Zm-6.3-20.592,3.768,12.4h-7.537ZM312.6,1.111a54,54,0,0,0-6.359-.293H290.936V41.184h10.6V27.027h4.711a54,54,0,0,0,6.359-.293c5.888-.7,11.246-4.855,11.246-12.811S318.493,1.813,312.6,1.111Zm-4.122,17.667c-.765.058-1.708.058-2.826.058h-4.122V9.009h4.122c1.119,0,2.061,0,2.826.058,2.709.234,4.3,1.814,4.3,4.856S311.191,18.544,308.483,18.778ZM366.3.819h-10.6v16.5H339.455V.819h-10.6V41.184h10.6V25.506h16.251V41.184h10.6ZM395.216,25.74,409.524.819h-11.6l-7.714,15.971L382.2.819H370.309L384.617,25.74V41.184h10.6Z" transform="translate(-11001.816 -4221.181) rotate(90)" fill="#094c84"/>
      </g>
    </g>
  </g>
</svg>
