<svg id="Layer_1" data-name="Layer 1" xmlns="http://www.w3.org/2000/svg" viewBox="0 0 251.91 384.17"><title>Aileron</title><g id="Group_144" data-name="Group 144"><path id="Path_247" data-name="Path 247" d="M59.87,147.28a21.43,21.43,0,0,0-2.89-.13H51.05l-3.78,21.43h1.92l1.61-9.07h4a23.77,23.77,0,0,0,2.92-.12c3.54-.47,6.61-2.92,6.61-7.24C64.34,149.27,62.57,147.65,59.87,147.28Zm-2,10.43a17.83,17.83,0,0,1-2.64.16H51.08l1.62-9.07h4.16a16,16,0,0,1,2.58.15,3.17,3.17,0,0,1,2.82,3.45A5,5,0,0,1,57.88,157.71Zm18.72,3L78,168.58h2.08l-3.94-21.43H73.35l-11.7,21.42h2.23l4.19-7.85Zm-.27-1.61H68.94l5.55-10.4Zm24.27-7.3c0-2.67-1.67-4.19-4.41-4.54a23,23,0,0,0-2.88-.12H87l-3.78,21.43h1.92l1.71-9.69h4.41c.5,0,1.12,0,1.71,0,2,.12,2.6,1.65,2.64,3.66a30.89,30.89,0,0,0,.4,6h2.08a12.17,12.17,0,0,1-.56-4.44c0-4.35-.62-5.75-2.36-6.09a6.27,6.27,0,0,0,5.46-6.24Zm-6.86,5.4c-.77.06-1.27.06-2.17.06H87.1l1.49-8.51H93a17.76,17.76,0,0,1,2.42.13c1.93.28,3,1.3,3,3.26a4.85,4.85,0,0,1-4.65,5.06h-.1Zm21,3.51,1.37,7.86h2.08l-3.95-21.43H111.5L99.8,168.58H102l4.19-7.86Zm-.28-1.61h-7.39l5.56-10.4ZM133,146.72c-6.83,0-12.32,5.77-12.32,13.47,0,5.22,2.82,8.82,7.88,8.82a8.83,8.83,0,0,0,6.77-2.92l1.18-2-.78,4.44h1.75l1.77-10h-7.77l-.28,1.58H137a8.45,8.45,0,0,1-8.07,7.33c-3.73,0-6.12-2.83-6.12-7.51,0-6.9,4.56-11.68,9.78-11.68,3.82,0,5.65,1.8,5.65,5.56v.31h1.93l0-.31c.19-4.07-2.08-7.11-7.23-7.11Zm27.73,5.09c0-2.67-1.68-4.19-4.41-4.53a21.43,21.43,0,0,0-2.89-.13h-6.33l-3.79,21.43h1.93l1.71-9.69h4.4c.5,0,1.12,0,1.71,0,2.05.12,2.61,1.65,2.64,3.66a31.69,31.69,0,0,0,.4,6h2.08a12.62,12.62,0,0,1-.56-4.44c0-4.35-.62-5.75-2.36-6.09a6.27,6.27,0,0,0,5.47-6.24Zm-6.86,5.4a21.46,21.46,0,0,1-2.18.07H147.2l1.49-8.51h4.44a19.52,19.52,0,0,1,2.42.12c1.93.28,3,1.3,3,3.26a4.86,4.86,0,0,1-4.66,5.06Zm21,3.51,1.37,7.86h2.08l-3.94-21.43h-2.76l-11.7,21.42h2.23l4.19-7.85Zm-.27-1.61H167.2l5.55-10.4Zm19.46-11.83a21.28,21.28,0,0,0-2.88-.13h-5.93l-3.79,21.43h1.92l1.62-9.07h4a23.77,23.77,0,0,0,2.92-.12c3.54-.47,6.61-2.92,6.61-7.24C198.53,149.27,196.76,147.65,194.05,147.28Zm-2,10.43a18,18,0,0,1-2.64.16h-4.16l1.61-9.07H191a15.89,15.89,0,0,1,2.58.15,3.17,3.17,0,0,1,2.83,3.45A5,5,0,0,1,192.07,157.71ZM219,147.15H217l-1.77,10.09H202.72l1.77-10.09h-1.93l-3.79,21.42h1.93l1.71-9.68H215l-1.7,9.69h1.92Z" style="fill:#258abf"/><path id="Path_238" data-name="Path 238" d="M53.36,291.28c-3.55,0-6,2.82-6,6.81s2.22,6.7,5.78,6.7a5,5,0,0,0,5.34-4.39l0-.18H57.29l0,.18a3.91,3.91,0,0,1-4.09,3.45c-2.63,0-4.55-2.2-4.55-5.82s2-5.81,4.68-5.81a3.82,3.82,0,0,1,4,3.37l0,.18h1.17l0-.18A4.76,4.76,0,0,0,53.36,291.28Zm17.84.26H70v6.12h-7.6v-6.12H61.26v13h1.17v-5.86H70v5.86H71.2Zm10.1,8.22,1.7,4.76h1.26l-4.69-13H78l-4.8,13h1.24l1.68-4.76Zm-4.84-1,2.3-6.3,2.2,6.3Zm18,2.28a3.36,3.36,0,0,0-1.79-3A3,3,0,0,0,95.12,295c0-2.07-1.28-3.12-3.2-3.37a13.1,13.1,0,0,0-1.77-.07H86.33v13h1.16v-5.86h2.66c.3,0,.67,0,1,0,1.39.07,2,1.14,2.13,2.52a11.89,11.89,0,0,0,.73,3.33h1.3A8.08,8.08,0,0,1,94.46,301.06Zm-7-3.39v-5.15h2.66a12.22,12.22,0,0,1,1.48.07,2.28,2.28,0,0,1,2.23,2.33.86.86,0,0,1,0,.16,2.4,2.4,0,0,1-2.23,2.55h-.14c-.43,0-.75,0-1.31,0Zm17,2.09,1.69,4.76h1.26l-4.68-13h-1.57l-4.79,13h1.24l1.67-4.76Zm-4.84-1,2.3-6.3,2.2,6.3Zm14.6-7.5c-3.56,0-6,2.82-6,6.81s2.22,6.7,5.78,6.7a5,5,0,0,0,5.34-4.39l0-.18h-1.17l0,.18a3.91,3.91,0,0,1-4.09,3.45c-2.63,0-4.55-2.2-4.55-5.82s2-5.81,4.68-5.81a3.82,3.82,0,0,1,4,3.37l0,.18h1.17l0-.18a4.76,4.76,0,0,0-5.14-4.31Zm17.16,1.22v-1H120.7v1h4.77v12h1.16v-12Zm10.26,11.06H134.4v-5H141v-1H134.4v-5h7.06v-1h-8.22v13h8.41Zm10.55-2.5a3.32,3.32,0,0,0-1.78-3,3,3,0,0,0,2.44-3.08c0-2.07-1.28-3.13-3.2-3.37a13.11,13.11,0,0,0-1.77-.08h-3.82v13h1.17v-5.86h2.66c.3,0,.67,0,1,0,1.39.07,2,1.14,2.13,2.52a11.89,11.89,0,0,0,.73,3.33h1.3a8.24,8.24,0,0,1-.87-3.47Zm-7-3.39v-5.15h2.66a12.22,12.22,0,0,1,1.48.07,2.28,2.28,0,0,1,2.23,2.33.86.86,0,0,1,0,.16,2.4,2.4,0,0,1-2.23,2.55h-.14c-.43,0-.75,0-1.32,0Z" style="fill:#2371aa"/><path id="Path_250" data-name="Path 250" d="M86.2,95C80.13,95,75,98.53,75,104.27s4.09,8,10.25,9.41c5.27,1.22,7.25,3,7.25,6.35,0,3-2.69,4.8-6.07,4.8A7.19,7.19,0,0,1,79,118.71H73.59c.66,6.54,5.41,10.07,12.84,10.07,6.3,0,11.53-3.58,11.53-9.46,0-5.41-3.39-8.46-10.54-10.11-5-1.18-7-2.63-7-5.79S82.86,99,85.91,99c3.77,0,5.93,2.22,6.3,5.93h5.37C96.92,99.24,93.39,95,86.2,95Zm42.29,4.75V95.66h-27.8v4.09H112v28.37h5.13V99.75Zm17.31,15.67,11.47-19.76h-5.73l-8.1,15-8.37-15h-5.88l11.48,19.76v12.7h5.13Zm37.77,8.42H166.31V95.66h-5.18v32.46h22.44Zm27.66.14H194V113.91h15.47v-4.09H194V99.75h16.79V95.66h-22v32.46h22.44Z" style="fill:#24648d"/><path id="Path_232" data-name="Path 232" d="M58.18,336H86.05v-6.8H49.59v53.88h8.59V359.5H83.09v-6.79H58.18Zm59-7.89c-16.56,0-26,11.32-26,28s9.45,28,26,28,25.92-11.4,25.92-28S133.69,328.11,117.21,328.11Zm0,49.51c-10.54,0-16.79-8.13-16.79-21.48s6.25-21.47,16.79-21.47,16.71,8,16.71,21.47S127.67,377.62,117.21,377.62Zm80.66,5.46-.07-53.88h-8.44v25.93c0,5.54.08,12.72.24,18.82L165.47,329.2h-12.1v53.88H162V357.31c0-5.54-.08-12.49-.31-18.66l23.89,44.43Zm54-47.08v-6.8H205.76V336h18.82v47.08h8.51V336Z" style="fill:#2d7198"/><path id="Path_240" data-name="Path 240" d="M59.85,241.77c-6.06,0-11.2,3.53-11.2,9.27s4.1,8,10.26,9.41c5.27,1.22,7.24,3,7.24,6.35,0,3-2.68,4.8-6.06,4.8a7.18,7.18,0,0,1-7.48-6.12H47.25c.66,6.54,5.41,10.07,12.84,10.07,6.3,0,11.52-3.58,11.52-9.46,0-5.41-3.38-8.47-10.53-10.11-5-1.18-7-2.64-7-5.79s2.4-4.47,5.46-4.47c3.76,0,5.93,2.21,6.3,5.93h5.37C70.58,246,67.05,241.77,59.85,241.77Zm42.34.85a32.62,32.62,0,0,0-4.42-.19H87.14v32.46h5.17v-12.8h5.46a34.4,34.4,0,0,0,4.42-.19c4.7-.61,8.56-3.9,8.56-9.64S107.27,243.28,102.19,242.62Zm-1,15.1a21.29,21.29,0,0,1-3.29.19h-5.6V246.62h5.6a21.28,21.28,0,0,1,3.29.18c2.26.43,4.1,2,4.1,5.46S103.46,257.29,101.2,257.72Zm41.49,6.44,3.53,10.73h5.6l-11.34-32.46H133.8l-11.66,32.46h5.5l3.52-10.73Zm-10.16-4.09,4.52-13.36,4.28,13.36Zm46.9-18.3c-9.12,0-15.52,6.82-15.52,17,0,9.88,5.69,16.75,15,16.75,8.46,0,13.22-4.85,13.87-11.2l0-.47h-5.13l-.09.47c-.89,4.37-3.57,7.24-8.47,7.24-5.73,0-9.6-5-9.6-13,0-7.67,3.81-12.84,9.84-12.84,4.89,0,7.57,2.77,8.46,7.15l.1.47H193l0-.47c-.66-6.4-5.08-11.1-13.55-11.1Zm52.08,29H214.24V260.68h15.48v-4.09H214.24V246.52H231v-4.09h-22v32.46h22.44Z" style="fill:#166183"/><path id="Path_256" data-name="Path 256" d="M98.49,53.66H96.58L88,75.29,79.39,53.66h-2V76.38H78.6V63.57c0-2.87,0-6.06-.07-8.83,1,2.74,2.31,6,3.42,8.79l5.17,12.85H88.7l5.17-12.81c1.16-2.83,2.4-6.09,3.43-8.86-.07,2.77,0,6,0,8.86V76.38h1.21Zm17.78,14.06,3.26,8.66h1.35l-8.56-22.72h-1.65L102,76.38h1.35l3.2-8.66ZM107,66.63l4.48-11.95,4.41,11.95Zm31.12,3.59c-.26-2.5-1.32-4.55-3.32-5.24a5.41,5.41,0,0,0,4.51-5.5c0-3.39-2.08-5.23-5.54-5.66a26.12,26.12,0,0,0-3.19-.17h-6V76.38h1.25V65.58h5c.53,0,1.29,0,2,0,2.63.13,3.72,2.3,4,4.81a21.84,21.84,0,0,0,1.35,6h1.41A16.85,16.85,0,0,1,138.1,70.22Zm-12.28-5.73V54.74h4.74a18.74,18.74,0,0,1,2.9.17c2.87.36,4.48,1.84,4.48,4.67a4.66,4.66,0,0,1-4.48,4.84h-.16c-1,.07-1.52.07-2.4.07ZM153.22,66v1.08h7.08c0,6.26-4.45,8.63-7.94,8.63-4.87,0-8.76-3.65-8.76-10.73,0-6.82,4.29-10.74,9.16-10.74a7.31,7.31,0,0,1,7.6,6.25l.07.33h1.25l-.07-.33c-.72-4.14-3.55-7.34-8.72-7.34-6.16,0-10.67,4.84-10.67,11.89,0,7.21,4.08,11.75,10,11.75A8.41,8.41,0,0,0,159.64,73l.75-2.1v5.5h1.16V66ZM168,76.38V53.66h-1.25V76.38Zm21.67,0,0-22.72h-1.21V65.74c0,3,0,6.49.06,9.45l-13-21.53H173.6V76.38h1.25V64.26c0-3,0-6.46-.06-9.42l12.93,21.54Z" style="fill:#225576"/><path id="Path_258" data-name="Path 258" d="M64.44,2.2c-1.44-.1-2.27-.1-4-.1H50V37.8h10.4A36.38,36.38,0,0,0,65,37.6c5.64-.68,13.61-5.8,13.61-17.86S70.6,2.77,64.44,2.2Zm.26,33.64a30.67,30.67,0,0,1-4.4.26H52V3.81h8.44A26.51,26.51,0,0,1,64.29,4C70,4.58,76.4,9.34,76.4,19.74,76.4,29.89,70.45,35.11,64.7,35.84Zm43.47.26H87.52V20.78h18.94V19.12H87.52V3.76h20.13V2.1H85.55V37.8h22.62ZM124.88,1.38c-6.1,0-11.28,3.77-11.28,9.21s3.63,7.86,11,9.83c7,1.91,9.89,3.88,9.89,8.8,0,4.55-4.14,7.6-9.58,7.6s-10.09-3-10.86-8.53H112c.77,6.87,6.21,10.24,12.88,10.24s11.75-4.09,11.75-9.63-3.68-8.33-11.18-10.35c-6.73-1.85-9.68-3.46-9.68-8.27s4.66-7.2,9-7.2c4.92,0,8.49,3.06,9.27,8.33h2.07C135.39,5.88,131.71,1.38,124.88,1.38ZM146.05,37.8V2.1h-2V37.8Zm23.64-16.24v1.7h11.13c0,9.83-7,13.56-12.47,13.56-7.66,0-13.77-5.74-13.77-16.87,0-10.71,6.73-16.87,14.39-16.87,6.83,0,10.81,4.19,11.95,9.83l.1.52h2l-.1-.52C181.75,6.4,177.3,1.38,169.17,1.38c-9.67,0-16.76,7.6-16.76,18.68,0,11.33,6.41,18.47,15.78,18.47a13.25,13.25,0,0,0,11.59-6.06L181,29.16V37.8h1.81V21.56ZM216.21,37.8l-.05-35.7h-1.91v19c0,4.65,0,10.19.1,14.85L194,2.1h-3V37.8h2v-19c0-4.66,0-10.14-.1-14.8L213.16,37.8Z" style="fill:#5f88b1"/><path id="Path_251" data-name="Path 251" d="M54,124.36l-4.65-4.3v2.31l4.7,4.21h-4.7v1.94H59.1v-1.94H56l-.87-.81,3.93-3v-2.52Zm3.55-14.69v5.08H55v-4.59H53.46v4.59H50.89v-4.94H49.37v6.89H59.1v-7Zm-.92-10.91a2.38,2.38,0,0,0-2.26,1.44A2.35,2.35,0,0,0,52,98.3a2.51,2.51,0,0,0-2.59,2.44v.11a11.09,11.09,0,0,0-.06,1.41v3.56H59.1v-1.95H55.18v-1.13c0-.25,0-.49,0-.76.06-.79.69-1.19,1.74-1.31a9,9,0,0,0,2.17-.48V98.06a5,5,0,0,1-2.45.7Zm-2.93,5.11H50.89v-1.42a5.56,5.56,0,0,1,0-.82,1.25,1.25,0,0,1,1.23-1.29h.15a1.33,1.33,0,0,1,1.4,1.27.29.29,0,0,1,0,.13c0,.21,0,.45,0,.79Zm5.38-18H49.37V87.8h4.47c.83,0,2,0,3.06-.07l-7.53,4.09V94.4H59.1v-2H54.7c-.82,0-1.93,0-3,.08l7.39-4Zm0-6.31H49.37v1.95H59.1Zm0-12.91H49.37v1.94h4.47c.83,0,2,0,3.06-.08l-7.53,4.1v2.58H59.1v-2H54.7c-.82,0-1.93,0-3,.07l7.39-4Zm-5-8.82h1.53V55.75a2.31,2.31,0,0,1,2.19,2.34c0,1.53-1.25,2.66-3.67,2.66-2.22,0-3.56-1.13-3.56-2.71a2.14,2.14,0,0,1,1.91-2.28l.14,0v-2h-.14c-1.92.2-3.36,1.57-3.36,4.21s1.93,4.8,5.12,4.8,5-1.71,5-4.42A3.2,3.2,0,0,0,58.51,56l-1-.44,1.58-.13V53.89h-5Z" style="fill:#0099d1"/><path id="Path_243" data-name="Path 243" d="M73.68,191.25v-1.51H47.48v1.51H59.67V222.2h1.78V191.25ZM87.93,209l11.53-19.29H97.39l-10.25,17.5-10.45-17.5H74.62L86.15,209V222.2h1.78ZM116.68,190a34.84,34.84,0,0,0-4.56-.24h-7.9V222.2H106V208h6.12a36.53,36.53,0,0,0,4.56-.19c4.47-.61,8-3.48,8-9.13C124.68,193.18,121.24,190.54,116.68,190Zm-.19,16.23a29.17,29.17,0,0,1-4.28.23H106v-15.1h6.21a30.63,30.63,0,0,1,4.28.24c3.53.47,6.26,2.54,6.26,7.1C122.75,203.48,120,205.69,116.49,206.21Zm33.68,14.44H131.4V206.73h17.22v-1.51H131.4v-14h18.3v-1.51H129.61V222.2h20.56Z" style="fill:#094c84"/><path id="Path_233" data-name="Path 233" d="M31,34.56h7.71V0H31V12.33H.77v9.91H31ZM15.3,58.06,38.75,71.44V60.6l-15-7.21,15-7.49V34.78L15.3,48.16H.77v9.91Zm23.17,37.1a51.24,51.24,0,0,0,.28-5.94V74.91H.77v9.9H14.09v4.4a51.41,51.41,0,0,0,.27,6c.66,5.5,4.57,10.51,12.06,10.51S37.81,100.66,38.47,95.16ZM21.85,91.31c-.06-.72-.06-1.6-.06-2.64V84.81H31v3.86c0,1,0,1.92-.05,2.64-.22,2.53-1.71,4-4.57,4S22.07,93.84,21.85,91.31Zm17.67,37c0-11.83-7.54-19.43-19.76-19.43S0,116.52,0,128.35s7.6,19.43,19.76,19.43S39.52,140.18,39.52,128.35Zm-32.26,0c0-5.73,4.46-9.3,12.5-9.3s12.49,3.58,12.49,9.3-4.4,9.3-12.49,9.3S7.26,134.07,7.26,128.35ZM21,171.83h-7.7v7.37c-4.19-1.38-6.06-3.91-6.06-7.76,0-4.68,3.25-8.81,12.83-8.81,8.2,0,12.16,4,12.16,8.86,0,4-1.93,6.5-6,7.33l-.55.11v9.9l.55-.05c7.49-.77,13.27-6.33,13.27-17.17,0-10.4-6.83-19.32-20-19.32C6.71,152.29,0,159.39,0,169.52c0,4,.6,6.6,2.42,8.75l4.18,1.65-5.83.93v7.71H21ZM10,225.1c4.56-.55,7.48-2,8.91-5.94,1.49,5.06,4.68,7.65,9.47,7.65,6.71,0,9.41-4.79,10.07-10.3a51.14,51.14,0,0,0,.28-5.94V195.49H.77v9.91H15.19v2.2c0,1.1,0,2-.06,3.14-.16,2.53-2.58,4.18-6.77,4.67a38.3,38.3,0,0,0-7.6,1.77V228C3,226.48,5.72,225.6,10,225.1Zm12.32-19.7H31v3.85c0,1.05,0,1.93-.05,2.64-.22,2.54-1.1,4.57-4.29,4.57s-4.08-2.31-4.3-4.84c0-.72,0-1.6,0-2.64Zm-11.72,49L.77,257.57v10.79l38-13.7V242.55l-38-13.7v10.51l9.85,3.19ZM30,248.49,18.33,252V245Zm8.48,43.71a51.42,51.42,0,0,0,.28-5.95V271.94H.77v9.91H14.09v4.4a51.24,51.24,0,0,0,.27,5.94c.66,5.5,4.57,10.51,12.06,10.51S37.81,297.7,38.47,292.2Zm-16.62-3.86c-.06-.71-.06-1.6-.06-2.64v-3.85H31v3.85c0,1.05,0,1.93-.05,2.64-.22,2.53-1.71,4-4.57,4S22.07,290.87,21.85,288.34Zm16.9,54.05v-9.91H23.23V317.29H38.75v-9.91H.77v9.91H15.52v15.19H.77v9.91Zm-23.45,27,23.45,13.38V371.94l-15-7.21,15-7.48V346.13L15.3,359.51H.77v9.9Z" style="fill:#094c84"/></g></svg>
