<svg xmlns="http://www.w3.org/2000/svg" xmlns:xlink="http://www.w3.org/1999/xlink" width="302" height="411" viewBox="0 0 302 411">
  <defs>
    <clipPath id="clip-Arvo2">
      <rect width="302" height="411"/>
    </clipPath>
  </defs>
  <g id="Arvo2" clip-path="url(#clip-Arvo2)">
    <g id="Group_70" data-name="Group 70" transform="translate(11439 3713)">
      <path id="Path_202" data-name="Path 202" d="M2.374,7.832H12.551a10.474,10.474,0,0,1,3.113.44,7.138,7.138,0,0,1,2.457,1.295,5.783,5.783,0,0,1,1.61,2.133,7.121,7.121,0,0,1,.573,2.938,6.114,6.114,0,0,1-.564,2.6,6.444,6.444,0,0,1-1.594,2.133,7.69,7.69,0,0,1-2.465,1.444,9.153,9.153,0,0,1-3.2.531H8.019v8.8h2.523V33H2.374V30.145H4.765V10.7H2.374ZM8.019,10.7v7.919h4.532a5.567,5.567,0,0,0,1.735-.257,3.882,3.882,0,0,0,1.361-.755,3.428,3.428,0,0,0,.9-1.245,4.309,4.309,0,0,0,.324-1.727,3.738,3.738,0,0,0-1.129-2.9,5.217,5.217,0,0,0-3.6-1.038Zm29.309,19.44h2.092l-1.992-5.711H27.749l-1.942,5.711H28.4V33H20.228V30.145h2.191L30.255,7.832h4.9l7.819,22.313H45.5V33H37.328Zm-8.633-8.467h7.77L32.546,10.422ZM49.056,7.832H59.531a10.414,10.414,0,0,1,3.1.44,7.138,7.138,0,0,1,2.457,1.295A5.864,5.864,0,0,1,66.7,11.7a7.033,7.033,0,0,1,.581,2.938,5.353,5.353,0,0,1-.34,1.868A6.473,6.473,0,0,1,66,18.216a7.2,7.2,0,0,1-1.436,1.4,6.569,6.569,0,0,1-1.81.946,3.78,3.78,0,0,1,.838.523,4.762,4.762,0,0,1,.8.83,6.759,6.759,0,0,1,.681,1.112,6.846,6.846,0,0,1,.49,1.336l1.395,5.479h2.175L69.16,33h-4.9l-1.876-7.653a6,6,0,0,0-1.569-3.03,4.087,4.087,0,0,0-2.88-.971H54.7v8.8h2.523V33H49.056V30.145h2.391V10.7H49.056ZM54.7,10.7v7.919h4.831a5.739,5.739,0,0,0,1.735-.249,3.781,3.781,0,0,0,1.361-.747,3.444,3.444,0,0,0,.9-1.237,4.249,4.249,0,0,0,.324-1.718,3.786,3.786,0,0,0-1.129-2.922A5.161,5.161,0,0,0,59.133,10.7Zm34.472,19.44h2.092l-1.992-5.711H79.593l-1.942,5.711h2.59V33H72.073V30.145h2.191L82.1,7.832H87l7.819,22.313H97.34V33H89.172Zm-8.633-8.467h7.77L84.391,10.422ZM120.324,33.1V28.053a8.551,8.551,0,0,1-1.577,2.283,8.781,8.781,0,0,1-2.108,1.6,10.1,10.1,0,0,1-2.482.946,11.5,11.5,0,0,1-2.681.315,12.2,12.2,0,0,1-4.532-.822,10.4,10.4,0,0,1-3.76-2.615,12.159,12.159,0,0,1-2.573-4.25,14.974,14.974,0,0,1-.888-5.13,14.468,14.468,0,0,1,.888-5.08,12.811,12.811,0,0,1,2.49-4.167,11.541,11.541,0,0,1,3.818-2.789,11.426,11.426,0,0,1,4.806-1.013,11.149,11.149,0,0,1,4.109.681,11.466,11.466,0,0,1,2.938,1.652,13.3,13.3,0,0,1,1.951,1.851h1.61v2.955h-3.569a8.336,8.336,0,0,0-2.947-2.988,8.227,8.227,0,0,0-7.612-.249,8.535,8.535,0,0,0-2.731,2.191,10.305,10.305,0,0,0-1.768,3.171,11.321,11.321,0,0,0-.631,3.785,11.772,11.772,0,0,0,.7,4.1,9.2,9.2,0,0,0,1.776,3.071,8.765,8.765,0,0,0,2.665,1.951,7.913,7.913,0,0,0,3.511.772,8.4,8.4,0,0,0,5.229-1.552,8.335,8.335,0,0,0,2.855-4.839H112.77V21.03h10.642V33.1Zm9.537-25.268h10.476a10.414,10.414,0,0,1,3.1.44,7.138,7.138,0,0,1,2.457,1.295,5.864,5.864,0,0,1,1.619,2.133,7.033,7.033,0,0,1,.581,2.938,5.353,5.353,0,0,1-.34,1.868,6.473,6.473,0,0,1-.946,1.71,7.2,7.2,0,0,1-1.436,1.4,6.569,6.569,0,0,1-1.81.946,3.78,3.78,0,0,1,.838.523,4.762,4.762,0,0,1,.8.83,6.76,6.76,0,0,1,.681,1.112,6.846,6.846,0,0,1,.49,1.336l1.395,5.479h2.175L149.965,33h-4.9l-1.876-7.653a6,6,0,0,0-1.569-3.03,4.087,4.087,0,0,0-2.88-.971h-3.237v8.8h2.523V33h-8.168V30.145h2.391V10.7h-2.391Zm5.645,2.872v7.919h4.831a5.738,5.738,0,0,0,1.735-.249,3.781,3.781,0,0,0,1.361-.747,3.444,3.444,0,0,0,.9-1.237,4.249,4.249,0,0,0,.324-1.718,3.786,3.786,0,0,0-1.129-2.922,5.161,5.161,0,0,0-3.586-1.046Zm34.472,19.44h2.092l-1.992-5.711H160.4l-1.942,5.711h2.59V33h-8.168V30.145h2.191l7.836-22.312h4.9l7.819,22.313h2.523V33h-8.168Zm-8.633-8.467h7.77L165.2,10.422ZM181.705,7.832h10.177a10.474,10.474,0,0,1,3.113.44,7.138,7.138,0,0,1,2.457,1.295,5.783,5.783,0,0,1,1.61,2.133,7.121,7.121,0,0,1,.573,2.938,6.114,6.114,0,0,1-.564,2.6,6.444,6.444,0,0,1-1.594,2.133,7.69,7.69,0,0,1-2.465,1.444,9.153,9.153,0,0,1-3.2.531H187.35v8.8h2.523V33h-8.168V30.145H184.1V10.7h-2.391ZM187.35,10.7v7.919h4.532a5.567,5.567,0,0,0,1.735-.257,3.882,3.882,0,0,0,1.361-.755,3.428,3.428,0,0,0,.9-1.245,4.309,4.309,0,0,0,.324-1.727,3.738,3.738,0,0,0-1.129-2.9,5.217,5.217,0,0,0-3.6-1.038Zm34.173-2.872h8.168v2.855H227.3V30.145h2.391V33h-8.168V30.145h2.523V21.1h-14.56v9.048h2.523V33h-8.168V30.145h2.391V10.688h-2.391V7.832h8.168v2.855h-2.523v7.62h14.56v-7.62h-2.523Z" transform="translate(-11379 -3339)" fill="#258abf"/>
      <path id="Path_216" data-name="Path 216" d="M13.613-3.145a8.751,8.751,0,0,1-1.26,1.431A7.273,7.273,0,0,1,10.83-.649a7.681,7.681,0,0,1-1.8.664,8.991,8.991,0,0,1-2.08.229,6.054,6.054,0,0,1-2.476-.5A5.958,5.958,0,0,1,2.51-1.65a6.5,6.5,0,0,1-1.3-2.1A7.215,7.215,0,0,1,.732-6.4,9.4,9.4,0,0,1,1.021-8.74a8.935,8.935,0,0,1,.815-2.085,8.266,8.266,0,0,1,1.279-1.748A7.981,7.981,0,0,1,4.8-13.916a8.219,8.219,0,0,1,2.021-.859,8.511,8.511,0,0,1,2.29-.3,6.34,6.34,0,0,1,2.954.669,5.827,5.827,0,0,1,2.124,1.851h1.523l-.4,1.68h-2.7a3.639,3.639,0,0,0-.571-.918,3.584,3.584,0,0,0-.83-.718,4.053,4.053,0,0,0-1.06-.464,4.6,4.6,0,0,0-1.26-.166,5.456,5.456,0,0,0-2.383.522A5.944,5.944,0,0,0,4.619-11.2a6.6,6.6,0,0,0-1.25,2.095A7.176,7.176,0,0,0,2.92-6.562a5.548,5.548,0,0,0,.352,2.026A4.752,4.752,0,0,0,4.209-3a4.053,4.053,0,0,0,1.357.967A3.984,3.984,0,0,0,7.178-1.7a5.326,5.326,0,0,0,2.593-.61,5.806,5.806,0,0,0,1.968-1.831ZM28.75-14.8h4.8l-.4,1.689H31.816L29.2-1.68h1.455L30.273,0h-4.8l.381-1.68h1.309L28.389-7H20.02L18.8-1.68h1.455L19.873,0h-4.8l.381-1.68h1.309l2.637-11.436H17.949l.4-1.689h4.8l-.4,1.689H21.416L20.391-8.643H28.77l1.025-4.473H28.35ZM42.188-1.68h1.24l-.361-3.34H37.461L35.6-1.68h1.328L36.553,0h-4.8l.381-1.68h1.279L40.83-14.8h3.154L45.527-1.68h1.465L46.611,0h-4.8ZM38.4-6.7h4.482l-.732-6.719ZM51.445-14.8h6.025a4.46,4.46,0,0,1,1.543.254,3.468,3.468,0,0,1,1.187.713,3.144,3.144,0,0,1,.762,1.1,3.584,3.584,0,0,1,.269,1.4,3.883,3.883,0,0,1-.269,1.46,4.167,4.167,0,0,1-.723,1.191,4.673,4.673,0,0,1-1.055.9A5.658,5.658,0,0,1,57.92-7.2a2.107,2.107,0,0,1,.645.82,3.156,3.156,0,0,1,.283,1.3l.059,3.4h1.26L59.785,0H56.924l-.059-4.5a2.592,2.592,0,0,0-.557-1.787,2.134,2.134,0,0,0-1.621-.566H53.1L51.914-1.68h1.455L52.988,0h-4.8l.381-1.68h1.309L52.51-13.115H51.045Zm3.086,1.689L53.477-8.5h2.314a5.219,5.219,0,0,0,1.353-.166,3.045,3.045,0,0,0,1.069-.508,2.381,2.381,0,0,0,.7-.859,2.719,2.719,0,0,0,.254-1.211A2.045,2.045,0,0,0,59.033-12a1.51,1.51,0,0,0-.425-.6,2.006,2.006,0,0,0-.732-.386,3.587,3.587,0,0,0-1.05-.137ZM70.469-1.68h1.24l-.361-3.34H65.742L63.877-1.68h1.328L64.834,0h-4.8l.381-1.68h1.279L69.111-14.8h3.154L73.809-1.68h1.465L74.893,0h-4.8ZM66.68-6.7h4.482l-.732-6.719ZM89.346-3.145a8.751,8.751,0,0,1-1.26,1.431A7.274,7.274,0,0,1,86.563-.649a7.681,7.681,0,0,1-1.8.664,8.991,8.991,0,0,1-2.08.229,6.054,6.054,0,0,1-2.476-.5A5.958,5.958,0,0,1,78.242-1.65a6.5,6.5,0,0,1-1.3-2.1A7.215,7.215,0,0,1,76.465-6.4a9.4,9.4,0,0,1,.288-2.344,8.935,8.935,0,0,1,.815-2.085,8.266,8.266,0,0,1,1.279-1.748,7.981,7.981,0,0,1,1.685-1.343,8.219,8.219,0,0,1,2.021-.859,8.511,8.511,0,0,1,2.29-.3,6.34,6.34,0,0,1,2.954.669,5.827,5.827,0,0,1,2.124,1.851h1.523l-.4,1.68h-2.7a3.639,3.639,0,0,0-.571-.918,3.584,3.584,0,0,0-.83-.718,4.053,4.053,0,0,0-1.06-.464,4.6,4.6,0,0,0-1.26-.166,5.456,5.456,0,0,0-2.383.522A5.944,5.944,0,0,0,80.352-11.2,6.6,6.6,0,0,0,79.1-9.106a7.176,7.176,0,0,0-.449,2.544A5.548,5.548,0,0,0,79-4.536,4.752,4.752,0,0,0,79.941-3a4.053,4.053,0,0,0,1.357.967A3.984,3.984,0,0,0,82.91-1.7,5.326,5.326,0,0,0,85.5-2.31a5.806,5.806,0,0,0,1.968-1.831ZM93.467-1.68h1.367L97.49-13.2H93.906l-.518,2.3h-2l.9-3.906h13.2L104.58-10.9h-1.992l.518-2.3H99.512L96.875-1.68h1.387L97.881,0H93.086ZM107.383-14.8h10.742l-.977,4.229h-2.021l.6-2.539h-5.273l-1.084,4.736h4.355L113.3-6.7h-4.316l-1.152,5.02h5.215l.6-2.559h2.041L114.707,0H104.1l.381-1.68h1.309l2.637-11.436h-1.445Zm13.8,0h6.025a4.46,4.46,0,0,1,1.543.254,3.468,3.468,0,0,1,1.187.713,3.144,3.144,0,0,1,.762,1.1,3.584,3.584,0,0,1,.269,1.4,3.883,3.883,0,0,1-.269,1.46,4.167,4.167,0,0,1-.723,1.191,4.673,4.673,0,0,1-1.055.9,5.658,5.658,0,0,1-1.265.591,2.107,2.107,0,0,1,.645.82,3.156,3.156,0,0,1,.283,1.3l.059,3.4h1.26L129.521,0H126.66L126.6-4.5a2.592,2.592,0,0,0-.557-1.787,2.134,2.134,0,0,0-1.621-.566h-1.592L121.65-1.68h1.455L122.725,0h-4.8l.381-1.68h1.309l2.637-11.436h-1.465Zm3.086,1.689L123.213-8.5h2.314a5.219,5.219,0,0,0,1.353-.166,3.045,3.045,0,0,0,1.069-.508,2.381,2.381,0,0,0,.7-.859,2.719,2.719,0,0,0,.254-1.211A2.045,2.045,0,0,0,128.77-12a1.51,1.51,0,0,0-.425-.6,2.006,2.006,0,0,0-.732-.386,3.587,3.587,0,0,0-1.05-.137Z" transform="translate(-11371.5 -3423.5)" fill="#2371aa"/>
      <path id="Path_206" data-name="Path 206" d="M26.724-34.563a5.307,5.307,0,0,0-.778-2.095,6.2,6.2,0,0,0-1.587-1.7,7.938,7.938,0,0,0-2.19-1.127,7.932,7.932,0,0,0-2.555-.413,9.546,9.546,0,0,0-2.253.254,5.6,5.6,0,0,0-1.825.778A3.883,3.883,0,0,0,14.3-37.515a3.979,3.979,0,0,0-.46,1.968,3.749,3.749,0,0,0,.619,2.269A4.9,4.9,0,0,0,16.044-31.9a9.44,9.44,0,0,0,2.142.857q1.174.317,2.285.7l8.728,2.92a13.952,13.952,0,0,1,3.4,1.746,11.656,11.656,0,0,1,2.745,2.7,12.826,12.826,0,0,1,1.825,3.65,15.033,15.033,0,0,1,.667,4.634,15.515,15.515,0,0,1-1.285,6.379,14.37,14.37,0,0,1-3.6,4.951A16.5,16.5,0,0,1,27.39-.159,21.432,21.432,0,0,1,20.217.984,21.331,21.331,0,0,1,15,.365a17.407,17.407,0,0,1-4.491-1.793A15.265,15.265,0,0,1,6.951-4.237a12.3,12.3,0,0,1-2.38-3.7H1.3v-9.553H12.791v1.968a7.33,7.33,0,0,0,.46,2.634,5.7,5.7,0,0,0,1.381,2.095A6.287,6.287,0,0,0,16.948-9.41a9.84,9.84,0,0,0,3.269.492,6.378,6.378,0,0,0,4.348-1.317A4.635,4.635,0,0,0,26.057-13.9a3.637,3.637,0,0,0-.524-2.015,4.734,4.734,0,0,0-1.349-1.365,8.841,8.841,0,0,0-1.841-.936q-1.016-.381-2-.7l-7.268-2.349a18.289,18.289,0,0,1-3.983-1.777A13.7,13.7,0,0,1,5.7-25.9a13.337,13.337,0,0,1-2.349-4.015,14.74,14.74,0,0,1-.873-5.253,14.114,14.114,0,0,1,1.27-6.11A12.716,12.716,0,0,1,7.3-45.8a15.89,15.89,0,0,1,5.427-2.793,23.665,23.665,0,0,1,6.887-.952,20.738,20.738,0,0,1,5.459.682,18.9,18.9,0,0,1,4.491,1.825,14.412,14.412,0,0,1,3.364,2.618,11.612,11.612,0,0,1,2.111,3.063h3.174v9.585H26.724ZM51.353-8.7h4.983V-39.7H50.5v6.221H40.149V-48.115H83.916v14.631H73.506V-39.7H66.873V-8.7h5.078V0h-20.6ZM86.392-48.115h20.6v8.728h-4.031L109.4-28.342l6.824-11.045h-4.6v-8.728h20.6v8.728h-3.555L114.353-19.963V-8.7h5.84V0H98.738V-8.7h5.332V-20.09l-13.457-19.3H86.392Zm50.845,0h20.6v8.728h-5.078V-8.7H163.23a1.556,1.556,0,0,0,.809-.238,2.581,2.581,0,0,0,.7-.619,3.624,3.624,0,0,0,.492-.825,2.171,2.171,0,0,0,.19-.857v-6.443H175.7V0H137.236V-8.7h4.983V-39.387h-4.983Zm42.72,0h38.276v16.409H207.886V-38.53H195.54v9.49h9.553v9.2H195.54V-8.7h12.346v-8.538h10.347V0H179.956V-8.7H185V-38.53h-5.046Z" transform="translate(-11373 -3349)" fill="#24648d"/>
      <path id="Path_217" data-name="Path 217" d="M3.311-44.414H37.676v15.146H28.154v-6.24H17.637v9.346h9.111v8.525H17.637v9.609h4.688V0H3.311V-8.027h4.6v-27.48h-4.6ZM61.084.791a20.111,20.111,0,0,1-5.771-.82,20.881,20.881,0,0,1-5.142-2.314,21.416,21.416,0,0,1-4.336-3.589,22.3,22.3,0,0,1-3.325-4.658,24.689,24.689,0,0,1-2.139-5.493,24.238,24.238,0,0,1-.762-6.123,24.409,24.409,0,0,1,.762-6.138,24.623,24.623,0,0,1,2.139-5.508,22.3,22.3,0,0,1,3.325-4.658A21.416,21.416,0,0,1,50.171-42.1a20.881,20.881,0,0,1,5.142-2.314,20.111,20.111,0,0,1,5.771-.82,20.261,20.261,0,0,1,5.786.82A20.819,20.819,0,0,1,72.026-42.1a21.416,21.416,0,0,1,4.336,3.589,22.732,22.732,0,0,1,3.34,4.658,24.2,24.2,0,0,1,2.153,5.508,24.409,24.409,0,0,1,.762,6.138,24.291,24.291,0,0,1-.762,6.108A24.2,24.2,0,0,1,79.7-10.591a22.732,22.732,0,0,1-3.34,4.658,21.416,21.416,0,0,1-4.336,3.589A20.819,20.819,0,0,1,66.87-.029,20.261,20.261,0,0,1,61.084.791Zm0-9.2a10.018,10.018,0,0,0,4.673-1.1A11.325,11.325,0,0,0,69.4-12.5a13.962,13.962,0,0,0,2.358-4.395,16.706,16.706,0,0,0,.835-5.317,16.668,16.668,0,0,0-.85-5.361,13.991,13.991,0,0,0-2.388-4.409,11.536,11.536,0,0,0-3.647-2.988,9.869,9.869,0,0,0-4.629-1.1,9.869,9.869,0,0,0-4.629,1.1,11.376,11.376,0,0,0-3.633,2.988,14.394,14.394,0,0,0-2.388,4.409,16.41,16.41,0,0,0-.864,5.361,16.189,16.189,0,0,0,.864,5.317A14.429,14.429,0,0,0,52.822-12.5a11.376,11.376,0,0,0,3.633,2.988A9.869,9.869,0,0,0,61.084-8.408Zm55.43-36.006h16.875v8.057h-3.6V0h-9.727L101.572-28.711V-8.027h3.721V0H88.447V-8.027h3.662v-28.33h-3.6v-8.057h13.418l18.369,29.092V-36.357h-3.779Zm29.3,36.387h4.6V-36.65H145.02v5.742h-9.551V-44.414h40.4v13.506H166.26V-36.65h-6.123V-8.027h4.688V0H145.811Z" transform="translate(-11374 -3525)" fill="#2d7198"/>
      <path id="Path_218" data-name="Path 218" d="M15.273-18.328a3.72,3.72,0,0,0-.531-2.191,4.127,4.127,0,0,0-1.17-1.121,5.388,5.388,0,0,0-1.4-.6,5.8,5.8,0,0,0-1.527-.208,7.546,7.546,0,0,0-2.208.291,4.687,4.687,0,0,0-1.569.789A3.29,3.29,0,0,0,5.927-20.2a3.211,3.211,0,0,0-.315,1.395A3.5,3.5,0,0,0,6-17.042a3.259,3.259,0,0,0,.988,1.079,5.118,5.118,0,0,0,1.32.639q.722.232,1.386.465l3.354,1.1a16.045,16.045,0,0,1,2.665,1.1,7.292,7.292,0,0,1,1.934,1.453A5.741,5.741,0,0,1,18.834-9.28a7.28,7.28,0,0,1,.407,2.54A6.573,6.573,0,0,1,18.6-3.852a7.009,7.009,0,0,1-1.785,2.308A8.462,8.462,0,0,1,14.086-.008a10.444,10.444,0,0,1-3.478.556,11,11,0,0,1-3.32-.44A7.288,7.288,0,0,1,4.972-1.071a6.162,6.162,0,0,1-1.5-1.685A9.219,9.219,0,0,1,2.59-4.7H1.328V-7.554H5.512A6.205,6.205,0,0,0,5.9-4.947a3.539,3.539,0,0,0,1.087,1.27,4.986,4.986,0,0,0,1.66.764,8.222,8.222,0,0,0,2.125.257,7.214,7.214,0,0,0,2.034-.266,4.5,4.5,0,0,0,1.544-.772,3.4,3.4,0,0,0,.979-1.229,3.791,3.791,0,0,0,.34-1.635,3.283,3.283,0,0,0-.423-1.718,4.18,4.18,0,0,0-1.087-1.2,6.322,6.322,0,0,0-1.453-.813q-.789-.315-1.519-.548L7.554-11.87a10.666,10.666,0,0,1-2.183-.93,6.464,6.464,0,0,1-1.693-1.378,5.8,5.8,0,0,1-1.087-1.9,7.581,7.581,0,0,1-.382-2.515A6.55,6.55,0,0,1,2.772-21.3a6.289,6.289,0,0,1,1.66-2.208,7.984,7.984,0,0,1,2.681-1.486,11.239,11.239,0,0,1,3.627-.54,9.262,9.262,0,0,1,2.482.315,7.848,7.848,0,0,1,2.059.888,7.213,7.213,0,0,1,1.627,1.378A8.31,8.31,0,0,1,18.1-21.184h1.245v2.855Zm24.282-6.84H49.732a10.474,10.474,0,0,1,3.113.44A7.138,7.138,0,0,1,55.3-23.433a5.783,5.783,0,0,1,1.61,2.133,7.121,7.121,0,0,1,.573,2.938,6.114,6.114,0,0,1-.564,2.6,6.444,6.444,0,0,1-1.594,2.133,7.69,7.69,0,0,1-2.465,1.444,9.153,9.153,0,0,1-3.2.531H45.2v8.8h2.523V0H39.555V-2.855h2.391V-22.3H39.555ZM45.2-22.3v7.919h4.532a5.567,5.567,0,0,0,1.735-.257,3.882,3.882,0,0,0,1.361-.755,3.428,3.428,0,0,0,.9-1.245,4.309,4.309,0,0,0,.324-1.727,3.738,3.738,0,0,0-1.129-2.9,5.217,5.217,0,0,0-3.6-1.038ZM92.658-2.855h2.092L92.757-8.566H83.079L81.136-2.855h2.59V0H75.558V-2.855h2.191l7.836-22.312h4.9L98.3-2.855h2.523V0H92.658Zm-8.633-8.467h7.77L87.876-22.578Zm54.3-7.205a8.2,8.2,0,0,0-2.947-2.972,7.92,7.92,0,0,0-4.092-1.079,7.628,7.628,0,0,0-3.52.813,8.585,8.585,0,0,0-2.731,2.183,10.179,10.179,0,0,0-1.768,3.171,11.393,11.393,0,0,0-.631,3.793,11.606,11.606,0,0,0,.7,4.175,9.218,9.218,0,0,0,1.818,3.021,9.786,9.786,0,0,0,2.665,2.009,7.39,7.39,0,0,0,3.47.805,8.153,8.153,0,0,0,4.565-1.27,9.86,9.86,0,0,0,3.32-4.175l2.922,1.378a10.263,10.263,0,0,1-2.142,3.461,11.374,11.374,0,0,1-3.727,2.689A11.585,11.585,0,0,1,131.317.5a11.4,11.4,0,0,1-4.731-.971,12,12,0,0,1-3.843-2.764,12.159,12.159,0,0,1-2.573-4.25,14.974,14.974,0,0,1-.888-5.13,14.468,14.468,0,0,1,.888-5.08,12.714,12.714,0,0,1,2.49-4.159,11.7,11.7,0,0,1,3.818-2.789,11.347,11.347,0,0,1,4.806-1.021,10.927,10.927,0,0,1,3.984.656,11.444,11.444,0,0,1,2.847,1.561,11.748,11.748,0,0,1,2.017,1.967h1.76v2.955ZM162.6-25.168h18.029v7.122h-3.4V-22.3h-8.981v8.052H175.8v2.855h-7.554v8.533h8.981v-4.25h3.4V0H162.6V-2.855H165V-22.3H162.6Z" transform="translate(-11158 -3524) rotate(-90)" fill="#4e798d"/>
      <path id="Path_223" data-name="Path 223" d="M2.234-2.687h2.25V-20.7H2.234v-2.984h7.5L17.25-3.234l7.609-20.453h7.109V-20.7H29.734V-2.687h2.234V0H24.281V-2.687h2.531V-20.875L18.531,0H15.875L7.484-20.922V-2.687H9.922V0H2.234Zm54.619,0h1.969L56.947-8.062H47.838L46.009-2.687h2.438V0H40.759V-2.687h2.063l7.375-21h4.609l7.359,21h2.375V0H56.853Zm-8.125-7.969h7.313L52.353-21.25Zm24.6-13.031h9.859a9.8,9.8,0,0,1,2.914.414,6.718,6.718,0,0,1,2.313,1.219,5.519,5.519,0,0,1,1.523,2.008,6.619,6.619,0,0,1,.547,2.766,5.038,5.038,0,0,1-.32,1.758,6.092,6.092,0,0,1-.891,1.609,6.774,6.774,0,0,1-1.352,1.32,6.183,6.183,0,0,1-1.7.891,3.558,3.558,0,0,1,.789.492,4.482,4.482,0,0,1,.75.781A6.362,6.362,0,0,1,88.4-9.383a6.443,6.443,0,0,1,.461,1.258l1.313,5.156h2.047L92.253,0H87.644L85.878-7.2A5.651,5.651,0,0,0,84.4-10.055a3.847,3.847,0,0,0-2.711-.914H78.644v8.281h2.375V0H73.331V-2.687h2.25v-18.3h-2.25Zm5.313,2.7v7.453h4.547a5.4,5.4,0,0,0,1.633-.234,3.559,3.559,0,0,0,1.281-.7,3.242,3.242,0,0,0,.844-1.164,4,4,0,0,0,.3-1.617A3.563,3.563,0,0,0,86.191-20a4.857,4.857,0,0,0-3.375-.984ZM120.794.094v-4.75a8.048,8.048,0,0,1-1.484,2.148A8.264,8.264,0,0,1,117.325-1a9.5,9.5,0,0,1-2.336.891,10.819,10.819,0,0,1-2.523.3A11.484,11.484,0,0,1,108.2-.586a9.791,9.791,0,0,1-3.539-2.461,11.444,11.444,0,0,1-2.422-4,14.093,14.093,0,0,1-.836-4.828,13.617,13.617,0,0,1,.836-4.781,12.057,12.057,0,0,1,2.344-3.922,10.862,10.862,0,0,1,3.594-2.625,10.753,10.753,0,0,1,4.523-.953,10.493,10.493,0,0,1,3.867.641,10.791,10.791,0,0,1,2.766,1.555,12.52,12.52,0,0,1,1.836,1.742h1.516v2.781h-3.359a7.845,7.845,0,0,0-2.773-2.812,7.185,7.185,0,0,0-3.867-1,7.145,7.145,0,0,0-3.3.766,8.033,8.033,0,0,0-2.57,2.063,9.7,9.7,0,0,0-1.664,2.984,10.655,10.655,0,0,0-.594,3.563,11.079,11.079,0,0,0,.656,3.859,8.661,8.661,0,0,0,1.672,2.891A8.249,8.249,0,0,0,109.4-3.289a7.448,7.448,0,0,0,3.3.727,7.906,7.906,0,0,0,4.922-1.461,7.845,7.845,0,0,0,2.688-4.555h-6.625v-2.687H123.7V.094Zm14.416-23.781h7.563v2.7h-2.25v18.3h2.25V0h-7.562V-2.687h2.25v-18.3h-2.25Zm33.087,0h7.688v2.7h-2.016V0h-4L158.953-19.641V-2.687h2.438V0H153.7V-2.687h2.188v-18.3h-2.25v-2.734h6.375L170.828-4.266l.125-.75V-20.984H168.3Z" transform="translate(-11372 -3618)" fill="#225576"/>
      <path id="Path_219" data-name="Path 219" d="M3.142-33.311H15.535a15.684,15.684,0,0,1,4.351.593,15.839,15.839,0,0,1,3.845,1.67,15.886,15.886,0,0,1,3.23,2.582,15.918,15.918,0,0,1,2.472,3.351A16.9,16.9,0,0,1,31-21.149a17.5,17.5,0,0,1,.549,4.406A17.8,17.8,0,0,1,31-12.283a17.283,17.283,0,0,1-1.571,4A16.192,16.192,0,0,1,26.96-4.889a15.8,15.8,0,0,1-3.23,2.615A15.589,15.589,0,0,1,19.885-.593,15.684,15.684,0,0,1,15.535,0H3.142V-3.779H6.306v-25.73H3.142Zm7.471,3.8v25.73H15.8a9.615,9.615,0,0,0,4.34-1.011,11.357,11.357,0,0,0,3.549-2.758,13.247,13.247,0,0,0,2.4-4.109,14.47,14.47,0,0,0,.879-5.087,14.073,14.073,0,0,0-.879-5.01,13.052,13.052,0,0,0-2.4-4.054,11.219,11.219,0,0,0-3.549-2.714,9.79,9.79,0,0,0-4.34-.989Zm34.642-3.8H69.117v9.426h-4.5v-5.625H52.726v10.657h10v3.779h-10V-3.779H64.613V-9.4h4.5V0H45.255V-3.779h3.164v-25.73H45.255Zm54.33,9.053a4.923,4.923,0,0,0-.7-2.9,5.463,5.463,0,0,0-1.549-1.483,7.132,7.132,0,0,0-1.857-.791,7.679,7.679,0,0,0-2.021-.275,9.987,9.987,0,0,0-2.922.385,6.2,6.2,0,0,0-2.076,1.044,4.355,4.355,0,0,0-1.241,1.538A4.251,4.251,0,0,0,86.8-24.9a4.636,4.636,0,0,0,.516,2.34,4.314,4.314,0,0,0,1.307,1.428,6.773,6.773,0,0,0,1.747.846q.956.308,1.835.615l4.438,1.45a21.236,21.236,0,0,1,3.527,1.45,9.651,9.651,0,0,1,2.56,1.923,7.6,7.6,0,0,1,1.571,2.56,9.635,9.635,0,0,1,.538,3.362A8.7,8.7,0,0,1,103.99-5.1a9.276,9.276,0,0,1-2.362,3.054A11.2,11.2,0,0,1,98.013-.011a13.823,13.823,0,0,1-4.6.736A14.552,14.552,0,0,1,89.016.143a9.646,9.646,0,0,1-3.065-1.56,8.156,8.156,0,0,1-1.989-2.23A12.2,12.2,0,0,1,82.8-6.218h-1.67V-10h5.537a8.213,8.213,0,0,0,.516,3.45A4.683,4.683,0,0,0,88.62-4.867a6.6,6.6,0,0,0,2.2,1.011,10.882,10.882,0,0,0,2.813.341,9.548,9.548,0,0,0,2.692-.352,5.949,5.949,0,0,0,2.043-1.022,4.5,4.5,0,0,0,1.3-1.626,5.017,5.017,0,0,0,.45-2.164,4.345,4.345,0,0,0-.56-2.274,5.532,5.532,0,0,0-1.439-1.593,8.368,8.368,0,0,0-1.923-1.077q-1.044-.417-2.01-.725L89.367-15.71a14.117,14.117,0,0,1-2.889-1.23,8.555,8.555,0,0,1-2.241-1.824A7.677,7.677,0,0,1,82.8-21.281a10.034,10.034,0,0,1-.505-3.329,8.669,8.669,0,0,1,.747-3.582,8.323,8.323,0,0,1,2.2-2.922,10.567,10.567,0,0,1,3.549-1.967,14.875,14.875,0,0,1,4.8-.714,12.259,12.259,0,0,1,3.285.417A10.387,10.387,0,0,1,99.6-32.2a9.547,9.547,0,0,1,2.153,1.824,11,11,0,0,1,1.571,2.34h1.648v3.779ZM118.1-33.311h10.635v3.8h-3.164v25.73h3.164V0H118.1V-3.779h3.164v-25.73H118.1ZM169.726.132v-6.68a11.318,11.318,0,0,1-2.087,3.021,11.622,11.622,0,0,1-2.791,2.12,13.363,13.363,0,0,1-3.285,1.252,15.214,15.214,0,0,1-3.549.417,16.15,16.15,0,0,1-6-1.088,13.768,13.768,0,0,1-4.977-3.461,16.093,16.093,0,0,1-3.406-5.625,19.818,19.818,0,0,1-1.176-6.79,19.149,19.149,0,0,1,1.176-6.724,16.955,16.955,0,0,1,3.3-5.515,15.275,15.275,0,0,1,5.054-3.691,15.122,15.122,0,0,1,6.361-1.34,14.756,14.756,0,0,1,5.438.9,15.175,15.175,0,0,1,3.889,2.186,17.606,17.606,0,0,1,2.582,2.45h2.131v3.911H167.66a11.033,11.033,0,0,0-3.9-3.955,10.1,10.1,0,0,0-5.438-1.406,10.048,10.048,0,0,0-4.636,1.077,11.3,11.3,0,0,0-3.615,2.9,13.64,13.64,0,0,0-2.34,4.2,14.983,14.983,0,0,0-.835,5.01,15.58,15.58,0,0,0,.923,5.427,12.18,12.18,0,0,0,2.351,4.065A11.6,11.6,0,0,0,153.7-4.625,10.473,10.473,0,0,0,158.344-3.6a11.118,11.118,0,0,0,6.921-2.054,11.032,11.032,0,0,0,3.779-6.405h-9.316v-3.779h14.084V.132Zm40.882-33.442h10.811v3.8h-2.834V0h-5.625L197.468-27.62v23.84H200.9V0H190.085V-3.779h3.076v-25.73H190v-3.845h8.965L214.167-6l.176-1.055V-29.509h-3.735Z" transform="translate(-11374 -3467)" fill="#5f88b1"/>
      <path id="Path_224" data-name="Path 224" d="M25.576-13.115V-14.8h3.4v1.689H27.813L21.328-7.656,27.393-1.68h1.582V0H24.99V-1.68L19.111-7.559ZM15.791-14.8h4.8v1.689h-1.5V-1.68h1.484V0h-4.8V-1.68h1.406V-13.115H15.791Zm25.283,0H51.68v4.189h-2v-2.5H44.395v4.736h4.443V-6.7H44.395v5.02h5.283v-2.5h2V0H41.074V-1.68H42.48V-13.115H41.074Zm22.559,0h6.162a6.126,6.126,0,0,1,1.821.259,4.2,4.2,0,0,1,1.445.762,3.449,3.449,0,0,1,.952,1.255,4.137,4.137,0,0,1,.342,1.729,3.149,3.149,0,0,1-.2,1.1A3.808,3.808,0,0,1,73.6-8.7a4.234,4.234,0,0,1-.845.825,3.864,3.864,0,0,1-1.064.557,2.224,2.224,0,0,1,.493.308,2.8,2.8,0,0,1,.469.488,3.976,3.976,0,0,1,.4.654,4.027,4.027,0,0,1,.288.786l.82,3.223h1.279L75.459,0H72.578l-1.1-4.5a3.532,3.532,0,0,0-.923-1.782,2.4,2.4,0,0,0-1.694-.571h-1.9V-1.68h1.484V0h-4.8V-1.68h1.406V-13.115H63.633Zm3.32,1.689v4.658h2.842A3.376,3.376,0,0,0,70.815-8.6a2.224,2.224,0,0,0,.8-.439,2.026,2.026,0,0,0,.527-.728,2.5,2.5,0,0,0,.19-1.011A2.227,2.227,0,0,0,71.67-12.5a3.036,3.036,0,0,0-2.109-.615ZM97.031-14.8h4.8v1.689h-1.26V0h-2.5L91.191-12.275v10.6h1.523V0h-4.8V-1.68h1.367V-13.115H87.871v-1.709h3.984L98.613-2.666l.078-.469v-9.98h-1.66Zm16.7,0h4.727v1.689h-1.406V-1.68h1.406V0H113.73V-1.68h1.406V-13.115H113.73Zm26.68,0h4.8v1.689h-1.26V0h-2.5L134.57-12.275v10.6h1.523V0h-4.8V-1.68h1.367V-13.115H131.25v-1.709h3.984l6.758,12.158.078-.469v-9.98h-1.66ZM168.535.059V-2.91a5.03,5.03,0,0,1-.928,1.343,5.165,5.165,0,0,1-1.24.942,5.939,5.939,0,0,1-1.46.557,6.762,6.762,0,0,1-1.577.186,7.178,7.178,0,0,1-2.666-.483A6.119,6.119,0,0,1,158.452-1.9a7.152,7.152,0,0,1-1.514-2.5,8.808,8.808,0,0,1-.522-3.018,8.51,8.51,0,0,1,.522-2.988,7.536,7.536,0,0,1,1.465-2.451,6.789,6.789,0,0,1,2.246-1.641,6.721,6.721,0,0,1,2.827-.6,6.558,6.558,0,0,1,2.417.4,6.745,6.745,0,0,1,1.729.972,7.824,7.824,0,0,1,1.147,1.089h.947V-10.9h-2.1a4.9,4.9,0,0,0-1.733-1.758,4.491,4.491,0,0,0-2.417-.625,4.466,4.466,0,0,0-2.061.479,5.021,5.021,0,0,0-1.606,1.289,6.062,6.062,0,0,0-1.04,1.865,6.659,6.659,0,0,0-.371,2.227,6.925,6.925,0,0,0,.41,2.412A5.413,5.413,0,0,0,159.844-3.2a5.156,5.156,0,0,0,1.567,1.147,4.655,4.655,0,0,0,2.065.454,4.942,4.942,0,0,0,3.076-.913,4.9,4.9,0,0,0,1.68-2.847h-4.141v-1.68h6.26v7.1Z" transform="translate(-11386 -3587)" fill="#0099d1"/>
      <path id="Path_203" data-name="Path 203" d="M9.64-7.225h4.053V-32.985H8.943v5.168H.527V-39.973h35.6v12.155H27.66v-5.168h-5.4V-7.225H26.4V0H9.64Zm28.5-32.748H54.9v7.251H51.617l5.241,9.176,5.55-9.176H58.665v-7.251H75.42v7.251H72.529L60.885-16.585v9.36h4.75V0H48.184V-7.225h4.337V-16.69L41.575-32.722H38.141Zm41.357,0H97.57a15.491,15.491,0,0,1,5.55.962,13.905,13.905,0,0,1,4.363,2.6,12.043,12.043,0,0,1,2.866,3.771,10.116,10.116,0,0,1,1.033,4.456,16.445,16.445,0,0,1-.813,5.234,11.2,11.2,0,0,1-2.517,4.232,11.967,11.967,0,0,1-4.311,2.834,16.6,16.6,0,0,1-6.17,1.042H92.123v7.62h3.588V0H79.5V-7.225h4.053v-25.5H79.5Zm12.624,7.251V-21.99H95.66a7.753,7.753,0,0,0,4.673-1.266,4.633,4.633,0,0,0,1.73-4.008,5.093,5.093,0,0,0-1.626-4.008,6.966,6.966,0,0,0-4.776-1.45ZM133.351.712a17.377,17.377,0,0,1-5.086-.738,18.215,18.215,0,0,1-4.531-2.083,18.966,18.966,0,0,1-3.821-3.23,20.073,20.073,0,0,1-2.93-4.192,22.506,22.506,0,0,1-1.885-4.944,22.254,22.254,0,0,1-.671-5.511,22.412,22.412,0,0,1,.671-5.524,22.446,22.446,0,0,1,1.885-4.957,20.073,20.073,0,0,1,2.93-4.192,18.966,18.966,0,0,1,3.821-3.23,18.215,18.215,0,0,1,4.531-2.083,17.377,17.377,0,0,1,5.086-.738,17.507,17.507,0,0,1,5.1.738,18.16,18.16,0,0,1,4.544,2.083,18.966,18.966,0,0,1,3.821,3.23,20.455,20.455,0,0,1,2.943,4.192,22.056,22.056,0,0,1,1.9,4.957,22.413,22.413,0,0,1,.671,5.524,22.3,22.3,0,0,1-.671,5.5,22.056,22.056,0,0,1-1.9,4.957,20.455,20.455,0,0,1-2.943,4.192,18.966,18.966,0,0,1-3.821,3.23A18.16,18.16,0,0,1,138.45-.026,17.507,17.507,0,0,1,133.351.712Zm0-8.279a8.678,8.678,0,0,0,4.118-.989,10.027,10.027,0,0,0,3.214-2.689,12.654,12.654,0,0,0,2.078-3.955,15.329,15.329,0,0,0,.736-4.786,15.294,15.294,0,0,0-.749-4.825,12.677,12.677,0,0,0-2.1-3.968,10.213,10.213,0,0,0-3.214-2.689,8.549,8.549,0,0,0-4.079-.989,8.549,8.549,0,0,0-4.079.989,10.073,10.073,0,0,0-3.2,2.689,13.042,13.042,0,0,0-2.1,3.968,15.056,15.056,0,0,0-.762,4.825,14.853,14.853,0,0,0,.762,4.786,13.073,13.073,0,0,0,2.1,3.955,10.073,10.073,0,0,0,3.2,2.689A8.549,8.549,0,0,0,133.351-7.567ZM185.836,0V-6.855a16.121,16.121,0,0,1-3.124,4.219,12.634,12.634,0,0,1-3.446,2.162,13.125,13.125,0,0,1-5.15.791,15.92,15.92,0,0,1-3.2-.382,17.262,17.262,0,0,1-3.1-1,20.942,20.942,0,0,1-2.93-1.556,14.47,14.47,0,0,1-2.595-2.1,21.267,21.267,0,0,1-4.453-6.842,22.217,22.217,0,0,1-1.588-8.477,22.038,22.038,0,0,1,.671-5.458,22.231,22.231,0,0,1,1.885-4.931,20.218,20.218,0,0,1,2.93-4.179,18.965,18.965,0,0,1,3.821-3.23,18.215,18.215,0,0,1,4.531-2.083,17.377,17.377,0,0,1,5.086-.738,15.252,15.252,0,0,1,5.292.831,16,16,0,0,1,4.828,3.1h5.783v8.912H183.1a11.264,11.264,0,0,0-2.233-2.716,10.452,10.452,0,0,0-2.272-1.4,8.517,8.517,0,0,0-3.421-.554,8.355,8.355,0,0,0-4.027,1,10.374,10.374,0,0,0-3.214,2.7,13,13,0,0,0-2.13,4.008,14.776,14.776,0,0,0-.774,4.733,14.775,14.775,0,0,0,.7,4.562,11.736,11.736,0,0,0,2.117,3.889,9.883,9.883,0,0,0,3.3,2.65,9.036,9.036,0,0,0,4.027.923A7.409,7.409,0,0,0,179.95-9.65a9.092,9.092,0,0,0,2.943-4.456h-7.461v-7.225h18.123V0ZM199.7-39.973h20.7a14.81,14.81,0,0,1,5.4.923,12.1,12.1,0,0,1,4,2.465A10.574,10.574,0,0,1,232.292-33a10.818,10.818,0,0,1,.865,4.258,13.328,13.328,0,0,1-.426,3.56,9.065,9.065,0,0,1-1.239,2.716,9.146,9.146,0,0,1-2,2.1,15.711,15.711,0,0,1-2.711,1.648,6.647,6.647,0,0,1,2.323,2.1,10.178,10.178,0,0,1,1.523,3.652l1.317,5.194h3.227L235.222,0H223.863l-1.549-9.492a12.928,12.928,0,0,0-.71-2.914,5.559,5.559,0,0,0-1.278-2,4.9,4.9,0,0,0-1.949-1.147,8.942,8.942,0,0,0-2.724-.369h-3.33v8.7h3.588V0H199.7V-7.225h4.053v-25.5H199.7Zm12.624,7.251v9.677h5.137a11.567,11.567,0,0,0,2.646-.277,5.723,5.723,0,0,0,2.014-.87,4.016,4.016,0,0,0,1.291-1.49,4.7,4.7,0,0,0,.452-2.136,4.353,4.353,0,0,0-1.626-3.612,7.554,7.554,0,0,0-4.776-1.292Zm47.011,25.5h3.9l-1.755-5.748h-12.03l-1.756,5.748h4.131V0H236.977V-7.225h2.917l10.662-32.748h10.352l10.43,32.748h2.84V0H259.334Zm-7.848-12.5h7.9l-3.976-13Zm26.2-20.25h18.071a15.491,15.491,0,0,1,5.55.962,13.905,13.905,0,0,1,4.363,2.6,12.043,12.043,0,0,1,2.866,3.771,10.116,10.116,0,0,1,1.033,4.456,16.445,16.445,0,0,1-.813,5.234,11.2,11.2,0,0,1-2.517,4.232,11.967,11.967,0,0,1-4.311,2.834,16.594,16.594,0,0,1-6.17,1.042h-5.447v7.62H293.9V0H277.689V-7.225h4.053v-25.5h-4.053Zm12.624,7.251V-21.99h3.537a7.753,7.753,0,0,0,4.673-1.266,4.633,4.633,0,0,0,1.73-4.008,5.093,5.093,0,0,0-1.626-4.008,6.966,6.966,0,0,0-4.776-1.45Zm49.722-7.251h16.78v7.251h-4.131v25.5h4.131V0h-16.78V-7.225h4.079v-10.23H326.456v10.23h4.131V0H313.832V-7.225h4.053v-25.5h-4.053v-7.251h16.755v7.251h-4.131v8.306h17.658v-8.306h-4.079Zm20.885,0h16.755v7.251H374.4l5.241,9.176,5.55-9.176h-3.743v-7.251H398.2v7.251h-2.891L383.665-16.585v9.36h4.75V0H370.963V-7.225H375.3V-16.69L364.354-32.722h-3.434Z" transform="translate(-11426 -3704) rotate(90)" fill="#094c84"/>
      <path id="Path_226" data-name="Path 226" d="M14.377,56.541h4.412V19.09H7.808v7.49H1.3v-12.7h42.91v12.7H37.705V19.09H25.01V56.541h4.951V62H14.377ZM47.131,13.885H62.747v5.491h-4.57l9.045,15.457L76.9,19.375H71.887V13.885H87.5v5.491H83.408l-13.521,20.5V56.541h4.951V62H59.224V56.541h4.412V39.72L50.876,19.375H47.131Zm45.894,0H112.48a20.024,20.024,0,0,1,5.951.841,13.646,13.646,0,0,1,4.7,2.476,11.056,11.056,0,0,1,3.079,4.078A13.613,13.613,0,0,1,127.3,26.9a11.689,11.689,0,0,1-1.079,4.967,12.319,12.319,0,0,1-3.047,4.078,14.7,14.7,0,0,1-4.713,2.761,17.5,17.5,0,0,1-6.11,1.016h-8.538V56.541h4.824V62H93.025V56.541H97.6V19.375h-4.57Zm10.791,5.491V34.515h8.665a10.643,10.643,0,0,0,3.317-.492,7.422,7.422,0,0,0,2.6-1.444,6.554,6.554,0,0,0,1.714-2.38,8.238,8.238,0,0,0,.619-3.3,7.146,7.146,0,0,0-2.158-5.538q-2.158-1.984-6.887-1.984Zm29.58-5.491h34.468V27.5h-6.506V19.375h-17.17V34.769h14.441v5.459H144.187V56.541h17.17V48.416h6.506V62H133.4V56.541h4.57V19.375H133.4Z" transform="translate(-11373 -3718)" fill="#094c84"/>
    </g>
  </g>
</svg>
