<svg id="Layer_1" data-name="Layer 1" xmlns="http://www.w3.org/2000/svg" viewBox="0 0 267.34 384.22"><title>Arvo</title><g id="Group_147" data-name="Group 147"><path id="Path_202" data-name="Path 202" d="M52.91,359.83h9.6a10.14,10.14,0,0,1,2.94.41,6.78,6.78,0,0,1,2.31,1.23,5.37,5.37,0,0,1,1.52,2,6.62,6.62,0,0,1,.54,2.77,5.57,5.57,0,0,1-.53,2.45,6.09,6.09,0,0,1-1.5,2,7.36,7.36,0,0,1-2.33,1.36,8.77,8.77,0,0,1-3,.5H58.24v8.3h2.38v2.69h-7.7v-2.69h2.24V362.54H52.91Zm5.33,2.71V370h4.27a5.09,5.09,0,0,0,1.64-.24,3.75,3.75,0,0,0,1.28-.71,3.3,3.3,0,0,0,.85-1.18,4.14,4.14,0,0,0,.3-1.63,3.53,3.53,0,0,0-1.06-2.73,4.91,4.91,0,0,0-3.4-1Zm27.64,18.34h2L86,375.49H76.85L75,380.88h2.45v2.69h-7.7v-2.69h2.06l7.39-21.05h4.62l7.38,21.05h2.38v2.69h-7.7Zm-8.14-8h7.32l-3.7-10.61Zm19.2-13.06h9.89a10,10,0,0,1,2.92.41,6.78,6.78,0,0,1,2.31,1.23,5.5,5.5,0,0,1,1.53,2,6.59,6.59,0,0,1,.55,2.77,5.13,5.13,0,0,1-.32,1.77,6.38,6.38,0,0,1-.9,1.61,6.5,6.5,0,0,1-1.35,1.32,5.94,5.94,0,0,1-1.71.89,3.41,3.41,0,0,1,.79.5,4.68,4.68,0,0,1,.76.78,7,7,0,0,1,.64,1.05,6.77,6.77,0,0,1,.46,1.26l1.31,5.17h2.06l0,3h-4.62l-1.77-7.22A5.69,5.69,0,0,0,108,373.5a3.82,3.82,0,0,0-2.72-.92h-3v8.3h2.38v2.69H97v-2.69H99.2V362.54H96.94Zm5.33,2.71V370h4.56a5.64,5.64,0,0,0,1.63-.24,3.61,3.61,0,0,0,1.29-.7,3.33,3.33,0,0,0,.84-1.16,4.13,4.13,0,0,0,.31-1.62,3.59,3.59,0,0,0-1.06-2.76,4.92,4.92,0,0,0-3.39-1Zm32.52,18.34h2l-1.88-5.39h-9.13l-1.83,5.39h2.44v2.69h-7.7v-2.69h2.07l7.38-21.05h4.63l7.37,21.05h2.38v2.69h-7.7Zm-8.15-8H134l-3.7-10.61Zm37.53,10.78v-4.76a8.13,8.13,0,0,1-3.48,3.66,9.19,9.19,0,0,1-2.34.89,10.8,10.8,0,0,1-2.53.3,11.33,11.33,0,0,1-4.27-.77,9.85,9.85,0,0,1-3.55-2.47,11.46,11.46,0,0,1-2.43-4,14,14,0,0,1-.83-4.83,13.78,13.78,0,0,1,.83-4.8,12.27,12.27,0,0,1,2.35-3.93,11,11,0,0,1,3.6-2.63,10.76,10.76,0,0,1,4.54-.95,10.22,10.22,0,0,1,3.87.64,10.73,10.73,0,0,1,2.78,1.56,12.6,12.6,0,0,1,1.84,1.74h1.51v2.79H162.7a7.91,7.91,0,0,0-2.78-2.82,7.73,7.73,0,0,0-7.18-.23,8,8,0,0,0-2.58,2.06,9.89,9.89,0,0,0-1.67,3,10.88,10.88,0,0,0-.6,3.57,11.09,11.09,0,0,0,.66,3.87,8.78,8.78,0,0,0,1.68,2.9,8.15,8.15,0,0,0,2.51,1.84,7.58,7.58,0,0,0,3.31.73,8,8,0,0,0,4.94-1.46,7.92,7.92,0,0,0,2.69-4.57H157v-2.7h10v11.39Zm9-23.84h9.88a9.6,9.6,0,0,1,2.92.42,6.55,6.55,0,0,1,2.32,1.22,5.5,5.5,0,0,1,1.53,2,6.75,6.75,0,0,1,.55,2.77,5.27,5.27,0,0,1-.32,1.76,6.27,6.27,0,0,1-.9,1.62A7,7,0,0,1,187.8,371a6.19,6.19,0,0,1-1.71.89,3.63,3.63,0,0,1,.79.5,4.26,4.26,0,0,1,.75.78,6.32,6.32,0,0,1,.65,1.05,6.77,6.77,0,0,1,.46,1.26l1.31,5.17h2l0,3h-4.62l-1.77-7.22a5.57,5.57,0,0,0-1.48-2.85,3.8,3.8,0,0,0-2.71-.92h-3.06v8.3h2.38v2.69h-7.7v-2.69h2.26V362.54h-2.26Zm5.32,2.71V370h4.56a5.33,5.33,0,0,0,1.64-.23,3.64,3.64,0,0,0,1.28-.7,3.18,3.18,0,0,0,.85-1.17,4.09,4.09,0,0,0,.3-1.62,3.59,3.59,0,0,0-1.06-2.76,4.85,4.85,0,0,0-3.39-1ZM211,380.88h2l-1.87-5.39H202l-1.84,5.39h2.44v2.69h-7.7v-2.69H197l7.39-21.05H209l7.38,21.05h2.38v2.69H211Zm-8.14-8h7.33l-3.7-10.62Zm19.2-13.06h9.6a10.14,10.14,0,0,1,2.94.41,6.78,6.78,0,0,1,2.31,1.23,5.37,5.37,0,0,1,1.52,2,6.58,6.58,0,0,1,.54,2.77,5.6,5.6,0,0,1-.53,2.45,5.92,5.92,0,0,1-1.5,2,7.06,7.06,0,0,1-2.32,1.36,8.4,8.4,0,0,1-3,.5H227.4v8.3h2.38v2.7h-7.7v-2.69h2.25V362.54h-2.25Zm5.32,2.71V370h4.28a5.71,5.71,0,0,0,1.64-.24,3.77,3.77,0,0,0,1.28-.72,3.18,3.18,0,0,0,.85-1.17,4.14,4.14,0,0,0,.3-1.63,3.53,3.53,0,0,0-1.06-2.73,4.91,4.91,0,0,0-3.4-1Zm32.25-2.71h7.7v2.7h-2.26v18.35h2.26v2.69h-7.7v-2.69H262v-8.53H248.28v8.53h2.38v2.69H243v-2.69h2.25V362.53H243v-2.7h7.7v2.7h-2.38v7.19H262v-7.19h-2.37Z" style="fill:#258abf"/><path id="Path_216" data-name="Path 216" d="M64.93,262.23a9,9,0,0,1-1.19,1.35,7.56,7.56,0,0,1-1.44,1,7.78,7.78,0,0,1-1.69.62,8.75,8.75,0,0,1-2,.22,5.61,5.61,0,0,1-4.19-1.79,6.16,6.16,0,0,1-1.23-2,6.85,6.85,0,0,1-.44-2.49,8.52,8.52,0,0,1,1-4.18A7.88,7.88,0,0,1,55,253.33a7.79,7.79,0,0,1,1.59-1.27,8.25,8.25,0,0,1,1.91-.81,7.86,7.86,0,0,1,2.16-.28,6,6,0,0,1,2.79.63,5.59,5.59,0,0,1,2,1.74H66.9l-.37,1.59H64a3.53,3.53,0,0,0-.54-.87,3.38,3.38,0,0,0-.79-.67,3.32,3.32,0,0,0-1-.44,4.25,4.25,0,0,0-1.18-.16,5.13,5.13,0,0,0-2.25.49,5.64,5.64,0,0,0-1.79,1.35,6.15,6.15,0,0,0-1.18,2,6.78,6.78,0,0,0-.42,2.4,5.19,5.19,0,0,0,.33,1.91,4.34,4.34,0,0,0,.89,1.45,3.65,3.65,0,0,0,1.28.91,3.73,3.73,0,0,0,1.52.32A4.94,4.94,0,0,0,61.3,263a5.47,5.47,0,0,0,1.86-1.72Zm14.27-11h4.54l-.38,1.59H82.1l-2.47,10.79H81l-.36,1.58H76.11l.36-1.58H77.7l1.16-5H71l-1.15,5h1.37l-.36,1.58H66.3l.36-1.58h1.23l2.49-10.79H69l.37-1.59h4.54l-.38,1.59H72.29l-1,4.22h7.9l1-4.22H78.83Zm12.68,12.38h1.17l-.34-3.15H87.42l-1.76,3.15h1.26l-.35,1.58H82l.36-1.58H83.6l7-12.38h3L95,263.61h1.38l-.36,1.58H91.52Zm-3.57-4.74h4.22l-.69-6.34Zm12.3-7.64h5.69a4,4,0,0,1,1.45.24,3,3,0,0,1,1.12.67,3,3,0,0,1,.72,1,3.35,3.35,0,0,1,.25,1.33,3.58,3.58,0,0,1-.25,1.37,4,4,0,0,1-.68,1.13,4.25,4.25,0,0,1-1,.84,4.79,4.79,0,0,1-1.19.56,2,2,0,0,1,.61.78,3.19,3.19,0,0,1,.27,1.22l.05,3.21h1.19l-.36,1.58h-2.7l0-4.24a2.46,2.46,0,0,0-.53-1.69,2,2,0,0,0-1.53-.53h-1.5l-1.11,4.88h1.37l-.36,1.58H97.54l.36-1.58h1.23l2.49-10.79h-1.38Zm2.91,1.59-1,4.36h2.18A5,5,0,0,0,106,257a3,3,0,0,0,1-.47,2.34,2.34,0,0,0,.66-.81,2.53,2.53,0,0,0,.24-1.15,1.94,1.94,0,0,0-.13-.71,1.41,1.41,0,0,0-.4-.56,1.85,1.85,0,0,0-.69-.37,3.69,3.69,0,0,0-1-.13Zm15,10.79h1.17l-.34-3.15H114.1l-1.76,3.15h1.26l-.36,1.58h-4.53l.36-1.58h1.21l7-12.38h3l1.46,12.38h1.38l-.36,1.58H118.2ZM115,258.87h4.23l-.69-6.34Zm21.38,3.36a8.4,8.4,0,0,1-1.18,1.35,7.56,7.56,0,0,1-1.44,1,7.89,7.89,0,0,1-1.7.63,8.59,8.59,0,0,1-2,.21,5.73,5.73,0,0,1-2.34-.47,5.65,5.65,0,0,1-1.85-1.32,6,6,0,0,1-1.23-2,6.87,6.87,0,0,1-.45-2.5,9,9,0,0,1,1-4.17,7.88,7.88,0,0,1,1.21-1.65,7.79,7.79,0,0,1,1.59-1.27,8.25,8.25,0,0,1,1.91-.81,7.86,7.86,0,0,1,2.16-.28,5.84,5.84,0,0,1,2.78.63,5.51,5.51,0,0,1,2,1.74h1.44l-.37,1.59h-2.55a3.22,3.22,0,0,0-.53-.87A3.51,3.51,0,0,0,133.1,253a4.27,4.27,0,0,0-1.19-.16,5.11,5.11,0,0,0-2.24.49,5.61,5.61,0,0,0-1.79,1.34,6.31,6.31,0,0,0-1.18,2,6.56,6.56,0,0,0-.42,2.4,5.19,5.19,0,0,0,.33,1.91,4.7,4.7,0,0,0,.88,1.45,4.15,4.15,0,0,0,1.28.91,3.8,3.8,0,0,0,1.52.32,5,5,0,0,0,2.45-.58,5.47,5.47,0,0,0,1.86-1.72Zm3.89,1.38h1.29l2.5-10.87h-3.37l-.49,2.17h-1.89l.85-3.68h12.45l-.86,3.68h-1.87l.48-2.17H146l-2.48,10.87h1.3l-.35,1.58h-4.53Zm13.13-12.38h10.13l-.92,4h-1.91l.57-2.4h-5l-1,4.47h4.11l-.4,1.58h-4.07l-1.08,4.74h4.92l.56-2.42h1.93l-.92,4h-10l.35-1.58h1.24l2.48-10.79H153Zm13,0h5.69a4,4,0,0,1,1.45.24,3,3,0,0,1,1.12.67,3,3,0,0,1,.72,1,3.35,3.35,0,0,1,.25,1.33,3.58,3.58,0,0,1-.25,1.37,4,4,0,0,1-.68,1.13,4.25,4.25,0,0,1-1,.84,4.79,4.79,0,0,1-1.19.56,2,2,0,0,1,.61.78,3,3,0,0,1,.27,1.22l.05,3.21h1.19l-.36,1.58h-2.7l-.05-4.24a2.46,2.46,0,0,0-.53-1.69,2,2,0,0,0-1.53-.53H168l-1.11,4.88h1.37l-.36,1.58h-4.53l.36-1.58h1.23l2.49-10.79H166Zm2.92,1.59-1,4.36h2.18a5,5,0,0,0,1.28-.16,2.77,2.77,0,0,0,1-.48,2.17,2.17,0,0,0,.66-.81,2.52,2.52,0,0,0,.24-1.14,2,2,0,0,0-.13-.72,1.38,1.38,0,0,0-.4-.56,1.83,1.83,0,0,0-.69-.36,3.29,3.29,0,0,0-1-.13Z" style="fill:#2371aa"/><path id="Path_206" data-name="Path 206" d="M75.88,302.86a5,5,0,0,0-.73-2,5.87,5.87,0,0,0-1.5-1.6,7.68,7.68,0,0,0-2.07-1.07,7.6,7.6,0,0,0-2.41-.39,9.53,9.53,0,0,0-2.13.24,5.25,5.25,0,0,0-1.72.74,3.63,3.63,0,0,0-1.16,1.27,3.85,3.85,0,0,0-.44,1.85,3.53,3.53,0,0,0,.59,2.14,4.57,4.57,0,0,0,1.5,1.3,9.08,9.08,0,0,0,2,.81c.74.2,1.46.42,2.15.66l8.24,2.75a13.48,13.48,0,0,1,3.2,1.65A11,11,0,0,1,84,313.79a12.19,12.19,0,0,1,1.72,3.44,14.35,14.35,0,0,1,.63,4.37,14.67,14.67,0,0,1-1.22,6,13.52,13.52,0,0,1-3.4,4.67,15.49,15.49,0,0,1-5.23,3,20.25,20.25,0,0,1-6.77,1.08,20.51,20.51,0,0,1-4.93-.58,17,17,0,0,1-4.23-1.69,14.55,14.55,0,0,1-3.35-2.65A11.42,11.42,0,0,1,55,328H51.9v-9H62.74v1.86a6.78,6.78,0,0,0,.43,2.48,5.33,5.33,0,0,0,1.3,2,6,6,0,0,0,2.19,1.3,9.43,9.43,0,0,0,3.08.46,6.05,6.05,0,0,0,4.1-1.24,4.39,4.39,0,0,0,1.41-3.46,3.43,3.43,0,0,0-.5-1.9,4.46,4.46,0,0,0-1.27-1.29,8.36,8.36,0,0,0-1.74-.88c-.63-.24-1.26-.46-1.88-.66L63,315.41a17.28,17.28,0,0,1-3.75-1.68,12.94,12.94,0,0,1-3.2-2.69,12.59,12.59,0,0,1-2.22-3.79,14,14,0,0,1-.82-5,13.18,13.18,0,0,1,1.2-5.76,11.93,11.93,0,0,1,3.35-4.27,14.92,14.92,0,0,1,5.12-2.63,22.33,22.33,0,0,1,6.5-.9,19.42,19.42,0,0,1,5.14.64,18,18,0,0,1,4.24,1.72,14.09,14.09,0,0,1,3.17,2.47,10.8,10.8,0,0,1,2,2.89h3v9H75.88Zm23.23,24.4h4.7V298H98.3v5.87H88.54v-13.8h41.29v13.8H120V298h-6.26v29.25h4.79v8.2H99.11Zm33.05-37.18H151.6v8.23h-3.8l6.07,10.42,6.44-10.42H156v-8.23H175.4v8.23H172l-13.5,18.32v10.63h5.51v8.2H143.81v-8.2h5V316.51l-12.7-18.2h-4Zm48,0h19.43v8.23h-4.79v28.95h9.88a1.51,1.51,0,0,0,.77-.23,2.6,2.6,0,0,0,.66-.58,3.81,3.81,0,0,0,.46-.78,2.22,2.22,0,0,0,.18-.81v-6.07h9.7v16.68H180.12v-8.2h4.7V298.32h-4.7Zm40.3,0h36.11v15.47h-9.76v-6.43H235.12v9h9v8.68h-9v10.51h11.65v-8.06h9.76v16.26H220.42v-8.2h4.76V299.12h-4.76Z" style="fill:#24648d"/><path id="Path_217" data-name="Path 217" d="M52.85,127.55H85.27v14.29h-9V136H66.36v8.82H75v8h-8.6v9.07h4.43v7.57H52.85v-7.57h4.34V136H52.85Zm54.5,42.64a18.87,18.87,0,0,1-5.44-.77,20,20,0,0,1-4.85-2.18A20.22,20.22,0,0,1,93,163.85a20.92,20.92,0,0,1-3.14-4.39,23.41,23.41,0,0,1-2-16.75,23,23,0,0,1,2-5.2,21,21,0,0,1,3.14-4.4,19.85,19.85,0,0,1,4.09-3.38,19.59,19.59,0,0,1,4.85-2.18,18.54,18.54,0,0,1,5.44-.78,19,19,0,0,1,5.46.78,19.3,19.3,0,0,1,4.86,2.18,20.11,20.11,0,0,1,4.09,3.38,21.67,21.67,0,0,1,3.15,4.4,22.73,22.73,0,0,1,2,5.2,23.55,23.55,0,0,1,.72,5.79,23.25,23.25,0,0,1-.72,5.76,22.55,22.55,0,0,1-2,5.2,21.4,21.4,0,0,1-3.15,4.4,20.39,20.39,0,0,1-4.09,3.38,19.76,19.76,0,0,1-4.87,2.19,19.34,19.34,0,0,1-5.45.76Zm0-8.68a9.41,9.41,0,0,0,4.41-1,10.78,10.78,0,0,0,3.44-2.82,13.3,13.3,0,0,0,2.22-4.15,16.34,16.34,0,0,0,0-10.07,13.43,13.43,0,0,0-2.25-4.16,10.89,10.89,0,0,0-3.44-2.82,9.79,9.79,0,0,0-8.74,0,10.71,10.71,0,0,0-3.42,2.82,13.67,13.67,0,0,0-2.26,4.16,15.54,15.54,0,0,0-.81,5.06,15.24,15.24,0,0,0,.81,5,13.74,13.74,0,0,0,2.26,4.15,10.71,10.71,0,0,0,3.42,2.82,9.34,9.34,0,0,0,4.37,1Zm52.29-34h15.91v7.6h-3.4v34.3H163l-17.44-27.09v19.52h3.51v7.57H133.16v-7.57h3.45V135.15h-3.4v-7.6h12.66L163.2,155V135.15h-3.57Zm27.63,34.32h4.34v-27h-5.08v5.42h-9V127.55h38.11v12.74h-9.07v-5.42h-5.77v27h4.42v7.58H187.27Z" style="fill:#2d7198"/><path id="Path_218" data-name="Path 218" d="M236.19,156a3.56,3.56,0,0,0-2.07.5,3.92,3.92,0,0,0-1.05,1.1,5.45,5.45,0,0,0-.77,2.77,7.07,7.07,0,0,0,.28,2.09,4.47,4.47,0,0,0,.74,1.48,3.13,3.13,0,0,0,1.1.88,3,3,0,0,0,1.32.3,3.25,3.25,0,0,0,1.67-.37,3.1,3.1,0,0,0,1-.93,5,5,0,0,0,.6-1.25c.15-.45.29-.89.44-1.31l1-3.16a14.91,14.91,0,0,1,1-2.51,6.8,6.8,0,0,1,1.37-1.83,5.33,5.33,0,0,1,1.82-1.12,6.74,6.74,0,0,1,2.4-.38,6.31,6.31,0,0,1,2.73.6,6.71,6.71,0,0,1,2.17,1.68,8.13,8.13,0,0,1,1.45,2.58,9.92,9.92,0,0,1,.52,3.28,10.75,10.75,0,0,1-.41,3.14,7.25,7.25,0,0,1-1.11,2.18,5.82,5.82,0,0,1-1.59,1.42,9.43,9.43,0,0,1-1.83.83v1.19h-2.7v-3.95a5.72,5.72,0,0,0,2.46-.37,3.29,3.29,0,0,0,1.2-1,4.66,4.66,0,0,0,.72-1.57,7.45,7.45,0,0,0,.24-2,6.58,6.58,0,0,0-.25-1.92,4.2,4.2,0,0,0-.72-1.45,3.27,3.27,0,0,0-1.16-.93,3.62,3.62,0,0,0-1.55-.32,3.09,3.09,0,0,0-1.62.4,4,4,0,0,0-1.13,1,5.6,5.6,0,0,0-.77,1.37c-.2.49-.37,1-.52,1.43l-1,3.43a10.11,10.11,0,0,1-.87,2.06,6.26,6.26,0,0,1-1.3,1.6,5.63,5.63,0,0,1-1.8,1,7.33,7.33,0,0,1-2.37.36,6.37,6.37,0,0,1-2.55-.53,6,6,0,0,1-2.09-1.57,7.66,7.66,0,0,1-1.4-2.53,10.75,10.75,0,0,1-.51-3.42,9.21,9.21,0,0,1,.3-2.34,7.45,7.45,0,0,1,.84-1.94,6.41,6.41,0,0,1,1.3-1.54,7.29,7.29,0,0,1,1.67-1.12v-1.18h2.69Zm-6.45-22.9v-9.6a10,10,0,0,1,.41-2.94,6.71,6.71,0,0,1,1.22-2.32,5.48,5.48,0,0,1,2-1.52,6.74,6.74,0,0,1,2.77-.54,5.94,5.94,0,0,1,2.45.53,6.2,6.2,0,0,1,2,1.5,7.1,7.1,0,0,1,1.36,2.33,8.39,8.39,0,0,1,.5,3v4.22h8.3v-2.38h2.7v7.7h-2.7v-2.25H232.45v2.26Zm2.71-5.33h7.47v-4.27a5.35,5.35,0,0,0-.25-1.64,3.66,3.66,0,0,0-.71-1.28,3.18,3.18,0,0,0-1.17-.85,4.17,4.17,0,0,0-1.63-.3,3.55,3.55,0,0,0-2.74,1.06,5,5,0,0,0-1,3.4ZM250.78,83V81l-5.38,1.88V92l5.38,1.84V91.41h2.7v7.7h-2.7V97l-21-7.38V85l21-7.38V75.28h2.7V83Zm-8,8.14V83.8l-10.62,3.7ZM236,39.91a7.69,7.69,0,0,0-2.8,2.78,7.39,7.39,0,0,0-1,3.86,7.23,7.23,0,0,0,.77,3.32A8.05,8.05,0,0,0,235,52.45a9.66,9.66,0,0,0,3,1.67,11.5,11.5,0,0,0,7.51-.06,8.77,8.77,0,0,0,2.86-1.72,9.31,9.31,0,0,0,1.89-2.52,6.87,6.87,0,0,0,.76-3.27,7.66,7.66,0,0,0-1.2-4.31,9.3,9.3,0,0,0-3.94-3.13l1.3-2.75a9.39,9.39,0,0,1,3.27,2A10.79,10.79,0,0,1,253,41.89a11,11,0,0,1,1,4.63A10.68,10.68,0,0,1,253,51a11.41,11.41,0,0,1-2.6,3.63,11.7,11.7,0,0,1-4,2.43,14.28,14.28,0,0,1-4.84.83,13.68,13.68,0,0,1-4.79-.83,12.27,12.27,0,0,1-3.93-2.35,11.12,11.12,0,0,1-2.63-3.6,10.61,10.61,0,0,1-1-4.54,10.28,10.28,0,0,1,.62-3.76,10.6,10.6,0,0,1,1.47-2.68,10.74,10.74,0,0,1,1.85-1.9V36.55H236ZM229.74,17V0h6.72V3.21h-4v8.47h7.6V4.56h2.69v7.12h8V3.21h-4V0h6.7V17h-2.7V14.75H232.45V17Z" style="fill:#4e798d"/><path id="Path_223" data-name="Path 223" d="M53.72,79.19h2.12v-17H53.72V59.38H60.8l7.09,19.29,7.17-19.29h6.71v2.81H79.66v17h2.11v2.53H74.52V79.19h2.39V62L69.09,81.72h-2.5L58.67,62v17.2H61v2.53H53.72Zm51.52,0h1.86l-1.77-5.07H96.74L95,79.19h2.3v2.53H90.06V79.19h2L99,59.38h4.35l6.94,19.81h2.24v2.53h-7.25Zm-7.66-7.52h6.9l-3.48-10Zm23.21-12.29h9.3a9.19,9.19,0,0,1,2.75.39A6.35,6.35,0,0,1,135,60.92a5.21,5.21,0,0,1,1.43,1.89,6.15,6.15,0,0,1,.52,2.61,4.69,4.69,0,0,1-.3,1.66,6,6,0,0,1-.84,1.52,6.27,6.27,0,0,1-1.28,1.24,5.7,5.7,0,0,1-1.6.84,3.42,3.42,0,0,1,.74.47,4.09,4.09,0,0,1,.71.73,6.12,6.12,0,0,1,1,2.18l1.24,4.86h1.94l0,2.8h-4.34l-1.67-6.79a5.29,5.29,0,0,0-1.39-2.69,3.63,3.63,0,0,0-2.56-.87H125.8v7.82H128v2.53h-7.25V79.19h2.12V61.93h-2.12Zm5,2.55v7h4.29a5.36,5.36,0,0,0,1.54-.22,3.44,3.44,0,0,0,1.21-.67,3.15,3.15,0,0,0,.8-1.1,3.76,3.76,0,0,0,.28-1.52,3.37,3.37,0,0,0-1-2.6,4.59,4.59,0,0,0-3.18-.92Zm39.76,19.88V77.33a7.9,7.9,0,0,1-1.4,2,8.1,8.1,0,0,1-1.87,1.42,9.33,9.33,0,0,1-2.2.84,10.6,10.6,0,0,1-2.38.28,11.06,11.06,0,0,1-4-.73,9.35,9.35,0,0,1-3.34-2.32,10.75,10.75,0,0,1-2.28-3.78,13.32,13.32,0,0,1-.79-4.55,12.83,12.83,0,0,1,.79-4.51,11.25,11.25,0,0,1,2.21-3.7,10.18,10.18,0,0,1,7.66-3.38,10.1,10.1,0,0,1,3.65.6,10.43,10.43,0,0,1,2.6,1.47,11.77,11.77,0,0,1,1.74,1.64h1.43v2.63h-3.17a7.31,7.31,0,0,0-2.62-2.65,6.78,6.78,0,0,0-3.65-.95,6.86,6.86,0,0,0-3.11.72,7.63,7.63,0,0,0-2.42,2,9,9,0,0,0-1.57,2.82,9.8,9.8,0,0,0-.56,3.36,10.51,10.51,0,0,0,.62,3.64,8.11,8.11,0,0,0,1.57,2.73,7.66,7.66,0,0,0,2.37,1.73,7,7,0,0,0,3.11.69,6.71,6.71,0,0,0,7.18-5.68h-6.25V71.09h9.45V81.81Zm13.6-22.43h7.13v2.55h-2.12V79.19h2.12v2.53h-7.14V79.19h2.12V61.93h-2.12Zm31.21,0h7.25v2.55h-1.9V81.72H212l-10.4-18.53v16h2.3v2.53H196.6V79.19h2.06V61.93h-2.12V59.35h6l10.2,18.35.12-.71V61.93h-2.5Z" style="fill:#225576"/><path id="Path_219" data-name="Path 219" d="M52.69,192.74H64.38a14.54,14.54,0,0,1,4.1.56,14.69,14.69,0,0,1,6.67,4,14.79,14.79,0,0,1,2.34,3.16A16.11,16.11,0,0,1,79,204.21a16.62,16.62,0,0,1,.52,4.15,17,17,0,0,1-.52,4.21,16.33,16.33,0,0,1-1.48,3.77,15.34,15.34,0,0,1-2.33,3.2,14.77,14.77,0,0,1-6.68,4.06,15.3,15.3,0,0,1-4.1.56H52.69v-3.57h3V196.32h-3Zm7.05,3.58v24.27h4.89a9.06,9.06,0,0,0,4.09-1,10.77,10.77,0,0,0,3.35-2.6,12.7,12.7,0,0,0,2.26-3.88,13.74,13.74,0,0,0,.83-4.8,13.34,13.34,0,0,0-.83-4.72,12.46,12.46,0,0,0-2.26-3.83,10.5,10.5,0,0,0-3.35-2.56,9.18,9.18,0,0,0-4.09-.93Zm32.68-3.58h22.5v8.89h-4.24v-5.31H99.46v10.05h9.43v3.57H99.46v10.65h11.22v-5.31h4.24v8.88H92.42v-3.57h3V196.32h-3Zm51.24,8.54a4.62,4.62,0,0,0-.66-2.74,5.12,5.12,0,0,0-1.46-1.4,7,7,0,0,0-1.75-.75,7.65,7.65,0,0,0-1.91-.26,9.45,9.45,0,0,0-2.75.37,5.73,5.73,0,0,0-2,1,4.1,4.1,0,0,0-1.17,1.45,3.92,3.92,0,0,0-.4,1.74,4.45,4.45,0,0,0,.49,2.21,4,4,0,0,0,1.23,1.35,6.63,6.63,0,0,0,1.65.8c.6.19,1.18.38,1.73.58l4.19,1.37a20,20,0,0,1,3.32,1.36,9.16,9.16,0,0,1,2.42,1.82,7.23,7.23,0,0,1,1.48,2.41,9,9,0,0,1,.51,3.17,8.2,8.2,0,0,1-.8,3.61,8.6,8.6,0,0,1-2.23,2.88,10.46,10.46,0,0,1-3.41,1.92,13.06,13.06,0,0,1-4.34.69,13.58,13.58,0,0,1-4.15-.55,9.08,9.08,0,0,1-2.89-1.47,7.66,7.66,0,0,1-1.87-2.1,11.47,11.47,0,0,1-1.1-2.42h-1.58v-3.57h5.22A7.8,7.8,0,0,0,132,218a4.44,4.44,0,0,0,1.36,1.59,6.18,6.18,0,0,0,2.07,1,9.94,9.94,0,0,0,2.66.32,9.13,9.13,0,0,0,2.54-.33,5.5,5.5,0,0,0,1.92-1,4.29,4.29,0,0,0,1.23-1.54,4.75,4.75,0,0,0,.42-2,4,4,0,0,0-.53-2.14,5.11,5.11,0,0,0-1.35-1.5,7.94,7.94,0,0,0-1.82-1c-.66-.26-1.29-.49-1.9-.68L134,209.34a12.8,12.8,0,0,1-2.72-1.16,8,8,0,0,1-2.12-1.72,7,7,0,0,1-1.35-2.38,9.28,9.28,0,0,1-.48-3.14,8.15,8.15,0,0,1,.7-3.37,7.84,7.84,0,0,1,2.07-2.76,10.13,10.13,0,0,1,3.35-1.86,14.17,14.17,0,0,1,4.53-.67,11.56,11.56,0,0,1,3.1.39,10,10,0,0,1,2.57,1.11,9,9,0,0,1,2,1.72,9.93,9.93,0,0,1,1.48,2.21h1.56v3.57Zm17.47-8.54h10v3.58h-3v24.27h3v3.57h-10v-3.57h3V196.32h-3Zm48.7,31.54V218a10.6,10.6,0,0,1-2,2.85,10.89,10.89,0,0,1-2.63,2,12.82,12.82,0,0,1-3.1,1.19,14.54,14.54,0,0,1-3.35.39,15.22,15.22,0,0,1-5.66-1,12.89,12.89,0,0,1-4.69-3.26,15.24,15.24,0,0,1-3.22-5.31,18.82,18.82,0,0,1-1.11-6.4,18.28,18.28,0,0,1,1.11-6.34,16.11,16.11,0,0,1,3.11-5.2,14.39,14.39,0,0,1,4.77-3.48,14.24,14.24,0,0,1,6-1.26,13.6,13.6,0,0,1,5.13.85,14.12,14.12,0,0,1,3.67,2.06,16.09,16.09,0,0,1,2.43,2.31h2V201h-4.45a10.44,10.44,0,0,0-3.68-3.73,9.53,9.53,0,0,0-5.13-1.33,9.33,9.33,0,0,0-4.37,1,10.4,10.4,0,0,0-3.41,2.73,12.66,12.66,0,0,0-2.21,4,14.11,14.11,0,0,0-.79,4.73,14.93,14.93,0,0,0,.87,5.12,11.58,11.58,0,0,0,2.22,3.83,10.86,10.86,0,0,0,3.33,2.44,9.92,9.92,0,0,0,4.38,1,9.46,9.46,0,0,0,10.1-8H200.4v-3.58h13.28v15.07Zm38.56-31.54h10.2v3.58h-2.67v27.84h-5.31L236,198.1v22.49h3.23v3.57H229v-3.57h2.9V196.32h-3V192.7h8.45l14.35,25.8.16-1V196.32h-3.52Z" style="fill:#5f88b1"/><path id="Path_224" data-name="Path 224" d="M62.53,98.59V97h3.21v1.59h-1.1l-6.11,5.15,5.72,5.64h1.49V111H62v-1.58l-5.54-5.55ZM53.3,97h4.54v1.59H56.41v10.79h1.4V111H53.28v-1.58h1.33V98.59H53.3Zm23.85,0h10v4H85.27V98.59h-5v4.47h4.2v1.58h-4.2v4.74h5V107h1.89V111h-10v-1.58h1.32V98.59H77.15Zm21.28,0h5.81a5.55,5.55,0,0,1,1.72.24,4,4,0,0,1,1.37.72,3.47,3.47,0,0,1,.9,1.18,4,4,0,0,1,.32,1.63,3,3,0,0,1-.19,1,3.55,3.55,0,0,1-.53,1,4.22,4.22,0,0,1-.8.78,3.66,3.66,0,0,1-1,.52,2.47,2.47,0,0,1,.47.29,3.19,3.19,0,0,1,.44.46,4,4,0,0,1,.38.62,4.11,4.11,0,0,1,.27.74l.77,3h1.21l0,1.75h-2.72l-1-4.24A3.36,3.36,0,0,0,105,105a2.29,2.29,0,0,0-1.6-.54h-1.8v4.88H103V111H98.43v-1.58h1.33V98.59H98.43Zm3.13,1.59V103h2.68a3.5,3.5,0,0,0,1-.14,2.23,2.23,0,0,0,.75-.42,1.85,1.85,0,0,0,.5-.68,2.28,2.28,0,0,0,.18-1,2.1,2.1,0,0,0-.62-1.62,2.91,2.91,0,0,0-2-.58ZM129.94,97h4.53v1.59h-1.19V111h-2.36l-6.49-11.58v10h1.43V111h-4.53v-1.58h1.29V98.59H121.3V97h3.75l6.38,11.47.07-.44V98.59h-1.56Zm15.75,0h4.46v1.59h-1.33v10.79h1.33V111h-4.46v-1.58H147V98.59h-1.32Zm25.16,0h4.54v1.59H174.2V111h-2.36l-6.49-11.58v10h1.43V111h-4.53v-1.58h1.29V98.59h-1.33V97H166l6.38,11.47.07-.44V98.59h-1.57Zm26.54,14v-2.8a4.61,4.61,0,0,1-.88,1.26,4.42,4.42,0,0,1-1.17.89,5.56,5.56,0,0,1-1.37.53,7,7,0,0,1-4-.28,5.92,5.92,0,0,1-2.08-1.45,6.74,6.74,0,0,1-1.43-2.36A8.14,8.14,0,0,1,186,104a8,8,0,0,1,.49-2.82,7.24,7.24,0,0,1,1.38-2.31A6.38,6.38,0,0,1,190,97.28a6.29,6.29,0,0,1,2.66-.56,6.11,6.11,0,0,1,2.28.38,6.2,6.2,0,0,1,1.63.91,7.59,7.59,0,0,1,1.09,1h.89v1.64h-2A4.74,4.74,0,0,0,194.88,99a4.25,4.25,0,0,0-2.28-.59,4.35,4.35,0,0,0-1.94.45,4.85,4.85,0,0,0-1.52,1.22,5.85,5.85,0,0,0-1,1.76,6.47,6.47,0,0,0-.35,2.1,6.77,6.77,0,0,0,.39,2.27,5,5,0,0,0,1,1.7,4.82,4.82,0,0,0,1.48,1.09,4.33,4.33,0,0,0,1.94.43,4.67,4.67,0,0,0,2.9-.86,4.62,4.62,0,0,0,1.59-2.69h-3.91v-1.58h5.9V111Z" style="fill:#0099d1"/><path id="Path_203" data-name="Path 203" d="M7.49,9.88v3.9h24.3V9.2H26.92V1.1H38.38V35.4H26.92V27.24h4.87V22H7.49v4H.68V9.88ZM38.38,37.33V53.48H31.54V50.32l-8.66,5,8.66,5.34v-3.6h6.84V73.25H31.54V70.46L16.32,59.25H7.49v4.57H.68V47H7.49v4.18h8.93L31.54,40.64V37.33Zm0,39.85V94.59a15.28,15.28,0,0,1-.91,5.35,13.35,13.35,0,0,1-2.45,4.2,11.57,11.57,0,0,1-3.56,2.76,9.4,9.4,0,0,1-4.2,1,15.32,15.32,0,0,1-4.93-.78,10.57,10.57,0,0,1-4-2.43,11.48,11.48,0,0,1-2.67-4.15,16.26,16.26,0,0,1-1-5.94V89.34H7.49V92.8H.68V77.18H7.49v3.9h24v-3.9ZM31.54,89.34H21.42v3.41a7.61,7.61,0,0,0,1.19,4.5,4.33,4.33,0,0,0,3.78,1.66,4.76,4.76,0,0,0,3.79-1.56,6.85,6.85,0,0,0,1.37-4.6ZM0,129.06a16.93,16.93,0,0,1,.7-4.9,17.32,17.32,0,0,1,2-4.36,18,18,0,0,1,3-3.69,19.11,19.11,0,0,1,4-2.82,20.47,20.47,0,0,1,4.66-1.81,21.09,21.09,0,0,1,10.41,0,20.19,20.19,0,0,1,4.68,1.82,18.58,18.58,0,0,1,3.95,2.82,18,18,0,0,1,3.05,3.68,17.81,17.81,0,0,1,2,4.36,17.46,17.46,0,0,1-2,14.19,18.22,18.22,0,0,1-3,3.68,19.76,19.76,0,0,1-4,2.84,21.09,21.09,0,0,1-15.07,1.83,20.79,20.79,0,0,1-4.67-1.83,19.48,19.48,0,0,1-4-2.84,17.89,17.89,0,0,1-3-3.68A17.1,17.1,0,0,1,.7,134a17.34,17.34,0,0,1-.7-4.91Zm7.81,0a8.68,8.68,0,0,0,.93,4,9.76,9.76,0,0,0,2.54,3.1,12,12,0,0,0,3.73,2,14.72,14.72,0,0,0,9.07,0,11.8,11.8,0,0,0,3.74-2,9.87,9.87,0,0,0,2.54-3.1,8.77,8.77,0,0,0,0-7.86A9.62,9.62,0,0,0,27.82,122a12.22,12.22,0,0,0-3.74-2,13.85,13.85,0,0,0-4.55-.73A13.63,13.63,0,0,0,15,120a12.2,12.2,0,0,0-3.73,2,9.82,9.82,0,0,0-2.54,3.08,8.52,8.52,0,0,0-.93,3.93ZM.68,179.63H7.14a15.42,15.42,0,0,1-4-3,12.48,12.48,0,0,1-2-3.32,12.92,12.92,0,0,1-.74-5,15.24,15.24,0,0,1,.36-3.08,17.57,17.57,0,0,1,.94-3,21.57,21.57,0,0,1,1.47-2.82,14,14,0,0,1,2-2.5,20.17,20.17,0,0,1,6.45-4.29,20.52,20.52,0,0,1,8-1.53,20.31,20.31,0,0,1,5.15.65,20,20,0,0,1,4.65,1.82,18.52,18.52,0,0,1,3.94,2.82,18.27,18.27,0,0,1,3,3.68,17.61,17.61,0,0,1,2,4.36,17,17,0,0,1,.7,4.9,14.94,14.94,0,0,1-.78,5.1,15.59,15.59,0,0,1-2.92,4.66v5.57H26.92V177a10.76,10.76,0,0,0,2.56-2.15,10.37,10.37,0,0,0,1.32-2.19,8.43,8.43,0,0,0,.52-3.3,8.19,8.19,0,0,0-.95-3.88,9.79,9.79,0,0,0-2.55-3.1A12,12,0,0,0,24,160.32a13.89,13.89,0,0,0-8.76-.08,10.94,10.94,0,0,0-3.67,2,9.36,9.36,0,0,0-2.5,3.19,8.81,8.81,0,0,0-.87,3.88A7.26,7.26,0,0,0,9.78,174a8.57,8.57,0,0,0,4.2,2.83v-7.19H20.8v17.46H.68ZM38.38,193v20a14.65,14.65,0,0,1-.87,5.2A11.69,11.69,0,0,1,35.18,222a10.06,10.06,0,0,1-7.4,3.24,12.32,12.32,0,0,1-3.36-.41,8.44,8.44,0,0,1-2.56-1.2,8.8,8.8,0,0,1-2-1.92,15.7,15.7,0,0,1-1.55-2.62,6.28,6.28,0,0,1-2,2.24,9.64,9.64,0,0,1-3.44,1.47L8,224.05v3.11l-7.34.05v-11l9-1.49a12.35,12.35,0,0,0,2.74-.68,5.2,5.2,0,0,0,1.89-1.23A4.94,4.94,0,0,0,15.35,211a9,9,0,0,0,.34-2.63v-3.2H7.49v3.45H.68V193H7.49v3.9h24V193Zm-6.84,12.16H22.41v5a11.41,11.41,0,0,0,.26,2.54,5.57,5.57,0,0,0,.82,1.94,3.77,3.77,0,0,0,1.41,1.25,4.36,4.36,0,0,0,2,.43,4.05,4.05,0,0,0,3.41-1.56,7.37,7.37,0,0,0,1.22-4.6Zm-24,45.3v3.76l5.42-1.7V240.91l-5.42-1.69v4H.68V228.9H7.49v2.81L38.38,242v10L7.49,262v2.74H.68v-14.3Zm11.79-7.56v7.61l12.26-3.83Zm19.1,25.24v17.41a15.28,15.28,0,0,1-.91,5.35,13.35,13.35,0,0,1-2.45,4.2,11.57,11.57,0,0,1-3.56,2.76,9.4,9.4,0,0,1-4.2,1,15,15,0,0,1-4.93-.78,10.67,10.67,0,0,1-4-2.42,11.6,11.6,0,0,1-2.67-4.16,16.26,16.26,0,0,1-1-5.94v-5.25H7.49v3.46H.68V268.12H7.49V272h24v-3.9Zm-6.84,12.16H21.42v3.41a7.61,7.61,0,0,0,1.19,4.5,4.3,4.3,0,0,0,3.78,1.66,4.75,4.75,0,0,0,3.79-1.55,6.86,6.86,0,0,0,1.37-4.6Zm6.84,47.91v16.16H31.54v-4h-24v4H.68V328.19H7.49v3.93h9.65v-17H7.49v4H.68V302.94H7.49v3.9h24v-3.9h6.84v16.14H31.54v-4H23.7v17h7.84v-3.93Zm0,20.12v16.14H31.54v-3.16l-8.66,5,8.66,5.35v-3.61h6.84v16.14H31.54v-2.78L16.32,370.22H7.49v4.58H.68V358H7.49v4.18h8.93l15.12-10.54v-3.31Z" style="fill:#094c84"/><path id="Path_226" data-name="Path 226" d="M64.23,40.73H68.4V5.4H58v7.06H51.9V.49H92.37v12H86.24V5.4h-12V40.73h4.67v5.15H64.23ZM95.13.49h14.73V5.67h-4.31l8.53,14.58,9.13-14.58h-4.73V.49h14.73V5.67h-3.86L116.6,25V40.73h4.67v5.15H106.54V40.73h4.16V24.86l-12-19.19H95.13Zm43.29,0h18.36a19,19,0,0,1,5.61.79,12.94,12.94,0,0,1,4.43,2.34,10.43,10.43,0,0,1,2.9,3.84,12.72,12.72,0,0,1,1,5.3,11,11,0,0,1-1,4.69,11.56,11.56,0,0,1-2.87,3.85,14.11,14.11,0,0,1-4.45,2.6,16.35,16.35,0,0,1-5.76,1H148.6V40.73h4.55v5.15H138.42V40.73h4.31V5.67h-4.31ZM148.6,5.67V20h8.17a10.36,10.36,0,0,0,3.13-.46,7,7,0,0,0,2.45-1.37A6.12,6.12,0,0,0,164,15.88a7.59,7.59,0,0,0,.58-3.12,6.72,6.72,0,0,0-2-5.22q-2-1.87-6.5-1.87ZM176.5.49H209V13.33h-6.14V5.67h-16.2V20.19h13.62v5.15H186.68V40.73h16.2V33.06H209V45.88H176.5V40.73h4.31V5.67H176.5Z" style="fill:#094c84"/></g></svg>
