<svg id="Layer_1" data-name="Layer 1" xmlns="http://www.w3.org/2000/svg" viewBox="0 0 271.9 384.16"><title>Audrey</title><g id="Group_145" data-name="Group 145"><path id="Path_234" data-name="Path 234" d="M46.94,358.82v25.11h3.59v-3.8c0-.83,0-1.4,0-2.47v-5.55h2.69c2.86,0,4.85-.1,6-.67a5.79,5.79,0,0,0,2.62-2.3,6.9,6.9,0,0,0,.9-3.55,5.77,5.77,0,0,0-1.32-3.88,7.34,7.34,0,0,0-3.42-2.2,21.83,21.83,0,0,0-6-.7Zm11,10.43A3.8,3.8,0,0,1,55.73,371a12.13,12.13,0,0,1-3.45.31H50.53V359.93c.42,0,1-.07,1.89-.07,2.27,0,3.9.49,4.92,1.47s1.5,2.48,1.5,4.53A6.13,6.13,0,0,1,58,369.25Zm10.89,4.64,4.29-10.54,4.4,10.54Zm10.88,5.44s.56,1.36,1.88,4.6h4L74.88,358.82h-.73l-10.4,25.11h1.33l3.52-9.21h9.25Zm13.19-20.51v25.11h3.55V372h1.08c6.8,0,10.5,10.78,10.78,11.93h2.86a41.17,41.17,0,0,0-4.15-8.12,11.47,11.47,0,0,0-5-4.26,9.44,9.44,0,0,0,5.27-2.37A5.58,5.58,0,0,0,109.1,365a5.2,5.2,0,0,0-1.36-3.6,7.62,7.62,0,0,0-3.59-2,20.3,20.3,0,0,0-5.76-.59Zm3.55,12.35V359.86H98c2.9,0,4.88.35,5.76,1.4a6.18,6.18,0,0,1,1.29,4.12,6.58,6.58,0,0,1-.39,2.48,4.59,4.59,0,0,1-2.79,2.75,8.31,8.31,0,0,1-2.51.56Zm27,2.72,4.29-10.54,4.4,10.54Zm10.89,5.44s.56,1.36,1.88,4.6h3.95l-10.68-25.11h-.73l-10.4,25.11h1.33l3.52-9.21h9.25Zm28.46-1.64a5.84,5.84,0,0,1-.52,2.76,4,4,0,0,1-2,1.84,7.1,7.1,0,0,1-3.35.77,7.87,7.87,0,0,1-6.07-2.68c-1.64-1.82-2.48-4.85-2.48-9.14s.88-7.33,2.55-9a8.08,8.08,0,0,1,6-2.55,7.82,7.82,0,0,1,5.59,2.2,7.69,7.69,0,0,1,1.18,1.36l.8-.84v-.1a10.12,10.12,0,0,0-8-3.49,11,11,0,0,0-8.89,3.9,13.68,13.68,0,0,0-3.28,9.1,11.68,11.68,0,0,0,11.27,12.1h.8a16.14,16.14,0,0,0,5.65-1.15,9.75,9.75,0,0,0,2.47-1.71,4.94,4.94,0,0,0,1.78-3.87v-4h-3.49Zm10.68-18.87v25.11h3.56V372h1.08c6.8,0,10.5,10.78,10.78,11.93h2.86a41.72,41.72,0,0,0-4.15-8.12,11.47,11.47,0,0,0-5-4.26,9.47,9.47,0,0,0,5.27-2.37,5.58,5.58,0,0,0,1.78-4.15,5.25,5.25,0,0,0-1.36-3.6,7.65,7.65,0,0,0-3.6-2,20.27,20.27,0,0,0-5.75-.59Zm3.56,12.34v-11.3h1.57c2.9,0,4.88.35,5.75,1.4a6.08,6.08,0,0,1,1.29,4.12,6.77,6.77,0,0,1-.38,2.48,4.66,4.66,0,0,1-2.79,2.75,8.31,8.31,0,0,1-2.51.56Zm27,2.73,4.29-10.54,4.4,10.54ZM215,379.33l1.89,4.6h3.94l-10.68-25.11h-.73L199,383.93h1.32l3.52-9.21h9.24Zm13.05-20.51v25.11h3.59v-3.8c0-.83,0-1.4,0-2.47v-5.55h2.69c2.86,0,4.85-.1,6-.67a5.77,5.77,0,0,0,2.61-2.3,6.91,6.91,0,0,0,.91-3.55,5.83,5.83,0,0,0-1.33-3.88,7.31,7.31,0,0,0-3.41-2.2,21.87,21.87,0,0,0-6-.7Zm11,10.43a3.86,3.86,0,0,1-2.23,1.71,12.13,12.13,0,0,1-3.45.31h-1.75V359.93c.42,0,1.05-.07,1.88-.07q3.4,0,4.92,1.47c1,.94,1.5,2.48,1.5,4.53A6.12,6.12,0,0,1,239.07,369.25Zm29.2-10.43v11.47h-13.4V358.82h-3.63v25.11h3.63V371.17h13.4v12.76h3.63V358.82Z" style="fill:#258abf"/><path id="Path_241" data-name="Path 241" d="M60.29,259.82a4.52,4.52,0,0,1-1.87,1.65,6.55,6.55,0,0,1-2.68.64,5.24,5.24,0,0,1-4.13-2A8.62,8.62,0,0,1,50,254.49a10,10,0,0,1,1.51-6,4.82,4.82,0,0,1,4.1-2.1,6,6,0,0,1,3.77,1.3,4.12,4.12,0,0,1,.92,1l.47-.45v-.07a7.16,7.16,0,0,0-2.19-1.63,7.47,7.47,0,0,0-3.32-.75,8.21,8.21,0,0,0-4.08,1,6.83,6.83,0,0,0-2.9,3.18,10.2,10.2,0,0,0-1,4.57,8.13,8.13,0,0,0,2.24,5.94,7.94,7.94,0,0,0,5.8,2.24,7.05,7.05,0,0,0,5.51-2.48Zm15.79-14v7.75H67v-7.75H64.57v17H67v-8.63h9v8.63h2.45v-17ZM86.42,256l2.9-7.12,3,7.12Zm7.36,3.68s.37.92,1.27,3.11h2.66l-7.21-17H90l-7,17h.9l2.37-6.22H92.5Zm8.2-13.86v17h2.4v-8.06h.73c4.6,0,7.09,7.28,7.28,8.06h1.94a28.11,28.11,0,0,0-2.8-5.49,7.81,7.81,0,0,0-3.38-2.88,6.39,6.39,0,0,0,3.56-1.6,3.72,3.72,0,0,0,1.2-2.8,3.46,3.46,0,0,0-.92-2.43,5.06,5.06,0,0,0-2.42-1.37,13.77,13.77,0,0,0-3.89-.4Zm2.4,8.34v-7.63h1.06c2,0,3.3.23,3.89.94a4.11,4.11,0,0,1,.87,2.78,4.33,4.33,0,0,1-.26,1.67,2.76,2.76,0,0,1-.7,1.11,2.94,2.94,0,0,1-1.18.75,5.82,5.82,0,0,1-1.7.38ZM121.94,256l2.9-7.12,3,7.12Zm7.35,3.68,1.28,3.11h2.66l-7.21-17h-.5l-7,17h.9l2.38-6.22H128Zm19.19.14a4.5,4.5,0,0,1-1.86,1.65,6.6,6.6,0,0,1-2.69.64,5.23,5.23,0,0,1-4.12-2,8.57,8.57,0,0,1-1.66-5.66,10.1,10.1,0,0,1,1.51-6,4.84,4.84,0,0,1,4.1-2.1,6,6,0,0,1,3.78,1.3,4.29,4.29,0,0,1,.91,1l.48-.45v-.07a7.21,7.21,0,0,0-2.2-1.63,7.47,7.47,0,0,0-3.32-.75,8.17,8.17,0,0,0-4.07,1,6.73,6.73,0,0,0-2.9,3.18,10.07,10.07,0,0,0-1,4.57,8.13,8.13,0,0,0,2.24,5.94,8,8,0,0,0,5.8,2.24,7.07,7.07,0,0,0,5.51-2.48Zm17.75-14h-16.5l0,.57h7v16.39h2.45V246.39h7.08Zm6.29,16.38v-8h4.9v-.59h-4.9v-7.18H180v-.57h-9.9v17h9.85v-.59Zm11-16.38v17H186v-8.06h.74c4.6,0,7.09,7.28,7.28,8.06h1.93a28.11,28.11,0,0,0-2.8-5.49,7.73,7.73,0,0,0-3.37-2.88,6.36,6.36,0,0,0,3.55-1.6,3.72,3.72,0,0,0,1.2-2.8,3.5,3.5,0,0,0-.91-2.43,5.22,5.22,0,0,0-2.43-1.37,14.14,14.14,0,0,0-3.89-.4Zm2.4,8.34v-7.63H187c1.95,0,3.3.23,3.88.94a4.17,4.17,0,0,1,.88,2.78,4.5,4.5,0,0,1-.26,1.67,2.9,2.9,0,0,1-.71,1.11,2.8,2.8,0,0,1-1.18.76,5.44,5.44,0,0,1-1.7.37Z" style="fill:#2371aa"/><path id="Path_237" data-name="Path 237" d="M74,318a10.6,10.6,0,0,0-3.55-4.48A69.86,69.86,0,0,0,63,308.81c-3.61-2.15-6.06-3.93-7.35-5.46a6.56,6.56,0,0,1,.55-9.44c1.29-1.22,3.19-1.71,5.7-1.41a9.57,9.57,0,0,1,6.62,3.5,14.56,14.56,0,0,1,1.22,1.59l1.35-1.1a13.14,13.14,0,0,0-4.47-4.11,14.75,14.75,0,0,0-4.9-1.41,11.08,11.08,0,0,0-8.21,2.15,9.84,9.84,0,0,0-3.93,7.17,11.45,11.45,0,0,0,.8,5.7A12.06,12.06,0,0,0,54,310.64a64.51,64.51,0,0,0,7.23,4.66q5.41,3,7.35,5.33a7.09,7.09,0,0,1,1.53,5.52,7.81,7.81,0,0,1-3,5.39,8.77,8.77,0,0,1-7.17,1.78c-4.41-.74-6.92-2.58-10.23-7.3l-1.17,1.29a17.79,17.79,0,0,0,11.77,7.6c4,.43,7.35-.37,10-2.33a11.53,11.53,0,0,0,4.54-8.4A12.2,12.2,0,0,0,74,318Zm46.39-27.21H77.51l-.07,1.47h18.2v42.65H102V292.26H120.4Zm44.37,0-14.28,24.82-14.34-24.82h-8l16.91,27v17.1h6.32V317.39l16.11-26.6Zm20.34,42.65V290.79h-6.37v44.12h30.7v-1.47Zm39.22-.06v-20.9h12.75V311H224.33V292.26h19.43v-1.47H218v44.12h25.61v-1.53Z" style="fill:#24648d"/><path id="Path_248" data-name="Path 248" d="M75.23,127.13V123H47.67v45.43h8.85v-21.8H68.81v-4.1H56.52V127.13Zm33.08,4.69c2.38,3,3,7.48,3,13.9,0,6.59-.71,11.11-3,14A10.94,10.94,0,0,1,99,164.25c-4.81,0-7-1.43-9.44-4.51s-3.68-7.6-3.68-14.08,1.31-11,3.68-14,4.51-4.51,9-4.51c4.63,0,7.43,1.54,9.8,4.63Zm6.06,30.29c4.45-4.22,6.65-9.74,6.65-16.45,0-6.89-2.31-12.48-7-16.63-4.51-4-8.79-6-15.56-6s-11,2.08-15.44,6.12-6.83,9.62-6.83,16.27c0,6.89,2.2,12.47,6.71,16.75s8.67,6.3,15.62,6.3C105.7,168.46,110,166.33,114.37,162.11Zm51.26,6.35V123h-4.46v29.75L138.9,123h-8.49V167.4h4.1V131.64l28,36.82ZM218,127.13,218,123H173.76l-.12,4.1h17.7v41.33h8.79V127.13Z" style="fill:#2d7198"/><path id="Path_249" data-name="Path 249" d="M232.43,158.88a4.31,4.31,0,0,0-1.79,1.43,29.64,29.64,0,0,0-1.89,3,11.64,11.64,0,0,1-2.18,2.94,2.6,2.6,0,0,1-3.69-.13l-.08-.09a2.68,2.68,0,0,1-.57-2.28,3.85,3.85,0,0,1,1.4-2.64,7.25,7.25,0,0,1,.64-.49l-.44-.54a5.21,5.21,0,0,0-1.64,1.79,5.6,5.6,0,0,0-.57,2,4.44,4.44,0,0,0,.86,3.28,3.94,3.94,0,0,0,2.87,1.57,4.57,4.57,0,0,0,2.28-.32,4.73,4.73,0,0,0,1.86-1.42,27.33,27.33,0,0,0,1.86-2.89,10.84,10.84,0,0,1,2.13-2.94,2.85,2.85,0,0,1,2.21-.62,3.12,3.12,0,0,1,2.15,1.2,3.54,3.54,0,0,1,.72,2.87c-.3,1.77-1,2.77-2.92,4.09l.52.47a7.15,7.15,0,0,0,3-4.71,5.52,5.52,0,0,0-.93-4,4.62,4.62,0,0,0-3.36-1.81A4.9,4.9,0,0,0,232.43,158.88Zm-10.88-11.39H239.2V145h-2.67c-.59,0-1,0-1.74,0h-3.9v-1.89a11.31,11.31,0,0,0-.47-4.21A4,4,0,0,0,228.8,137a5,5,0,0,0-2.5-.64,4.07,4.07,0,0,0-2.72.93,5.07,5.07,0,0,0-1.54,2.41,14.75,14.75,0,0,0-.49,4.19Zm7.33-7.75a2.71,2.71,0,0,1,1.2,1.57,8.61,8.61,0,0,1,.22,2.43V145h-8c0-.29-.05-.73-.05-1.32a4.91,4.91,0,0,1,1-3.46,4.19,4.19,0,0,1,3.19-1.05A4.32,4.32,0,0,1,228.88,139.74Zm3.26-17.18-7.4-3,7.4-3.09Zm3.82-7.65,3.24-1.32v-2.77l-17.65,7.5v.51l17.65,7.3v-.93l-6.47-2.47v-6.5Zm.15-28.29a4.59,4.59,0,0,1,1.71,1.94,6.62,6.62,0,0,1,.67,2.79,5.45,5.45,0,0,1-2,4.29,8.9,8.9,0,0,1-5.88,1.72,10.42,10.42,0,0,1-6.2-1.57,5,5,0,0,1-2.18-4.26,6.22,6.22,0,0,1,1.34-3.93,4.43,4.43,0,0,1,1-.95l-.46-.49H224a7.33,7.33,0,0,0-1.69,2.28,7.51,7.51,0,0,0-.78,3.45,8.57,8.57,0,0,0,1.08,4.24,7.08,7.08,0,0,0,3.31,3,10.43,10.43,0,0,0,4.75,1.08,8.48,8.48,0,0,0,6.18-2.33,8.3,8.3,0,0,0,2.33-6,7.36,7.36,0,0,0-2.58-5.74Zm2.47-11.86h-8.35v-5.1h-.62v5.1h-7.47V67h-.59V77.28H239.2V67h-.62v7.73Z" style="fill:#92a6ba"/><path id="Path_254" data-name="Path 254" d="M67.87,90.74H71.3V67H68l-8.68,19.7L50.65,67h-3.3V90.74h.79V69.26l9.44,21.48h.82l9.47-21.49ZM89,81.24l4.05-10,4.16,10Zm10.29,5.14s.52,1.29,1.78,4.36h3.73L94.66,67H94L84.14,90.74h1.25L88.72,82h8.75ZM117.33,67V90.74h3.37V79.45h1c6.43,0,9.93,10.2,10.2,11.29h2.71a39.54,39.54,0,0,0-3.93-7.69A10.94,10.94,0,0,0,126,79a8.83,8.83,0,0,0,5-2.24,5.27,5.27,0,0,0,1.69-3.93,4.93,4.93,0,0,0-1.29-3.4,7.17,7.17,0,0,0-3.4-1.91,18.83,18.83,0,0,0-5.44-.56Zm3.37,11.68V68h1.48c2.74,0,4.62.33,5.45,1.32a5.87,5.87,0,0,1,1.22,3.89,6.21,6.21,0,0,1-.37,2.34,4.46,4.46,0,0,1-2.63,2.61,7.76,7.76,0,0,1-2.38.53Zm41.8,6.17a5.58,5.58,0,0,1-.49,2.61,3.9,3.9,0,0,1-1.92,1.75,6.78,6.78,0,0,1-3.16.72,7.37,7.37,0,0,1-5.74-2.54c-1.55-1.71-2.34-4.59-2.34-8.64s.82-6.93,2.41-8.52a7.69,7.69,0,0,1,5.64-2.41,7.38,7.38,0,0,1,5.28,2.08,7.26,7.26,0,0,1,1.12,1.29l.76-.79v-.1a9.63,9.63,0,0,0-7.53-3.3,10.41,10.41,0,0,0-8.41,3.7,13,13,0,0,0-3.1,8.61,11.07,11.07,0,0,0,11.41,11.45,15.28,15.28,0,0,0,5.34-1.09A9.47,9.47,0,0,0,164.12,88a4.7,4.7,0,0,0,1.68-3.66V80.61h-3.3ZM178.64,67V90.74h3.43V67Zm34.22,0V85l-13.5-18H195.8V90.14h.76V68.86l16.66,21.88h.63V67Z" style="fill:#225576"/><path id="Path_244" data-name="Path 244" d="M52.64,220.72v-29.6c1.07-.09,2.4-.14,3.59-.14a23.14,23.14,0,0,1,6,.71,10.15,10.15,0,0,1,4.25,2.7,12.75,12.75,0,0,1,3,5.1,22.44,22.44,0,0,1,1.06,7.18,17.67,17.67,0,0,1-1.81,8.46,9.09,9.09,0,0,1-4.43,4.43,17.46,17.46,0,0,1-6.78,1.16Zm-4.56,1.06h8.68a51.18,51.18,0,0,0,6.07-.27,15.34,15.34,0,0,0,4.57-1.19,11.7,11.7,0,0,0,4.25-2.93,12.85,12.85,0,0,0,2.88-4.74,18.23,18.23,0,0,0,1.07-6.33,18,18,0,0,0-1.95-8.47,13.81,13.81,0,0,0-5.85-5.8c-2.62-1.46-6.3-2.17-10.95-2.17H48.08Zm49.49-1.11V205.56h9.22v-1.11H97.57V190.94h14.05v-1.06H93v31.9h18.52v-1.11ZM142,209.55a7.84,7.84,0,0,0-2.57-3.24,53.5,53.5,0,0,0-5.37-3.41,22.07,22.07,0,0,1-5.31-3.94,4.72,4.72,0,0,1,.4-6.82,4.83,4.83,0,0,1,4.12-1,7,7,0,0,1,4.78,2.52,12.18,12.18,0,0,1,.89,1.15l1-.8a9.45,9.45,0,0,0-3.23-3,10.44,10.44,0,0,0-3.54-1,8,8,0,0,0-5.94,1.55,7.18,7.18,0,0,0-2.84,5.18,8.35,8.35,0,0,0,.58,4.13,8.75,8.75,0,0,0,2.57,3.36,48,48,0,0,0,5.23,3.37,20,20,0,0,1,5.32,3.86,5.11,5.11,0,0,1,1.1,4,5.59,5.59,0,0,1-2.17,3.9,6.29,6.29,0,0,1-5.18,1.29c-3.19-.53-5-1.86-7.4-5.27l-.84.93a12.87,12.87,0,0,0,8.5,5.49,9.93,9.93,0,0,0,7.22-1.68,8.33,8.33,0,0,0,3.28-6.07A8.9,8.9,0,0,0,142,209.55Zm18.52-19.67v31.9h4.6v-31.9Zm45.37,24a7.55,7.55,0,0,1-.67,3.5,5.21,5.21,0,0,1-2.57,2.35,9.17,9.17,0,0,1-4.25,1,10,10,0,0,1-7.71-3.41c-2.08-2.3-3.15-6.16-3.15-11.61s1.11-9.3,3.24-11.43a10.3,10.3,0,0,1,7.58-3.24A10.48,10.48,0,0,1,207,195.5l1-1.06v-.13a12.88,12.88,0,0,0-10.1-4.44,14,14,0,0,0-11.3,5,17.41,17.41,0,0,0-4.16,11.56,14.85,14.85,0,0,0,15.33,15.38,20.48,20.48,0,0,0,7.17-1.46,12.71,12.71,0,0,0,3.15-2.17,6.35,6.35,0,0,0,2.26-4.92v-5h-4.43Zm44.53-24v24.24l-18.12-24.24h-4.79V221h1V192.4l22.38,29.38h.84v-31.9Z" style="fill:#5f88b1"/><path id="Path_252" data-name="Path 252" d="M53.94,110.75h0l1.57,1.68h2l-1.86-1.87s0,0,0,0l0,0a2.52,2.52,0,0,1-.3-.27l-3.79-3.84,1.67-1.51.22-.26.62-.59L56,102.24h-.49l-2.63,2.37s0,0,0,0l-3.07,2.8v-5.2H48.33v10.18H49.8v-4.48l.69-.64,2.91,2.9Zm14.43,1.32v-4.83h2.94v-.35H68.37v-4.31h4.48v-.34H66.91v10.18h5.91v-.35Zm13.68-9.83v10.18H83.5v-4.84h.43c2.76,0,4.26,4.37,4.37,4.84h1.16a16.54,16.54,0,0,0-1.68-3.3,4.7,4.7,0,0,0-2-1.72,3.79,3.79,0,0,0,2.13-1,2.3,2.3,0,0,0,.73-1.68,2.07,2.07,0,0,0-.56-1.46,3.05,3.05,0,0,0-1.45-.82,8.39,8.39,0,0,0-2.34-.24Zm1.45,5v-4.58h.63c1.18,0,2,.14,2.34.57A2.5,2.5,0,0,1,87,104.9a2.62,2.62,0,0,1-.16,1,1.7,1.7,0,0,1-.42.66,1.75,1.75,0,0,1-.71.46,3.58,3.58,0,0,1-1,.22Zm23.23-5V110L101,102.24H99.42v9.93h.32V103l7.15,9.38h.27V102.24Zm10.57,0v10.18h1.47V102.24Zm18.9,0V110l-5.78-7.73h-1.53v9.93h.32V103l7.15,9.38h.27V102.24Zm17.68,7.65a2.41,2.41,0,0,1-.21,1.12,1.64,1.64,0,0,1-.82.74,2.93,2.93,0,0,1-1.36.32A3.21,3.21,0,0,1,149,111a5.46,5.46,0,0,1-1-3.71,5.1,5.1,0,0,1,1-3.65,3.3,3.3,0,0,1,2.42-1,3.12,3.12,0,0,1,2.26.89,3.23,3.23,0,0,1,.48.56l.32-.34v0a4.14,4.14,0,0,0-3.22-1.42,4.47,4.47,0,0,0-3.61,1.59,5.55,5.55,0,0,0-1.32,3.68,4.72,4.72,0,0,0,4.89,4.91,6.45,6.45,0,0,0,2.29-.46,4.29,4.29,0,0,0,1-.7,2,2,0,0,0,.72-1.57v-1.61h-1.42Z" style="fill:#0099d1"/><path id="Path_257" data-name="Path 257" d="M96.75.76H45.94L45.86,2.5H67.42V53H75V2.5H96.75Zm52.56,0-16.92,29.4-17-29.4H105.9l20,32V53h7.47V32.26L152.51.76Zm15.32,0V53h7.47V45.11c-.07-1.74,0-2.9,0-5.15V28.42h5.59c6,0,10.09-.22,12.49-1.38a12,12,0,0,0,5.44-4.79,14.32,14.32,0,0,0,1.89-7.4,12.07,12.07,0,0,0-2.76-8.06,15.15,15.15,0,0,0-7.11-4.58A44.83,44.83,0,0,0,175.22.76Zm22.93,21.7A7.89,7.89,0,0,1,182.92,26a25.18,25.18,0,0,1-7.19.65H172.1V3.08c.87-.07,2.18-.14,3.92-.14q7.08,0,10.24,3.05c2.1,2,3.12,5.15,3.12,9.43a12.71,12.71,0,0,1-1.82,7ZM217.4,51.21V26.46h15.1V24.64H217.4V2.5h23V.76H209.92V53h30.35V51.21Z" style="fill:#094c84"/><path id="Path_235" data-name="Path 235" d="M35.45,37,38,37V.1L35.45,0V15.17H0v6.52H35.45ZM38,76.57V72.85L18,61.35,38,49.79V41.64L14.68,56.15H0v6.52H15ZM33.21,98.66c-1.22,1.33-3.21,2-6.16,2a8,8,0,0,1-4.58-1.22,5,5,0,0,1-2.24-2.86,16.35,16.35,0,0,1-.41-4.88V89.8H35.09c.06.56.06,1.27.06,2.14C35.15,95.2,34.48,97.39,33.21,98.66Zm-11.3,7.59a11.09,11.09,0,0,0,5.55,1.37,8.88,8.88,0,0,0,6.06-2.09,11,11,0,0,0,3.41-5.29,32.64,32.64,0,0,0,1-8.86v-8H0V89.8s6.21,0,6.82-.61l-.61.61c1.22,0,2,0,3.61,0h7.44v3.31c0,4.12.15,7.23,1,9a9.54,9.54,0,0,0,3.62,4.13Zm9.32,35.89c-2.7,2.13-6.72,2.7-12.22,2.7-5.65,0-9.68-.56-12.37-2.75a9.8,9.8,0,0,1-4-8.35c0-4.33,1.33-6.31,4-8.5S13.46,122,19.06,122s9.57,1.12,12.27,3.26,4.07,4.07,4.07,8.09S34,140,31.23,142.14ZM5.31,146.62a18.3,18.3,0,0,0,13.75,5.5c5.8,0,10.43-1.94,13.85-5.76a17.85,17.85,0,0,0,5-13c0-5.65-1.68-9.16-5.1-12.93a17.59,17.59,0,0,0-13.59-5.65c-5.75,0-10.43,1.83-14,5.6a17,17,0,0,0-5.29,13,17.24,17.24,0,0,0,5.29,13.24Zm-1,43.78a6.5,6.5,0,0,0,6.77,2.19l-.61.61h6.41v-6.36H9.79a7.64,7.64,0,0,1-3.71-.67,5.7,5.7,0,0,1-2.45-2.64,10,10,0,0,1-1-4.64,10.77,10.77,0,0,1,3.71-8.4c2.39-2.24,6.67-3.41,12.88-3.41s10.44,1.22,12.68,3.52a11.07,11.07,0,0,1,3.51,8.24,10.71,10.71,0,0,1-3,7.74,12.78,12.78,0,0,1-2.54,2l2,1.88h.66A15.55,15.55,0,0,0,38,178.28c0-5.65-1.94-10.13-5.91-13.49a20.84,20.84,0,0,0-13.69-4.94A17.84,17.84,0,0,0,0,177.19c0,.31,0,.63,0,.94a24.23,24.23,0,0,0,1.73,8.45A15.73,15.73,0,0,0,4.35,190.4Zm29,26.52a8.15,8.15,0,0,1-5.6,1.78,10.41,10.41,0,0,1-3.41-.51,5.86,5.86,0,0,1-2.14-1.37,6.17,6.17,0,0,1-1.47-2.29c-.15-.51-.36-1.07-.51-1.68a7.62,7.62,0,0,1-.31-1.83V207.4H35.2L35.15,209C35.15,213.31,34.64,215.9,33.36,216.92Zm-14.86,0A13,13,0,0,0,21.76,223a8.65,8.65,0,0,0,6.51,2.8,8.14,8.14,0,0,0,5.65-2.14,11.47,11.47,0,0,0,3.16-5.55,31.51,31.51,0,0,0,.87-8.55v-8.6H0v6.46H17.48l-.05.92C17.43,217.89,2.16,223,0,223.54v5.6C9.23,225.42,13,222.67,13,222.67a21.61,21.61,0,0,0,4.63-4.48A9.42,9.42,0,0,0,18.5,216.87ZM16,256.38V245.63l13.14,5.3ZM0,270,38,253.88V252L0,236.32v3.26l13.49,5.19v12.58L7.15,260s-1.94.81-7.13,2.9Zm33.19,22.81c-1.22,1.32-3.21,2-6.16,2a8,8,0,0,1-4.58-1.22,5,5,0,0,1-2.24-2.85,16.42,16.42,0,0,1-.41-4.89v-1.93H35.09c.06.56.06,1.27.06,2.14C35.15,289.31,34.48,291.5,33.21,292.78Zm-11.3,7.58a11.1,11.1,0,0,0,5.55,1.38,8.88,8.88,0,0,0,6.06-2.09,11.05,11.05,0,0,0,3.41-5.3,32.61,32.61,0,0,0,1-8.85v-8H0v6.46s6.21,0,6.82-.61l-.61.61c1.22-.05,2,0,3.61,0h7.44v3.31c0,4.12.15,7.23,1,9a9.57,9.57,0,0,0,3.62,4.12ZM0,341.14H38v-6.52H21.2V316.3H38v-6.52H0v6.52H18.7v18.33H0Zm37.93,43v-3.72L18,368.93l20-11.55v-8.15L14.68,363.74H0v6.52H15Z" style="fill:#094c84"/></g></svg>
