<svg xmlns="http://www.w3.org/2000/svg" xmlns:xlink="http://www.w3.org/1999/xlink" width="302" height="411" viewBox="0 0 302 411">
  <defs>
    <clipPath id="clip-Audrey2">
      <rect width="302" height="411"/>
    </clipPath>
  </defs>
  <g id="Audrey2" clip-path="url(#clip-Audrey2)">
    <g id="Group_69" data-name="Group 69" transform="translate(11439 4222)">
      <path id="Path_234" data-name="Path 234" d="M3.071,3.36V30H6.882V25.967c-.037-.888,0-1.48,0-2.627V17.457H9.731c3.034,0,5.143-.111,6.364-.7a6.144,6.144,0,0,0,2.775-2.442,7.335,7.335,0,0,0,.962-3.774,6.144,6.144,0,0,0-1.406-4.107A7.7,7.7,0,0,0,14.8,4.1a22.694,22.694,0,0,0-6.327-.74ZM14.763,14.423A4.034,4.034,0,0,1,12.4,16.236a12.841,12.841,0,0,1-3.663.333H6.882V4.544c.444-.037,1.11-.074,2-.074q3.607,0,5.217,1.554c1.073,1,1.591,2.627,1.591,4.81A6.477,6.477,0,0,1,14.763,14.423Zm11.544,4.921L30.858,8.17,35.52,19.344Zm11.544,5.772s.592,1.443,2,4.884H44.03L32.708,3.36h-.777L20.9,30h1.406l3.737-9.768h9.8ZM51.837,3.36V30h3.774V17.346h1.147C63.973,17.346,67.9,28.779,68.191,30h3.034a44.148,44.148,0,0,0-4.4-8.621,12.225,12.225,0,0,0-5.291-4.514,9.948,9.948,0,0,0,5.587-2.516A5.878,5.878,0,0,0,69,9.946a5.5,5.5,0,0,0-1.443-3.811,8.048,8.048,0,0,0-3.811-2.146,21.6,21.6,0,0,0-6.1-.629Zm3.774,13.1V4.47h1.665c3.071,0,5.18.37,6.1,1.48a6.5,6.5,0,0,1,1.369,4.366,7,7,0,0,1-.407,2.627,4.4,4.4,0,0,1-1.11,1.739,4.444,4.444,0,0,1-1.85,1.184,8.851,8.851,0,0,1-2.664.592Zm28.675,2.886L88.837,8.17,93.5,19.344ZM95.83,25.116s.592,1.443,2,4.884h4.181L90.687,3.36H89.91L78.884,30H80.29l3.737-9.768h9.805Zm30.192-1.739a6.251,6.251,0,0,1-.555,2.923,4.327,4.327,0,0,1-2.146,1.961,7.6,7.6,0,0,1-3.552.814,8.315,8.315,0,0,1-6.438-2.849c-1.739-1.924-2.627-5.143-2.627-9.694,0-4.588.925-7.77,2.7-9.546a8.6,8.6,0,0,1,6.327-2.7,8.24,8.24,0,0,1,5.92,2.331,7.83,7.83,0,0,1,1.258,1.443l.851-.888V7.06a10.763,10.763,0,0,0-8.436-3.7A11.669,11.669,0,0,0,109.89,7.5a14.548,14.548,0,0,0-3.478,9.657A12.4,12.4,0,0,0,119.214,30a17.136,17.136,0,0,0,5.994-1.221,10.517,10.517,0,0,0,2.627-1.813,5.274,5.274,0,0,0,1.887-4.107V18.641h-3.7ZM137.344,3.36V30h3.774V17.346h1.147C149.48,17.346,153.4,28.779,153.7,30h3.034a44.147,44.147,0,0,0-4.4-8.621,12.225,12.225,0,0,0-5.291-4.514,9.948,9.948,0,0,0,5.587-2.516,5.878,5.878,0,0,0,1.887-4.4,5.5,5.5,0,0,0-1.443-3.811,8.048,8.048,0,0,0-3.811-2.146,21.6,21.6,0,0,0-6.1-.629Zm3.774,13.1V4.47h1.665c3.071,0,5.18.37,6.1,1.48a6.5,6.5,0,0,1,1.369,4.366,7,7,0,0,1-.407,2.627,4.4,4.4,0,0,1-1.11,1.739,4.444,4.444,0,0,1-1.85,1.184,8.851,8.851,0,0,1-2.664.592Zm28.675,2.886L174.344,8.17l4.662,11.174Zm11.544,5.772s.592,1.443,2,4.884h4.181L176.194,3.36h-.777L164.391,30H165.8l3.737-9.768h9.8ZM195.175,3.36V30h3.811V25.967c-.037-.888,0-1.48,0-2.627V17.457h2.849c3.034,0,5.143-.111,6.364-.7a6.144,6.144,0,0,0,2.775-2.442,7.335,7.335,0,0,0,.962-3.774,6.144,6.144,0,0,0-1.406-4.107A7.7,7.7,0,0,0,206.9,4.1a22.694,22.694,0,0,0-6.327-.74Zm11.692,11.063a4.034,4.034,0,0,1-2.368,1.813,12.841,12.841,0,0,1-3.663.333h-1.85V4.544c.444-.037,1.11-.074,2-.074q3.607,0,5.217,1.554c1.073,1,1.591,2.627,1.591,4.81A6.477,6.477,0,0,1,206.867,14.423ZM237.836,3.36V15.533H223.628V3.36H219.78V30h3.848V16.458h14.208V30h3.848V3.36Z" transform="translate(-11380 -3845)" fill="#258abf"/>
      <path id="Path_241" data-name="Path 241" d="M15.725-3.15A4.729,4.729,0,0,1,13.75-1.4a6.776,6.776,0,0,1-2.85.675A5.528,5.528,0,0,1,6.525-2.8a9.087,9.087,0,0,1-1.75-6,10.6,10.6,0,0,1,1.6-6.325,5.119,5.119,0,0,1,4.35-2.225,6.366,6.366,0,0,1,4,1.375,4.384,4.384,0,0,1,.975,1.05l.5-.475v-.075A7.4,7.4,0,0,0,13.875-17.2,7.778,7.778,0,0,0,10.35-18a8.759,8.759,0,0,0-4.325,1.1A7.252,7.252,0,0,0,2.95-13.525a10.774,10.774,0,0,0-1.1,4.85,8.6,8.6,0,0,0,2.375,6.3A8.407,8.407,0,0,0,10.375,0a7.491,7.491,0,0,0,5.85-2.625ZM32.475-18v8.225h-9.6V-18h-2.6V0h2.6V-9.15h9.6V0h2.6V-18ZM43.45-7.2l3.075-7.55,3.15,7.55Zm7.8,3.9s.4.975,1.35,3.3h2.825l-7.65-18H47.25L39.8,0h.95l2.525-6.6H49.9ZM59.95-18V0H62.5V-8.55h.775C68.15-8.55,70.8-.825,71,0h2.05a29.83,29.83,0,0,0-2.975-5.825A8.26,8.26,0,0,0,66.5-8.875a6.721,6.721,0,0,0,3.775-1.7A3.972,3.972,0,0,0,71.55-13.55a3.715,3.715,0,0,0-.975-2.575A5.438,5.438,0,0,0,68-17.575,14.6,14.6,0,0,0,63.875-18ZM62.5-9.15v-8.1h1.125c2.075,0,3.5.25,4.125,1a4.391,4.391,0,0,1,.925,2.95,4.732,4.732,0,0,1-.275,1.775,2.974,2.974,0,0,1-.75,1.175,3,3,0,0,1-1.25.8,5.98,5.98,0,0,1-1.8.4ZM81.125-7.2,84.2-14.75,87.35-7.2Zm7.8,3.9s.4.975,1.35,3.3H93.1L85.45-18h-.525L77.475,0h.95L80.95-6.6h6.625Zm20.35.15A4.729,4.729,0,0,1,107.3-1.4a6.776,6.776,0,0,1-2.85.675A5.528,5.528,0,0,1,100.075-2.8a9.087,9.087,0,0,1-1.75-6,10.6,10.6,0,0,1,1.6-6.325,5.119,5.119,0,0,1,4.35-2.225,6.366,6.366,0,0,1,4,1.375,4.384,4.384,0,0,1,.975,1.05l.5-.475v-.075a7.4,7.4,0,0,0-2.325-1.725A7.778,7.778,0,0,0,103.9-18a8.759,8.759,0,0,0-4.325,1.1A7.252,7.252,0,0,0,96.5-13.525a10.774,10.774,0,0,0-1.1,4.85,8.6,8.6,0,0,0,2.375,6.3A8.407,8.407,0,0,0,103.925,0a7.491,7.491,0,0,0,5.85-2.625ZM128.1-18H110.6l-.025.6H118V0h2.6V-17.4h7.5ZM134.775-.625V-9.15h5.2v-.625h-5.2V-17.4H142.7V-18H132.2V0h10.45V-.625h-7.875ZM146.475-18V0h2.55V-8.55h.775c4.875,0,7.525,7.725,7.725,8.55h2.05A29.83,29.83,0,0,0,156.6-5.825a8.26,8.26,0,0,0-3.575-3.05,6.721,6.721,0,0,0,3.775-1.7,3.972,3.972,0,0,0,1.275-2.975,3.715,3.715,0,0,0-.975-2.575,5.438,5.438,0,0,0-2.575-1.45A14.6,14.6,0,0,0,150.4-18Zm2.55,8.85v-8.1h1.125c2.075,0,3.5.25,4.125,1a4.391,4.391,0,0,1,.925,2.95,4.732,4.732,0,0,1-.275,1.775,2.974,2.974,0,0,1-.75,1.175,3,3,0,0,1-1.25.8,5.981,5.981,0,0,1-1.8.4Z" transform="translate(-11378.5 -3943.5)" fill="#2371aa"/>
      <path id="Path_237" data-name="Path 237" d="M31.785-17.94a11.273,11.273,0,0,0-3.77-4.745,76.244,76.244,0,0,0-7.865-5c-3.835-2.275-6.435-4.16-7.8-5.785a6.942,6.942,0,0,1-1.82-5.46,7.009,7.009,0,0,1,2.405-4.55c1.365-1.3,3.38-1.82,6.045-1.495A10.174,10.174,0,0,1,26-41.275a16.642,16.642,0,0,1,1.3,1.69l1.43-1.17a13.865,13.865,0,0,0-4.745-4.355,15.507,15.507,0,0,0-5.2-1.495,11.764,11.764,0,0,0-8.71,2.275,10.465,10.465,0,0,0-4.16,7.6A12.047,12.047,0,0,0,6.76-30.68a12.73,12.73,0,0,0,3.77,4.94A70.2,70.2,0,0,0,18.2-20.8q5.752,3.217,7.8,5.655A7.527,7.527,0,0,1,27.625-9.3a8.3,8.3,0,0,1-3.185,5.72,9.3,9.3,0,0,1-7.6,1.885C12.155-2.47,9.49-4.42,5.98-9.425L4.745-8.06C7.28-3.9,12.935-.455,17.225,0s7.8-.39,10.6-2.47a12.237,12.237,0,0,0,4.81-8.9A12.952,12.952,0,0,0,31.785-17.94ZM80.99-46.8H35.49l-.065,1.56H54.73V0h6.76V-45.24h19.5Zm47.06,0L112.9-20.475,97.695-46.8H89.18l17.94,28.665V0h6.7V-18.59l17.1-28.21ZM149.63-1.56V-46.8h-6.76V0h32.565V-1.56Zm41.6-.065V-23.79h13.52v-1.625H191.23V-45.24h20.6V-46.8h-27.3V0h27.17V-1.625H191.23Z" transform="translate(-11380 -3867)" fill="#24648d"/>
      <path id="Path_248" data-name="Path 248" d="M33.075-42.4v-4.347H3.843V1.449H13.23V-21.672H26.271v-4.347H13.23V-42.4H33.075Zm35.091,4.977c2.52,3.213,3.213,7.938,3.213,14.742,0,6.993-.756,11.781-3.213,14.868C65.52-4.6,62.748-3.024,58.275-3.024c-5.1,0-7.434-1.512-10.017-4.788-2.52-3.15-3.906-8.064-3.906-14.931,0-6.741,1.386-11.655,3.906-14.805,2.583-3.276,4.788-4.788,9.513-4.788C62.685-42.336,65.646-40.7,68.166-37.422Zm6.426,32.13c4.725-4.473,7.056-10.332,7.056-17.451,0-7.308-2.457-13.23-7.371-17.64-4.788-4.221-9.324-6.363-16.506-6.363s-11.655,2.2-16.38,6.489C36.54-35.91,34.146-30.051,34.146-23c0,7.308,2.331,13.23,7.119,17.766,4.662,4.41,9.2,6.678,16.569,6.678C65.394,1.449,69.993-.819,74.592-5.292Zm54.369,6.741V-46.746h-4.725v31.563L100.611-46.746H91.6V.315h4.347V-37.611l29.673,39.06ZM184.527-42.4l-.063-4.347H137.592l-.126,4.347H156.24V1.449h9.324V-42.4h18.963Z" transform="translate(-11380 -4045)" fill="#2d7198"/>
      <path id="Path_249" data-name="Path 249" d="M12.714-7.176a4.509,4.509,0,0,0-1.508-1.9,30.5,30.5,0,0,0-3.146-2A12.877,12.877,0,0,1,4.94-13.39a2.777,2.777,0,0,1-.728-2.184,2.8,2.8,0,0,1,.962-1.82,2.851,2.851,0,0,1,2.418-.6A4.07,4.07,0,0,1,10.4-16.51a6.657,6.657,0,0,1,.52.676l.572-.468a5.546,5.546,0,0,0-1.9-1.742,6.2,6.2,0,0,0-2.08-.6,4.706,4.706,0,0,0-3.484.91A4.186,4.186,0,0,0,2.366-14.69,4.819,4.819,0,0,0,2.7-12.272,5.092,5.092,0,0,0,4.212-10.3,28.079,28.079,0,0,0,7.28-8.32,11.724,11.724,0,0,1,10.4-6.058a3.011,3.011,0,0,1,.65,2.34A3.32,3.32,0,0,1,9.776-1.43a3.719,3.719,0,0,1-3.042.754C4.862-.988,3.8-1.768,2.392-3.77L1.9-3.224A7.54,7.54,0,0,0,6.89,0a5.811,5.811,0,0,0,4.238-.988A4.895,4.895,0,0,0,13.052-4.55,5.181,5.181,0,0,0,12.714-7.176ZM24.8-18.72V0h2.678V-2.834c-.026-.624,0-1.04,0-1.846V-8.814h2a11.8,11.8,0,0,0,4.472-.494,4.318,4.318,0,0,0,1.95-1.716,5.154,5.154,0,0,0,.676-2.652,4.317,4.317,0,0,0-.988-2.886A5.413,5.413,0,0,0,33.046-18.2a15.947,15.947,0,0,0-4.446-.52Zm8.216,7.774a2.835,2.835,0,0,1-1.664,1.274,9.023,9.023,0,0,1-2.574.234h-1.3v-8.45c.312-.026.78-.052,1.4-.052a5.15,5.15,0,0,1,3.666,1.092,4.453,4.453,0,0,1,1.118,3.38A4.551,4.551,0,0,1,33.02-10.946ZM51.246-7.488l3.2-7.852L57.72-7.488Zm8.112,4.056s.416,1.014,1.4,3.432H63.7L55.744-18.72H55.2L47.45,0h.988l2.626-6.864h6.89Zm30,.156a4.919,4.919,0,0,1-2.054,1.82,7.047,7.047,0,0,1-2.964.7,5.749,5.749,0,0,1-4.55-2.158,9.45,9.45,0,0,1-1.82-6.24c0-2.86.546-5.044,1.664-6.578a5.324,5.324,0,0,1,4.524-2.314,6.62,6.62,0,0,1,4.16,1.43,4.559,4.559,0,0,1,1.014,1.092l.52-.494v-.078a7.7,7.7,0,0,0-2.418-1.794,8.089,8.089,0,0,0-3.666-.832,9.11,9.11,0,0,0-4.5,1.144,7.542,7.542,0,0,0-3.2,3.51,11.2,11.2,0,0,0-1.144,5.044A8.946,8.946,0,0,0,77.4-2.47,8.743,8.743,0,0,0,83.8,0a7.791,7.791,0,0,0,6.084-2.73ZM101.946-.65V-9.516h5.408v-.65h-5.408V-18.1h8.242v-.624H99.268V0h10.868V-.65h-8.19Z" transform="translate(-11173 -4041) rotate(-90)" fill="#92a6ba"/>
      <path id="Path_254" data-name="Path 254" d="M25.27,0h3.64V-25.2H25.445l-9.2,20.9L7-25.2H3.5V0h.84V-22.785L14.35,0h.875L25.27-22.785V0ZM47.635-10.08,51.94-20.65l4.41,10.57Zm10.92,5.46s.56,1.365,1.89,4.62H64.4L53.69-25.2h-.735L42.525,0h1.33L47.39-9.24h9.275ZM77.735-25.2V0h3.57V-11.97H82.39C89.215-11.97,92.925-1.155,93.205,0h2.87A41.762,41.762,0,0,0,91.91-8.155a11.564,11.564,0,0,0-5.005-4.27,9.41,9.41,0,0,0,5.285-2.38,5.56,5.56,0,0,0,1.785-4.165,5.2,5.2,0,0,0-1.365-3.6,7.613,7.613,0,0,0-3.6-2.03,20.433,20.433,0,0,0-5.775-.6Zm3.57,12.39V-24.15H82.88c2.9,0,4.9.35,5.775,1.4a6.148,6.148,0,0,1,1.3,4.13,6.624,6.624,0,0,1-.385,2.485,4.163,4.163,0,0,1-1.05,1.645,4.2,4.2,0,0,1-1.75,1.12,8.373,8.373,0,0,1-2.52.56ZM125.65-6.265a5.913,5.913,0,0,1-.525,2.765,4.093,4.093,0,0,1-2.03,1.855,7.192,7.192,0,0,1-3.36.77,7.866,7.866,0,0,1-6.09-2.695C112-5.39,111.16-8.435,111.16-12.74c0-4.34.875-7.35,2.555-9.03a8.133,8.133,0,0,1,5.985-2.555,7.794,7.794,0,0,1,5.6,2.2,7.406,7.406,0,0,1,1.19,1.365l.805-.84V-21.7a10.181,10.181,0,0,0-7.98-3.5,11.039,11.039,0,0,0-8.925,3.92,13.762,13.762,0,0,0-3.29,9.135,11.816,11.816,0,0,0,3.43,8.715A11.9,11.9,0,0,0,119.21,0a16.21,16.21,0,0,0,5.67-1.155,9.948,9.948,0,0,0,2.485-1.715,4.988,4.988,0,0,0,1.785-3.885v-3.99h-3.5ZM142.765-25.2V0h3.64V-25.2Zm36.295,0V-6.055L164.745-25.2h-3.78V-.63h.805V-23.2L179.445,0h.665V-25.2Z" transform="translate(-11380 -4126)" fill="#225576"/>
      <path id="Path_244" data-name="Path 244" d="M9.118-1.128v-31.4c1.128-.094,2.538-.141,3.807-.141a24.058,24.058,0,0,1,6.392.752,10.685,10.685,0,0,1,4.512,2.867,13.594,13.594,0,0,1,3.149,5.4,23.8,23.8,0,0,1,1.128,7.614A18.813,18.813,0,0,1,26.179-7.05a9.676,9.676,0,0,1-4.7,4.7,18.486,18.486,0,0,1-7.191,1.222ZM4.277,0h9.212a55.727,55.727,0,0,0,6.439-.282,16.443,16.443,0,0,0,4.841-1.269,12.512,12.512,0,0,0,4.512-3.1,13.747,13.747,0,0,0,3.055-5.029A19.207,19.207,0,0,0,33.464-16.4,18.886,18.886,0,0,0,31.4-25.38a14.528,14.528,0,0,0-6.2-6.157c-2.773-1.551-6.674-2.3-11.609-2.3H4.277Zm52.5-1.175V-17.2h9.776v-1.175H56.776V-32.712h14.9V-33.84H51.935V0H71.581V-1.175H56.776Zm47.141-11.8a8.151,8.151,0,0,0-2.726-3.431A55.129,55.129,0,0,0,95.5-20.022a23.278,23.278,0,0,1-5.64-4.183,5.019,5.019,0,0,1-1.316-3.948,5.068,5.068,0,0,1,1.739-3.29,5.153,5.153,0,0,1,4.371-1.081,7.356,7.356,0,0,1,5.076,2.679,12.034,12.034,0,0,1,.94,1.222l1.034-.846a10.026,10.026,0,0,0-3.431-3.149,11.213,11.213,0,0,0-3.76-1.081,8.506,8.506,0,0,0-6.3,1.645,7.567,7.567,0,0,0-3.008,5.5,8.71,8.71,0,0,0,.611,4.371,9.2,9.2,0,0,0,2.726,3.572,50.759,50.759,0,0,0,5.546,3.572,21.194,21.194,0,0,1,5.64,4.089,5.442,5.442,0,0,1,1.175,4.23,6,6,0,0,1-2.3,4.136,6.722,6.722,0,0,1-5.5,1.363C89.723-1.786,87.8-3.2,85.258-6.815l-.893.987A13.631,13.631,0,0,0,93.389,0a10.5,10.5,0,0,0,7.661-1.786,8.848,8.848,0,0,0,3.478-6.439A9.365,9.365,0,0,0,103.917-12.972ZM123.563-33.84V0h4.888V-33.84ZM171.691-8.413a7.94,7.94,0,0,1-.705,3.713,5.5,5.5,0,0,1-2.726,2.491,9.658,9.658,0,0,1-4.512,1.034,10.562,10.562,0,0,1-8.178-3.619c-2.209-2.444-3.337-6.533-3.337-12.314,0-5.828,1.175-9.87,3.431-12.126a10.922,10.922,0,0,1,8.037-3.431,10.467,10.467,0,0,1,7.52,2.961,9.946,9.946,0,0,1,1.6,1.833L173.9-29v-.141a13.671,13.671,0,0,0-10.716-4.7c-5.029,0-9.024,1.739-11.985,5.264a18.481,18.481,0,0,0-4.418,12.267,15.867,15.867,0,0,0,4.606,11.7A15.984,15.984,0,0,0,163.043,0a21.767,21.767,0,0,0,7.614-1.551,13.359,13.359,0,0,0,3.337-2.3,6.7,6.7,0,0,0,2.4-5.217v-5.358h-4.7ZM218.926-33.84V-8.131L199.7-33.84h-5.076V-.846h1.081V-31.161L219.443,0h.893V-33.84Z" transform="translate(-11380 -3987)" fill="#5f88b1"/>
      <path id="Path_252" data-name="Path 252" d="M18.5-1.77v-.015L20.16,0h2.145l-1.98-1.98c-.015-.015,0-.03-.015-.045l.015-.03c-.09-.09-.225-.18-.315-.285L15.99-6.42l1.77-1.605L18-8.3c.255-.24.465-.45.66-.63L20.655-10.8H20.13L17.34-8.28c-.015,0,.03.015.015.03L14.1-5.28V-10.8H12.54V0H14.1V-4.755l.735-.675,3.09,3.075C18.135-2.145,18.315-1.95,18.5-1.77ZM33.8-.375V-5.49h3.12v-.375H33.8V-10.44H38.55v-.36h-6.3V0h6.27V-.375H33.8ZM48.315-10.8V0h1.53V-5.13h.465C53.235-5.13,54.825-.5,54.945,0h1.23A17.9,17.9,0,0,0,54.39-3.495a4.956,4.956,0,0,0-2.145-1.83,4.033,4.033,0,0,0,2.265-1.02,2.383,2.383,0,0,0,.765-1.785,2.229,2.229,0,0,0-.585-1.545,3.263,3.263,0,0,0-1.545-.87A8.757,8.757,0,0,0,50.67-10.8Zm1.53,5.31v-4.86h.675c1.245,0,2.1.15,2.475.6a2.635,2.635,0,0,1,.555,1.77,2.839,2.839,0,0,1-.165,1.065,1.784,1.784,0,0,1-.45.7,1.8,1.8,0,0,1-.75.48,3.588,3.588,0,0,1-1.08.24ZM74.49-10.8v8.205L68.355-10.8h-1.62V-.27h.345V-9.945L74.655,0h.285V-10.8Zm11.205,0V0h1.56V-10.8Zm20.055,0v8.205L99.615-10.8H98V-.27h.345V-9.945L105.915,0h.285V-10.8ZM124.5-2.685a2.534,2.534,0,0,1-.225,1.185,1.754,1.754,0,0,1-.87.8,3.082,3.082,0,0,1-1.44.33,3.371,3.371,0,0,1-2.61-1.155,5.812,5.812,0,0,1-1.065-3.93c0-1.86.375-3.15,1.1-3.87a3.486,3.486,0,0,1,2.565-1.1,3.34,3.34,0,0,1,2.4.945,3.174,3.174,0,0,1,.51.585l.345-.36V-9.3a4.363,4.363,0,0,0-3.42-1.5,4.731,4.731,0,0,0-3.825,1.68A5.9,5.9,0,0,0,116.55-5.2a5.064,5.064,0,0,0,1.47,3.735A5.1,5.1,0,0,0,121.74,0a6.947,6.947,0,0,0,2.43-.5,4.263,4.263,0,0,0,1.065-.735A2.138,2.138,0,0,0,126-2.895v-1.71h-1.5Z" transform="translate(-11388 -4103)" fill="#0099d1"/>
      <path id="Path_257" data-name="Path 257" d="M58.9,6.56H5L4.928,8.408H27.8V62h8.008V8.408H58.9Zm55.748,0L96.712,37.745,78.694,6.56H68.607L89.859,40.517V62H97.79V39.978L118.041,6.56Zm16.247,0V62h7.931V53.607c-.077-1.848,0-3.08,0-5.467V35.9h5.929c6.314,0,10.7-.231,13.244-1.463a12.787,12.787,0,0,0,5.775-5.082,15.264,15.264,0,0,0,2-7.854,12.786,12.786,0,0,0-2.926-8.547A16.032,16.032,0,0,0,155.309,8.1a47.228,47.228,0,0,0-13.167-1.54Zm24.332,23.023a8.4,8.4,0,0,1-4.928,3.773,26.723,26.723,0,0,1-7.623.693h-3.85V9.024c.924-.077,2.31-.154,4.158-.154q7.508,0,10.857,3.234c2.233,2.079,3.311,5.467,3.311,10.01A13.479,13.479,0,0,1,155.232,29.583Zm31.647,30.492V33.818H202.9V31.893H186.879V8.408h24.409V6.56h-32.34V62h32.186V60.075H186.879Z" transform="translate(-11383 -4228)" fill="#094c84"/>
      <path id="Path_235" data-name="Path 235" d="M42.012,6.118l-.054-2.646H2.862L2.754,6.118H18.846V43.7h6.912V6.118H42.012ZM83.97,3.472H80.028L67.824,24.64,55.566,3.472h-8.64L62.316,28.15V43.7h6.912V27.772Zm23.436,5.022c1.4,1.3,2.16,3.4,2.16,6.534a8.457,8.457,0,0,1-1.3,4.86,5.326,5.326,0,0,1-3.024,2.376,17.612,17.612,0,0,1-5.184.432H98.01V6.5c.594-.054,1.35-.054,2.268-.054C103.734,6.442,106.056,7.144,107.406,8.494Zm8.046,11.988A11.749,11.749,0,0,0,116.91,14.6,9.4,9.4,0,0,0,114.7,8.17a11.675,11.675,0,0,0-5.616-3.618,34.432,34.432,0,0,0-9.4-1.08H91.152V43.7H98.01s0-6.588-.648-7.236l.648.648c-.054-1.3,0-2.16,0-3.834V25.4h3.51c4.374,0,7.668-.162,9.558-1.08A10.079,10.079,0,0,0,115.452,20.482Zm38.07-9.882c2.268,2.862,2.862,7.128,2.862,12.96,0,5.994-.594,10.26-2.916,13.122a10.362,10.362,0,0,1-8.856,4.266c-4.59,0-6.7-1.4-9.018-4.266-2.268-2.862-3.456-7.236-3.456-13.176,0-5.886,1.188-10.152,3.456-13.014,2.322-2.916,4.32-4.32,8.586-4.32C148.554,6.172,151.254,7.63,153.522,10.6Zm4.752,27.486c3.888-3.726,5.832-8.64,5.832-14.58,0-6.156-2.052-11.07-6.1-14.688-4.05-3.564-7.83-5.346-13.824-5.346s-9.72,1.782-13.716,5.4Q124.47,14.38,124.47,23.29c0,6.1,1.944,11.07,5.94,14.8A18.024,18.024,0,0,0,144.234,43.7C150.552,43.7,154.386,41.812,158.274,38.086Zm46.44,1.026a6.906,6.906,0,0,0,2.322-7.182l.648.648v-6.8h-6.75v7.56a8.186,8.186,0,0,1-.7,3.942,6.034,6.034,0,0,1-2.808,2.592,10.59,10.59,0,0,1-4.914,1.08,11.453,11.453,0,0,1-8.91-3.942c-2.376-2.538-3.618-7.074-3.618-13.662,0-6.642,1.3-11.07,3.726-13.446a11.771,11.771,0,0,1,8.748-3.726,11.367,11.367,0,0,1,8.208,3.186,13.453,13.453,0,0,1,2.16,2.7l2-2.106v-.7a16.476,16.476,0,0,0-12.96-5.778c-5.994,0-10.746,2.052-14.31,6.264a22.124,22.124,0,0,0-5.238,14.526A18.92,18.92,0,0,0,191.7,43.7a25.792,25.792,0,0,0,8.964-1.836A16.838,16.838,0,0,0,204.714,39.112Zm28.134-30.78a8.709,8.709,0,0,1,1.89,5.94,11.359,11.359,0,0,1-.54,3.618,6.329,6.329,0,0,1-1.458,2.268,6.489,6.489,0,0,1-2.43,1.566c-.54.162-1.134.378-1.782.54a8.132,8.132,0,0,1-1.944.324H222.75V6.388l1.728.054C229.014,6.442,231.768,6.982,232.848,8.332ZM232.794,24.1a13.8,13.8,0,0,0,6.48-3.456,9.156,9.156,0,0,0,2.97-6.912,8.638,8.638,0,0,0-2.268-5.994A12.244,12.244,0,0,0,234.09,4.39a33.257,33.257,0,0,0-9.072-.918h-9.126V43.7h6.858V25.18l.972.054c10.152,0,15.606,16.2,16.146,18.468h5.94c-3.942-9.774-6.858-13.716-6.858-13.716a23.04,23.04,0,0,0-4.752-4.914A9.472,9.472,0,0,0,232.794,24.1Zm41.9,2.7H263.3l5.616-13.932Zm14.418,16.9L272.052,3.472h-2L253.422,43.7h3.456l5.508-14.31h13.338l2.808,6.75s.864,2.052,3.078,7.56ZM313.308,8.494c1.4,1.3,2.16,3.4,2.16,6.534a8.456,8.456,0,0,1-1.3,4.86,5.326,5.326,0,0,1-3.024,2.376,17.613,17.613,0,0,1-5.184.432h-2.052V6.5c.594-.054,1.35-.054,2.268-.054C309.636,6.442,311.958,7.144,313.308,8.494Zm8.046,11.988a11.749,11.749,0,0,0,1.458-5.886A9.4,9.4,0,0,0,320.6,8.17a11.675,11.675,0,0,0-5.616-3.618,34.432,34.432,0,0,0-9.4-1.08h-8.532V43.7h6.858s0-6.588-.648-7.236l.648.648c-.054-1.3,0-2.16,0-3.834V25.4h3.51c4.374,0,7.668-.162,9.558-1.08A10.079,10.079,0,0,0,321.354,20.482ZM364.608,43.7V3.472H357.7V21.238h-19.44V3.472h-6.912V43.7h6.912V23.884H357.7V43.7Zm45.63-40.23H406.3l-12.2,21.168L381.834,3.472h-8.64l15.39,24.678V43.7H395.5V27.772Z" transform="translate(-11383 -4225) rotate(90)" fill="#094c84"/>
    </g>
  </g>
</svg>
