<svg xmlns="http://www.w3.org/2000/svg" xmlns:xlink="http://www.w3.org/1999/xlink" width="302" height="411" viewBox="0 0 302 411">
  <defs>
    <clipPath id="clip-Crimson2">
      <rect width="302" height="411"/>
    </clipPath>
  </defs>
  <g id="Crimson2" clip-path="url(#clip-Crimson2)">
    <g id="Group_78" data-name="Group 78" transform="translate(11044 2557)">
      <path id="Path_138" data-name="Path 138" d="M1.485,37.1c1.353-.066,2.607-.165,3.894-.165s2.508.1,3.861.165a1.084,1.084,0,0,0,0-.957c-.4,0-2.178-.165-2.277-.528A10.044,10.044,0,0,1,6.8,33.172V19.114a9.776,9.776,0,0,1,.165-2.475c.132-.3,1.254-.33,1.65-.33,3.663,0,5.445,2.178,5.445,5.445,0,3.3-2.046,5.148-4.686,5.148a4.472,4.472,0,0,1-1.254-.231c-.132-.033-.165.1-.165.165a.963.963,0,0,0,.462.726,4.159,4.159,0,0,0,1.419.264c4.323,0,7.26-2.607,7.26-6.633,0-3.828-3.531-5.94-7.029-5.94-1.947,0-3.4.066-4.686.066s-2.541-.1-3.894-.165a1.084,1.084,0,0,0,0,.957c.4,0,2.178.165,2.277.528a10.044,10.044,0,0,1,.165,2.442V33.172a10.044,10.044,0,0,1-.165,2.442c-.1.363-1.881.528-2.277.528A1.084,1.084,0,0,0,1.485,37.1Zm17.82-3.63a3.769,3.769,0,0,0,3.861,3.795c1.155,0,3.663-1.815,4.059-2.211.2,1.023,1.056,2.145,2.013,2.145a5.684,5.684,0,0,0,2.475-1.254,1.365,1.365,0,0,0,.165-.627c0-.1-.033-.264-.132-.264a1.787,1.787,0,0,1-1.089.429c-.759,0-1.023-.66-1.023-1.551v-6.8c0-2.541-1.716-4.521-3.6-4.521-2.409,0-4.983,1.749-6.006,2.706a1.946,1.946,0,0,0-.231.792A1.289,1.289,0,0,0,20.922,27.5c.825,0,1.353-.462,1.551-1.584.231-1.287.66-2.046,1.815-2.046a3.158,3.158,0,0,1,2.838,3.168v.891c0,.594-.066.693-.4.825-.957.429-3.927,1.419-5.775,2.079A2.894,2.894,0,0,0,19.305,33.469Zm2.739-.3A2.766,2.766,0,0,1,24.057,30.6c.594-.231,2.178-.693,3.069-.957v4.488c0,.33-1.716,1.353-2.871,1.353A2.275,2.275,0,0,1,22.044,33.172Zm13.662-8.448c.231,0,1.914.033,2.145.594a5.949,5.949,0,0,1,.165,1.716v6.138a10.044,10.044,0,0,1-.165,2.442c-.1.363-1.683.528-2.079.528a1.084,1.084,0,0,0,0,.957c1.353-.066,2.409-.165,3.7-.165s2.739.1,4.092.165a1.084,1.084,0,0,0,0-.957c-.4,0-2.739-.165-2.838-.528a10.044,10.044,0,0,1-.165-2.442V28.09c0-.759,1.221-2.97,2.64-2.97a2.231,2.231,0,0,1,1.452.561,1.7,1.7,0,0,0,.99.462c.33,0,1.089-.5,1.089-1.716a2.991,2.991,0,0,0-.132-.891,2.424,2.424,0,0,0-2.013-.957c-1.485,0-3.234,2.112-3.894,3.531-.033.033-.132.066-.132-.066,0-.363.2-2.805.231-3.036,0-.165-.2-.528-.363-.528a14.866,14.866,0,0,1-4.719,1.386A1.268,1.268,0,0,0,35.706,24.724Zm12.738,8.745a3.769,3.769,0,0,0,3.861,3.795c1.155,0,3.663-1.815,4.059-2.211.2,1.023,1.056,2.145,2.013,2.145a5.684,5.684,0,0,0,2.475-1.254,1.365,1.365,0,0,0,.165-.627c0-.1-.033-.264-.132-.264a1.787,1.787,0,0,1-1.089.429c-.759,0-1.023-.66-1.023-1.551v-6.8c0-2.541-1.716-4.521-3.6-4.521-2.409,0-4.983,1.749-6.006,2.706a1.946,1.946,0,0,0-.231.792A1.289,1.289,0,0,0,50.061,27.5c.825,0,1.353-.462,1.551-1.584.231-1.287.66-2.046,1.815-2.046a3.158,3.158,0,0,1,2.838,3.168v.891c0,.594-.066.693-.4.825-.957.429-3.927,1.419-5.775,2.079A2.894,2.894,0,0,0,48.444,33.469Zm2.739-.3A2.766,2.766,0,0,1,53.2,30.6c.594-.231,2.178-.693,3.069-.957v4.488c0,.33-1.716,1.353-2.871,1.353A2.275,2.275,0,0,1,51.183,33.172ZM62.2,40.465c0,2.706,3.036,4.059,5.709,4.026,4.587-.033,8.58-3.531,8.58-6.237,0-1.848-2.508-3.465-5.115-3.465H67.485c-1.32,0-1.98-.825-1.98-1.155,0-.528.627-1.122,1.221-1.452a6.977,6.977,0,0,0,1.848.3c3.168,0,5.577-2.541,5.577-4.851a5.524,5.524,0,0,0-.924-3c0-.066.033-.1.132-.1,0,0,1.353.1,2.178.132a2.56,2.56,0,0,0,.759-1.353c0-.132-.1-.264-.33-.33l-3.531.5a3.963,3.963,0,0,1-.759-.231,7.256,7.256,0,0,0-3-.726A5.345,5.345,0,0,0,63.1,27.5a5.144,5.144,0,0,0,2.739,4.224A17.245,17.245,0,0,0,63,33.964c0,1.65,1.551,2.706,2.706,3.069C64.581,37.594,62.2,39.013,62.2,40.465Zm2.607-.957c0-.858,1.221-1.782,1.98-2.211a20.683,20.683,0,0,1,3.069-.165c3.135,0,4.356,1.584,4.356,2.541,0,1.815-2.706,3.531-4.983,3.531C66.429,43.2,64.812,41.653,64.812,39.508Zm.825-12.144c0-1.881,1.023-3.861,2.9-3.861,2.046,0,3.069,2.178,3.069,4.224,0,1.815-.99,3.762-2.805,3.762C66.792,31.489,65.637,29.377,65.637,27.364Zm12.309-2.64c.231,0,1.914.033,2.145.594a5.949,5.949,0,0,1,.165,1.716v6.138a10.044,10.044,0,0,1-.165,2.442c-.1.363-1.683.528-2.079.528a1.084,1.084,0,0,0,0,.957c1.353-.066,2.409-.165,3.7-.165s2.739.1,4.092.165a1.084,1.084,0,0,0,0-.957c-.4,0-2.739-.165-2.838-.528a10.044,10.044,0,0,1-.165-2.442V28.09c0-.759,1.221-2.97,2.64-2.97a2.231,2.231,0,0,1,1.452.561,1.7,1.7,0,0,0,.99.462c.33,0,1.089-.5,1.089-1.716a2.991,2.991,0,0,0-.132-.891,2.424,2.424,0,0,0-2.013-.957c-1.485,0-3.234,2.112-3.894,3.531-.033.033-.132.066-.132-.066,0-.363.2-2.805.231-3.036,0-.165-.2-.528-.363-.528a14.866,14.866,0,0,1-4.719,1.386A1.268,1.268,0,0,0,77.946,24.724Zm12.738,8.745a3.769,3.769,0,0,0,3.861,3.795c1.155,0,3.663-1.815,4.059-2.211.2,1.023,1.056,2.145,2.013,2.145a5.684,5.684,0,0,0,2.475-1.254,1.365,1.365,0,0,0,.165-.627c0-.1-.033-.264-.132-.264a1.787,1.787,0,0,1-1.089.429c-.759,0-1.023-.66-1.023-1.551v-6.8c0-2.541-1.716-4.521-3.6-4.521-2.409,0-4.983,1.749-6.006,2.706a1.946,1.946,0,0,0-.231.792A1.289,1.289,0,0,0,92.3,27.5c.825,0,1.353-.462,1.551-1.584.231-1.287.66-2.046,1.815-2.046A3.158,3.158,0,0,1,98.5,27.034v.891c0,.594-.066.693-.4.825-.957.429-3.927,1.419-5.775,2.079A2.894,2.894,0,0,0,90.684,33.469Zm2.739-.3A2.766,2.766,0,0,1,95.436,30.6c.594-.231,2.178-.693,3.069-.957v4.488c0,.33-1.716,1.353-2.871,1.353A2.275,2.275,0,0,1,93.423,33.172Zm10.791-8.448c.231,0,1.914.033,2.145.594a5.949,5.949,0,0,1,.165,1.716v13.5a10.044,10.044,0,0,1-.165,2.442c-.1.363-1.683.528-2.079.528a1.084,1.084,0,0,0,0,.957c1.353-.066,2.211-.165,3.5-.165s2.178.1,3.531.165a1.084,1.084,0,0,0,0-.957c-.4,0-1.98-.165-2.079-.528a10.044,10.044,0,0,1-.165-2.442v-3.2a.732.732,0,0,1,.132-.429,8.47,8.47,0,0,0,2.31.363,8.282,8.282,0,0,0,7.722-7.92c0-2.838-1.881-6.8-5.973-6.8a8.012,8.012,0,0,0-4.026,1.881c-.033.033-.066.066-.1.066-.066,0-.066-.1-.066-.132,0-.264.2-1.122.231-1.353,0-.165-.2-.528-.363-.528a14.866,14.866,0,0,1-4.719,1.386A1.268,1.268,0,0,0,104.214,24.724Zm4.851,8.976V25.78c0-.462,1.419-1.287,2.772-1.287,2.508,0,4.62,2.145,4.62,6.072,0,2.673-1.584,5.544-4.323,5.544C110.979,36.109,109.065,35.416,109.065,33.7Zm12.144,3.4c1.353-.066,2.211-.165,3.5-.165s2.178.1,3.531.165a1.084,1.084,0,0,0,0-.957c-.4,0-1.98-.165-2.079-.528a10.044,10.044,0,0,1-.165-2.442v-6.9a5.031,5.031,0,0,1,3.135-1.815c2.574,0,3.234,1.32,3.234,5.412v3.3a10.044,10.044,0,0,1-.165,2.442c-.1.363-1.683.528-2.079.528a1.084,1.084,0,0,0,0,.957c1.353-.066,2.211-.165,3.5-.165s2.178.1,3.531.165a1.084,1.084,0,0,0,0-.957c-.4,0-1.98-.165-2.079-.528a10.044,10.044,0,0,1-.165-2.442v-3.63c0-4.785-.693-7-4.257-7-1.584,0-3.8,1.683-4.455,2.409-.033.033-.066.066-.1.066-.066,0-.1-.033-.1-.066V17.5a9.657,9.657,0,0,1,.363-2.871c0-.231-.2-.528-.363-.528a15.393,15.393,0,0,1-4.686,1.32c-.132.033-.066.858-.033.858.924,0,1.815.132,2.013.594a5.949,5.949,0,0,1,.165,1.716V33.172a10.045,10.045,0,0,1-.165,2.442c-.1.363-1.683.528-2.079.528A1.084,1.084,0,0,0,121.209,37.1Z" transform="translate(-10966.238 -2407.032)" fill="#258abf"/>
      <path id="Path_133" data-name="Path 133" d="M.96-6.44A6.5,6.5,0,0,0,7.64.12a8.539,8.539,0,0,0,4.3-.9,9.5,9.5,0,0,0,.7-2.88A1.057,1.057,0,0,0,12-3.82,4.247,4.247,0,0,1,10.78-1.5a3.807,3.807,0,0,1-2.64.96c-3.48,0-5.2-3.2-5.2-6.32,0-2.8,1.92-5.82,4.88-5.82,3.34,0,3.8,2.3,3.92,2.92a.384.384,0,0,0,.24.06c.2,0,.46-.14.44-.26,0-.2-.46-2.96-.46-2.96a20.028,20.028,0,0,0-4.24-.42A6.744,6.744,0,0,0,.96-6.44ZM13.9.06c.82-.04,1.34-.1,2.12-.1s1.32.06,2.14.1a.657.657,0,0,0,0-.58c-.24,0-1.2-.1-1.26-.32a6.087,6.087,0,0,1-.1-1.48V-6.5a3.049,3.049,0,0,1,1.9-1.1c1.56,0,1.96.8,1.96,3.28v2a6.087,6.087,0,0,1-.1,1.48c-.06.22-1.02.32-1.26.32a.657.657,0,0,0,0,.58c.82-.04,1.34-.1,2.12-.1s1.32.06,2.14.1a.657.657,0,0,0,0-.58c-.24,0-1.2-.1-1.26-.32a6.087,6.087,0,0,1-.1-1.48v-2.2c0-2.9-.42-4.24-2.58-4.24a4.907,4.907,0,0,0-2.7,1.46c-.02.02-.04.04-.06.04-.04,0-.06-.02-.06-.04v-4.52a5.853,5.853,0,0,1,.22-1.74c0-.14-.12-.32-.22-.32a9.329,9.329,0,0,1-2.84.8c-.08.02-.04.52-.02.52.56,0,1.1.08,1.22.36a3.605,3.605,0,0,1,.1,1.04v8.84a6.088,6.088,0,0,1-.1,1.48c-.06.22-1.02.32-1.26.32A.657.657,0,0,0,13.9.06Zm10.64-2.2A2.284,2.284,0,0,0,26.88.16a6.117,6.117,0,0,0,2.46-1.34c.12.62.64,1.3,1.22,1.3a3.445,3.445,0,0,0,1.5-.76.827.827,0,0,0,.1-.38c0-.06-.02-.16-.08-.16a1.083,1.083,0,0,1-.66.26c-.46,0-.62-.4-.62-.94V-5.98a2.537,2.537,0,0,0-2.18-2.74,6.187,6.187,0,0,0-3.64,1.64,1.179,1.179,0,0,0-.14.48.781.781,0,0,0,.68.84c.5,0,.82-.28.94-.96.14-.78.4-1.24,1.1-1.24a1.914,1.914,0,0,1,1.72,1.92v.54c0,.36-.04.42-.24.5-.58.26-2.38.86-3.5,1.26A1.754,1.754,0,0,0,24.54-2.14Zm1.66-.18a1.676,1.676,0,0,1,1.22-1.56c.36-.14,1.32-.42,1.86-.58v2.72a2.554,2.554,0,0,1-1.74.82A1.379,1.379,0,0,1,26.2-2.32Zm8.28-5.12c.14,0,1.16.02,1.3.36a3.605,3.605,0,0,1,.1,1.04v3.72a6.088,6.088,0,0,1-.1,1.48c-.06.22-1.02.32-1.26.32a.657.657,0,0,0,0,.58c.82-.04,1.46-.1,2.24-.1s1.66.06,2.48.1a.657.657,0,0,0,0-.58c-.24,0-1.66-.1-1.72-.32a6.087,6.087,0,0,1-.1-1.48V-5.4c0-.46.74-1.8,1.6-1.8a1.352,1.352,0,0,1,.88.34,1.027,1.027,0,0,0,.6.28c.2,0,.66-.3.66-1.04a1.812,1.812,0,0,0-.08-.54,1.469,1.469,0,0,0-1.22-.58c-.9,0-1.96,1.28-2.36,2.14-.02.02-.08.04-.08-.04,0-.22.12-1.7.14-1.84,0-.1-.12-.32-.22-.32a9.01,9.01,0,0,1-2.86.84A.768.768,0,0,0,34.48-7.44Zm7.72,5.3A2.284,2.284,0,0,0,44.54.16,6.117,6.117,0,0,0,47-1.18c.12.62.64,1.3,1.22,1.3a3.445,3.445,0,0,0,1.5-.76.827.827,0,0,0,.1-.38c0-.06-.02-.16-.08-.16a1.083,1.083,0,0,1-.66.26c-.46,0-.62-.4-.62-.94V-5.98a2.537,2.537,0,0,0-2.18-2.74,6.187,6.187,0,0,0-3.64,1.64,1.179,1.179,0,0,0-.14.48.781.781,0,0,0,.68.84c.5,0,.82-.28.94-.96.14-.78.4-1.24,1.1-1.24a1.914,1.914,0,0,1,1.72,1.92v.54c0,.36-.04.42-.24.5-.58.26-2.38.86-3.5,1.26A1.754,1.754,0,0,0,42.2-2.14Zm1.66-.18a1.676,1.676,0,0,1,1.22-1.56c.36-.14,1.32-.42,1.86-.58v2.72a2.554,2.554,0,0,1-1.74.82A1.379,1.379,0,0,1,43.86-2.32Zm7-1.56A4.014,4.014,0,0,0,54.9.16a3.568,3.568,0,0,0,2.92-1.7.853.853,0,0,0,.12-.36.348.348,0,0,0-.16-.28,2.92,2.92,0,0,1-2.12,1.02,3.043,3.043,0,0,1-3.24-3.38c0-2.1,1.18-3.34,2.24-3.34a1.675,1.675,0,0,1,1.14.38c.34.22.72.74,1.16.74.34,0,.76-.24.76-.96a1.029,1.029,0,0,0-.2-.56,3.222,3.222,0,0,0-1.8-.48A5.122,5.122,0,0,0,50.86-3.88ZM58.94-8c0,.06.04.18.1.18H60.2v5.8A1.9,1.9,0,0,0,62.28.14a3.023,3.023,0,0,0,2.06-1.1.687.687,0,0,0,.08-.3.156.156,0,0,0-.06-.14,2.489,2.489,0,0,1-1.3.46c-.88,0-1.32-.58-1.32-1.64V-7.82h2.4a.92.92,0,0,0,.28-.6c0-.12,0-.22-.1-.22H61.74v-2.62c0-.08-.22-.08-.32.02-.04.06-.84.9-1.22,1.34v1.26h-.74A4.254,4.254,0,0,0,58.94-8Zm6.62,4a3.953,3.953,0,0,0,4,4.16,3.568,3.568,0,0,0,2.92-1.7.853.853,0,0,0,.12-.36.348.348,0,0,0-.16-.28,3.143,3.143,0,0,1-2.2,1.06c-1.72,0-3.26-1.24-3.26-3.7v-.14c.24,0,4.42-.1,5.04-.14.38-.02.48-.36.48-.94a2.8,2.8,0,0,0-3-2.72C67.74-8.76,65.56-6.68,65.56-4Zm1.52-1.7c-.04,0,.4-2.34,2.08-2.34,1.22,0,1.64,1.3,1.64,1.88a.41.41,0,0,1-.46.46Zm6.96-1.74c.14,0,1.16.02,1.3.36a3.605,3.605,0,0,1,.1,1.04v3.72a6.088,6.088,0,0,1-.1,1.48c-.06.22-1.02.32-1.26.32a.657.657,0,0,0,0,.58c.82-.04,1.46-.1,2.24-.1s1.66.06,2.48.1a.657.657,0,0,0,0-.58c-.24,0-1.66-.1-1.72-.32a6.088,6.088,0,0,1-.1-1.48V-5.4c0-.46.74-1.8,1.6-1.8a1.352,1.352,0,0,1,.88.34,1.027,1.027,0,0,0,.6.28c.2,0,.66-.3.66-1.04a1.812,1.812,0,0,0-.08-.54,1.469,1.469,0,0,0-1.22-.58c-.9,0-1.96,1.28-2.36,2.14-.02.02-.08.04-.08-.04,0-.22.12-1.7.14-1.84,0-.1-.12-.32-.22-.32a9.01,9.01,0,0,1-2.86.84A.768.768,0,0,0,74.04-7.44Z" transform="translate(-10977.072 -2222.939)" fill="#2371aa"/>
      <path id="Path_139" data-name="Path 139" d="M14.341-35.986C8.809-35.986,2.9-31.8,2.9-26.265c0,5.586,3.921,7.949,7.842,10.581,2.686,1.826,7.949,4.941,7.949,8.755s-2.471,5.21-5.21,5.21c-4.834,0-8.218-5.693-8.7-8.594-.054-.322-.322-.43-.7-.43a3.234,3.234,0,0,0-1.558.752c.107,1.5.752,6.768,1.289,9.131A48.069,48.069,0,0,0,14.019.537c5.908,0,11.709-4.028,11.709-9.937,0-6.392-4.351-8.7-7.9-11.064-3.276-2.2-7.788-5.264-7.788-8.594,0-3.6,2.471-4.673,4.565-4.673,4.136,0,6.714,5.1,7.144,8.11.107.43,1.45.376,1.611.376a.742.742,0,0,0,.591-.322c-.161-3.276-.322-6.069-.591-8.916C20.088-35.181,17.51-35.986,14.341-35.986Zm24.546,13v-8.54c-.054-.322-.752-.376-1.343,0-1.665,1.665-3.6,3.975-5.64,5.693v2.847H29.541a9.334,9.334,0,0,0-1.719,1.826c0,.215,0,.591.269.7H31.9v13C31.9-1.45,35.557.376,38.887.376c2.793,0,5.21-2.417,5.693-2.954A2.547,2.547,0,0,0,45.01-3.6a1.423,1.423,0,0,0-.376-.752,5.163,5.163,0,0,1-2.847,1.289c-1.987,0-2.9-1.235-2.9-4.082v-13.32H44.1a3.287,3.287,0,0,0,1.235-1.826c0-.269-.107-.7-.322-.7Zm14.233-.43c-2.095,0-5.854-.215-7.251-.376a2.548,2.548,0,0,0,0,1.987c.43,0,2.686.43,3.384,2.041,0,0,6.714,13.643,8.916,18.1a25.049,25.049,0,0,1-1.88,3.813c-2.2,3.652-4.619,4.189-8.862,4.189a2.905,2.905,0,0,0-1.235,2.524c0,1.45,1.343,2.847,3.6,2.847,1.611,0,4.028-.967,6.821-4.458,2.256-2.847,3.062-5.1,4.727-8.594C64.722-8.433,70.2-20.034,70.2-20.034c.752-1.558,3.706-1.772,4.351-1.772a2.81,2.81,0,0,0,0-1.987,49.215,49.215,0,0,1-5.586.376,43.077,43.077,0,0,1-5.64-.376,2.8,2.8,0,0,0,.054,1.987c.43,0,3.813.107,3.813,1.45a5.3,5.3,0,0,1-.591,1.987c-1.772,3.975-4.243,9.4-4.243,9.4s-3.6-6.821-5.532-10.581a2.374,2.374,0,0,1-.107-.806c0-.913,2.524-1.45,3.169-1.45a2.551,2.551,0,0,0,0-1.987C58.545-23.633,55.376-23.418,53.12-23.418Zm25.513-6.553V-7.788c0,2.31,0,3.975-.43,5.049-.269.7-2.739.913-3.437.967a2.813,2.813,0,0,0,0,1.987c2.095-.215,5.1-.376,7.358-.376S87.388,0,89.482.215a2.813,2.813,0,0,0,0-1.987c-.7-.054-3.169-.269-3.437-.967-.43-1.074-.43-2.739-.43-5.049V-30.937a40.273,40.273,0,0,1,.591-5.479c-.054-.269-.483-.859-.806-.913a48.936,48.936,0,0,1-10.366,2.095c-.269.215-.215,1.719,0,1.719.645,0,2.954.322,3.223.967A6.15,6.15,0,0,1,78.633-29.971ZM98.774-15.146c0-1.826,1.182-6.66,4.351-6.66,2.417,0,3.276,2.9,3.276,5.371,0,.322-.054.806-.7.859C104.414-15.415,99.258-15.093,98.774-15.146ZM98.721-13c3.975-.107,9.238-.322,12.891-.645.806-.054,1.45-1.074,1.45-2.256,0-3.115-2.363-8.11-9.4-8.11-6.177,0-11.924,6.5-11.924,13.267C91.738-3.706,97,.483,103.018.483a12.537,12.537,0,0,0,9.722-5.21,2.524,2.524,0,0,0,.161-1.021,1.122,1.122,0,0,0-.645-.967,7.677,7.677,0,0,1-6.016,2.686C103.823-4.028,98.721-5.479,98.721-13Z" transform="translate(-10931.753 -2409.916)" fill="#24648d"/>
      <path id="Path_132" data-name="Path 132" d="M3.735.249c3.237,0,5.893-.415,9.794-.415,3.237,0,7.138.249,10.541.415a2.725,2.725,0,0,0,0-2.407c-1,0-6.308-.415-6.557-1.328A25.263,25.263,0,0,1,17.1-9.628V-25.149c0-.747,3.652-.747,5.976-.747,3.154,0,7.885.083,8.8.664.747.5,1.079.747,2.324,5.478a1.414,1.414,0,0,0,1.328.664,2.346,2.346,0,0,0,1.328-.332V-35.109a2.2,2.2,0,0,0-1.411-.415c-.581,0-1.162.166-1.245.581-1.411,5.478-1.162,5.976-9.13,5.976h-4.4c-1.826,0-3.569-.083-3.569-.5V-44.986a24.119,24.119,0,0,1,.415-5.893c.249-.83,4.731-.913,5.727-.913h7.138c4.4,0,7.8,1.162,9.628,7.8.083.415.581.581,1.162.581a2.464,2.464,0,0,0,1.494-.415c-.747-3.735-1.826-7.138-2.407-11.288-9.047,0-18.924.581-26.726.581-3.237,0-6.391-.249-9.794-.415a2.725,2.725,0,0,0,0,2.407c1,0,5.478.415,5.727,1.328a25.263,25.263,0,0,1,.415,6.142V-9.628a25.263,25.263,0,0,1-.415,6.142c-.249.913-4.731,1.328-5.727,1.328A2.725,2.725,0,0,0,3.735.249ZM47.808-17.679C47.808-7.3,54.7.581,65.653.581c10.043,0,17.6-8.217,17.6-18.924,0-10.375-6.806-18.094-17.762-18.094C55.444-36.437,47.808-28.386,47.808-17.679Zm7.138-1.66c0-7.138,2.573-14.359,9.628-14.359,7.387,0,11.537,9.213,11.537,17.264,0,7.055-2.573,14.276-9.628,14.276C59.013-2.158,54.946-11.288,54.946-19.339ZM89.474-30.876c.581,0,4.814.083,5.4,1.494a17.331,17.331,0,0,1,.415,4.648V-9.628a25.264,25.264,0,0,1-.415,6.142c-.249.913-4.233,1.328-5.229,1.328a2.725,2.725,0,0,0,0,2.407c3.4-.166,5.561-.415,8.8-.415s5.478.249,8.881.415a2.725,2.725,0,0,0,0-2.407c-1,0-4.98-.415-5.229-1.328a25.263,25.263,0,0,1-.415-6.142V-26.975c0-.747,4.814-4.565,7.885-4.565,6.474,0,8.134,3.32,8.134,13.612v8.3a25.263,25.263,0,0,1-.415,6.142c-.249.913-4.233,1.328-5.229,1.328a2.725,2.725,0,0,0,0,2.407c3.4-.166,5.561-.415,8.8-.415s5.478.249,8.881.415a2.725,2.725,0,0,0,0-2.407c-1,0-4.98-.415-5.229-1.328a25.263,25.263,0,0,1-.415-6.142v-9.13c0-12.035-1.743-17.6-10.707-17.6-3.984,0-9.545,4.233-11.2,6.059-.083.083-.166.166-.249.166-.166,0-.166-.249-.166-.332,0-.664.415-4.15.5-4.731,0-.415-.5-1.328-.913-1.328a37.39,37.39,0,0,1-11.869,3.486A3.189,3.189,0,0,0,89.474-30.876ZM132.468-33.2c0,.249.166.747.415.747H137.7v24.07c0,7.138,4.4,8.964,8.632,8.964,4.067,0,7.387-3.237,8.549-4.565a2.852,2.852,0,0,0,.332-1.245.646.646,0,0,0-.249-.581,10.327,10.327,0,0,1-5.4,1.909c-3.652,0-5.478-2.407-5.478-6.806V-32.453h9.96a3.819,3.819,0,0,0,1.162-2.49c0-.5,0-.913-.415-.913H144.088V-46.729c0-.332-.913-.332-1.328.083-.166.249-3.486,3.735-5.063,5.561v5.229h-3.071A17.655,17.655,0,0,0,132.468-33.2Z" transform="translate(-10964.765 -2146.095)" fill="#2d7198"/>
      <path id="Path_134" data-name="Path 134" d="M13.037-32.715c-5.029,0-10.4,3.809-10.4,8.838,0,5.078,3.564,7.227,7.129,9.619,2.441,1.66,7.227,4.492,7.227,7.959s-2.246,4.736-4.736,4.736c-4.395,0-7.471-5.176-7.91-7.812-.049-.293-.293-.391-.635-.391a2.94,2.94,0,0,0-1.416.684c.1,1.367.684,6.152,1.172,8.3A43.7,43.7,0,0,0,12.744.488c5.371,0,10.645-3.662,10.645-9.033,0-5.811-3.955-7.91-7.178-10.059-2.979-2-7.08-4.785-7.08-7.812a3.873,3.873,0,0,1,4.15-4.248c3.76,0,6.1,4.639,6.494,7.373.1.391,1.318.342,1.465.342a.675.675,0,0,0,.537-.293c-.146-2.979-.293-5.518-.537-8.105C18.262-31.982,15.918-32.715,13.037-32.715Zm37.93,10.84c-1.514,0-3.613,1.318-5.078,2.881-.1.1-.2,0-.2-.293a4.355,4.355,0,0,1,.439-1.66,1.687,1.687,0,0,0-.83-.83,29.286,29.286,0,0,1-9.521,2.588c-.244,0-.2,1.416-.049,1.514.342,0,2.686.244,3.076.977a14.98,14.98,0,0,1,.439,4V3.369a14.24,14.24,0,0,1-.391,4.59c-.244.635-2.49.83-3.125.879a2.557,2.557,0,0,0,0,1.807c1.9-.2,4.639-.342,6.689-.342s4.785.146,6.689.342a2.557,2.557,0,0,0,0-1.807c-.635-.049-2.881-.244-3.125-.879a14.241,14.241,0,0,1-.391-4.59V.732c0-.586,0-.781.146-.781a13.878,13.878,0,0,0,2.832.439c5.371,0,11.963-4.346,11.963-11.816C60.537-16.846,56.875-21.875,50.967-21.875Zm-2.686,3.564c3.955,0,5.225,3.564,5.225,8.594,0,5.664-2.979,7.959-4.59,7.959-1.709,0-3.32-.977-3.32-2.93V-16.943A2.764,2.764,0,0,1,48.281-18.311Zm34.9,15.283a2.982,2.982,0,0,1-2.979-3.027,3.653,3.653,0,0,1,1.758-3.271,32.457,32.457,0,0,1,3.223-1.562v6.836C85.186-3.76,84.4-3.027,83.184-3.027Zm1.025-18.9c-4.3,0-8.691,3.125-9.326,3.76a4.266,4.266,0,0,0-.684,2,2.452,2.452,0,0,0,2.539,2.344,2.573,2.573,0,0,0,2.734-2.148c.488-2.2.977-4.1,2.832-4.1,1.709,0,2.881,2.441,2.881,4.883v2.295c-2.49.928-7.178,2.832-9.033,3.418a4.156,4.156,0,0,0-2.539,3.906A6.345,6.345,0,0,0,80.01.391c1.758,0,5.078-2.148,5.518-2.539A4.345,4.345,0,0,0,89.238.293c2.051,0,4.346-1.9,5.029-2.539a1.177,1.177,0,0,0,.2-.732,1.094,1.094,0,0,0-.342-.83,2.888,2.888,0,0,1-1.416.488c-.635,0-1.172-.684-1.172-2v-9.131A7.228,7.228,0,0,0,84.209-21.924Zm41.1,3.271A3.1,3.1,0,0,0,124.336-21a10.776,10.776,0,0,0-4.932-.879c-6.738,0-12.744,6.152-12.744,12.109,0,6.4,4.785,10.205,10.254,10.205A11.4,11.4,0,0,0,125.752-4.3a2.3,2.3,0,0,0,.146-.928,1.02,1.02,0,0,0-.586-.879,6.979,6.979,0,0,1-5.469,2.441c-3.125,0-7.031-2.1-7.031-8.936,0-2.979,1.27-6.738,3.418-6.738a4.6,4.6,0,0,1,3.32,1.514c.781.879,1.611,2.2,2.93,2.2A2.965,2.965,0,0,0,125.312-18.652Zm19.619,4.883c0-1.66,1.074-6.055,3.955-6.055,2.2,0,2.979,2.637,2.979,4.883,0,.293-.049.732-.635.781C150.059-14.014,145.371-13.721,144.932-13.77Zm-.049,1.953c3.613-.1,8.4-.293,11.719-.586.732-.049,1.318-.977,1.318-2.051,0-2.832-2.148-7.373-8.545-7.373-5.615,0-10.84,5.908-10.84,12.061,0,6.4,4.785,10.205,10.254,10.205A11.4,11.4,0,0,0,157.627-4.3a2.3,2.3,0,0,0,.146-.928,1.02,1.02,0,0,0-.586-.879,6.979,6.979,0,0,1-5.469,2.441C149.521-3.662,144.883-4.98,144.883-11.816Z" transform="translate(-10935.324 -2258.008)" fill="#166183"/>
      <path id="Path_140" data-name="Path 140" d="M.91.105C2.52.035,3.395-.07,5.005-.07c1.54,0,2.31.105,3.71.175A1.731,1.731,0,0,0,8.645-.91c-.28,0-2.555-.1-2.765-.63a3.693,3.693,0,0,1-.14-1.085c0-.35.315-10.185.455-17.815L14.735,0c.1.035.21.105.315.07.385-.07,1.19-1.47,1.33-1.785C19.075-8.47,20.9-13.02,23.765-20.23c.07-.175.1-.245.175-.245.245,0,.315.56.315.7.21,5.67.315,9.94.455,14.98,0,.525.07,1.54.07,2.03s-.07,1.33-.315,1.47A7.39,7.39,0,0,1,22.19-.91a1.637,1.637,0,0,0,0,1.015c1.61-.07,2.59-.175,4.2-.175,1.54,0,2.765.105,4.165.175a1.759,1.759,0,0,0-.07-1.015c-.28,0-2.275-.1-2.45-.595a11.331,11.331,0,0,1-.42-3.4c-.1-4.55-.28-12.88-.35-15.3a3.953,3.953,0,0,1,.175-1.33c.175-.35,2-.63,2.485-.63,0,0-.07-.91-.105-1.015-.875.07-2.695.14-3.92.14-.665,0-1.645-.07-2.765-.14,0,0-.91,2.59-1.54,4.2-2.03,5.18-3.29,8.47-5.355,13.79a.211.211,0,0,1-.175.14.14.14,0,0,1-.14-.07C13.44-11.34,9.2-20.965,8.505-23.17A27.77,27.77,0,0,1,5.67-23c-1.61,0-2-.1-3.605-.175a2.473,2.473,0,0,0,0,1.015c.42,0,2.31.315,2.45.735a4.424,4.424,0,0,1,.14,1.4c0,.63-.175,8.33-.49,16.73a3.238,3.238,0,0,1-.42,1.75C3.43-1.085,1.33-.91.91-.91A1.637,1.637,0,0,0,.91.105Zm32.13-3.85A4,4,0,0,0,37.135.28c1.225,0,3.885-1.925,4.305-2.345C41.65-.98,42.56.21,43.575.21A6.029,6.029,0,0,0,46.2-1.12a1.448,1.448,0,0,0,.175-.665c0-.105-.035-.28-.14-.28a1.9,1.9,0,0,1-1.155.455C44.275-1.61,44-2.31,44-3.255v-7.21c0-2.695-1.82-4.795-3.815-4.795-2.555,0-5.285,1.855-6.37,2.87a2.064,2.064,0,0,0-.245.84,1.367,1.367,0,0,0,1.19,1.47c.875,0,1.435-.49,1.645-1.68.245-1.365.7-2.17,1.925-2.17a3.35,3.35,0,0,1,3.01,3.36v.945c0,.63-.07.735-.42.875C39.9-8.3,36.75-7.245,34.79-6.545A3.069,3.069,0,0,0,33.04-3.745Zm2.9-.315A2.933,2.933,0,0,1,38.08-6.79c.63-.245,2.31-.735,3.255-1.015v4.76c0,.35-1.82,1.435-3.045,1.435A2.413,2.413,0,0,1,35.945-4.06Zm14.49-8.96c.245,0,2.03.035,2.275.63a6.309,6.309,0,0,1,.175,1.82v6.51a10.653,10.653,0,0,1-.175,2.59c-.1.385-1.785.56-2.205.56a1.149,1.149,0,0,0,0,1.015C51.94.035,53.06-.07,54.425-.07s2.9.105,4.34.175a1.149,1.149,0,0,0,0-1.015c-.42,0-2.9-.175-3.01-.56a10.653,10.653,0,0,1-.175-2.59V-9.45c0-.8,1.3-3.15,2.8-3.15a2.366,2.366,0,0,1,1.54.6,1.8,1.8,0,0,0,1.05.49c.35,0,1.155-.525,1.155-1.82a3.172,3.172,0,0,0-.14-.945A2.571,2.571,0,0,0,59.85-15.3c-1.575,0-3.43,2.24-4.13,3.745-.035.035-.14.07-.14-.07,0-.385.21-2.975.245-3.22,0-.175-.21-.56-.385-.56a15.767,15.767,0,0,1-5.005,1.47A1.345,1.345,0,0,0,50.435-13.02Zm13.02,16.7c0,2.87,3.22,4.305,6.055,4.27,4.865-.035,9.1-3.745,9.1-6.615,0-1.96-2.66-3.675-5.425-3.675h-4.13c-1.4,0-2.1-.875-2.1-1.225,0-.56.665-1.19,1.295-1.54a7.4,7.4,0,0,0,1.96.315c3.36,0,5.915-2.7,5.915-5.145a5.859,5.859,0,0,0-.98-3.185c0-.07.035-.1.14-.1,0,0,1.435.1,2.31.14a2.715,2.715,0,0,0,.805-1.435c0-.14-.105-.28-.35-.35l-3.745.525A4.2,4.2,0,0,1,73.5-14.6a7.7,7.7,0,0,0-3.185-.77c-3.36,0-5.915,2.52-5.915,5.285a5.456,5.456,0,0,0,2.9,4.48,18.291,18.291,0,0,0-3.01,2.38c0,1.75,1.645,2.87,2.87,3.255C65.975.63,63.455,2.135,63.455,3.675ZM66.22,2.66c0-.91,1.295-1.89,2.1-2.345A21.937,21.937,0,0,1,71.575.14c3.325,0,4.62,1.68,4.62,2.7,0,1.925-2.87,3.745-5.285,3.745C67.935,6.58,66.22,4.935,66.22,2.66ZM67.1-10.22c0-1.995,1.085-4.1,3.08-4.1,2.17,0,3.255,2.31,3.255,4.48,0,1.925-1.05,3.99-2.975,3.99C68.32-5.845,67.1-8.085,67.1-10.22Zm13.055-2.8c.245,0,2.03.035,2.275.63a6.309,6.309,0,0,1,.175,1.82v6.51a10.653,10.653,0,0,1-.175,2.59c-.1.385-1.785.56-2.2.56a1.149,1.149,0,0,0,0,1.015c1.435-.07,2.345-.175,3.71-.175s2.31.105,3.745.175a1.149,1.149,0,0,0,0-1.015c-.42,0-2.1-.175-2.205-.56a10.653,10.653,0,0,1-.175-2.59v-8.47c0-.35.21-2.065.245-2.31,0-.175-.21-.56-.385-.56a15.767,15.767,0,0,1-5,1.47A1.345,1.345,0,0,0,80.15-13.02Zm1.785-8.3a1.733,1.733,0,0,0,1.75,1.75,1.733,1.733,0,0,0,1.75-1.75,1.733,1.733,0,0,0-1.75-1.75A1.733,1.733,0,0,0,81.935-21.315Zm7.665,8.3c.245,0,2.03.035,2.275.63a7.308,7.308,0,0,1,.175,1.96v6.37a10.653,10.653,0,0,1-.175,2.59c-.1.385-1.785.56-2.2.56a1.149,1.149,0,0,0,0,1.015c1.435-.07,2.345-.175,3.71-.175s2.31.105,3.745.175a1.149,1.149,0,0,0,0-1.015c-.42,0-2.1-.175-2.2-.56a10.653,10.653,0,0,1-.175-2.59v-7.315A5.336,5.336,0,0,1,98.07-13.3c2.73,0,3.43,1.4,3.43,5.74v3.5a10.653,10.653,0,0,1-.175,2.59c-.105.385-1.785.56-2.205.56a1.149,1.149,0,0,0,0,1.015c1.435-.07,2.345-.175,3.71-.175s2.31.105,3.745.175a1.149,1.149,0,0,0,0-1.015c-.42,0-2.1-.175-2.205-.56a10.653,10.653,0,0,1-.175-2.59V-7.91c0-5.075-.735-7.42-4.515-7.42-1.68,0-4.025,1.785-4.725,2.555-.035.035-.07.07-.1.07-.07,0-.07-.1-.07-.14,0-.28.175-1.75.21-1.995,0-.175-.21-.56-.385-.56a15.767,15.767,0,0,1-5,1.47A1.345,1.345,0,0,0,89.6-13.02Z" transform="translate(-10929.418 -2464.753)" fill="#225576"/>
      <path id="Path_149" data-name="Path 149" d="M3.15.21h17.5c19.74,0,25.48-11.69,25.48-23.59,0-12.95-9.24-22.68-24.57-22.68-3.08,0-7.42.07-10.15.07s-5.39-.21-8.26-.35a2.3,2.3,0,0,0,0,2.03c.84,0,4.62.35,4.83,1.12a21.306,21.306,0,0,1,.35,5.18V-8.12a21.306,21.306,0,0,1-.35,5.18c-.21.77-3.99,1.12-4.83,1.12A2.3,2.3,0,0,0,3.15.21ZM14.49-8.05V-37.87a21.608,21.608,0,0,1,.35-5.18c.21-.7,3.99-.77,4.83-.77,10.08,0,19.53,6.09,19.53,21.91,0,13.65-8.61,19.88-18.55,19.88-2.59,0-5.18-.21-5.74-.98C14.56-3.43,14.49-7.07,14.49-8.05ZM52.5-14C52.5-5.74,58.24.56,66.5.56c5.46,0,8.96-3.92,10.22-5.95a2.985,2.985,0,0,0,.42-1.26,1.217,1.217,0,0,0-.56-.98,11,11,0,0,1-7.7,3.71c-6.02,0-11.41-4.34-11.41-12.95v-.49c.84,0,15.47-.35,17.64-.49,1.33-.07,1.68-1.26,1.68-3.29,0-2.8-2.1-9.52-10.5-9.52C60.13-30.66,52.5-23.38,52.5-14Zm5.32-5.95c-.14,0,1.4-8.19,7.28-8.19,4.27,0,5.74,4.55,5.74,6.58a1.435,1.435,0,0,1-1.61,1.61ZM82.67-7.84A29.872,29.872,0,0,0,83.86-.56C86.94,0,88.83.77,92.05.77c5.67,0,10.78-3.99,10.78-9.66,0-3.85-3.64-6.09-8.05-8.54-3.917-2.176-6.09-3.36-6.09-6.58,0-2.52,1.61-4.41,4.97-4.41,3.01,0,5.18,3.85,5.88,6.44a1.955,1.955,0,0,0,1.19.35c.35,0,.7-.07.7-.35a43.955,43.955,0,0,0-.84-7.7c-3.08-.35-4.41-.91-7.14-.91-5.18,0-10.15,3.36-10.15,8.54,0,4.467,3.36,6.58,8.19,9.056,3.077,1.578,5.67,3.218,5.67,6.484a4.738,4.738,0,0,1-5.04,5.04c-3.71,0-6.72-3.71-7.56-6.65a1.04,1.04,0,0,0-.63-.14A2.7,2.7,0,0,0,82.67-7.84Zm25.34-18.2c.49,0,4.06.07,4.55,1.26a12.619,12.619,0,0,1,.35,3.64V-8.12a21.306,21.306,0,0,1-.35,5.18c-.21.77-3.57,1.12-4.41,1.12a2.3,2.3,0,0,0,0,2.03c2.87-.14,4.69-.35,7.42-.35s4.62.21,7.49.35a2.3,2.3,0,0,0,0-2.03c-.84,0-4.2-.35-4.41-1.12a21.306,21.306,0,0,1-.35-5.18V-25.06c0-.7.42-4.13.49-4.62,0-.35-.42-1.12-.77-1.12a31.534,31.534,0,0,1-10.01,2.94A2.689,2.689,0,0,0,108.01-26.04Zm3.57-16.59a3.466,3.466,0,0,0,3.5,3.5,3.466,3.466,0,0,0,3.5-3.5,3.466,3.466,0,0,0-3.5-3.5A3.466,3.466,0,0,0,111.58-42.63ZM126.14,7.35c0,5.74,6.44,8.61,12.11,8.54,9.73-.07,18.2-7.49,18.2-13.23,0-3.92-5.32-7.35-10.85-7.35h-8.26c-2.8,0-4.2-1.75-4.2-2.45,0-1.12,1.33-2.38,2.59-3.08a14.8,14.8,0,0,0,3.92.63c6.72,0,11.83-5.39,11.83-10.29a11.717,11.717,0,0,0-1.96-6.37c0-.14.07-.21.28-.21,0,0,2.87.21,4.62.28a5.431,5.431,0,0,0,1.61-2.87c0-.28-.21-.56-.7-.7l-7.49,1.05a8.406,8.406,0,0,1-1.61-.49,15.392,15.392,0,0,0-6.37-1.54c-6.72,0-11.83,5.04-11.83,10.57,0,3.43,2.38,7.07,5.81,8.96a36.581,36.581,0,0,0-6.02,4.76c0,3.5,3.29,5.74,5.74,6.51C131.18,1.26,126.14,4.27,126.14,7.35Zm5.53-2.03c0-1.82,2.59-3.78,4.2-4.69.49-.28,5.25-.35,6.51-.35,6.65,0,9.24,3.36,9.24,5.39,0,3.85-5.74,7.49-10.57,7.49C135.1,13.16,131.67,9.87,131.67,5.32Zm1.75-25.76c0-3.99,2.17-8.19,6.16-8.19,4.34,0,6.51,4.62,6.51,8.96,0,3.85-2.1,7.98-5.95,7.98C135.87-11.69,133.42-16.17,133.42-20.44Zm26.11-5.6c.49,0,4.06.07,4.55,1.26a14.616,14.616,0,0,1,.35,3.92V-8.12a21.306,21.306,0,0,1-.35,5.18c-.21.77-3.57,1.12-4.41,1.12a2.3,2.3,0,0,0,0,2.03c2.87-.14,4.69-.35,7.42-.35s4.62.21,7.49.35a2.3,2.3,0,0,0,0-2.03c-.84,0-4.2-.35-4.41-1.12a21.306,21.306,0,0,1-.35-5.18V-22.75c0-.63,4.06-3.85,6.65-3.85,5.46,0,6.86,2.8,6.86,11.48v7a21.307,21.307,0,0,1-.35,5.18c-.21.77-3.57,1.12-4.41,1.12a2.3,2.3,0,0,0,0,2.03c2.87-.14,4.69-.35,7.42-.35s4.62.21,7.49.35a2.3,2.3,0,0,0,0-2.03c-.84,0-4.2-.35-4.41-1.12a21.307,21.307,0,0,1-.35-5.18v-7.7c0-10.15-1.47-14.84-9.03-14.84-3.36,0-8.05,3.57-9.45,5.11-.07.07-.14.14-.21.14-.14,0-.14-.21-.14-.28,0-.56.35-3.5.42-3.99,0-.35-.42-1.12-.77-1.12a31.534,31.534,0,0,1-10.01,2.94A2.689,2.689,0,0,0,159.53-26.04Z" transform="translate(-10935.324 -2509)" fill="#5f88b1"/>
      <path id="Path_141" data-name="Path 141" d="M.046,9.045c.553-.027,1.067-.068,1.593-.068s1.026.041,1.58.068a.535.535,0,0,0,0-.432c-.162,0-.891-.068-.932-.216a4.109,4.109,0,0,1-.068-1V4.887a.322.322,0,0,1,.122-.027c.054,0,.095,0,.122.041C3.988,6.642,5.216,8.033,5.5,8.316a2.346,2.346,0,0,0,.918.581,8.123,8.123,0,0,0,1.917.148c.014-.027.081-.324.014-.391a2.2,2.2,0,0,1-1.472-.621C5.837,7.047,4.717,5.711,3.421,4.2a.082.082,0,0,1,0-.108C4.6,2.957,5.378,2.255,6.539.986a1.953,1.953,0,0,1,1.336-.5c.068,0,.054-.338.027-.419-.54.027-.864.081-1.458.081-.5,0-1.053-.054-1.552-.081a.732.732,0,0,0,0,.419c.122,0,.756-.041.756.3a.843.843,0,0,1-.189.419A16.047,16.047,0,0,1,3.745,3.038,14.81,14.81,0,0,1,2.219,4.4V1.714a4.109,4.109,0,0,1,.068-1C2.327.567,3.056.5,3.218.5a.535.535,0,0,0,0-.432c-.554.027-1.053.068-1.58.068S.6.094.046.068A.535.535,0,0,0,.046.5C.208.5.937.567.977.715a4.109,4.109,0,0,1,.068,1V7.4a4.109,4.109,0,0,1-.068,1c-.041.149-.769.216-.931.216A.535.535,0,0,0,.046,9.045Zm12.042,0c.527,0,.972-.04,1.607-.04,1.8,0,3.132.054,4.6.054a16.454,16.454,0,0,1,.729-2.241.645.645,0,0,0-.337-.081c-.094,0-.175.027-.189.081a2.48,2.48,0,0,1-.85,1.364,3.652,3.652,0,0,1-1.7.365H15.3c-.567,0-.783,0-.958-.135a3.139,3.139,0,0,1-.081-.931V4.914c0-.122.594-.122.972-.122a5.471,5.471,0,0,1,1.431.108c.122.081.176.122.378.891a.23.23,0,0,0,.216.108.382.382,0,0,0,.216-.054V3.294a.357.357,0,0,0-.229-.067c-.094,0-.189.027-.2.094-.229.891-.189.972-1.485.972h-.715c-.3,0-.58-.013-.58-.081V1.688a3.923,3.923,0,0,1,.067-.958c.041-.135.77-.149.932-.149h1.161c.715,0,1.269.189,1.566,1.269.014.068.094.094.189.094a.4.4,0,0,0,.243-.067c-.122-.608-.3-1.161-.392-1.836-1.472,0-3.078.094-4.347.094-.527,0-1.04-.041-1.593-.068a.443.443,0,0,0,0,.392c.162,0,.891.067.931.216a4.109,4.109,0,0,1,.068,1V7.439a4.109,4.109,0,0,1-.068,1c-.04.149-.769.216-.931.216A.443.443,0,0,0,12.088,9.045Zm11.1,0c.553-.027,1.066-.068,1.593-.068s1.026.041,1.58.068a.443.443,0,0,0,0-.391c-.162,0-.891-.068-.931-.216a4.109,4.109,0,0,1-.068-1V4.928h.715a.44.44,0,0,1,.4.162c.851,1.323,1.944,2.929,2.147,3.2a1.7,1.7,0,0,0,.877.594,6.594,6.594,0,0,0,1.782.162c.014-.027.081-.324.014-.391a1.849,1.849,0,0,1-1.525-.81A32.363,32.363,0,0,1,27.6,4.671a2.692,2.692,0,0,0,1.836-2.227A2.565,2.565,0,0,0,26.695.108c-.8,0-1.39.027-1.917.027S23.738.094,23.185.068a.443.443,0,0,0,0,.392c.162,0,.891.067.931.216a4.109,4.109,0,0,1,.068,1V7.439a4.109,4.109,0,0,1-.068,1c-.04.149-.769.216-.931.216A.443.443,0,0,0,23.185,9.045Zm2.174-4.536V1.688A4,4,0,0,1,25.426.675C25.48.554,25.939.54,26.1.54A1.838,1.838,0,0,1,28.18,2.565a2.011,2.011,0,0,1-2.092,1.944Zm9.329,4.536c.621-.027.823-.068,1.444-.068.594,0,1,.041,1.539.068a.567.567,0,0,0-.027-.391,2.236,2.236,0,0,1-1.012-.27,1.682,1.682,0,0,1-.135-.931V1.323l5.886,7.438a.736.736,0,0,0,.472.311c.041,0,.162-.014.175-.081C43,8.289,43,7.911,43,7.128V1.634a1.675,1.675,0,0,1,.135-.918c.094-.162.891-.27,1.053-.27a.483.483,0,0,0,0-.391c-.621.027-.824.068-1.445.068-.594,0-1.012-.041-1.552-.068a.567.567,0,0,0,.027.391,2.3,2.3,0,0,1,1.026.27,1.682,1.682,0,0,1,.135.932V6.764c-1.5-2.092-4.6-5.616-5.292-6.7-.189.014-.621.027-1.026.027-.446,0-.756-.04-1.377-.067a.483.483,0,0,0,0,.392c.162,0,.958.108,1.053.27a1.675,1.675,0,0,1,.135.918V7.466a1.675,1.675,0,0,1-.135.918c-.094.162-.891.27-1.053.27A.483.483,0,0,0,34.687,9.045Zm13.7,0c.554-.027,1.067-.068,1.593-.068s1.026.041,1.579.068a.443.443,0,0,0,0-.391c-.162,0-.891-.068-.931-.216a4.109,4.109,0,0,1-.068-1V1.674a4.109,4.109,0,0,1,.068-1c.04-.149.77-.216.931-.216a.443.443,0,0,0,0-.392c-.553.027-1.053.068-1.579.068S48.943.094,48.389.068a.443.443,0,0,0,0,.392c.162,0,.891.067.932.216a4.109,4.109,0,0,1,.067,1V7.439a4.109,4.109,0,0,1-.067,1c-.04.149-.77.216-.932.216A.443.443,0,0,0,48.389,9.045Zm7.493,0c.621-.027.823-.068,1.444-.068.594,0,1,.041,1.539.068a.567.567,0,0,0-.027-.391,2.236,2.236,0,0,1-1.012-.27,1.682,1.682,0,0,1-.135-.931V1.323l5.886,7.438a.736.736,0,0,0,.472.311c.041,0,.162-.014.176-.081-.027-.7-.027-1.08-.027-1.863V1.634a1.675,1.675,0,0,1,.135-.918c.095-.162.891-.27,1.053-.27a.483.483,0,0,0,0-.391c-.621.027-.824.068-1.444.068-.594,0-1.013-.041-1.553-.068a.567.567,0,0,0,.027.391,2.3,2.3,0,0,1,1.026.27,1.682,1.682,0,0,1,.135.932V6.764c-1.5-2.092-4.6-5.616-5.292-6.7-.189.014-.621.027-1.026.027-.446,0-.756-.04-1.377-.067a.483.483,0,0,0,0,.392c.162,0,.958.108,1.053.27a1.675,1.675,0,0,1,.135.918V7.466a1.675,1.675,0,0,1-.135.918c-.094.162-.891.27-1.053.27A.483.483,0,0,0,55.882,9.045ZM69.625,4.658a4.39,4.39,0,0,0,4.509,4.428,5.61,5.61,0,0,0,3.091-.7c.229-.122.27-.162.27-.243,0-.135-.135-.256-.135-.54V6.642a4.109,4.109,0,0,1,.068-1c.04-.148.715-.216.877-.216a.443.443,0,0,0,0-.391c-.553.027-.985.068-1.512.068s-1.026-.041-1.579-.068a.443.443,0,0,0,0,.391c.162,0,.878.068.918.216a4.109,4.109,0,0,1,.068,1V8.006c0,.094-.014.162-.095.2a3.516,3.516,0,0,1-1.633.432c-2.362,0-3.51-2.16-3.51-4.266,0-1.89,1.3-3.929,3.294-3.929A2.339,2.339,0,0,1,76.9,2.417a.26.26,0,0,0,.162.041c.135,0,.311-.095.3-.175,0-.135-.311-2-.311-2A13.519,13.519,0,0,0,74.188,0,4.552,4.552,0,0,0,69.625,4.658Z" transform="translate(-10976 -2410.254) rotate(-90)" fill="#0099d1"/>
      <path id="Path_136" data-name="Path 136" d="M.6,31.7a1.2,1.2,0,0,0,.95.35.989.989,0,0,0,.7-.25c.7-3.5,2.3-6.1,4.8-6.1H13.5V51.2a15.219,15.219,0,0,1-.25,3.7c-.15.55-2.85.8-3.45.8a1.642,1.642,0,0,0,0,1.45c2.05-.1,3.95-.25,5.9-.25s3.8.15,5.85.25a1.642,1.642,0,0,0,0-1.45c-.6,0-3.3-.25-3.45-.8a15.219,15.219,0,0,1-.25-3.7V25.7H24.2c2.5,0,4.1,2.6,4.8,6.1a.989.989,0,0,0,.7.25,1.2,1.2,0,0,0,.95-.35c-.55-2.65-.95-5.55-1.3-8.6-.3-.15-.45-.15-.95.1a9.443,9.443,0,0,1-3,.75H5.85a8.233,8.233,0,0,1-2.8-.7A1.562,1.562,0,0,0,1.9,23.1C1.55,26.15,1.15,29.05.6,31.7Zm30.8,5.25c.6,0,2.2-.05,2.7,1,2.95,6.4,5.1,11.8,7.9,18.95a27.781,27.781,0,0,1-2.4,5.05c-2,2.7-3.35,2.85-5.7,2.85a2.422,2.422,0,0,0-.6,1.45,1.962,1.962,0,0,0,2.2,2.15,5.542,5.542,0,0,0,4.35-2.8c1.8-2.65,2.7-5.85,3.95-8.9,2.9-7.1,4.55-11,7.5-18.05.6-1.4,2.8-1.7,3.2-1.7.2,0,.3-1.15.1-1.45a37.548,37.548,0,0,1-4.2.25,37.59,37.59,0,0,1-4.5-.25c-.25.25-.25,1.45,0,1.45,1.7,0,2.9.6,2.9,1.6a4.383,4.383,0,0,1-.3,1.6c-1.9,4.7-4.4,11.35-4.4,11.35L38.8,38c-.05-.1-.1-.15-.1-.2,0-.75,2.15-.85,2.5-.85.25,0,.3-1.15.2-1.45-.85.1-3.1.25-5,.25-2.05,0-4.05-.15-5-.25A3.532,3.532,0,0,0,31.4,36.95ZM55.55,38.4c.35,0,2.9.05,3.25.9a9.013,9.013,0,0,1,.25,2.6V62.35a15.219,15.219,0,0,1-.25,3.7c-.15.55-2.55.8-3.15.8a1.642,1.642,0,0,0,0,1.45c2.05-.1,3.35-.25,5.3-.25s3.3.15,5.35.25a1.642,1.642,0,0,0,0-1.45c-.6,0-3-.25-3.15-.8a15.219,15.219,0,0,1-.25-3.7V57.5a1.109,1.109,0,0,1,.2-.65,12.833,12.833,0,0,0,3.5.55c5.65,0,11.7-5.55,11.7-12,0-4.3-2.85-10.3-9.05-10.3-2,0-4.85,1.8-6.1,2.85-.05.05-.1.1-.15.1-.1,0-.1-.15-.1-.2,0-.4.3-1.7.35-2.05,0-.25-.3-.8-.55-.8a22.524,22.524,0,0,1-7.15,2.1A1.921,1.921,0,0,0,55.55,38.4ZM62.9,52V40c0-.7,2.15-1.95,4.2-1.95,3.8,0,7,3.25,7,9.2,0,4.05-2.4,8.4-6.55,8.4C65.8,55.65,62.9,54.6,62.9,52Zm19.35-5c0,5.9,4.1,10.4,10,10.4a8.919,8.919,0,0,0,7.3-4.25,2.132,2.132,0,0,0,.3-.9.869.869,0,0,0-.4-.7,7.858,7.858,0,0,1-5.5,2.65c-4.3,0-8.15-3.1-8.15-9.25V44.6c.6,0,11.05-.25,12.6-.35.95-.05,1.2-.9,1.2-2.35,0-2-1.5-6.8-7.5-6.8C87.7,35.1,82.25,40.3,82.25,47Zm3.8-4.25c-.1,0,1-5.85,5.2-5.85,3.05,0,4.1,3.25,4.1,4.7a1.025,1.025,0,0,1-1.15,1.15Z" transform="translate(-10973.985 -2370.044)" fill="#094c84"/>
      <path id="Path_135" data-name="Path 135" d="M29.346,1.154H8.835C4.386,1.154,3.521,0,2.409,0a1.087,1.087,0,0,0-.741.182L0,11.359a4.278,4.278,0,0,0,1.792.425c.309,0,.556-.061.618-.3.618-3.948,3.46-7.654,6.611-7.654h5.746V32.254c0,2.612,0,4.495-.494,5.71-.309.79-3.151,1.033-3.954,1.093a3.131,3.131,0,0,0,0,2.247c2.409-.243,6.116-.425,8.711-.425s6.425.182,8.835.425a3.131,3.131,0,0,0,0-2.247c-.8-.061-3.645-.3-3.954-1.093-.494-1.215-.494-3.1-.494-5.71V3.827H29.16c3.151,0,5.993,3.705,6.611,7.654.062.243.309.3.618.3a4.278,4.278,0,0,0,1.792-.425L36.512.182A1.087,1.087,0,0,0,35.771,0C34.659,0,33.794,1.154,29.346,1.154Zm23.724,31.1c0,2.612,0,4.495-.494,5.71-.309.79-3.151,1.033-3.954,1.093a3.131,3.131,0,0,0,0,2.247c2.409-.243,6.116-.425,8.711-.425s6.425.182,8.835.425a3.131,3.131,0,0,0,0-2.247c-.8-.061-3.645-.3-3.954-1.093-.494-1.215-.494-3.1-.494-5.71V24.115a3.116,3.116,0,0,1,.371-1.154C63.881,19.377,72.1,6.378,73.334,4.616c.927-1.4,3.769-1.458,4.572-1.519a3.131,3.131,0,0,0,0-2.247c-2.533.121-4.2.425-6.919.425A68.333,68.333,0,0,1,64,.85,3.131,3.131,0,0,0,64,3.1c.8.061,4.572.364,4.572,1.458a3.023,3.023,0,0,1-.309,1.4c-2.657,4.859-7.475,13.485-7.784,13.181L53.07,5.71a2.429,2.429,0,0,1-.432-.972c0-1.519,2.965-1.579,3.769-1.64a3.131,3.131,0,0,0,0-2.247c-2.409.243-6.116.425-8.711.425S41.269,1.093,38.86.85a3.131,3.131,0,0,0,0,2.247c.8.061,3.274.486,4.2,2,.741,1.215.988,1.64,1.915,3.341,0,0,6.24,10.812,7.784,14.153a2.363,2.363,0,0,1,.309,1.215Zm59.062-20.47c0-6.925-6.487-10.812-14.21-10.812-3.645,0-6.919.182-9.514.182s-6.054,0-8.835-.182a3.131,3.131,0,0,0,0,2.247c.8.061,3.645.182,3.954.972.494,1.215.494,3.1.494,5.71V32.254c0,2.612,0,4.495-.494,5.71-.309.79-3.151,1.033-3.954,1.093a3.131,3.131,0,0,0,0,2.247c2.409-.243,6.116-.425,8.711-.425s6.425.182,8.835.425a3.131,3.131,0,0,0,0-2.247c-.8-.061-3.645-.3-3.954-1.093-.494-1.215-.494-3.1-.494-5.71V7.836A11.307,11.307,0,0,1,92.98,4.13c.309-.668,1.668-.729,3.089-.729,4.139,0,6.858,4.434,6.858,9.233,0,4.677-2.162,7.9-5.19,7.9a10.2,10.2,0,0,1-2.533-.243c-.124,0-.185.182-.185.425a2.772,2.772,0,0,0,.432,1.519,6.7,6.7,0,0,0,4.263,1.4C105.954,23.629,112.132,19.073,112.132,11.784Zm23.23-8.625c9.205,0,12.6,10.873,12.6,20.166,0,7.35-2.471,15.732-9.823,15.732-9.205,0-12.418-10.751-12.418-20.045C125.724,11.662,128.071,3.159,135.361,3.159ZM136.844.547c-10.873,0-21.005,9.233-21.005,20.592s10.132,20.531,21.005,20.531,21.005-9.172,21.005-20.531S147.717.547,136.844.547Zm54.305,29.4v7.046a.94.94,0,0,1-.556.911,11,11,0,0,1-4.819.972c-8.711,0-13.1-9.415-13.1-18.891,0-8.5,3.027-16.826,12.171-16.826,8.711,0,11.182,6.013,11.8,8.382a1.12,1.12,0,0,0,.865.243c.741,0,1.606-.547,1.606-.911,0-.729-1.977-8.5-2.1-9.172A72.675,72.675,0,0,0,184.168.547c-11.738,0-21.376,9.6-21.376,20.956,0,11.48,9.576,19.984,21.253,19.984,5.684,0,9.947-1.579,13.839-3.037.8-.3,2.162-.911,2.162-1.579,0-.3-.371-1.215-.371-1.762v-6.5A4,4,0,0,1,200.416,26a10.254,10.254,0,0,1,3.274-.79c.185,0,.309-1.458.062-2.247-2.471.121-5,.364-7.6.364-3.151,0-6.3-.243-9.452-.364-.309.3-.247,2.247.062,2.247.741,0,3.645.121,4.078,1.64A9.109,9.109,0,0,1,191.149,29.946ZM225.623.972c-3.645,0-6.919.182-9.514.182s-6.055,0-8.835-.182a3.131,3.131,0,0,0,0,2.247c.8.061,3.645.182,3.954.972.494,1.215.494,3.1.494,5.71V32.254c0,2.612,0,4.495-.494,5.71-.309.79-3.151,1.033-3.954,1.093a3.131,3.131,0,0,0,0,2.247c2.409-.243,6.116-.425,8.711-.425s6.425.182,8.835.425a3.131,3.131,0,0,0,0-2.247c-.8-.061-3.645-.3-3.954-1.093-.494-1.215-.494-3.1-.494-5.71V22.9h.927c.494,0,1.112.911,1.112.911l10.008,13.181a11.679,11.679,0,0,0,9.452,4.556c2.533,0,6.3-.121,8.093-.243a4.566,4.566,0,0,0,0-2.247c-.494,0-5.684-.182-10.256-5.892,0,0-4.448-5.345-8.958-11.3,2.965-.729,8.4-4.859,8.4-9.84C239.153,4.738,233.345.972,225.623.972Zm4.325,11.662c0,4.677-3.213,7.9-6.734,7.9h-2.842V7.836a11.307,11.307,0,0,1,.309-3.705c.309-.668,1.668-.729,3.089-.729C228.835,3.4,229.947,7.836,229.947,12.634Zm23.6,20.288a27.586,27.586,0,0,1-2.162,4.252c-.618.972-3.583,1.944-4.325,1.944a3.134,3.134,0,0,0,.124,2.187,51.945,51.945,0,0,1,6.734-.486,52.631,52.631,0,0,1,6.672.486,3.15,3.15,0,0,0-.062-2.247c-.494,0-4.757-.486-4.757-2.065a24.6,24.6,0,0,1,1.359-4.13c.68-1.7,2.224-5.1,2.224-5.1a.577.577,0,0,1,.432-.3c2.162-.061,3.892-.061,6.425-.061,1.544,0,3.583-.061,5.931.061.185,0,.432.243.432.243s3.707,8.686,3.707,9.233a1.264,1.264,0,0,1-.556,1.033,6.565,6.565,0,0,1-3.645,1.093c-.309,0-.309,1.944,0,2.247,2.224-.121,6.487-.486,9.329-.486,2.718,0,5.807.364,8.279.486a3.2,3.2,0,0,0-.124-2.247c-.494,0-3.83-.121-4.881-2.612-.556-1.276-.927-2.49-1.73-4.373L270.29,1.276a2,2,0,0,0-1.3-.425c-.68,0-1.915,1.519-2.286,2.308Zm12.418-20.774,5.128,11.905s-.062.3-.185.3c-1.915.121-3.027.121-4.942.121-1.421,0-3.892-.061-5.128-.182-.124,0-.124-.243-.124-.243Zm58.383-.364c0-6.925-6.487-10.812-14.21-10.812-3.645,0-6.919.182-9.514.182s-6.054,0-8.835-.182a3.131,3.131,0,0,0,0,2.247c.8.061,3.645.182,3.954.972.494,1.215.494,3.1.494,5.71V32.254c0,2.612,0,4.495-.494,5.71-.309.79-3.151,1.033-3.954,1.093a3.131,3.131,0,0,0,0,2.247c2.409-.243,6.116-.425,8.711-.425s6.425.182,8.835.425a3.131,3.131,0,0,0,0-2.247c-.8-.061-3.645-.3-3.954-1.093-.494-1.215-.494-3.1-.494-5.71V7.836A11.308,11.308,0,0,1,305.2,4.13c.309-.668,1.668-.729,3.089-.729,4.139,0,6.858,4.434,6.858,9.233,0,4.677-2.162,7.9-5.19,7.9a10.2,10.2,0,0,1-2.533-.243c-.124,0-.185.182-.185.425a2.773,2.773,0,0,0,.432,1.519,6.7,6.7,0,0,0,4.263,1.4C318.17,23.629,324.348,19.073,324.348,11.784ZM336.766,1.276c-2.595,0-6.425-.182-8.835-.425a3.131,3.131,0,0,0,0,2.247c.8.061,3.645.3,3.954,1.093.494,1.215.494,3.1.494,5.71V32.254c0,2.612,0,4.495-.494,5.71-.309.79-3.151,1.033-3.954,1.093a3.131,3.131,0,0,0,0,2.247c2.409-.243,6.116-.425,8.711-.425s6.425.182,8.835.425a3.131,3.131,0,0,0,0-2.247c-.8-.061-3.645-.3-3.954-1.093-.494-1.215-.494-3.1-.494-5.71V22.292s0-.182.062-.243c.185-.121.68-.243,7.537-.243,2.533,0,4.881.061,7.167.121a.741.741,0,0,1,.124.3V32.254c0,2.612,0,4.495-.494,5.71-.309.79-3.151,1.033-3.954,1.093a3.131,3.131,0,0,0,0,2.247c2.409-.243,6.116-.425,8.711-.425s6.425.182,8.835.425a3.131,3.131,0,0,0,0-2.247c-.8-.061-3.645-.3-3.954-1.093-.494-1.215-.494-3.1-.494-5.71V9.9c0-2.612,0-4.495.494-5.71.309-.79,3.151-1.033,3.954-1.093a3.131,3.131,0,0,0,0-2.247c-2.409.243-6.116.425-8.711.425s-6.425-.182-8.835-.425a3.131,3.131,0,0,0,0,2.247c.8.061,3.645.3,3.954,1.093.494,1.215.494,3.1.494,5.71l.062,8.565a.422.422,0,0,1-.124.243c-2.224.061-4.942.182-7.228.182-2.78,0-5.066-.121-7.475-.182a.225.225,0,0,1-.124-.182V9.9c0-2.612,0-4.495.494-5.71.309-.79,3.151-1.033,3.954-1.093a3.131,3.131,0,0,0,0-2.247C343.068,1.093,339.361,1.276,336.766,1.276Zm48.992,30.978c0,2.612,0,4.495-.494,5.71-.309.79-3.151,1.033-3.954,1.093a3.131,3.131,0,0,0,0,2.247c2.409-.243,6.116-.425,8.711-.425s6.425.182,8.835.425a3.131,3.131,0,0,0,0-2.247c-.8-.061-3.645-.3-3.954-1.093-.494-1.215-.494-3.1-.494-5.71V24.115a3.117,3.117,0,0,1,.371-1.154c1.792-3.584,10.008-16.583,11.244-18.344.927-1.4,3.769-1.458,4.572-1.519a3.131,3.131,0,0,0,0-2.247c-2.533.121-4.2.425-6.919.425A68.334,68.334,0,0,1,396.693.85a3.131,3.131,0,0,0,0,2.247c.8.061,4.572.364,4.572,1.458a3.024,3.024,0,0,1-.309,1.4c-2.657,4.859-7.475,13.485-7.784,13.181L385.758,5.71a2.429,2.429,0,0,1-.432-.972c0-1.519,2.965-1.579,3.769-1.64a3.131,3.131,0,0,0,0-2.247c-2.409.243-6.116.425-8.711.425s-6.425-.182-8.835-.425a3.131,3.131,0,0,0,0,2.247c.8.061,3.274.486,4.2,2,.741,1.215.989,1.64,1.915,3.341,0,0,6.24,10.812,7.784,14.153a2.363,2.363,0,0,1,.309,1.215Z" transform="translate(-11001.938 -2556.514) rotate(90)" fill="#094c84"/>
    </g>
  </g>
</svg>
