<svg id="Layer_1" data-name="Layer 1" xmlns="http://www.w3.org/2000/svg" viewBox="0 0 233.32 390.69"><title>Crimson</title><g id="Group_154" data-name="Group 154"><path id="Path_138" data-name="Path 138" d="M48.43,177.52c1.31-.06,2.52-.16,3.77-.16s2.42.1,3.73.16a1.06,1.06,0,0,0,0-.92c-.38,0-2.11-.16-2.2-.51a9.35,9.35,0,0,1-.16-2.36v-13.6a9.14,9.14,0,0,1,.16-2.39c.13-.29,1.21-.32,1.6-.32,3.54,0,5.26,2.11,5.26,5.27s-2,5-4.53,5a4.17,4.17,0,0,1-1.21-.22c-.13,0-.16.1-.16.16a.93.93,0,0,0,.45.7,4.22,4.22,0,0,0,1.37.26c4.18,0,7-2.53,7-6.42,0-3.7-3.42-5.74-6.8-5.74-1.88,0-3.29.06-4.53.06s-2.46-.1-3.77-.16a1.08,1.08,0,0,0,0,.93c.38,0,2.11.16,2.2.51a9.84,9.84,0,0,1,.16,2.36v13.63a9.84,9.84,0,0,1-.16,2.36c-.1.35-1.82.51-2.2.51A1.06,1.06,0,0,0,48.43,177.52ZM65.66,174a3.65,3.65,0,0,0,3.61,3.68h.12c1.12,0,3.54-1.76,3.93-2.14.19,1,1,2.07,1.94,2.07a5.47,5.47,0,0,0,2.4-1.21,1.42,1.42,0,0,0,.16-.61c0-.1,0-.25-.13-.25a1.73,1.73,0,0,1-1.06.41c-.73,0-1-.63-1-1.5v-6.57c0-2.46-1.66-4.37-3.48-4.37-2.33,0-4.82,1.69-5.81,2.61a1.9,1.9,0,0,0-.22.77,1.25,1.25,0,0,0,1.08,1.34c.8,0,1.31-.45,1.5-1.53.23-1.25.64-2,1.76-2a3.05,3.05,0,0,1,2.74,3.06v.86c0,.57-.06.67-.38.8-.93.41-3.8,1.37-5.58,2A2.79,2.79,0,0,0,65.66,174Zm2.65-.28a2.66,2.66,0,0,1,1.94-2.49c.57-.23,2.11-.67,3-.93v4.34c0,.32-1.66,1.31-2.78,1.31A2.2,2.2,0,0,1,68.31,173.73Zm13.21-8.17c.22,0,1.85,0,2.07.57a5.78,5.78,0,0,1,.16,1.66v5.93a9.84,9.84,0,0,1-.16,2.36c-.1.35-1.63.51-2,.51a1.08,1.08,0,0,0,0,.93c1.31-.07,2.33-.16,3.57-.16s2.65.1,4,.16a1.08,1.08,0,0,0,0-.93c-.38,0-2.65-.16-2.75-.51a9.84,9.84,0,0,1-.16-2.36v-4.91c0-.73,1.18-2.87,2.56-2.87a2.2,2.2,0,0,1,1.4.54,1.63,1.63,0,0,0,1,.45c.32,0,1.06-.48,1.06-1.66a3.14,3.14,0,0,0-.13-.86,2.32,2.32,0,0,0-2-.92c-1.43,0-3.12,2-3.76,3.41,0,0-.13.06-.13-.06,0-.36.19-2.72.22-2.94s-.19-.51-.35-.51a14.26,14.26,0,0,1-4.56,1.34A1.24,1.24,0,0,0,81.52,165.56ZM93.83,174a3.65,3.65,0,0,0,3.61,3.68h.12c1.12,0,3.55-1.76,3.93-2.14.19,1,1,2.07,1.94,2.07a5.47,5.47,0,0,0,2.4-1.21,1.42,1.42,0,0,0,.16-.61c0-.1,0-.25-.13-.25a1.72,1.72,0,0,1-1,.41c-.74,0-1-.63-1-1.5v-6.57c0-2.46-1.66-4.37-3.48-4.37-2.33,0-4.82,1.69-5.81,2.61a1.9,1.9,0,0,0-.22.77,1.25,1.25,0,0,0,1.08,1.34c.8,0,1.31-.45,1.5-1.53.23-1.25.64-2,1.76-2a3,3,0,0,1,2.74,3.06v.86c0,.57-.06.67-.38.8-.92.41-3.8,1.37-5.58,2A2.79,2.79,0,0,0,93.83,174Zm2.65-.28a2.66,2.66,0,0,1,2-2.49c.57-.23,2.1-.67,3-.93v4.34c0,.32-1.66,1.31-2.77,1.31a2.2,2.2,0,0,1-2.14-2.23Zm10.66,7.05c0,2.61,2.93,3.92,5.52,3.89,4.43,0,8.3-3.42,8.3-6,0-1.79-2.43-3.35-4.95-3.35h-3.77c-1.27,0-1.91-.8-1.91-1.12,0-.51.6-1.08,1.18-1.4a6.76,6.76,0,0,0,1.78.29c3.07,0,5.4-2.46,5.4-4.69a5.36,5.36,0,0,0-.9-2.9c0-.07,0-.1.13-.1s1.31.1,2.11.13a2.49,2.49,0,0,0,.73-1.31c0-.13-.1-.26-.32-.32l-3.41.48a3.74,3.74,0,0,1-.74-.23,7.07,7.07,0,0,0-2.9-.7,5.17,5.17,0,0,0-5.39,4.82,5,5,0,0,0,2.65,4.08,16.45,16.45,0,0,0-2.74,2.17c0,1.6,1.5,2.62,2.61,3C109.43,178,107.14,179.37,107.14,180.78Zm2.52-.93c0-.83,1.18-1.72,1.91-2.14a21,21,0,0,1,3-.16c3,0,4.21,1.53,4.21,2.46,0,1.76-2.62,3.41-4.82,3.41-2.71,0-4.27-1.49-4.27-3.57Zm.8-11.74c0-1.82,1-3.73,2.81-3.73,2,0,3,2.1,3,4.08,0,1.76-1,3.64-2.71,3.64-2,0-3.07-2-3.07-4Zm11.9-2.55c.22,0,1.85,0,2.07.57a5.78,5.78,0,0,1,.16,1.66v5.94a9.84,9.84,0,0,1-.16,2.36c-.1.35-1.63.51-2,.51a1.06,1.06,0,0,0,0,.92c1.31-.06,2.33-.16,3.57-.16s2.65.1,4,.16a1.06,1.06,0,0,0,0-.92c-.38,0-2.65-.16-2.74-.51a9.35,9.35,0,0,1-.16-2.36v-4.92c0-.73,1.18-2.87,2.55-2.87a2.2,2.2,0,0,1,1.4.54,1.66,1.66,0,0,0,.95.45c.32,0,1.06-.48,1.06-1.66a2.8,2.8,0,0,0-.13-.86,2.32,2.32,0,0,0-1.95-.92c-1.43,0-3.12,2-3.76,3.41,0,0-.13.06-.13-.06,0-.36.19-2.72.22-2.94s-.19-.51-.35-.51a14.19,14.19,0,0,1-4.56,1.34,1.24,1.24,0,0,0,0,.83ZM134.67,174a3.65,3.65,0,0,0,3.62,3.68h.11c1.12,0,3.54-1.76,3.93-2.14.19,1,1,2.07,1.94,2.07a5.47,5.47,0,0,0,2.4-1.21,1.42,1.42,0,0,0,.16-.61c0-.1,0-.25-.13-.25a1.72,1.72,0,0,1-1,.41c-.74,0-1-.63-1-1.5v-6.57c0-2.46-1.66-4.37-3.48-4.37-2.33,0-4.82,1.69-5.81,2.61a1.9,1.9,0,0,0-.22.77,1.25,1.25,0,0,0,1.08,1.34c.8,0,1.31-.45,1.5-1.53.23-1.25.64-2,1.76-2a3.05,3.05,0,0,1,2.74,3.06v.86c0,.57-.06.67-.38.8-.93.41-3.8,1.37-5.58,2a2.79,2.79,0,0,0-1.6,2.55Zm2.65-.28a2.66,2.66,0,0,1,2-2.49c.57-.23,2.1-.67,3-.93v4.34c0,.32-1.66,1.31-2.77,1.31a2.19,2.19,0,0,1-2.14-2.23Zm10.43-8.17c.22,0,1.85,0,2.07.57a5.45,5.45,0,0,1,.16,1.66v13.05a9.35,9.35,0,0,1-.16,2.36c-.1.35-1.62.51-2,.51a1.08,1.08,0,0,0,0,.93c1.31-.07,2.14-.16,3.39-.16s2.1.1,3.41.16a1.08,1.08,0,0,0,0-.93c-.38,0-1.91-.16-2-.51a9.84,9.84,0,0,1-.16-2.36v-3.09a.7.7,0,0,1,.13-.42,7.45,7.45,0,0,0,9.7-7.31c0-2.74-1.82-6.57-5.78-6.57a7.79,7.79,0,0,0-3.89,1.82s-.06.07-.1.07-.06-.1-.06-.13c0-.26.19-1.09.22-1.31s-.19-.51-.35-.51a14.34,14.34,0,0,1-4.56,1.34A1.19,1.19,0,0,0,147.75,165.56Zm4.69,8.68v-7.66c0-.45,1.37-1.25,2.68-1.25,2.42,0,4.47,2.08,4.47,5.88,0,2.58-1.53,5.36-4.18,5.36-1.12,0-3-.67-3-2.33Zm11.74,3.28c1.31-.06,2.14-.16,3.38-.16s2.11.1,3.42.16a1.06,1.06,0,0,0,0-.92c-.39,0-1.92-.16-2-.51a9.35,9.35,0,0,1-.16-2.36v-6.67a4.84,4.84,0,0,1,3-1.76c2.49,0,3.12,1.28,3.12,5.23v3.2a9.35,9.35,0,0,1-.16,2.36c-.1.35-1.62.51-2,.51a1.06,1.06,0,0,0,0,.92c1.31-.06,2.14-.16,3.39-.16s2.1.1,3.41.16a1.06,1.06,0,0,0,0-.92c-.38,0-1.91-.16-2-.51a9.84,9.84,0,0,1-.16-2.36v-3.51c0-4.63-.67-6.77-4.12-6.77-1.53,0-3.66,1.63-4.3,2.33,0,0-.07.07-.1.07s-.1,0-.1-.07v-7.21a9,9,0,0,1,.35-2.78c0-.22-.19-.51-.35-.51a14.75,14.75,0,0,1-4.53,1.28c-.13,0-.07.83,0,.83.9,0,1.76.13,2,.57a5.85,5.85,0,0,1,.16,1.66v14.1a9.8,9.8,0,0,1-.16,2.36c-.1.36-1.63.51-2,.51a1,1,0,0,0,0,.93Z" style="fill:#258abf"/><path id="Path_133" data-name="Path 133" d="M47.44,310.91a6.29,6.29,0,0,0,6.23,6.34h.23a8.22,8.22,0,0,0,4.16-.87,9.25,9.25,0,0,0,.67-2.79,1,1,0,0,0-.62-.15,4,4,0,0,1-1.18,2.24,3.67,3.67,0,0,1-2.55.93c-3.36,0-5-3.09-5-6.11,0-2.71,1.86-5.63,4.72-5.63,3.23,0,3.68,2.23,3.79,2.83a.37.37,0,0,0,.23.05c.2,0,.45-.13.43-.25s-.45-2.86-.45-2.86a19.47,19.47,0,0,0-4.1-.41,6.53,6.53,0,0,0-6.53,6.51ZM60,317.19c.79,0,1.3-.1,2-.1s1.28.06,2.07.1a.61.61,0,0,0,0-.56c-.23,0-1.16-.1-1.22-.31a6.22,6.22,0,0,1-.1-1.43v-4a3,3,0,0,1,1.84-1.07c1.51,0,1.89.78,1.89,3.17v1.94a5.28,5.28,0,0,1-.1,1.43c0,.22-1,.31-1.21.31a.61.61,0,0,0,0,.56c.79,0,1.3-.1,2-.1s1.27.06,2.07.1a.68.68,0,0,0,0-.56c-.24,0-1.16-.1-1.22-.31a5.71,5.71,0,0,1-.09-1.43v-2.13c0-2.8-.41-4.1-2.49-4.1a4.77,4.77,0,0,0-2.61,1.41s0,0-.06,0-.06,0-.06,0V305.7A6,6,0,0,1,63,304c0-.13-.11-.31-.21-.31a9.41,9.41,0,0,1-2.75.78c-.07,0,0,.5,0,.5.54,0,1.06.07,1.18.34a3.81,3.81,0,0,1,.1,1v8.55a6.22,6.22,0,0,1-.1,1.43c-.06.22-1,.31-1.22.31A.65.65,0,0,0,60,317.19Zm10.29-2.13a2.21,2.21,0,0,0,2.19,2.23h.07a6,6,0,0,0,2.38-1.3c.12.6.62,1.26,1.18,1.26a3.24,3.24,0,0,0,1.45-.74.75.75,0,0,0,.1-.36c0-.06,0-.16-.08-.16a1.06,1.06,0,0,1-.63.25c-.45,0-.6-.38-.6-.91v-4a2.46,2.46,0,0,0-2.12-2.65,6,6,0,0,0-3.52,1.59,1.06,1.06,0,0,0-.13.46.74.74,0,0,0,.65.81c.49,0,.8-.27.91-.92s.39-1.2,1.07-1.2a1.84,1.84,0,0,1,1.66,1.85v.52c0,.35,0,.41-.23.49-.56.25-2.3.83-3.39,1.22A1.68,1.68,0,0,0,70.24,315.06Zm1.6-.17A1.61,1.61,0,0,1,73,313.38c.35-.13,1.27-.4,1.8-.56v2.63a2.47,2.47,0,0,1-1.68.79,1.33,1.33,0,0,1-1.3-1.35Zm8-4.95c.14,0,1.13,0,1.26.35a3.37,3.37,0,0,1,.1,1v3.6a5.71,5.71,0,0,1-.1,1.43c-.06.22-1,.31-1.22.31a.61.61,0,0,0,0,.56c.8,0,1.41-.1,2.17-.1s1.6.06,2.4.1a.61.61,0,0,0,0-.56c-.23,0-1.6-.1-1.66-.31a5.28,5.28,0,0,1-.1-1.43v-3c0-.44.71-1.74,1.54-1.74a1.26,1.26,0,0,1,.85.33,1,1,0,0,0,.58.27c.2,0,.64-.29.64-1a1.59,1.59,0,0,0-.08-.53,1.43,1.43,0,0,0-1.18-.56c-.87,0-1.89,1.24-2.28,2.07,0,0-.07,0-.07,0s.11-1.64.13-1.78-.12-.3-.21-.3a8.92,8.92,0,0,1-2.77.81.78.78,0,0,0,0,.5Zm7.47,5.12a2.21,2.21,0,0,0,2.19,2.23h.07A6,6,0,0,0,92,316c.12.6.62,1.25,1.18,1.25a3.27,3.27,0,0,0,1.45-.73.79.79,0,0,0,.1-.37c0-.06,0-.15-.07-.15a1.09,1.09,0,0,1-.64.25c-.45,0-.6-.39-.6-.91v-4a2.46,2.46,0,0,0-2.11-2.65,6,6,0,0,0-3.52,1.59,1.06,1.06,0,0,0-.13.46.74.74,0,0,0,.65.81c.49,0,.8-.27.91-.92s.39-1.2,1.07-1.2a1.86,1.86,0,0,1,1.66,1.85v.52c0,.35,0,.41-.24.49-.56.25-2.3.83-3.38,1.22a1.69,1.69,0,0,0-1,1.54Zm1.6-.17a1.61,1.61,0,0,1,1.18-1.51c.35-.13,1.27-.4,1.8-.56v2.63a2.47,2.47,0,0,1-1.68.79,1.33,1.33,0,0,1-1.29-1.35Zm6.77-1.51a3.89,3.89,0,0,0,3.86,3.91h0a3.43,3.43,0,0,0,2.82-1.65.7.7,0,0,0,.12-.35.33.33,0,0,0-.15-.27,2.86,2.86,0,0,1-2,1,3,3,0,0,1-3.15-2.73,3.25,3.25,0,0,1,0-.54c0-2,1.14-3.23,2.17-3.23a1.68,1.68,0,0,1,1.1.37c.33.21.7.72,1.12.72s.74-.24.74-.93a.94.94,0,0,0-.2-.54,3.06,3.06,0,0,0-1.74-.47A5,5,0,0,0,95.68,313.38Zm7.82-4c0,.06,0,.18.1.18h1.12v5.6a1.83,1.83,0,0,0,1.55,2.09,2.34,2.34,0,0,0,.46,0,3,3,0,0,0,2-1.07.74.74,0,0,0,.08-.29.16.16,0,0,0-.06-.13,2.39,2.39,0,0,1-1.26.44c-.85,0-1.28-.56-1.28-1.58v-5.07h2.32a.91.91,0,0,0,.28-.58c0-.11,0-.21-.1-.21h-2.5v-2.53c0-.08-.21-.08-.3,0s-.82.87-1.18,1.3v1.22H104A3.61,3.61,0,0,0,103.5,309.39Zm6.4,3.87a3.81,3.81,0,0,0,3.61,4h.25a3.46,3.46,0,0,0,2.83-1.65.8.8,0,0,0,.11-.35.33.33,0,0,0-.15-.27,3,3,0,0,1-2.13,1c-1.66,0-3.15-1.2-3.15-3.58v-.13c.23,0,4.27-.1,4.87-.14.37,0,.47-.35.47-.91a2.71,2.71,0,0,0-2.78-2.63h-.12c-1.7,0-3.81,2-3.81,4.6Zm1.47-1.64s.38-2.27,2-2.27c1.18,0,1.58,1.26,1.58,1.82a.4.4,0,0,1-.35.45h-3.24Zm6.73-1.69c.13,0,1.12,0,1.25.35a3.44,3.44,0,0,1,.1,1v3.6a5.71,5.71,0,0,1-.1,1.43c-.06.21-1,.31-1.22.31a.68.68,0,0,0,0,.56c.8,0,1.42-.1,2.17-.1s1.6.06,2.4.1a.61.61,0,0,0,0-.56c-.23,0-1.6-.1-1.66-.31a5.71,5.71,0,0,1-.1-1.43v-3c0-.44.71-1.74,1.54-1.74a1.3,1.3,0,0,1,.86.33,1,1,0,0,0,.58.27c.19,0,.63-.29.63-1a1.58,1.58,0,0,0-.07-.53,1.43,1.43,0,0,0-1.18-.56c-.87,0-1.89,1.24-2.28,2.07,0,0-.08,0-.08,0s.12-1.64.14-1.78-.12-.31-.22-.31a8.62,8.62,0,0,1-2.76.82.72.72,0,0,0,0,.5Z" style="fill:#2371aa"/><path id="Path_139" data-name="Path 139" d="M87,104.93c-5.34,0-11.06,4-11.06,9.4s3.79,7.68,7.59,10.23c2.6,1.76,7.68,4.77,7.68,8.46s-2.39,5-5,5c-4.67,0-7.94-5.5-8.41-8.31,0-.31-.31-.42-.67-.42a3.28,3.28,0,0,0-1.51.73,88.48,88.48,0,0,0,1.25,8.83,46.91,46.91,0,0,0,9.86,1.35c5.72,0,11.32-3.9,11.32-9.61,0-6.18-4.2-8.41-7.63-10.7-3.17-2.13-7.53-5.09-7.53-8.31,0-3.48,2.39-4.52,4.41-4.52,4,0,6.5,4.94,6.91,7.85.1.41,1.4.36,1.56.36a.72.72,0,0,0,.57-.31c-.16-3.17-.31-5.87-.57-8.62C92.52,105.71,90,104.93,87,104.93Zm23.74,12.56v-8.25c-.06-.32-.73-.37-1.3,0-1.61,1.61-3.48,3.84-5.46,5.5v2.75h-2.28a9,9,0,0,0-1.66,1.77c0,.21,0,.57.26.67H104V132.5c0,5.82,3.53,7.58,6.75,7.58,2.7,0,5-2.33,5.5-2.85a2.4,2.4,0,0,0,.41-1,1.37,1.37,0,0,0-.36-.73,5,5,0,0,1-2.75,1.25c-1.92,0-2.8-1.2-2.8-3.95V119.93h5a3.12,3.12,0,0,0,1.19-1.76c0-.26-.1-.68-.31-.68Zm13.76-.41c-2,0-5.66-.21-7-.37a2.49,2.49,0,0,0,0,1.93c.41,0,2.6.41,3.27,2,0,0,6.49,13.19,8.62,17.5a24.31,24.31,0,0,1-1.82,3.69c-2.13,3.53-4.47,4-8.57,4a2.79,2.79,0,0,0-1.19,2.44c0,1.4,1.3,2.75,3.48,2.75,1.56,0,3.89-.94,6.59-4.31,2.19-2.75,3-4.93,4.57-8.31,3.27-6.85,8.57-18.07,8.57-18.07.73-1.51,3.58-1.71,4.21-1.71a2.79,2.79,0,0,0,0-1.93,46.65,46.65,0,0,1-5.4.37,39.85,39.85,0,0,1-5.46-.37,2.68,2.68,0,0,0,.06,1.93c.41,0,3.68.1,3.68,1.4a5,5,0,0,1-.57,1.92c-1.71,3.84-4.1,9.09-4.1,9.09s-3.48-6.6-5.35-10.23a2.33,2.33,0,0,1-.1-.78c0-.89,2.44-1.4,3.07-1.4a2.46,2.46,0,0,0,0-1.92c-1.31.15-4.37.36-6.55.36Zm24.66-6.34v21.45a15.12,15.12,0,0,1-.41,4.88c-.26.68-2.65.88-3.33.94a2.76,2.76,0,0,0,0,1.92c2-.21,4.94-.37,7.12-.37s5.09.16,7.11.37a2.65,2.65,0,0,0,0-1.92c-.67-.06-3.06-.26-3.32-.94a15.41,15.41,0,0,1-.42-4.88V109.81a37.68,37.68,0,0,1,.58-5.3c-.06-.26-.47-.83-.78-.89a47.62,47.62,0,0,1-10,2c-.26.21-.2,1.66,0,1.66.63,0,2.86.31,3.12.93a5.9,5.9,0,0,1,.36,2.49Zm19.48,14.34c0-1.77,1.14-6.44,4.2-6.44,2.34,0,3.17,2.8,3.17,5.19,0,.31-.05.78-.67.83C174.05,124.82,169.06,125.13,168.6,125.08Zm-.06,2.07c3.85-.1,8.94-.31,12.47-.62.78,0,1.4-1,1.4-2.18,0-3-2.29-7.84-9.09-7.84-6,0-11.53,6.28-11.53,12.82,0,6.8,5.09,10.86,10.91,10.86a12.15,12.15,0,0,0,9.4-5,2.37,2.37,0,0,0,.15-1,1.09,1.09,0,0,0-.62-.93,7.46,7.46,0,0,1-5.82,2.6C173.48,135.82,168.54,134.42,168.54,127.15Z" style="fill:#24648d"/><path id="Path_132" data-name="Path 132" d="M47.71,390.37c3.13,0,5.7-.4,9.47-.4,3.13,0,6.9.24,10.19.4a2.65,2.65,0,0,0,0-2.33c-1,0-6.1-.4-6.34-1.28a24.16,24.16,0,0,1-.4-5.94v-15c0-.72,3.53-.72,5.78-.72,3,0,7.62.08,8.5.64.72.48,1,.72,2.25,5.3a1.35,1.35,0,0,0,1.28.64,2.18,2.18,0,0,0,1.29-.32V356.18a2.23,2.23,0,0,0-1.37-.4c-.56,0-1.12.16-1.2.56-1.36,5.3-1.12,5.78-8.82,5.78H64.08c-1.76,0-3.45-.08-3.45-.48v-15a23.2,23.2,0,0,1,.4-5.7c.24-.8,4.57-.88,5.54-.88h6.9c4.25,0,7.54,1.12,9.31,7.54.08.4.56.57,1.12.57a2.44,2.44,0,0,0,1.44-.4c-.72-3.62-1.76-6.9-2.32-10.92-8.75,0-18.3.56-25.84.56-3.13,0-6.18-.24-9.47-.4a2.65,2.65,0,0,0,0,2.33c1,0,5.3.4,5.53,1.28a24.16,24.16,0,0,1,.4,5.94v34.27a24.16,24.16,0,0,1-.4,5.94c-.24.88-4.57,1.28-5.53,1.28A2.62,2.62,0,0,0,47.71,390.37ZM90.32,373c0,10,6.66,17.66,17.25,17.66,9.71,0,17-7.95,17-18.3,0-10-6.58-17.5-17.17-17.5C97.7,354.9,90.32,362.68,90.32,373Zm6.9-1.6c0-6.9,2.49-13.88,9.31-13.88,7.14,0,11.15,8.91,11.15,16.69,0,6.82-2.49,13.8-9.31,13.8-7.22,0-11.15-8.83-11.15-16.61Zm33.38-11.15c.56,0,4.65.08,5.22,1.44a16.93,16.93,0,0,1,.4,4.49v14.6a24.62,24.62,0,0,1-.4,5.94c-.24.88-4.1,1.29-5.06,1.29a2.63,2.63,0,0,0,0,2.32c3.29-.16,5.38-.4,8.51-.4s5.3.24,8.58.4a2.63,2.63,0,0,0,0-2.32c-1,0-4.81-.4-5-1.29a24.13,24.13,0,0,1-.4-5.94V364.05c0-.72,4.65-4.42,7.62-4.42,6.26,0,7.86,3.21,7.86,13.16v8a24.16,24.16,0,0,1-.4,5.94c-.24.88-4.09,1.28-5,1.28a2.65,2.65,0,0,0,0,2.33c3.29-.16,5.37-.4,8.5-.4s5.3.24,8.59.4a2.65,2.65,0,0,0,0-2.33c-1,0-4.82-.4-5.06-1.28a24.66,24.66,0,0,1-.4-5.94V372c0-11.63-1.68-17-10.35-17-3.85,0-9.23,4.09-10.83,5.86-.08.08-.16.16-.24.16s-.16-.24-.16-.32c0-.65.4-4,.48-4.58,0-.4-.48-1.28-.89-1.28a36.19,36.19,0,0,1-11.47,3.37A3.06,3.06,0,0,0,130.6,360.28ZM172.17,358c0,.24.16.72.4.72h4.65V382c0,6.9,4.26,8.67,8.35,8.67,3.93,0,7.14-3.13,8.26-4.41a2.65,2.65,0,0,0,.32-1.2.61.61,0,0,0-.24-.57,9.9,9.9,0,0,1-5.21,1.85c-3.53,0-5.3-2.33-5.3-6.58v-21H193a3.7,3.7,0,0,0,1.12-2.41c0-.48,0-.88-.4-.88H183.4V345c0-.32-.88-.32-1.28.08-.16.24-3.37,3.61-4.9,5.38v5h-3A17.07,17.07,0,0,0,172.17,358Z" style="fill:#2d7198"/><path id="Path_134" data-name="Path 134" d="M58.63,252.15c-4.86,0-10.05,3.68-10.05,8.54s3.44,7,6.89,9.3c2.36,1.61,7,4.34,7,7.7s-2.17,4.57-4.58,4.57c-4.25,0-7.23-5-7.65-7.55,0-.28-.28-.38-.61-.38a2.79,2.79,0,0,0-1.37.66,80.67,80.67,0,0,0,1.13,8,42.49,42.49,0,0,0,9,1.23c5.2,0,10.29-3.54,10.29-8.74,0-5.61-3.82-7.64-6.94-9.72-2.88-1.94-6.85-4.63-6.85-7.55a3.76,3.76,0,0,1,4-4.11c3.63,0,5.9,4.48,6.27,7.13.1.38,1.28.33,1.42.33a.67.67,0,0,0,.52-.28c-.14-2.89-.28-5.34-.52-7.84C63.68,252.85,61.42,252.15,58.63,252.15ZM95.3,262.63c-1.46,0-3.49,1.27-4.91,2.78-.09.1-.18,0-.18-.28a4.13,4.13,0,0,1,.42-1.61,1.68,1.68,0,0,0-.8-.8,28.14,28.14,0,0,1-9.21,2.5c-.23,0-.18,1.37,0,1.47.33,0,2.6.23,3,.94A14.46,14.46,0,0,1,84,271.5V287a14.12,14.12,0,0,1-.38,4.44c-.24.62-2.41.8-3,.85a2.4,2.4,0,0,0,0,1.75c1.84-.19,4.48-.33,6.47-.33s4.62.14,6.46.33a2.4,2.4,0,0,0,0-1.75c-.61-.05-2.78-.23-3-.85a14.12,14.12,0,0,1-.38-4.44v-2.55c0-.56,0-.75.15-.75a12.61,12.61,0,0,0,2.73.42c5.2,0,11.57-4.2,11.57-11.42C104.55,267.49,101,262.63,95.3,262.63Zm-2.6,3.44c3.83,0,5.06,3.45,5.06,8.31,0,5.48-2.88,7.7-4.44,7.7s-3.21-.95-3.21-2.84V267.4a2.68,2.68,0,0,1,2.6-1.33Zm33.75,14.78a2.88,2.88,0,0,1-2.88-2.89v0a3.54,3.54,0,0,1,1.7-3.16,29.88,29.88,0,0,1,3.12-1.51v6.61C128.39,280.14,127.63,280.85,126.45,280.85Zm1-18.27c-4.15,0-8.4,3-9,3.63a4.21,4.21,0,0,0-.67,1.94,2.39,2.39,0,0,0,2.46,2.27,2.49,2.49,0,0,0,2.64-2.08c.48-2.12,1-4,2.74-4s2.79,2.36,2.79,4.73v2.21c-2.41.9-6.94,2.74-8.74,3.3a4,4,0,0,0-2.45,3.78,6.13,6.13,0,0,0,6.18,5.76c1.7,0,4.91-2.07,5.34-2.45a4.21,4.21,0,0,0,3.59,2.36c2,0,4.2-1.84,4.86-2.45a1.19,1.19,0,0,0,.19-.71,1.06,1.06,0,0,0-.33-.8,2.81,2.81,0,0,1-1.37.47c-.62,0-1.14-.66-1.14-1.94v-8.82a7,7,0,0,0-6.74-7.23Zm39.74,3.16a3,3,0,0,0-.94-2.26,10.27,10.27,0,0,0-4.77-.85c-6.51,0-12.32,5.94-12.32,11.7a9.54,9.54,0,0,0,9.23,9.87h.68a11,11,0,0,0,8.55-4.58,2.1,2.1,0,0,0,.14-.9,1,1,0,0,0-.57-.85,6.73,6.73,0,0,1-5.28,2.36c-3,0-6.8-2-6.8-8.64,0-2.88,1.22-6.51,3.3-6.51a4.45,4.45,0,0,1,3.21,1.46c.75.85,1.55,2.13,2.83,2.13A2.87,2.87,0,0,0,167.18,265.74Zm19,4.72c0-1.6,1-5.85,3.83-5.85,2.12,0,2.88,2.55,2.88,4.72,0,.28-.05.71-.62.75C191.11,270.23,186.58,270.51,186.15,270.46Zm0,1.89c3.49-.09,8.11-.28,11.33-.57.7,0,1.27-.94,1.27-2,0-2.74-2.08-7.13-8.26-7.13-5.43,0-10.48,5.71-10.48,11.66a9.55,9.55,0,0,0,9.22,9.87h.69a11,11,0,0,0,8.55-4.58,2.27,2.27,0,0,0,.14-.9,1,1,0,0,0-.57-.85,6.74,6.74,0,0,1-5.28,2.36c-2.13,0-6.62-1.27-6.62-7.88Z" style="fill:#166183"/><path id="Path_140" data-name="Path 140" d="M76.88,87.61c1.56-.07,2.4-.17,4-.17s2.23.1,3.59.17a1.73,1.73,0,0,0-.07-1c-.27,0-2.47-.1-2.68-.61a3.69,3.69,0,0,1-.13-1c0-.33.3-9.84.44-17.22l8.26,19.76c.1,0,.2.1.3.07.37-.07,1.15-1.42,1.28-1.73C94.44,79.32,96.2,74.92,99,68c.07-.17.1-.23.17-.23.24,0,.3.54.3.67.2,5.49.3,9.61.44,14.49,0,.5.07,1.48.07,2s-.07,1.28-.3,1.42a7.15,7.15,0,0,1-2.2.37,1.64,1.64,0,0,0,0,1c1.56-.07,2.5-.17,4.06-.17s2.67.1,4,.17a1.73,1.73,0,0,0-.07-1c-.27,0-2.2-.1-2.37-.57a11.08,11.08,0,0,1-.41-3.29c-.1-4.39-.27-12.45-.33-14.78a3.76,3.76,0,0,1,.17-1.29c.16-.34,1.92-.61,2.4-.61,0,0-.07-.88-.1-1-.85.07-2.61.14-3.79.14-.65,0-1.59-.07-2.68-.14,0,0-.88,2.5-1.49,4.06-2,5-3.17,8.19-5.17,13.33a.19.19,0,0,1-.17.14.12.12,0,0,1-.13-.07c-2.4-6-6.5-15.33-7.18-17.46-.91.1-1.82.16-2.74.17-1.56,0-1.93-.1-3.48-.17a2.31,2.31,0,0,0,0,1c.4,0,2.23.3,2.37.71a4.43,4.43,0,0,1,.13,1.36c0,.61-.17,8-.47,16.17A3.21,3.21,0,0,1,79.62,86c-.3.44-2.33.61-2.74.61A1.43,1.43,0,0,0,76.88,87.61Zm31.06-3.72a3.86,3.86,0,0,0,3.84,3.89h.12c1.19,0,3.76-1.86,4.17-2.27.2,1,1.08,2.2,2.06,2.2a5.83,5.83,0,0,0,2.54-1.28,1.61,1.61,0,0,0,.17-.65c0-.1,0-.27-.14-.27a1.76,1.76,0,0,1-1.12.44c-.77,0-1-.67-1-1.59v-7c0-2.6-1.76-4.63-3.69-4.63-2.47,0-5.11,1.79-6.16,2.77a2,2,0,0,0-.24.81,1.32,1.32,0,0,0,1.15,1.42c.85,0,1.39-.47,1.59-1.62.24-1.32.68-2.1,1.86-2.1A3.23,3.23,0,0,1,116,77.29v.91c0,.61-.06.71-.4.85-1,.44-4,1.45-5.92,2.13A3,3,0,0,0,107.94,83.89Zm2.81-.3A2.85,2.85,0,0,1,112.82,81c.61-.24,2.23-.71,3.14-1v4.6C116,84.91,114.2,86,113,86a2.34,2.34,0,0,1-2.27-2.37Zm14-8.66c.24,0,2,0,2.2.61a6.12,6.12,0,0,1,.17,1.76v6.29a10,10,0,0,1-.17,2.5c-.1.37-1.72.54-2.13.54a1.12,1.12,0,0,0,0,1c1.39-.07,2.47-.17,3.79-.17s2.81.1,4.2.17a1.12,1.12,0,0,0,0-1c-.41,0-2.81-.17-2.91-.54a10,10,0,0,1-.17-2.5V78.37c0-.77,1.25-3,2.71-3a2.34,2.34,0,0,1,1.49.57,1.68,1.68,0,0,0,1,.48c.34,0,1.12-.51,1.12-1.76a3.21,3.21,0,0,0-.14-.92,2.49,2.49,0,0,0-2.06-1c-1.52,0-3.32,2.17-4,3.62,0,0-.14.07-.14-.06,0-.38.2-2.88.24-3.12s-.2-.54-.37-.54A15.24,15.24,0,0,1,124.77,74a1.27,1.27,0,0,0,0,.88Zm12.59,16.13c0,2.78,3.11,4.17,5.85,4.13,4.7,0,8.8-3.62,8.8-6.4,0-1.89-2.57-3.55-5.24-3.55h-4c-1.35,0-2-.85-2-1.19,0-.54.65-1.15,1.26-1.48a7.53,7.53,0,0,0,1.89.3c3.25,0,5.72-2.61,5.72-5a5.67,5.67,0,0,0-.95-3.08c0-.07,0-.1.14-.1s1.39.1,2.23.14a2.62,2.62,0,0,0,.78-1.39c0-.13-.1-.27-.34-.34l-3.62.51a3.52,3.52,0,0,1-.78-.24,7.46,7.46,0,0,0-3.08-.74c-3.25,0-5.72,2.44-5.72,5.11a5.29,5.29,0,0,0,2.81,4.34,17.42,17.42,0,0,0-2.91,2.3c0,1.69,1.59,2.77,2.78,3.14C139.79,88.12,137.35,89.58,137.35,91.06Zm2.67-1c0-.88,1.26-1.83,2-2.27a22.17,22.17,0,0,1,3.15-.17c3.22,0,4.47,1.63,4.47,2.61,0,1.86-2.78,3.62-5.11,3.62C141.68,93.87,140,92.28,140,90.08Zm.85-12.45c0-1.93,1-4,3-4C146,73.67,147,75.9,147,78c0,1.86-1,3.86-2.88,3.86C142.05,81.86,140.87,79.69,140.87,77.63Zm12.62-2.71c.24,0,2,0,2.2.61a5.82,5.82,0,0,1,.17,1.76v6.3a10,10,0,0,1-.17,2.5c-.1.37-1.72.54-2.13.54a1.12,1.12,0,0,0,0,1c1.39-.07,2.27-.17,3.59-.17s2.23.1,3.62.17a1.12,1.12,0,0,0,0-1c-.41,0-2-.17-2.13-.54a10,10,0,0,1-.17-2.5V75.4c0-.34.2-2,.24-2.24s-.2-.54-.38-.54A15.11,15.11,0,0,1,153.5,74a1.27,1.27,0,0,0,0,.88Zm1.73-8a1.66,1.66,0,0,0,1.66,1.69h0a1.66,1.66,0,0,0,1.69-1.65v0a1.68,1.68,0,0,0-1.66-1.69h0a1.68,1.68,0,0,0-1.69,1.66v0Zm7.41,8c.24,0,2,0,2.2.61a7.12,7.12,0,0,1,.17,1.9v6.16a10,10,0,0,1-.17,2.5c-.1.37-1.72.54-2.13.54a1.12,1.12,0,0,0,0,1c1.38-.07,2.26-.17,3.58-.17s2.24.1,3.62.17a1.06,1.06,0,0,0,0-1c-.4,0-2-.17-2.13-.54a10.46,10.46,0,0,1-.17-2.5V76.52a5.17,5.17,0,0,1,3.22-1.86c2.64,0,3.31,1.35,3.31,5.55v3.38a10,10,0,0,1-.17,2.5c-.1.37-1.72.54-2.13.54a1.12,1.12,0,0,0,0,1c1.39-.06,2.27-.17,3.59-.17s2.23.1,3.62.17a1.12,1.12,0,0,0,0-1c-.41,0-2-.17-2.13-.54a10,10,0,0,1-.17-2.5V79.86c0-4.9-.71-7.17-4.37-7.17-1.62,0-3.89,1.73-4.56,2.47,0,0-.07.07-.1.07s-.07-.1-.07-.14c0-.27.17-1.69.2-1.93s-.2-.54-.37-.54A15.24,15.24,0,0,1,162.63,74a1.21,1.21,0,0,0,0,.88Z" style="fill:#225576"/><path id="Path_149" data-name="Path 149" d="M49.07,46.14H66c19.09,0,24.64-11.3,24.64-22.81,0-12.52-8.93-21.92-23.76-21.92-3,0-7.17.06-9.81.06s-5.21-.2-8-.33a2.25,2.25,0,0,0,0,2c.82,0,4.47.34,4.67,1.08a20.52,20.52,0,0,1,.34,5v28.9a20.41,20.41,0,0,1-.34,5c-.2.75-3.85,1.09-4.67,1.09A2.39,2.39,0,0,0,49.07,46.14Zm11-8V9.32a20.48,20.48,0,0,1,.34-5c.2-.68,3.85-.75,4.67-.75,9.74,0,18.88,5.89,18.88,21.18C83.93,38,75.6,44,66,44c-2.5,0-5-.2-5.55-.94C60.11,42.62,60,39.1,60,38.15ZM96.79,32.4c0,8,5.54,14.07,13.53,14.07,5.28,0,8.66-3.79,9.88-5.75a2.77,2.77,0,0,0,.41-1.22,1.19,1.19,0,0,0-.54-.94,10.62,10.62,0,0,1-7.45,3.58c-5.82,0-11-4.2-11-12.52v-.47c.81,0,15-.34,17.06-.47,1.28-.07,1.62-1.22,1.62-3.19,0-2.7-2-9.2-10.15-9.2C104.16,16.29,96.79,23.33,96.79,32.4Zm5.14-5.75c-.13,0,1.36-7.92,7-7.92,4.13,0,5.55,4.4,5.55,6.36a1.39,1.39,0,0,1-1.2,1.56,1.09,1.09,0,0,1-.36,0Zm24,11.71a28.53,28.53,0,0,0,1.15,7c3,.54,4.8,1.28,7.91,1.28,5.49,0,10.43-3.86,10.43-9.34,0-3.72-3.52-5.89-7.79-8.26-3.78-2.1-5.88-3.24-5.88-6.36,0-2.43,1.55-4.26,4.8-4.26,2.91,0,5,3.72,5.69,6.22a1.81,1.81,0,0,0,1.15.34c.33,0,.67-.07.67-.34a42.24,42.24,0,0,0-.81-7.44c-3-.34-4.26-.88-6.9-.88-5,0-9.81,3.25-9.81,8.26,0,4.32,3.25,6.36,7.92,8.75,3,1.53,5.48,3.11,5.48,6.27a4.58,4.58,0,0,1-4.27,4.87,3,3,0,0,1-.6,0c-3.59,0-6.5-3.58-7.31-6.42a1,1,0,0,0-.61-.14A2.5,2.5,0,0,0,126,38.36Zm24.5-17.6c.47,0,3.92.07,4.4,1.22a12.2,12.2,0,0,1,.33,3.51v12.6a20.94,20.94,0,0,1-.33,5c-.2.75-3.46,1.09-4.27,1.09a2.25,2.25,0,0,0,0,2c2.78-.13,4.54-.34,7.18-.34s4.46.2,7.24.34a2.25,2.25,0,0,0,0-2c-.81,0-4.06-.34-4.27-1.09a20.44,20.44,0,0,1-.33-5V21.71c0-.68.4-4,.47-4.47s-.41-1.08-.75-1.08A30.27,30.27,0,0,1,150.46,19a2.6,2.6,0,0,0,0,1.76Zm3.45-16a3.34,3.34,0,0,0,3.31,3.38h.07a3.36,3.36,0,0,0,3.39-3.32V4.72a3.37,3.37,0,0,0-3.32-3.39h-.07a3.35,3.35,0,0,0-3.38,3.32v.07ZM168,53c0,5.55,6.23,8.33,11.71,8.26,9.41-.07,17.6-7.24,17.6-12.79,0-3.79-5.14-7.11-10.49-7.11h-8c-2.71,0-4.06-1.69-4.06-2.37,0-1.08,1.29-2.3,2.5-3a14.78,14.78,0,0,0,3.79.61c6.5,0,11.44-5.22,11.44-10a11.24,11.24,0,0,0-1.9-6.16c0-.14.07-.2.27-.2,0,0,2.78.2,4.47.27a5.27,5.27,0,0,0,1.56-2.78c0-.27-.2-.54-.68-.67l-7.24,1a7.78,7.78,0,0,1-1.56-.47,14.93,14.93,0,0,0-6.16-1.49c-6.5,0-11.44,4.87-11.44,10.22,0,3.31,2.3,6.83,5.62,8.66a36.35,36.35,0,0,0-5.82,4.6c0,3.38,3.18,5.55,5.55,6.29C172.86,47.16,168,50.07,168,53Zm5.35-2c0-1.76,2.5-3.65,4.06-4.53.48-.27,5.08-.34,6.3-.34,6.43,0,8.93,3.25,8.93,5.21,0,3.72-5.55,7.24-10.22,7.24C176.65,58.66,173.33,55.48,173.33,51.08ZM175,26.17c0-3.85,2.1-7.91,6-7.91,4.2,0,6.29,4.46,6.29,8.66,0,3.72-2,7.72-5.75,7.72C177.39,34.63,175,30.3,175,26.17Zm25.25-5.41c.47,0,3.92.07,4.39,1.22a13.81,13.81,0,0,1,.34,3.79V38.09a20.44,20.44,0,0,1-.34,5c-.19.75-3.45,1.09-4.26,1.09a2.25,2.25,0,0,0,0,2c2.78-.13,4.54-.34,7.18-.34s4.46.2,7.24.34a2.25,2.25,0,0,0,0-2c-.81,0-4.06-.34-4.27-1.09a20.44,20.44,0,0,1-.33-5V23.94c0-.61,3.92-3.72,6.42-3.72,5.28,0,6.64,2.71,6.64,11.1v6.77a21.07,21.07,0,0,1-.34,5c-.2.74-3.45,1.08-4.27,1.08a2.25,2.25,0,0,0,0,2c2.78-.13,4.54-.34,7.18-.34s4.47.2,7.24.34a2.25,2.25,0,0,0,0-2c-.81,0-4.06-.34-4.26-1.08a20.56,20.56,0,0,1-.34-5V30.64c0-9.81-1.42-14.35-8.73-14.35-3.25,0-7.78,3.46-9.14,4.94-.07.07-.13.14-.2.14s-.13-.2-.13-.27c0-.54.34-3.39.4-3.86s-.4-1.08-.74-1.08A30.4,30.4,0,0,1,200.27,19a2.54,2.54,0,0,0,0,1.76Z" style="fill:#5f88b1"/><path id="Path_141" data-name="Path 141" d="M60.57,140c0-.53-.06-1-.06-1.54s0-1,.06-1.53a.61.61,0,0,0-.42,0c0,.16-.06.86-.21.9a3.89,3.89,0,0,1-1,.07H56.55a.25.25,0,0,1,0-.12.16.16,0,0,1,0-.12c1.69-1.47,3-2.66,3.3-2.93a2.27,2.27,0,0,0,.57-.89,8.16,8.16,0,0,0,.14-1.85s-.31-.08-.38,0a2.1,2.1,0,0,1-.6,1.42c-1,1-2.24,2.08-3.71,3.34a.09.09,0,0,1-.1,0c-1.1-1.14-1.77-1.9-3-3a1.85,1.85,0,0,1-.48-1.29c0-.06-.33-.05-.4,0,0,.53.07.84.07,1.41s0,1-.07,1.5a.68.68,0,0,0,.4,0c0-.11,0-.73.28-.73a.83.83,0,0,1,.4.19,15.46,15.46,0,0,1,1.78,1.65,15.34,15.34,0,0,1,1.32,1.48h-2.6a3.85,3.85,0,0,1-1-.07c-.15,0-.21-.74-.21-.9a.61.61,0,0,0-.42,0c0,.54.07,1,.07,1.53s0,1-.07,1.54a.51.51,0,0,0,.42,0c0-.16.06-.86.21-.9a3.88,3.88,0,0,1,1-.06H59a3.85,3.85,0,0,1,1,.06c.15,0,.21.74.21.9s-.07.52.21.52a.52.52,0,0,0,.52-.52Zm0-11.64c0-.51,0-.94,0-1.56,0-1.73,0-3,0-4.45a14.71,14.71,0,0,1-2.16-.7.56.56,0,0,0-.08.33c0,.09,0,.17.08.18a2.4,2.4,0,0,1,1.31.82,3.64,3.64,0,0,1,.36,1.65v.63c0,.54,0,.75-.13.92a3.05,3.05,0,0,1-.9.08H56.58c-.12,0-.12-.57-.12-.94a5.32,5.32,0,0,1,.1-1.38c.08-.12.12-.17.86-.37a.21.21,0,0,0,.1-.21.35.35,0,0,0-.05-.2H55a.29.29,0,0,0-.06.22c0,.09,0,.18.09.2.86.22.94.18.94,1.43v.7c0,.28,0,.56-.08.56H53.46a3.58,3.58,0,0,1-.93-.08c-.14,0-.15-.74-.15-.9v-1.12c0-.69.18-1.23,1.23-1.51.06,0,.09-.1.09-.19a.39.39,0,0,0-.07-.23c-.58.11-1.12.28-1.77.38,0,1.42.09,3,.09,4.2,0,.51,0,1-.06,1.54a.4.4,0,0,0,.37,0c0-.16.07-.86.21-.9a4,4,0,0,1,1-.07H59a3.89,3.89,0,0,1,1,.07c.15,0,.21.74.21.9A.42.42,0,0,0,60.57,128.36Zm0-10.73c0-.54-.06-1-.06-1.54s0-1,.06-1.53a.42.42,0,0,0-.38,0c0,.16-.06.86-.21.9a4.44,4.44,0,0,1-1,.07H56.59v-.7a.44.44,0,0,1,.16-.39c1.28-.82,2.83-1.88,3.09-2.07a1.6,1.6,0,0,0,.57-.85,6.2,6.2,0,0,0,.16-1.72s-.31-.08-.38,0a1.79,1.79,0,0,1-.78,1.48,32,32,0,0,1-3.07,2.1,2.61,2.61,0,0,0-2.15-1.78,2.48,2.48,0,0,0-2.26,2.66c0,.77,0,1.34,0,1.85s0,1-.06,1.54a.42.42,0,0,0,.38,0c0-.16.06-.86.21-.9a4.44,4.44,0,0,1,1-.07H59a4.44,4.44,0,0,1,1,.07c.15,0,.21.74.21.9A.42.42,0,0,0,60.57,117.63Zm-4.39-2.1H53.46a3.57,3.57,0,0,1-1-.07c-.12,0-.13-.5-.13-.65a1.76,1.76,0,0,1,1.51-2,1.7,1.7,0,0,1,.45,0,2,2,0,0,1,1.88,2h0Zm4.39-9c0-.6-.06-.8-.06-1.4s0-1,.06-1.49a.55.55,0,0,0-.38,0,2.24,2.24,0,0,1-.26,1,1.63,1.63,0,0,1-.9.13H53.1l7.2-5.69a.77.77,0,0,0,.3-.46s0-.16-.08-.17c-.68,0-1.05,0-1.8,0H53.4a1.65,1.65,0,0,1-.88-.13c-.16-.1-.26-.87-.26-1a.42.42,0,0,0-.38,0c0,.6.06.8.06,1.4s0,1-.06,1.5a.62.62,0,0,0,.38,0,2,2,0,0,1,.26-1,1.63,1.63,0,0,1,.9-.13h4.94c-2,1.45-5.43,4.45-6.47,5.11,0,.19,0,.6,0,1s0,.73-.07,1.33a.5.5,0,0,0,.38,0c0-.16.1-.93.26-1a1.61,1.61,0,0,1,.89-.13H59a1.6,1.6,0,0,1,.89.13c.16.09.26.86.26,1a.5.5,0,0,0,.38,0Zm0-13.25c0-.53-.06-1-.06-1.54s0-1,.06-1.53a.5.5,0,0,0-.38,0c0,.16-.06.87-.21.9a3.46,3.46,0,0,1-1,.07H53.44a3.46,3.46,0,0,1-1-.07c-.15,0-.21-.74-.21-.9a.5.5,0,0,0-.38,0c0,.54.06,1,.06,1.53s0,1-.06,1.54a.42.42,0,0,0,.38,0c0-.16.06-.86.21-.9a3.88,3.88,0,0,1,1-.06H59a3.88,3.88,0,0,1,1,.06c.15,0,.21.74.21.9a.42.42,0,0,0,.38,0Zm0-7.24c0-.6-.06-.8-.06-1.4s0-1,.06-1.49a.5.5,0,0,0-.38,0,2.19,2.19,0,0,1-.26,1,1.63,1.63,0,0,1-.9.14H53.1l7.2-5.7a.74.74,0,0,0,.3-.45s0-.16-.08-.17c-.68,0-1.05,0-1.8,0H53.4a1.48,1.48,0,0,1-.88-.13c-.16-.09-.26-.86-.26-1a.42.42,0,0,0-.38,0c0,.6.06.8.06,1.4s0,1-.06,1.5a.62.62,0,0,0,.38,0,2,2,0,0,1,.26-1,1.63,1.63,0,0,1,.9-.13h4.94c-2,1.45-5.43,4.45-6.47,5.11,0,.19,0,.6,0,1s0,.73-.07,1.33a.5.5,0,0,0,.38,0c0-.16.1-.93.26-1a1.61,1.61,0,0,1,.89-.13H59a1.6,1.6,0,0,1,.89.13c.16.09.26.86.26,1a.5.5,0,0,0,.38,0ZM56.33,72.73a4.24,4.24,0,0,0,4.28-4.21v-.15a5.47,5.47,0,0,0-.68-3c-.12-.22-.16-.26-.24-.26s-.25.13-.52.13h-.92a3.93,3.93,0,0,1-1-.06c-.14,0-.21-.7-.21-.85a.42.42,0,0,0-.38,0c0,.53.07,1,.07,1.46s0,1-.07,1.53a.42.42,0,0,0,.38,0c0-.16.07-.85.21-.89a4.48,4.48,0,0,1,1-.07h1.32a.2.2,0,0,1,.2.1A3.43,3.43,0,0,1,60.18,68c0,2.29-2.09,3.4-4.13,3.4-1.82,0-3.8-1.25-3.8-3.19a2.28,2.28,0,0,1,1.91-2.56.26.26,0,0,0,0-.15c0-.13-.09-.3-.17-.29s-1.93.3-1.93.3a12.88,12.88,0,0,0-.27,2.77,4.39,4.39,0,0,0,4.38,4.41Z" style="fill:#0099d1"/><path id="Path_136" data-name="Path 136" d="M47.58,207.11a1.14,1.14,0,0,0,.91.33.91.91,0,0,0,.68-.24c.68-3.38,2.22-5.9,4.64-5.9h6.24V226a15.34,15.34,0,0,1-.24,3.58c-.15.53-2.76.77-3.34.77a1.57,1.57,0,0,0,0,1.4c2-.1,3.82-.24,5.7-.24s3.67.14,5.66.24a1.63,1.63,0,0,0,0-1.4c-.58,0-3.2-.24-3.34-.77a14.33,14.33,0,0,1-.24-3.58V201.31h6.14c2.41,0,4,2.51,4.64,5.9a1,1,0,0,0,.67.24,1.17,1.17,0,0,0,.92-.34c-.53-2.56-.92-5.37-1.26-8.31-.29-.15-.43-.15-.91.1a9.36,9.36,0,0,1-2.9.72H52.65a7.78,7.78,0,0,1-2.71-.68,1.47,1.47,0,0,0-1.11-.14C48.49,201.74,48.11,204.55,47.58,207.11Zm29.77,5.07c.58,0,2.13-.05,2.61,1,2.86,6.19,4.93,11.41,7.64,18.32a26.61,26.61,0,0,1-2.32,4.88c-1.93,2.61-3.24,2.76-5.51,2.76a2.34,2.34,0,0,0-.58,1.4,1.9,1.9,0,0,0,1.7,2.08,2.06,2.06,0,0,0,.43,0,5.38,5.38,0,0,0,4.2-2.71c1.74-2.56,2.61-5.66,3.82-8.6,2.8-6.86,4.4-10.64,7.25-17.45.58-1.36,2.71-1.65,3.1-1.65.19,0,.29-1.11.1-1.4a36.87,36.87,0,0,1-4.06.25,37.36,37.36,0,0,1-4.36-.25c-.24.25-.24,1.4,0,1.4,1.65,0,2.8.58,2.8,1.55a3.92,3.92,0,0,1-.29,1.55c-1.83,4.54-4.25,11-4.25,11L84.51,213.2c-.05-.1-.1-.15-.1-.2,0-.72,2.08-.82,2.42-.82s.29-1.11.19-1.4c-.82.1-3,.24-4.84.24s-3.91-.14-4.83-.24A3.47,3.47,0,0,0,77.35,212.18Zm23.35,1.4c.34,0,2.8,0,3.14.87a8.54,8.54,0,0,1,.25,2.52v19.77a14.82,14.82,0,0,1-.25,3.58c-.14.53-2.46.77-3,.77a1.57,1.57,0,0,0,0,1.4c2-.1,3.24-.24,5.12-.24s3.19.14,5.18.24a1.63,1.63,0,0,0,0-1.4c-.58,0-2.9-.24-3-.77a14.33,14.33,0,0,1-.24-3.58v-4.69a1.11,1.11,0,0,1,.19-.63,12.57,12.57,0,0,0,3.39.54c5.46,0,11.31-5.37,11.31-11.6,0-4.16-2.76-10-8.75-10-1.94,0-4.69,1.74-5.9,2.75,0,0-.1.1-.15.1s-.1-.14-.1-.19c0-.39.29-1.64.34-2s-.29-.78-.53-.78a21.49,21.49,0,0,1-6.91,2,1.85,1.85,0,0,0,0,1.25Zm7.11,13.15v-11.6c0-.67,2.08-1.88,4.06-1.88,3.67,0,6.77,3.14,6.77,8.89,0,3.92-2.32,8.12-6.34,8.12-1.69,0-4.49-1-4.49-3.53Zm18.71-4.83c0,5.7,4,10,9.66,10a8.61,8.61,0,0,0,7.06-4.11,2,2,0,0,0,.29-.87.82.82,0,0,0-.38-.67,7.67,7.67,0,0,1-5.32,2.56c-4.16,0-7.88-3-7.88-9v-.33c.58,0,10.68-.25,12.18-.34.92-.05,1.16-.87,1.16-2.27,0-1.94-1.45-6.58-7.25-6.58C131.78,210.4,126.52,215.42,126.52,221.9Zm3.67-4.11c-.1,0,1-5.66,5-5.66,2.95,0,4,3.14,4,4.54a1,1,0,0,1-.85,1.12,1.13,1.13,0,0,1-.26,0Z" style="fill:#094c84"/><path id="Path_135" data-name="Path 135" d="M39.17,27.9V8.4c0-4.23,1.12-5.05,1.12-6.11a1,1,0,0,0-.18-.7L29.31,0a3.88,3.88,0,0,0-.42,1.7c0,.29.06.53.3.59,3.82.58,7.4,3.29,7.4,6.28V14H9.1c-2.52,0-4.34,0-5.52-.47-.76-.29-1-3-1.05-3.76a3.14,3.14,0,0,0-2.18,0c.24,2.29.41,5.82.41,8.28s-.17,6.11-.41,8.4a3,3,0,0,0,2.18,0c.06-.76.29-3.46,1.05-3.75,1.18-.47,3-.47,5.52-.47H36.59v5.46c0,3-3.58,5.7-7.4,6.28-.24.06-.3.3-.3.59a4,4,0,0,0,.41,1.7l10.81-1.58a1.06,1.06,0,0,0,.18-.71C40.29,33,39.17,32.12,39.17,27.9ZM9.1,50.45c-2.52,0-4.34,0-5.52-.47-.76-.3-1-3-1.05-3.76a3,3,0,0,0-2.18,0C.59,48.51.76,52,.76,54.5S.59,60.61.35,62.9a3.14,3.14,0,0,0,2.18,0c.06-.76.29-3.47,1.05-3.76,1.18-.47,3-.47,5.52-.47H17a3,3,0,0,1,1.12.35c3.46,1.7,16,9.52,17.73,10.69,1.35.88,1.41,3.58,1.47,4.35a3.12,3.12,0,0,0,2.17,0c-.12-2.41-.41-4-.41-6.58a61.33,61.33,0,0,1,.42-6.64,3.14,3.14,0,0,0-2.18,0c-.06.76-.35,4.35-1.41,4.35a2.89,2.89,0,0,1-1.35-.3c-4.7-2.52-13-7.1-12.74-7.4l13-7a2.2,2.2,0,0,1,.94-.41c1.47,0,1.52,2.81,1.58,3.58a3.14,3.14,0,0,0,2.18,0c-.24-2.29-.41-5.82-.41-8.28s.17-6.11.41-8.4a3,3,0,0,0-2.18,0c-.06.76-.47,3.11-1.93,4-1.18.7-1.59.94-3.23,1.82,0,0-10.46,5.93-13.69,7.4a2.28,2.28,0,0,1-1.17.29Zm19.79,56.14c6.7,0,10.46-6.17,10.46-13.51,0-3.46-.18-6.58-.18-9s0-5.76.18-8.4a3,3,0,0,0-2.18,0c-.05.76-.17,3.46-.94,3.76-1.17.47-3,.47-5.52.47H9.1c-2.52,0-4.34,0-5.52-.47-.76-.3-1-3-1.05-3.76a3,3,0,0,0-2.18,0c.24,2.29.41,5.81.41,8.28S.59,90,.35,92.32a3.14,3.14,0,0,0,2.18,0c.06-.76.29-3.47,1.05-3.76,1.18-.47,3-.47,5.52-.47H32.71a11.07,11.07,0,0,1,3.58.29c.65.3.7,1.59.7,2.94,0,3.93-4.28,6.52-8.92,6.52s-7.64-2.06-7.64-4.93a9.77,9.77,0,0,1,.24-2.41c0-.12-.18-.18-.41-.18a2.81,2.81,0,0,0-1.47.41,6.29,6.29,0,0,0-1.35,4C17.44,100.72,21.85,106.59,28.89,106.59Zm8.34,22.08c0,8.75-10.51,12-19.5,12-7.1,0-15.21-2.35-15.21-9.34,0-8.75,10.4-11.8,19.38-11.8,7.11,0,15.33,2.23,15.33,9.16Zm2.53,1.41c0-10.34-8.93-20-19.91-20S0,119.74,0,130.08s8.87,20,19.85,20S39.76,140.42,39.76,130.08ZM11.34,181.7H4.52a.92.92,0,0,1-.88-.53,10.31,10.31,0,0,1-.94-4.58c0-8.28,9.1-12.45,18.27-12.45,8.22,0,16.26,2.88,16.26,11.57,0,8.28-5.81,10.63-8.1,11.22a1,1,0,0,0-.23.82c0,.7.53,1.52.88,1.52.7,0,8.22-1.87,8.87-2a68.35,68.35,0,0,0,1.11-12.2A20.48,20.48,0,0,0,19.5,154.74c-11.1,0-19.32,9.11-19.32,20.2,0,5.4,1.52,9.46,2.93,13.16.3.76.88,2.05,1.53,2.05.29,0,1.17-.35,1.7-.35h6.29a4,4,0,0,1,2.52.7,9.59,9.59,0,0,1,.77,3.12,3.51,3.51,0,0,0,2.17,0c-.12-2.34-.35-4.75-.35-7.22,0-3,.23-6,.35-9-.3-.3-2.17-.24-2.17.06,0,.7-.12,3.46-1.59,3.87A8.91,8.91,0,0,1,11.34,181.7Zm28,32.77c0-3.46-.18-6.58-.18-9s0-5.76.18-8.4a3,3,0,0,0-2.18,0c-.05.76-.17,3.46-.94,3.76-1.17.47-3,.47-5.52.47H9.1c-2.52,0-4.34,0-5.52-.47-.76-.3-1-3-1.05-3.76a3,3,0,0,0-2.18,0c.24,2.29.41,5.81.41,8.28s-.17,6.11-.41,8.4a3.14,3.14,0,0,0,2.18,0c.06-.77.29-3.47,1.05-3.76,1.18-.47,3-.47,5.52-.47h9v.88c0,.47-.88,1.06-.88,1.06L4.52,220.93a11,11,0,0,0-4.4,9c0,2.4.12,6,.24,7.69a4.43,4.43,0,0,0,2.17,0c0-.47.18-5.4,5.7-9.75,0,0,5.17-4.23,10.92-8.51.7,2.81,4.7,8,9.52,8C35.71,227.33,39.35,221.81,39.35,214.47Zm-11.28,4.11c-4.52,0-7.63-3.05-7.63-6.4v-2.7H32.71a10.8,10.8,0,0,1,3.58.3c.65.29.7,1.58.7,2.93,0,4.81-4.28,5.87-8.92,5.87ZM8.46,241A27.21,27.21,0,0,1,4.35,239c-.94-.59-1.88-3.4-1.88-4.11A3.09,3.09,0,0,0,.35,235a47.28,47.28,0,0,1,.47,6.4,48,48,0,0,1-.47,6.34,3.15,3.15,0,0,0,2.18-.06c0-.47.47-4.52,2-4.52a23.5,23.5,0,0,1,4,1.29c1.64.65,4.93,2.12,4.93,2.12a.56.56,0,0,1,.3.41c.06,2.05.06,3.7.06,6.1,0,1.47,0,3.41-.06,5.64,0,.18-.24.41-.24.41s-8.4,3.53-8.93,3.53a1.25,1.25,0,0,1-1-.53,6.13,6.13,0,0,1-1.05-3.47c0-.29-1.88-.29-2.18,0,.12,2.12.47,6.17.47,8.87S.47,273,.35,275.37a3.15,3.15,0,0,0,2.18-.12c0-.47.11-3.64,2.52-4.64,1.24-.53,2.41-.88,4.23-1.64l29.77-12a1.89,1.89,0,0,0,.42-1.23c0-.65-1.47-1.82-2.24-2.17Zm20.08,11.8L17,257.69s-.29-.06-.29-.18c-.12-1.82-.12-2.87-.12-4.7,0-1.35.06-3.7.18-4.87,0-.12.23-.12.23-.12Zm.35,55.5c6.7,0,10.46-6.17,10.46-13.51,0-3.46-.18-6.58-.18-9s0-5.76.18-8.4a3,3,0,0,0-2.18,0c-.05.76-.17,3.46-.94,3.75-1.17.48-3,.48-5.52.48H9.1c-2.52,0-4.34,0-5.52-.48-.76-.29-1-3-1.05-3.75a3,3,0,0,0-2.18,0c.24,2.29.41,5.81.41,8.28s-.17,6.11-.41,8.4a3.14,3.14,0,0,0,2.18,0c.06-.77.29-3.47,1.05-3.76,1.18-.47,3-.47,5.52-.47H32.71a11.07,11.07,0,0,1,3.58.29c.65.3.7,1.59.7,2.94,0,3.93-4.28,6.52-8.92,6.52s-7.64-2.06-7.64-4.94a9.69,9.69,0,0,1,.24-2.4c0-.12-.18-.18-.41-.18a2.72,2.72,0,0,0-1.47.41,6.27,6.27,0,0,0-1.35,4.05c0,5.93,4.41,11.81,11.45,11.81Zm10.16,11.8c0-2.47.18-6.11.42-8.4a3,3,0,0,0-2.18,0c-.06.76-.29,3.46-1,3.76-1.18.47-3,.47-5.52.47H9.1c-2.52,0-4.34,0-5.52-.47-.76-.3-1-3-1.05-3.76a3,3,0,0,0-2.18,0c.24,2.29.41,5.81.41,8.28s-.17,6.11-.41,8.4a3.14,3.14,0,0,0,2.18,0c.06-.77.29-3.47,1.05-3.76,1.18-.47,3-.47,5.52-.47h9.63s.18,0,.24.06.23.64.23,7.16c0,2.41-.05,4.64-.11,6.81a.79.79,0,0,1-.3.12H9.1c-2.52,0-4.34,0-5.52-.47-.76-.29-1-3-1.05-3.76a3.14,3.14,0,0,0-2.18,0c.24,2.29.41,5.82.41,8.28s-.17,6.11-.41,8.4a3,3,0,0,0,2.18,0c.06-.76.29-3.46,1.05-3.76,1.18-.47,3-.47,5.52-.47H30.72c2.52,0,4.34,0,5.52.47.76.3,1,3,1,3.76a3,3,0,0,0,2.18,0c-.24-2.29-.42-5.81-.42-8.28s.18-6.11.42-8.4a3.09,3.09,0,0,0-2.18,0c-.06.76-.3,3.47-1.06,3.76-1.17.47-3,.47-5.52.47l-8.28.06a.46.46,0,0,1-.24-.12c-.05-2.11-.17-4.7-.17-6.87,0-2.64.12-4.82.17-7.11a.23.23,0,0,1,.18-.11h8.35c2.52,0,4.34,0,5.52.47.76.29,1,3,1,3.76a3.14,3.14,0,0,0,2.18,0c-.24-2.3-.42-5.82-.42-8.29ZM9.1,366.69c-2.52,0-4.34,0-5.52-.47-.76-.3-1-3-1.05-3.76a3,3,0,0,0-2.18,0c.24,2.29.41,5.81.41,8.28s-.17,6.11-.41,8.4a3.14,3.14,0,0,0,2.18,0c.05-.76.29-3.47,1.05-3.76,1.18-.47,3-.47,5.52-.47H17a3,3,0,0,1,1.12.35c3.46,1.7,16,9.52,17.73,10.69,1.36.88,1.41,3.58,1.47,4.35a3.14,3.14,0,0,0,2.18,0c-.12-2.41-.42-4-.42-6.58a64.15,64.15,0,0,1,.42-6.64,3.14,3.14,0,0,0-2.18,0c-.06.77-.35,4.35-1.41,4.35a3,3,0,0,1-1.35-.29c-4.7-2.53-13-7.11-12.74-7.4l13-7.05a2.48,2.48,0,0,1,.94-.41c1.47,0,1.52,2.82,1.58,3.58a3,3,0,0,0,2.18,0c-.24-2.29-.41-5.81-.41-8.28s.17-6.11.41-8.4a3.14,3.14,0,0,0-2.18,0c-.06.77-.47,3.12-1.93,4-1.18.7-1.59.94-3.23,1.82,0,0-10.46,5.93-13.69,7.4a2.28,2.28,0,0,1-1.17.29Z" style="fill:#094c84"/></g></svg>
