<svg id="Layer_1" data-name="Layer 1" xmlns="http://www.w3.org/2000/svg" viewBox="0 0 97.04 73.09"><title>Logo</title><path id="Path_399" data-name="Path 399" d="M20.13,3.82V0H0V3.82H7.88V36.56H12.2V3.82Z" style="fill:#0cb1f2"/><path id="Path_395" data-name="Path 395" d="M47.23,0H43.09s-7.4,18.07-7.4,19c0-1-7-19-7-19H24.42l9.1,23.68V36.55H37.7v-13Z" style="fill:#0cb1f2"/><path id="Path_397" data-name="Path 397" d="M70.79,11.22c0-4.18-.64-6.71-1.66-8.28-1.2-1.88-2.8-2.94-6-2.94h-11V36.55h4.09V22.3s5.93.05,6.71,0c3-.14,5-1.2,6.21-3C70.28,17.7,70.79,15.36,70.79,11.22Zm-4.18.09c0,2.76-.23,4.42-.69,5.24-.6,1.1-1.57,2-3.87,2H56.26V3.86h6A3.55,3.55,0,0,1,65.87,5.8c.41.73.74,2.66.74,5.51Z" style="fill:#0cb1f2"/><path id="Path_398" data-name="Path 398" d="M86,0C81,0,78,2.17,76.73,5.1s-1.82,7.18-1.82,13.1c0,7,.71,10.7,1.82,13.23,1.43,3.3,4.45,5.15,9.25,5.15s7.52-1.67,9.2-5.2C96.52,28.58,97,24.57,97,18.11c0-5.87-.43-10.25-1.72-13C93.83,1.85,90.81,0,86,0Zm0,33.05a5.47,5.47,0,0,1-5.31-3c-1.1-2.53-1.35-7.59-1.35-11.7,0-3.75.39-9.3,1.35-11.47C81.42,5.14,83,3.79,86,3.79s4.7,1.4,5.47,3.12c1,2.12,1.29,7.67,1.29,11.33,0,6-.53,9.84-1.48,11.92C90.38,32,88.47,33.05,86,33.05Z" style="fill:#0cb1f2"/><path id="Path_399-2" data-name="Path 399-2" d="M12.2,69.27V36.54H7.89V69.27H0v3.82H20.13V69.27Z" style="fill:#fff"/><path id="Path_395-2" data-name="Path 395-2" d="M37.71,49.5v-13H33.52V49.41l-9.1,23.68H28.7s6.94-18.07,7-19c0,1,7.4,19,7.4,19h4.14Z" style="fill:#fff"/><path id="Path_397-2" data-name="Path 397-2" d="M69.19,53.78c-1.25-1.79-3.27-2.85-6.21-3-.78,0-6.71,0-6.71,0V36.54h-4.1V73.09h11c3.18,0,4.78-1,6-2.94,1-1.56,1.65-4.09,1.65-8.27S70.29,55.39,69.19,53.78Zm-2.58,8c0,2.85-.32,4.78-.74,5.52a3.55,3.55,0,0,1-3.58,1.93h-6V54.56h5.79c2.3,0,3.26.88,3.86,2,.46.83.69,2.48.69,5.24Z" style="fill:#fff"/><path id="Path_398-2" data-name="Path 398-2" d="M95.32,68C96.61,65.23,97,60.85,97,55c0-6.45-.52-10.47-1.86-13.27-1.68-3.52-4.41-5.19-9.2-5.19s-7.82,1.85-9.25,5.14c-1.1,2.53-1.82,6.28-1.82,13.23,0,5.92.52,10,1.82,13.1S81,73.09,86,73.09,93.83,71.24,95.32,68ZM86,40c2.49,0,4.4,1,5.27,2.89,1,2.08,1.48,6,1.48,11.93,0,3.65-.33,9.21-1.29,11.33C90.67,67.9,88.85,69.3,86,69.3s-4.55-1.36-5.31-3.07c-1-2.17-1.35-7.73-1.35-11.47,0-4.11.24-9.17,1.35-11.7A5.48,5.48,0,0,1,86,40Z" style="fill:#fff"/><path id="Path_429" data-name="Path 429" d="M4.26,32.53a2,2,0,1,1-2,2h0A2,2,0,0,1,4.26,32.53Z" style="fill:#fff"/><path id="Path_430" data-name="Path 430" d="M4.26,36.55a2,2,0,1,1-2,2h0A2,2,0,0,1,4.26,36.55Z" style="fill:#0cb1f2"/></svg>
