<svg id="Layer_1" data-name="Layer 1" xmlns="http://www.w3.org/2000/svg" viewBox="0 0 228.54 391.82"><title>OldStandard</title><g id="Group_153" data-name="Group 153"><path id="Path_195" data-name="Path 195" d="M3,8.41v4.3a1.3,1.3,0,0,0,.3,1,1.4,1.4,0,0,0,1,.27H36a1.68,1.68,0,0,0,1.34-.54A2.06,2.06,0,0,0,37.85,12q0-2.52-2.77-4.62a19.11,19.11,0,0,0-6.47-3.12,32.94,32.94,0,0,0-3.36-.83l-1.7-.3V1.43l16,.43V34.1l-16,.43V32.81l1.7-.3a32.94,32.94,0,0,0,3.36-.83,19.11,19.11,0,0,0,6.47-3.12q2.78-2.1,2.77-4.62a2.06,2.06,0,0,0-.48-1.45A1.72,1.72,0,0,0,36,22H4.32A1.09,1.09,0,0,0,3,22.79a.86.86,0,0,0,0,.45v4.3H1.31V8.41Zm0,40.2v3.44a1.3,1.3,0,0,0,.3,1,1.45,1.45,0,0,0,1,.27H15.76L35.48,44.2a4.85,4.85,0,0,0,1.86-1.34A3,3,0,0,0,37.85,41V39.15h1.72V56H37.85v-1.5a1.29,1.29,0,0,0-.54-1.13A2,2,0,0,0,36.13,53a3.38,3.38,0,0,0-1.5.32l-15.42,7.1,12.3,4.93a7.76,7.76,0,0,0,3.06.76,3.91,3.91,0,0,0,2.28-.7,2.51,2.51,0,0,0,1-2.2v-1.5h1.72V75.05H37.85V73.44a4.23,4.23,0,0,0-1.16-3,7.72,7.72,0,0,0-2.76-1.85L16.25,61.29H4.32A1.09,1.09,0,0,0,3,62.13a.86.86,0,0,0,0,.45V66H1.31V48.61Zm0,31v3.76a1.32,1.32,0,0,0,.3,1,1.51,1.51,0,0,0,1,.27H36.56a1,1,0,0,0,1.29-1.29V79.56h1.72V98.69a16.83,16.83,0,0,1-1.26,6.69A10.59,10.59,0,0,1,34.76,110a8.64,8.64,0,0,1-5.19,1.64A8.84,8.84,0,0,1,24.31,110a10.84,10.84,0,0,1-3.63-4.57,16.18,16.18,0,0,1-1.32-6.69V92.57h-15A1.08,1.08,0,0,0,3,93.41a.86.86,0,0,0,0,.45v4.73H1.31v-19Zm18,18.32a4.08,4.08,0,0,0,2.26,4A13.88,13.88,0,0,0,29.57,103a13.29,13.29,0,0,0,6.1-1.13,4.09,4.09,0,0,0,2.18-4v-4a1.48,1.48,0,0,0-.27-1,1.39,1.39,0,0,0-1-.3H21.08ZM.34,133.63a12.51,12.51,0,0,1,2.84-7.82,20.35,20.35,0,0,1,7.5-5.89,22.75,22.75,0,0,1,19.51,0,20.35,20.35,0,0,1,7.5,5.89,12.14,12.14,0,0,1,0,15.63,20.25,20.25,0,0,1-7.5,5.89,22.68,22.68,0,0,1-19.51,0,20.25,20.25,0,0,1-7.5-5.89A12.5,12.5,0,0,1,.34,133.63Zm1.72,0a5.8,5.8,0,0,0,2.39,5q2.38,1.75,7.92,1.75H28.5q5.53,0,7.92-1.75a6.44,6.44,0,0,0,0-10.05c-1.59-1.16-4.23-1.75-7.92-1.75H12.38c-3.69,0-6.34.59-7.93,1.75a5.86,5.86,0,0,0-2.39,5ZM.34,171a12.36,12.36,0,0,1,2.74-8,17.38,17.38,0,0,1,7.33-5.24,26.69,26.69,0,0,1,10-1.83,24.42,24.42,0,0,1,10,2,18.22,18.22,0,0,1,7.36,5.7A13.5,13.5,0,0,1,40.54,172a10.69,10.69,0,0,1-.68,4,19.35,19.35,0,0,1-2,3.64,4,4,0,0,0-.8,1.82c0,.47.34.86,1,1.18l2,.92v1.77H24.63v-1.67a29.3,29.3,0,0,0,10.51-4.81q3.68-2.93,3.68-6.85a6,6,0,0,0-2.4-5.08q-2.39-1.8-7.92-1.8H12.38q-10.32,0-10.32,5.92a5.45,5.45,0,0,0,2.36,4.56A9,9,0,0,0,10,177.37h7.36a1.48,1.48,0,0,0,1-.27,1.44,1.44,0,0,0,.27-1v-4.73h1.72v17.84H18.61v-2.58a1.45,1.45,0,0,0-.27-1,1.3,1.3,0,0,0-1-.3H.61V183.6l4.89-1.29a2.82,2.82,0,0,0,.94-.49,1,1,0,0,0,.4-.8,2,2,0,0,0-1.13-1.67A15.58,15.58,0,0,1,2,175.86,7.65,7.65,0,0,1,.34,171ZM0,222.88a7.3,7.3,0,0,1,2.05-5.45q2-2,6-2h6.66a7.31,7.31,0,0,0,4.35-1.26,4.46,4.46,0,0,0,1.78-3.9v-3H4.32a1.08,1.08,0,0,0-1.29.84.86.86,0,0,0,0,.45v4.72H1.31v-19H3V198a1.3,1.3,0,0,0,.3,1,1.4,1.4,0,0,0,1,.27H36.56a1.43,1.43,0,0,0,1-.27,1.48,1.48,0,0,0,.27-1v-3.76h1.72v17.41q0,5.81-2.55,9.35a8.08,8.08,0,0,1-6.91,3.55,7.1,7.1,0,0,1-5.86-2.71,14,14,0,0,1-2.68-7.18h-.38a12,12,0,0,1-3,6.45q-2.24,2.26-7,2.26h-6q-2.25,0-2.25,1.5t2.31,2a21,21,0,0,0,5.64.64v1.72a18.67,18.67,0,0,1-8.09-1.4,5.07,5.07,0,0,1-2.87-5Zm22.57-12a4.14,4.14,0,0,0,2.1,4A12.46,12.46,0,0,0,30.54,216,10.61,10.61,0,0,0,36,214.83a4.31,4.31,0,0,0,1.83-4v-2.31a1.48,1.48,0,0,0-.27-1,1.39,1.39,0,0,0-1-.3h-14ZM3,232.5v1.83a3.85,3.85,0,0,0,1.26,2.84,8.2,8.2,0,0,0,3.09,1.88L40.54,250.4v2.26L5.77,264.16c-1.83.61-2.74,1.66-2.74,3.17v2.15H1.31V250.61H3v3.87a1.28,1.28,0,0,0,.51,1.05,1.93,1.93,0,0,0,1.2.4,5.17,5.17,0,0,0,1.56-.33l5.16-1.72V242.61l-3.28-1.13a7.36,7.36,0,0,0-2.74-.59,2.23,2.23,0,0,0-1.69.77,2.85,2.85,0,0,0-.73,2v2.53H1.3v-13.7Zm10.42,10.8v9.94l14.78-4.89ZM3,274v3.76a1.3,1.3,0,0,0,.3,1,1.4,1.4,0,0,0,1,.27H36.56a1.43,1.43,0,0,0,1-.27,1.48,1.48,0,0,0,.27-1V274h1.72v19.14a16.86,16.86,0,0,1-1.26,6.69,10.62,10.62,0,0,1-3.55,4.56A8.64,8.64,0,0,1,29.57,306a8.78,8.78,0,0,1-5.26-1.64,10.88,10.88,0,0,1-3.63-4.56,16.21,16.21,0,0,1-1.32-6.69V287h-15a1.09,1.09,0,0,0-1.29.84.86.86,0,0,0,0,.45V293H1.31V274Zm18,18.32a4.06,4.06,0,0,0,2.26,3.95,13.75,13.75,0,0,0,6.23,1.16,13.42,13.42,0,0,0,6.1-1.13,4.09,4.09,0,0,0,2.18-4v-4a1.47,1.47,0,0,0-.27-1,1.39,1.39,0,0,0-1-.3H21.08ZM3,311.71v3.77a1.32,1.32,0,0,0,.3,1,1.51,1.51,0,0,0,1,.27H36.56a1,1,0,0,0,1.29-1.29v-3.77h1.72v18.06H37.85V326a1.49,1.49,0,0,0-.27-1,1.39,1.39,0,0,0-1-.3H22.37V337.4H36.56a1,1,0,0,0,1.29-1.29v-3.87h1.72V350.4H37.85v-3.76a1.45,1.45,0,0,0-.27-1,1.31,1.31,0,0,0-1-.3H4.32a1.08,1.08,0,0,0-1.29.84.86.86,0,0,0,0,.45v3.76H1.31v-18H3v3.76a1.3,1.3,0,0,0,.3,1,1.4,1.4,0,0,0,1,.27H20.44V324.72H4.32a1.09,1.09,0,0,0-1.29.84A.86.86,0,0,0,3,326v3.76H1.31V311.71Zm0,52.88V368a1.3,1.3,0,0,0,.3,1,1.4,1.4,0,0,0,1,.27H15.76l19.72-9.13a5,5,0,0,0,1.86-1.35,3,3,0,0,0,.51-1.82v-1.88h1.72V372H37.85v-1.5a1.3,1.3,0,0,0-.54-1.13,2,2,0,0,0-1.18-.38,3.25,3.25,0,0,0-1.5.33l-15.42,7.09,12.3,4.94a7.76,7.76,0,0,0,3.07.76,3.89,3.89,0,0,0,2.28-.7,2.5,2.5,0,0,0,1-2.2v-1.5h1.72V391H37.85v-1.61a4.23,4.23,0,0,0-1.16-3,7.72,7.72,0,0,0-2.76-1.85l-17.68-7.26H4.32a1.08,1.08,0,0,0-1.29.84.86.86,0,0,0,0,.45V382H1.31V364.59Z" style="fill:#094c84"/><path id="Path_158" data-name="Path 158" d="M57.73,267.05a8.6,8.6,0,0,1-5.58-1.84,11.33,11.33,0,0,1-3.47-4.86,18.55,18.55,0,0,1,0-13,11.52,11.52,0,0,1,3.43-4.8,8.15,8.15,0,0,1,5.23-1.8,6.85,6.85,0,0,1,2.41.44,12.67,12.67,0,0,1,2.34,1.29,2.66,2.66,0,0,0,1.2.53.65.65,0,0,0,.46-.16,1.28,1.28,0,0,0,.31-.51l.64-1.3h1.15v10.8H64.77a17.27,17.27,0,0,0-2.8-7.25,5.69,5.69,0,0,0-4.6-2.71,3.25,3.25,0,0,0-2.76,1.62,9.28,9.28,0,0,0-1.11,5.14v10.55a8.46,8.46,0,0,0,1.25,5.12,3.67,3.67,0,0,0,3,1.64A6.65,6.65,0,0,0,64,262.09a14.39,14.39,0,0,0,1.37-5.35H66.6a18.12,18.12,0,0,1-.48,3.11,11.8,11.8,0,0,1-1,2.73,8.3,8.3,0,0,1-3,3.29A8.19,8.19,0,0,1,57.73,267.05Zm15-1.47h2a.64.64,0,0,0,.44-.13.57.57,0,0,0,.12-.44V242.77a.58.58,0,0,0-.12-.44.63.63,0,0,0-.44-.12h-2v-.85h6.61v11.51l.18,0a7.13,7.13,0,0,1,1.81-2.63,3.75,3.75,0,0,1,2.55-1,5.13,5.13,0,0,1,1.51.19,4.3,4.3,0,0,1,1.2.58A4.35,4.35,0,0,1,88,251.85a5.48,5.48,0,0,1,.51,2.32V265a.48.48,0,0,0,.57.57h1.33v.84H82.71v-.84h1.13a.64.64,0,0,0,.44-.13.57.57,0,0,0,.12-.44V253.15c0-1.8-.54-2.71-1.62-2.71a2.19,2.19,0,0,0-1.54,1,8.09,8.09,0,0,0-1.36,2.6,10.64,10.64,0,0,0-.54,3.45V265a.6.6,0,0,0,.12.44.62.62,0,0,0,.44.12H81v.85h-8.3Zm28.57,1.26a5.62,5.62,0,0,1-3.29-.95,3.65,3.65,0,0,1-1.35-3.2,4.37,4.37,0,0,1,1.67-3.61,14.51,14.51,0,0,1,4.24-2.2l2.6-.91v-2.39a3.77,3.77,0,0,0-.74-2.6,2.4,2.4,0,0,0-1.9-.81,3.07,3.07,0,0,0-1.7.44,1.34,1.34,0,0,0-.72,1.21,1.27,1.27,0,0,0,.12.51,1.09,1.09,0,0,0,.44.51,2.22,2.22,0,0,1,.76.67,1.62,1.62,0,0,1,.22.91,1.54,1.54,0,0,1-.61,1.32,2.14,2.14,0,0,1-1.35.48,2.22,2.22,0,0,1-1.57-.62,2.34,2.34,0,0,1-.65-1.78,3.76,3.76,0,0,1,.81-2.37,5.22,5.22,0,0,1,2.07-1.59,6.51,6.51,0,0,1,2.57-.54,7.48,7.48,0,0,1,4.44,1.35,5,5,0,0,1,1.9,4.31v8.9c0,.85.23,1.27.7,1.27s.74-.35,1-1a8.32,8.32,0,0,0,.31-2.43h1a7.07,7.07,0,0,1-.77,3.77,2.89,2.89,0,0,1-1.09,1,3.39,3.39,0,0,1-1.62.38,4.34,4.34,0,0,1-2.18-.44,3.18,3.18,0,0,1-1.23-1.46h-.08A4.62,4.62,0,0,1,101.29,266.84Zm1.73-1.41a2.38,2.38,0,0,0,2.15-1.55v-7l-2,.7a2.91,2.91,0,0,0-1.7,1.6,7.54,7.54,0,0,0-.55,3.15,3.45,3.45,0,0,0,.64,2.39,1.94,1.94,0,0,0,1.44.68Zm14.81.15h1.34a.64.64,0,0,0,.44-.13.62.62,0,0,0,.12-.44V251.15a.62.62,0,0,0-.12-.44.64.64,0,0,0-.44-.13h-1.34v-.84h6v3.48l.18,0a8.14,8.14,0,0,1,1.6-2.78,3.06,3.06,0,0,1,2.31-1.16,2.65,2.65,0,0,1,2.07.91,3.74,3.74,0,0,1,.07,4.56,2.21,2.21,0,0,1-1.83.93,2.36,2.36,0,0,1-1.62-.58,1.81,1.81,0,0,1-.66-1.42,3,3,0,0,1,.85-1.83,1.66,1.66,0,0,0,.49-.81c0-.24-.13-.35-.39-.35-.46,0-.94.34-1.42,1a8.64,8.64,0,0,0-1.18,2.67,13.09,13.09,0,0,0-.46,3.52V265a.57.57,0,0,0,.12.44.64.64,0,0,0,.44.13h1.13v.84h-7.68Zm23.65,1.26a5.58,5.58,0,0,1-3.29-.95,3.65,3.65,0,0,1-1.35-3.2,4.35,4.35,0,0,1,1.67-3.61,14.39,14.39,0,0,1,4.24-2.2l2.6-.91v-2.39a3.77,3.77,0,0,0-.74-2.6,2.42,2.42,0,0,0-1.9-.81,3.07,3.07,0,0,0-1.7.44,1.37,1.37,0,0,0-.73,1.21,1.28,1.28,0,0,0,.13.51,1.09,1.09,0,0,0,.44.51,2.1,2.1,0,0,1,.75.67,1.8,1.8,0,0,1-.38,2.23,2.15,2.15,0,0,1-1.36.48,2.22,2.22,0,0,1-1.56-.62,2.3,2.3,0,0,1-.65-1.78,3.7,3.7,0,0,1,.81-2.37,5.22,5.22,0,0,1,2.07-1.59,6.51,6.51,0,0,1,2.57-.54,7.43,7.43,0,0,1,4.43,1.35,4.91,4.91,0,0,1,1.9,4.31v8.9c0,.85.24,1.27.7,1.27s.74-.35,1-1.06a8.21,8.21,0,0,0,.32-2.42h1a7.11,7.11,0,0,1-.78,3.76,2.81,2.81,0,0,1-1.08,1,3.36,3.36,0,0,1-1.62.38,4.24,4.24,0,0,1-2.18-.44,3.31,3.31,0,0,1-1.23-1.46h-.07A4.62,4.62,0,0,1,141.48,266.84Zm1.73-1.41a2.35,2.35,0,0,0,2.14-1.55v-7l-2,.7a2.91,2.91,0,0,0-1.7,1.6,7.54,7.54,0,0,0-.55,3.15,3.5,3.5,0,0,0,.63,2.39,2,2,0,0,0,1.45.68Zm22.59,1.41a6.68,6.68,0,0,1-3.89-1.18,7.8,7.8,0,0,1-2.65-3.18,10,10,0,0,1-.95-4.4,10.26,10.26,0,0,1,.93-4.4,7.73,7.73,0,0,1,2.64-3.19,6.7,6.7,0,0,1,3.85-1.18,5.39,5.39,0,0,1,2.83.7,4.49,4.49,0,0,1,1.71,1.8,4.75,4.75,0,0,1,.56,2.25,3.29,3.29,0,0,1-.77,2.2,2.32,2.32,0,0,1-1.86.93,1.93,1.93,0,0,1-1.34-.47,1.64,1.64,0,0,1-.53-1.28,2.49,2.49,0,0,1,1.13-1.86,2,2,0,0,0,.84-1.45,2,2,0,0,0-.54-1.35,2.22,2.22,0,0,0-1.74-.62q-1.67,0-2.43,2.1a17.38,17.38,0,0,0-.78,5.82c0,1.24,0,2.21.07,2.9a10.72,10.72,0,0,0,.32,1.95,3.87,3.87,0,0,0,1.21,2.08,3.12,3.12,0,0,0,2.1.77,3.23,3.23,0,0,0,2.78-1.51,7.47,7.47,0,0,0,1.27-3.55h.91a8.19,8.19,0,0,1-1.58,4.27A4.77,4.77,0,0,1,165.8,266.84Zm18.27,0a4.84,4.84,0,0,1-3.44-1.14,4.23,4.23,0,0,1-1.21-3.22V250.72h-2.11v-1A5,5,0,0,0,180.6,248a5.7,5.7,0,0,0,1.21-3.77V243h1.69v6.76h3.59v1H183.5v12a4.4,4.4,0,0,0,.32,1.86,1.26,1.26,0,0,0,1.3.7c1,0,1.64-.67,2-2a19.17,19.17,0,0,0,.49-4.53h1a24.05,24.05,0,0,1-.26,3.7,7.14,7.14,0,0,1-.83,2.6,3.76,3.76,0,0,1-3.4,1.8Zm18.05,0a6.66,6.66,0,0,1-3.89-1.18,7.91,7.91,0,0,1-2.66-3.18,10.28,10.28,0,0,1-.95-4.4,10.44,10.44,0,0,1,.95-4.47,7.87,7.87,0,0,1,2.59-3.15,6,6,0,0,1,3.57-1.14,5.05,5.05,0,0,1,3.7,1.53,7.49,7.49,0,0,1,2,4,18,18,0,0,1,.25,3.51h-8.59c0,1.13,0,2,.07,2.66a9.85,9.85,0,0,0,.32,1.88,3.84,3.84,0,0,0,1.21,2.08,3.13,3.13,0,0,0,2.1.78,3.26,3.26,0,0,0,2.78-1.52,7.42,7.42,0,0,0,1.26-3.55h.92A8.29,8.29,0,0,1,206.2,265,4.77,4.77,0,0,1,202.12,266.84Zm1.51-9.43a23.35,23.35,0,0,0-.47-5.47c-.32-1.19-.91-1.78-1.78-1.78s-1.46.59-1.78,1.78a23.39,23.39,0,0,0-.47,5.47Zm10.84,8.17h1.34a.64.64,0,0,0,.44-.13.62.62,0,0,0,.12-.44V251.15a.62.62,0,0,0-.12-.44.64.64,0,0,0-.44-.13h-1.34v-.84h6v3.48l.18,0a8.14,8.14,0,0,1,1.6-2.78,3.06,3.06,0,0,1,2.31-1.16,2.65,2.65,0,0,1,2.07.91,3.74,3.74,0,0,1,.07,4.56,2.21,2.21,0,0,1-1.83.93,2.36,2.36,0,0,1-1.62-.58,1.82,1.82,0,0,1-.67-1.42,2.93,2.93,0,0,1,.85-1.83,1.66,1.66,0,0,0,.49-.81q0-.36-.39-.36c-.46,0-.94.35-1.42,1a8.64,8.64,0,0,0-1.18,2.67,13.09,13.09,0,0,0-.46,3.52V265a.62.62,0,0,0,.12.44.65.65,0,0,0,.44.13h1.13v.84h-7.67Z" style="fill:#17599b"/><path id="Path_173" data-name="Path 173" d="M65.57,49.81a13.21,13.21,0,0,1-5.49-1.23,26.66,26.66,0,0,1-4.69-2.7q-2.8-2.13-3.33-2.13c-.89,0-1.47,1-1.73,2.86l-.27,2.67H48.53l-.47-21h1.6a24.2,24.2,0,0,0,2.77,9.42,22,22,0,0,0,5.89,7.26,11.69,11.69,0,0,0,7.25,2.76c3.64,0,6.3-.89,8-2.66a9.06,9.06,0,0,0,2.5-6.4,6.86,6.86,0,0,0-1.9-5.12,16.85,16.85,0,0,0-5.56-3.33L58.45,26.11a17.69,17.69,0,0,1-7.76-5.5,13.21,13.21,0,0,1-2.5-8.08q0-6.4,3.73-9.46A14.24,14.24,0,0,1,61.25,0Q65.65,0,71,4a14.16,14.16,0,0,0,1.33.84,2.54,2.54,0,0,0,1.2.36c.75,0,1.2-.53,1.33-1.6l.27-2.4h1.6l.66,17.31h-1.6A27.27,27.27,0,0,0,72.4,10,18.54,18.54,0,0,0,67,4.2a11.12,11.12,0,0,0-6.32-2.07,8.31,8.31,0,0,0-6.13,2.43,9.25,9.25,0,0,0-2.4,6.76A6.67,6.67,0,0,0,53.72,16a12.27,12.27,0,0,0,4.53,2.87L71.1,24a14.11,14.11,0,0,1,6.69,5.13,12.33,12.33,0,0,1,2.23,7,14.68,14.68,0,0,1-1.56,6.66,12.45,12.45,0,0,1-4.8,5.09A15.43,15.43,0,0,1,65.57,49.81Zm31.63-.4a6.47,6.47,0,0,1-5-2.13,8.22,8.22,0,0,1-2-5.79V20.12H85.35V18.25h1.46c2,0,3.57-1.07,4.7-3.23a15.19,15.19,0,0,0,1.7-7.15V5.47h1.86V18.25h8.26v1.86H95.07v21.7a6.34,6.34,0,0,0,.8,3.33,2.92,2.92,0,0,0,2.73,1.33q4.73,0,4.73-8h1.2a20.54,20.54,0,0,1-1.3,7.69Q101.93,49.41,97.2,49.41Zm18.5,15a5.79,5.79,0,0,1-4.26-1.67,5.71,5.71,0,0,1-1.36-1.9,5.5,5.5,0,0,1-.5-2.3,4.36,4.36,0,0,1,.3-1.63,2.9,2.9,0,0,1,.76-1.16,3.16,3.16,0,0,1,2.27-1,2.74,2.74,0,0,1,2.3,1,3.74,3.74,0,0,1,.76,2.43,4.24,4.24,0,0,1-.53,1.87,2.44,2.44,0,0,0-.4,1.26c0,.67.44,1,1.33,1a4.27,4.27,0,0,0,3.36-1.56,10.19,10.19,0,0,0,2-3.7l1.8-5.8-9.46-27.5a11,11,0,0,0-1.53-3,2.89,2.89,0,0,0-2.4-.9H108v-1.6h15v1.6H120.9a2.52,2.52,0,0,0-1.46.43,1.33,1.33,0,0,0-.67,1.16,6.3,6.3,0,0,0,.4,2.2l6.93,20.44,5.52-18.24a17.49,17.49,0,0,0,.5-1.8,7.2,7.2,0,0,0,.24-1.6,2.7,2.7,0,0,0-.67-1.86,2.23,2.23,0,0,0-1.73-.74h-1.6v-1.6h12.12v1.6h-1.54a4.37,4.37,0,0,0-2.7,1,6.12,6.12,0,0,0-1.9,3L123.63,57.87a10.71,10.71,0,0,1-2.8,4.52A7,7,0,0,1,115.7,64.46ZM143.94,47h3.46a1.23,1.23,0,0,0,1.47-1.47V4.27a1.58,1.58,0,0,0-.33-1.13,1.6,1.6,0,0,0-1.14-.33h-3.46V1.21h9.72V45.55A1.24,1.24,0,0,0,155.13,47h3.46v1.6H143.94Zm33,2.4a12.76,12.76,0,0,1-10-4.19q-3.75-4.2-3.76-11.66a19.1,19.1,0,0,1,1.67-8,14.93,14.93,0,0,1,4.62-5.93,10.8,10.8,0,0,1,6.63-2.23,10,10,0,0,1,6.66,2.2,12.64,12.64,0,0,1,3.76,5.56,21,21,0,0,1,1.16,6.89,1,1,0,0,1-.46,1,3.8,3.8,0,0,1-1.6.23H169.1q0,6.66,1.9,10.59a6.45,6.45,0,0,0,6.23,3.92A8.7,8.7,0,0,0,183,45.48q2.7-2.32,3.43-7.26H188a12.86,12.86,0,0,1-3.37,8A10,10,0,0,1,177,49.41ZM182,31.7a25.22,25.22,0,0,0-1.4-9Q179.23,19,176,19.05q-3.41,0-5.16,3.7a20.73,20.73,0,0,0-1.77,9Z" style="fill:#24648d"/><path id="Path_174" data-name="Path 174" d="M48.24,388.89H53a1.6,1.6,0,0,0,1.8-1.35,1.7,1.7,0,0,0,0-.45V347.54a1.56,1.56,0,0,0-1.8-1.8H48.24v-2.13H85.39l.26,16.64H84a29.87,29.87,0,0,0-.57-4.52A15.07,15.07,0,0,0,81.19,350a8.87,8.87,0,0,0-7.85-4.26H62.75a1.55,1.55,0,0,0-1.8,1.8v17.91h5.13c2.27,0,3.9-1.2,4.89-3.62a19.77,19.77,0,0,0,1.5-7.63H74.2v24.63H72.47a19.76,19.76,0,0,0-1.5-7.62q-1.5-3.63-4.89-3.63H61v19.11a2.66,2.66,0,0,0,.44,1.6,1.55,1.55,0,0,0,1.36.6h5.86V391H48.24Zm55.92,2.93a11.35,11.35,0,0,1-6.72-2.17,14.83,14.83,0,0,1-4.83-5.82,19,19,0,0,1,0-16A14.86,14.86,0,0,1,97.44,362a11.55,11.55,0,0,1,13.45,0,14.92,14.92,0,0,1,4.82,5.83,18.92,18.92,0,0,1,0,16,14.89,14.89,0,0,1-4.82,5.82A11.38,11.38,0,0,1,104.16,391.82Zm0-1.6a5.91,5.91,0,0,0,5.73-3.77q1.73-3.75,1.73-10.61c0-4.58-.58-8.11-1.73-10.62a6.23,6.23,0,0,0-11.45,0Q96.7,369,96.71,375.84t1.73,10.61a5.89,5.89,0,0,0,5.72,3.77Zm22.37-.8h2.8A1.24,1.24,0,0,0,130.8,388V363.72a1.55,1.55,0,0,0-.34-1.13,1.58,1.58,0,0,0-1.13-.33h-2.8v-1.6h9.06v5.46l.26.06a11.86,11.86,0,0,1,3.8-4.76,8.58,8.58,0,0,1,5-1.56q4.86,0,6.9,3a12.53,12.53,0,0,1,2,7.19V388a1.51,1.51,0,0,0,.33,1.14,1.58,1.58,0,0,0,1.13.33h2.8V391H144.51v-1.6h2.8a1.58,1.58,0,0,0,1.13-.33,1.5,1.5,0,0,0,.33-1.13V368.78a9.84,9.84,0,0,0-1.16-5,4.18,4.18,0,0,0-4-2.07,6.12,6.12,0,0,0-4.17,1.63,10.81,10.81,0,0,0-2.86,4.47,18.2,18.2,0,0,0-1,6.29V388a1.23,1.23,0,0,0,1.46,1.47h2.8V391H126.53Zm50.47,2.4a6.45,6.45,0,0,1-5-2.13,8.18,8.18,0,0,1-2-5.8V362.52h-4.93v-1.87h1.46q3,0,4.7-3.22a15.23,15.23,0,0,0,1.7-7.16v-2.4h1.86v12.78h8.26v1.87h-8.26v21.7a6.46,6.46,0,0,0,.8,3.33,2.92,2.92,0,0,0,2.73,1.33q4.72,0,4.73-8h1.2a20.61,20.61,0,0,1-1.3,7.69q-1.31,3.24-6,3.24Z" style="fill:#2d7198"/><path id="Path_186" data-name="Path 186" d="M52,182a2.91,2.91,0,0,1-1.17-.27,4.81,4.81,0,0,1-1-.58,2.56,2.56,0,0,0-.72-.45c-.19,0-.31.2-.37.61l-.06.57h-.32l-.1-4.51h.34a5.24,5.24,0,0,0,.59,2A4.79,4.79,0,0,0,50.41,181a2.49,2.49,0,0,0,1.56.59,2.25,2.25,0,0,0,1.7-.57,1.93,1.93,0,0,0,.53-1.37,1.44,1.44,0,0,0-.4-1.1,3.52,3.52,0,0,0-1.19-.71L50.44,177a3.79,3.79,0,0,1-1.66-1.18,2.81,2.81,0,0,1-.53-1.73,2.45,2.45,0,0,1,.8-2,3,3,0,0,1,2-.65,3.59,3.59,0,0,1,2.08.85,2.2,2.2,0,0,0,.28.18.61.61,0,0,0,.26.08c.16,0,.26-.12.29-.34l0-.52h.34l.15,3.71h-.35a5.87,5.87,0,0,0-.72-1.83,4,4,0,0,0-1.15-1.24,2.41,2.41,0,0,0-1.35-.44,1.77,1.77,0,0,0-1.31.52,2,2,0,0,0-.52,1.45,1.4,1.4,0,0,0,.32,1,2.75,2.75,0,0,0,1,.61l2.76,1.1a3,3,0,0,1,1.43,1.1,2.62,2.62,0,0,1,.48,1.5,3.19,3.19,0,0,1-.33,1.43,2.61,2.61,0,0,1-1,1.08A3.3,3.3,0,0,1,52,182Zm4.24,2.67H57a.3.3,0,0,0,.24-.07.29.29,0,0,0,.07-.24v-8.47a.26.26,0,0,0-.31-.31h-.74v-.35h2.08v1.06h.06a2.34,2.34,0,0,1,.69-.9,1.52,1.52,0,0,1,1-.34,2,2,0,0,1,1.25.45,3.06,3.06,0,0,1,.92,1.24,4.62,4.62,0,0,1,0,3.48,3.1,3.1,0,0,1-.92,1.23,2,2,0,0,1-1.25.45,1.57,1.57,0,0,1-1-.36,2.27,2.27,0,0,1-.66-.88h-.06v3.68a.26.26,0,0,0,.32.32h.74v.34H56.21Zm3.63-3.16a1.13,1.13,0,0,0,1.06-.78,7.34,7.34,0,0,0,0-4.48,1.11,1.11,0,0,0-1.84-.47,2.1,2.1,0,0,0-.57.86,3.43,3.43,0,0,0-.21,1.19v1.31a3.22,3.22,0,0,0,.22,1.19,2.07,2.07,0,0,0,.56.87A1.13,1.13,0,0,0,59.84,181.54Zm5.87.4a2.34,2.34,0,0,1-1.31-.37,1.49,1.49,0,0,1-.55-1.31,1.63,1.63,0,0,1,.38-1.14,2.16,2.16,0,0,1,.86-.6,8.29,8.29,0,0,1,1.19-.3l1.31-.25v-1.21a1.18,1.18,0,0,0-1-1.33,1.93,1.93,0,0,0-.34,0,1.7,1.7,0,0,0-.88.25.71.71,0,0,0-.4.57.49.49,0,0,0,0,.21.28.28,0,0,0,.1.09l.12.06a.86.86,0,0,1,.39.2.45.45,0,0,1,.13.35.49.49,0,0,1-.17.43.74.74,0,0,1-.45.13.8.8,0,0,1-.57-.24.92.92,0,0,1-.26-.7,1.52,1.52,0,0,1,.29-.92,2,2,0,0,1,.76-.58,2.56,2.56,0,0,1,1-.19,2.74,2.74,0,0,1,1.62.49,1.78,1.78,0,0,1,.69,1.54v3.51c0,.47.15.71.44.71a.52.52,0,0,0,.51-.41,2.73,2.73,0,0,0,.16-1H70a3.67,3.67,0,0,1-.25,1.44.91.91,0,0,1-.89.59,1.13,1.13,0,0,1-.92-.36,1.68,1.68,0,0,1-.34-1l-.07,0a2.94,2.94,0,0,1-.69,1,1.61,1.61,0,0,1-1.12.45Zm.23-.51a1.16,1.16,0,0,0,1-.51,5.21,5.21,0,0,0,.65-1.29v-1.36l-1.24.27a1.57,1.57,0,0,0-1,.57,2,2,0,0,0-.31,1.19,1.17,1.17,0,0,0,.27.9.93.93,0,0,0,.62.23Zm7.79.51a2.42,2.42,0,0,1-1.47-.46,2.92,2.92,0,0,1-1-1.24,4.08,4.08,0,0,1-.35-1.72,4,4,0,0,1,.36-1.73,3,3,0,0,1,1-1.24,2.5,2.5,0,0,1,1.45-.46,2.27,2.27,0,0,1,1.14.28,2.1,2.1,0,0,1,.74.71,1.84,1.84,0,0,1,.26.88,1,1,0,0,1-.23.69.7.7,0,0,1-.56.25.67.67,0,0,1-.48-.18.61.61,0,0,1-.19-.44.71.71,0,0,1,.14-.43.7.7,0,0,1,.35-.23c.15-.05.22-.13.22-.26A.67.67,0,0,0,75,176a1.3,1.3,0,0,0-.46-.38,1.61,1.61,0,0,0-.78-.16,1.19,1.19,0,0,0-1.22.77,8.37,8.37,0,0,0,0,4.62,1.21,1.21,0,0,0,1.22.77,1.59,1.59,0,0,0,1.35-.62,2.94,2.94,0,0,0,.57-1.44H76a3.21,3.21,0,0,1-.3,1.14,2.28,2.28,0,0,1-.76.9,2,2,0,0,1-1.19.36Zm6.36,0A2.73,2.73,0,0,1,78,181a3.59,3.59,0,0,1-.81-2.5,4.19,4.19,0,0,1,.36-1.7,3.16,3.16,0,0,1,1-1.27,2.36,2.36,0,0,1,1.42-.48,2.18,2.18,0,0,1,1.43.47,2.65,2.65,0,0,1,.8,1.2,4.33,4.33,0,0,1,.25,1.47.21.21,0,0,1-.1.21.78.78,0,0,1-.34.05H78.41a5.19,5.19,0,0,0,.4,2.27,1.39,1.39,0,0,0,1.34.84,1.86,1.86,0,0,0,1.23-.5,2.42,2.42,0,0,0,.74-1.56h.34a2.8,2.8,0,0,1-.72,1.72,2.15,2.15,0,0,1-1.65.68Zm1.08-3.8a5.22,5.22,0,0,0-.3-1.92,1,1,0,0,0-1-.79,1.2,1.2,0,0,0-1.11.79,4.53,4.53,0,0,0-.37,1.92Z" style="fill:#166183"/><path id="Path_175" data-name="Path 175" d="M52.94,293.17h-.23v19.4a3.41,3.41,0,0,0,.66,2.22,2.14,2.14,0,0,0,1.73.82h1.37v1.22h-9v-1.22h1.37a2.13,2.13,0,0,0,1.73-.81,3.43,3.43,0,0,0,.66-2.23V292a1,1,0,0,0-.24-.78,1.11,1.11,0,0,0-.78-.25H47.42v-1.22h8.06l6.2,21,5.79-21h7.87V291H72.6a1.07,1.07,0,0,0-.78.25,1,1,0,0,0-.24.78v22.6a.9.9,0,0,0,.77,1,.53.53,0,0,0,.25,0h2.74v1.22h-11v-1.22h2.74a.91.91,0,0,0,1-.77,1,1,0,0,0,0-.25V292.14l-7,25.15H60.2Zm32.6,24.12a6.11,6.11,0,0,1-3.48-1,3.91,3.91,0,0,1-1.47-3.5,4.45,4.45,0,0,1,1-3.05,5.54,5.54,0,0,1,2.3-1.57,19.54,19.54,0,0,1,3.18-.82l3.5-.65v-3.23q0-3.54-3.54-3.54a4.39,4.39,0,0,0-2.36.66,1.84,1.84,0,0,0-1.06,1.5,1.06,1.06,0,0,0,.11.58.88.88,0,0,0,.25.22,1.2,1.2,0,0,0,.32.16,2.43,2.43,0,0,1,1,.53,1.25,1.25,0,0,1,.36,1,1.31,1.31,0,0,1-.48,1.14A2,2,0,0,1,84,306a2.17,2.17,0,0,1-1.52-.64,2.5,2.5,0,0,1-.69-1.87,3.94,3.94,0,0,1,.78-2.43,4.72,4.72,0,0,1,2-1.54,6.52,6.52,0,0,1,2.54-.52,7.19,7.19,0,0,1,4.33,1.32,4.67,4.67,0,0,1,1.83,4.09v9.35c0,1.27.39,1.9,1.18,1.9a1.43,1.43,0,0,0,1.37-1.1,7.71,7.71,0,0,0,.42-2.7H97a9.84,9.84,0,0,1-.66,3.84,2.39,2.39,0,0,1-2.38,1.56,3,3,0,0,1-2.46-1,4.38,4.38,0,0,1-.89-2.68l-.19-.08a7.47,7.47,0,0,1-1.84,2.53A4.2,4.2,0,0,1,85.54,317.29Zm.61-1.37a3.11,3.11,0,0,0,2.68-1.35,14.12,14.12,0,0,0,1.73-3.45v-3.61l-3.31.72a4.18,4.18,0,0,0-2.64,1.5,5.33,5.33,0,0,0-.82,3.18,3.08,3.08,0,0,0,.72,2.38A2.42,2.42,0,0,0,86.15,315.92Zm14.84,0h1.6a.7.7,0,0,0,.83-.83V301.23a.7.7,0,0,0-.83-.83H101v-.92h5.17v3.8l.15,0a8.6,8.6,0,0,1,2.07-3.14A4,4,0,0,1,111.1,299a3.38,3.38,0,0,1,2.36.84,2.92,2.92,0,0,1,.92,2.28,2.78,2.78,0,0,1-.59,1.64,1.82,1.82,0,0,1-1.5.8,2,2,0,0,1-1.22-.38,1.29,1.29,0,0,1-.5-1.07,1.71,1.71,0,0,1,.77-1.37,2.92,2.92,0,0,0,.51-.42.67.67,0,0,0,.17-.49.62.62,0,0,0-.32-.55,1.56,1.56,0,0,0-.9-.21,3.12,3.12,0,0,0-2.26,1.14,8.23,8.23,0,0,0-1.73,3,11.45,11.45,0,0,0-.65,3.8v7.08a.92.92,0,0,0,.19.64.84.84,0,0,0,.65.19h1.6v.92H101Zm26.25,10a14.55,14.55,0,0,1-5.79-1.07,3.52,3.52,0,0,1-2.43-3.35,3.33,3.33,0,0,1,1.1-2.47,4.69,4.69,0,0,1,2.63-1.29v-.12q-3.34-.72-3.35-2.81a2.88,2.88,0,0,1,1.2-2.46,6.84,6.84,0,0,1,3-1.2V311a7,7,0,0,1-2.72-2.07,5.72,5.72,0,0,1-1.13-3.68,5.83,5.83,0,0,1,1-3.34,6.17,6.17,0,0,1,2.49-2.15,7.68,7.68,0,0,1,3.33-.75,7,7,0,0,1,2.18.37,9,9,0,0,1,1.87.83,4.26,4.26,0,0,1,1,.78,2.82,2.82,0,0,1,2.62-2,3,3,0,0,1,2.13.76,2.56,2.56,0,0,1,.84,2,2.37,2.37,0,0,1-.44,1.48,1.39,1.39,0,0,1-1.16.57,1.79,1.79,0,0,1-1.07-.32,1.18,1.18,0,0,1-.45-1.05,1.3,1.3,0,0,1,.64-1.21A1.32,1.32,0,0,0,135,301a.7.7,0,0,0,.1-.4.51.51,0,0,0-.3-.46,1.83,1.83,0,0,0-.73-.15,1.74,1.74,0,0,0-1.23.55,2.09,2.09,0,0,0-.63,1.28,5.91,5.91,0,0,1,1.07,3.5,6.08,6.08,0,0,1-.92,3.32,5.87,5.87,0,0,1-2.46,2.17,7.56,7.56,0,0,1-3.4.74,11.81,11.81,0,0,0-3.87.59c-1.12.4-1.69,1.05-1.69,2a1,1,0,0,0,.65,1,4.93,4.93,0,0,0,1.79.27c.53,0,1,0,1.29,0s.7,0,1.18,0h3.92a6.29,6.29,0,0,1,4.07,1.32,4.62,4.62,0,0,1,1.63,3.86,4.5,4.5,0,0,1-2.26,4.07A11.24,11.24,0,0,1,127.24,325.89Zm-.76-15.3a3.12,3.12,0,0,0,2.73-1.41,8.24,8.24,0,0,0,0-7.83,3.36,3.36,0,0,0-5.47,0,8.24,8.24,0,0,0,0,7.83A3.14,3.14,0,0,0,126.48,310.59Zm.76,14.38a11,11,0,0,0,4.79-1,3.38,3.38,0,0,0,2.06-3.29,3.17,3.17,0,0,0-.7-2,3,3,0,0,0-2.46-.86H126.7a10.18,10.18,0,0,0-4.22.82,2.84,2.84,0,0,0-1.79,2.76,2.88,2.88,0,0,0,2,2.68A11,11,0,0,0,127.24,325Zm17.27-30.21a1.87,1.87,0,0,1-1.41-.57,1.94,1.94,0,0,1-.57-1.4,1.9,1.9,0,0,1,.57-1.43,1.92,1.92,0,0,1,1.41-.55,2,2,0,0,1,1.43,3.38A1.88,1.88,0,0,1,144.51,294.76Zm-3.57,21.16h1.6a.7.7,0,0,0,.83-.83V301.23a.7.7,0,0,0-.83-.83h-1.6v-.92h5.17v15.6a.93.93,0,0,0,.19.65.94.94,0,0,0,.65.19h1.6v.91h-7.61Zm12.17,0h1.6a.85.85,0,0,0,.65-.19.92.92,0,0,0,.19-.64V301.23a.92.92,0,0,0-.19-.64.85.85,0,0,0-.65-.19h-1.6v-.92h5.18v3.12l.15,0a6.71,6.71,0,0,1,2.17-2.72,4.84,4.84,0,0,1,2.85-.89,4.4,4.4,0,0,1,3.94,1.71,7.2,7.2,0,0,1,1.16,4.11v10.23a.85.85,0,0,0,.19.65.92.92,0,0,0,.64.19H171v.91h-7.6v-.91H165a.7.7,0,0,0,.83-.83v-11a5.77,5.77,0,0,0-.66-2.85,2.39,2.39,0,0,0-2.27-1.18,3.51,3.51,0,0,0-2.38.93,6.21,6.21,0,0,0-1.63,2.55,10.3,10.3,0,0,0-.59,3.6v7.91a.7.7,0,0,0,.84.84h1.6v.91h-7.62Z" style="fill:#3d8baf"/><path id="Path_159" data-name="Path 159" d="M48.77,149.42H53a1.51,1.51,0,0,0,1.14-.33,1.69,1.69,0,0,0,.3-1.11V112a1.65,1.65,0,0,0-.3-1.14,1.61,1.61,0,0,0-1.14-.3h-4.2v-1.92h22.3a16.43,16.43,0,0,1,9.1,2.67,18.75,18.75,0,0,1,6.56,7.43,23.55,23.55,0,0,1,2.43,10.87,25,25,0,0,1-2.43,11.09,19.51,19.51,0,0,1-6.59,7.79,15.86,15.86,0,0,1-9.07,2.81H48.77Zm21.28,0a8.45,8.45,0,0,0,6.38-2.67C78.13,145,79,142.39,79,139V121c0-3.39-.84-6-2.54-7.76a8.48,8.48,0,0,0-6.38-2.66H64.71a1.65,1.65,0,0,0-1.11.3,1.56,1.56,0,0,0-.33,1.14V148a1.22,1.22,0,0,0,1.44,1.44Zm37.75,2.63a11.35,11.35,0,0,1-6.63-2,13.55,13.55,0,0,1-4.52-5.43A17.27,17.27,0,0,1,95,137.13a17.72,17.72,0,0,1,1.62-7.61,13.42,13.42,0,0,1,4.4-5.36,10.43,10.43,0,0,1,6.08-2,8.64,8.64,0,0,1,6.29,2.61,12.79,12.79,0,0,1,3.48,6.86,31.66,31.66,0,0,1,.42,6H102.7q0,2.88.12,4.53a17.4,17.4,0,0,0,.54,3.2,6.61,6.61,0,0,0,2.07,3.54,5.34,5.34,0,0,0,3.56,1.32,5.55,5.55,0,0,0,4.74-2.58,12.55,12.55,0,0,0,2.15-6.05h1.56a14,14,0,0,1-2.7,7.28A8.07,8.07,0,0,1,107.8,152.05ZM110.37,136a38.83,38.83,0,0,0-.81-9.31c-.54-2-1.54-3-3-3s-2.49,1-3,3a39.35,39.35,0,0,0-.81,9.31Zm13.54,4.2h1.32l2.7,4.73q3.24,5.7,8.15,5.69a4.43,4.43,0,0,0,3.3-1.1,3.5,3.5,0,0,0,1.08-2.49,3.42,3.42,0,0,0-.63-2.07,7.5,7.5,0,0,0-2.16-1.8c-1-.62-2.58-1.45-4.7-2.49a27.63,27.63,0,0,1-6.44-4.19,8.55,8.55,0,0,1-.28-12,8,8,0,0,1,5.69-2.22,11.22,11.22,0,0,1,6,2,3.75,3.75,0,0,0,1.8.72q.72,0,1-1l.36-1.2h1.07v9.59h-1.32l-1.14-2.28a13.77,13.77,0,0,0-3.71-4.85,6.89,6.89,0,0,0-4.26-1.62,4.29,4.29,0,0,0-2.66.78,2.91,2.91,0,0,0-1,2.51q0,3.54,6.35,6.54a42.77,42.77,0,0,1,6,3.3,9.89,9.89,0,0,1,3,3.11,8.28,8.28,0,0,1,1,4.14,7.56,7.56,0,0,1-2.37,5.87,8.47,8.47,0,0,1-5.9,2.16,12.29,12.29,0,0,1-6.23-1.92,4.5,4.5,0,0,0-2.16-1,2.22,2.22,0,0,0-1.38.45,2.44,2.44,0,0,0-.84,1.16l-.42,1.26h-1.08Zm31.16-23.37a4.4,4.4,0,0,1-4.43-4.44,4.21,4.21,0,0,1,1.29-3.17,4.34,4.34,0,0,1,3.14-1.26,4.31,4.31,0,0,1,4.44,4.43,4.35,4.35,0,0,1-1.26,3.15A4.25,4.25,0,0,1,155.07,116.82ZM148.6,149.9h2.28a1.1,1.1,0,0,0,.75-.21,1.08,1.08,0,0,0,.21-.75V125.33a.79.79,0,0,0-1-1H148.6v-1.44h10.19v26a1.08,1.08,0,0,0,.21.75,1.1,1.1,0,0,0,.75.21H162v1.43H148.6Zm31.16,15.7a20.53,20.53,0,0,1-9.44-2q-3.85-2-3.86-5.45a5.24,5.24,0,0,1,1.5-3.63,7.74,7.74,0,0,1,4.13-2.25v-.18a5,5,0,0,1-3.23-1.5,4.5,4.5,0,0,1-1.44-3.41q0-5.7,6.71-7V140a11.32,11.32,0,0,1-4.1-3.12,7.87,7.87,0,0,1-1.77-5.27,8.16,8.16,0,0,1,1.52-4.85,10.16,10.16,0,0,1,4-3.33,12.57,12.57,0,0,1,5.36-1.17,12,12,0,0,1,8.33,3.12h.18q1.86-3.12,4.44-3.12a4.32,4.32,0,0,1,3.11,1.17,3.74,3.74,0,0,1,1.2,2.79,5,5,0,0,1-1,3.11,2.88,2.88,0,0,1-2.36,1.32,2.61,2.61,0,0,1-1.68-.57,1.84,1.84,0,0,1-.72-1.52,3.63,3.63,0,0,1,1-2.16,4.89,4.89,0,0,0,.66-.84,1.71,1.71,0,0,0,.3-.84q0-1-1.26-1-1.62,0-3.06,2.52a8.25,8.25,0,0,1,1.92,5.81,7.41,7.41,0,0,1-1.38,4.22,10.18,10.18,0,0,1-3.92,3.39A12.5,12.5,0,0,1,179,141a22.34,22.34,0,0,0-5.87.63,2.56,2.56,0,0,0-2.21,2.54c0,1.4,1,2.1,2.93,2.1h9.47a11.79,11.79,0,0,1,7.07,2,7,7,0,0,1,2.81,6.11,10.14,10.14,0,0,1-1.61,5.54A11.59,11.59,0,0,1,187,164a15.55,15.55,0,0,1-7.19,1.56Zm-.48-26.13a2.85,2.85,0,0,0,2.76-1.89,16,16,0,0,0,.84-6,16,16,0,0,0-.84-6,2.85,2.85,0,0,0-2.76-1.89,3,3,0,0,0-2.84,1.89,15.24,15.24,0,0,0-.87,6,15.19,15.19,0,0,0,.87,6A2.93,2.93,0,0,0,179.28,139.47Zm-.41,24.21a15.1,15.1,0,0,0,7.25-1.68,5.21,5.21,0,0,0,3.11-4.79,3.39,3.39,0,0,0-2.52-3.27,17.7,17.7,0,0,0-6.41-1,27.41,27.41,0,0,0-8.15,1.11q-3.53,1.11-3.53,4.17c0,1.76,1,3.1,3.08,4A17.16,17.16,0,0,0,178.87,163.68Zm20.67-13.78h2.27a1.1,1.1,0,0,0,.75-.21,1,1,0,0,0,.21-.75V125.33a1,1,0,0,0-.21-.75,1.05,1.05,0,0,0-.75-.21h-2.27v-1.44h10.18v5.33l.3.06a12.11,12.11,0,0,1,3.09-4.46,6.44,6.44,0,0,1,4.34-1.65,9.37,9.37,0,0,1,2.58.33,7.86,7.86,0,0,1,2,1,7.37,7.37,0,0,1,2.36,3,9.48,9.48,0,0,1,.87,4v18.45a1.08,1.08,0,0,0,.21.75,1.12,1.12,0,0,0,.75.21h2.28v1.43H215.47V149.9h1.92a1.1,1.1,0,0,0,.75-.21,1.08,1.08,0,0,0,.21-.75v-20.2q0-4.61-2.76-4.61a3.7,3.7,0,0,0-2.63,1.68,14.1,14.1,0,0,0-2.31,4.43,18.34,18.34,0,0,0-.93,5.87v12.83a1.08,1.08,0,0,0,.21.75,1.12,1.12,0,0,0,.75.21h1.92v1.43H199.54Z" style="fill:#094c84"/><path id="Path_187" data-name="Path 187" d="M49.09,83.2h1.37a.46.46,0,0,0,.52-.38V71.39a.57.57,0,0,0-.13-.4.55.55,0,0,0-.39-.12H49.09v-.61h5.42v.61H53.24a.55.55,0,0,0-.39.12.56.56,0,0,0-.13.39v5.9l4.38-4.47a1.77,1.77,0,0,0,.36-.53,1.41,1.41,0,0,0,.11-.61.71.71,0,0,0-.24-.57.88.88,0,0,0-.61-.23h-.51v-.61h5v.61h-.76c-.42,0-1,.37-1.72,1.12l-3.2,3.24,3.89,7.13A1.6,1.6,0,0,0,60,83a1.86,1.86,0,0,0,.87.18h.63v.6H55.75v-.6H57a.56.56,0,0,0,.36-.12.37.37,0,0,0,.16-.28,1.17,1.17,0,0,0,0-.26.62.62,0,0,0-.1-.22L54.3,76.5l-1.58,1.6v4.58a.47.47,0,0,0,.39.52h1.4v.6H49.09ZM70.93,84a3.64,3.64,0,0,1-2.84-1.2A4.81,4.81,0,0,1,67,79.51a5.59,5.59,0,0,1,.48-2.28,4.28,4.28,0,0,1,1.32-1.69,3.08,3.08,0,0,1,1.89-.64,2.83,2.83,0,0,1,1.9.63,3.56,3.56,0,0,1,1.08,1.59,5.93,5.93,0,0,1,.33,2,.3.3,0,0,1-.13.28,1,1,0,0,1-.46.07H68.68a7.11,7.11,0,0,0,.55,3A1.85,1.85,0,0,0,71,83.58a2.51,2.51,0,0,0,1.64-.67,3.23,3.23,0,0,0,1-2.07h.46a3.75,3.75,0,0,1-1,2.29,2.89,2.89,0,0,1-2.2.9ZM72.38,79a7.43,7.43,0,0,0-.4-2.57,1.38,1.38,0,0,0-1.32-1,1.58,1.58,0,0,0-1.47,1.06,5.77,5.77,0,0,0-.5,2.56Zm7,4.37h.8a.42.42,0,0,0,.32-.1.46.46,0,0,0,.1-.32V76a.46.46,0,0,0-.1-.32.42.42,0,0,0-.32-.1h-.8v-.45H82V77l.08,0a4.15,4.15,0,0,1,1-1.57,2,2,0,0,1,1.36-.58,1.63,1.63,0,0,1,1.17.42,1.44,1.44,0,0,1,.46,1.14,1.36,1.36,0,0,1-.29.82.91.91,0,0,1-.75.4,1,1,0,0,1-.61-.19.64.64,0,0,1-.25-.54.85.85,0,0,1,.38-.68,1.71,1.71,0,0,0,.26-.21.33.33,0,0,0,.08-.25.3.3,0,0,0-.16-.27.79.79,0,0,0-.45-.1,1.55,1.55,0,0,0-1.13.56,4.08,4.08,0,0,0-.86,1.48,5.63,5.63,0,0,0-.33,1.9v3.54a.46.46,0,0,0,.1.32.4.4,0,0,0,.33.1h.8v.46h-3.8Zm11.6,0h.8a.42.42,0,0,0,.32-.1.46.46,0,0,0,.1-.32V76a.46.46,0,0,0-.1-.32.42.42,0,0,0-.32-.1H91v-.45h2.58v1.56l.08,0a3.43,3.43,0,0,1,1.08-1.36,2.45,2.45,0,0,1,1.43-.45,2.19,2.19,0,0,1,2,.86,3.55,3.55,0,0,1,.58,2v5.12a.36.36,0,0,0,.42.42h.8v.45h-3.8v-.46h.8a.44.44,0,0,0,.33-.1.46.46,0,0,0,.1-.32V77.45A2.85,2.85,0,0,0,97,76a1.2,1.2,0,0,0-1.13-.59,1.77,1.77,0,0,0-1.19.47,3.24,3.24,0,0,0-.82,1.27,5.26,5.26,0,0,0-.29,1.8v4a.46.46,0,0,0,.1.32.39.39,0,0,0,.32.1h.8v.45H91Zm15.86-10.58a1,1,0,0,1-1-1,.94.94,0,0,1,1-1,.93.93,0,0,1,1,1,.94.94,0,0,1-1,1Zm-1.79,10.58h.8a.46.46,0,0,0,.32-.1.4.4,0,0,0,.1-.33V76a.38.38,0,0,0-.1-.32.41.41,0,0,0-.32-.1h-.8v-.45h2.59v7.8a.41.41,0,0,0,.1.32.42.42,0,0,0,.32.1h.8v.45h-3.81Zm8.94,0h.8a.37.37,0,0,0,.43-.43V76a.46.46,0,0,0-.1-.32.44.44,0,0,0-.33-.1H114v-.45h2.59v1.56l.08,0a3.34,3.34,0,0,1,1.08-1.36,2.45,2.45,0,0,1,1.43-.45,2.19,2.19,0,0,1,2,.86,3.55,3.55,0,0,1,.58,2v5.12a.36.36,0,0,0,.42.42h.8v.45h-3.8v-.46h.8a.44.44,0,0,0,.33-.1.46.46,0,0,0,.1-.32V77.45A2.85,2.85,0,0,0,120,76a1.2,1.2,0,0,0-1.13-.59,1.75,1.75,0,0,0-1.19.47,3.24,3.24,0,0,0-.82,1.27,5.26,5.26,0,0,0-.29,1.8v4a.41.41,0,0,0,.1.32.39.39,0,0,0,.32.1h.8v.45H114Zm18.46,5a7,7,0,0,1-2.89-.53,1.76,1.76,0,0,1-1.22-1.67,1.65,1.65,0,0,1,.55-1.24,2.37,2.37,0,0,1,1.31-.65v-.06c-1.11-.24-1.67-.71-1.67-1.4a1.44,1.44,0,0,1,.6-1.23,3.45,3.45,0,0,1,1.47-.6v-.06a3.52,3.52,0,0,1-1.36-1,3.23,3.23,0,0,1-.08-3.51,3,3,0,0,1,1.25-1.08,3.77,3.77,0,0,1,1.66-.37,3.37,3.37,0,0,1,1.09.18,4.89,4.89,0,0,1,.93.42,1.73,1.73,0,0,1,.5.39,1.42,1.42,0,0,1,.56-.74,1.38,1.38,0,0,1,.76-.25,1.52,1.52,0,0,1,1.06.38,1.27,1.27,0,0,1,.42,1,1.15,1.15,0,0,1-.22.74.69.69,0,0,1-.58.29.9.9,0,0,1-.53-.17.58.58,0,0,1-.23-.52.66.66,0,0,1,.32-.61.46.46,0,0,0,.17-.14.34.34,0,0,0,0-.2.25.25,0,0,0-.15-.23.73.73,0,0,0-.36-.07.86.86,0,0,0-.62.27,1.11,1.11,0,0,0-.31.64,2.89,2.89,0,0,1,.53,1.75,2.94,2.94,0,0,1-1.68,2.75,3.83,3.83,0,0,1-1.7.37,5.77,5.77,0,0,0-1.93.3c-.56.19-.85.52-.85,1a.5.5,0,0,0,.33.49,2.24,2.24,0,0,0,.89.13,6,6,0,0,0,.65,0h2.55a3.11,3.11,0,0,1,2,.65,2.35,2.35,0,0,1,.82,1.93,2.27,2.27,0,0,1-1.13,2A5.54,5.54,0,0,1,132.45,88.33Zm-.38-7.65a1.56,1.56,0,0,0,1.37-.7,4.07,4.07,0,0,0,0-3.91,1.69,1.69,0,0,0-2.74,0,4.15,4.15,0,0,0,0,3.91,1.57,1.57,0,0,0,1.37.7Zm.38,7.2a5.64,5.64,0,0,0,2.4-.49,1.68,1.68,0,0,0,1-1.64,1.38,1.38,0,0,0-1.59-1.45h-2.11a5,5,0,0,0-2.11.41,1.4,1.4,0,0,0-.89,1.38,1.45,1.45,0,0,0,1,1.34,5.38,5.38,0,0,0,2.27.44Z" style="fill:#0099d1"/><path id="Path_176" data-name="Path 176" d="M46.83,218.9h2.05a.68.68,0,0,0,.77-.58.6.6,0,0,0,0-.19V201.18a.67.67,0,0,0-.77-.77H46.83v-.91h9.53a9,9,0,0,1,3.55.67,5.54,5.54,0,0,1,2.42,1.88,4.55,4.55,0,0,1,.87,2.76,4.63,4.63,0,0,1-.87,2.8,5.7,5.7,0,0,1-2.42,1.92,8.34,8.34,0,0,1-3.55.7H52.28v7.9a.84.84,0,0,0,.17.59.76.76,0,0,0,.6.18h2.51v.92H46.83Zm9.9-9.59a2.93,2.93,0,0,0,2.5-1.32,5.31,5.31,0,0,0,1-3.18,5.07,5.07,0,0,0-.94-3.13,3,3,0,0,0-2.51-1.27H53.05a.67.67,0,0,0-.77.77v8.13Zm11.5,10.85a4.61,4.61,0,0,1-2.61-.74,2.93,2.93,0,0,1-1.1-2.63,3.25,3.25,0,0,1,.74-2.28A4.37,4.37,0,0,1,67,213.32a16.42,16.42,0,0,1,2.39-.61l2.62-.49V209.8a2.34,2.34,0,0,0-2-2.65,1.83,1.83,0,0,0-.66,0,3.17,3.17,0,0,0-1.77.5,1.37,1.37,0,0,0-.8,1.12.8.8,0,0,0,.09.43.58.58,0,0,0,.18.17,1.08,1.08,0,0,0,.24.12,1.75,1.75,0,0,1,.79.4.92.92,0,0,1,.27.71,1,1,0,0,1-.36.85,1.51,1.51,0,0,1-.9.26,1.62,1.62,0,0,1-1.14-.48,1.83,1.83,0,0,1-.51-1.4A2.94,2.94,0,0,1,66,208a3.75,3.75,0,0,1,1.51-1.16,5,5,0,0,1,1.9-.38,5.47,5.47,0,0,1,3.26,1,3.55,3.55,0,0,1,1.37,3.07v7c0,.95.29,1.43.88,1.43a1.08,1.08,0,0,0,1-.83,5.6,5.6,0,0,0,.31-2h.52a7.31,7.31,0,0,1-.5,2.89,1.8,1.8,0,0,1-1.78,1.17,2.27,2.27,0,0,1-1.84-.73,3.25,3.25,0,0,1-.68-2l-.14-.06a5.63,5.63,0,0,1-1.38,1.9A3.19,3.19,0,0,1,68.23,220.16Zm.45-1a2.35,2.35,0,0,0,2-1,11,11,0,0,0,1.3-2.58v-2.72l-2.49.55a3.14,3.14,0,0,0-2,1.12,4,4,0,0,0-.61,2.39,2.31,2.31,0,0,0,.54,1.78,1.82,1.82,0,0,0,1.22.47Zm9.7,0h1.2a.52.52,0,0,0,.63-.63V208.12a.52.52,0,0,0-.63-.63h-1.2v-.69h3.89v2.86l.11,0a6.45,6.45,0,0,1,1.56-2.36,3,3,0,0,1,2-.87,2.55,2.55,0,0,1,1.77.63,2.25,2.25,0,0,1,.68,1.71A2,2,0,0,1,88,210a1.35,1.35,0,0,1-1.13.6,1.47,1.47,0,0,1-.91-.28.93.93,0,0,1-.37-.8,1.26,1.26,0,0,1,.57-1,2,2,0,0,0,.38-.32.5.5,0,0,0,.13-.37.46.46,0,0,0-.24-.41,1.23,1.23,0,0,0-.67-.16,2.39,2.39,0,0,0-1.7.86,6.08,6.08,0,0,0-1.3,2.22,8.41,8.41,0,0,0-.48,2.85v5.31a.52.52,0,0,0,.63.63h1.2v.68H78.39Zm15.64,1a4.66,4.66,0,0,1-2.61-.74,3,3,0,0,1-1.1-2.63,3.3,3.3,0,0,1,.74-2.28,4.34,4.34,0,0,1,1.73-1.19,16.42,16.42,0,0,1,2.39-.61l2.62-.49V209.8a2.34,2.34,0,0,0-2-2.65,1.83,1.83,0,0,0-.66,0,3.17,3.17,0,0,0-1.77.5,1.37,1.37,0,0,0-.8,1.12.8.8,0,0,0,.09.43.58.58,0,0,0,.18.17,1.08,1.08,0,0,0,.24.12,1.75,1.75,0,0,1,.79.4.92.92,0,0,1,.27.71,1,1,0,0,1-.36.85,1.51,1.51,0,0,1-.9.26,1.62,1.62,0,0,1-1.14-.48,1.83,1.83,0,0,1-.51-1.4,2.94,2.94,0,0,1,.58-1.83,3.75,3.75,0,0,1,1.51-1.16,5,5,0,0,1,1.9-.38,5.47,5.47,0,0,1,3.26,1,3.55,3.55,0,0,1,1.37,3.07v7c0,.95.29,1.43.88,1.43a1.08,1.08,0,0,0,1-.83,5.8,5.8,0,0,0,.31-2h.51a7.29,7.29,0,0,1-.5,2.88,1.79,1.79,0,0,1-1.78,1.17,2.28,2.28,0,0,1-1.84-.73,3.24,3.24,0,0,1-.67-2l-.14-.06a5.91,5.91,0,0,1-1.38,1.9A3.19,3.19,0,0,1,94,220.16Zm.46-1a2.33,2.33,0,0,0,2-1,10.59,10.59,0,0,0,1.3-2.58v-2.72l-2.48.55a3.09,3.09,0,0,0-2,1.12,4,4,0,0,0-.62,2.39,2.35,2.35,0,0,0,.54,1.78,1.87,1.87,0,0,0,1.23.47Zm16.26,7.48a10.88,10.88,0,0,1-4.33-.8,2.65,2.65,0,0,1-1.83-2.52,2.48,2.48,0,0,1,.83-1.85,3.54,3.54,0,0,1,2-1v-.08c-1.68-.37-2.51-1.07-2.51-2.12a2.17,2.17,0,0,1,.9-1.84,5.06,5.06,0,0,1,2.21-.9v-.08a5.22,5.22,0,0,1-2-1.56,4.24,4.24,0,0,1-.84-2.75,4.29,4.29,0,0,1,.71-2.51,4.63,4.63,0,0,1,1.87-1.61,5.54,5.54,0,0,1,2.5-.56,5.08,5.08,0,0,1,1.64.27,7.05,7.05,0,0,1,1.4.63,3.07,3.07,0,0,1,.76.58,2.12,2.12,0,0,1,.82-1.11,2.14,2.14,0,0,1,1.14-.37,2.28,2.28,0,0,1,1.6.57,1.91,1.91,0,0,1,.63,1.49,1.77,1.77,0,0,1-.33,1.11,1,1,0,0,1-.87.43,1.4,1.4,0,0,1-.8-.24.9.9,0,0,1-.34-.79,1,1,0,0,1,.48-.91.84.84,0,0,0,.24-.22.45.45,0,0,0,.07-.3.35.35,0,0,0-.22-.34,1.15,1.15,0,0,0-.55-.11,1.25,1.25,0,0,0-.92.41,1.54,1.54,0,0,0-.47,1,4.36,4.36,0,0,1,.8,2.62,4.5,4.5,0,0,1-.69,2.5,4.4,4.4,0,0,1-1.84,1.63,5.64,5.64,0,0,1-2.55.55,8.88,8.88,0,0,0-2.9.45c-.85.29-1.27.78-1.27,1.47a.74.74,0,0,0,.48.74,3.61,3.61,0,0,0,1.34.2c.4,0,.73,0,1,0s.53,0,.89,0h2.94a4.72,4.72,0,0,1,3.05,1,3.51,3.51,0,0,1,1.23,2.9,3.4,3.4,0,0,1-1.7,3.06A8.39,8.39,0,0,1,110.74,226.61Zm-.57-11.47a2.42,2.42,0,0,0,2.06-1.06,6.21,6.21,0,0,0,0-5.88,2.39,2.39,0,0,0-2.06-1,2.36,2.36,0,0,0-2,1,6.21,6.21,0,0,0,0,5.88A2.39,2.39,0,0,0,110.17,215.14Zm.57,10.78a8.26,8.26,0,0,0,3.6-.73,2.51,2.51,0,0,0,1.54-2.46,2,2,0,0,0-2.37-2.17h-3.17a7.48,7.48,0,0,0-3.16.61,2.09,2.09,0,0,0-1.34,2.07,2.15,2.15,0,0,0,1.51,2,8.24,8.24,0,0,0,3.39.67Zm8.85-6.79h1.2a.64.64,0,0,0,.48-.14.67.67,0,0,0,.15-.49V208.12a.67.67,0,0,0-.15-.49.64.64,0,0,0-.48-.14h-1.2v-.69h3.88v2.86l.11,0a6.45,6.45,0,0,1,1.56-2.36,3,3,0,0,1,2-.87,2.55,2.55,0,0,1,1.77.63,2.25,2.25,0,0,1,.68,1.71,2,2,0,0,1-.44,1.23,1.35,1.35,0,0,1-1.13.6,1.47,1.47,0,0,1-.91-.28.93.93,0,0,1-.37-.8,1.26,1.26,0,0,1,.57-1,2,2,0,0,0,.38-.32.5.5,0,0,0,.13-.37.46.46,0,0,0-.24-.41,1.23,1.23,0,0,0-.67-.16,2.39,2.39,0,0,0-1.7.86,6.08,6.08,0,0,0-1.3,2.22,8.41,8.41,0,0,0-.48,2.85v5.31a.52.52,0,0,0,.63.63h1.2v.68h-5.71Zm15.64,1a4.67,4.67,0,0,1-2.62-.74,3,3,0,0,1-1.1-2.63,3.31,3.31,0,0,1,.75-2.28,4.3,4.3,0,0,1,1.72-1.19,16.42,16.42,0,0,1,2.39-.61l2.62-.49V209.8a2.34,2.34,0,0,0-2-2.65,1.83,1.83,0,0,0-.66,0,3.17,3.17,0,0,0-1.77.5,1.37,1.37,0,0,0-.8,1.12.8.8,0,0,0,.09.43.58.58,0,0,0,.18.17,1.08,1.08,0,0,0,.24.12,1.75,1.75,0,0,1,.79.4.92.92,0,0,1,.27.71,1,1,0,0,1-.36.85,1.51,1.51,0,0,1-.9.26,1.62,1.62,0,0,1-1.14-.48,1.83,1.83,0,0,1-.51-1.4A2.94,2.94,0,0,1,133,208a3.75,3.75,0,0,1,1.51-1.16,5,5,0,0,1,1.9-.38,5.47,5.47,0,0,1,3.26,1,3.55,3.55,0,0,1,1.37,3.07v7c0,.95.29,1.43.88,1.43a1.08,1.08,0,0,0,1-.83,5.8,5.8,0,0,0,.31-2h.51a7.29,7.29,0,0,1-.5,2.88,1.79,1.79,0,0,1-1.78,1.17,2.28,2.28,0,0,1-1.84-.73,3.31,3.31,0,0,1-.67-2l-.14-.06a5.77,5.77,0,0,1-1.38,1.9A3.19,3.19,0,0,1,135.23,220.16Zm.45-1a2.33,2.33,0,0,0,2-1,10.59,10.59,0,0,0,1.3-2.58v-2.72l-2.48.55a3.12,3.12,0,0,0-2,1.12,4,4,0,0,0-.61,2.39,2.27,2.27,0,0,0,.54,1.78,1.82,1.82,0,0,0,1.22.47Zm9.42,6.56h1.48a.66.66,0,0,0,.49-.14.64.64,0,0,0,.14-.48V208.12a.52.52,0,0,0-.63-.63H145.1v-.69h4.17v2.11l.11,0a5,5,0,0,1,1.39-1.81,3,3,0,0,1,1.92-.67,4,4,0,0,1,2.5.9,6.16,6.16,0,0,1,1.84,2.47,9.12,9.12,0,0,1,0,7,6.16,6.16,0,0,1-1.84,2.47,4,4,0,0,1-2.5.9,3.06,3.06,0,0,1-2-.73,4.52,4.52,0,0,1-1.31-1.75l-.12,0v7.36a.72.72,0,0,0,.15.49.64.64,0,0,0,.48.14h1.49v.69H145.1Zm7.27-6.33a2.28,2.28,0,0,0,2.12-1.57,14.49,14.49,0,0,0,0-9,2.28,2.28,0,0,0-2.12-1.57,2.32,2.32,0,0,0-1.56.63,4.2,4.2,0,0,0-1.13,1.72,7,7,0,0,0-.42,2.39v2.62a7,7,0,0,0,.42,2.39,4.14,4.14,0,0,0,1.13,1.72A2.32,2.32,0,0,0,152.37,219.36Zm7.5-.23h1.6a.52.52,0,0,0,.63-.63V200.81a.64.64,0,0,0-.14-.48.72.72,0,0,0-.49-.15h-1.6v-.68h4.28v9.64l.12,0a5,5,0,0,1,1.62-2,3.74,3.74,0,0,1,2.14-.67,3.32,3.32,0,0,1,3,1.28,5.37,5.37,0,0,1,.87,3.09v7.67a.52.52,0,0,0,.63.63h1.2v.69H168v-.69h1.2a.64.64,0,0,0,.48-.14.72.72,0,0,0,.15-.49v-8.22a4.32,4.32,0,0,0-.5-2.14,1.8,1.8,0,0,0-1.7-.88,2.65,2.65,0,0,0-1.79.7,4.61,4.61,0,0,0-1.22,1.91,7.77,7.77,0,0,0-.45,2.7v5.94a.69.69,0,0,0,.15.48.64.64,0,0,0,.48.14H166v.69h-6.1Z" style="fill:#258abf"/></g></svg>
