<svg xmlns="http://www.w3.org/2000/svg" xmlns:xlink="http://www.w3.org/1999/xlink" width="302" height="411" viewBox="0 0 302 411">
  <defs>
    <clipPath id="clip-Oldstandard2">
      <rect width="302" height="411"/>
    </clipPath>
  </defs>
  <g id="Oldstandard2" clip-path="url(#clip-Oldstandard2)">
    <g id="Group_77" data-name="Group 77" transform="translate(11837 2568)">
      <path id="Path_195" data-name="Path 195" d="M10.592,41.192h4.432a1.386,1.386,0,0,0,1.053-.311,1.565,1.565,0,0,0,.277-1.045V6.5A1.821,1.821,0,0,0,15.8,5.089a2.126,2.126,0,0,0-1.5-.509q-2.6,0-4.764,2.91A20.063,20.063,0,0,0,6.326,14.3a33.326,33.326,0,0,0-.859,3.531q-.249,1.441-.3,1.78H3.39L3.833,2.772h33.24l.443,16.837H35.743q-.055-.339-.3-1.78A33.325,33.325,0,0,0,34.58,14.3,20.063,20.063,0,0,0,31.367,7.49Q29.206,4.58,26.6,4.58a2.126,2.126,0,0,0-1.5.509A1.821,1.821,0,0,0,24.553,6.5V39.836a1.464,1.464,0,0,0,.3,1.045,1.4,1.4,0,0,0,1.025.311h4.432V43H10.592Zm41.439,0h3.546a1.386,1.386,0,0,0,1.053-.311,1.565,1.565,0,0,0,.277-1.045V27.8L47.488,7.066A5.142,5.142,0,0,0,46.1,5.117a3.073,3.073,0,0,0-1.884-.537H42.28V2.772h17.4V4.58H58.125a1.317,1.317,0,0,0-1.163.565,2.15,2.15,0,0,0-.388,1.243,3.553,3.553,0,0,0,.332,1.582l7.313,16.215,5.1-12.938a8.318,8.318,0,0,0,.776-3.221,4.129,4.129,0,0,0-.72-2.4A2.564,2.564,0,0,0,67.1,4.58H65.548V2.772H79.287V4.58H77.625A4.3,4.3,0,0,0,74.5,5.795,8.174,8.174,0,0,0,72.584,8.7L65.105,27.293V39.836a1.464,1.464,0,0,0,.3,1.045,1.4,1.4,0,0,0,1.025.311H69.98V43H52.031Zm31.91,0h3.878a1.386,1.386,0,0,0,1.053-.311,1.565,1.565,0,0,0,.277-1.045V5.936a1.551,1.551,0,0,0-.277-1.074,1.479,1.479,0,0,0-1.053-.283H83.941V2.772h19.722a16.979,16.979,0,0,1,6.9,1.328,11.02,11.02,0,0,1,4.709,3.729,9.244,9.244,0,0,1,1.69,5.452,9.463,9.463,0,0,1-1.69,5.537,11.329,11.329,0,0,1-4.709,3.814,16.378,16.378,0,0,1-6.9,1.384H97.348v15.82a1.464,1.464,0,0,0,.3,1.045,1.4,1.4,0,0,0,1.025.311h4.875V43H83.941Zm18.891-18.984a4.188,4.188,0,0,0,4.072-2.373,14.826,14.826,0,0,0,1.191-6.554,14.4,14.4,0,0,0-1.163-6.413,4.2,4.2,0,0,0-4.1-2.288H98.677a1.492,1.492,0,0,0-1.025.283,1.451,1.451,0,0,0-.3,1.074V22.208Zm36.841,21.809a12.8,12.8,0,0,1-8.061-2.994,21.221,21.221,0,0,1-6.066-7.882,24.285,24.285,0,0,1,0-20.51,21.221,21.221,0,0,1,6.066-7.882,12.346,12.346,0,0,1,16.121,0,21.221,21.221,0,0,1,6.066,7.882,24.284,24.284,0,0,1,0,20.51,21.221,21.221,0,0,1-6.066,7.882A12.8,12.8,0,0,1,139.673,44.017Zm0-1.808a5.982,5.982,0,0,0,5.18-2.514q1.8-2.514,1.8-8.334V14.411q0-5.82-1.8-8.334a6.593,6.593,0,0,0-10.36,0q-1.8,2.514-1.8,8.334v16.95q0,5.819,1.8,8.334A5.982,5.982,0,0,0,139.673,42.209Zm38.558,1.808A12.591,12.591,0,0,1,170,41.135a18.328,18.328,0,0,1-5.4-7.712,28.761,28.761,0,0,1-1.884-10.537,26.147,26.147,0,0,1,2.105-10.509A19.035,19.035,0,0,1,170.7,4.636a13.679,13.679,0,0,1,8.532-2.882,10.97,10.97,0,0,1,4.127.706,20.3,20.3,0,0,1,3.739,2.062,4.107,4.107,0,0,0,1.884.847q.72,0,1.219-1.073l.942-2.09h1.828V18.479H191.25q-1.939-7.175-4.958-11.046t-7.063-3.87a6.127,6.127,0,0,0-5.235,2.514q-1.856,2.514-1.856,8.334v16.95q0,10.848,6.094,10.848a5.6,5.6,0,0,0,4.709-2.486,9.557,9.557,0,0,0,1.828-5.819v-7.74a1.551,1.551,0,0,0-.277-1.073,1.479,1.479,0,0,0-1.053-.282h-4.875V23h18.393v1.808H194.3a1.492,1.492,0,0,0-1.025.282,1.451,1.451,0,0,0-.3,1.073V43.735h-1.773l-1.33-5.142a2.917,2.917,0,0,0-.5-.989,1.017,1.017,0,0,0-.831-.424,2.045,2.045,0,0,0-1.717,1.187,16.124,16.124,0,0,1-3.6,3.9A7.834,7.834,0,0,1,178.231,44.017Zm53.461.339a7.461,7.461,0,0,1-5.623-2.147q-2.077-2.147-2.077-6.328V28.875a7.8,7.8,0,0,0-1.3-4.576,4.563,4.563,0,0,0-4.016-1.865h-3.1v17.4a1.464,1.464,0,0,0,.3,1.045,1.4,1.4,0,0,0,1.025.311h4.875V43H202.164V41.192h3.878a1.386,1.386,0,0,0,1.053-.311,1.565,1.565,0,0,0,.277-1.045V5.936a1.551,1.551,0,0,0-.277-1.074,1.479,1.479,0,0,0-1.053-.283h-3.878V2.772h17.949q5.983,0,9.64,2.684a8.54,8.54,0,0,1,3.656,7.26,7.493,7.493,0,0,1-2.8,6.159,14.3,14.3,0,0,1-7.4,2.825v.4a12.187,12.187,0,0,1,6.648,3.136q2.327,2.345,2.327,7.317v6.271q0,2.373,1.551,2.373,1.44,0,2.105-2.43a22.778,22.778,0,0,0,.665-5.932h1.773a20.226,20.226,0,0,1-1.44,8.5A5.214,5.214,0,0,1,231.692,44.356Zm-12.41-23.73a4.233,4.233,0,0,0,4.1-2.2,13.372,13.372,0,0,0,1.163-6.159A11.34,11.34,0,0,0,223.382,6.5q-1.163-1.921-4.1-1.921H216.9a1.492,1.492,0,0,0-1.025.283,1.451,1.451,0,0,0-.3,1.074v14.69Zm22.326,20.566h1.884a3.959,3.959,0,0,0,2.936-1.328,8.748,8.748,0,0,0,1.939-3.249L260.056,1.755h2.327l11.855,36.556q.942,2.882,3.269,2.882h2.216V43H260.278V41.192h3.989a1.3,1.3,0,0,0,1.08-.537,2.016,2.016,0,0,0,.415-1.271,5.583,5.583,0,0,0-.332-1.639l-1.773-5.424H252.023l-1.163,3.446a8.1,8.1,0,0,0-.609,2.882,2.382,2.382,0,0,0,.8,1.78,2.894,2.894,0,0,0,2.077.763h2.6V43H241.608Zm11.135-10.961h10.249l-5.041-15.537Zm31.633,10.961h3.878a1.386,1.386,0,0,0,1.053-.311,1.565,1.565,0,0,0,.277-1.045V5.936a1.551,1.551,0,0,0-.277-1.074,1.479,1.479,0,0,0-1.053-.283h-3.878V2.772H304.1A16.979,16.979,0,0,1,311,4.1a11.02,11.02,0,0,1,4.709,3.729,9.244,9.244,0,0,1,1.69,5.452,9.463,9.463,0,0,1-1.69,5.537A11.329,11.329,0,0,1,311,22.632a16.378,16.378,0,0,1-6.9,1.384h-6.316v15.82a1.464,1.464,0,0,0,.3,1.045,1.4,1.4,0,0,0,1.025.311h4.875V43H284.377Zm18.891-18.984a4.188,4.188,0,0,0,4.072-2.373,14.826,14.826,0,0,0,1.191-6.554,14.4,14.4,0,0,0-1.163-6.413,4.2,4.2,0,0,0-4.1-2.288h-4.155a1.492,1.492,0,0,0-1.025.283,1.451,1.451,0,0,0-.3,1.074V22.208Zm20,18.984h3.878a1.386,1.386,0,0,0,1.053-.311,1.565,1.565,0,0,0,.277-1.045V5.936a1.551,1.551,0,0,0-.277-1.074,1.479,1.479,0,0,0-1.053-.283h-3.878V2.772h18.614V4.58H338a1.492,1.492,0,0,0-1.025.283,1.451,1.451,0,0,0-.3,1.074V20.852h13.074V5.936a1.551,1.551,0,0,0-.277-1.074,1.479,1.479,0,0,0-1.053-.283H344.43V2.772h18.725V4.58h-3.878a1.492,1.492,0,0,0-1.025.283,1.451,1.451,0,0,0-.3,1.074v33.9a1.464,1.464,0,0,0,.3,1.045,1.4,1.4,0,0,0,1.025.311h3.878V43H344.541V41.192h3.878a1.386,1.386,0,0,0,1.053-.311,1.565,1.565,0,0,0,.277-1.045V22.886H336.674v16.95a1.464,1.464,0,0,0,.3,1.045,1.4,1.4,0,0,0,1.025.311h3.878V43H323.267Zm54.513,0h3.546a1.386,1.386,0,0,0,1.053-.311,1.565,1.565,0,0,0,.277-1.045V27.8L373.238,7.066a5.142,5.142,0,0,0-1.385-1.949,3.073,3.073,0,0,0-1.884-.537H368.03V2.772h17.4V4.58h-1.551a1.317,1.317,0,0,0-1.163.565,2.149,2.149,0,0,0-.388,1.243,3.553,3.553,0,0,0,.332,1.582l7.313,16.215,5.1-12.938a8.318,8.318,0,0,0,.776-3.221,4.13,4.13,0,0,0-.72-2.4,2.564,2.564,0,0,0-2.271-1.045H391.3V2.772h13.739V4.58h-1.662a4.3,4.3,0,0,0-3.13,1.215,8.174,8.174,0,0,0-1.911,2.91l-7.479,18.588V39.836a1.464,1.464,0,0,0,.3,1.045,1.4,1.4,0,0,0,1.025.311h3.546V43H377.78Z" transform="translate(-11762 -2566) rotate(90)" fill="#094c84"/>
      <path id="Path_158" data-name="Path 158" d="M13.32.666A9.082,9.082,0,0,1,7.456-1.276,11.861,11.861,0,0,1,3.811-6.383,18.692,18.692,0,0,1,2.59-13.172a18.509,18.509,0,0,1,1.258-6.9,12.007,12.007,0,0,1,3.608-5.051A8.514,8.514,0,0,1,12.95-27.01a6.81,6.81,0,0,1,2.535.463,12.676,12.676,0,0,1,2.46,1.35,2.771,2.771,0,0,0,1.258.555.692.692,0,0,0,.481-.166,1.433,1.433,0,0,0,.333-.537l.666-1.369H21.9v11.359H20.72a18.16,18.16,0,0,0-2.941-7.622q-2.091-2.849-4.828-2.849a3.434,3.434,0,0,0-2.9,1.7q-1.165,1.7-1.165,5.4v11.1q0,3.663,1.313,5.384A3.851,3.851,0,0,0,13.32-.518a6.982,6.982,0,0,0,6.549-4.033,15.165,15.165,0,0,0,1.443-5.624h1.332a20.235,20.235,0,0,1-.5,3.275,12.558,12.558,0,0,1-1.018,2.867A8.683,8.683,0,0,1,18-.573,8.637,8.637,0,0,1,13.32.666ZM29.082-.888h2.072a.648.648,0,0,0,.462-.13.648.648,0,0,0,.129-.462V-24.864a.648.648,0,0,0-.129-.462.648.648,0,0,0-.462-.13H29.082v-.888h6.956v12.1l.185.037a7.46,7.46,0,0,1,1.906-2.757,3.959,3.959,0,0,1,2.682-1.017,5.482,5.482,0,0,1,1.591.2,4.566,4.566,0,0,1,1.258.611,4.513,4.513,0,0,1,1.462,1.85,5.856,5.856,0,0,1,.536,2.442v11.4a.648.648,0,0,0,.129.462.648.648,0,0,0,.463.13h1.406V0H39.59V-.888h1.184a.648.648,0,0,0,.462-.13.648.648,0,0,0,.13-.462V-13.949q0-2.849-1.7-2.849a2.284,2.284,0,0,0-1.628,1.036,8.626,8.626,0,0,0-1.425,2.738A11.281,11.281,0,0,0,36.038-9.4V-1.48a.648.648,0,0,0,.129.462.648.648,0,0,0,.463.13h1.184V0H29.082ZM59.126.444a5.873,5.873,0,0,1-3.459-1,3.823,3.823,0,0,1-1.424-3.367A4.57,4.57,0,0,1,56-7.714a14.976,14.976,0,0,1,4.458-2.312l2.738-.962v-2.516a3.99,3.99,0,0,0-.777-2.738,2.583,2.583,0,0,0-2-.851,3.38,3.38,0,0,0-1.794.462,1.429,1.429,0,0,0-.759,1.277,1.458,1.458,0,0,0,.13.536,1.194,1.194,0,0,0,.462.536,2.394,2.394,0,0,1,.8.7,1.738,1.738,0,0,1,.241.962,1.654,1.654,0,0,1-.648,1.387,2.28,2.28,0,0,1-1.424.5,2.311,2.311,0,0,1-1.646-.648,2.45,2.45,0,0,1-.684-1.868,3.951,3.951,0,0,1,.851-2.5,5.444,5.444,0,0,1,2.183-1.665,6.773,6.773,0,0,1,2.7-.573,7.822,7.822,0,0,1,4.662,1.425,5.183,5.183,0,0,1,2,4.532v9.361q0,1.332.74,1.332.666,0,1-1.11A8.9,8.9,0,0,0,69.56-5H70.6a7.471,7.471,0,0,1-.814,3.959A3.011,3.011,0,0,1,68.635.037a3.474,3.474,0,0,1-1.7.407,4.56,4.56,0,0,1-2.294-.463,3.466,3.466,0,0,1-1.295-1.536H63.27A4.861,4.861,0,0,1,59.126.444Zm1.813-1.48A2.493,2.493,0,0,0,63.2-2.664V-9.99l-2.072.74A3.086,3.086,0,0,0,59.33-7.567a7.984,7.984,0,0,0-.574,3.312,3.663,3.663,0,0,0,.666,2.516A2.04,2.04,0,0,0,60.939-1.036Zm15.577.148h1.406a.648.648,0,0,0,.463-.13.648.648,0,0,0,.129-.462V-16.058a.648.648,0,0,0-.129-.463.648.648,0,0,0-.463-.129H76.516v-.888h6.29v3.663l.185.037a8.533,8.533,0,0,1,1.683-2.923A3.211,3.211,0,0,1,87.1-17.982a2.783,2.783,0,0,1,2.183.962,3.549,3.549,0,0,1,.851,2.442,3.667,3.667,0,0,1-.777,2.349,2.367,2.367,0,0,1-1.924.981,2.507,2.507,0,0,1-1.7-.611,1.91,1.91,0,0,1-.7-1.5,3.069,3.069,0,0,1,.888-1.924,1.739,1.739,0,0,0,.518-.851q0-.37-.407-.37-.74,0-1.5,1.073a9.043,9.043,0,0,0-1.24,2.812,13.824,13.824,0,0,0-.481,3.7V-1.48a.648.648,0,0,0,.13.462.648.648,0,0,0,.463.13h1.184V0H76.516ZM101.38.444a5.873,5.873,0,0,1-3.459-1A3.823,3.823,0,0,1,96.5-3.922a4.57,4.57,0,0,1,1.757-3.793,14.976,14.976,0,0,1,4.458-2.312l2.738-.962v-2.516a3.99,3.99,0,0,0-.777-2.738,2.583,2.583,0,0,0-2-.851,3.38,3.38,0,0,0-1.794.462,1.429,1.429,0,0,0-.758,1.277,1.458,1.458,0,0,0,.129.536,1.194,1.194,0,0,0,.463.536,2.394,2.394,0,0,1,.8.7,1.738,1.738,0,0,1,.241.962,1.654,1.654,0,0,1-.647,1.387,2.28,2.28,0,0,1-1.424.5,2.311,2.311,0,0,1-1.646-.648,2.45,2.45,0,0,1-.685-1.868,3.951,3.951,0,0,1,.851-2.5,5.444,5.444,0,0,1,2.183-1.665,6.773,6.773,0,0,1,2.7-.573,7.822,7.822,0,0,1,4.662,1.425,5.183,5.183,0,0,1,2,4.532v9.361q0,1.332.74,1.332.666,0,1-1.11A8.9,8.9,0,0,0,111.814-5h1.036a7.471,7.471,0,0,1-.814,3.959A3.011,3.011,0,0,1,110.889.037a3.474,3.474,0,0,1-1.7.407,4.56,4.56,0,0,1-2.294-.463A3.466,3.466,0,0,1,105.6-1.554h-.074A4.861,4.861,0,0,1,101.38.444Zm1.813-1.48a2.493,2.493,0,0,0,2.257-1.628V-9.99l-2.072.74a3.086,3.086,0,0,0-1.795,1.683,7.984,7.984,0,0,0-.573,3.312,3.663,3.663,0,0,0,.666,2.516A2.04,2.04,0,0,0,103.193-1.036ZM126.947.444A7.021,7.021,0,0,1,122.858-.8a8.285,8.285,0,0,1-2.793-3.349,10.665,10.665,0,0,1-1-4.625,10.835,10.835,0,0,1,.98-4.625,8.149,8.149,0,0,1,2.775-3.349,6.961,6.961,0,0,1,4.051-1.24,5.586,5.586,0,0,1,2.979.74,4.778,4.778,0,0,1,1.794,1.887,5.1,5.1,0,0,1,.592,2.368,3.507,3.507,0,0,1-.814,2.313,2.469,2.469,0,0,1-1.961.981,2.022,2.022,0,0,1-1.406-.5,1.726,1.726,0,0,1-.555-1.351,2.633,2.633,0,0,1,1.184-1.961,2.041,2.041,0,0,0,.888-1.517A2.1,2.1,0,0,0,129-16.447a2.33,2.33,0,0,0-1.832-.647q-1.739,0-2.553,2.2a18.284,18.284,0,0,0-.814,6.123q0,1.961.074,3.053a10.662,10.662,0,0,0,.333,2.053,4.058,4.058,0,0,0,1.277,2.183,3.266,3.266,0,0,0,2.2.814,3.41,3.41,0,0,0,2.923-1.591,7.816,7.816,0,0,0,1.332-3.737h.962a8.635,8.635,0,0,1-1.665,4.5A5.006,5.006,0,0,1,126.947.444Zm19.2,0a5.058,5.058,0,0,1-3.607-1.2,4.426,4.426,0,0,1-1.276-3.386V-16.5h-2.22v-1.036a5.261,5.261,0,0,0,3.459-1.813,5.941,5.941,0,0,0,1.277-3.959v-1.332h1.776v7.1h3.774V-16.5h-3.774V-3.885a4.837,4.837,0,0,0,.333,1.961,1.345,1.345,0,0,0,1.369.74q1.554,0,2.072-2.128a20.127,20.127,0,0,0,.518-4.754h1.036a25.237,25.237,0,0,1-.277,3.885,7.52,7.52,0,0,1-.87,2.738A3.95,3.95,0,0,1,146.15.444Zm18.981,0A7.021,7.021,0,0,1,161.042-.8a8.285,8.285,0,0,1-2.794-3.349,10.665,10.665,0,0,1-1-4.625,10.839,10.839,0,0,1,1-4.7,8.239,8.239,0,0,1,2.72-3.312,6.419,6.419,0,0,1,3.755-1.2,5.334,5.334,0,0,1,3.885,1.61,7.945,7.945,0,0,1,2.146,4.236,19.013,19.013,0,0,1,.259,3.7h-9.028q0,1.776.074,2.793a10.536,10.536,0,0,0,.333,1.98,4.058,4.058,0,0,0,1.276,2.183,3.266,3.266,0,0,0,2.2.814,3.41,3.41,0,0,0,2.923-1.591,7.816,7.816,0,0,0,1.332-3.737h.962a8.635,8.635,0,0,1-1.665,4.5A5.006,5.006,0,0,1,165.131.444Zm1.591-9.916a24.185,24.185,0,0,0-.5-5.753q-.5-1.868-1.868-1.868t-1.868,1.868a24.184,24.184,0,0,0-.5,5.753Zm11.4,8.584h1.406a.648.648,0,0,0,.462-.13.648.648,0,0,0,.13-.462V-16.058a.648.648,0,0,0-.13-.463.648.648,0,0,0-.462-.129h-1.406v-.888h6.29v3.663l.185.037a8.533,8.533,0,0,1,1.684-2.923,3.211,3.211,0,0,1,2.423-1.221,2.783,2.783,0,0,1,2.183.962,3.549,3.549,0,0,1,.851,2.442,3.667,3.667,0,0,1-.777,2.349,2.367,2.367,0,0,1-1.924.981,2.507,2.507,0,0,1-1.7-.611,1.91,1.91,0,0,1-.7-1.5,3.069,3.069,0,0,1,.888-1.924,1.739,1.739,0,0,0,.518-.851q0-.37-.407-.37-.74,0-1.5,1.073a9.043,9.043,0,0,0-1.239,2.812,13.824,13.824,0,0,0-.481,3.7V-1.48a.648.648,0,0,0,.13.462.648.648,0,0,0,.462.13h1.184V0h-8.066Z" transform="translate(-11759 -2284)" fill="#17599b"/>
      <path id="Path_173" data-name="Path 173" d="M24.57,1.26A13.77,13.77,0,0,1,18.8-.035,28.008,28.008,0,0,1,13.86-2.87q-2.94-2.24-3.5-2.24-1.4,0-1.82,3.01L8.26.7H6.65L6.16-21.42H7.84a25.516,25.516,0,0,0,2.905,9.905,23.257,23.257,0,0,0,6.195,7.63,12.266,12.266,0,0,0,7.63,2.9q5.74,0,8.365-2.8A9.479,9.479,0,0,0,35.56-10.5a7.211,7.211,0,0,0-2-5.39,17.658,17.658,0,0,0-5.845-3.5L17.08-23.66a18.476,18.476,0,0,1-8.155-5.775A13.865,13.865,0,0,1,6.3-37.94q0-6.72,3.92-9.94a14.929,14.929,0,0,1,9.8-3.22q4.62,0,10.22,4.2a15.312,15.312,0,0,0,1.4.875,2.67,2.67,0,0,0,1.26.385q1.19,0,1.4-1.68l.28-2.52h1.68l.7,18.2H35.28a28.889,28.889,0,0,0-3.535-8.96,19.529,19.529,0,0,0-5.635-6.09,11.75,11.75,0,0,0-6.65-2.17,8.658,8.658,0,0,0-6.44,2.555,9.681,9.681,0,0,0-2.52,7.1,6.969,6.969,0,0,0,1.61,4.9,12.866,12.866,0,0,0,4.76,3.01L30.38-25.9a14.826,14.826,0,0,1,7.035,5.39,13,13,0,0,1,2.345,7.35,15.443,15.443,0,0,1-1.645,7,13.05,13.05,0,0,1-5.04,5.355A16.115,16.115,0,0,1,24.57,1.26ZM57.82.84A6.788,6.788,0,0,1,52.605-1.4,8.636,8.636,0,0,1,50.54-7.49V-29.96H45.36v-1.96H46.9q3.15,0,4.935-3.395A15.919,15.919,0,0,0,53.62-42.84v-2.52h1.96v13.44h8.68v1.96H55.58V-7.14a6.7,6.7,0,0,0,.84,3.5,3.074,3.074,0,0,0,2.87,1.4q4.97,0,4.97-8.4h1.26a21.636,21.636,0,0,1-1.365,8.085Q62.79.84,57.82.84ZM77.28,16.66a6.066,6.066,0,0,1-4.48-1.75,6.144,6.144,0,0,1-1.435-1.995A5.772,5.772,0,0,1,70.84,10.5a4.664,4.664,0,0,1,.315-1.715A3.031,3.031,0,0,1,71.96,7.56a3.282,3.282,0,0,1,2.38-1.05,2.9,2.9,0,0,1,2.415,1.015,3.984,3.984,0,0,1,.8,2.555A4.512,4.512,0,0,1,77,12.04a2.6,2.6,0,0,0-.42,1.33q0,1.05,1.4,1.05a4.511,4.511,0,0,0,3.535-1.645A10.67,10.67,0,0,0,83.65,8.89L85.54,2.8,75.6-26.11A11.937,11.937,0,0,0,73.99-29.3a3.069,3.069,0,0,0-2.52-.945H69.16v-1.68H84.98v1.68H82.74a2.768,2.768,0,0,0-1.54.455,1.4,1.4,0,0,0-.7,1.225,6.527,6.527,0,0,0,.42,2.31L88.2-4.76l5.81-19.18q.28-.84.525-1.89a7.81,7.81,0,0,0,.245-1.68,2.8,2.8,0,0,0-.7-1.96,2.345,2.345,0,0,0-1.82-.77H90.58v-1.68h12.74v1.68h-1.61a4.5,4.5,0,0,0-2.835,1.015A6.4,6.4,0,0,0,96.88-26.11L85.61,9.73a11.249,11.249,0,0,1-2.94,4.76A7.318,7.318,0,0,1,77.28,16.66ZM106.96-1.68h3.64a1.648,1.648,0,0,0,1.19-.35,1.648,1.648,0,0,0,.35-1.19v-43.4a1.648,1.648,0,0,0-.35-1.19,1.648,1.648,0,0,0-1.19-.35h-3.64v-1.68h10.22V-3.22a1.648,1.648,0,0,0,.35,1.19,1.648,1.648,0,0,0,1.19.35h3.64V0h-15.4ZM141.68.84a13.376,13.376,0,0,1-10.465-4.41q-3.955-4.41-3.955-12.25a20.129,20.129,0,0,1,1.75-8.365,15.682,15.682,0,0,1,4.865-6.23,11.3,11.3,0,0,1,6.965-2.345,10.462,10.462,0,0,1,7,2.31,13.123,13.123,0,0,1,3.955,5.845,21.977,21.977,0,0,1,1.225,7.245,1.022,1.022,0,0,1-.49,1.015,4.085,4.085,0,0,1-1.68.245H133.42q0,7,2,11.13A6.774,6.774,0,0,0,141.96-.84a9.118,9.118,0,0,0,6.055-2.45q2.835-2.45,3.6-7.63h1.68a13.554,13.554,0,0,1-3.535,8.435A10.574,10.574,0,0,1,141.68.84ZM147-17.78a26.619,26.619,0,0,0-1.47-9.45q-1.47-3.85-4.83-3.85-3.57,0-5.425,3.885a21.712,21.712,0,0,0-1.855,9.415Z" transform="translate(-11762 -2513)" fill="#24648d"/>
      <path id="Path_174" data-name="Path 174" d="M4.34-2.24H9.38a1.671,1.671,0,0,0,1.89-1.89V-45.71a1.961,1.961,0,0,0-.455-1.435A1.961,1.961,0,0,0,9.38-47.6H4.34v-2.24H43.4l.28,17.5H41.93a31.71,31.71,0,0,0-.6-4.76,15.849,15.849,0,0,0-2.345-6.02,9.337,9.337,0,0,0-8.26-4.48H19.6a1.961,1.961,0,0,0-1.435.455,1.961,1.961,0,0,0-.455,1.435v18.83H23.1q3.57,0,5.145-3.815A20.8,20.8,0,0,0,29.82-38.71h1.82v25.9H29.82a20.8,20.8,0,0,0-1.575-8.015Q26.67-24.64,23.1-24.64H17.71V-4.55a2.81,2.81,0,0,0,.455,1.68,1.65,1.65,0,0,0,1.435.63h6.16V0H4.34ZM63.14.84a11.988,11.988,0,0,1-7.07-2.275A15.637,15.637,0,0,1,50.995-7.56a19.1,19.1,0,0,1-1.855-8.4,19.1,19.1,0,0,1,1.855-8.4,15.637,15.637,0,0,1,5.075-6.125,11.988,11.988,0,0,1,7.07-2.275,11.988,11.988,0,0,1,7.07,2.275,15.637,15.637,0,0,1,5.075,6.125,19.1,19.1,0,0,1,1.855,8.4,19.1,19.1,0,0,1-1.855,8.4A15.637,15.637,0,0,1,70.21-1.435,11.988,11.988,0,0,1,63.14.84Zm0-1.68a6.2,6.2,0,0,0,6.02-3.955Q70.98-8.75,70.98-15.96T69.16-27.125a6.2,6.2,0,0,0-6.02-3.955,6.2,6.2,0,0,0-6.02,3.955Q55.3-23.17,55.3-15.96T57.12-4.795A6.2,6.2,0,0,0,63.14-.84Zm23.52-.84H89.6a1.648,1.648,0,0,0,1.19-.35,1.648,1.648,0,0,0,.35-1.19V-28.7a1.648,1.648,0,0,0-.35-1.19,1.648,1.648,0,0,0-1.19-.35H86.66v-1.68h9.52v5.74l.28.07a12.413,12.413,0,0,1,3.99-5,9.033,9.033,0,0,1,5.25-1.645q5.11,0,7.245,3.15a13.152,13.152,0,0,1,2.135,7.56V-3.22a1.648,1.648,0,0,0,.35,1.19,1.648,1.648,0,0,0,1.19.35h2.94V0h-14V-1.68h2.94a1.648,1.648,0,0,0,1.19-.35,1.648,1.648,0,0,0,.35-1.19V-23.38a10.525,10.525,0,0,0-1.225-5.25,4.388,4.388,0,0,0-4.165-2.17,6.4,6.4,0,0,0-4.375,1.715,11.333,11.333,0,0,0-3.01,4.69A19.191,19.191,0,0,0,96.18-17.78V-3.22a1.648,1.648,0,0,0,.35,1.19,1.648,1.648,0,0,0,1.19.35h2.94V0h-14ZM139.72.84a6.788,6.788,0,0,1-5.215-2.24,8.636,8.636,0,0,1-2.065-6.09V-29.96h-5.18v-1.96h1.54q3.15,0,4.935-3.395a15.919,15.919,0,0,0,1.785-7.525v-2.52h1.96v13.44h8.68v1.96h-8.68V-7.14a6.7,6.7,0,0,0,.84,3.5,3.074,3.074,0,0,0,2.87,1.4q4.97,0,4.97-8.4h1.26a21.636,21.636,0,0,1-1.365,8.085Q144.69.84,139.72.84Z" transform="translate(-11760 -2162)" fill="#2d7198"/>
      <path id="Path_186" data-name="Path 186" d="M5.265.27A2.951,2.951,0,0,1,4.028-.008,6,6,0,0,1,2.97-.615a2.628,2.628,0,0,0-.75-.48q-.3,0-.39.645l-.06.6H1.425L1.32-4.59h.36A5.468,5.468,0,0,0,2.3-2.467,4.984,4.984,0,0,0,3.63-.832,2.628,2.628,0,0,0,5.265-.21a2.357,2.357,0,0,0,1.792-.6A2.031,2.031,0,0,0,7.62-2.25,1.545,1.545,0,0,0,7.193-3.4a3.784,3.784,0,0,0-1.253-.75L3.66-5.07A3.959,3.959,0,0,1,1.912-6.308,2.971,2.971,0,0,1,1.35-8.13a2.6,2.6,0,0,1,.84-2.13,3.2,3.2,0,0,1,2.1-.69,3.773,3.773,0,0,1,2.19.9,3.281,3.281,0,0,0,.3.187.572.572,0,0,0,.27.083q.255,0,.3-.36l.06-.54h.36l.15,3.9H7.56A6.191,6.191,0,0,0,6.8-8.7a4.185,4.185,0,0,0-1.208-1.305A2.518,2.518,0,0,0,4.17-10.47a1.855,1.855,0,0,0-1.38.548A2.074,2.074,0,0,0,2.25-8.4a1.493,1.493,0,0,0,.345,1.05,2.757,2.757,0,0,0,1.02.645L6.51-5.55A3.177,3.177,0,0,1,8.017-4.395a2.786,2.786,0,0,1,.5,1.575,3.309,3.309,0,0,1-.353,1.5A2.8,2.8,0,0,1,7.088-.172,3.453,3.453,0,0,1,5.265.27ZM9.72,3.09h.78a.353.353,0,0,0,.255-.075.353.353,0,0,0,.075-.255V-6.15a.353.353,0,0,0-.075-.255A.353.353,0,0,0,10.5-6.48H9.72v-.36h2.19v1.11l.06.015a2.638,2.638,0,0,1,.727-.952A1.58,1.58,0,0,1,13.71-7.02a2.1,2.1,0,0,1,1.313.472,3.247,3.247,0,0,1,.967,1.3,4.528,4.528,0,0,1,.36,1.83,4.528,4.528,0,0,1-.36,1.83,3.247,3.247,0,0,1-.967,1.3A2.1,2.1,0,0,1,13.71.18,1.609,1.609,0,0,1,12.66-.2a2.352,2.352,0,0,1-.69-.922l-.06.015V2.76a.353.353,0,0,0,.075.255.353.353,0,0,0,.255.075h.78v.36H9.72ZM13.545-.24a1.2,1.2,0,0,0,1.11-.825A5.866,5.866,0,0,0,15.03-3.42a5.866,5.866,0,0,0-.375-2.355,1.2,1.2,0,0,0-1.11-.825,1.222,1.222,0,0,0-.825.33,2.225,2.225,0,0,0-.592.908A3.525,3.525,0,0,0,11.91-4.11v1.38a3.525,3.525,0,0,0,.218,1.253,2.225,2.225,0,0,0,.592.907A1.222,1.222,0,0,0,13.545-.24ZM19.71.18a2.394,2.394,0,0,1-1.372-.39,1.544,1.544,0,0,1-.577-1.38,1.733,1.733,0,0,1,.39-1.2,2.226,2.226,0,0,1,.907-.623,7.927,7.927,0,0,1,1.253-.322l1.38-.255V-5.265A1.233,1.233,0,0,0,20.3-6.66a1.72,1.72,0,0,0-.93.262.729.729,0,0,0-.42.593.446.446,0,0,0,.045.225.346.346,0,0,0,.1.09.416.416,0,0,0,.128.06.968.968,0,0,1,.412.21.492.492,0,0,1,.143.375.517.517,0,0,1-.187.45.788.788,0,0,1-.472.135.855.855,0,0,1-.6-.255.963.963,0,0,1-.27-.735,1.542,1.542,0,0,1,.308-.96,1.886,1.886,0,0,1,.795-.607,2.578,2.578,0,0,1,1-.2,2.852,2.852,0,0,1,1.71.517,1.851,1.851,0,0,1,.72,1.613V-1.2q0,.75.465.75a.567.567,0,0,0,.54-.435A3.017,3.017,0,0,0,23.94-1.95h.27a3.863,3.863,0,0,1-.262,1.515A.941.941,0,0,1,23.01.18,1.194,1.194,0,0,1,22.042-.2,1.715,1.715,0,0,1,21.69-1.26l-.075-.03a3.012,3.012,0,0,1-.727,1A1.664,1.664,0,0,1,19.71.18Zm.24-.54a1.23,1.23,0,0,0,1.057-.533A5.623,5.623,0,0,0,21.69-2.25V-3.675l-1.3.285a1.641,1.641,0,0,0-1.043.592,2.1,2.1,0,0,0-.322,1.252,1.213,1.213,0,0,0,.285.937A.957.957,0,0,0,19.95-.36Zm8.19.54A2.566,2.566,0,0,1,26.6-.3a3.141,3.141,0,0,1-1.035-1.305A4.41,4.41,0,0,1,25.2-3.42a4.335,4.335,0,0,1,.375-1.815,3.2,3.2,0,0,1,1.043-1.3,2.542,2.542,0,0,1,1.522-.48,2.371,2.371,0,0,1,1.2.293,2.086,2.086,0,0,1,.78.75,1.8,1.8,0,0,1,.27.922,1.038,1.038,0,0,1-.24.727.763.763,0,0,1-.585.263.7.7,0,0,1-.5-.2.623.623,0,0,1-.2-.465.679.679,0,0,1,.15-.45.719.719,0,0,1,.36-.24q.24-.075.24-.27a.731.731,0,0,0-.158-.4,1.332,1.332,0,0,0-.487-.4,1.769,1.769,0,0,0-.825-.172,1.265,1.265,0,0,0-1.282.81,6.65,6.65,0,0,0-.337,2.43,6.789,6.789,0,0,0,.33,2.43,1.263,1.263,0,0,0,1.29.81,1.672,1.672,0,0,0,1.41-.645,3.035,3.035,0,0,0,.6-1.515h.36a3.377,3.377,0,0,1-.315,1.193,2.4,2.4,0,0,1-.8.953A2.111,2.111,0,0,1,28.14.18Zm6.69,0a2.866,2.866,0,0,1-2.243-.945A3.793,3.793,0,0,1,31.74-3.39a4.313,4.313,0,0,1,.375-1.793,3.36,3.36,0,0,1,1.042-1.335,2.421,2.421,0,0,1,1.493-.5,2.242,2.242,0,0,1,1.5.495A2.812,2.812,0,0,1,37-5.273,4.709,4.709,0,0,1,37.26-3.72a.219.219,0,0,1-.105.217.875.875,0,0,1-.36.053H33.06a5.547,5.547,0,0,0,.427,2.385,1.452,1.452,0,0,0,1.4.885,1.954,1.954,0,0,0,1.3-.525A2.576,2.576,0,0,0,36.96-2.34h.36a2.9,2.9,0,0,1-.757,1.808A2.266,2.266,0,0,1,34.83.18Zm1.14-3.99a5.7,5.7,0,0,0-.315-2.025A1.084,1.084,0,0,0,34.62-6.66a1.255,1.255,0,0,0-1.162.832,4.653,4.653,0,0,0-.4,2.017Z" transform="translate(-11757 -2373)" fill="#166183"/>
      <path id="Path_175" data-name="Path 175" d="M8.28-24.88H8.04v20.4a3.6,3.6,0,0,0,.7,2.34,2.237,2.237,0,0,0,1.82.86H12V0H2.48V-1.28H3.92a2.237,2.237,0,0,0,1.82-.86,3.6,3.6,0,0,0,.7-2.34V-26.12a1.121,1.121,0,0,0-.26-.82,1.121,1.121,0,0,0-.82-.26H2.48v-1.28h8.48L17.48-6.44l6.08-22.04h8.28v1.28H28.96a1.121,1.121,0,0,0-.82.26,1.121,1.121,0,0,0-.26.82V-2.36a.955.955,0,0,0,1.08,1.08h2.88V0H20.24V-1.28h2.88A.955.955,0,0,0,24.2-2.36v-23.6L16.88.48h-.96ZM42.56.48A6.383,6.383,0,0,1,38.9-.56a4.117,4.117,0,0,1-1.54-3.68,4.622,4.622,0,0,1,1.04-3.2A5.937,5.937,0,0,1,40.82-9.1a21.138,21.138,0,0,1,3.34-.86l3.68-.68v-3.4q0-3.72-3.72-3.72a4.586,4.586,0,0,0-2.48.7,1.943,1.943,0,0,0-1.12,1.58,1.19,1.19,0,0,0,.12.6.922.922,0,0,0,.26.24,1.108,1.108,0,0,0,.34.16,2.582,2.582,0,0,1,1.1.56,1.311,1.311,0,0,1,.38,1,1.378,1.378,0,0,1-.5,1.2,2.1,2.1,0,0,1-1.26.36,2.279,2.279,0,0,1-1.6-.68A2.567,2.567,0,0,1,38.64-14a4.112,4.112,0,0,1,.82-2.56,5.03,5.03,0,0,1,2.12-1.62,6.874,6.874,0,0,1,2.66-.54,7.605,7.605,0,0,1,4.56,1.38,4.937,4.937,0,0,1,1.92,4.3V-3.2q0,2,1.24,2A1.513,1.513,0,0,0,53.4-2.36a8.044,8.044,0,0,0,.44-2.84h.72a10.3,10.3,0,0,1-.7,4.04A2.51,2.51,0,0,1,51.36.48,3.185,3.185,0,0,1,48.78-.54a4.572,4.572,0,0,1-.94-2.82l-.2-.08A8.032,8.032,0,0,1,45.7-.78,4.437,4.437,0,0,1,42.56.48ZM43.2-.96a3.281,3.281,0,0,0,2.82-1.42A15,15,0,0,0,47.84-6V-9.8l-3.48.76a4.376,4.376,0,0,0-2.78,1.58,5.6,5.6,0,0,0-.86,3.34,3.235,3.235,0,0,0,.76,2.5A2.553,2.553,0,0,0,43.2-.96Zm15.6,0h1.68a.942.942,0,0,0,.68-.2.942.942,0,0,0,.2-.68V-16.4a.942.942,0,0,0-.2-.68.942.942,0,0,0-.68-.2H58.8v-.96h5.44v4l.16.04a8.861,8.861,0,0,1,2.18-3.3,4.192,4.192,0,0,1,2.86-1.22,3.527,3.527,0,0,1,2.48.88,3.094,3.094,0,0,1,.96,2.4,2.869,2.869,0,0,1-.62,1.72,1.888,1.888,0,0,1-1.58.84,2.037,2.037,0,0,1-1.28-.4,1.332,1.332,0,0,1-.52-1.12,1.761,1.761,0,0,1,.8-1.44,2.9,2.9,0,0,0,.54-.44.748.748,0,0,0,.18-.52.665.665,0,0,0-.34-.58,1.72,1.72,0,0,0-.94-.22,3.3,3.3,0,0,0-2.38,1.2,8.652,8.652,0,0,0-1.82,3.12,11.893,11.893,0,0,0-.68,4v7.44a.942.942,0,0,0,.2.68.942.942,0,0,0,.68.2H66.8V0h-8ZM86.4,9.52A15.091,15.091,0,0,1,80.32,8.4a3.7,3.7,0,0,1-2.56-3.52,3.509,3.509,0,0,1,1.16-2.6A4.934,4.934,0,0,1,81.68.92V.8Q78.16.04,78.16-2.16a3.043,3.043,0,0,1,1.26-2.58A7.147,7.147,0,0,1,82.52-6v-.12A7.363,7.363,0,0,1,79.66-8.3a5.955,5.955,0,0,1-1.18-3.86,6.137,6.137,0,0,1,1-3.52,6.519,6.519,0,0,1,2.62-2.26,7.962,7.962,0,0,1,3.5-.78,7.232,7.232,0,0,1,2.3.38,9.6,9.6,0,0,1,1.96.88,4.064,4.064,0,0,1,1.06.82,2.927,2.927,0,0,1,1.16-1.56,2.917,2.917,0,0,1,1.6-.52,3.2,3.2,0,0,1,2.24.8,2.68,2.68,0,0,1,.88,2.08,2.493,2.493,0,0,1-.46,1.56,1.462,1.462,0,0,1-1.22.6A1.888,1.888,0,0,1,94-14.02a1.254,1.254,0,0,1-.48-1.1,1.374,1.374,0,0,1,.68-1.28,1.312,1.312,0,0,0,.34-.3.723.723,0,0,0,.1-.42.513.513,0,0,0-.32-.48,1.682,1.682,0,0,0-.76-.16,1.8,1.8,0,0,0-1.3.58,2.178,2.178,0,0,0-.66,1.34,6.143,6.143,0,0,1,1.12,3.68,6.351,6.351,0,0,1-.96,3.5,6.192,6.192,0,0,1-2.58,2.28,8.144,8.144,0,0,1-3.58.78,12.309,12.309,0,0,0-4.06.62q-1.78.62-1.78,2.06a1.032,1.032,0,0,0,.68,1.04,5.076,5.076,0,0,0,1.88.28q.84,0,1.36-.04.48-.04,1.24-.04h4.12A6.621,6.621,0,0,1,93.32-.3a4.9,4.9,0,0,1,1.72,4.06,4.746,4.746,0,0,1-2.38,4.28A11.727,11.727,0,0,1,86.4,9.52ZM85.6-6.56a3.327,3.327,0,0,0,2.88-1.48,7.078,7.078,0,0,0,1.04-4.12,7.078,7.078,0,0,0-1.04-4.12,3.327,3.327,0,0,0-2.88-1.48,3.327,3.327,0,0,0-2.88,1.48,7.078,7.078,0,0,0-1.04,4.12,7.078,7.078,0,0,0,1.04,4.12A3.327,3.327,0,0,0,85.6-6.56Zm.8,15.12a11.687,11.687,0,0,0,5.04-1.02A3.542,3.542,0,0,0,93.6,4.08a3.263,3.263,0,0,0-.74-2.14,3.18,3.18,0,0,0-2.58-.9H85.84a10.594,10.594,0,0,0-4.44.86,2.968,2.968,0,0,0-1.88,2.9,3.025,3.025,0,0,0,2.12,2.82A11.622,11.622,0,0,0,86.4,8.56ZM104.56-23.2a2.011,2.011,0,0,1-1.48-.6,2.011,2.011,0,0,1-.6-1.48,1.994,1.994,0,0,1,.6-1.5,2.047,2.047,0,0,1,1.48-.58,2.03,2.03,0,0,1,1.5.58,2.03,2.03,0,0,1,.58,1.5,2.047,2.047,0,0,1-.58,1.48A1.994,1.994,0,0,1,104.56-23.2ZM100.8-.96h1.68a.942.942,0,0,0,.68-.2.942.942,0,0,0,.2-.68V-16.4a.942.942,0,0,0-.2-.68.942.942,0,0,0-.68-.2H100.8v-.96h5.44v16.4a.942.942,0,0,0,.2.68.942.942,0,0,0,.68.2h1.68V0h-8Zm12.8,0h1.68a.942.942,0,0,0,.68-.2.942.942,0,0,0,.2-.68V-16.4a.942.942,0,0,0-.2-.68.942.942,0,0,0-.68-.2H113.6v-.96h5.44v3.28l.16.04a7.093,7.093,0,0,1,2.28-2.86,5.162,5.162,0,0,1,3-.94,4.634,4.634,0,0,1,4.14,1.8,7.515,7.515,0,0,1,1.22,4.32V-1.84a.942.942,0,0,0,.2.68.942.942,0,0,0,.68.2h1.68V0h-8V-.96h1.68a.942.942,0,0,0,.68-.2.942.942,0,0,0,.2-.68V-13.36a6.014,6.014,0,0,0-.7-3,2.508,2.508,0,0,0-2.38-1.24,3.655,3.655,0,0,0-2.5.98,6.476,6.476,0,0,0-1.72,2.68,10.966,10.966,0,0,0-.62,3.78v8.32a.942.942,0,0,0,.2.68.942.942,0,0,0,.68.2h1.68V0h-8Z" transform="translate(-11759 -2231)" fill="#3d8baf"/>
      <path id="Path_159" data-name="Path 159" d="M3.906-2.016h4.41a1.6,1.6,0,0,0,1.2-.347,1.72,1.72,0,0,0,.315-1.165v-37.8a1.705,1.705,0,0,0-.315-1.2,1.705,1.705,0,0,0-1.2-.315H3.906v-2.016H27.342a17.308,17.308,0,0,1,9.576,2.8,19.7,19.7,0,0,1,6.9,7.812,24.84,24.84,0,0,1,2.551,11.435,26.223,26.223,0,0,1-2.551,11.655,20.469,20.469,0,0,1-6.93,8.19A16.693,16.693,0,0,1,27.342,0H3.906Zm22.365,0a8.892,8.892,0,0,0,6.71-2.8q2.677-2.8,2.677-8.158v-18.9q0-5.355-2.677-8.159a8.892,8.892,0,0,0-6.71-2.8H20.664a1.72,1.72,0,0,0-1.166.315,1.6,1.6,0,0,0-.347,1.2v37.8A1.611,1.611,0,0,0,19.5-2.363a1.611,1.611,0,0,0,1.166.347ZM65.961.756A11.955,11.955,0,0,1,59-1.355a14.107,14.107,0,0,1-4.756-5.7,18.16,18.16,0,0,1-1.7-7.875,18.456,18.456,0,0,1,1.7-8,14.029,14.029,0,0,1,4.63-5.639,10.93,10.93,0,0,1,6.395-2.048,9.082,9.082,0,0,1,6.615,2.74,13.527,13.527,0,0,1,3.654,7.213,32.371,32.371,0,0,1,.441,6.3H60.606q0,3.024.126,4.757A17.94,17.94,0,0,0,61.3-6.237,6.909,6.909,0,0,0,63.472-2.52a5.561,5.561,0,0,0,3.749,1.386A5.806,5.806,0,0,0,72.2-3.843a13.309,13.309,0,0,0,2.268-6.363H76.1a14.7,14.7,0,0,1-2.835,7.655Q70.812.756,65.961.756ZM68.67-16.128a41.179,41.179,0,0,0-.85-9.8q-.851-3.182-3.182-3.182t-3.181,3.182a41.179,41.179,0,0,0-.85,9.8Zm14.238,4.41h1.386l2.835,4.977Q90.531-.756,95.7-.756a4.637,4.637,0,0,0,3.465-1.165A3.662,3.662,0,0,0,100.3-4.536a3.606,3.606,0,0,0-.661-2.174A7.77,7.77,0,0,0,97.367-8.6q-1.607-.977-4.946-2.615a29.045,29.045,0,0,1-6.772-4.41,8.222,8.222,0,0,1-2.741-6.426,8.192,8.192,0,0,1,2.457-6.237,8.374,8.374,0,0,1,5.985-2.331,11.783,11.783,0,0,1,6.3,2.142,3.958,3.958,0,0,0,1.89.756q.756,0,1.008-1.008l.378-1.26h1.134v10.08h-1.386l-1.2-2.394a14.485,14.485,0,0,0-3.906-5.1,7.282,7.282,0,0,0-4.473-1.7,4.575,4.575,0,0,0-2.8.819,3.079,3.079,0,0,0-1.1,2.646q0,3.717,6.678,6.867a46.429,46.429,0,0,1,6.269,3.465,10.385,10.385,0,0,1,3.182,3.276,8.644,8.644,0,0,1,1.008,4.347,7.938,7.938,0,0,1-2.488,6.174A8.865,8.865,0,0,1,95.634.756,12.868,12.868,0,0,1,89.082-1.26a4.854,4.854,0,0,0-2.268-1.008,2.35,2.35,0,0,0-1.449.472,2.48,2.48,0,0,0-.882,1.229L84.042.756H82.908Zm32.76-24.57a4.5,4.5,0,0,1-3.307-1.355,4.5,4.5,0,0,1-1.354-3.307,4.471,4.471,0,0,1,1.354-3.339,4.555,4.555,0,0,1,3.307-1.323,4.526,4.526,0,0,1,3.339,1.323,4.526,4.526,0,0,1,1.323,3.339,4.555,4.555,0,0,1-1.323,3.307A4.471,4.471,0,0,1,115.668-36.288Zm-6.8,34.776h2.394a1.1,1.1,0,0,0,.787-.22,1.1,1.1,0,0,0,.22-.788V-27.342a1.1,1.1,0,0,0-.22-.788,1.1,1.1,0,0,0-.787-.22h-2.394v-1.512h10.71V-2.52a1.1,1.1,0,0,0,.22.788,1.1,1.1,0,0,0,.787.22h2.394V0H108.864Zm32.76,16.506a21.6,21.6,0,0,1-9.923-2.079q-4.063-2.079-4.063-5.733a5.548,5.548,0,0,1,1.575-3.812,8.117,8.117,0,0,1,4.347-2.363V.819a5.335,5.335,0,0,1-3.4-1.575,4.774,4.774,0,0,1-1.512-3.591q0-5.985,7.056-7.371v-.252a11.756,11.756,0,0,1-4.316-3.276,8.306,8.306,0,0,1-1.858-5.544,8.618,8.618,0,0,1,1.606-5.1,10.585,10.585,0,0,1,4.221-3.5,13.092,13.092,0,0,1,5.639-1.228,12.523,12.523,0,0,1,8.757,3.276h.189q1.953-3.276,4.662-3.276a4.494,4.494,0,0,1,3.276,1.228,3.95,3.95,0,0,1,1.26,2.93,5.306,5.306,0,0,1-1.04,3.276A3.045,3.045,0,0,1,155.61-21.8a2.759,2.759,0,0,1-1.764-.6A1.943,1.943,0,0,1,153.09-24a3.8,3.8,0,0,1,1.008-2.268,4.951,4.951,0,0,0,.693-.882,1.733,1.733,0,0,0,.315-.882q0-1.008-1.323-1.008-1.7,0-3.213,2.646a8.72,8.72,0,0,1,2.016,6.111,7.922,7.922,0,0,1-1.449,4.441,10.776,10.776,0,0,1-4.126,3.56,13.171,13.171,0,0,1-6.143,1.386,23.335,23.335,0,0,0-6.174.661q-2.331.661-2.331,2.677,0,2.2,3.087,2.2H145.4a12.356,12.356,0,0,1,7.434,2.142A7.414,7.414,0,0,1,155.8,3.213a10.659,10.659,0,0,1-1.7,5.827,12.231,12.231,0,0,1-4.914,4.316A16.443,16.443,0,0,1,141.624,14.994Zm-.5-27.468a2.991,2.991,0,0,0,2.9-1.984,16.681,16.681,0,0,0,.882-6.332,16.681,16.681,0,0,0-.882-6.331,2.991,2.991,0,0,0-2.9-1.985,3.092,3.092,0,0,0-2.992,1.985,16.155,16.155,0,0,0-.914,6.331,16.155,16.155,0,0,0,.914,6.332A3.092,3.092,0,0,0,141.12-12.474Zm-.441,25.452a15.837,15.837,0,0,0,7.623-1.764,5.5,5.5,0,0,0,3.276-5.04,3.57,3.57,0,0,0-2.646-3.433A18.632,18.632,0,0,0,142.191,1.7a28.663,28.663,0,0,0-8.568,1.165q-3.717,1.166-3.717,4.379,0,2.772,3.245,4.253A17.971,17.971,0,0,0,140.679,12.978Zm21.735-14.49h2.394a1.1,1.1,0,0,0,.787-.22,1.1,1.1,0,0,0,.221-.788V-27.342a1.1,1.1,0,0,0-.221-.788,1.1,1.1,0,0,0-.787-.22h-2.394v-1.512h10.71v5.607l.315.063a12.7,12.7,0,0,1,3.245-4.694,6.741,6.741,0,0,1,4.567-1.733,9.334,9.334,0,0,1,2.709.346,7.774,7.774,0,0,1,2.142,1.04,7.684,7.684,0,0,1,2.489,3.15,9.972,9.972,0,0,1,.913,4.158v19.4a1.1,1.1,0,0,0,.221.788,1.1,1.1,0,0,0,.787.22h2.394V0H179.172V-1.512h2.016a1.1,1.1,0,0,0,.787-.22,1.1,1.1,0,0,0,.221-.788V-23.751q0-4.851-2.9-4.851a3.889,3.889,0,0,0-2.772,1.764,14.687,14.687,0,0,0-2.426,4.662A19.208,19.208,0,0,0,173.124-16V-2.52a1.1,1.1,0,0,0,.221.788,1.1,1.1,0,0,0,.788.22h2.016V0H162.414Z" transform="translate(-11759 -2405)" fill="#094c84"/>
      <path id="Path_187" data-name="Path 187" d="M1.24-.64H2.68a.477.477,0,0,0,.54-.54V-13.06a.56.56,0,0,0-.13-.41.56.56,0,0,0-.41-.13H1.24v-.64h5.7v.64H5.6a.56.56,0,0,0-.41.13.56.56,0,0,0-.13.41v6.2l4.6-4.7a1.985,1.985,0,0,0,.38-.56,1.611,1.611,0,0,0,.12-.64.783.783,0,0,0-.26-.6.908.908,0,0,0-.64-.24H8.72v-.64H14v.64h-.8q-.66,0-1.8,1.18L8.04-9.02l4.08,7.5a1.667,1.667,0,0,0,.58.69,1.821,1.821,0,0,0,.92.19h.66V0H8.24V-.64H9.58a.584.584,0,0,0,.38-.13.372.372,0,0,0,.16-.29,1.059,1.059,0,0,0-.04-.27.677.677,0,0,0-.1-.23L6.72-7.68,5.06-6v4.82a.477.477,0,0,0,.54.54H6.94V0H1.24ZM24.2.24a3.822,3.822,0,0,1-2.99-1.26,5.057,5.057,0,0,1-1.13-3.5,5.751,5.751,0,0,1,.5-2.39,4.481,4.481,0,0,1,1.39-1.78,3.228,3.228,0,0,1,1.99-.67,2.989,2.989,0,0,1,2,.66,3.749,3.749,0,0,1,1.13,1.67,6.279,6.279,0,0,1,.35,2.07.292.292,0,0,1-.14.29,1.167,1.167,0,0,1-.48.07H21.84a7.4,7.4,0,0,0,.57,3.18A1.935,1.935,0,0,0,24.28-.24a2.605,2.605,0,0,0,1.73-.7,3.434,3.434,0,0,0,1.03-2.18h.48A3.873,3.873,0,0,1,26.51-.71,3.021,3.021,0,0,1,24.2.24Zm1.52-5.32a7.605,7.605,0,0,0-.42-2.7,1.445,1.445,0,0,0-1.38-1.1,1.673,1.673,0,0,0-1.55,1.11,6.2,6.2,0,0,0-.53,2.69Zm7.36,4.6h.84a.471.471,0,0,0,.34-.1.471.471,0,0,0,.1-.34V-8.2a.471.471,0,0,0-.1-.34.471.471,0,0,0-.34-.1h-.84v-.48H35.8v2l.08.02a4.43,4.43,0,0,1,1.09-1.65,2.1,2.1,0,0,1,1.43-.61,1.763,1.763,0,0,1,1.24.44,1.547,1.547,0,0,1,.48,1.2,1.435,1.435,0,0,1-.31.86.944.944,0,0,1-.79.42,1.018,1.018,0,0,1-.64-.2.666.666,0,0,1-.26-.56.88.88,0,0,1,.4-.72,1.452,1.452,0,0,0,.27-.22.374.374,0,0,0,.09-.26.333.333,0,0,0-.17-.29.86.86,0,0,0-.47-.11,1.65,1.65,0,0,0-1.19.6,4.326,4.326,0,0,0-.91,1.56,5.946,5.946,0,0,0-.34,2V-.92a.471.471,0,0,0,.1.34.471.471,0,0,0,.34.1h.84V0h-4Zm12.2,0h.84a.471.471,0,0,0,.34-.1.471.471,0,0,0,.1-.34V-8.2a.471.471,0,0,0-.1-.34.471.471,0,0,0-.34-.1h-.84v-.48H48v1.64l.08.02a3.547,3.547,0,0,1,1.14-1.43,2.581,2.581,0,0,1,1.5-.47,2.317,2.317,0,0,1,2.07.9A3.758,3.758,0,0,1,53.4-6.3V-.92a.471.471,0,0,0,.1.34.471.471,0,0,0,.34.1h.84V0h-4V-.48h.84a.471.471,0,0,0,.34-.1.471.471,0,0,0,.1-.34V-6.68a3.007,3.007,0,0,0-.35-1.5,1.254,1.254,0,0,0-1.19-.62,1.827,1.827,0,0,0-1.25.49,3.238,3.238,0,0,0-.86,1.34A5.483,5.483,0,0,0,48-5.08V-.92a.471.471,0,0,0,.1.34.471.471,0,0,0,.34.1h.84V0h-4ZM61.96-11.6a1,1,0,0,1-.74-.3,1,1,0,0,1-.3-.74,1,1,0,0,1,.3-.75,1.024,1.024,0,0,1,.74-.29,1.015,1.015,0,0,1,.75.29,1.015,1.015,0,0,1,.29.75,1.024,1.024,0,0,1-.29.74A1,1,0,0,1,61.96-11.6ZM60.08-.48h.84a.471.471,0,0,0,.34-.1.471.471,0,0,0,.1-.34V-8.2a.471.471,0,0,0-.1-.34.471.471,0,0,0-.34-.1h-.84v-.48H62.8v8.2a.471.471,0,0,0,.1.34.471.471,0,0,0,.34.1h.84V0h-4Zm9.4,0h.84a.471.471,0,0,0,.34-.1.471.471,0,0,0,.1-.34V-8.2a.471.471,0,0,0-.1-.34.471.471,0,0,0-.34-.1h-.84v-.48H72.2v1.64l.08.02a3.547,3.547,0,0,1,1.14-1.43,2.581,2.581,0,0,1,1.5-.47,2.317,2.317,0,0,1,2.07.9A3.758,3.758,0,0,1,77.6-6.3V-.92a.471.471,0,0,0,.1.34.471.471,0,0,0,.34.1h.84V0h-4V-.48h.84a.471.471,0,0,0,.34-.1.471.471,0,0,0,.1-.34V-6.68a3.007,3.007,0,0,0-.35-1.5,1.254,1.254,0,0,0-1.19-.62,1.827,1.827,0,0,0-1.25.49,3.238,3.238,0,0,0-.86,1.34,5.483,5.483,0,0,0-.31,1.89V-.92a.471.471,0,0,0,.1.34.471.471,0,0,0,.34.1h.84V0h-4Zm19.4,5.24a7.545,7.545,0,0,1-3.04-.56,1.85,1.85,0,0,1-1.28-1.76,1.755,1.755,0,0,1,.58-1.3A2.467,2.467,0,0,1,86.52.46V.4Q84.76.02,84.76-1.08a1.522,1.522,0,0,1,.63-1.29A3.574,3.574,0,0,1,86.94-3v-.06a3.682,3.682,0,0,1-1.43-1.09,2.977,2.977,0,0,1-.59-1.93,3.068,3.068,0,0,1,.5-1.76,3.259,3.259,0,0,1,1.31-1.13,3.981,3.981,0,0,1,1.75-.39,3.616,3.616,0,0,1,1.15.19,4.8,4.8,0,0,1,.98.44,2.032,2.032,0,0,1,.53.41,1.464,1.464,0,0,1,.58-.78,1.459,1.459,0,0,1,.8-.26,1.6,1.6,0,0,1,1.12.4,1.34,1.34,0,0,1,.44,1.04,1.247,1.247,0,0,1-.23.78.731.731,0,0,1-.61.3.944.944,0,0,1-.56-.17.627.627,0,0,1-.24-.55.687.687,0,0,1,.34-.64.656.656,0,0,0,.17-.15A.362.362,0,0,0,93-8.56a.256.256,0,0,0-.16-.24.841.841,0,0,0-.38-.08.9.9,0,0,0-.65.29,1.089,1.089,0,0,0-.33.67,3.072,3.072,0,0,1,.56,1.84,3.175,3.175,0,0,1-.48,1.75,3.1,3.1,0,0,1-1.29,1.14,4.072,4.072,0,0,1-1.79.39,6.155,6.155,0,0,0-2.03.31q-.89.31-.89,1.03a.516.516,0,0,0,.34.52,2.538,2.538,0,0,0,.94.14q.42,0,.68-.02.24-.02.62-.02H90.2a3.311,3.311,0,0,1,2.14.69,2.448,2.448,0,0,1,.86,2.03,2.373,2.373,0,0,1-1.19,2.14A5.863,5.863,0,0,1,88.88,4.76Zm-.4-8.04a1.663,1.663,0,0,0,1.44-.74,3.539,3.539,0,0,0,.52-2.06,3.539,3.539,0,0,0-.52-2.06,1.663,1.663,0,0,0-1.44-.74,1.663,1.663,0,0,0-1.44.74,3.539,3.539,0,0,0-.52,2.06,3.539,3.539,0,0,0,.52,2.06A1.663,1.663,0,0,0,88.48-3.28Zm.4,7.56a5.844,5.844,0,0,0,2.52-.51,1.771,1.771,0,0,0,1.08-1.73A1.632,1.632,0,0,0,92.11.97,1.59,1.59,0,0,0,90.82.52H88.6a5.3,5.3,0,0,0-2.22.43,1.484,1.484,0,0,0-.94,1.45A1.512,1.512,0,0,0,86.5,3.81,5.811,5.811,0,0,0,88.88,4.28Z" transform="translate(-11756 -2476)" fill="#0099d1"/>
      <path id="Path_176" data-name="Path 176" d="M1.86-.96H4.02a.716.716,0,0,0,.81-.81V-19.59a.84.84,0,0,0-.2-.615A.84.84,0,0,0,4.02-20.4H1.86v-.96H11.88a9.353,9.353,0,0,1,3.735.705,5.949,5.949,0,0,1,2.55,1.98,4.842,4.842,0,0,1,.915,2.895,4.956,4.956,0,0,1-.915,2.94,6.112,6.112,0,0,1-2.55,2.025,9.021,9.021,0,0,1-3.735.735H7.59v8.31a.886.886,0,0,0,.18.615A.833.833,0,0,0,8.4-.96h2.64V0H1.86ZM12.27-11.04a3.1,3.1,0,0,0,2.625-1.395A5.569,5.569,0,0,0,15.9-15.78a5.361,5.361,0,0,0-.99-3.285A3.125,3.125,0,0,0,12.27-20.4H8.4a.84.84,0,0,0-.615.195.84.84,0,0,0-.2.615v8.55ZM24.36.36a4.787,4.787,0,0,1-2.745-.78A3.088,3.088,0,0,1,20.46-3.18a3.466,3.466,0,0,1,.78-2.4,4.452,4.452,0,0,1,1.815-1.245,15.853,15.853,0,0,1,2.5-.645l2.76-.51v-2.55a2.466,2.466,0,0,0-2.79-2.79,3.439,3.439,0,0,0-1.86.525,1.457,1.457,0,0,0-.84,1.185.892.892,0,0,0,.09.45.691.691,0,0,0,.195.18.831.831,0,0,0,.255.12,1.936,1.936,0,0,1,.825.42.983.983,0,0,1,.285.75,1.033,1.033,0,0,1-.375.9,1.576,1.576,0,0,1-.945.27,1.709,1.709,0,0,1-1.2-.51,1.925,1.925,0,0,1-.54-1.47,3.084,3.084,0,0,1,.615-1.92,3.772,3.772,0,0,1,1.59-1.215,5.156,5.156,0,0,1,1.995-.405,5.7,5.7,0,0,1,3.42,1.035A3.7,3.7,0,0,1,30.48-9.78V-2.4q0,1.5.93,1.5a1.135,1.135,0,0,0,1.08-.87,6.033,6.033,0,0,0,.33-2.13h.54a7.726,7.726,0,0,1-.525,3.03A1.883,1.883,0,0,1,30.96.36a2.389,2.389,0,0,1-1.935-.765,3.429,3.429,0,0,1-.7-2.115l-.15-.06a6.024,6.024,0,0,1-1.455,2A3.327,3.327,0,0,1,24.36.36Zm.48-1.08a2.461,2.461,0,0,0,2.115-1.065A11.247,11.247,0,0,0,28.32-4.5V-7.35l-2.61.57a3.282,3.282,0,0,0-2.085,1.185,4.2,4.2,0,0,0-.645,2.5,2.426,2.426,0,0,0,.57,1.875A1.915,1.915,0,0,0,24.84-.72Zm10.2,0H36.3a.706.706,0,0,0,.51-.15.706.706,0,0,0,.15-.51V-12.3a.706.706,0,0,0-.15-.51.706.706,0,0,0-.51-.15H35.04v-.72h4.08v3l.12.03a6.645,6.645,0,0,1,1.635-2.475,3.144,3.144,0,0,1,2.145-.915,2.645,2.645,0,0,1,1.86.66,2.321,2.321,0,0,1,.72,1.8,2.152,2.152,0,0,1-.465,1.29,1.416,1.416,0,0,1-1.185.63,1.528,1.528,0,0,1-.96-.3,1,1,0,0,1-.39-.84,1.32,1.32,0,0,1,.6-1.08,2.178,2.178,0,0,0,.405-.33.561.561,0,0,0,.135-.39.5.5,0,0,0-.255-.435,1.29,1.29,0,0,0-.7-.165A2.475,2.475,0,0,0,41-12.3,6.489,6.489,0,0,0,39.63-9.96a8.92,8.92,0,0,0-.51,3v5.58a.706.706,0,0,0,.15.51.706.706,0,0,0,.51.15h1.26V0h-6ZM51.48.36a4.787,4.787,0,0,1-2.745-.78A3.088,3.088,0,0,1,47.58-3.18a3.466,3.466,0,0,1,.78-2.4,4.452,4.452,0,0,1,1.815-1.245A15.853,15.853,0,0,1,52.68-7.47l2.76-.51v-2.55a2.466,2.466,0,0,0-2.79-2.79,3.439,3.439,0,0,0-1.86.525,1.457,1.457,0,0,0-.84,1.185.892.892,0,0,0,.09.45.691.691,0,0,0,.195.18.831.831,0,0,0,.255.12,1.936,1.936,0,0,1,.825.42.983.983,0,0,1,.285.75,1.033,1.033,0,0,1-.375.9,1.576,1.576,0,0,1-.945.27,1.709,1.709,0,0,1-1.2-.51,1.925,1.925,0,0,1-.54-1.47,3.084,3.084,0,0,1,.615-1.92,3.772,3.772,0,0,1,1.59-1.215,5.156,5.156,0,0,1,1.995-.405,5.7,5.7,0,0,1,3.42,1.035A3.7,3.7,0,0,1,57.6-9.78V-2.4q0,1.5.93,1.5a1.135,1.135,0,0,0,1.08-.87,6.033,6.033,0,0,0,.33-2.13h.54a7.726,7.726,0,0,1-.525,3.03A1.883,1.883,0,0,1,58.08.36a2.389,2.389,0,0,1-1.935-.765,3.429,3.429,0,0,1-.7-2.115l-.15-.06a6.024,6.024,0,0,1-1.455,2A3.327,3.327,0,0,1,51.48.36Zm.48-1.08a2.461,2.461,0,0,0,2.115-1.065A11.247,11.247,0,0,0,55.44-4.5V-7.35l-2.61.57a3.282,3.282,0,0,0-2.085,1.185,4.2,4.2,0,0,0-.645,2.5,2.426,2.426,0,0,0,.57,1.875A1.915,1.915,0,0,0,51.96-.72Zm17.1,7.86A11.318,11.318,0,0,1,64.5,6.3a2.775,2.775,0,0,1-1.92-2.64,2.632,2.632,0,0,1,.87-1.95A3.7,3.7,0,0,1,65.52.69V.6Q62.88.03,62.88-1.62a2.282,2.282,0,0,1,.945-1.935A5.361,5.361,0,0,1,66.15-4.5v-.09A5.522,5.522,0,0,1,64-6.225,4.466,4.466,0,0,1,63.12-9.12a4.6,4.6,0,0,1,.75-2.64,4.889,4.889,0,0,1,1.965-1.7,5.972,5.972,0,0,1,2.625-.585,5.424,5.424,0,0,1,1.725.285,7.2,7.2,0,0,1,1.47.66,3.048,3.048,0,0,1,.795.615,2.2,2.2,0,0,1,.87-1.17,2.188,2.188,0,0,1,1.2-.39,2.4,2.4,0,0,1,1.68.6,2.01,2.01,0,0,1,.66,1.56,1.87,1.87,0,0,1-.345,1.17,1.1,1.1,0,0,1-.915.45,1.416,1.416,0,0,1-.84-.255.94.94,0,0,1-.36-.825,1.03,1.03,0,0,1,.51-.96.984.984,0,0,0,.255-.225.542.542,0,0,0,.075-.315A.384.384,0,0,0,75-13.2a1.261,1.261,0,0,0-.57-.12,1.348,1.348,0,0,0-.975.435,1.633,1.633,0,0,0-.5,1.005,4.607,4.607,0,0,1,.84,2.76,4.763,4.763,0,0,1-.72,2.625,4.644,4.644,0,0,1-1.935,1.71A6.108,6.108,0,0,1,68.46-4.2a9.232,9.232,0,0,0-3.045.465Q64.08-3.27,64.08-2.19a.774.774,0,0,0,.51.78A3.807,3.807,0,0,0,66-1.2q.63,0,1.02-.03.36-.03.93-.03h3.09A4.966,4.966,0,0,1,74.25-.225,3.672,3.672,0,0,1,75.54,2.82a3.56,3.56,0,0,1-1.785,3.21A8.8,8.8,0,0,1,69.06,7.14Zm-.6-12.06a2.5,2.5,0,0,0,2.16-1.11,5.308,5.308,0,0,0,.78-3.09,5.308,5.308,0,0,0-.78-3.09,2.5,2.5,0,0,0-2.16-1.11,2.5,2.5,0,0,0-2.16,1.11,5.308,5.308,0,0,0-.78,3.09,5.308,5.308,0,0,0,.78,3.09A2.5,2.5,0,0,0,68.46-4.92Zm.6,11.34a8.765,8.765,0,0,0,3.78-.765,2.656,2.656,0,0,0,1.62-2.6,2.448,2.448,0,0,0-.555-1.6A2.385,2.385,0,0,0,71.97.78H68.64a7.945,7.945,0,0,0-3.33.645A2.226,2.226,0,0,0,63.9,3.6a2.268,2.268,0,0,0,1.59,2.115A8.716,8.716,0,0,0,69.06,6.42Zm9.3-7.14h1.26a.706.706,0,0,0,.51-.15.706.706,0,0,0,.15-.51V-12.3a.706.706,0,0,0-.15-.51.706.706,0,0,0-.51-.15H78.36v-.72h4.08v3l.12.03a6.646,6.646,0,0,1,1.635-2.475,3.144,3.144,0,0,1,2.145-.915,2.645,2.645,0,0,1,1.86.66,2.321,2.321,0,0,1,.72,1.8,2.152,2.152,0,0,1-.465,1.29,1.416,1.416,0,0,1-1.185.63,1.528,1.528,0,0,1-.96-.3,1,1,0,0,1-.39-.84,1.32,1.32,0,0,1,.6-1.08,2.178,2.178,0,0,0,.4-.33.561.561,0,0,0,.135-.39.5.5,0,0,0-.255-.435A1.29,1.29,0,0,0,86.1-13.2a2.475,2.475,0,0,0-1.785.9A6.489,6.489,0,0,0,82.95-9.96a8.92,8.92,0,0,0-.51,3v5.58a.706.706,0,0,0,.15.51.706.706,0,0,0,.51.15h1.26V0h-6ZM94.8.36a4.787,4.787,0,0,1-2.745-.78A3.088,3.088,0,0,1,90.9-3.18a3.466,3.466,0,0,1,.78-2.4,4.452,4.452,0,0,1,1.815-1.245A15.853,15.853,0,0,1,96-7.47l2.76-.51v-2.55a2.466,2.466,0,0,0-2.79-2.79,3.439,3.439,0,0,0-1.86.525,1.457,1.457,0,0,0-.84,1.185.892.892,0,0,0,.09.45.691.691,0,0,0,.195.18.831.831,0,0,0,.255.12,1.936,1.936,0,0,1,.825.42.983.983,0,0,1,.285.75,1.033,1.033,0,0,1-.375.9,1.576,1.576,0,0,1-.945.27,1.709,1.709,0,0,1-1.2-.51,1.925,1.925,0,0,1-.54-1.47,3.084,3.084,0,0,1,.615-1.92,3.772,3.772,0,0,1,1.59-1.215,5.156,5.156,0,0,1,2-.405,5.7,5.7,0,0,1,3.42,1.035,3.7,3.7,0,0,1,1.44,3.225V-2.4q0,1.5.93,1.5a1.135,1.135,0,0,0,1.08-.87,6.033,6.033,0,0,0,.33-2.13h.54a7.726,7.726,0,0,1-.525,3.03A1.883,1.883,0,0,1,101.4.36a2.389,2.389,0,0,1-1.935-.765A3.429,3.429,0,0,1,98.76-2.52l-.15-.06a6.024,6.024,0,0,1-1.455,2A3.327,3.327,0,0,1,94.8.36Zm.48-1.08a2.461,2.461,0,0,0,2.115-1.065A11.247,11.247,0,0,0,98.76-4.5V-7.35l-2.61.57a3.282,3.282,0,0,0-2.085,1.185,4.2,4.2,0,0,0-.645,2.5,2.426,2.426,0,0,0,.57,1.875A1.915,1.915,0,0,0,95.28-.72Zm9.9,6.9h1.56a.706.706,0,0,0,.51-.15.706.706,0,0,0,.15-.51V-12.3a.706.706,0,0,0-.15-.51.706.706,0,0,0-.51-.15h-1.56v-.72h4.38v2.22l.12.03a5.276,5.276,0,0,1,1.455-1.9,3.16,3.16,0,0,1,2.025-.7,4.192,4.192,0,0,1,2.625.945,6.494,6.494,0,0,1,1.935,2.6,9.056,9.056,0,0,1,.72,3.66,9.056,9.056,0,0,1-.72,3.66,6.494,6.494,0,0,1-1.935,2.6A4.192,4.192,0,0,1,113.16.36a3.218,3.218,0,0,1-2.1-.765,4.7,4.7,0,0,1-1.38-1.845l-.12.03V5.52a.706.706,0,0,0,.15.51.706.706,0,0,0,.51.15h1.56V6.9h-6.6Zm7.65-6.66a2.391,2.391,0,0,0,2.22-1.65,11.731,11.731,0,0,0,.75-4.71,11.731,11.731,0,0,0-.75-4.71,2.391,2.391,0,0,0-2.22-1.65,2.444,2.444,0,0,0-1.65.66,4.45,4.45,0,0,0-1.185,1.815,7.051,7.051,0,0,0-.435,2.505v2.76a7.051,7.051,0,0,0,.435,2.505A4.45,4.45,0,0,0,111.18-1.14,2.444,2.444,0,0,0,112.83-.48Zm7.89-.24h1.68a.706.706,0,0,0,.51-.15.706.706,0,0,0,.15-.51v-18.6a.706.706,0,0,0-.15-.51.706.706,0,0,0-.51-.15h-1.68v-.72h4.5v10.14l.12.03a5.32,5.32,0,0,1,1.71-2.145,3.871,3.871,0,0,1,2.25-.7,3.475,3.475,0,0,1,3.1,1.35,5.637,5.637,0,0,1,.915,3.24v8.07a.706.706,0,0,0,.15.51.706.706,0,0,0,.51.15h1.26V0h-6V-.72h1.26a.706.706,0,0,0,.51-.15.706.706,0,0,0,.15-.51v-8.64a4.511,4.511,0,0,0-.525-2.25,1.881,1.881,0,0,0-1.785-.93,2.741,2.741,0,0,0-1.875.735,4.857,4.857,0,0,0-1.29,2.01,8.225,8.225,0,0,0-.465,2.835v6.24a.706.706,0,0,0,.15.51.706.706,0,0,0,.51.15h1.26V0h-6.42Z" transform="translate(-11759 -2333)" fill="#258abf"/>
    </g>
  </g>
</svg>
