<svg id="Layer_1" data-name="Layer 1" xmlns="http://www.w3.org/2000/svg" viewBox="0 0 203.14 391.12"><title>Oswald</title><g id="Group_151" data-name="Group 151"><path id="Path_177" data-name="Path 177" d="M65.6,175.3h1.71V163h4.34c4.57,0,5.93-3.36,5.93-6.78,0-3.8-1.33-6.62-6-6.62h-6Zm1.71-13.6V151h4c3.27,0,4.5,1.17,4.5,5.29s-1.42,5.45-4.53,5.45Zm15.91,13.88a4.05,4.05,0,0,0,3.83-2.72c0,.41.19,1.55.29,2.44H88.8c-.07-.35-.1-2.7-.1-3.2v-9.23c0-4.34-1.08-6.17-4.15-6.17-3.36,0-4.63,1.71-4.63,5.2h1.65v-.48c0-2.91,1.45-3.45,2.91-3.45,1.87,0,2.54,1.11,2.54,5.1v1.3c-6.25,2.94-7.48,4.08-7.48,7.22C79.54,174,81,175.58,83.22,175.58Zm.41-1.39c-1.17,0-2.41-.67-2.41-2.85,0-2.73,1.3-3.4,5.8-5.74v6A4,4,0,0,1,83.63,174.19Zm8.75,1.11h1.68V160.81a4.45,4.45,0,0,1,4-2.34,2.37,2.37,0,0,1,.7.1v-1.75a1.66,1.66,0,0,0-.32,0,5.31,5.31,0,0,0-4.34,2.66V157H92.38Zm11.69.28a4.07,4.07,0,0,0,3.84-2.72c0,.41.19,1.55.28,2.44h1.46c-.06-.35-.1-2.7-.1-3.2v-9.23c0-4.34-1.08-6.17-4.15-6.17-3.36,0-4.63,1.71-4.63,5.2h1.66v-.48c0-2.91,1.45-3.45,2.91-3.45,1.87,0,2.54,1.11,2.54,5.1v1.3c-6.25,2.94-7.48,4.08-7.48,7.22C100.4,174,101.85,175.58,104.07,175.58Zm.41-1.39c-1.17,0-2.41-.67-2.41-2.85,0-2.73,1.3-3.4,5.8-5.74v6A4,4,0,0,1,104.48,174.19Zm13.12,7.32c3.14,0,5.9-1.17,5.9-4.06,0-2.34-1.84-3.55-4.82-4.09l-3-.54c-1.08-.19-1.52-.5-1.52-1.17s.79-1.68,1.61-2.5a5.77,5.77,0,0,0,2,.32c3.58,0,5-2.79,5-6.43a11.35,11.35,0,0,0-.6-3.11,5.81,5.81,0,0,1,3-1.84l-.48-1.27-.44.16a5.05,5.05,0,0,0-2.47,2.16,4.28,4.28,0,0,0-4.06-2.44c-3.61,0-5.1,3.3-5.1,6.3,0,2.29.6,4.38,2.41,5.68-1.37,1.14-2.28,2.12-2.28,3.3s.63,1.61,2.21,2c-1.58.83-3.26,2.41-3.26,4.28,0,2.18,2.09,3.23,5.92,3.23Zm.16-13.28c-3.14,0-3.61-3.26-3.61-5.23,0-1.71.63-5.07,3.58-5.07s3.51,3.14,3.51,5.07-.34,5.23-3.48,5.23Zm-.16,11.91c-2.88,0-4.47-.66-4.47-2.28s1.84-2.94,2.92-3.58l2,.35c3.39.6,4,1.52,4,2.85,0,1.87-2,2.66-4.47,2.66Zm9.23-4.84h1.68V160.81a4.44,4.44,0,0,1,4-2.34,2.42,2.42,0,0,1,.7.1v-1.75a1.73,1.73,0,0,0-.32,0,5.3,5.3,0,0,0-4.34,2.66V157h-1.68Zm11.69.28a4.06,4.06,0,0,0,3.83-2.72c0,.41.19,1.55.29,2.44h1.46c-.07-.35-.1-2.7-.1-3.2v-9.23c0-4.34-1.08-6.17-4.16-6.17-3.35,0-4.62,1.71-4.62,5.2h1.65v-.48c0-2.91,1.45-3.45,2.91-3.45,1.87,0,2.54,1.11,2.54,5.1v1.3c-6.25,2.94-7.48,4.08-7.48,7.22,0,2.38,1.46,4,3.68,4Zm.41-1.39c-1.17,0-2.41-.67-2.41-2.85,0-2.73,1.3-3.4,5.8-5.74v6a4,4,0,0,1-3.39,2.57Zm8.53,7.13h1.68v-7.54a4.35,4.35,0,0,0,3.35,1.8c3.3,0,4.31-2.69,4.31-7.83v-3.51c0-4.6-.76-7.54-4.15-7.54a4.41,4.41,0,0,0-3.51,1.83V157h-1.68Zm4.84-7a4.28,4.28,0,0,1-3.17-1.65V159.71A4.65,4.65,0,0,1,152.3,158c2.38,0,2.82,1.87,2.82,6.25v3.58c0,4.47-.54,6.46-2.82,6.46Zm7.83,1h1.68V160a5.36,5.36,0,0,1,3.64-2c1.17,0,1.9.64,1.9,2.89V175.3h1.71V160.69c0-2.92-1.27-4-2.88-4a6,6,0,0,0-4.38,2.22v-9.28h-1.67Z" style="fill:#258abf"/><path id="Path_161" data-name="Path 161" d="M68.68,311.37c2.9,0,3.68-1.92,3.68-4.65v-.92H71v1c0,2-.34,3.38-2.28,3.38s-2.48-1.16-2.48-3.46v-6.63c0-2.07.37-3.47,2.48-3.47,1.94,0,2.28,1.26,2.28,3.28v.9h1.38v-.94c0-2.71-.9-4.42-3.69-4.42-3.09,0-3.93,2-3.93,4.86v6.19C64.74,309.22,65.53,311.37,68.68,311.37Zm5.7-.19h1.4v-9.13A3,3,0,0,1,77.72,301c.71,0,1,.42,1,1.57v8.6H80.2v-8.91c0-1.5-.61-2.36-1.71-2.36a3.77,3.77,0,0,0-2.71,1.35v-5.63h-1.4Zm9.81.17a2.42,2.42,0,0,0,2.29-1.71c0,.35.15,1.06.21,1.54h1.25c-.06-.4-.1-1.64-.1-2.21v-5.4c0-2.5-.73-3.67-2.71-3.67s-3,1.07-3,3.32l1.38,0v-.38c0-1.46.69-1.9,1.56-1.9,1,0,1.38.67,1.38,2.69v.78c-3.27,1.46-4.48,2.21-4.48,4.44A2.3,2.3,0,0,0,84,311.34h.15Zm.44-1.19c-.67,0-1.26-.46-1.26-1.63,0-1.52.88-2,3.07-3.15v3.45a2.29,2.29,0,0,1-1.8,1.33Zm5.37,1h1.42v-8.53a2.35,2.35,0,0,1,2.11-1.29,2.7,2.7,0,0,1,.69.12V300a1.06,1.06,0,0,0-.25,0,3,3,0,0,0-2.55,1.63v-1.52H90Zm7.47.17a2.41,2.41,0,0,0,2.28-1.71c0,.35.16,1.06.21,1.54h1.25c-.06-.4-.1-1.64-.1-2.21v-5.4c0-2.5-.73-3.67-2.71-3.67-2.13,0-3,1.07-3,3.32l1.38,0v-.38c0-1.46.69-1.9,1.56-1.9,1,0,1.38.67,1.38,2.69v.78c-3.27,1.46-4.48,2.21-4.48,4.44a2.3,2.3,0,0,0,2.08,2.47Zm.44-1.19c-.67,0-1.27-.46-1.27-1.63,0-1.52.88-2,3.07-3.15v3.45A2.27,2.27,0,0,1,97.91,310.16Zm8,1.19c2.4,0,2.82-1.56,2.82-3.8V307h-1.31v.62c0,1.8-.17,2.67-1.5,2.67s-1.59-.81-1.59-3v-3.11c0-2.35.25-3.19,1.57-3.19,1.12,0,1.52.56,1.52,2.5V304h1.31v-.54c0-2.11-.48-3.55-2.82-3.55s-3,1.4-3,4.47V307C103,309.49,103.34,311.35,105.94,311.35Zm7.33,0a5.93,5.93,0,0,0,1.19-.12v-1.07a4.27,4.27,0,0,1-.81.1c-.82,0-1-.4-1-1.48V301h1.85v-.92h-1.84v-3.44h-1.4v3.44h-1.37V301h1.37v7.87c0,1.42.36,2.44,2,2.44Zm5.53,0c2.15,0,2.88-1.33,2.88-3.34v-.62h-1.36v.77c0,1.75-.65,2.13-1.52,2.13-1.13,0-1.59-.69-1.59-2.86v-1.94h4.49v-1c0-3.13-.55-4.59-2.88-4.59-2,0-3,1-3,4.3V307C115.81,310.23,116.71,311.35,118.8,311.35Zm-1.59-6.67v-.74c0-2.37.44-3,1.59-3,1.37,0,1.52,1.05,1.52,2.8v.92Zm6.49,6.5h1.42v-8.53a2.36,2.36,0,0,1,2.12-1.29,2.78,2.78,0,0,1,.69.12V300a1.1,1.1,0,0,0-.25,0,3,3,0,0,0-2.56,1.63v-1.52H123.7Z" style="fill:#2371aa"/><path id="Path_178" data-name="Path 178" d="M104,139.34c6,0,10-4.08,10-9.65,0-5.29-2.69-8.69-5.95-11.53l-3.94-3.45c-2.16-1.88-3.5-3.37-3.5-6.15,0-1.68.91-3.31,2.74-3.31,2.59,0,3,2.45,3.07,6l6.86-1c-.29-5-1.87-10.8-9.7-10.8-6.48,0-10.56,3.5-10.56,9.89,0,4.56,2.07,7.39,5,9.84l4,3.5c2.59,2.26,4.27,4.13,4.27,7.44,0,1.68-.62,3.17-2.64,3.17-2.54,0-3.7-2.35-3.84-7.2L93,127.24C93.38,135.49,96.83,139.34,104,139.34Zm22.08-.2a30.41,30.41,0,0,0,4.47-.38v-5.67a8.94,8.94,0,0,1-2.06.2,2.17,2.17,0,0,1-2.46-1.83,2.15,2.15,0,0,1,0-.62v-15h4v-4.75h-4V102.7h-7.34v8.36H116v4.75h2.74v15.75c0,4.8,1.53,7.58,7.39,7.58Zm8.69,7.49h1.54c4.94,0,8.3-1.58,9.5-7l6.44-28.61h-6.91l-2.89,17-3.5-17h-6.91l6.33,23.43a24.64,24.64,0,0,1,1,4.75c0,1.82-1.49,2.3-4.61,2.3Zm20.79-7.82h7.2V99.92h-7.2Zm21.08.48c5.76,0,8.93-3,8.93-8.6v-2.4h-6.72V131c0,2.21-.77,3.12-2.16,3.12s-2.16-1-2.16-3.4v-5.38h11.09v-4.85c0-6.39-2.64-9.89-9-9.89-6.05,0-9.32,3.4-9.32,9.7v9.31c0,6.24,3.22,9.7,9.32,9.7Zm-2.11-17.43V119.7c0-3,.67-3.94,2.11-3.94s2.21.91,2.21,3.41v2.69Z" style="fill:#24648d"/><path id="Path_162" data-name="Path 162" d="M65.2,390.4H76.92V361H89v-8.21H76.92V334H91.74v-8.13H65.2Zm46.15.72c10,0,14.83-5.82,14.83-16V359.63c0-10.2-4.78-16-14.83-16s-14.74,5.82-14.74,16v15.46C96.61,385.3,101.31,391.12,111.35,391.12Zm.08-7.5c-3.74,0-4.14-3.5-4.14-7.73v-17c0-4.3.4-7.82,4.14-7.82s4.07,3.51,4.07,7.82v17c0,4.31-.4,7.73-4.07,7.73Zm22.24,6.78h10.84V353.81c1.75-1.27,3.51-2.23,5-2.23,2.47,0,3.11,1.52,3.11,4.3V390.4h10.84V353.74c0-5.34-2.23-10.13-7.81-10.13-4.23,0-7.89,2.15-11.16,5.26v-4.54H133.67Zm51.09.56a41.27,41.27,0,0,0,6.93-.56V382a15.63,15.63,0,0,1-3.34.32c-2.79,0-4.15-1.28-4.15-4.39V351.42h6.93v-7.09H184.2V330.54H173.28v13.79h-4.62v7.09h4.62v27.5c0,7.49,2.63,12,11.48,12Z" style="fill:#2d7198"/><path id="Path_163" data-name="Path 163" d="M74.46,281.36c5.43,0,9.31-3.5,9.31-9.27,0-4.85-2.64-8.3-5.57-10.9l-6.57-5.76a6.13,6.13,0,0,1-2.54-5.28c0-2.83,1.58-4.27,4.27-4.27,4,0,4.9,3.26,5.18,7.1l4.61-1.25c-.62-6.81-3.6-10-9.79-10-5.62,0-9.13,3.26-9.13,9A10.22,10.22,0,0,0,68,259.27L74.51,265c2.45,2.17,4.23,4,4.23,7.49,0,3-1.49,4.57-4.28,4.57-4.17,0-5.23-4.18-5.52-8.36l-4.8,1.3C64.52,276.75,67.69,281.36,74.46,281.36Zm22.71,8.69h5.14V278.86a6.5,6.5,0,0,0,4.7,2.45c5.48,0,6.92-5.47,6.92-11.38v-6.72c0-3.31-.53-10.42-6.34-10.42a6.87,6.87,0,0,0-5.28,2.59v-2.21H97.17ZM106,277.28a6,6,0,0,1-3.7-1.25V258.26a5.76,5.76,0,0,1,3.5-1.44c2.64,0,3,2.93,3,6.39v6.72C108.79,274,108.65,277.28,106,277.28Zm27.18,4a5.88,5.88,0,0,0,5.62-4.46c.14,1.3.48,3.07.67,4.08h4.7a49.64,49.64,0,0,1-.48-6.67V261.58c0-5.72-2.11-8.79-7.58-8.79-5.67,0-8.26,2.83-8.36,9l5.09.19v-1.39c0-2.4.82-3.94,2.93-3.94,2.4,0,2.79,1.64,2.79,5v2c-6,2.35-11,4.36-11,11.28C127.61,278.14,129.91,281.31,133.18,281.31Zm2-4.42c-1.59,0-2.45-1.34-2.45-3.6,0-3.21,2.64-4.75,5.81-6.57v7.87C138.13,275.31,136.69,276.89,135.2,276.89Zm30.63,4.42c5.95,0,7.59-3.31,7.59-8.93v-1.92h-4.66v2.26c0,2.83-.29,4.8-2.83,4.8-2.3,0-3.08-1.2-3.08-6v-8.74c0-4.7.48-6.24,3-6.24,2.25,0,2.88,1.3,2.88,4.9v1.68h4.66v-1.63c0-5.71-1.54-8.74-7.59-8.74-6.72,0-8.11,4.13-8.11,11.09v6.39C157.71,276.94,159,281.31,165.83,281.31Zm29.43,0c5.67,0,7.83-3.41,7.83-9v-1.05h-5V273c0,2.78-.48,4.56-2.78,4.56s-3.12-1.44-3.12-4.8v-5.57h10.95v-2.26c0-7.58-.92-12.1-7.88-12.1-6.38,0-8.21,3.75-8.21,11.09v6.34c0,7.25,1.68,11.09,8.21,11.09Zm-3.07-16.95v-1.49c0-4.8.52-6.29,3-6.29s2.88,1.88,2.88,5.28v2.5Z" style="fill:#166183"/><path id="Path_188" data-name="Path 188" d="M94.18,86H96.3l.54-21.64L102,86h1.65l5.21-21.67L109.38,86h2.11l-.67-27.23h-2.55L102.79,82.4,97.41,58.77H94.86Zm24.7.3a4.23,4.23,0,0,0,4-3c.07.6.27,1.85.37,2.69h2.19c-.1-.7-.16-2.86-.16-3.86V72.68c0-4.37-1.28-6.42-4.74-6.42-3.73,0-5.25,1.89-5.28,5.82l2.42,0v-.67c0-2.55,1.21-3.33,2.72-3.33,1.85,0,2.42,1.18,2.42,4.71V74.2C117.11,76.75,115,78.06,115,82c0,2.42,1.54,4.34,3.9,4.34Zm.78-2.08c-1.18,0-2.22-.81-2.22-2.86,0-2.65,1.54-3.5,5.38-5.51v6a4,4,0,0,1-3.16,2.32ZM129,86h2.49V71.07a4.08,4.08,0,0,1,4.91-2V66.4a2.09,2.09,0,0,0-.43,0,5.34,5.34,0,0,0-4.48,2.86V66.56H129Zm14.66,6.39c3.76,0,6.42-1.41,6.42-4.5,0-2.66-1.75-4-4.87-4.5l-3.1-.48c-1.14-.13-1.61-.47-1.61-1.07a3.69,3.69,0,0,1,1.31-2.22,7.05,7.05,0,0,0,2,.3c3.9,0,5.34-2.89,5.34-6.79a12.64,12.64,0,0,0-.6-3.4A7,7,0,0,1,151.76,68l-.67-1.71-.5.17A6.25,6.25,0,0,0,148,68.68a4.3,4.3,0,0,0-4.17-2.42c-3.76,0-5.44,3.09-5.44,6.79,0,2.66.7,4.64,2.45,5.92-1.41,1.21-2.32,2.18-2.32,3.53,0,1,.64,1.71,2.15,2.11-1.59.81-3.2,2.32-3.2,4.24C137.44,91.27,139.83,92.38,143.69,92.38Zm.13-14.25c-2.82,0-3.26-2.86-3.26-5.08s.54-5,3.26-5,3.2,2.72,3.2,5S146.68,78.13,143.82,78.13Zm0,12.27c-2.89,0-4.27-.64-4.27-2.16S141,85.66,142,85l2.49.34c3,.47,3.66,1.31,3.66,2.62C148.16,89.66,146.38,90.4,143.79,90.4Zm9.71-26.52H156V60.55H153.5Zm0,22.11H156V66.57H153.5Zm6.59,0h2.45V70a5.16,5.16,0,0,1,3.36-1.81c1.25,0,1.85.74,1.85,2.75V86h2.46V70.4c0-2.62-1.08-4.14-3-4.14a6.53,6.53,0,0,0-4.68,2.32v-2h-2.45Z" style="fill:#225576"/><path id="Path_189" data-name="Path 189" d="M64.09,42.78h9.67c8.55,0,11.25-5.23,11.25-13.2v-17C85,5,82.26,0,73.39,0h-9.3Zm4-3V3.12h5.23c6.39,0,7.55,3.48,7.55,9.87v16c0,6.23-.64,10.83-7.4,10.83Zm30.36,3.48c5.92,0,7.93-3.64,7.93-9.19V32.38h-3.75v2.11c0,4.8-1.8,5.86-4.17,5.86-3.12,0-4.39-1.9-4.39-7.87V27.15h12.36V24.4c0-8.61-1.53-12.62-7.92-12.62-5.65,0-8.29,2.8-8.29,11.83v7.71C90.24,40.19,92.72,43.25,98.47,43.25ZM94.09,24.93V22.87c0-6.5,1.21-8.19,4.38-8.19,3.75,0,4.17,2.9,4.17,7.71v2.54Zm24.56,18.32c4.7,0,7.82-2.58,7.82-7.34,0-4.22-2.59-6.65-5.07-8.87l-4.33-3.85c-1.9-1.75-2.49-3-2.49-4.81,0-2.32,1.54-3.7,3.91-3.7,2.64,0,4.12,1.9,4.33,6l2.75-.9c-.26-4.7-2.59-8-7.24-8-4.38,0-7.28,2.48-7.28,6.87,0,3.27,1.42,5.39,4.17,7.66l4.17,3.59c2.59,2.17,3.7,4.12,3.7,6.13,0,2.75-1.53,4.33-4.17,4.33-3.12,0-4.92-2.06-5.34-6.76l-3.22,1C110.78,39.87,113.79,43.25,118.65,43.25ZM131.27,8h3.86V2.8h-3.86Zm0,34.75h3.86V12.25h-3.86Zm18.12,10c5.91,0,10.09-2.21,10.09-7.07,0-4.17-2.75-6.34-7.66-7.08L147,37.92c-1.8-.21-2.54-.74-2.54-1.69,0-1.16,1-2.43,2.06-3.48a10.63,10.63,0,0,0,3.12.47c6.13,0,8.4-4.54,8.4-10.67a19.71,19.71,0,0,0-.95-5.33,10.84,10.84,0,0,1,5-2.64L161,11.88l-.79.27a9.83,9.83,0,0,0-4.12,3.43,6.74,6.74,0,0,0-6.55-3.8c-5.92,0-8.56,4.86-8.56,10.67,0,4.17,1.11,7.29,3.86,9.3-2.22,1.9-3.65,3.43-3.65,5.54,0,1.59,1,2.7,3.38,3.33-2.48,1.27-5,3.65-5,6.66C139.56,51.07,143.31,52.81,149.39,52.81Zm.21-22.39c-4.44,0-5.12-4.49-5.12-8s.84-7.92,5.12-7.92,5,4.27,5,7.92-.53,8-5,8Zm0,19.28c-4.54,0-6.71-1-6.71-3.38s2.38-4.07,3.91-5.18l3.91.53c4.75.74,5.75,2.06,5.75,4.12C156.41,48.54,153.61,49.7,149.55,49.7Zm14.84-6.92h3.85V17.64c1.59-1.64,3.49-2.85,5.28-2.85,2,0,2.9,1.16,2.9,4.33V42.78h3.87V18.27c0-4.12-1.69-6.5-4.7-6.5a10.21,10.21,0,0,0-7.34,3.65V12.25h-3.86Z" style="fill:#5f88b1"/><path id="Path_190" data-name="Path 190" d="M76.67,139.12v-2.7H71.75l-.48-.28,5.4-1.77v-2.74L70,134l-5.51-2.26v2.63l5,2h-5v2.7Zm0-13.07v-5.52H74.84v2.82H71.19v-2.13H69.33v2.13h-3v-2.79H64.46v5.49Zm0-11.26v-2.7H71.19v-.77L76.66,110v-2.79l-5.91,1.68c-.57-1.21-1.56-1.5-3.07-1.5-2.57,0-3.23,1.6-3.23,4.06v3.36Zm-7-2.7H66.27v-.87c0-1,.61-1.35,1.65-1.35s1.72.34,1.72,1.47Zm7-10.87v-2.3H70.34l6.33-2.5V94.59H64.46v2.23h5.88l-5.88,2.5v1.9Zm0-13v-2.7H64.46v2.7Zm0-9V76.87H70.34l6.33-2.5V72.55H64.46v2.23h5.88l-5.88,2.5v1.9ZM76.85,63a2,2,0,0,0-1.19-2l1-.15V59.11H70.34v3.53h1.58v-1.1h1.43c.83,0,1.58.23,1.58,1.06s-.72,1-1.55,1H67.73c-.74,0-1.54-.06-1.54-.94s.69-.9,1.46-.9h1V59.13h-.79c-2.12,0-3.57.87-3.57,3.57s1.64,3.67,4.24,3.67h4.1c2.52,0,4.22-.82,4.22-3.35Z" style="fill:#0099d1"/><path id="Path_179" data-name="Path 179" d="M71.43,228.11h3.66V192.05h7.15v-2.83H64.09v2.83h7.34ZM85,235h.91c4.71,0,7.11-1.39,7.93-4.94l6.72-29.72H97L92.37,224l-4.8-23.62h-3.5l5.71,24.44a25.93,25.93,0,0,1,.91,4.61c0,1.73-.81,2.88-5.66,2.88Zm19.07,2.21h3.5V225.9a6.73,6.73,0,0,0,4.94,2.64c5.19,0,6.68-4.61,6.68-11.71V211c0-5.57-.91-11-6.29-11a6.7,6.7,0,0,0-5.33,2.73v-2.3h-3.5ZM112,225.76a6.08,6.08,0,0,1-4.42-2V204.82a6.6,6.6,0,0,1,4.32-2.16c3.26,0,3.79,2.88,3.79,8.31v5.95c0,5.77-.57,8.84-3.69,8.84Zm19.06,2.78c5.38,0,7.2-3.31,7.2-8.35v-1.54h-3.41v1.92c0,4.37-1.63,5.33-3.79,5.33-2.84,0-4-1.72-4-7.15V213.9h11.24v-2.5c0-7.83-1.4-11.48-7.2-11.48-5.14,0-7.54,2.55-7.54,10.76v7c0,8.07,2.25,10.85,7.49,10.85Zm-4-16.66V210c0-5.91,1.1-7.44,4-7.44,3.41,0,3.79,2.64,3.79,7v2.3Z" style="fill:#094c84"/><path id="Path_164" data-name="Path 164" d="M.81,8.51v12.1h45.5v8.13h8.94V.31H46.31v8.2Zm0,34.21V54.28H23.06L55.25,64.43V53.54l-17.2-4.63,17.2-5.18V32.37L23.05,42.72Zm0,28.64v12H23.93v4.84c0,8.81,3,15.73,15.53,15.73,10.08,0,15.8-4.57,15.8-14.32V71.36Zm31.52,12H46.78v4c0,4.84-3,5.31-7.12,5.31-5,0-7.33-.81-7.33-5.25ZM0,127.69c0,12.3,6.72,16.47,18,16.47H38.18C49.41,144.16,56,140,56,127.69c0-8.09-2.87-12.62-8.33-14.87a25.71,25.71,0,0,0-9.48-1.47H18C6.72,111.35,0,115.45,0,127.69Zm8.54,0c0-3.76,3.29-4,6.38-4H41.14c3.23,0,6.38.47,6.38,4,0,3.76-3.16,4.17-6.38,4.17H14.92c-3.09,0-6.38-.41-6.38-4.17ZM0,168c0,4.77,2.22,7.33,5.31,8.81l-4.5.67v7.93H29V169.7H22v4.91H15.59c-3.7,0-7.06-1-7.06-4.71s3.23-4.5,6.93-4.5H40.67c3.29,0,6.85.27,6.85,4.17s-3.09,4-6.52,4H36.57v11.77h3.5c9.48,0,15.93-3.9,15.93-15.93C56,157,48.67,153.1,37.11,153.1H18.82C7.59,153.1,0,156.72,0,168Zm.81,27.29v12h24.4v3.43l-24.4,6v12.44l26.35-7.46c2.55,5.37,7,6.65,13.71,6.65,11.42,0,14.38-7.12,14.38-18.08v-15Zm31.32,12H47.19v3.9c0,4.57-2.76,6-7.4,6-4.84,0-7.66-1.48-7.66-6.52Zm-31.32,28v11.36l11.49,1.88v8L.81,258.43v11.09l54.44-10.15V245.66Zm18.68,14.32,21.24,2.89-21.24,2.89ZM.81,277.38v12H23.93v4.83c0,8.81,3,15.73,15.53,15.73,10.08,0,15.8-4.57,15.8-14.31V277.38Zm31.52,12H46.78v4c0,4.84-3,5.31-7.12,5.31-5,0-7.33-.81-7.33-5.24ZM.81,318.31v12h23.8v8.4H.81v12.1H55.25v-12.1h-22v-8.4h22v-12Zm0,50v11.56H23.06L55.26,390V379.15l-17.21-4.63,17.2-5.18V358l-32.2,10.35Z" style="fill:#094c84"/></g></svg>
