<svg xmlns="http://www.w3.org/2000/svg" xmlns:xlink="http://www.w3.org/1999/xlink" width="302" height="411" viewBox="0 0 302 411">
  <defs>
    <clipPath id="clip-Oswald2">
      <rect width="302" height="411"/>
    </clipPath>
  </defs>
  <g id="Oswald2" clip-path="url(#clip-Oswald2)">
    <g id="Group_75" data-name="Group 75" transform="translate(11047 3079)">
      <path id="Path_177" data-name="Path 177" d="M2.475,39H4.257V26.229H8.778c4.752,0,6.171-3.5,6.171-7.062,0-3.96-1.386-6.9-6.2-6.9H2.475ZM4.257,24.843V13.656H8.415c3.4,0,4.686,1.221,4.686,5.511,0,4.158-1.485,5.676-4.719,5.676ZM20.823,39.3a4.242,4.242,0,0,0,3.993-2.838c.033.429.2,1.617.3,2.541h1.518c-.066-.363-.1-2.805-.1-3.333v-9.6c0-4.521-1.122-6.435-4.323-6.435-3.5,0-4.818,1.782-4.818,5.412h1.716v-.495c0-3.036,1.518-3.6,3.036-3.6,1.947,0,2.64,1.155,2.64,5.313v1.353C18.282,30.684,17,31.872,17,35.139,17,37.614,18.513,39.3,20.823,39.3Zm.429-1.452c-1.221,0-2.508-.693-2.508-2.97,0-2.838,1.353-3.531,6.039-5.973v6.27A4.186,4.186,0,0,1,21.252,37.845ZM30.36,39h1.749V23.919a4.629,4.629,0,0,1,4.125-2.442,2.574,2.574,0,0,1,.726.1V19.761a1.238,1.238,0,0,0-.33-.033A5.522,5.522,0,0,0,32.109,22.5V19.926H30.36Zm12.177.3a4.242,4.242,0,0,0,3.993-2.838c.033.429.2,1.617.3,2.541h1.518c-.066-.363-.1-2.805-.1-3.333v-9.6c0-4.521-1.122-6.435-4.323-6.435-3.5,0-4.818,1.782-4.818,5.412h1.716v-.495c0-3.036,1.518-3.6,3.036-3.6,1.947,0,2.64,1.155,2.64,5.313v1.353c-6.5,3.069-7.788,4.257-7.788,7.524C38.709,37.614,40.227,39.3,42.537,39.3Zm.429-1.452c-1.221,0-2.508-.693-2.508-2.97,0-2.838,1.353-3.531,6.039-5.973v6.27A4.186,4.186,0,0,1,42.966,37.845Zm13.662,7.623c3.267,0,6.138-1.221,6.138-4.224,0-2.442-1.914-3.7-5.016-4.257l-3.1-.561c-1.122-.2-1.584-.528-1.584-1.221,0-.825.825-1.749,1.683-2.607a6.031,6.031,0,0,0,2.046.33c3.729,0,5.247-2.9,5.247-6.7a11.665,11.665,0,0,0-.627-3.234,6.044,6.044,0,0,1,3.069-1.914l-.495-1.32-.462.165a5.249,5.249,0,0,0-2.574,2.244,4.468,4.468,0,0,0-4.224-2.541c-3.762,0-5.313,3.432-5.313,6.567,0,2.376.627,4.554,2.508,5.907-1.419,1.188-2.376,2.211-2.376,3.432,0,1.089.66,1.683,2.31,2.112-1.65.858-3.4,2.508-3.4,4.455C50.457,44.379,52.635,45.468,56.628,45.468Zm.165-13.827c-3.267,0-3.762-3.4-3.762-5.445,0-1.782.66-5.28,3.729-5.28,3.036,0,3.663,3.267,3.663,5.28C60.423,28.308,60.06,31.641,56.793,31.641Zm-.165,12.408c-3,0-4.653-.693-4.653-2.376,0-1.815,1.914-3.069,3.036-3.729l2.079.363c3.531.627,4.191,1.584,4.191,2.97C61.281,43.224,59.2,44.049,56.628,44.049ZM66.231,39H67.98V23.919a4.629,4.629,0,0,1,4.125-2.442,2.574,2.574,0,0,1,.726.1V19.761a1.238,1.238,0,0,0-.33-.033A5.522,5.522,0,0,0,67.98,22.5V19.926H66.231Zm12.177.3A4.242,4.242,0,0,0,82.4,36.459c.033.429.2,1.617.3,2.541h1.518c-.066-.363-.1-2.805-.1-3.333v-9.6c0-4.521-1.122-6.435-4.323-6.435-3.5,0-4.818,1.782-4.818,5.412h1.716v-.495c0-3.036,1.518-3.6,3.036-3.6,1.947,0,2.64,1.155,2.64,5.313v1.353c-6.5,3.069-7.788,4.257-7.788,7.524C74.58,37.614,76.1,39.3,78.408,39.3Zm.429-1.452c-1.221,0-2.508-.693-2.508-2.97,0-2.838,1.353-3.531,6.039-5.973v6.27A4.186,4.186,0,0,1,78.837,37.845Zm8.877,7.425h1.749V37.416a4.549,4.549,0,0,0,3.5,1.881c3.432,0,4.488-2.805,4.488-8.151V27.483c0-4.785-.792-7.854-4.323-7.854a4.617,4.617,0,0,0-3.663,1.914V19.926H87.714Zm5.049-7.326a4.47,4.47,0,0,1-3.3-1.716V22.764a4.806,4.806,0,0,1,3.3-1.782c2.475,0,2.937,1.947,2.937,6.5v3.729C95.7,35.865,95.139,37.944,92.763,37.944ZM100.914,39h1.749V23.094a5.6,5.6,0,0,1,3.8-2.112c1.221,0,1.98.66,1.98,3V39h1.782V23.787c0-3.036-1.32-4.158-3-4.158a6.167,6.167,0,0,0-4.554,2.31V12.27h-1.749Z" transform="translate(-10921.462 -2933.458)" fill="#258abf"/>
      <path id="Path_161" data-name="Path 161" d="M5.18.2c3.02,0,3.84-2,3.84-4.84V-5.6H7.58v1.06c0,2.12-.36,3.52-2.38,3.52-2,0-2.58-1.2-2.58-3.6v-6.9c0-2.16.38-3.62,2.58-3.62,2.02,0,2.38,1.32,2.38,3.42v.94H9.02v-.98c0-2.82-.94-4.6-3.84-4.6-3.22,0-4.1,2.08-4.1,5.06v6.44C1.08-2.04,1.9.2,5.18.2ZM11.12,0h1.46V-9.5a3.121,3.121,0,0,1,2.02-1.1c.74,0,1.1.44,1.1,1.64V0h1.48V-9.28c0-1.56-.64-2.46-1.78-2.46a3.9,3.9,0,0,0-2.82,1.4V-16.2H11.12ZM21.34.18A2.519,2.519,0,0,0,23.72-1.6c.04.36.16,1.1.22,1.6h1.3c-.06-.42-.1-1.7-.1-2.3V-7.92c0-2.6-.76-3.82-2.82-3.82-2.22,0-3.12,1.12-3.14,3.46l1.44.02v-.4c0-1.52.72-1.98,1.62-1.98,1.1,0,1.44.7,1.44,2.8v.82c-3.4,1.52-4.66,2.3-4.66,4.62A2.377,2.377,0,0,0,21.34.18Zm.46-1.24c-.7,0-1.32-.48-1.32-1.7,0-1.58.92-2.08,3.2-3.28v3.6A2.355,2.355,0,0,1,21.8-1.06ZM27.38,0h1.48V-8.88a2.451,2.451,0,0,1,2.2-1.34,2.579,2.579,0,0,1,.72.12v-1.56a1.327,1.327,0,0,0-.26-.02,3.175,3.175,0,0,0-2.66,1.7v-1.58H27.38Zm7.78.18A2.519,2.519,0,0,0,37.54-1.6c.04.36.16,1.1.22,1.6h1.3c-.06-.42-.1-1.7-.1-2.3V-7.92c0-2.6-.76-3.82-2.82-3.82-2.22,0-3.12,1.12-3.14,3.46l1.44.02v-.4c0-1.52.72-1.98,1.62-1.98,1.1,0,1.44.7,1.44,2.8v.82c-3.4,1.52-4.66,2.3-4.66,4.62A2.377,2.377,0,0,0,35.16.18Zm.46-1.24c-.7,0-1.32-.48-1.32-1.7,0-1.58.92-2.08,3.2-3.28v3.6A2.355,2.355,0,0,1,35.62-1.06ZM43.98.18c2.5,0,2.94-1.62,2.94-3.96v-.56H45.56v.64c0,1.88-.18,2.78-1.56,2.78-1.32,0-1.66-.84-1.66-3.16V-7.32c0-2.44.26-3.32,1.64-3.32,1.16,0,1.58.58,1.58,2.6v.56h1.36v-.56c0-2.2-.5-3.7-2.94-3.7-2.48,0-3.1,1.46-3.1,4.66v2.7C40.88-1.76,41.28.18,43.98.18ZM51.62.14A6.671,6.671,0,0,0,52.86.02V-1.1a4.352,4.352,0,0,1-.84.1C51.16-1,51-1.42,51-2.54V-10.6h1.92v-.96H51v-3.58H49.54v3.58H48.12v.96h1.42v8.2C49.54-.92,49.92.14,51.62.14Zm5.76.04c2.24,0,3-1.38,3-3.48v-.64H58.96v.8c0,1.82-.68,2.22-1.58,2.22-1.18,0-1.66-.72-1.66-2.98V-5.92H60.4V-6.96c0-3.26-.58-4.78-3-4.78-2.14,0-3.14,1.06-3.14,4.48v2.92C54.26-.98,55.2.18,57.38.18ZM55.72-6.76v-.78c0-2.46.46-3.1,1.66-3.1,1.42,0,1.58,1.1,1.58,2.92v.96ZM62.48,0h1.48V-8.88a2.451,2.451,0,0,1,2.2-1.34,2.579,2.579,0,0,1,.72.12v-1.56a1.328,1.328,0,0,0-.26-.02,3.175,3.175,0,0,0-2.66,1.7v-1.58H62.48Z" transform="translate(-10938.653 -2751.584)" fill="#2371aa"/>
      <path id="Path_178" data-name="Path 178" d="M13.5.55C19.8.55,23.95-3.7,23.95-9.5c0-5.5-2.8-9.05-6.2-12l-4.1-3.6C11.4-27.05,10-28.6,10-31.5c0-1.75.95-3.45,2.85-3.45,2.7,0,3.1,2.55,3.2,6.25l7.15-1.05C22.9-34.95,21.25-41,13.1-41c-6.75,0-11,3.65-11,10.3,0,4.75,2.15,7.7,5.15,10.25l4.2,3.65c2.7,2.35,4.45,4.3,4.45,7.75,0,1.75-.65,3.3-2.75,3.3-2.65,0-3.85-2.45-4-7.5l-7.1,1.2C2.4-3.45,6,.55,13.5.55Zm23-.2a32.119,32.119,0,0,0,4.65-.4v-5.9a9.251,9.251,0,0,1-2.15.2A2.253,2.253,0,0,1,36.45-8.3V-23.95h4.2V-28.9h-4.2v-8.7H28.8v8.7H25.95v4.95H28.8v16.4C28.8-2.55,30.4.35,36.5.35Zm9.05,7.8h1.6c5.15,0,8.65-1.65,9.9-7.25l6.7-29.8h-7.2l-3,17.75L49.9-28.9H42.7L49.3-4.5A26.757,26.757,0,0,1,50.35.45c0,1.9-1.55,2.4-4.8,2.4ZM67.2,0h7.5V-40.5H67.2ZM89.15.5c6,0,9.3-3.15,9.3-8.95v-2.5h-7v2.8c0,2.3-.8,3.25-2.25,3.25s-2.25-1-2.25-3.55v-5.6H98.5V-19.1c0-6.65-2.75-10.3-9.35-10.3-6.3,0-9.7,3.55-9.7,10.1v9.7C79.45-3.1,82.8.5,89.15.5Zm-2.2-18.15V-19.9c0-3.15.7-4.1,2.2-4.1,1.55,0,2.3.95,2.3,3.55v2.8Z" transform="translate(-10861.54 -2932.929)" fill="#24648d"/>
      <path id="Path_162" data-name="Path 162" d="M5.063,0h12.2V-30.627H29.88v-8.549H17.264V-58.764H32.7V-67.23H5.063ZM53.12.747c10.458,0,15.438-6.059,15.438-16.683v-16.1c0-10.624-4.98-16.683-15.438-16.683S37.765-42.662,37.765-32.038v16.1C37.765-5.312,42.662.747,53.12.747Zm.083-7.8c-3.9,0-4.316-3.652-4.316-8.051V-32.785c0-4.482.415-8.134,4.316-8.134,3.818,0,4.233,3.652,4.233,8.134v17.679C57.436-10.624,57.021-7.055,53.2-7.055ZM76.36,0H87.648V-38.1c1.826-1.328,3.652-2.324,5.229-2.324,2.573,0,3.237,1.577,3.237,4.482V0H107.4V-38.18c0-5.561-2.324-10.541-8.134-10.541-4.4,0-8.217,2.241-11.62,5.478v-4.731H76.36Zm53.2.581A43,43,0,0,0,136.784,0V-8.715a16.028,16.028,0,0,1-3.486.332c-2.9,0-4.316-1.328-4.316-4.565V-40.587H136.2v-7.387h-7.221V-62.333H117.611v14.359H112.8v7.387h4.814v28.635C117.611-4.15,120.35.581,129.563.581Z" transform="translate(-10893.54 -2668.297)" fill="#2d7198"/>
      <path id="Path_163" data-name="Path 163" d="M12.7.45c5.65,0,9.7-3.65,9.7-9.65,0-5.05-2.75-8.65-5.8-11.35l-6.85-6a6.419,6.419,0,0,1-2.65-5.5c0-2.95,1.65-4.45,4.45-4.45,4.2,0,5.1,3.4,5.4,7.4l4.8-1.3C21.1-37.5,18-40.85,11.55-40.85c-5.85,0-9.5,3.4-9.5,9.35,0,4.05,1.2,6.6,3.9,8.95l6.8,6c2.55,2.25,4.4,4.15,4.4,7.8C17.15-5.65,15.6-4,12.7-4,8.35-4,7.25-8.35,6.95-12.7l-5,1.35C2.35-4.35,5.65.45,12.7.45ZM36.35,9.5H41.7V-2.15A6.784,6.784,0,0,0,46.6.4c5.7,0,7.2-5.7,7.2-11.85v-7c0-3.45-.55-10.85-6.6-10.85a7.162,7.162,0,0,0-5.5,2.7v-2.3H36.35Zm9.2-13.3A6.247,6.247,0,0,1,41.7-5.1V-23.6a5.866,5.866,0,0,1,3.65-1.5c2.75,0,3.1,3.05,3.1,6.65v7C48.45-7.2,48.3-3.8,45.55-3.8ZM73.85.4A6.125,6.125,0,0,0,79.7-4.25c.15,1.35.5,3.2.7,4.25h4.9a51.791,51.791,0,0,1-.5-6.95v-13.2c0-5.95-2.2-9.15-7.9-9.15-5.9,0-8.6,2.95-8.7,9.35l5.3.2V-21.2c0-2.5.85-4.1,3.05-4.1,2.5,0,2.9,1.7,2.9,5.2v2.05c-6.2,2.45-11.4,4.55-11.4,11.75C68.05-2.9,70.45.4,73.85.4Zm2.1-4.6c-1.65,0-2.55-1.4-2.55-3.75,0-3.35,2.75-4.95,6.05-6.85v8.2C79-5.85,77.5-4.2,75.95-4.2ZM107.85.4c6.2,0,7.9-3.45,7.9-9.3v-2H110.9v2.35c0,2.95-.3,5-2.95,5-2.4,0-3.2-1.25-3.2-6.2v-9.1c0-4.9.5-6.5,3.15-6.5,2.35,0,3,1.35,3,5.1v1.75h4.85v-1.7c0-5.95-1.6-9.1-7.9-9.1-7,0-8.45,4.3-8.45,11.55v6.65C99.4-4.15,100.75.4,107.85.4ZM138.5.4c5.9,0,8.15-3.55,8.15-9.35v-1.1h-5.2V-8.3c0,2.9-.5,4.75-2.9,4.75-2.3,0-3.25-1.5-3.25-5v-5.8h11.4V-16.7c0-7.9-.95-12.6-8.2-12.6-6.65,0-8.55,3.9-8.55,11.55v6.6C129.95-3.6,131.7.4,138.5.4Zm-3.2-17.65V-18.8c0-5,.55-6.55,3.15-6.55,2.65,0,3,1.95,3,5.5v2.6Z" transform="translate(-10891.54 -2783.389)" fill="#166183"/>
      <path id="Path_188" data-name="Path 188" d="M2.24,0H4.445l.56-22.54L10.36,0h1.715L17.5-22.575,18.06,0h2.2l-.7-28.35h-2.66L11.2-3.745,5.6-28.35H2.94ZM27.965.315A4.407,4.407,0,0,0,32.13-2.8c.07.63.28,1.925.385,2.8H34.79c-.105-.735-.175-2.975-.175-4.025V-13.86c0-4.55-1.33-6.685-4.935-6.685-3.885,0-5.46,1.96-5.495,6.055l2.52.035v-.7c0-2.66,1.26-3.465,2.835-3.465,1.925,0,2.52,1.225,2.52,4.9v1.435C26.11-9.625,23.9-8.26,23.9-4.2,23.9-1.68,25.515.315,27.965.315Zm.805-2.17c-1.225,0-2.31-.84-2.31-2.975,0-2.765,1.61-3.64,5.6-5.74v6.3A4.122,4.122,0,0,1,28.77-1.855ZM38.535,0h2.59V-15.54a4.289,4.289,0,0,1,3.85-2.345,4.512,4.512,0,0,1,1.26.21v-2.73a2.323,2.323,0,0,0-.455-.035,5.556,5.556,0,0,0-4.655,2.975V-20.23h-2.59Zm15.26,6.65c3.92,0,6.685-1.47,6.685-4.69,0-2.765-1.82-4.2-5.075-4.69l-3.22-.49c-1.19-.14-1.68-.49-1.68-1.12A3.855,3.855,0,0,1,51.87-6.65a7.115,7.115,0,0,0,2.065.315c4.06,0,5.565-3.01,5.565-7.07a13.142,13.142,0,0,0-.63-3.535,7.2,7.2,0,0,1,3.325-1.75l-.7-1.785-.525.175a6.529,6.529,0,0,0-2.73,2.275,4.464,4.464,0,0,0-4.34-2.52c-3.92,0-5.67,3.22-5.67,7.07,0,2.765.735,4.83,2.555,6.16C49.315-6.055,48.37-5.04,48.37-3.64c0,1.05.665,1.785,2.24,2.205C48.965-.6,47.285.98,47.285,2.975,47.285,5.5,49.77,6.65,53.795,6.65Zm.14-14.84c-2.94,0-3.4-2.975-3.4-5.285,0-2.275.56-5.25,3.4-5.25,2.8,0,3.325,2.835,3.325,5.25C57.26-11.025,56.91-8.19,53.935-8.19ZM53.9,4.585c-3.01,0-4.445-.665-4.445-2.24s1.575-2.7,2.59-3.43l2.59.35C57.785-.245,58.45.63,58.45,2,58.45,3.815,56.595,4.585,53.9,4.585ZM64.015-23.03H66.57V-26.5H64.015Zm0,23.03H66.57V-20.23H64.015Zm6.86,0H73.43V-16.66a5.33,5.33,0,0,1,3.5-1.89c1.295,0,1.925.77,1.925,2.87V0H81.41V-16.24c0-2.73-1.12-4.305-3.115-4.305A6.759,6.759,0,0,0,73.43-18.13v-2.1H70.875Z" transform="translate(-10883.974 -2988.391)" fill="#225576"/>
      <path id="Path_189" data-name="Path 189" d="M3.905,0H13.97c8.91,0,11.715-5.445,11.715-13.75V-31.46c0-7.865-2.86-13.09-12.1-13.09H3.905Zm4.18-3.135v-38.17H13.53c6.655,0,7.865,3.63,7.865,10.285v16.61c0,6.49-.66,11.275-7.7,11.275ZM39.71.495c6.16,0,8.25-3.795,8.25-9.57v-1.76h-3.9v2.2c0,5.005-1.87,6.105-4.345,6.105-3.245,0-4.565-1.98-4.565-8.195V-16.28h12.87v-2.86c0-8.965-1.595-13.145-8.25-13.145-5.885,0-8.635,2.915-8.635,12.32v8.03C31.13-2.695,33.715.495,39.71.495ZM35.145-18.59v-2.145c0-6.765,1.265-8.525,4.565-8.525,3.905,0,4.345,3.025,4.345,8.03v2.64ZM60.72.495c4.9,0,8.14-2.7,8.14-7.645,0-4.4-2.695-6.93-5.28-9.24L59.07-20.4c-1.98-1.815-2.585-3.08-2.585-5.005,0-2.42,1.6-3.85,4.07-3.85,2.75,0,4.29,1.98,4.51,6.27l2.86-.935c-.275-4.9-2.695-8.36-7.535-8.36-4.565,0-7.59,2.585-7.59,7.15,0,3.41,1.485,5.61,4.345,7.975l4.345,3.74c2.695,2.255,3.85,4.29,3.85,6.38,0,2.86-1.6,4.51-4.345,4.51-3.245,0-5.115-2.145-5.555-7.04L52.085-8.525C52.525-3.025,55.66.495,60.72.495ZM73.865-36.19H77.88v-5.445H73.865Zm0,36.19H77.88V-31.79H73.865ZM92.73,10.45c6.16,0,10.5-2.31,10.5-7.37,0-4.345-2.86-6.6-7.975-7.37L90.2-5.06c-1.87-.22-2.64-.77-2.64-1.76,0-1.21,1.045-2.53,2.145-3.63a11.181,11.181,0,0,0,3.245.495c6.38,0,8.745-4.73,8.745-11.11a20.651,20.651,0,0,0-.99-5.555,11.308,11.308,0,0,1,5.225-2.75l-1.1-2.805-.825.275a10.26,10.26,0,0,0-4.29,3.575,7.015,7.015,0,0,0-6.82-3.96c-6.16,0-8.91,5.06-8.91,11.11,0,4.345,1.155,7.59,4.015,9.68-2.31,1.98-3.795,3.575-3.795,5.775,0,1.65,1.045,2.805,3.52,3.465C85.14-.935,82.5,1.54,82.5,4.675,82.5,8.635,86.4,10.45,92.73,10.45Zm.22-23.32c-4.62,0-5.335-4.675-5.335-8.3,0-3.575.88-8.25,5.335-8.25,4.4,0,5.225,4.455,5.225,8.25C98.175-17.325,97.625-12.87,92.95-12.87ZM92.9,7.2c-4.73,0-6.985-1.045-6.985-3.52S88.385-.55,89.98-1.7l4.07.55c4.95.77,5.995,2.145,5.995,4.29C100.045,5.995,97.13,7.2,92.9,7.2ZM108.35,0h4.015V-26.18c1.65-1.705,3.63-2.97,5.5-2.97,2.035,0,3.025,1.21,3.025,4.51V0H124.9V-25.52c0-4.29-1.76-6.765-4.9-6.765a10.622,10.622,0,0,0-7.645,3.8v-3.3H108.35Z" transform="translate(-10893.54 -3034)" fill="#5f88b1"/>
      <path id="Path_190" data-name="Path 190" d="M0,12.89H2.81V7.772l.3-.5L4.945,12.89H7.8L5.338,5.919,7.693.173H4.945L2.81,5.369V.173H0Zm13.612,0h5.746v-1.9H16.422v-3.8h2.214V5.244H16.422V2.088h2.9V.173H13.612Zm11.728,0h2.81v-5.7h.8l1.4,5.7h2.9L31.51,6.735c1.256-.6,1.554-1.633,1.554-3.2,0-2.669-1.664-3.36-4.223-3.36h-3.5Zm2.81-7.316V2.057h.911c1.068,0,1.4.644,1.4,1.727,0,1.13-.345,1.79-1.523,1.79ZM39.47,12.89h2.4V6.3l2.606,6.594h1.9V.173H44.054V6.3L41.448.173H39.47ZM53,12.89h2.81V.173H53Zm9.42,0h2.4V6.3l2.606,6.594h1.9V.173H67.008V6.3L64.4.173H62.423Zm16.83.188a2.071,2.071,0,0,0,2.057-1.24l.157,1.052H83.32V6.3H79.646V7.944h1.146V9.436c0,.864-.235,1.649-1.1,1.649s-1.052-.754-1.052-1.617V3.58c0-.769.063-1.6.973-1.6.879,0,.942.722.942,1.523V4.537H83.3V3.721C83.3,1.507,82.394,0,79.583,0c-2.9,0-3.815,1.711-3.815,4.412v4.27C75.768,11.3,76.616,13.078,79.254,13.078Z" transform="translate(-10949.373 -2932.968) rotate(-90)" fill="#0099d1"/>
      <path id="Path_179" data-name="Path 179" d="M8.55,60h3.8V22.45H19.8V19.5H.9v2.95H8.55ZM22.7,67.2h.95c4.9,0,7.4-1.45,8.25-5.15l7-30.95H35.2L30.35,55.7l-5-24.6H21.7l5.95,25.45a27.451,27.451,0,0,1,.95,4.8c0,1.8-.85,3-5.9,3Zm19.85,2.3H46.2V57.7a7.029,7.029,0,0,0,5.15,2.75c5.4,0,6.95-4.8,6.95-12.2v-6.1c0-5.8-.95-11.5-6.55-11.5A6.978,6.978,0,0,0,46.2,33.5V31.1H42.55ZM50.8,57.55a6.343,6.343,0,0,1-4.6-2.1V35.75a6.846,6.846,0,0,1,4.5-2.25c3.4,0,3.95,3,3.95,8.65v6.2C54.65,54.35,54.05,57.55,50.8,57.55Zm19.85,2.9c5.6,0,7.5-3.45,7.5-8.7v-1.6H74.6v2c0,4.55-1.7,5.55-3.95,5.55-2.95,0-4.15-1.8-4.15-7.45V45.2H78.2V42.6c0-8.15-1.45-11.95-7.5-11.95-5.35,0-7.85,2.65-7.85,11.2v7.3C62.85,57.55,65.2,60.45,70.65,60.45ZM66.5,43.1V41.15c0-6.15,1.15-7.75,4.15-7.75,3.55,0,3.95,2.75,3.95,7.3v2.4Z" transform="translate(-10936.026 -2898.958)" fill="#094c84"/>
      <path id="Path_164" data-name="Path 164" d="M8.618,57.47H21.333V10.08H29.88V.77H0v9.31H8.618Zm35.955,0h12.15V34.3L67.389.77H55.946L51.072,18.69,45.633.77H33.695L44.573,34.3Zm30.092,0H87.309V33.39H92.4c9.254,0,16.529-3.08,16.529-16.17,0-10.5-4.8-16.45-15.046-16.45H74.665ZM87.309,24.64V9.59h4.168c5.086,0,5.58,3.15,5.58,7.42,0,5.18-.848,7.63-5.51,7.63ZM133.86,58.31c12.927,0,17.306-7,17.306-18.69V18.55C151.167,6.86,146.787,0,133.86,0,121,0,116.7,6.86,116.7,18.55V39.62C116.7,51.31,121,58.31,133.86,58.31Zm0-8.89c-3.956,0-4.238-3.43-4.238-6.65V15.47c0-3.36.494-6.65,4.238-6.65,3.956,0,4.38,3.29,4.38,6.65v27.3C138.24,45.99,137.816,49.42,133.86,49.42Zm42.383,8.89c5.015,0,7.7-2.31,9.254-5.53l.706,4.69h8.335V28.07H178.009v7.35h5.157v6.65c0,3.85-1.06,7.35-4.945,7.35s-4.733-3.36-4.733-7.21V15.96c0-3.43.283-7.14,4.38-7.14,3.956,0,4.238,3.22,4.238,6.79v4.62h12.362V16.59c0-9.87-4.1-16.59-16.741-16.59-13.068,0-17.165,7.63-17.165,19.67V38.71C160.562,50.4,164.376,58.31,176.243,58.31Zm28.679-.84h12.644V32.06h3.6l6.287,25.41h13.068l-7.841-27.44c5.651-2.66,6.993-7.28,6.993-14.28,0-11.9-7.488-14.98-19-14.98H204.923Zm12.644-32.62V9.17h4.1c4.8,0,6.287,2.87,6.287,7.7,0,5.04-1.554,7.98-6.852,7.98Zm29.456,32.62h11.938l1.978-11.97h8.406l1.907,11.97h11.655L272.241.77h-14.41Zm15.046-19.46,3.037-22.12,3.037,22.12Zm29.1,19.46h12.644V33.39H308.9c9.254,0,16.529-3.08,16.529-16.17,0-10.5-4.8-16.45-15.046-16.45H291.173Zm12.644-32.83V9.59h4.168c5.086,0,5.58,3.15,5.58,7.42,0,5.18-.848,7.63-5.51,7.63Zm30.375,32.83h12.644V32.69h8.83V57.47h12.715V.77H355.666V23.73h-8.83V.77H334.191Zm52.555,0H398.9V34.3L409.563.77H398.119l-4.874,17.92L387.806.77H375.868L386.747,34.3Z" transform="translate(-10988.53 -3078.23) rotate(90)" fill="#094c84"/>
    </g>
  </g>
</svg>
