<svg xmlns="http://www.w3.org/2000/svg" xmlns:xlink="http://www.w3.org/1999/xlink" width="302" height="411" viewBox="0 0 302 411">
  <defs>
    <clipPath id="clip-Playfair2">
      <rect width="302" height="411"/>
    </clipPath>
  </defs>
  <g id="Playfair2" clip-path="url(#clip-Playfair2)">
    <g id="Group_74" data-name="Group 74" transform="translate(11068 3701)">
      <path id="Path_211" data-name="Path 211" d="M7.128,26.562V32.5a4.562,4.562,0,0,0,.264,1.815,1.409,1.409,0,0,0,.924.759,9.759,9.759,0,0,0,2.145.264V36q-1.716-.1-4.851-.1-2.838,0-4.224.1v-.66a6.574,6.574,0,0,0,1.732-.264,1.187,1.187,0,0,0,.743-.759,5.96,5.96,0,0,0,.2-1.815V16.134a5.96,5.96,0,0,0-.2-1.815,1.187,1.187,0,0,0-.743-.759A6.574,6.574,0,0,0,1.386,13.3v-.66q1.386.1,4.026.1L8.976,12.7q.627-.033,1.419-.033A8.79,8.79,0,0,1,16.3,14.434a5.938,5.938,0,0,1,2.046,4.736,7.881,7.881,0,0,1-.809,3.482A6.594,6.594,0,0,1,14.8,25.44a10.171,10.171,0,0,1-5.131,1.122ZM9.57,13.3a3.9,3.9,0,0,0-1.535.231,1.306,1.306,0,0,0-.709.825,6.006,6.006,0,0,0-.2,1.782V25.9H9.339q3.234,0,4.472-1.733a7.822,7.822,0,0,0,1.238-4.637,7.264,7.264,0,0,0-1.271-4.719Q12.507,13.3,9.57,13.3ZM36.663,33.228q.792,2.046,2.277,2.112V36q-1.32-.1-3.531-.1-2.838,0-4.224.1v-.66a5.4,5.4,0,0,0,1.8-.313.909.909,0,0,0,.545-.908,4.534,4.534,0,0,0-.4-1.551l-2.013-5.412H23.133l-1.353,3.5a8.637,8.637,0,0,0-.66,2.706,1.641,1.641,0,0,0,.71,1.485,4.2,4.2,0,0,0,2.161.495V36q-1.881-.1-3.8-.1-1.485,0-2.475.1v-.66q1.65-.4,2.607-2.871l7.755-20h.528ZM30.855,26.5l-3.7-9.867L23.4,26.5ZM59.862,34.35a5.725,5.725,0,0,1-1.518,1.617,3.636,3.636,0,0,1-2.013.5A3.192,3.192,0,0,1,54.1,35.67,5.173,5.173,0,0,1,52.8,32.9l-.726-3.3a22.118,22.118,0,0,0-.743-2.64,3.4,3.4,0,0,0-1.04-1.485,3.018,3.018,0,0,0-1.947-.561H45.21V32.5a5.96,5.96,0,0,0,.2,1.815,1.187,1.187,0,0,0,.743.759,6.574,6.574,0,0,0,1.732.264V36q-1.518-.1-4.191-.1-2.838,0-4.224.1v-.66a6.574,6.574,0,0,0,1.732-.264,1.187,1.187,0,0,0,.743-.759,5.96,5.96,0,0,0,.2-1.815V16.134a5.96,5.96,0,0,0-.2-1.815,1.187,1.187,0,0,0-.743-.759,6.573,6.573,0,0,0-1.732-.264v-.66q1.386.1,4.026.1l3.564-.033q.627-.033,1.419-.033a9.434,9.434,0,0,1,5.89,1.6,5.007,5.007,0,0,1,2.063,4.142A6.067,6.067,0,0,1,55.82,21a6.166,6.166,0,0,1-2.046,2.343,8.58,8.58,0,0,1-3.745,1.4l.4.066a5.9,5.9,0,0,1,3.168,1.32,5.939,5.939,0,0,1,1.452,3.036l.825,3.366a7.482,7.482,0,0,0,.693,2.112,1.113,1.113,0,0,0,.99.594,1.479,1.479,0,0,0,.94-.3,5.192,5.192,0,0,0,.875-.957ZM47.652,13.3a3.9,3.9,0,0,0-1.535.231,1.306,1.306,0,0,0-.709.825,6.006,6.006,0,0,0-.2,1.782v8.118h2.211q3.267,0,4.488-1.452a6.069,6.069,0,0,0,1.221-4.026,5.815,5.815,0,0,0-1.287-4.092A5.494,5.494,0,0,0,47.652,13.3ZM78.177,33.228q.792,2.046,2.277,2.112V36q-1.32-.1-3.531-.1-2.838,0-4.224.1v-.66a5.4,5.4,0,0,0,1.8-.313.909.909,0,0,0,.545-.908,4.534,4.534,0,0,0-.4-1.551l-2.013-5.412H64.647l-1.353,3.5a8.637,8.637,0,0,0-.66,2.706,1.641,1.641,0,0,0,.709,1.485,4.2,4.2,0,0,0,2.161.495V36q-1.881-.1-3.795-.1-1.485,0-2.475.1v-.66q1.65-.4,2.607-2.871l7.755-20h.528ZM72.369,26.5l-3.7-9.867L64.911,26.5ZM92.334,12.174a8.089,8.089,0,0,1,3.2.545,15.439,15.439,0,0,1,2.739,1.6,1.282,1.282,0,0,0,.66.33q.627,0,.825-2.013h.759q-.132,2.145-.132,7.59h-.759A26.732,26.732,0,0,0,99,17.338a5.634,5.634,0,0,0-1.023-2,6.647,6.647,0,0,0-2.492-1.881,7.731,7.731,0,0,0-3.217-.693,5.693,5.693,0,0,0-3.828,1.419A9.006,9.006,0,0,0,85.9,18.229a19.047,19.047,0,0,0-.891,6.122q0,5.94,1.9,8.7T92.862,35.8a5.805,5.805,0,0,0,3.432-1.023A2.143,2.143,0,0,0,97.07,34a2.448,2.448,0,0,0,.181-1.04V29.8a5.587,5.587,0,0,0-.264-2.013,1.49,1.49,0,0,0-.924-.858,8.229,8.229,0,0,0-2.145-.3v-.66q1.716.1,4.653.1,2.244,0,3.432-.1v.66a2.834,2.834,0,0,0-1.105.264,1.06,1.06,0,0,0-.462.759,10.037,10.037,0,0,0-.116,1.815V36h-.66a4.154,4.154,0,0,0-.264-1.271q-.231-.611-.627-.611a.879.879,0,0,0-.4.1,5.972,5.972,0,0,0-.693.462,8.8,8.8,0,0,1-2.392,1.336,8.089,8.089,0,0,1-2.756.446,11.447,11.447,0,0,1-5.825-1.4A9.2,9.2,0,0,1,83,31.017a14.255,14.255,0,0,1-1.287-6.3A15.129,15.129,0,0,1,83.077,18.1a10.369,10.369,0,0,1,3.779-4.389A9.977,9.977,0,0,1,92.334,12.174ZM124.9,34.35a5.725,5.725,0,0,1-1.518,1.617,3.636,3.636,0,0,1-2.013.5,3.192,3.192,0,0,1-2.228-.792,5.173,5.173,0,0,1-1.3-2.772l-.726-3.3a22.117,22.117,0,0,0-.743-2.64,3.4,3.4,0,0,0-1.039-1.485,3.018,3.018,0,0,0-1.947-.561h-3.135V32.5a5.959,5.959,0,0,0,.2,1.815,1.187,1.187,0,0,0,.742.759,6.574,6.574,0,0,0,1.733.264V36q-1.518-.1-4.191-.1-2.838,0-4.224.1v-.66a6.574,6.574,0,0,0,1.732-.264,1.187,1.187,0,0,0,.743-.759,5.96,5.96,0,0,0,.2-1.815V16.134a5.96,5.96,0,0,0-.2-1.815,1.187,1.187,0,0,0-.743-.759,6.573,6.573,0,0,0-1.732-.264v-.66q1.386.1,4.026.1L112.1,12.7q.627-.033,1.419-.033a9.434,9.434,0,0,1,5.891,1.6,5.007,5.007,0,0,1,2.063,4.142,6.067,6.067,0,0,1-.61,2.59,6.166,6.166,0,0,1-2.046,2.343,8.58,8.58,0,0,1-3.745,1.4l.4.066a5.9,5.9,0,0,1,3.168,1.32,5.939,5.939,0,0,1,1.452,3.036l.825,3.366a7.482,7.482,0,0,0,.693,2.112,1.113,1.113,0,0,0,.99.594,1.479,1.479,0,0,0,.94-.3,5.192,5.192,0,0,0,.875-.957ZM112.695,13.3a3.9,3.9,0,0,0-1.535.231,1.306,1.306,0,0,0-.709.825,6.006,6.006,0,0,0-.2,1.782v8.118h2.211q3.267,0,4.488-1.452a6.069,6.069,0,0,0,1.221-4.026,5.815,5.815,0,0,0-1.287-4.092A5.494,5.494,0,0,0,112.695,13.3ZM143.22,33.228q.792,2.046,2.277,2.112V36q-1.32-.1-3.531-.1-2.838,0-4.224.1v-.66a5.4,5.4,0,0,0,1.8-.313.909.909,0,0,0,.545-.908,4.533,4.533,0,0,0-.4-1.551l-2.013-5.412H129.69l-1.353,3.5a8.637,8.637,0,0,0-.66,2.706,1.641,1.641,0,0,0,.71,1.485,4.2,4.2,0,0,0,2.161.495V36q-1.881-.1-3.795-.1-1.485,0-2.475.1v-.66q1.65-.4,2.607-2.871l7.755-20h.528ZM137.412,26.5l-3.7-9.867L129.954,26.5Zm14.355.066V32.5a4.562,4.562,0,0,0,.264,1.815,1.41,1.41,0,0,0,.924.759,9.759,9.759,0,0,0,2.145.264V36q-1.716-.1-4.851-.1-2.838,0-4.224.1v-.66a6.573,6.573,0,0,0,1.732-.264,1.187,1.187,0,0,0,.742-.759,5.959,5.959,0,0,0,.2-1.815V16.134a5.959,5.959,0,0,0-.2-1.815,1.187,1.187,0,0,0-.742-.759,6.573,6.573,0,0,0-1.732-.264v-.66q1.386.1,4.026.1l3.564-.033q.627-.033,1.419-.033a8.79,8.79,0,0,1,5.907,1.766,5.938,5.938,0,0,1,2.046,4.736,7.881,7.881,0,0,1-.808,3.482,6.594,6.594,0,0,1-2.739,2.788,10.171,10.171,0,0,1-5.132,1.122ZM154.209,13.3a3.9,3.9,0,0,0-1.535.231,1.306,1.306,0,0,0-.709.825,6.006,6.006,0,0,0-.2,1.782V25.9h2.211q3.234,0,4.471-1.733a7.822,7.822,0,0,0,1.238-4.637,7.264,7.264,0,0,0-1.271-4.719Q157.146,13.3,154.209,13.3Zm33.33,0a6.573,6.573,0,0,0-1.732.264,1.187,1.187,0,0,0-.743.759,5.959,5.959,0,0,0-.2,1.815V32.5a5.959,5.959,0,0,0,.2,1.815,1.187,1.187,0,0,0,.743.759,6.573,6.573,0,0,0,1.732.264V36q-1.386-.1-4.224-.1-2.673,0-4.191.1v-.66a6.574,6.574,0,0,0,1.733-.264,1.187,1.187,0,0,0,.742-.759,5.959,5.959,0,0,0,.2-1.815v-7.92H171.072V32.5a5.959,5.959,0,0,0,.2,1.815,1.187,1.187,0,0,0,.742.759,6.574,6.574,0,0,0,1.732.264V36q-1.518-.1-4.191-.1-2.838,0-4.224.1v-.66a6.573,6.573,0,0,0,1.732-.264,1.187,1.187,0,0,0,.742-.759A5.959,5.959,0,0,0,168,32.5V16.134a5.959,5.959,0,0,0-.2-1.815,1.187,1.187,0,0,0-.742-.759,6.573,6.573,0,0,0-1.732-.264v-.66q1.386.1,4.224.1,2.64,0,4.191-.1v.66a6.574,6.574,0,0,0-1.732.264,1.187,1.187,0,0,0-.742.759,5.959,5.959,0,0,0-.2,1.815v7.788H181.8V16.134a5.959,5.959,0,0,0-.2-1.815,1.187,1.187,0,0,0-.742-.759,6.574,6.574,0,0,0-1.733-.264v-.66q1.518.1,4.191.1,2.838,0,4.224-.1Z" transform="translate(-10995 -3554)" fill="#258abf"/>
      <path id="Path_205" data-name="Path 205" d="M7.42-14.44a5.442,5.442,0,0,1,2.04.34,6.923,6.923,0,0,1,1.64.96.648.648,0,0,0,.38.18q.4,0,.52-1.2h.46q-.08,1.3-.08,4.6h-.46a15.539,15.539,0,0,0-.4-1.87,3.329,3.329,0,0,0-.6-1.09,3.7,3.7,0,0,0-1.53-1.17,5.144,5.144,0,0,0-2.01-.39,3.314,3.314,0,0,0-2.27.86A5.6,5.6,0,0,0,3.6-10.77a11.614,11.614,0,0,0-.54,3.73A10.752,10.752,0,0,0,3.64-3.3,5.25,5.25,0,0,0,5.25-.93a3.67,3.67,0,0,0,2.33.81A5.131,5.131,0,0,0,9.52-.5,3.268,3.268,0,0,0,11-1.64a3.843,3.843,0,0,0,.58-1.2,14.165,14.165,0,0,0,.34-1.96h.46q0,3.44.08,4.8H12a3.541,3.541,0,0,0-.17-.91q-.11-.27-.31-.27a.877.877,0,0,0-.42.16,8.453,8.453,0,0,1-1.72.97A5.3,5.3,0,0,1,7.4.28,6.336,6.336,0,0,1,4.07-.58,5.741,5.741,0,0,1,1.85-3.07a8.841,8.841,0,0,1-.79-3.89,8.964,8.964,0,0,1,.81-3.9A6.279,6.279,0,0,1,4.13-13.5,5.915,5.915,0,0,1,7.42-14.44Zm20.64.68a3.984,3.984,0,0,0-1.05.16.719.719,0,0,0-.45.46,3.612,3.612,0,0,0-.12,1.1v9.92a3.612,3.612,0,0,0,.12,1.1.719.719,0,0,0,.45.46,3.984,3.984,0,0,0,1.05.16V0q-.84-.06-2.56-.06-1.62,0-2.54.06V-.4a3.984,3.984,0,0,0,1.05-.16.719.719,0,0,0,.45-.46,3.612,3.612,0,0,0,.12-1.1v-4.8h-6.5v4.8a3.612,3.612,0,0,0,.12,1.1.719.719,0,0,0,.45.46A3.984,3.984,0,0,0,19.7-.4V0q-.92-.06-2.54-.06-1.72,0-2.56.06V-.4a3.984,3.984,0,0,0,1.05-.16.719.719,0,0,0,.45-.46,3.612,3.612,0,0,0,.12-1.1v-9.92a3.612,3.612,0,0,0-.12-1.1.719.719,0,0,0-.45-.46,3.984,3.984,0,0,0-1.05-.16v-.4q.84.06,2.56.06,1.6,0,2.54-.06v.4a3.984,3.984,0,0,0-1.05.16.719.719,0,0,0-.45.46,3.612,3.612,0,0,0-.12,1.1v4.72h6.5v-4.72a3.612,3.612,0,0,0-.12-1.1.719.719,0,0,0-.45-.46,3.984,3.984,0,0,0-1.05-.16v-.4q.92.06,2.54.06,1.72,0,2.56-.06ZM40.24-1.68Q40.72-.44,41.62-.4V0q-.8-.06-2.14-.06-1.72,0-2.56.06V-.4a3.271,3.271,0,0,0,1.09-.19.551.551,0,0,0,.33-.55,2.748,2.748,0,0,0-.24-.94L36.88-5.36H32.04l-.82,2.12a5.234,5.234,0,0,0-.4,1.64.994.994,0,0,0,.43.9,2.547,2.547,0,0,0,1.31.3V0q-1.14-.06-2.3-.06-.9,0-1.5.06V-.4q1-.24,1.58-1.74l4.7-12.12h.32ZM36.72-5.76l-2.24-5.98L32.2-5.76ZM54.3-1a3.47,3.47,0,0,1-.92.98,2.2,2.2,0,0,1-1.22.3A1.934,1.934,0,0,1,50.81-.2a3.135,3.135,0,0,1-.79-1.68l-.44-2a13.4,13.4,0,0,0-.45-1.6,2.059,2.059,0,0,0-.63-.9,1.829,1.829,0,0,0-1.18-.34h-1.9v4.6a3.612,3.612,0,0,0,.12,1.1.719.719,0,0,0,.45.46,3.984,3.984,0,0,0,1.05.16V0q-.92-.06-2.54-.06-1.72,0-2.56.06V-.4a3.984,3.984,0,0,0,1.05-.16.719.719,0,0,0,.45-.46,3.612,3.612,0,0,0,.12-1.1v-9.92a3.612,3.612,0,0,0-.12-1.1.719.719,0,0,0-.45-.46,3.984,3.984,0,0,0-1.05-.16v-.4q.84.06,2.44.06l2.16-.02q.38-.02.86-.02a5.718,5.718,0,0,1,3.57.97,3.035,3.035,0,0,1,1.25,2.51,3.677,3.677,0,0,1-.37,1.57,3.737,3.737,0,0,1-1.24,1.42,5.2,5.2,0,0,1-2.27.85l.24.04a3.572,3.572,0,0,1,1.92.8,3.6,3.6,0,0,1,.88,1.84l.5,2.04A4.535,4.535,0,0,0,52.3-.82a.674.674,0,0,0,.6.36.9.9,0,0,0,.57-.18A3.147,3.147,0,0,0,54-1.22ZM46.9-13.76a2.365,2.365,0,0,0-.93.14.792.792,0,0,0-.43.5,3.64,3.64,0,0,0-.12,1.08v4.92h1.34A3.428,3.428,0,0,0,49.48-8a3.678,3.678,0,0,0,.74-2.44,3.524,3.524,0,0,0-.78-2.48A3.33,3.33,0,0,0,46.9-13.76ZM65.4-1.68Q65.88-.44,66.78-.4V0q-.8-.06-2.14-.06-1.72,0-2.56.06V-.4a3.271,3.271,0,0,0,1.09-.19.551.551,0,0,0,.33-.55,2.748,2.748,0,0,0-.24-.94L62.04-5.36H57.2l-.82,2.12a5.234,5.234,0,0,0-.4,1.64.994.994,0,0,0,.43.9,2.547,2.547,0,0,0,1.31.3V0q-1.14-.06-2.3-.06-.9,0-1.5.06V-.4q1-.24,1.58-1.74l4.7-12.12h.32ZM61.88-5.76l-2.24-5.98L57.36-5.76Zm12-8.68a5.442,5.442,0,0,1,2.04.34,6.923,6.923,0,0,1,1.64.96.648.648,0,0,0,.38.18q.4,0,.52-1.2h.46q-.08,1.3-.08,4.6h-.46a15.539,15.539,0,0,0-.4-1.87,3.329,3.329,0,0,0-.6-1.09,3.7,3.7,0,0,0-1.53-1.17,5.145,5.145,0,0,0-2.01-.39,3.314,3.314,0,0,0-2.27.86,5.6,5.6,0,0,0-1.51,2.45,11.614,11.614,0,0,0-.54,3.73A10.752,10.752,0,0,0,70.1-3.3,5.25,5.25,0,0,0,71.71-.93a3.67,3.67,0,0,0,2.33.81A5.131,5.131,0,0,0,75.98-.5a3.268,3.268,0,0,0,1.48-1.14,3.843,3.843,0,0,0,.58-1.2,14.165,14.165,0,0,0,.34-1.96h.46q0,3.44.08,4.8h-.46a3.541,3.541,0,0,0-.17-.91q-.11-.27-.31-.27a.877.877,0,0,0-.42.16,8.452,8.452,0,0,1-1.72.97,5.3,5.3,0,0,1-1.98.33,6.336,6.336,0,0,1-3.33-.86,5.741,5.741,0,0,1-2.22-2.49,8.841,8.841,0,0,1-.79-3.89,8.964,8.964,0,0,1,.81-3.9,6.279,6.279,0,0,1,2.26-2.64A5.915,5.915,0,0,1,73.88-14.44Zm18.18.28q-.14,1.42-.14,2.56,0,1,.06,1.64h-.46a12.271,12.271,0,0,0-.4-2.29,1.875,1.875,0,0,0-.84-1.1,3.76,3.76,0,0,0-1.84-.35H87.36V-2.32a3.386,3.386,0,0,0,.16,1.22.9.9,0,0,0,.56.52,4.987,4.987,0,0,0,1.3.18V0q-1.04-.06-2.94-.06-2,0-2.96.06V-.4a4.987,4.987,0,0,0,1.3-.18.9.9,0,0,0,.56-.52,3.386,3.386,0,0,0,.16-1.22V-13.7H84.42a3.76,3.76,0,0,0-1.84.35,1.875,1.875,0,0,0-.84,1.1,12.271,12.271,0,0,0-.4,2.29h-.46q.06-.64.06-1.64,0-1.14-.14-2.56,1.66.06,5.64.06Q90.4-14.1,92.06-14.16Zm11.66,11.6q0,1.14.14,2.56-1.36-.06-4.58-.06-3.84,0-5.8.06V-.4a3.984,3.984,0,0,0,1.05-.16.719.719,0,0,0,.45-.46,3.612,3.612,0,0,0,.12-1.1v-9.92a3.612,3.612,0,0,0-.12-1.1.719.719,0,0,0-.45-.46,3.984,3.984,0,0,0-1.05-.16v-.4q1.96.06,5.8.06,2.94,0,4.18-.06a22.621,22.621,0,0,0-.14,2.36,10.064,10.064,0,0,0,.06,1.24h-.46a9.334,9.334,0,0,0-.36-1.93,1.614,1.614,0,0,0-.74-.92,3.346,3.346,0,0,0-1.58-.29H98.58a3.616,3.616,0,0,0-1.05.11.69.69,0,0,0-.45.45,3.612,3.612,0,0,0-.12,1.1v4.72h1.32a1.6,1.6,0,0,0,1.08-.33,1.613,1.613,0,0,0,.51-.78,7.192,7.192,0,0,0,.21-1.13l.06-.4h.46q-.06.84-.06,1.88v.96q0,1.02.12,2.84h-.46q-.02-.14-.12-.97a1.968,1.968,0,0,0-.55-1.25,1.761,1.761,0,0,0-1.25-.42H96.96v4.8a3.612,3.612,0,0,0,.12,1.1.69.69,0,0,0,.45.45,3.616,3.616,0,0,0,1.05.11h1.46a4.289,4.289,0,0,0,1.89-.33,1.985,1.985,0,0,0,.95-1.06A8.023,8.023,0,0,0,103.32-4h.46A13.657,13.657,0,0,0,103.72-2.56ZM118.02-1a3.47,3.47,0,0,1-.92.98,2.2,2.2,0,0,1-1.22.3,1.934,1.934,0,0,1-1.35-.48,3.135,3.135,0,0,1-.79-1.68l-.44-2a13.406,13.406,0,0,0-.45-1.6,2.059,2.059,0,0,0-.63-.9,1.829,1.829,0,0,0-1.18-.34h-1.9v4.6a3.612,3.612,0,0,0,.12,1.1.719.719,0,0,0,.45.46,3.984,3.984,0,0,0,1.05.16V0q-.92-.06-2.54-.06-1.72,0-2.56.06V-.4a3.984,3.984,0,0,0,1.05-.16.719.719,0,0,0,.45-.46,3.612,3.612,0,0,0,.12-1.1v-9.92a3.612,3.612,0,0,0-.12-1.1.719.719,0,0,0-.45-.46,3.984,3.984,0,0,0-1.05-.16v-.4q.84.06,2.44.06l2.16-.02q.38-.02.86-.02a5.718,5.718,0,0,1,3.57.97,3.035,3.035,0,0,1,1.25,2.51,3.677,3.677,0,0,1-.37,1.57,3.737,3.737,0,0,1-1.24,1.42,5.2,5.2,0,0,1-2.27.85l.24.04a3.572,3.572,0,0,1,1.92.8,3.6,3.6,0,0,1,.88,1.84l.5,2.04a4.535,4.535,0,0,0,.42,1.28.674.674,0,0,0,.6.36.9.9,0,0,0,.57-.18,3.147,3.147,0,0,0,.53-.58Zm-7.4-12.76a2.365,2.365,0,0,0-.93.14.792.792,0,0,0-.43.5,3.64,3.64,0,0,0-.12,1.08v4.92h1.34A3.428,3.428,0,0,0,113.2-8a3.678,3.678,0,0,0,.74-2.44,3.524,3.524,0,0,0-.78-2.48A3.33,3.33,0,0,0,110.62-13.76Z" transform="translate(-10995.5 -3382.5)" fill="#2371aa"/>
      <path id="Path_212" data-name="Path 212" d="M14.2-36.05a13.931,13.931,0,0,1,4.15.5A15.533,15.533,0,0,1,21.5-34.1q.55.3.975.5a1.769,1.769,0,0,0,.725.2.772.772,0,0,0,.7-.525,5.972,5.972,0,0,0,.4-1.675h1.15q-.25,3.35-.25,11.4H24.05a16.391,16.391,0,0,0-1.225-5.15,9.975,9.975,0,0,0-2.9-3.975A6.727,6.727,0,0,0,15.55-34.85a5.709,5.709,0,0,0-3.975,1.375A4.765,4.765,0,0,0,10.05-29.75a6,6,0,0,0,.75,3.05,8.46,8.46,0,0,0,2.1,2.375q1.35,1.075,4.15,2.925l1.6,1.1a49.054,49.054,0,0,1,4.65,3.4,12.267,12.267,0,0,1,2.775,3.375A9.026,9.026,0,0,1,27.15-9.05,8.635,8.635,0,0,1,25.5-3.675,10.035,10.035,0,0,1,21.025-.4,17.163,17.163,0,0,1,14.75.7,18.177,18.177,0,0,1,10.1.2,15.4,15.4,0,0,1,6.7-1.15,3.615,3.615,0,0,0,5-1.85a.772.772,0,0,0-.7.525A5.972,5.972,0,0,0,3.9.35H2.75q.2-3.15.2-13.5H4.1A19.422,19.422,0,0,0,6.6-4.075,7.223,7.223,0,0,0,13.2-.6a6.741,6.741,0,0,0,4.45-1.45A5.084,5.084,0,0,0,19.4-6.2,6.928,6.928,0,0,0,17.6-11a28.606,28.606,0,0,0-5.7-4.5q-3-1.95-4.8-3.4a12.338,12.338,0,0,1-2.95-3.425A8.926,8.926,0,0,1,3-26.9a8.334,8.334,0,0,1,1.525-5.075A9.013,9.013,0,0,1,8.6-35.05,15.211,15.211,0,0,1,14.2-36.05Zm47.1.65q-.35,4.75-.35,8.5,0,2.35.15,3.8H59.95q-1.2-6.15-3.275-8.65A6.981,6.981,0,0,0,51-34.25H49.85V-5.7a8.005,8.005,0,0,0,.425,3.05,2.271,2.271,0,0,0,1.5,1.275A13.993,13.993,0,0,0,55.2-1V0q-6.3-.15-9.5-.15-3.15,0-9.15.15V-1a13.993,13.993,0,0,0,3.425-.375,2.271,2.271,0,0,0,1.5-1.275A8.005,8.005,0,0,0,41.9-5.7V-34.25H40.8a7.523,7.523,0,0,0-4.075,1.05,8.286,8.286,0,0,0-2.875,3.475A27.733,27.733,0,0,0,31.8-23.1H30.65q.15-1.45.15-3.8,0-3.75-.35-8.5,4.55.15,15.45.15T61.3-35.4Zm28.35.1q2.3,0,3.8-.15v1q-2.3.95-4.8,5.8l-5.9,11.7V-5.3a9.809,9.809,0,0,0,.275,2.75A1.735,1.735,0,0,0,84.05-1.4,8.547,8.547,0,0,0,86.5-1V0q-2.7-.15-7.7-.15-5.35,0-7.75.15V-1a8.681,8.681,0,0,0,2.425-.4,1.73,1.73,0,0,0,1.05-1.15A9.809,9.809,0,0,0,74.8-5.3v-8.45L65.15-31.6q-1.55-2.8-2.9-2.8v-1.05a54.814,54.814,0,0,0,5.9.25q4.65,0,9.4-.25v1.05a9.5,9.5,0,0,0-2.775.325Q73.75-33.75,73.75-32.9a2.436,2.436,0,0,0,.35,1.1l7.6,14.65,3.9-7.8a15.372,15.372,0,0,0,1.95-6.2,2.775,2.775,0,0,0-1.075-2.45,5.868,5.868,0,0,0-3.075-.85v-1Q86.8-35.3,89.65-35.3Zm21.55.9a9.96,9.96,0,0,0-2.625.4,1.8,1.8,0,0,0-1.125,1.15,9.03,9.03,0,0,0-.3,2.75V-4.7a7.778,7.778,0,0,0,.25,2.325,1.512,1.512,0,0,0,.875.975,5.914,5.914,0,0,0,2.025.25h2.45a7.372,7.372,0,0,0,5.875-3.05,16.441,16.441,0,0,0,3.225-8.1H123q-.15,1.7-.15,4.4A72.807,72.807,0,0,0,123.2,0q-3.4-.15-11.45-.15-10.9,0-16.3.15V-1a8.681,8.681,0,0,0,2.425-.4,1.73,1.73,0,0,0,1.05-1.15A9.809,9.809,0,0,0,99.2-5.3V-30.1a9.809,9.809,0,0,0-.275-2.75A1.73,1.73,0,0,0,97.875-34a8.681,8.681,0,0,0-2.425-.4v-1q2.55.15,7.9.15,5.1,0,7.85-.15ZM153.4-7.6a67.7,67.7,0,0,0,.35,7.6q-3.4-.15-11.45-.15Q131.4-.15,126,0V-1a8.681,8.681,0,0,0,2.425-.4,1.73,1.73,0,0,0,1.05-1.15,9.809,9.809,0,0,0,.275-2.75V-30.1a9.809,9.809,0,0,0-.275-2.75,1.73,1.73,0,0,0-1.05-1.15A8.681,8.681,0,0,0,126-34.4v-1q5.4.15,16.3.15,7.35,0,10.45-.15-.35,4.15-.35,7.4a29.251,29.251,0,0,0,.15,3.4H151.4q-.75-5.35-2.7-7.5a7.046,7.046,0,0,0-5.5-2.15h-2.05a7.287,7.287,0,0,0-2.25.25,1.5,1.5,0,0,0-.95.975,7.777,7.777,0,0,0-.25,2.325v12.4h1.6a4.613,4.613,0,0,0,4.025-1.95,12.185,12.185,0,0,0,1.925-4.65h1.15q-.15,2.1-.15,4.7v2.4q0,2.55.3,7.1H145.4q-1.05-6.6-6.1-6.6h-1.6V-4.7a7.777,7.777,0,0,0,.25,2.325,1.5,1.5,0,0,0,.95.975,7.287,7.287,0,0,0,2.25.25h2.45a7.322,7.322,0,0,0,5.725-2.425Q151.5-6,152.4-11.8h1.15Q153.4-10.15,153.4-7.6Z" transform="translate(-10968 -3565)" fill="#24648d"/>
      <path id="Path_200" data-name="Path 200" d="M44.9-58.764q-.581,5.893-.581,10.624,0,4.15.249,6.806H42.662a50.925,50.925,0,0,0-1.66-9.5A7.781,7.781,0,0,0,37.516-55.4q-2.49-1.453-7.636-1.452H24.651a15.008,15.008,0,0,0-4.358.457,2.862,2.862,0,0,0-1.867,1.867,14.989,14.989,0,0,0-.5,4.565v20.418h6.059a6.628,6.628,0,0,0,4.482-1.369,6.7,6.7,0,0,0,2.116-3.237,29.842,29.842,0,0,0,.872-4.689l.249-1.66h1.909q-.249,3.486-.249,7.8v3.984q0,4.233.5,11.786H31.955q-.083-.581-.5-4.026a8.168,8.168,0,0,0-2.283-5.187,7.308,7.308,0,0,0-5.187-1.743H17.928V-8.8a11.474,11.474,0,0,0,.664,4.565,3.545,3.545,0,0,0,2.324,1.909,24.545,24.545,0,0,0,5.4.664V0q-4.316-.249-12.2-.249Q6.972-.249,3.486,0V-1.66a16.533,16.533,0,0,0,4.357-.664A2.984,2.984,0,0,0,9.711-4.233a14.989,14.989,0,0,0,.5-4.565V-49.966a14.989,14.989,0,0,0-.5-4.565A2.984,2.984,0,0,0,7.843-56.44,16.534,16.534,0,0,0,3.486-57.1v-1.66q8.134.249,24.07.249Q39.757-58.515,44.9-58.764ZM77.19-59.926a26.293,26.293,0,0,1,13.82,3.569,23.825,23.825,0,0,1,9.213,10.334A36.691,36.691,0,0,1,103.5-29.88,37.2,37.2,0,0,1,100.139-13.7,26.056,26.056,0,0,1,90.76-2.739a24.548,24.548,0,0,1-13.653,3.9,26.293,26.293,0,0,1-13.82-3.569,23.824,23.824,0,0,1-9.213-10.334A36.691,36.691,0,0,1,50.8-28.884a37.2,37.2,0,0,1,3.362-16.185,26.056,26.056,0,0,1,9.379-10.956A24.548,24.548,0,0,1,77.19-59.926Zm-.332,1.494a13.389,13.389,0,0,0-9.338,3.694A23.878,23.878,0,0,0,61.3-44.405a48.244,48.244,0,0,0-2.2,15.189,43.3,43.3,0,0,0,2.448,15.189A24.177,24.177,0,0,0,68.143-3.9a13.9,13.9,0,0,0,9.3,3.569,13.389,13.389,0,0,0,9.338-3.694A23.878,23.878,0,0,0,93-14.359a48.244,48.244,0,0,0,2.2-15.189,43.3,43.3,0,0,0-2.449-15.189,24.177,24.177,0,0,0-6.6-10.126A13.9,13.9,0,0,0,76.858-58.432ZM162.846-57.1a11.585,11.585,0,0,0-4.316.871,3.679,3.679,0,0,0-1.909,2.324,17.255,17.255,0,0,0-.5,4.772V.415h-1.909l-34.86-53.867V-9.628a15.93,15.93,0,0,0,.539,4.814,3.749,3.749,0,0,0,2.117,2.282,14.5,14.5,0,0,0,4.9.872V0q-2.988-.249-8.466-.249-4.98,0-7.719.249V-1.66a11.585,11.585,0,0,0,4.316-.872,3.679,3.679,0,0,0,1.909-2.324,17.255,17.255,0,0,0,.5-4.772V-49.966a14.989,14.989,0,0,0-.5-4.565,2.984,2.984,0,0,0-1.868-1.909,16.534,16.534,0,0,0-4.357-.664v-1.66q2.739.249,7.719.249,3.735,0,6.474-.249l29.3,45.152V-49.136a15.93,15.93,0,0,0-.539-4.814,3.749,3.749,0,0,0-2.117-2.283,14.5,14.5,0,0,0-4.9-.871v-1.66q2.988.249,8.466.249,4.98,0,7.719-.249Zm52.124-1.66q-.581,5.893-.581,10.624,0,4.15.249,6.806h-1.909a50.925,50.925,0,0,0-1.66-9.5,7.781,7.781,0,0,0-3.486-4.565q-2.49-1.453-7.636-1.452h-4.482V-9.628a14.051,14.051,0,0,0,.664,5.063,3.748,3.748,0,0,0,2.324,2.158,20.7,20.7,0,0,0,5.395.747V0q-4.316-.249-12.2-.249-8.3,0-12.284.249V-1.66a20.7,20.7,0,0,0,5.395-.747,3.748,3.748,0,0,0,2.324-2.158,14.051,14.051,0,0,0,.664-5.063V-56.855h-4.482q-5.146,0-7.636,1.452a7.781,7.781,0,0,0-3.486,4.565,50.925,50.925,0,0,0-1.66,9.5h-1.909q.249-2.656.249-6.806,0-4.731-.581-10.624,6.889.249,23.406.249Q208.081-58.515,214.97-58.764Z" transform="translate(-10998 -3296)" fill="#2d7198"/>
      <path id="Path_213" data-name="Path 213" d="M14.2-36.05a13.931,13.931,0,0,1,4.15.5A15.533,15.533,0,0,1,21.5-34.1q.55.3.975.5a1.769,1.769,0,0,0,.725.2.772.772,0,0,0,.7-.525,5.972,5.972,0,0,0,.4-1.675h1.15q-.25,3.35-.25,11.4H24.05a16.391,16.391,0,0,0-1.225-5.15,9.975,9.975,0,0,0-2.9-3.975A6.727,6.727,0,0,0,15.55-34.85a5.709,5.709,0,0,0-3.975,1.375A4.765,4.765,0,0,0,10.05-29.75a6,6,0,0,0,.75,3.05,8.46,8.46,0,0,0,2.1,2.375q1.35,1.075,4.15,2.925l1.6,1.1a49.054,49.054,0,0,1,4.65,3.4,12.267,12.267,0,0,1,2.775,3.375A9.026,9.026,0,0,1,27.15-9.05,8.635,8.635,0,0,1,25.5-3.675,10.035,10.035,0,0,1,21.025-.4,17.163,17.163,0,0,1,14.75.7,18.177,18.177,0,0,1,10.1.2,15.4,15.4,0,0,1,6.7-1.15,3.615,3.615,0,0,0,5-1.85a.772.772,0,0,0-.7.525A5.972,5.972,0,0,0,3.9.35H2.75q.2-3.15.2-13.5H4.1A19.422,19.422,0,0,0,6.6-4.075,7.223,7.223,0,0,0,13.2-.6a6.741,6.741,0,0,0,4.45-1.45A5.084,5.084,0,0,0,19.4-6.2,6.928,6.928,0,0,0,17.6-11a28.606,28.606,0,0,0-5.7-4.5q-3-1.95-4.8-3.4a12.338,12.338,0,0,1-2.95-3.425A8.926,8.926,0,0,1,3-26.9a8.334,8.334,0,0,1,1.525-5.075A9.013,9.013,0,0,1,8.6-35.05,15.211,15.211,0,0,1,14.2-36.05ZM54.25-14.3v8.7a7.452,7.452,0,0,0,.425,2.925,2.205,2.205,0,0,0,1.5,1.225A15.205,15.205,0,0,0,59.6-1.1V0q-6.15-.15-9.15-.15-2.5,0-6.3.1L42.55,0V-1a8.681,8.681,0,0,0,2.425-.4,1.73,1.73,0,0,0,1.05-1.15A9.809,9.809,0,0,0,46.3-5.3V-30.1a9.809,9.809,0,0,0-.275-2.75A1.73,1.73,0,0,0,44.975-34a8.681,8.681,0,0,0-2.425-.4v-1q2.55.15,7.6.15l5.55-.05q1-.05,2.3-.05,6.75,0,10.3,2.675A8.527,8.527,0,0,1,71.85-25.5a10.73,10.73,0,0,1-1.4,5.275A10.771,10.771,0,0,1,65.725-16,19.477,19.477,0,0,1,56.9-14.3Zm3.1-20.1a4.219,4.219,0,0,0-1.975.35A1.937,1.937,0,0,0,54.5-32.8a10.832,10.832,0,0,0-.25,2.7v14.8H56.4q4.05,0,5.6-2.6a13.734,13.734,0,0,0,1.55-7.05q0-4.85-1.425-7.15A5.174,5.174,0,0,0,57.35-34.4ZM111.8-4.2a6.193,6.193,0,0,0,1.5,2.4,2.817,2.817,0,0,0,1.65.8V0q-3-.15-7.6-.15-5.1,0-7.6.15V-1a7.915,7.915,0,0,0,2.7-.475,1.342,1.342,0,0,0,.8-1.325,6.915,6.915,0,0,0-.6-2.4l-3-8.2H88.75l-1.3,3.45a16.8,16.8,0,0,0-1.4,5.55,2.826,2.826,0,0,0,1.125,2.575A6.777,6.777,0,0,0,90.5-1V0q-3.4-.15-6.2-.15Q82-.15,80.5,0V-1q2.45-.45,4.3-5.25L96.2-35.5q.55.05,1.75.05t1.7-.05ZM99.3-14.4,94.35-27.9l-5.2,13.5Zm46.8-21.7a13.6,13.6,0,0,1,5.1.85,17.307,17.307,0,0,1,4.1,2.4,1.619,1.619,0,0,0,.95.45q1,0,1.3-3h1.15q-.2,3.4-.2,12.1h-1.15a24.957,24.957,0,0,0-1.2-5.65,8.059,8.059,0,0,0-2.55-3.4,8.477,8.477,0,0,0-2.9-1.825,9.658,9.658,0,0,0-3.45-.625q-5.05,0-7.5,4.925A27.434,27.434,0,0,0,137.3-17.6a26.24,26.24,0,0,0,2.55,12.2q2.55,4.9,7.6,4.9a9.591,9.591,0,0,0,3.375-.625A7.459,7.459,0,0,0,153.65-2.95a7.311,7.311,0,0,0,2.575-3.5,28.589,28.589,0,0,0,1.125-6.15h1.15q0,9.05.2,12.6h-1.15a8.853,8.853,0,0,0-.425-2.275q-.275-.675-.775-.675a2.192,2.192,0,0,0-1.05.4A21.131,21.131,0,0,1,151-.125,13.261,13.261,0,0,1,146.05.7a19.2,19.2,0,0,1-9.275-2.15A15.022,15.022,0,0,1,130.6-7.675a20.2,20.2,0,0,1-2.2-9.725,20.524,20.524,0,0,1,2.25-9.75,16.3,16.3,0,0,1,6.275-6.6A17.857,17.857,0,0,1,146.1-36.1ZM202.25-7.6A67.7,67.7,0,0,0,202.6,0q-3.4-.15-11.45-.15-10.9,0-16.3.15V-1a8.681,8.681,0,0,0,2.425-.4,1.73,1.73,0,0,0,1.05-1.15A9.809,9.809,0,0,0,178.6-5.3V-30.1a9.809,9.809,0,0,0-.275-2.75,1.73,1.73,0,0,0-1.05-1.15,8.681,8.681,0,0,0-2.425-.4v-1q5.4.15,16.3.15,7.35,0,10.45-.15-.35,4.15-.35,7.4a29.256,29.256,0,0,0,.15,3.4h-1.15q-.75-5.35-2.7-7.5a7.046,7.046,0,0,0-5.5-2.15H190a7.287,7.287,0,0,0-2.25.25,1.5,1.5,0,0,0-.95.975,7.777,7.777,0,0,0-.25,2.325v12.4h1.6a4.613,4.613,0,0,0,4.025-1.95A12.185,12.185,0,0,0,194.1-24.9h1.15q-.15,2.1-.15,4.7v2.4q0,2.55.3,7.1h-1.15q-1.05-6.6-6.1-6.6h-1.6V-4.7a7.777,7.777,0,0,0,.25,2.325,1.5,1.5,0,0,0,.95.975,7.287,7.287,0,0,0,2.25.25h2.45a7.322,7.322,0,0,0,5.725-2.425Q200.35-6,201.25-11.8h1.15Q202.25-10.15,202.25-7.6Z" transform="translate(-10996 -3416)" fill="#166183"/>
      <path id="Path_222" data-name="Path 222" d="M29.015-24.08a6.972,6.972,0,0,0-1.837.28A1.258,1.258,0,0,0,26.39-23a6.321,6.321,0,0,0-.21,1.925V-3.71a6.321,6.321,0,0,0,.21,1.925,1.258,1.258,0,0,0,.788.8,6.972,6.972,0,0,0,1.837.28V0Q27.4-.105,24.57-.105q-3.01,0-4.48.105V-.7a6.972,6.972,0,0,0,1.837-.28,1.258,1.258,0,0,0,.788-.8,6.321,6.321,0,0,0,.21-1.925V-22.47L14.49.175h-.56L5.11-22.54V-4.06a6.717,6.717,0,0,0,.227,2.03,1.581,1.581,0,0,0,.892.962A6.116,6.116,0,0,0,8.3-.7V0q-1.26-.105-3.57-.105-2.1,0-3.255.105V-.7a4.885,4.885,0,0,0,1.82-.368,1.551,1.551,0,0,0,.8-.98,7.276,7.276,0,0,0,.21-2.013V-21.07A6.321,6.321,0,0,0,4.095-23a1.258,1.258,0,0,0-.787-.805,6.972,6.972,0,0,0-1.837-.28v-.7q1.155.105,3.255.105,1.82,0,2.975-.105L15.4-4.515l7.525-20.16H24.57q2.835,0,4.445-.105ZM50.33-2.94Q51.17-.77,52.745-.7V0Q51.345-.105,49-.105q-3.01,0-4.48.105V-.7a5.725,5.725,0,0,0,1.908-.333A.964.964,0,0,0,47.005-2a4.808,4.808,0,0,0-.42-1.645L44.45-9.38H35.98L34.545-5.67a9.16,9.16,0,0,0-.7,2.87A1.74,1.74,0,0,0,34.6-1.225,4.457,4.457,0,0,0,36.89-.7V0Q34.9-.105,32.865-.105,31.29-.105,30.24,0V-.7q1.75-.42,2.765-3.045l8.225-21.21h.56Zm-6.16-7.14L40.25-20.545,36.26-10.08ZM74.935-1.75a6.072,6.072,0,0,1-1.61,1.715A3.857,3.857,0,0,1,71.19.49a3.385,3.385,0,0,1-2.363-.84,5.487,5.487,0,0,1-1.382-2.94l-.77-3.5a23.459,23.459,0,0,0-.788-2.8,3.6,3.6,0,0,0-1.1-1.575,3.2,3.2,0,0,0-2.065-.6H59.4v8.05a6.321,6.321,0,0,0,.21,1.925,1.258,1.258,0,0,0,.787.8A6.972,6.972,0,0,0,62.23-.7V0q-1.61-.105-4.445-.105-3.01,0-4.48.105V-.7a6.972,6.972,0,0,0,1.837-.28,1.258,1.258,0,0,0,.788-.8,6.321,6.321,0,0,0,.21-1.925V-21.07A6.321,6.321,0,0,0,55.93-23a1.258,1.258,0,0,0-.788-.805,6.972,6.972,0,0,0-1.837-.28v-.7q1.47.105,4.27.105l3.78-.035q.665-.035,1.505-.035a10.006,10.006,0,0,1,6.247,1.7,5.311,5.311,0,0,1,2.188,4.393,6.435,6.435,0,0,1-.647,2.747,6.54,6.54,0,0,1-2.17,2.485A9.1,9.1,0,0,1,64.5-11.935l.42.07a6.252,6.252,0,0,1,3.36,1.4,6.3,6.3,0,0,1,1.54,3.22l.875,3.57a7.936,7.936,0,0,0,.735,2.24,1.18,1.18,0,0,0,1.05.63,1.569,1.569,0,0,0,1-.315,5.506,5.506,0,0,0,.927-1.015ZM61.985-24.08a4.138,4.138,0,0,0-1.628.245,1.385,1.385,0,0,0-.752.875,6.371,6.371,0,0,0-.21,1.89v8.61H61.74q3.465,0,4.76-1.54a6.437,6.437,0,0,0,1.295-4.27,6.167,6.167,0,0,0-1.365-4.34Q65.065-24.08,61.985-24.08Zm25.69-1.19a8.579,8.579,0,0,1,3.395.577,16.375,16.375,0,0,1,2.9,1.7,1.36,1.36,0,0,0,.7.35q.665,0,.875-2.135h.8q-.14,2.275-.14,8.05h-.8a28.352,28.352,0,0,0-.665-3.063A5.976,5.976,0,0,0,93.66-21.91a7.05,7.05,0,0,0-2.643-2A8.2,8.2,0,0,0,87.6-24.64a6.038,6.038,0,0,0-4.06,1.5,9.551,9.551,0,0,0-2.695,4.288,20.2,20.2,0,0,0-.945,6.493q0,6.3,2.012,9.222T88.235-.21A6.157,6.157,0,0,0,91.875-1.3a2.273,2.273,0,0,0,.823-.822,2.6,2.6,0,0,0,.192-1.1V-6.58a5.925,5.925,0,0,0-.28-2.135,1.581,1.581,0,0,0-.98-.91,8.727,8.727,0,0,0-2.275-.315v-.7q1.82.1,4.935.1,2.38,0,3.64-.1v.7a3.006,3.006,0,0,0-1.173.28,1.124,1.124,0,0,0-.49.805,10.645,10.645,0,0,0-.123,1.925V0h-.7a4.406,4.406,0,0,0-.28-1.347Q94.92-2,94.5-2a.932.932,0,0,0-.42.1,6.332,6.332,0,0,0-.735.49A9.331,9.331,0,0,1,90.807.018,8.58,8.58,0,0,1,87.885.49,12.14,12.14,0,0,1,81.707-1,9.755,9.755,0,0,1,77.77-5.285,15.119,15.119,0,0,1,76.4-11.97a16.046,16.046,0,0,1,1.452-7.018,11,11,0,0,1,4.007-4.655A10.582,10.582,0,0,1,87.675-25.27Zm21.84,1.19a6.972,6.972,0,0,0-1.837.28,1.259,1.259,0,0,0-.788.805,6.321,6.321,0,0,0-.21,1.925V-3.71a6.321,6.321,0,0,0,.21,1.925,1.258,1.258,0,0,0,.788.8,6.972,6.972,0,0,0,1.837.28V0q-1.61-.105-4.445-.105-3.01,0-4.48.105V-.7a6.972,6.972,0,0,0,1.838-.28,1.258,1.258,0,0,0,.787-.8,6.321,6.321,0,0,0,.21-1.925V-21.07a6.321,6.321,0,0,0-.21-1.925,1.258,1.258,0,0,0-.787-.805,6.972,6.972,0,0,0-1.838-.28v-.7q1.47.105,4.48.105,2.8,0,4.445-.105Zm24.92,0a4.885,4.885,0,0,0-1.82.368,1.551,1.551,0,0,0-.805.98,7.276,7.276,0,0,0-.21,2.012V.175h-.805L116.1-22.54V-4.06a6.717,6.717,0,0,0,.228,2.03,1.581,1.581,0,0,0,.893.962A6.116,6.116,0,0,0,119.28-.7V0q-1.26-.105-3.57-.105-2.1,0-3.255.105V-.7a4.885,4.885,0,0,0,1.82-.368,1.551,1.551,0,0,0,.805-.98,7.276,7.276,0,0,0,.21-2.013V-21.07A6.321,6.321,0,0,0,115.08-23a1.258,1.258,0,0,0-.787-.805,6.972,6.972,0,0,0-1.838-.28v-.7q1.155.105,3.255.105,1.575,0,2.73-.105L130.795-5.74V-20.72a6.718,6.718,0,0,0-.227-2.03,1.581,1.581,0,0,0-.893-.962,6.116,6.116,0,0,0-2.065-.368v-.7q1.26.105,3.57.105,2.1,0,3.255-.105Z" transform="translate(-10965 -3620)" fill="#225576"/>
      <path id="Path_225" data-name="Path 225" d="M17.325-38.94q9.735,0,14.575,4.868T36.74-19.91a22.3,22.3,0,0,1-2.365,10.5,16.489,16.489,0,0,1-6.847,6.958A22.01,22.01,0,0,1,16.83,0L13.64-.055q-3.08-.11-4.51-.11Q4.62-.165,2.31,0V-1.1A10.956,10.956,0,0,0,5.2-1.54,1.978,1.978,0,0,0,6.435-2.8a9.933,9.933,0,0,0,.33-3.025V-33.11a9.933,9.933,0,0,0-.33-3.025A1.978,1.978,0,0,0,5.2-37.4a10.956,10.956,0,0,0-2.887-.44v-1.1q1.925.165,5.335.165l4.675-.055Q16.06-38.94,17.325-38.94Zm-1.375.99a6.5,6.5,0,0,0-2.557.385A2.177,2.177,0,0,0,12.21-36.19a10.011,10.011,0,0,0-.33,2.97v27.5a10.011,10.011,0,0,0,.33,2.97,2.177,2.177,0,0,0,1.182,1.375,6.689,6.689,0,0,0,2.613.385q5.83,0,9.185-2.117a11.207,11.207,0,0,0,4.7-6.188,33.662,33.662,0,0,0,1.348-10.4A30.027,30.027,0,0,0,29.755-30a11.236,11.236,0,0,0-4.812-5.967Q21.615-37.95,15.95-37.95ZM69.74-7.04q0,3.135.385,7.04-3.74-.165-12.6-.165Q46.97-.165,41.58,0V-1.1a10.956,10.956,0,0,0,2.887-.44A1.978,1.978,0,0,0,45.705-2.8a9.933,9.933,0,0,0,.33-3.025V-33.11a9.933,9.933,0,0,0-.33-3.025A1.978,1.978,0,0,0,44.467-37.4a10.956,10.956,0,0,0-2.887-.44v-1.1q5.39.165,15.95.165,8.085,0,11.5-.165a62.2,62.2,0,0,0-.385,6.49,27.676,27.676,0,0,0,.165,3.41H67.54a25.669,25.669,0,0,0-.99-5.308,4.439,4.439,0,0,0-2.035-2.53,9.2,9.2,0,0,0-4.345-.8H55.6a9.945,9.945,0,0,0-2.888.3,1.9,1.9,0,0,0-1.237,1.237,9.933,9.933,0,0,0-.33,3.025v12.98h3.63a4.392,4.392,0,0,0,2.97-.908,4.437,4.437,0,0,0,1.4-2.145,19.775,19.775,0,0,0,.578-3.108l.165-1.1H61.16Q61-25.08,61-22.22v2.64q0,2.805.33,7.81H60.06q-.055-.385-.33-2.667a5.413,5.413,0,0,0-1.513-3.438A4.843,4.843,0,0,0,54.78-19.03H51.15v13.2A9.933,9.933,0,0,0,51.48-2.8a1.9,1.9,0,0,0,1.237,1.237,9.945,9.945,0,0,0,2.888.3H59.62a11.8,11.8,0,0,0,5.2-.908A5.459,5.459,0,0,0,67.43-5.088,22.063,22.063,0,0,0,68.64-11H69.9A37.559,37.559,0,0,0,69.74-7.04Zm17.1-32.5a11.271,11.271,0,0,1,3.822.522,14.154,14.154,0,0,1,2.888,1.513,3.977,3.977,0,0,0,1.87.77.849.849,0,0,0,.77-.578,6.569,6.569,0,0,0,.44-1.842H97.9q-.275,3.19-.275,11.22H96.36A14.242,14.242,0,0,0,93.8-35.448,7.5,7.5,0,0,0,87.34-38.5a6.716,6.716,0,0,0-4.84,1.787,6.072,6.072,0,0,0-1.87,4.593,6.707,6.707,0,0,0,.963,3.63,9.582,9.582,0,0,0,2.448,2.64q1.485,1.1,4.235,2.805l1.595.99a55.063,55.063,0,0,1,5.473,3.767,13.388,13.388,0,0,1,3.217,3.713A9.6,9.6,0,0,1,99.77-9.68a9.453,9.453,0,0,1-3.3,7.728A12.7,12.7,0,0,1,88.11.77,14.134,14.134,0,0,1,83.792.22a15.47,15.47,0,0,1-3.217-1.485,3.977,3.977,0,0,0-1.87-.77.849.849,0,0,0-.77.578A6.569,6.569,0,0,0,77.5.385H76.23q.22-3.025.22-13.2h1.265a17.976,17.976,0,0,0,2.75,9.02Q82.83-.33,87.725-.33a7.386,7.386,0,0,0,5.06-1.843,6.911,6.911,0,0,0,2.09-5.472,7.258,7.258,0,0,0-2.062-5.225,32.945,32.945,0,0,0-6.518-4.84,61.226,61.226,0,0,1-5.253-3.52,12.679,12.679,0,0,1-3.272-3.713A9.929,9.929,0,0,1,76.5-30.03a8.634,8.634,0,0,1,2.97-7.067A11.2,11.2,0,0,1,86.845-39.545Zm31.955,1.7a10.956,10.956,0,0,0-2.887.44,1.978,1.978,0,0,0-1.238,1.265,9.933,9.933,0,0,0-.33,3.025V-5.83a9.933,9.933,0,0,0,.33,3.025,1.978,1.978,0,0,0,1.238,1.265,10.956,10.956,0,0,0,2.887.44V0q-2.53-.165-6.985-.165-4.73,0-7.04.165V-1.1a10.956,10.956,0,0,0,2.888-.44A1.978,1.978,0,0,0,108.9-2.8a9.933,9.933,0,0,0,.33-3.025V-33.11a9.933,9.933,0,0,0-.33-3.025,1.978,1.978,0,0,0-1.237-1.265,10.956,10.956,0,0,0-2.888-.44v-1.1q2.31.165,7.04.165,4.4,0,6.985-.165Zm22.55-1.87a13.481,13.481,0,0,1,5.335.907,25.732,25.732,0,0,1,4.565,2.667,2.137,2.137,0,0,0,1.1.55q1.045,0,1.375-3.355h1.265q-.22,3.575-.22,12.65h-1.265A44.555,44.555,0,0,0,152.46-31.1a9.39,9.39,0,0,0-1.7-3.327,11.078,11.078,0,0,0-4.153-3.135,12.885,12.885,0,0,0-5.362-1.155,9.489,9.489,0,0,0-6.38,2.365,15.009,15.009,0,0,0-4.235,6.737,31.745,31.745,0,0,0-1.485,10.2q0,9.9,3.163,14.492T142.23-.33a9.676,9.676,0,0,0,5.72-1.705,3.572,3.572,0,0,0,1.292-1.292,4.08,4.08,0,0,0,.3-1.733v-5.28a9.311,9.311,0,0,0-.44-3.355,2.484,2.484,0,0,0-1.54-1.43,13.714,13.714,0,0,0-3.575-.5v-1.1q2.86.165,7.755.165,3.74,0,5.72-.165v1.1a4.723,4.723,0,0,0-1.842.44,1.767,1.767,0,0,0-.77,1.265,16.727,16.727,0,0,0-.193,3.025V0h-1.1a6.923,6.923,0,0,0-.44-2.118q-.385-1.017-1.045-1.017a1.464,1.464,0,0,0-.66.165,9.952,9.952,0,0,0-1.155.77A14.663,14.663,0,0,1,146.272.028,13.482,13.482,0,0,1,141.68.77a19.078,19.078,0,0,1-9.707-2.338A15.329,15.329,0,0,1,125.785-8.3,23.759,23.759,0,0,1,123.64-18.81a25.215,25.215,0,0,1,2.283-11.028,17.281,17.281,0,0,1,6.3-7.315A16.628,16.628,0,0,1,141.35-39.71Zm54.835,1.87a7.677,7.677,0,0,0-2.86.577,2.438,2.438,0,0,0-1.265,1.54,11.434,11.434,0,0,0-.33,3.162V.275h-1.265l-23.1-35.695V-6.38a10.556,10.556,0,0,0,.357,3.19,2.484,2.484,0,0,0,1.4,1.512,9.611,9.611,0,0,0,3.245.577V0q-1.98-.165-5.61-.165-3.3,0-5.115.165V-1.1a7.677,7.677,0,0,0,2.86-.577,2.438,2.438,0,0,0,1.265-1.54,11.434,11.434,0,0,0,.33-3.162V-33.11a9.933,9.933,0,0,0-.33-3.025,1.978,1.978,0,0,0-1.238-1.265,10.956,10.956,0,0,0-2.887-.44v-1.1q1.815.165,5.115.165,2.475,0,4.29-.165L190.465-9.02V-32.56a10.556,10.556,0,0,0-.357-3.19,2.484,2.484,0,0,0-1.4-1.513,9.611,9.611,0,0,0-3.245-.577v-1.1q1.98.165,5.61.165,3.3,0,5.115-.165Z" transform="translate(-10996 -3661)" fill="#5f88b1"/>
      <path id="Path_214" data-name="Path 214" d="M14.84-1.134a2.138,2.138,0,0,0,.525.553,2,2,0,0,0,.707.3V0q-.672-.042-1.68-.042-.756,0-1.442.042V-.28a1.407,1.407,0,0,0,.49-.084.225.225,0,0,0,.154-.21.616.616,0,0,0-.14-.336L11.41-3.99a3,3,0,0,0-.686-.805,1.55,1.55,0,0,0-.784-.217v3.528a2.528,2.528,0,0,0,.084.77.5.5,0,0,0,.315.322,2.789,2.789,0,0,0,.735.112V0Q10.43-.042,9.3-.042,8.092-.042,7.5,0V-.28a2.789,2.789,0,0,0,.735-.112.5.5,0,0,0,.315-.322,2.528,2.528,0,0,0,.084-.77V-8.428a2.528,2.528,0,0,0-.084-.77.5.5,0,0,0-.315-.322A2.789,2.789,0,0,0,7.5-9.632v-.28q.588.042,1.792.042,1.12,0,1.778-.042v.28a2.789,2.789,0,0,0-.735.112.5.5,0,0,0-.315.322,2.528,2.528,0,0,0-.084.77v3.136a2.016,2.016,0,0,0,1.6-.784L12.88-7.784a2.588,2.588,0,0,0,.714-1.344q0-.49-.868-.5v-.28q.8.042,1.61.042.77,0,1.19-.042v.28a2.5,2.5,0,0,0-.868.3,2.719,2.719,0,0,0-.784.721L11.592-5.684Zm12.432-.658q0,.8.1,1.792-.952-.042-3.206-.042-2.688,0-4.06.042V-.28a2.789,2.789,0,0,0,.735-.112.5.5,0,0,0,.315-.322,2.528,2.528,0,0,0,.084-.77V-8.428a2.528,2.528,0,0,0-.084-.77.5.5,0,0,0-.315-.322,2.789,2.789,0,0,0-.735-.112v-.28q1.372.042,4.06.042,2.058,0,2.926-.042a15.834,15.834,0,0,0-.1,1.652,7.045,7.045,0,0,0,.042.868h-.322a6.534,6.534,0,0,0-.252-1.351,1.13,1.13,0,0,0-.518-.644,2.342,2.342,0,0,0-1.106-.2H23.674a2.531,2.531,0,0,0-.735.077.483.483,0,0,0-.315.315,2.528,2.528,0,0,0-.084.77v3.3h.924a1.118,1.118,0,0,0,.756-.231,1.129,1.129,0,0,0,.357-.546,5.033,5.033,0,0,0,.147-.791l.042-.28h.322q-.042.588-.042,1.316v.672q0,.714.084,1.988h-.322q-.014-.1-.084-.679a1.378,1.378,0,0,0-.385-.875,1.233,1.233,0,0,0-.875-.294H22.54v3.36a2.528,2.528,0,0,0,.084.77.483.483,0,0,0,.315.315,2.531,2.531,0,0,0,.735.077H24.7a3,3,0,0,0,1.323-.231,1.39,1.39,0,0,0,.665-.742,5.616,5.616,0,0,0,.308-1.5h.322A9.56,9.56,0,0,0,27.272-1.792ZM40.712-.7a2.429,2.429,0,0,1-.644.686,1.543,1.543,0,0,1-.854.21,1.354,1.354,0,0,1-.945-.336,2.195,2.195,0,0,1-.553-1.176l-.308-1.4a9.383,9.383,0,0,0-.315-1.12,1.442,1.442,0,0,0-.441-.63,1.28,1.28,0,0,0-.826-.238H34.5v3.22a2.528,2.528,0,0,0,.084.77.5.5,0,0,0,.315.322,2.789,2.789,0,0,0,.735.112V0q-.644-.042-1.778-.042-1.2,0-1.792.042V-.28a2.789,2.789,0,0,0,.735-.112.5.5,0,0,0,.315-.322,2.528,2.528,0,0,0,.084-.77V-8.428a2.528,2.528,0,0,0-.084-.77.5.5,0,0,0-.315-.322,2.789,2.789,0,0,0-.735-.112v-.28q.588.042,1.708.042l1.512-.014q.266-.014.6-.014a4,4,0,0,1,2.5.679,2.124,2.124,0,0,1,.875,1.757A2.574,2.574,0,0,1,39-6.363a2.616,2.616,0,0,1-.868.994,3.64,3.64,0,0,1-1.589.6l.168.028a2.5,2.5,0,0,1,1.344.56A2.52,2.52,0,0,1,38.668-2.9l.35,1.428a3.174,3.174,0,0,0,.294.9.472.472,0,0,0,.42.252.628.628,0,0,0,.4-.126A2.2,2.2,0,0,0,40.5-.854Zm-5.18-8.932a1.655,1.655,0,0,0-.651.1.554.554,0,0,0-.3.35,2.548,2.548,0,0,0-.084.756v3.444h.938a2.4,2.4,0,0,0,1.9-.616,2.575,2.575,0,0,0,.518-1.708,2.467,2.467,0,0,0-.546-1.736A2.331,2.331,0,0,0,35.532-9.632Zm17.822,0a1.954,1.954,0,0,0-.728.147.621.621,0,0,0-.322.392,2.911,2.911,0,0,0-.084.805V.07H51.9l-5.88-9.086v7.392a2.687,2.687,0,0,0,.091.812.632.632,0,0,0,.357.385,2.447,2.447,0,0,0,.826.147V0q-.5-.042-1.428-.042-.84,0-1.3.042V-.28a1.954,1.954,0,0,0,.728-.147.621.621,0,0,0,.322-.392,2.911,2.911,0,0,0,.084-.8v-6.8a2.528,2.528,0,0,0-.084-.77A.5.5,0,0,0,45.3-9.52a2.789,2.789,0,0,0-.735-.112v-.28q.462.042,1.3.042.63,0,1.092-.042L51.9-2.3V-8.288a2.687,2.687,0,0,0-.091-.812.632.632,0,0,0-.357-.385,2.446,2.446,0,0,0-.826-.147v-.28q.5.042,1.428.042.84,0,1.3-.042Zm8.092,0a2.789,2.789,0,0,0-.735.112A.5.5,0,0,0,60.4-9.2a2.528,2.528,0,0,0-.084.77v6.944a2.528,2.528,0,0,0,.084.77.5.5,0,0,0,.315.322,2.789,2.789,0,0,0,.735.112V0Q60.8-.042,59.668-.042q-1.2,0-1.792.042V-.28a2.789,2.789,0,0,0,.735-.112.5.5,0,0,0,.315-.322,2.528,2.528,0,0,0,.084-.77V-8.428a2.528,2.528,0,0,0-.084-.77.5.5,0,0,0-.315-.322,2.789,2.789,0,0,0-.735-.112v-.28q.588.042,1.792.042,1.12,0,1.778-.042Zm13.4,0a1.954,1.954,0,0,0-.728.147.621.621,0,0,0-.322.392,2.911,2.911,0,0,0-.084.805V.07h-.322l-5.88-9.086v7.392a2.687,2.687,0,0,0,.091.812.632.632,0,0,0,.357.385,2.447,2.447,0,0,0,.826.147V0q-.5-.042-1.428-.042-.84,0-1.3.042V-.28a1.954,1.954,0,0,0,.728-.147A.621.621,0,0,0,67.1-.819a2.911,2.911,0,0,0,.084-.8v-6.8A2.528,2.528,0,0,0,67.1-9.2a.5.5,0,0,0-.315-.322,2.789,2.789,0,0,0-.735-.112v-.28q.462.042,1.3.042.63,0,1.092-.042L73.388-2.3V-8.288A2.687,2.687,0,0,0,73.3-9.1a.632.632,0,0,0-.357-.385,2.446,2.446,0,0,0-.826-.147v-.28q.5.042,1.428.042.84,0,1.3-.042Zm9.1-.476a3.432,3.432,0,0,1,1.358.231,6.55,6.55,0,0,1,1.162.679.544.544,0,0,0,.28.14q.266,0,.35-.854h.322q-.056.91-.056,3.22h-.322a11.342,11.342,0,0,0-.266-1.225,2.39,2.39,0,0,0-.434-.847,2.82,2.82,0,0,0-1.057-.8,3.28,3.28,0,0,0-1.365-.294,2.415,2.415,0,0,0-1.624.6,3.821,3.821,0,0,0-1.078,1.715,8.081,8.081,0,0,0-.378,2.6,6.621,6.621,0,0,0,.805,3.689A2.853,2.853,0,0,0,84.168-.084a2.463,2.463,0,0,0,1.456-.434.909.909,0,0,0,.329-.329,1.039,1.039,0,0,0,.077-.441V-2.632a2.37,2.37,0,0,0-.112-.854.632.632,0,0,0-.392-.364,3.491,3.491,0,0,0-.91-.126v-.28q.728.042,1.974.042.952,0,1.456-.042v.28a1.2,1.2,0,0,0-.469.112.45.45,0,0,0-.2.322,4.259,4.259,0,0,0-.049.77V0h-.28a1.762,1.762,0,0,0-.112-.539q-.1-.259-.266-.259a.373.373,0,0,0-.168.042,2.533,2.533,0,0,0-.294.2A3.732,3.732,0,0,1,85.2.007,3.432,3.432,0,0,1,84.028.2,4.856,4.856,0,0,1,81.557-.4a3.9,3.9,0,0,1-1.575-1.715,6.048,6.048,0,0,1-.546-2.674A6.418,6.418,0,0,1,80.017-7.6a4.4,4.4,0,0,1,1.6-1.862A4.233,4.233,0,0,1,83.944-10.108Z" transform="translate(-10981 -3557) rotate(-90)" fill="#0099d1"/>
      <path id="Path_215" data-name="Path 215" d="M17.76,10.76q-.21,2.13-.21,3.84,0,1.5.09,2.46h-.69a18.407,18.407,0,0,0-.6-3.435,2.812,2.812,0,0,0-1.26-1.65,5.64,5.64,0,0,0-2.76-.525H10.71V28.52a5.079,5.079,0,0,0,.24,1.83,1.355,1.355,0,0,0,.84.78,7.48,7.48,0,0,0,1.95.27V32q-1.56-.09-4.41-.09-3,0-4.44.09v-.6a7.48,7.48,0,0,0,1.95-.27,1.355,1.355,0,0,0,.84-.78,5.079,5.079,0,0,0,.24-1.83V11.45H6.3a5.64,5.64,0,0,0-2.76.525,2.812,2.812,0,0,0-1.26,1.65,18.407,18.407,0,0,0-.6,3.435H.99q.09-.96.09-2.46,0-1.71-.21-3.84,2.49.09,8.46.09Q15.27,10.85,17.76,10.76Zm16.26.09q1.35,0,2.25-.09v.6a2.444,2.444,0,0,0-1.17.765,8.724,8.724,0,0,0-1.23,1.905l-4.71,9.33v5.46a5.418,5.418,0,0,0,.18,1.65,1.079,1.079,0,0,0,.675.69,5.976,5.976,0,0,0,1.575.24V32q-1.38-.09-3.81-.09-2.58,0-3.84.09v-.6a5.976,5.976,0,0,0,1.575-.24,1.079,1.079,0,0,0,.675-.69,5.418,5.418,0,0,0,.18-1.65v-4.5L20.28,13.07a4.957,4.957,0,0,0-.945-1.335,1.24,1.24,0,0,0-.8-.345v-.63q1.17.09,2.64.09,2.91,0,4.2-.09v.63q-2.1,0-2.1,1.14a2.417,2.417,0,0,0,.3,1.05l4.98,9.57,3.84-7.62a6.1,6.1,0,0,0,.81-2.58,1.258,1.258,0,0,0-.66-1.2,4.476,4.476,0,0,0-1.98-.39v-.6Q32.28,10.85,34.02,10.85Zm8.82,12.57v5.4a4.147,4.147,0,0,0,.24,1.65,1.281,1.281,0,0,0,.84.69,8.872,8.872,0,0,0,1.95.24V32q-1.56-.09-4.41-.09-2.58,0-3.84.09v-.6a5.976,5.976,0,0,0,1.575-.24,1.079,1.079,0,0,0,.675-.69,5.418,5.418,0,0,0,.18-1.65V13.94a5.418,5.418,0,0,0-.18-1.65,1.079,1.079,0,0,0-.675-.69,5.976,5.976,0,0,0-1.575-.24v-.6q1.26.09,3.66.09l3.24-.03q.57-.03,1.29-.03a7.991,7.991,0,0,1,5.37,1.6A5.4,5.4,0,0,1,53.04,16.7a7.165,7.165,0,0,1-.735,3.165,6,6,0,0,1-2.49,2.535,9.246,9.246,0,0,1-4.665,1.02Zm2.22-12.06a3.547,3.547,0,0,0-1.4.21,1.187,1.187,0,0,0-.645.75,5.46,5.46,0,0,0-.18,1.62v8.88h2.01q2.94,0,4.065-1.575A7.111,7.111,0,0,0,50.04,17.03a6.6,6.6,0,0,0-1.155-4.29A4.731,4.731,0,0,0,45.06,11.36Zm25.47,16.8q0,1.71.21,3.84-2.04-.09-6.87-.09-5.76,0-8.7.09v-.6a5.976,5.976,0,0,0,1.575-.24,1.079,1.079,0,0,0,.675-.69,5.418,5.418,0,0,0,.18-1.65V13.94a5.418,5.418,0,0,0-.18-1.65,1.079,1.079,0,0,0-.675-.69,5.976,5.976,0,0,0-1.575-.24v-.6q2.94.09,8.7.09,4.41,0,6.27-.09a33.93,33.93,0,0,0-.21,3.54,15.1,15.1,0,0,0,.09,1.86h-.69a14,14,0,0,0-.54-2.895,2.421,2.421,0,0,0-1.11-1.38,5.02,5.02,0,0,0-2.37-.435H62.82a5.425,5.425,0,0,0-1.575.165,1.035,1.035,0,0,0-.675.675,5.418,5.418,0,0,0-.18,1.65v7.08h1.98a2.4,2.4,0,0,0,1.62-.495,2.42,2.42,0,0,0,.765-1.17,10.787,10.787,0,0,0,.315-1.695l.09-.6h.69q-.09,1.26-.09,2.82v1.44q0,1.53.18,4.26h-.69q-.03-.21-.18-1.455a2.952,2.952,0,0,0-.825-1.875,2.641,2.641,0,0,0-1.875-.63H60.39v7.2a5.418,5.418,0,0,0,.18,1.65,1.035,1.035,0,0,0,.675.675,5.425,5.425,0,0,0,1.575.165h2.19a6.434,6.434,0,0,0,2.835-.495,2.978,2.978,0,0,0,1.425-1.59A12.035,12.035,0,0,0,69.93,26h.69A20.486,20.486,0,0,0,70.53,28.16Z" transform="translate(-10995 -3505)" fill="#094c84"/>
      <path id="Path_201" data-name="Path 201" d="M38.071,22.016q-.415,5.634-.415,10.081,0,2.787.178,4.507H36.47q-1.423-7.294-3.884-10.259a8.28,8.28,0,0,0-6.731-2.965H24.491V57.24a9.494,9.494,0,0,0,.5,3.617,2.693,2.693,0,0,0,1.779,1.512,16.6,16.6,0,0,0,4.062.445V64q-7.472-.178-11.267-.178-3.736,0-10.852.178V62.814a16.6,16.6,0,0,0,4.062-.445,2.693,2.693,0,0,0,1.779-1.512,9.494,9.494,0,0,0,.5-3.617V23.38h-1.3a8.922,8.922,0,0,0-4.833,1.245,9.827,9.827,0,0,0-3.41,4.121A32.891,32.891,0,0,0,3.084,36.6H1.72Q1.9,34.884,1.9,32.1q0-4.448-.415-10.081,5.4.178,18.324.178T38.071,22.016Zm33.623.119q2.728,0,4.507-.178v1.186q-2.728,1.127-5.693,6.879l-7,13.876V57.714a11.633,11.633,0,0,0,.326,3.262,2.058,2.058,0,0,0,1.216,1.364,10.136,10.136,0,0,0,2.906.474V64q-3.2-.178-9.132-.178-6.345,0-9.191.178V62.814a10.3,10.3,0,0,0,2.876-.474,2.052,2.052,0,0,0,1.245-1.364,11.633,11.633,0,0,0,.326-3.262V47.692L42.637,26.522Q40.8,23.2,39.2,23.2V21.956a65.011,65.011,0,0,0,7,.3q5.515,0,11.148-.3V23.2a11.263,11.263,0,0,0-3.291.385q-1.216.385-1.216,1.394a2.89,2.89,0,0,0,.415,1.3L62.265,43.66l4.625-9.251Q69.2,29.725,69.2,27.056a3.291,3.291,0,0,0-1.275-2.906,6.959,6.959,0,0,0-3.647-1.008V21.956Q68.314,22.134,71.694,22.134ZM92.449,47.04V57.358a8.838,8.838,0,0,0,.5,3.469,2.615,2.615,0,0,0,1.779,1.453,18.033,18.033,0,0,0,4.062.415V64q-7.294-.178-10.852-.178-2.965,0-7.472.119l-1.9.059V62.814a10.3,10.3,0,0,0,2.876-.474,2.052,2.052,0,0,0,1.245-1.364,11.633,11.633,0,0,0,.326-3.262V28.3a11.633,11.633,0,0,0-.326-3.261,2.052,2.052,0,0,0-1.245-1.364,10.3,10.3,0,0,0-2.876-.474V22.016q3.024.178,9.014.178l6.582-.059q1.186-.059,2.728-.059,8.005,0,12.216,3.173a10.113,10.113,0,0,1,4.21,8.51,12.2,12.2,0,0,1-7.264,11.267q-3.943,2.016-10.466,2.016ZM96.125,23.2a5,5,0,0,0-2.342.415A2.3,2.3,0,0,0,92.745,25.1a12.848,12.848,0,0,0-.3,3.2V45.854H95q4.8,0,6.642-3.084a16.288,16.288,0,0,0,1.838-8.361q0-5.752-1.69-8.48T96.125,23.2Zm41.984-2.016a22.773,22.773,0,0,1,11,2.55,17.816,17.816,0,0,1,7.324,7.383,23.951,23.951,0,0,1,2.609,11.534,24.342,24.342,0,0,1-2.669,11.563,19.332,19.332,0,0,1-7.442,7.828A21.179,21.179,0,0,1,138.05,64.83a22.773,22.773,0,0,1-11-2.55,17.816,17.816,0,0,1-7.324-7.383,23.951,23.951,0,0,1-2.609-11.534A24.342,24.342,0,0,1,119.786,31.8a19.332,19.332,0,0,1,7.442-7.828A21.179,21.179,0,0,1,138.11,21.185Zm-.237,1.067a7.7,7.7,0,0,0-5.752,2.639,17.467,17.467,0,0,0-3.825,7.383,40.165,40.165,0,0,0-1.334,10.852,35.359,35.359,0,0,0,1.512,10.852,17.583,17.583,0,0,0,4.092,7.235,7.978,7.978,0,0,0,5.722,2.55,7.7,7.7,0,0,0,5.752-2.639,17.467,17.467,0,0,0,3.825-7.383A40.165,40.165,0,0,0,149.2,42.889a35.359,35.359,0,0,0-1.512-10.852,17.583,17.583,0,0,0-4.092-7.235A7.978,7.978,0,0,0,137.872,22.253Zm47.736-1.067a16.74,16.74,0,0,1,6.2,1.008,21.423,21.423,0,0,1,4.952,2.846,2.163,2.163,0,0,0,1.186.534q.593,0,.949-.86a10.135,10.135,0,0,0,.534-2.7h1.364q-.237,4.032-.237,14.351h-1.364a29.151,29.151,0,0,0-1.394-6.523,9.594,9.594,0,0,0-3.054-4.21,10.025,10.025,0,0,0-3.5-2.135,12.169,12.169,0,0,0-4.27-.771,9.269,9.269,0,0,0-6.908,2.817A17,17,0,0,0,176,32.986a37.265,37.265,0,0,0-1.3,10.14q0,20.518,11.386,20.518a6.9,6.9,0,0,0,4.21-1.186,3.1,3.1,0,0,0,1.1-1.245,4.438,4.438,0,0,0,.326-1.838V53.563a12.614,12.614,0,0,0-.474-4.062,2.851,2.851,0,0,0-1.69-1.749,12.943,12.943,0,0,0-3.825-.593V45.973q3.677.178,10.14.178,5.278,0,7.946-.178v1.186a3.91,3.91,0,0,0-1.72.474A2.056,2.056,0,0,0,201.353,49a18.036,18.036,0,0,0-.208,3.261V64H199.96a6.808,6.808,0,0,0-.5-2.313q-.445-1.067-1.216-1.067a7.764,7.764,0,0,0-3.2,1.245,19.647,19.647,0,0,1-9.725,2.965q-10.259,0-15.715-5.6t-5.456-15.744A23.955,23.955,0,0,1,166.9,31.8a19.755,19.755,0,0,1,7.62-7.828A21.9,21.9,0,0,1,185.609,21.185ZM247.4,61.391a9.806,9.806,0,0,1-3.439,2.639,11.11,11.11,0,0,1-4.447.8,9.019,9.019,0,0,1-5.426-1.453,7.346,7.346,0,0,1-2.58-4.952L230.44,52.5a22.652,22.652,0,0,0-1.868-6.375,3.813,3.813,0,0,0-3.647-2.046H221.07V57.714a11.633,11.633,0,0,0,.326,3.262,2.058,2.058,0,0,0,1.216,1.364,10.136,10.136,0,0,0,2.906.474V64q-3.2-.178-8.954-.178-6.345,0-9.369.178V62.814a10.3,10.3,0,0,0,2.876-.474,2.052,2.052,0,0,0,1.245-1.364,11.633,11.633,0,0,0,.326-3.262V28.3a11.633,11.633,0,0,0-.326-3.261,2.052,2.052,0,0,0-1.245-1.364,10.3,10.3,0,0,0-2.876-.474V22.016q3.024.178,9.014.178l6.582-.059q1.186-.059,2.728-.059,8.183,0,12.3,2.669a8.58,8.58,0,0,1,4.121,7.65,10.366,10.366,0,0,1-3.084,7.413q-3.084,3.2-10.2,4.032,5.337.474,7.946,2.313a8.574,8.574,0,0,1,3.38,5.515l1.364,6.108a10.131,10.131,0,0,0,1.1,3.321,1.977,1.977,0,0,0,1.749.949,2.834,2.834,0,0,0,1.216-.356,5.4,5.4,0,0,0,1.156-1.008ZM224.747,23.2a5,5,0,0,0-2.342.415,2.3,2.3,0,0,0-1.038,1.483,12.847,12.847,0,0,0-.3,3.2V42.889h2.55q4.863,0,6.671-2.58t1.809-7.264q0-4.863-1.72-7.353T224.747,23.2Zm57.7,35.817a7.346,7.346,0,0,0,1.779,2.846,3.341,3.341,0,0,0,1.957.949V64q-3.558-.178-9.014-.178-6.049,0-9.014.178V62.814a9.387,9.387,0,0,0,3.2-.563,1.591,1.591,0,0,0,.949-1.571,8.2,8.2,0,0,0-.712-2.846l-3.558-9.725H255.109L253.567,52.2a19.93,19.93,0,0,0-1.66,6.582,3.351,3.351,0,0,0,1.334,3.054,8.037,8.037,0,0,0,3.943.978V64q-4.032-.178-7.353-.178-2.728,0-4.507.178V62.814q2.906-.534,5.1-6.226l13.52-34.69q.652.059,2.076.059t2.016-.059Zm-14.825-12.1L261.75,30.911l-6.167,16.011Zm32.852.119V57.358a8.838,8.838,0,0,0,.5,3.469,2.615,2.615,0,0,0,1.779,1.453,18.033,18.033,0,0,0,4.062.415V64q-7.294-.178-10.852-.178-2.965,0-7.472.119L286.6,64V62.814a10.3,10.3,0,0,0,2.876-.474,2.052,2.052,0,0,0,1.245-1.364,11.633,11.633,0,0,0,.326-3.262V28.3a11.633,11.633,0,0,0-.326-3.261,2.052,2.052,0,0,0-1.245-1.364A10.3,10.3,0,0,0,286.6,23.2V22.016q3.024.178,9.014.178l6.582-.059q1.186-.059,2.728-.059,8.006,0,12.216,3.173a10.113,10.113,0,0,1,4.21,8.51,12.2,12.2,0,0,1-7.264,11.267q-3.943,2.016-10.466,2.016ZM304.15,23.2a5,5,0,0,0-2.342.415A2.3,2.3,0,0,0,300.77,25.1a12.847,12.847,0,0,0-.3,3.2V45.854h2.55q4.8,0,6.642-3.084a16.288,16.288,0,0,0,1.838-8.361q0-5.752-1.69-8.48T304.15,23.2Zm63.629,0a10.136,10.136,0,0,0-2.906.474,2.058,2.058,0,0,0-1.216,1.364,11.633,11.633,0,0,0-.326,3.261V57.714a11.633,11.633,0,0,0,.326,3.262,2.058,2.058,0,0,0,1.216,1.364,10.136,10.136,0,0,0,2.906.474V64q-2.906-.178-9.014-.178-5.989,0-9.31.178V62.814a10.3,10.3,0,0,0,2.876-.474,2.052,2.052,0,0,0,1.245-1.364,11.633,11.633,0,0,0,.326-3.262V43.482H338.188V57.714a11.633,11.633,0,0,0,.326,3.262,2.058,2.058,0,0,0,1.216,1.364,10.136,10.136,0,0,0,2.906.474V64q-3.2-.178-8.954-.178-6.345,0-9.369.178V62.814a10.3,10.3,0,0,0,2.876-.474,2.052,2.052,0,0,0,1.245-1.364,11.633,11.633,0,0,0,.326-3.262V28.3a11.633,11.633,0,0,0-.326-3.261,2.052,2.052,0,0,0-1.245-1.364,10.3,10.3,0,0,0-2.876-.474V22.016q3.024.178,9.369.178,5.752,0,8.954-.178V23.2a10.136,10.136,0,0,0-2.906.474,2.058,2.058,0,0,0-1.216,1.364,11.633,11.633,0,0,0-.326,3.261V42.3H353.9V28.3a11.633,11.633,0,0,0-.326-3.261,2.052,2.052,0,0,0-1.245-1.364,10.3,10.3,0,0,0-2.876-.474V22.016q3.321.178,9.31.178,6.108,0,9.014-.178Zm34.038-1.067q2.728,0,4.507-.178v1.186q-2.728,1.127-5.693,6.879l-7,13.876V57.714a11.633,11.633,0,0,0,.326,3.262,2.058,2.058,0,0,0,1.216,1.364,10.136,10.136,0,0,0,2.906.474V64q-3.2-.178-9.132-.178-6.345,0-9.191.178V62.814a10.3,10.3,0,0,0,2.876-.474,2.052,2.052,0,0,0,1.245-1.364,11.633,11.633,0,0,0,.326-3.262V47.692L372.76,26.522Q370.922,23.2,369.32,23.2V21.956a65.011,65.011,0,0,0,7,.3q5.515,0,11.148-.3V23.2a11.263,11.263,0,0,0-3.291.385q-1.216.385-1.216,1.394a2.89,2.89,0,0,0,.415,1.3l9.014,17.375,4.625-9.251q2.313-4.685,2.313-7.353a3.291,3.291,0,0,0-1.275-2.906,6.959,6.959,0,0,0-3.647-1.008V21.956Q398.437,22.134,401.817,22.134Z" transform="translate(-10986 -3702) rotate(90)" fill="#094c84"/>
    </g>
  </g>
</svg>
