<svg id="Layer_1" data-name="Layer 1" xmlns="http://www.w3.org/2000/svg" viewBox="0 0 251.26 380.81"><title>Playfair</title><g id="Group_148" data-name="Group 148"><path id="Path_211" data-name="Path 211" d="M59.08,162.57v5.58a4.31,4.31,0,0,0,.25,1.7,1.33,1.33,0,0,0,.86.71,9.15,9.15,0,0,0,2,.25v.62c-1.08-.07-2.59-.1-4.55-.1-1.78,0-3.1,0-4,.1v-.62a6.44,6.44,0,0,0,1.63-.25,1.12,1.12,0,0,0,.7-.71,5.44,5.44,0,0,0,.18-1.7V152.79a5.41,5.41,0,0,0-.18-1.7,1.12,1.12,0,0,0-.7-.71,6,6,0,0,0-1.63-.25v-.62q1.31.09,3.78.09l3.34,0c.4,0,.84,0,1.33,0a8.31,8.31,0,0,1,5.55,1.66,5.57,5.57,0,0,1,1.92,4.44,7.36,7.36,0,0,1-.76,3.26,6.24,6.24,0,0,1-2.57,2.62,9.6,9.6,0,0,1-4.82,1Zm2.29-12.44a3.54,3.54,0,0,0-1.44.22,1.22,1.22,0,0,0-.67.77,5.86,5.86,0,0,0-.18,1.67V162h2.07c2,0,3.43-.55,4.2-1.63A7.34,7.34,0,0,0,66.52,156a6.85,6.85,0,0,0-1.2-4.43A4.87,4.87,0,0,0,61.37,150.13Zm25.42,18.7c.5,1.28,1.21,1.94,2.14,2v.62c-.83-.06-1.93-.09-3.32-.09q-2.65,0-4,.09v-.62a5.13,5.13,0,0,0,1.69-.29.87.87,0,0,0,.51-.86,4.31,4.31,0,0,0-.37-1.45l-1.89-5.08H74.1l-1.27,3.28a8,8,0,0,0-.62,2.54,1.55,1.55,0,0,0,.66,1.4,4,4,0,0,0,2,.46v.62c-1.17-.06-2.36-.09-3.56-.09-.93,0-1.7,0-2.32.09v-.62c1-.25,1.85-1.15,2.45-2.69l7.27-18.77h.5Zm-5.45-6.32-3.47-9.25-3.53,9.25Zm27.21,7.37a5.28,5.28,0,0,1-1.42,1.52,3.39,3.39,0,0,1-1.89.47,3,3,0,0,1-2.09-.75,4.8,4.8,0,0,1-1.22-2.6l-.68-3.1a21.07,21.07,0,0,0-.7-2.47,3.22,3.22,0,0,0-1-1.4,2.82,2.82,0,0,0-1.82-.52H94.81v7.12a5.44,5.44,0,0,0,.18,1.7,1.12,1.12,0,0,0,.7.71,6.44,6.44,0,0,0,1.63.25v.62c-.95-.07-2.26-.1-3.93-.1s-3.1,0-4,.1v-.62a6.44,6.44,0,0,0,1.63-.25,1.12,1.12,0,0,0,.7-.71,5.44,5.44,0,0,0,.18-1.7V152.79a5.41,5.41,0,0,0-.18-1.7,1.12,1.12,0,0,0-.7-.71,6,6,0,0,0-1.63-.25v-.62q1.31.09,3.78.09l3.34,0c.4,0,.84,0,1.33,0a8.88,8.88,0,0,1,5.53,1.5,4.72,4.72,0,0,1,1.94,3.89,5.71,5.71,0,0,1-.58,2.43,5.81,5.81,0,0,1-1.92,2.2,7.94,7.94,0,0,1-3.51,1.31l.37.07a5.5,5.5,0,0,1,3,1.23A5.58,5.58,0,0,1,104,165l.78,3.16a6.87,6.87,0,0,0,.65,2,1,1,0,0,0,.93.56,1.38,1.38,0,0,0,.88-.28,5,5,0,0,0,.82-.9ZM97.1,150.13a3.54,3.54,0,0,0-1.44.22,1.22,1.22,0,0,0-.67.77,5.86,5.86,0,0,0-.18,1.67v7.62h2.07c2.05,0,3.45-.46,4.21-1.36a5.73,5.73,0,0,0,1.15-3.78,5.45,5.45,0,0,0-1.21-3.84A5.11,5.11,0,0,0,97.1,150.13Zm28.64,18.7c.49,1.28,1.21,1.94,2.13,2v.62c-.82-.06-1.92-.09-3.31-.09q-2.66,0-4,.09v-.62a5.18,5.18,0,0,0,1.69-.29.87.87,0,0,0,.51-.86,4.32,4.32,0,0,0-.38-1.45l-1.88-5.08H113l-1.26,3.28a7.75,7.75,0,0,0-.62,2.54,1.55,1.55,0,0,0,.66,1.4,4,4,0,0,0,2,.46v.62c-1.18-.06-2.36-.09-3.56-.09-.93,0-1.7,0-2.32.09v-.62c1-.25,1.85-1.15,2.44-2.69l7.28-18.77h.5Zm-5.45-6.32-3.47-9.25-3.53,9.25ZM139,149.08a7.47,7.47,0,0,1,3,.51,14,14,0,0,1,2.57,1.5,1.22,1.22,0,0,0,.62.31c.39,0,.65-.63.77-1.89h.72q-.13,2-.13,7.12h-.71a25.17,25.17,0,0,0-.59-2.71,5.28,5.28,0,0,0-1-1.87,6.27,6.27,0,0,0-2.34-1.77,7.26,7.26,0,0,0-3-.65,5.39,5.39,0,0,0-3.59,1.33,8.48,8.48,0,0,0-2.38,3.8,17.7,17.7,0,0,0-.83,5.74q0,5.58,1.78,8.16a6.29,6.29,0,0,0,5.58,2.58,5.35,5.35,0,0,0,3.22-1,1.87,1.87,0,0,0,.73-.72,2.21,2.21,0,0,0,.17-1v-3a5.05,5.05,0,0,0-.25-1.89,1.39,1.39,0,0,0-.86-.8,7.62,7.62,0,0,0-2-.28V162c1.07.06,2.52.09,4.36.09,1.4,0,2.48,0,3.22-.09v.62a2.69,2.69,0,0,0-1,.25,1,1,0,0,0-.43.71,9.65,9.65,0,0,0-.11,1.7v6.13h-.62a4,4,0,0,0-.24-1.19c-.15-.38-.34-.57-.59-.57a.78.78,0,0,0-.37.09,4.88,4.88,0,0,0-.65.43,8.44,8.44,0,0,1-2.25,1.26,7.79,7.79,0,0,1-2.58.41,10.74,10.74,0,0,1-5.47-1.31,8.65,8.65,0,0,1-3.48-3.8,13.36,13.36,0,0,1-1.21-5.91,14.16,14.16,0,0,1,1.29-6.21,9.6,9.6,0,0,1,3.54-4.11A9.34,9.34,0,0,1,139,149.08Zm30.56,20.8a5.45,5.45,0,0,1-1.43,1.52,3.43,3.43,0,0,1-1.88.46,3,3,0,0,1-2.09-.74,4.89,4.89,0,0,1-1.23-2.6l-.68-3.1a19.44,19.44,0,0,0-.7-2.48,3.22,3.22,0,0,0-1-1.39,2.85,2.85,0,0,0-1.83-.53h-2.94v7.12a5.69,5.69,0,0,0,.18,1.7,1.14,1.14,0,0,0,.7.72,6.42,6.42,0,0,0,1.63.24v.62q-1.43-.09-3.93-.09c-1.78,0-3.1,0-4,.09v-.62a6.36,6.36,0,0,0,1.63-.24,1.14,1.14,0,0,0,.7-.72,5.69,5.69,0,0,0,.19-1.7V152.79a5.73,5.73,0,0,0-.19-1.7,1.12,1.12,0,0,0-.7-.71,6,6,0,0,0-1.63-.25v-.62q1.31.09,3.78.09l3.35,0c.39,0,.83,0,1.33,0a8.87,8.87,0,0,1,5.52,1.5,4.7,4.7,0,0,1,1.94,3.89,5.71,5.71,0,0,1-.58,2.43,5.81,5.81,0,0,1-1.92,2.2,7.94,7.94,0,0,1-3.51,1.31l.37.07a5.5,5.5,0,0,1,3,1.23,5.59,5.59,0,0,1,1.37,2.85l.77,3.16a7.19,7.19,0,0,0,.65,2,1,1,0,0,0,.93.56,1.38,1.38,0,0,0,.88-.28,5,5,0,0,0,.82-.9Zm-11.46-19.75a3.54,3.54,0,0,0-1.44.22,1.21,1.21,0,0,0-.66.77,5.53,5.53,0,0,0-.19,1.67v7.62h2.08c2,0,3.44-.46,4.21-1.36a5.72,5.72,0,0,0,1.14-3.78,5.44,5.44,0,0,0-1.2-3.84A5.12,5.12,0,0,0,158.12,150.13Zm28.64,18.7c.5,1.28,1.21,1.94,2.14,2v.62c-.83-.06-1.93-.09-3.32-.09q-2.66,0-4,.09v-.62a5.09,5.09,0,0,0,1.69-.29.87.87,0,0,0,.51-.86,4.31,4.31,0,0,0-.37-1.45l-1.89-5.08h-7.5l-1.27,3.28a8,8,0,0,0-.61,2.54,1.55,1.55,0,0,0,.66,1.4,4,4,0,0,0,2,.46v.62c-1.18-.06-2.36-.09-3.56-.09-.93,0-1.7,0-2.32.09v-.62c1-.25,1.85-1.15,2.44-2.69l7.28-18.77h.5Zm-5.45-6.32-3.47-9.25-3.52,9.25Zm13.47.06v5.58a4.31,4.31,0,0,0,.25,1.7,1.35,1.35,0,0,0,.87.71,9.07,9.07,0,0,0,2,.25v.62c-1.08-.07-2.59-.1-4.55-.1-1.78,0-3.1,0-4,.1v-.62a6.44,6.44,0,0,0,1.63-.25,1.12,1.12,0,0,0,.7-.71,5.44,5.44,0,0,0,.18-1.7V152.79a5.41,5.41,0,0,0-.18-1.7,1.12,1.12,0,0,0-.7-.71,6,6,0,0,0-1.63-.25v-.62q1.31.09,3.78.09l3.34,0c.4,0,.84,0,1.34,0a8.3,8.3,0,0,1,5.54,1.66,5.57,5.57,0,0,1,1.92,4.44,7.36,7.36,0,0,1-.76,3.26,6.24,6.24,0,0,1-2.57,2.62,9.6,9.6,0,0,1-4.82,1Zm2.29-12.44a3.54,3.54,0,0,0-1.44.22,1.18,1.18,0,0,0-.66.77,5.53,5.53,0,0,0-.19,1.67V162h2.07c2,0,3.43-.55,4.2-1.63a7.27,7.27,0,0,0,1.16-4.35,6.79,6.79,0,0,0-1.19-4.43A4.87,4.87,0,0,0,197.07,150.13Zm31.27,0a6,6,0,0,0-1.62.25,1.06,1.06,0,0,0-.7.71,5.73,5.73,0,0,0-.19,1.7v15.36a5.77,5.77,0,0,0,.19,1.7,1.08,1.08,0,0,0,.7.71,6.36,6.36,0,0,0,1.62.25v.62c-.86-.07-2.19-.1-4-.1s-3,0-3.93.1v-.62a6.36,6.36,0,0,0,1.62-.25,1.12,1.12,0,0,0,.7-.71,5.77,5.77,0,0,0,.19-1.7v-7.43H212.89v7.43a5.77,5.77,0,0,0,.19,1.7,1.12,1.12,0,0,0,.7.71,6.36,6.36,0,0,0,1.62.25v.62c-1-.07-2.26-.1-3.93-.1s-3.09,0-4,.1v-.62a6.29,6.29,0,0,0,1.62-.25,1.08,1.08,0,0,0,.7-.71,5.45,5.45,0,0,0,.19-1.7V152.79a5.42,5.42,0,0,0-.19-1.7,1.08,1.08,0,0,0-.7-.71,5.89,5.89,0,0,0-1.62-.25v-.62q1.31.09,4,.09,2.47,0,3.93-.09v.62a6,6,0,0,0-1.62.25,1.12,1.12,0,0,0-.7.71,5.73,5.73,0,0,0-.19,1.7v7.31H223v-7.31a5.41,5.41,0,0,0-.18-1.7,1.12,1.12,0,0,0-.7-.71,6,6,0,0,0-1.63-.25v-.62c.95.06,2.26.09,3.94.09s3.09,0,4-.09Z" style="fill:#258abf"/><path id="Path_205" data-name="Path 205" d="M58.88,285a5,5,0,0,1,1.92.32,6.61,6.61,0,0,1,1.54.9.64.64,0,0,0,.35.17c.25,0,.42-.38.49-1.13h.43c0,.81-.07,2.25-.07,4.32h-.43a14.89,14.89,0,0,0-.38-1.76,3.08,3.08,0,0,0-.56-1,3.4,3.4,0,0,0-1.44-1.1,4.66,4.66,0,0,0-1.88-.36,3.1,3.1,0,0,0-2.13.81,5.16,5.16,0,0,0-1.42,2.29,10.91,10.91,0,0,0-.51,3.5,10.23,10.23,0,0,0,.55,3.51,4.93,4.93,0,0,0,1.51,2.22,3.47,3.47,0,0,0,2.18.77,5,5,0,0,0,1.83-.36A3.13,3.13,0,0,0,62.25,297a3.57,3.57,0,0,0,.54-1.13,14.45,14.45,0,0,0,.32-1.84h.43c0,2.15,0,3.65.07,4.5h-.43a3.18,3.18,0,0,0-.16-.86c-.07-.16-.16-.24-.29-.24a.7.7,0,0,0-.39.15,8,8,0,0,1-1.62.91,5.07,5.07,0,0,1-1.85.31,6,6,0,0,1-3.13-.81,5.39,5.39,0,0,1-2.08-2.33,9.28,9.28,0,0,1,0-7.31,5.86,5.86,0,0,1,2.12-2.48A5.52,5.52,0,0,1,58.88,285Zm19.37.64a3.35,3.35,0,0,0-1,.15.69.69,0,0,0-.42.43,3.23,3.23,0,0,0-.11,1v9.31a3.29,3.29,0,0,0,.11,1,.69.69,0,0,0,.42.43,3.71,3.71,0,0,0,1,.15v.38q-.8-.06-2.4-.06c-1,0-1.81,0-2.38.06v-.38a3.64,3.64,0,0,0,1-.15.67.67,0,0,0,.42-.43,3.63,3.63,0,0,0,.12-1v-4.5h-6.1v4.5a3.29,3.29,0,0,0,.11,1,.67.67,0,0,0,.42.43,3.65,3.65,0,0,0,1,.15v.38c-.58,0-1.37-.06-2.39-.06s-1.87,0-2.4.06v-.38a3.65,3.65,0,0,0,1-.15.67.67,0,0,0,.42-.43,3.29,3.29,0,0,0,.11-1v-9.31a3.23,3.23,0,0,0-.11-1,.67.67,0,0,0-.42-.43,3.3,3.3,0,0,0-1-.15v-.38q.8.06,2.4.06c1,0,1.8,0,2.39-.06v.38a3.3,3.3,0,0,0-1,.15.67.67,0,0,0-.42.43,3.23,3.23,0,0,0-.11,1v4.43H75v-4.43a3.55,3.55,0,0,0-.12-1,.67.67,0,0,0-.42-.43,3.28,3.28,0,0,0-1-.15v-.38c.57,0,1.37.06,2.38.06s1.87,0,2.4-.06ZM89.68,297q.45,1.15,1.29,1.2v.37c-.5,0-1.17-.05-2-.05-1.07,0-1.87,0-2.4.05v-.37a3,3,0,0,0,1-.18.53.53,0,0,0,.31-.51,2.72,2.72,0,0,0-.23-.89l-1.15-3.07H82l-.77,2a5.1,5.1,0,0,0-.37,1.54.91.91,0,0,0,.4.84,2.39,2.39,0,0,0,1.23.28v.38c-.72,0-1.43-.06-2.16-.06a13.83,13.83,0,0,0-1.41.06v-.38c.63-.15,1.12-.69,1.48-1.63l4.41-11.37h.3Zm-3.31-3.83-2.1-5.61-2.14,5.61Zm16.5,4.47a3.31,3.31,0,0,1-.87.92,2.06,2.06,0,0,1-1.14.28,1.83,1.83,0,0,1-1.27-.45,2.94,2.94,0,0,1-.74-1.58l-.41-1.87a11.16,11.16,0,0,0-.43-1.5,1.87,1.87,0,0,0-.59-.85,1.73,1.73,0,0,0-1.1-.32H94.54v4.31a3.32,3.32,0,0,0,.11,1,.67.67,0,0,0,.42.43,4.09,4.09,0,0,0,1,.15v.37c-.58,0-1.37-.05-2.39-.05s-1.87,0-2.4.05v-.37a4.09,4.09,0,0,0,1-.15.67.67,0,0,0,.42-.43,3.32,3.32,0,0,0,.11-1v-9.3a3.23,3.23,0,0,0-.11-1,.66.66,0,0,0-.42-.44,4.09,4.09,0,0,0-1-.15v-.37c.53,0,1.29.05,2.29.05h2c.24,0,.51,0,.81,0a5.34,5.34,0,0,1,3.35.91,2.82,2.82,0,0,1,1.17,2.35,3.42,3.42,0,0,1-.35,1.47,3.58,3.58,0,0,1-1.16,1.34,5,5,0,0,1-2.13.8l.22,0a2.74,2.74,0,0,1,2.63,2.48l.47,1.92a4.32,4.32,0,0,0,.39,1.2.65.65,0,0,0,.57.33.78.78,0,0,0,.53-.17,2.84,2.84,0,0,0,.5-.54Zm-7-12a2.17,2.17,0,0,0-.87.13.75.75,0,0,0-.4.47,3.44,3.44,0,0,0-.11,1v4.62H95.8a3.23,3.23,0,0,0,2.55-.83,3.49,3.49,0,0,0,.69-2.29,3.34,3.34,0,0,0-.73-2.33A3.16,3.16,0,0,0,95.92,285.65ZM113.28,297c.3.77.73,1.17,1.3,1.2v.37c-.5,0-1.17-.05-2-.05-1.08,0-1.88,0-2.4.05v-.37a3,3,0,0,0,1-.18.51.51,0,0,0,.31-.51,2.71,2.71,0,0,0-.22-.89l-1.15-3.07h-4.54l-.77,2a5.12,5.12,0,0,0-.38,1.54,1,1,0,0,0,.4.84,2.42,2.42,0,0,0,1.23.28v.38c-.71,0-1.43-.06-2.15-.06a13.56,13.56,0,0,0-1.41.06v-.38a2.33,2.33,0,0,0,1.48-1.63l4.41-11.37h.3Zm-3.3-3.83-2.1-5.61-2.14,5.61ZM121.24,285a5,5,0,0,1,1.91.32,6.61,6.61,0,0,1,1.54.9.67.67,0,0,0,.36.17c.25,0,.41-.38.49-1.13H126c0,.81-.08,2.25-.08,4.32h-.43a14.89,14.89,0,0,0-.38-1.76,3.08,3.08,0,0,0-.56-1,3.4,3.4,0,0,0-1.44-1.1,4.81,4.81,0,0,0-1.88-.37,3.1,3.1,0,0,0-2.13.81,5.23,5.23,0,0,0-1.41,2.3,10.91,10.91,0,0,0-.51,3.5,10.22,10.22,0,0,0,.54,3.51,5,5,0,0,0,1.52,2.22,3.43,3.43,0,0,0,2.18.77,4.76,4.76,0,0,0,1.82-.36A3,3,0,0,0,124.6,297a3.63,3.63,0,0,0,.54-1.12,13,13,0,0,0,.32-1.85h.43c0,2.15,0,3.65.07,4.5h-.43a3.18,3.18,0,0,0-.16-.86.31.31,0,0,0-.29-.24.73.73,0,0,0-.39.15,8.23,8.23,0,0,1-1.61.91,5.16,5.16,0,0,1-1.86.31,6,6,0,0,1-3.13-.81,5.39,5.39,0,0,1-2.08-2.33,8.38,8.38,0,0,1-.74-3.65,8.49,8.49,0,0,1,.76-3.66,5.86,5.86,0,0,1,2.12-2.48A5.53,5.53,0,0,1,121.24,285Zm17,.26c-.08.89-.13,1.69-.13,2.4s0,1.14.06,1.54h-.43a11.13,11.13,0,0,0-.38-2.15,1.73,1.73,0,0,0-.79-1,3.51,3.51,0,0,0-1.72-.33h-1v10.68a3.38,3.38,0,0,0,.15,1.14.83.83,0,0,0,.53.49,4.6,4.6,0,0,0,1.22.17v.38q-1-.06-2.76-.06c-1.25,0-2.17,0-2.78.06v-.38a4.49,4.49,0,0,0,1.22-.17.81.81,0,0,0,.53-.49,3.14,3.14,0,0,0,.15-1.14V285.7h-1a3.55,3.55,0,0,0-1.73.33,1.77,1.77,0,0,0-.79,1,11.12,11.12,0,0,0-.37,2.15h-.44c0-.4.06-.91.06-1.54a24,24,0,0,0-.13-2.4c1,0,2.8.06,5.29.06s4.24,0,5.27-.06Zm10.94,10.88c0,.72.05,1.52.13,2.4-.85,0-2.28-.05-4.3-.05-2.4,0-4.21,0-5.44.05v-.37a4.09,4.09,0,0,0,1-.15.67.67,0,0,0,.42-.43,3.29,3.29,0,0,0,.11-1v-9.31a3.23,3.23,0,0,0-.11-1,.66.66,0,0,0-.42-.44,4.09,4.09,0,0,0-1-.15v-.37c1.23,0,3,.06,5.44.06q2.76,0,3.93-.06a20.51,20.51,0,0,0-.13,2.22,9.08,9.08,0,0,0,0,1.16h-.43a8.51,8.51,0,0,0-.34-1.81,1.5,1.5,0,0,0-.69-.87,3.12,3.12,0,0,0-1.48-.27h-1.56a3.59,3.59,0,0,0-1,.1.67.67,0,0,0-.43.42,3.65,3.65,0,0,0-.11,1v4.43h1.24a1.54,1.54,0,0,0,1-.31,1.49,1.49,0,0,0,.48-.73,7.9,7.9,0,0,0,.2-1.06l.06-.38h.43c0,.53-.06,1.11-.06,1.77v.9c0,.63,0,1.52.11,2.66h-.43c0-.09-.05-.39-.11-.91a1.83,1.83,0,0,0-.52-1.17,1.66,1.66,0,0,0-1.17-.4h-1.24v4.5a3.54,3.54,0,0,0,.11,1,.68.68,0,0,0,.43.43,3.59,3.59,0,0,0,1,.1h1.37a4.12,4.12,0,0,0,1.77-.31,1.91,1.91,0,0,0,.9-1,8.07,8.07,0,0,0,.41-2h.43Q149.23,295.48,149.23,296.15Zm13.42,1.47a3.43,3.43,0,0,1-.86.92,2.11,2.11,0,0,1-1.15.28,1.85,1.85,0,0,1-1.27-.45,3,3,0,0,1-.74-1.58l-.41-1.87a12.82,12.82,0,0,0-.42-1.5,2,2,0,0,0-.59-.85,1.74,1.74,0,0,0-1.11-.32h-1.78v4.32a3.26,3.26,0,0,0,.11,1,.69.69,0,0,0,.42.43,3.3,3.3,0,0,0,1,.15v.38c-.58,0-1.37-.06-2.39-.06s-1.87,0-2.4.06v-.38a3.3,3.3,0,0,0,1-.15.67.67,0,0,0,.42-.43,3.26,3.26,0,0,0,.11-1v-9.31a3.26,3.26,0,0,0-.11-1,.67.67,0,0,0-.42-.43,3.3,3.3,0,0,0-1-.15v-.38c.53,0,1.29.06,2.29.06l2,0,.81,0a5.47,5.47,0,0,1,3.35.91,2.85,2.85,0,0,1,1.17,2.36,3.42,3.42,0,0,1-.35,1.47,3.46,3.46,0,0,1-1.16,1.33,4.85,4.85,0,0,1-2.13.8l.22,0a3.37,3.37,0,0,1,1.8.75,3.3,3.3,0,0,1,.83,1.73l.47,1.91a4.22,4.22,0,0,0,.39,1.2.64.64,0,0,0,.57.34.84.84,0,0,0,.53-.17,2.84,2.84,0,0,0,.5-.54Zm-6.94-12a2.19,2.19,0,0,0-.88.13.75.75,0,0,0-.4.47,3.82,3.82,0,0,0-.11,1v4.62h1.26a3.23,3.23,0,0,0,2.55-.83,3.49,3.49,0,0,0,.69-2.29,3.34,3.34,0,0,0-.73-2.33A3.14,3.14,0,0,0,155.71,285.65Z" style="fill:#2371aa"/><path id="Path_212" data-name="Path 212" d="M91.05,93.51a13.13,13.13,0,0,1,3.89.47,14.6,14.6,0,0,1,3,1.36c.35.19.65.34.92.47a1.77,1.77,0,0,0,.68.19.74.74,0,0,0,.66-.5,5.62,5.62,0,0,0,.37-1.57h1.08c-.16,2.1-.23,5.67-.23,10.7h-1.08a15.5,15.5,0,0,0-1.15-4.83,9.42,9.42,0,0,0-2.72-3.73,6.38,6.38,0,0,0-4.1-1.43,5.35,5.35,0,0,0-3.73,1.29,4.48,4.48,0,0,0-1.44,3.49,5.69,5.69,0,0,0,.7,2.86,7.93,7.93,0,0,0,2,2.23q1.28,1,3.9,2.75l1.5,1a46.8,46.8,0,0,1,4.36,3.19,11.47,11.47,0,0,1,2.6,3.16,8.55,8.55,0,0,1,1,4.2,8.08,8.08,0,0,1-1.55,5A9.44,9.44,0,0,1,97.45,127a16,16,0,0,1-5.88,1,16.92,16.92,0,0,1-4.37-.47A14.16,14.16,0,0,1,84,126.25a3.46,3.46,0,0,0-1.6-.65.71.71,0,0,0-.65.49,5.63,5.63,0,0,0-.38,1.57H80.3q.2-3,.19-12.66h1.08a18.18,18.18,0,0,0,2.35,8.51,6.76,6.76,0,0,0,6.19,3.26,6.29,6.29,0,0,0,4.17-1.36,4.74,4.74,0,0,0,1.64-3.89,6.49,6.49,0,0,0-1.68-4.5,27.31,27.31,0,0,0-5.35-4.23q-2.82-1.83-4.51-3.19a11.48,11.48,0,0,1-2.76-3.21,8.37,8.37,0,0,1-1.08-4.29A7.77,7.77,0,0,1,82,97.34a8.47,8.47,0,0,1,3.82-2.89A14.31,14.31,0,0,1,91.05,93.51Zm44.18.61q-.31,4.45-.32,8a34.38,34.38,0,0,0,.14,3.56H134c-.75-3.85-1.78-6.55-3.07-8.11a6.58,6.58,0,0,0-5.33-2.35h-1.08V122a7.72,7.72,0,0,0,.4,2.86,2.15,2.15,0,0,0,1.41,1.2,13.33,13.33,0,0,0,3.21.35v.94c-3.94-.1-6.91-.14-8.91-.14s-4.83,0-8.59.14v-.94a13.36,13.36,0,0,0,3.22-.35,2.13,2.13,0,0,0,1.4-1.2A7.33,7.33,0,0,0,117,122V95.2h-1a7,7,0,0,0-3.82,1,7.73,7.73,0,0,0-2.7,3.26,26,26,0,0,0-1.93,6.21h-1.07c.09-.91.14-2.09.14-3.56q0-3.52-.33-8,4.27.15,14.5.14t14.45-.14Zm26.6.1a34.84,34.84,0,0,0,3.57-.15V95q-2.16.9-4.5,5.44l-5.54,11v10.93a9,9,0,0,0,.26,2.58,1.62,1.62,0,0,0,1,1.08,8.14,8.14,0,0,0,2.3.38v.93q-2.53-.14-7.22-.14c-3.35,0-5.77,0-7.28.14v-.93a8.24,8.24,0,0,0,2.27-.38,1.62,1.62,0,0,0,1-1.08,9.31,9.31,0,0,0,.26-2.58v-7.93l-9.05-16.74c-1-1.75-1.88-2.63-2.72-2.63v-1a53.71,53.71,0,0,0,5.53.23q4.36,0,8.82-.23v1a8.77,8.77,0,0,0-2.6.3c-.64.2-1,.57-1,1.1a2.2,2.2,0,0,0,.33,1l7.13,13.75,3.66-7.32a14.41,14.41,0,0,0,1.82-5.82,2.6,2.6,0,0,0-1-2.3A5.64,5.64,0,0,0,156,95v-.93q3.19.15,5.86.15Zm20.22.84a9.34,9.34,0,0,0-2.46.38,1.66,1.66,0,0,0-1.05,1.08,8.63,8.63,0,0,0-.29,2.58v23.83a7.3,7.3,0,0,0,.24,2.18,1.4,1.4,0,0,0,.82.91,5.58,5.58,0,0,0,1.9.24h2.3a6.89,6.89,0,0,0,5.51-2.87,15.39,15.39,0,0,0,3-7.6h1.08c-.1,1.07-.14,2.44-.14,4.13a67.81,67.81,0,0,0,.32,7.41q-3.18-.14-10.74-.14-10.22,0-15.29.14v-.93a8.3,8.3,0,0,0,2.27-.38,1.62,1.62,0,0,0,1-1.08,8.94,8.94,0,0,0,.25-2.58V99.09a9.38,9.38,0,0,0-.25-2.58,1.66,1.66,0,0,0-1-1.08,8.29,8.29,0,0,0-2.27-.37v-.94c1.59.1,4.06.14,7.41.14,3.19,0,5.65,0,7.37-.14Zm39.59,25.14a65.32,65.32,0,0,0,.33,7.13c-2.12-.09-5.71-.14-10.74-.14q-10.23,0-15.29.14v-.93a8.3,8.3,0,0,0,2.27-.38,1.62,1.62,0,0,0,1-1.08,9.31,9.31,0,0,0,.25-2.58V99.09a9.38,9.38,0,0,0-.25-2.58,1.66,1.66,0,0,0-1-1.08,8.35,8.35,0,0,0-2.27-.37v-.94q5.06.15,15.29.14c4.6,0,7.87,0,9.8-.14q-.33,3.9-.33,6.94a28.27,28.27,0,0,0,.14,3.19h-1.08c-.46-3.34-1.31-5.69-2.53-7a6.58,6.58,0,0,0-5.16-2h-1.92a6.85,6.85,0,0,0-2.11.24,1.42,1.42,0,0,0-.89.91,7,7,0,0,0-.23,2.18v11.63h1.5a4.32,4.32,0,0,0,3.77-1.83A11.39,11.39,0,0,0,214,104h1.08c-.1,1.31-.14,2.78-.14,4.41v2.25q0,2.4.28,6.66h-1.08q-1-6.2-5.72-6.19h-1.5v11.82a7,7,0,0,0,.23,2.19,1.39,1.39,0,0,0,.89.91,6.85,6.85,0,0,0,2.11.24h2.3a6.88,6.88,0,0,0,5.37-2.28c1.36-1.52,2.33-4.09,2.89-7.72h1.08C221.69,117.29,221.64,118.61,221.64,120.2Z" style="fill:#24648d"/><path id="Path_200" data-name="Path 200" d="M91.71,324.58c-.37,3.68-.55,7-.55,10q0,3.9.23,6.39H89.6A47.32,47.32,0,0,0,88.05,332a7.36,7.36,0,0,0-3.27-4.28q-2.34-1.37-7.17-1.36h-4.9a13.73,13.73,0,0,0-4.09.43,2.68,2.68,0,0,0-1.76,1.75,14,14,0,0,0-.46,4.28V352h5.68a5.9,5.9,0,0,0,6.19-4.32,27.7,27.7,0,0,0,.82-4.4l.24-1.56h1.79q-.24,3.27-.24,7.32v3.74q0,4,.47,11.06H79.56c0-.37-.2-1.63-.46-3.78A7.64,7.64,0,0,0,77,355.18a6.83,6.83,0,0,0-4.86-1.63H66.4v17.91a10.76,10.76,0,0,0,.62,4.28,3.34,3.34,0,0,0,2.18,1.79,23.35,23.35,0,0,0,5.06.62v1.56q-4-.22-11.44-.23-6.7,0-10,.23v-1.56a15.35,15.35,0,0,0,4.09-.62,2.81,2.81,0,0,0,1.75-1.79,14.39,14.39,0,0,0,.47-4.28V332.83a14.36,14.36,0,0,0-.47-4.28,2.81,2.81,0,0,0-1.75-1.79,15.78,15.78,0,0,0-4.09-.63v-1.55q7.63.23,22.58.23Q86.88,324.81,91.71,324.58ZM122,323.49a24.65,24.65,0,0,1,13,3.35,22.3,22.3,0,0,1,8.65,9.69,34.37,34.37,0,0,1,3.07,15.15,34.85,34.85,0,0,1-3.15,15.18,24.46,24.46,0,0,1-8.8,10.28,23,23,0,0,1-12.81,3.66,24.69,24.69,0,0,1-13-3.35,22.4,22.4,0,0,1-8.64-9.69,38.42,38.42,0,0,1,.08-30.33,24.46,24.46,0,0,1,8.8-10.28A23,23,0,0,1,122,323.49Zm-.31,1.4a12.52,12.52,0,0,0-8.76,3.46,22.32,22.32,0,0,0-5.84,9.7A45.29,45.29,0,0,0,105,352.3a40.67,40.67,0,0,0,2.3,14.25,22.75,22.75,0,0,0,6.19,9.5,13.13,13.13,0,0,0,8.73,3.35,12.59,12.59,0,0,0,8.76-3.47,22.53,22.53,0,0,0,5.84-9.69A45.32,45.32,0,0,0,138.9,352a40.63,40.63,0,0,0-2.3-14.25,22.75,22.75,0,0,0-6.19-9.5,13,13,0,0,0-8.72-3.35Zm80.67,1.25a10.84,10.84,0,0,0-4.05.81,3.45,3.45,0,0,0-1.79,2.18,16.1,16.1,0,0,0-.46,4.48V380.1h-1.8l-32.7-50.54v41.12a14.61,14.61,0,0,0,.5,4.51,3.51,3.51,0,0,0,2,2.14,13.34,13.34,0,0,0,4.59.82v1.56q-2.79-.22-7.94-.23c-3.11,0-5.53.08-7.24.23v-1.56a10.85,10.85,0,0,0,4-.82,3.43,3.43,0,0,0,1.79-2.18,16,16,0,0,0,.46-4.47V332.83a14,14,0,0,0-.46-4.28,2.81,2.81,0,0,0-1.75-1.79,15.78,15.78,0,0,0-4.09-.63v-1.55c1.71.15,4.13.23,7.24.23,2.33,0,4.36-.08,6.07-.23l27.49,42.36V333.61a14.92,14.92,0,0,0-.5-4.51,3.51,3.51,0,0,0-2-2.14,13.34,13.34,0,0,0-4.59-.82v-1.56q2.79.24,7.94.24c3.11,0,5.53-.08,7.24-.24Zm48.9-1.56c-.36,3.68-.54,7-.54,10q0,3.88.23,6.38h-1.79a47.46,47.46,0,0,0-1.55-8.92,7.33,7.33,0,0,0-3.28-4.28q-2.33-1.37-7.16-1.36H233v44.31a13.24,13.24,0,0,0,.63,4.75,3.52,3.52,0,0,0,2.18,2,19.19,19.19,0,0,0,5.06.7v1.56q-4.05-.22-11.45-.23-7.78,0-11.52.23v-1.56a19.24,19.24,0,0,0,5.06-.7,3.52,3.52,0,0,0,2.18-2,13.17,13.17,0,0,0,.62-4.75V326.37h-4.2q-4.83,0-7.17,1.36a7.32,7.32,0,0,0-3.27,4.28,48.3,48.3,0,0,0-1.56,8.92h-1.79q.24-2.49.24-6.38c0-3-.18-6.29-.55-10q6.47.23,22,.23t21.88-.23Z" style="fill:#2d7198"/><path id="Path_213" data-name="Path 213" d="M64.78,233.3a13.13,13.13,0,0,1,3.89.47,14.94,14.94,0,0,1,3,1.36c.34.19.64.35.91.47a1.61,1.61,0,0,0,.68.19.73.73,0,0,0,.66-.49,5.79,5.79,0,0,0,.37-1.57h1.08q-.22,3.14-.23,10.7H74a15.49,15.49,0,0,0-1.15-4.84,9.35,9.35,0,0,0-2.72-3.73,6.27,6.27,0,0,0-4.1-1.43,5.31,5.31,0,0,0-3.73,1.29,4.47,4.47,0,0,0-1.44,3.49,5.75,5.75,0,0,0,.7,2.87,8.05,8.05,0,0,0,2,2.22c.85.68,2.15,1.59,3.9,2.75l1.5,1a46.8,46.8,0,0,1,4.36,3.19,11.37,11.37,0,0,1,2.6,3.17,8.41,8.41,0,0,1,1,4.2,8.08,8.08,0,0,1-1.55,5,9.39,9.39,0,0,1-4.2,3.07,16,16,0,0,1-5.88,1,16.92,16.92,0,0,1-4.37-.46,15.3,15.3,0,0,1-3.18-1.27,3.34,3.34,0,0,0-1.59-.66.72.72,0,0,0-.66.49,5.79,5.79,0,0,0-.38,1.58H54q.19-3,.19-12.67H55.3a18.15,18.15,0,0,0,2.35,8.51,6.76,6.76,0,0,0,6.19,3.26A6.29,6.29,0,0,0,68,265.2a4.78,4.78,0,0,0,1.65-3.89,6.55,6.55,0,0,0-1.69-4.5,26.89,26.89,0,0,0-5.35-4.22c-1.88-1.22-3.38-2.29-4.5-3.19a11.72,11.72,0,0,1-2.77-3.22,8.35,8.35,0,0,1-1.08-4.29,7.86,7.86,0,0,1,1.43-4.76,8.47,8.47,0,0,1,3.82-2.89A14.31,14.31,0,0,1,64.78,233.3Zm37.57,20.41v8.16a7.15,7.15,0,0,0,.4,2.75,2.08,2.08,0,0,0,1.41,1.14,14.4,14.4,0,0,0,3.21.33v1c-3.84-.09-6.71-.14-8.58-.14q-2.36,0-5.91.1l-1.5,0v-.93a8.37,8.37,0,0,0,2.27-.38,1.62,1.62,0,0,0,1-1.08,9.31,9.31,0,0,0,.25-2.58V238.89a9.31,9.31,0,0,0-.25-2.58,1.62,1.62,0,0,0-1-1.08,8,8,0,0,0-2.27-.38v-.94c1.59.1,4,.14,7.13.14l5.2,0c.63,0,1.35,0,2.16,0q6.33,0,9.66,2.51a8,8,0,0,1,3.33,6.73,9.66,9.66,0,0,1-5.74,8.92,18.28,18.28,0,0,1-8.28,1.59Zm2.91-18.86a3.91,3.91,0,0,0-1.85.33,1.83,1.83,0,0,0-.83,1.18,10.24,10.24,0,0,0-.23,2.53v13.88h2q3.8,0,5.25-2.43a12.8,12.8,0,0,0,1.45-6.62q0-4.54-1.33-6.71a4.84,4.84,0,0,0-4.48-2.16Zm51.09,28.34a5.81,5.81,0,0,0,1.4,2.25,2.7,2.7,0,0,0,1.55.75v.94c-1.88-.1-4.25-.14-7.13-.14-3.19,0-5.57,0-7.13.14v-.94a7.29,7.29,0,0,0,2.53-.45,1.25,1.25,0,0,0,.75-1.24,6.48,6.48,0,0,0-.56-2.25L145,254.56H134.72l-1.22,3.23a15.93,15.93,0,0,0-1.32,5.21,2.64,2.64,0,0,0,1.06,2.41,6.42,6.42,0,0,0,3.12.78v.94q-3.2-.15-5.82-.15a34.63,34.63,0,0,0-3.56.15v-.94c1.53-.28,2.88-1.93,4-4.93l10.7-27.44c.35,0,.89.05,1.64.05s1.29,0,1.6-.05Zm-11.73-9.57L140,241l-4.87,12.67Zm43.91-20.36a12.59,12.59,0,0,1,4.78.8,16,16,0,0,1,3.85,2.25,1.55,1.55,0,0,0,.89.42c.62,0,1-.94,1.22-2.81h1.08c-.13,2.12-.19,5.91-.19,11.35h-1.08A22.74,22.74,0,0,0,198,240a7.55,7.55,0,0,0-2.39-3.19,7.83,7.83,0,0,0-2.72-1.71,9,9,0,0,0-3.24-.59q-4.74,0-7,4.62a25.81,25.81,0,0,0-2.3,11.52,24.71,24.71,0,0,0,2.39,11.44c1.6,3.06,4,4.6,7.13,4.6a9.27,9.27,0,0,0,3.17-.59,7,7,0,0,0,2.65-1.71,6.92,6.92,0,0,0,2.42-3.29,26.9,26.9,0,0,0,1.05-5.77h1.08q0,8.49.19,11.82h-1.08a8.62,8.62,0,0,0-.4-2.13c-.17-.42-.41-.63-.73-.63a2,2,0,0,0-1,.37,20.08,20.08,0,0,1-4,2.28,12.44,12.44,0,0,1-4.64.77,17.91,17.91,0,0,1-8.7-2,14,14,0,0,1-5.79-5.84,19,19,0,0,1-2.07-9.12,19.37,19.37,0,0,1,2.11-9.15,15.33,15.33,0,0,1,5.89-6.19A16.65,16.65,0,0,1,188.53,233.26ZM241.21,260a62.9,62.9,0,0,0,.32,7.13q-3.18-.15-10.74-.15-10.23,0-15.29.15v-.94a8.3,8.3,0,0,0,2.27-.38,1.62,1.62,0,0,0,1-1.08,9.31,9.31,0,0,0,.26-2.58V238.89a9.31,9.31,0,0,0-.26-2.58,1.62,1.62,0,0,0-1-1.08,7.94,7.94,0,0,0-2.27-.38v-.94q5.07.15,15.29.14c4.6,0,7.87,0,9.8-.14-.22,2.6-.33,4.91-.33,7a31,31,0,0,0,.14,3.19h-1.07q-.71-5-2.54-7a6.6,6.6,0,0,0-5.16-2h-1.92a6.85,6.85,0,0,0-2.11.24,1.37,1.37,0,0,0-.89.91,7.3,7.3,0,0,0-.24,2.18V250H228a4.34,4.34,0,0,0,3.78-1.83,11.42,11.42,0,0,0,1.8-4.37h1.08c-.09,1.32-.14,2.79-.14,4.41v2.26c0,1.59.1,3.81.28,6.66h-1.08q-1-6.19-5.72-6.19h-1.5v11.82a7.3,7.3,0,0,0,.24,2.18,1.37,1.37,0,0,0,.89.91,6.81,6.81,0,0,0,2.11.24H232a6.85,6.85,0,0,0,5.37-2.28q2.06-2.28,2.89-7.72h1.08c-.1,1-.14,2.35-.14,3.95Z" style="fill:#166183"/><path id="Path_222" data-name="Path 222" d="M107.76,53.14a6.69,6.69,0,0,0-1.72.26,1.17,1.17,0,0,0-.74.76,5.79,5.79,0,0,0-.2,1.8V72.25a5.82,5.82,0,0,0,.2,1.81,1.18,1.18,0,0,0,.74.75,6.3,6.3,0,0,0,1.72.27v.65c-1-.06-2.4-.1-4.17-.1s-3.28,0-4.2.1v-.65a6.3,6.3,0,0,0,1.72-.27,1.15,1.15,0,0,0,.74-.75,5.82,5.82,0,0,0,.2-1.81V54.65L94.13,75.89h-.52l-8.28-21.3V71.92a6.42,6.42,0,0,0,.22,1.9,1.45,1.45,0,0,0,.83.9,5.59,5.59,0,0,0,1.94.35v.66c-.79-.07-1.9-.1-3.35-.1s-2.33,0-3,.1v-.66a4.53,4.53,0,0,0,1.7-.35,1.43,1.43,0,0,0,.76-.92,7,7,0,0,0,.2-1.88V56a5.79,5.79,0,0,0-.2-1.8,1.17,1.17,0,0,0-.74-.76,6.69,6.69,0,0,0-1.72-.26v-.66c.72.07,1.74.1,3,.1,1.14,0,2.07,0,2.79-.1l7.23,19,7.06-18.91h1.54c1.77,0,3.16,0,4.17-.1Zm20,19.83c.53,1.36,1.28,2.06,2.27,2.1v.66c-.88-.07-2-.1-3.52-.1-1.88,0-3.28,0-4.2.1v-.66a5.19,5.19,0,0,0,1.79-.31.87.87,0,0,0,.54-.9,4.32,4.32,0,0,0-.39-1.54l-2-5.39h-8L113,70.41a8.42,8.42,0,0,0-.66,2.7,1.6,1.6,0,0,0,.71,1.47,4.13,4.13,0,0,0,2.15.5v.65c-1.25-.06-2.51-.1-3.78-.1-1,0-1.8,0-2.46.1v-.65c1.09-.27,2-1.22,2.59-2.86l7.72-19.9h.53ZM122,66.27l-3.68-9.81-3.74,9.82Zm28.86,7.82a5.52,5.52,0,0,1-1.51,1.61,3.59,3.59,0,0,1-2,.5,3.2,3.2,0,0,1-2.21-.79,5.07,5.07,0,0,1-1.3-2.76l-.73-3.28a20.15,20.15,0,0,0-.74-2.63,3.34,3.34,0,0,0-1-1.48,3,3,0,0,0-1.94-.56h-3.12v7.56a6.11,6.11,0,0,0,.2,1.8,1.19,1.19,0,0,0,.74.76,6.71,6.71,0,0,0,1.73.26v.66c-1-.07-2.4-.1-4.17-.1s-3.29,0-4.2.1v-.66a6.69,6.69,0,0,0,1.72-.26,1.17,1.17,0,0,0,.74-.76,5.79,5.79,0,0,0,.2-1.8V56a5.79,5.79,0,0,0-.2-1.8,1.17,1.17,0,0,0-.74-.76,6.69,6.69,0,0,0-1.72-.26v-.66c.92.07,2.25.1,4,.1l3.55,0c.41,0,.89,0,1.41,0a9.3,9.3,0,0,1,5.86,1.59,5,5,0,0,1,2.05,4.12,5.92,5.92,0,0,1-2.64,4.91,8.6,8.6,0,0,1-3.73,1.4l.4.07a5.82,5.82,0,0,1,3.15,1.31,5.91,5.91,0,0,1,1.44,3l.82,3.34a7.4,7.4,0,0,0,.69,2.1,1.1,1.1,0,0,0,1,.6,1.51,1.51,0,0,0,.94-.3,5,5,0,0,0,.87-1Zm-12.15-21a4.1,4.1,0,0,0-1.52.23,1.28,1.28,0,0,0-.71.83,5.84,5.84,0,0,0-.2,1.77v8.08h2.2c2.17,0,3.66-.49,4.47-1.45a6.08,6.08,0,0,0,1.22-4,5.78,5.78,0,0,0-1.28-4.07,5.51,5.51,0,0,0-4.18-1.38ZM162.79,52a8.09,8.09,0,0,1,3.19.54,15.73,15.73,0,0,1,2.72,1.59,1.26,1.26,0,0,0,.66.33c.42,0,.69-.67.82-2h.76q-.13,2.13-.14,7.55h-.75a28.85,28.85,0,0,0-.63-2.87,5.77,5.77,0,0,0-1-2,6.71,6.71,0,0,0-2.48-1.87,7.87,7.87,0,0,0-3.2-.69A5.72,5.72,0,0,0,158.92,54a9,9,0,0,0-2.53,4,18.77,18.77,0,0,0-.89,6.09q0,5.91,1.89,8.65t5.93,2.74a5.74,5.74,0,0,0,3.41-1,2.13,2.13,0,0,0,.77-.78,2.42,2.42,0,0,0,.19-1V69.56a5.63,5.63,0,0,0-.27-2,1.44,1.44,0,0,0-.92-.85,7.66,7.66,0,0,0-2.13-.3v-.66c1.14.06,2.68.1,4.63.1,1.49,0,2.63,0,3.41-.1v.66a2.81,2.81,0,0,0-1.1.26,1.09,1.09,0,0,0-.46.75,10,10,0,0,0-.11,1.81v6.5h-.66a4.16,4.16,0,0,0-.26-1.26c-.15-.41-.36-.61-.62-.61a.79.79,0,0,0-.4.1,6.36,6.36,0,0,0-.69.46,9,9,0,0,1-2.38,1.33,8.23,8.23,0,0,1-2.74.44,11.39,11.39,0,0,1-5.8-1.4,9.09,9.09,0,0,1-3.69-4,14.24,14.24,0,0,1-1.28-6.27,15.06,15.06,0,0,1,1.36-6.58,10.36,10.36,0,0,1,3.76-4.37A10,10,0,0,1,162.8,52Zm20.49,1.11a6.3,6.3,0,0,0-1.72.27,1.18,1.18,0,0,0-.74.75,5.82,5.82,0,0,0-.2,1.81V72.25a5.82,5.82,0,0,0,.2,1.81,1.18,1.18,0,0,0,.74.75,6.3,6.3,0,0,0,1.72.27v.65c-1-.06-2.39-.1-4.17-.1s-3.28,0-4.2.1v-.65a6.31,6.31,0,0,0,1.73-.27,1.2,1.2,0,0,0,.74-.75,6.49,6.49,0,0,0,.2-1.81V56a6.46,6.46,0,0,0-.2-1.8,1.19,1.19,0,0,0-.74-.76,6.71,6.71,0,0,0-1.73-.26v-.66c.92.07,2.32.1,4.2.1s3.14,0,4.17-.1Zm23.38,0a4.84,4.84,0,0,0-1.71.35,1.44,1.44,0,0,0-.75.92,7.07,7.07,0,0,0-.2,1.89V75.89h-.75l-13.79-21.3V71.92a6.1,6.1,0,0,0,.21,1.9,1.47,1.47,0,0,0,.84.9,5.85,5.85,0,0,0,1.94.36v.65c-.79-.06-1.91-.1-3.35-.1s-2.33,0-3.06.1v-.65a4.75,4.75,0,0,0,1.71-.35,1.46,1.46,0,0,0,.76-.92,7,7,0,0,0,.2-1.89V56a6.11,6.11,0,0,0-.2-1.8,1.19,1.19,0,0,0-.74-.76,6.71,6.71,0,0,0-1.73-.26v-.66c.73.07,1.75.1,3.06.1,1,0,1.84,0,2.56-.1l11.59,17.87V56.29a6.42,6.42,0,0,0-.22-1.9,1.5,1.5,0,0,0-.83-.9,5.82,5.82,0,0,0-1.94-.34v-.66c.79.07,1.91.1,3.35.1s2.33,0,3-.1Z" style="fill:#225576"/><path id="Path_225" data-name="Path 225" d="M67.71.73q9.14,0,13.68,4.57t4.54,13.29a21,21,0,0,1-2.22,9.85A15.52,15.52,0,0,1,77.28,35a20.71,20.71,0,0,1-10,2.3l-3-.06c-1.92-.06-3.34-.1-4.23-.1-2.82,0-5,.06-6.4.16v-1a9.94,9.94,0,0,0,2.71-.41,1.86,1.86,0,0,0,1.16-1.19,9.32,9.32,0,0,0,.31-2.83V6.2a9.42,9.42,0,0,0-.31-2.84,1.86,1.86,0,0,0-1.16-1.18,10.35,10.35,0,0,0-2.71-.42v-1c1.21.11,2.87.16,5,.16L63,.84C65.35.77,66.92.73,67.71.73Zm-1.29.93A6.15,6.15,0,0,0,64,2a2.07,2.07,0,0,0-1.11,1.29A9.72,9.72,0,0,0,62.6,6.1V31.9a9.61,9.61,0,0,0,.31,2.78A2,2,0,0,0,64,36a6.22,6.22,0,0,0,2.45.37c3.65,0,6.52-.67,8.62-2a10.51,10.51,0,0,0,4.41-5.81,31.49,31.49,0,0,0,1.27-9.75,28.1,28.1,0,0,0-1.4-9.67,10.54,10.54,0,0,0-4.51-5.6,16.5,16.5,0,0,0-8.44-1.86Zm50.47,29q0,2.94.36,6.6-3.51-.15-11.82-.15-9.9,0-15,.15v-1a9.93,9.93,0,0,0,2.7-.41,1.81,1.81,0,0,0,1.16-1.19,9,9,0,0,0,.31-2.83V6.2a9.11,9.11,0,0,0-.31-2.84,1.82,1.82,0,0,0-1.16-1.18,10.35,10.35,0,0,0-2.71-.42v-1c3.38.11,8.36.16,15,.16q7.59,0,10.78-.16c-.22,2-.34,4.06-.36,6.09A26.28,26.28,0,0,0,116,10h-1.19a23.4,23.4,0,0,0-.93-5A4.12,4.12,0,0,0,112,2.67a8.49,8.49,0,0,0-4.07-.75h-4.29a9.54,9.54,0,0,0-2.71.28,1.81,1.81,0,0,0-1.16,1.16,9.42,9.42,0,0,0-.31,2.84V18.38h3.41a4.09,4.09,0,0,0,2.78-.85,4.18,4.18,0,0,0,1.32-2,18.17,18.17,0,0,0,.54-2.91l.16-1h1.19c-.11,1.45-.16,3.06-.16,4.85V18.9q0,2.64.31,7.33H107.8c0-.24-.14-1.08-.31-2.5a5,5,0,0,0-1.42-3.23,4.55,4.55,0,0,0-3.22-1.08H99.44V31.8a9.65,9.65,0,0,0,.31,2.83,1.81,1.81,0,0,0,1.16,1.17,9.54,9.54,0,0,0,2.71.28h3.77a11,11,0,0,0,4.87-.85,5.1,5.1,0,0,0,2.45-2.74A20.24,20.24,0,0,0,115.85,27H117a35.3,35.3,0,0,0-.16,3.71Zm16-30.5a10.62,10.62,0,0,1,3.58.49,13,13,0,0,1,2.71,1.42,3.65,3.65,0,0,0,1.75.72.81.81,0,0,0,.73-.54,6.07,6.07,0,0,0,.41-1.73h1.19c-.18,2-.26,5.51-.26,10.53h-1.19a13.43,13.43,0,0,0-2.4-7,7.06,7.06,0,0,0-6.06-2.86,6.29,6.29,0,0,0-4.54,1.68,5.69,5.69,0,0,0-1.76,4.31,6.3,6.3,0,0,0,.9,3.41A9.18,9.18,0,0,0,130.3,13q1.39,1,4,2.63l1.5.93a52,52,0,0,1,5.14,3.54,12.44,12.44,0,0,1,3,3.48,9,9,0,0,1,1.13,4.59,8.86,8.86,0,0,1-3.1,7.25A11.9,11.9,0,0,1,134.12,38a13.18,13.18,0,0,1-4.05-.52,14.5,14.5,0,0,1-3-1.39,3.65,3.65,0,0,0-1.75-.72.81.81,0,0,0-.73.54,6,6,0,0,0-.41,1.73H123q.21-2.84.21-12.39h1.19A16.85,16.85,0,0,0,127,33.71,7.69,7.69,0,0,0,133.76,37a6.93,6.93,0,0,0,4.74-1.73,6.48,6.48,0,0,0,2-5.14,6.85,6.85,0,0,0-1.94-4.9,30.94,30.94,0,0,0-6.12-4.54,58,58,0,0,1-4.93-3.3,12,12,0,0,1-3.07-3.48,9.39,9.39,0,0,1-1.18-4.78A8.11,8.11,0,0,1,126,2.46,10.53,10.53,0,0,1,132.93.17Zm30,1.6a10.77,10.77,0,0,0-2.71.41,1.81,1.81,0,0,0-1.16,1.19,9.08,9.08,0,0,0-.31,2.84V31.8a9,9,0,0,0,.31,2.83,1.82,1.82,0,0,0,1.15,1.19,10,10,0,0,0,2.71.41v1q-2.37-.17-6.55-.16-4.44,0-6.6.16v-1a9.94,9.94,0,0,0,2.71-.41,1.86,1.86,0,0,0,1.16-1.19,9.32,9.32,0,0,0,.31-2.83V6.2a9.42,9.42,0,0,0-.31-2.84,1.86,1.86,0,0,0-1.16-1.18,10.35,10.35,0,0,0-2.71-.42v-1q2.16.17,6.6.16c2.75,0,4.94-.05,6.55-.16ZM184.07,0a12.63,12.63,0,0,1,5,.85,23.82,23.82,0,0,1,4.28,2.5,1.94,1.94,0,0,0,1,.51c.66,0,1.09-1.05,1.29-3.14h1.19q-.21,3.34-.21,11.86h-1.18a43.1,43.1,0,0,0-1-4.51A8.9,8.9,0,0,0,192.9,5,10.34,10.34,0,0,0,189,2a12.16,12.16,0,0,0-5-1.09,8.94,8.94,0,0,0-6,2.22,14.08,14.08,0,0,0-4,6.32,29.64,29.64,0,0,0-1.4,9.57q0,9.3,3,13.6T184.89,37a9,9,0,0,0,5.37-1.6,3.34,3.34,0,0,0,1.21-1.21,3.76,3.76,0,0,0,.29-1.62v-5a8.88,8.88,0,0,0-.42-3.15,2.28,2.28,0,0,0-1.44-1.34,12.65,12.65,0,0,0-3.35-.46v-1c1.78.1,4.21.15,7.27.15q3.51,0,5.37-.15v1a4.48,4.48,0,0,0-1.73.41,1.64,1.64,0,0,0-.72,1.19,15,15,0,0,0-.18,2.84V37.27h-1a6.48,6.48,0,0,0-.41-2c-.24-.64-.57-1-1-1a1.5,1.5,0,0,0-.62.16,9.65,9.65,0,0,0-1.08.72,13.75,13.75,0,0,1-3.74,2.09,12.69,12.69,0,0,1-4.31.7,18,18,0,0,1-9.11-2.19,14.36,14.36,0,0,1-5.8-6.32,22.19,22.19,0,0,1-2-9.86,23.78,23.78,0,0,1,2.14-10.34,16.22,16.22,0,0,1,5.91-6.87A15.63,15.63,0,0,1,184.07,0Zm51.44,1.75a7.25,7.25,0,0,0-2.68.55,2.28,2.28,0,0,0-1.19,1.44,11,11,0,0,0-.31,3v30.8h-1.19L208.48,4V31.28a10,10,0,0,0,.33,3,2.32,2.32,0,0,0,1.32,1.42,8.73,8.73,0,0,0,3,.54v1c-1.24-.11-3-.16-5.26-.16-2.06,0-3.66,0-4.8.16v-1a7,7,0,0,0,2.68-.54A2.25,2.25,0,0,0,207,34.25a10.61,10.61,0,0,0,.31-3V6.2A9.42,9.42,0,0,0,207,3.36a1.86,1.86,0,0,0-1.16-1.18,10.35,10.35,0,0,0-2.71-.42v-1c1.14.11,2.74.16,4.8.16,1.55,0,2.89-.05,4-.16L230.15,28.8V6.72a10,10,0,0,0-.33-3,2.37,2.37,0,0,0-1.32-1.42,8.78,8.78,0,0,0-3-.54v-1c1.24.11,3,.16,5.26.16,2.07,0,3.67-.05,4.8-.16Z" style="fill:#5f88b1"/><path id="Path_214" data-name="Path 214" d="M64.46,120.92a2.06,2.06,0,0,0,.52-.5,1.76,1.76,0,0,0,.28-.66h.27c0,.42,0,.95,0,1.58,0,.47,0,.92,0,1.35h-.27a1.2,1.2,0,0,0-.07-.46.2.2,0,0,0-.2-.14.54.54,0,0,0-.32.13l-2.89,1.91a2.91,2.91,0,0,0-.75.65,1.46,1.46,0,0,0-.2.73h3.31a2.18,2.18,0,0,0,.72-.07.5.5,0,0,0,.3-.3,2.76,2.76,0,0,0,.11-.69h.26c0,.4,0,1,0,1.66s0,1.32,0,1.68h-.27a2.35,2.35,0,0,0-.1-.69.5.5,0,0,0-.3-.3,2.21,2.21,0,0,0-.72-.07H57.62a2.49,2.49,0,0,0-.72.08.47.47,0,0,0-.3.3,2.76,2.76,0,0,0-.11.69h-.26c0-.37,0-.93,0-1.68s0-1.26,0-1.67h.26a2.31,2.31,0,0,0,.11.69.45.45,0,0,0,.3.3,2.45,2.45,0,0,0,.72.08h2.94a1.9,1.9,0,0,0-.73-1.5l-1.6-1.26a2.42,2.42,0,0,0-1.27-.67c-.3,0-.46.27-.47.81h-.26c0-.5,0-1,0-1.51s0-.85,0-1.12h.26a2.35,2.35,0,0,0,.28.82,2.78,2.78,0,0,0,.68.73L60.19,124Zm-.62-11.67q.75,0,1.68-.09c0,.6,0,1.6,0,3q0,2.52,0,3.81h-.26a2.26,2.26,0,0,0-.1-.69.5.5,0,0,0-.3-.3,2.21,2.21,0,0,0-.72-.08H57.62a2.19,2.19,0,0,0-.72.08.47.47,0,0,0-.3.3,2.62,2.62,0,0,0-.11.69h-.26c0-.86,0-2.13,0-3.81,0-1.29,0-2.2,0-2.75.51.06,1,.09,1.55.1a7.32,7.32,0,0,0,.81,0v.3a6.16,6.16,0,0,0-1.27.23,1.11,1.11,0,0,0-.6.49,2.29,2.29,0,0,0-.19,1v1.09a2.33,2.33,0,0,0,.08.69.45.45,0,0,0,.3.3,2.45,2.45,0,0,0,.72.08h3.1v-.87a1.06,1.06,0,0,0-.22-.71,1,1,0,0,0-.51-.33,3.72,3.72,0,0,0-.74-.14l-.27,0v-.3c.37,0,.78,0,1.24,0h.63c.45,0,1.07,0,1.86-.08v.3l-.63.08a1.26,1.26,0,0,0-.82.36,1.13,1.13,0,0,0-.28.82v.87h3.14a2.56,2.56,0,0,0,.73-.08.5.5,0,0,0,.3-.3,2.7,2.7,0,0,0,.07-.69v-1a2.76,2.76,0,0,0-.22-1.24,1.35,1.35,0,0,0-.7-.63,5.61,5.61,0,0,0-1.41-.29v-.3A7.39,7.39,0,0,0,63.84,109.25Zm1-12.61a2.29,2.29,0,0,1,.64.6,1.33,1.33,0,0,1,.2.8,1.25,1.25,0,0,1-.31.89,2.09,2.09,0,0,1-1.1.52L63,99.74a9.05,9.05,0,0,0-1.05.3,1.38,1.38,0,0,0-.6.41,1.21,1.21,0,0,0-.22.78v1.25h3a2.56,2.56,0,0,0,.73-.08.5.5,0,0,0,.3-.3,2.74,2.74,0,0,0,.1-.69h.26c0,.4,0,1,0,1.66s0,1.32,0,1.69h-.26a2.26,2.26,0,0,0-.1-.69.45.45,0,0,0-.3-.3,2.21,2.21,0,0,0-.72-.08H57.62a2.19,2.19,0,0,0-.72.08.43.43,0,0,0-.3.3,2.62,2.62,0,0,0-.11.69h-.26c0-.37,0-.91,0-1.6l0-1.42c0-.17,0-.35,0-.56a3.76,3.76,0,0,1,.64-2.35A2,2,0,0,1,58.53,98a2.43,2.43,0,0,1,1,.24,2.38,2.38,0,0,1,.93.82,3.29,3.29,0,0,1,.55,1.49l0-.16a2.43,2.43,0,0,1,.52-1.26,2.32,2.32,0,0,1,1.21-.58l1.34-.33A3,3,0,0,0,65,98a.45.45,0,0,0,.24-.4.63.63,0,0,0-.12-.37,2.11,2.11,0,0,0-.38-.35Zm-8.38,4.86a1.59,1.59,0,0,0,.09.61.5.5,0,0,0,.33.29,2.42,2.42,0,0,0,.71.08h3.23v-.88a2.22,2.22,0,0,0-.58-1.79,2.36,2.36,0,0,0-1.6-.48,2.25,2.25,0,0,0-1.63.51A2.22,2.22,0,0,0,56.49,101.5Zm0-16.72a1.8,1.8,0,0,0,.14.68.56.56,0,0,0,.37.3,2.7,2.7,0,0,0,.75.08h7.84v.3l-8.52,5.53H64a2.5,2.5,0,0,0,.77-.09.62.62,0,0,0,.36-.33,2.32,2.32,0,0,0,.13-.78h.27c0,.32,0,.76,0,1.34s0,.93,0,1.22h-.27a1.79,1.79,0,0,0-.13-.68.58.58,0,0,0-.37-.3A2.77,2.77,0,0,0,64,92H57.62a2.49,2.49,0,0,0-.72.08.47.47,0,0,0-.3.3,2.69,2.69,0,0,0-.11.69h-.26c0-.29,0-.7,0-1.22s0-.74,0-1l7.14-4.63H57.75a2.19,2.19,0,0,0-.76.08.59.59,0,0,0-.36.33,2.28,2.28,0,0,0-.14.77h-.26c0-.31,0-.76,0-1.34s0-.93,0-1.22Zm0-7.59a2.37,2.37,0,0,0,.11.69.45.45,0,0,0,.3.3,2.45,2.45,0,0,0,.72.08h6.51a2.56,2.56,0,0,0,.73-.08.5.5,0,0,0,.3-.3,2.74,2.74,0,0,0,.1-.69h.26c0,.4,0,1,0,1.66s0,1.32,0,1.69h-.26a2.26,2.26,0,0,0-.1-.69.45.45,0,0,0-.3-.3,2.21,2.21,0,0,0-.72-.08H57.62a2.19,2.19,0,0,0-.72.08.43.43,0,0,0-.3.3,2.62,2.62,0,0,0-.11.69h-.26c0-.37,0-.93,0-1.69s0-1.25,0-1.66Zm0-12.57a1.8,1.8,0,0,0,.14.68.56.56,0,0,0,.37.3,2.7,2.7,0,0,0,.75.08h7.84V66L57.07,71.5H64a2.5,2.5,0,0,0,.77-.09.59.59,0,0,0,.36-.33,2.28,2.28,0,0,0,.13-.78h.27c0,.32,0,.77,0,1.34s0,.94,0,1.23h-.27a1.8,1.8,0,0,0-.13-.69.65.65,0,0,0-.37-.3A3.22,3.22,0,0,0,64,71.8H57.62a2.49,2.49,0,0,0-.72.08.47.47,0,0,0-.3.3,2.76,2.76,0,0,0-.11.69h-.26c0-.29,0-.69,0-1.22s0-.73,0-1L63.37,66H57.75a2.81,2.81,0,0,0-.76.08.6.6,0,0,0-.36.34,2.28,2.28,0,0,0-.14.77h-.26c0-.31,0-.76,0-1.34s0-.93,0-1.22ZM56,56.08a3.24,3.24,0,0,1,.22-1.27,6.23,6.23,0,0,1,.64-1.09.53.53,0,0,0,.13-.26c0-.17-.27-.28-.8-.33v-.3c.57,0,1.58.05,3,.05v.3a11.21,11.21,0,0,0-1.15.25,2.13,2.13,0,0,0-.79.41,2.44,2.44,0,0,0-.75,1,3,3,0,0,0-.28,1.28,2.24,2.24,0,0,0,.56,1.52,3.56,3.56,0,0,0,1.61,1,7.76,7.76,0,0,0,2.44.36,6.14,6.14,0,0,0,3.46-.76,2.65,2.65,0,0,0,1.1-2.37A2.29,2.29,0,0,0,65,54.51a.77.77,0,0,0-.31-.31.83.83,0,0,0-.41-.07H63.06a2.18,2.18,0,0,0-.8.1.57.57,0,0,0-.34.37,3.06,3.06,0,0,0-.12.85h-.27c0-.45,0-1.07,0-1.85,0-.59,0-1.05,0-1.36h.27a1.13,1.13,0,0,0,.1.44.45.45,0,0,0,.3.18,4.36,4.36,0,0,0,.72,0h2.6v.26a1.71,1.71,0,0,0-.5.1c-.16.06-.25.15-.25.25a.75.75,0,0,0,0,.16A2.75,2.75,0,0,0,65,54a3.68,3.68,0,0,1,.53.95,3.43,3.43,0,0,1,.18,1.1,4.58,4.58,0,0,1-.56,2.32,3.64,3.64,0,0,1-1.61,1.47,5.68,5.68,0,0,1-2.51.51,6.14,6.14,0,0,1-2.63-.54,4.24,4.24,0,0,1-1.75-1.5A4,4,0,0,1,56,56.08Z" style="fill:#0099d1"/><path id="Path_215" data-name="Path 215" d="M69.05,193.72c-.13,1.33-.2,2.53-.2,3.6s0,1.71.09,2.31h-.65a16.7,16.7,0,0,0-.56-3.22,2.62,2.62,0,0,0-1.18-1.55,5.26,5.26,0,0,0-2.59-.49H62.44v16a4.77,4.77,0,0,0,.22,1.72,1.27,1.27,0,0,0,.79.73,6.68,6.68,0,0,0,1.83.25v.57c-1-.06-2.35-.09-4.13-.09s-3.27,0-4.17.08v-.56a7.08,7.08,0,0,0,1.83-.25,1.3,1.3,0,0,0,.79-.73,4.79,4.79,0,0,0,.22-1.72v-16H58.3a5.26,5.26,0,0,0-2.59.49,2.66,2.66,0,0,0-1.18,1.55,16.7,16.7,0,0,0-.56,3.22h-.65q.09-.9.09-2.31c0-1.06-.07-2.26-.2-3.6,1.55.06,4.2.09,7.93.09S67.5,193.78,69.05,193.72Zm15.26.08a20.87,20.87,0,0,0,2.11-.08v.56a2.33,2.33,0,0,0-1.1.72,7.81,7.81,0,0,0-1.15,1.79l-4.42,8.75v5.12a4.8,4.8,0,0,0,.17,1.55,1,1,0,0,0,.63.65,5.7,5.7,0,0,0,1.48.22v.56c-.86,0-2-.08-3.57-.08s-2.82,0-3.6.08v-.56a5.62,5.62,0,0,0,1.47-.22,1.06,1.06,0,0,0,.64-.65,5.42,5.42,0,0,0,.17-1.55v-4.22l-5.72-10.55a4.66,4.66,0,0,0-.89-1.25,1.15,1.15,0,0,0-.74-.33v-.59c.73.06,1.55.08,2.47.08,1.82,0,3.14,0,3.94-.08v.59c-1.31,0-2,.36-2,1.07a2.45,2.45,0,0,0,.28,1l4.68,9,3.6-7.15a5.77,5.77,0,0,0,.76-2.42,1.19,1.19,0,0,0-.62-1.13,4.27,4.27,0,0,0-1.86-.37v-.56C82.14,193.78,83.22,193.8,84.31,193.8Zm8.27,11.8v5.06a3.9,3.9,0,0,0,.23,1.55,1.2,1.2,0,0,0,.79.65,8.64,8.64,0,0,0,1.83.22v.56c-1,0-2.36-.08-4.14-.08-1.61,0-2.81,0-3.6.08v-.56a5.7,5.7,0,0,0,1.48-.22,1,1,0,0,0,.63-.65,5.09,5.09,0,0,0,.17-1.55v-14a5.32,5.32,0,0,0-.17-1.54,1,1,0,0,0-.63-.65,5.7,5.7,0,0,0-1.48-.22v-.57c.79.06,1.93.08,3.43.08l3,0c.36,0,.76,0,1.21,0a7.52,7.52,0,0,1,5,1.5,5,5,0,0,1,1.74,4,6.51,6.51,0,0,1-.69,3,5.63,5.63,0,0,1-2.33,2.38,8.65,8.65,0,0,1-4.38,1Zm2.09-11.32a3.42,3.42,0,0,0-1.31.2,1.14,1.14,0,0,0-.61.7,5.22,5.22,0,0,0-.17,1.52V205h1.89q2.76,0,3.81-1.47a6.68,6.68,0,0,0,1.06-4,6.19,6.19,0,0,0-1.09-4,4.43,4.43,0,0,0-3.58-1.3ZM118.57,210a34.48,34.48,0,0,0,.2,3.6q-1.92-.07-6.45-.08-5.4,0-8.16.08v-.56a5.7,5.7,0,0,0,1.48-.22,1,1,0,0,0,.63-.65,5.09,5.09,0,0,0,.17-1.55v-14a5,5,0,0,0-.17-1.54,1,1,0,0,0-.63-.65,5.71,5.71,0,0,0-1.48-.23v-.56c1.84.06,4.56.08,8.16.08,2.76,0,4.72,0,5.89-.08A28.31,28.31,0,0,0,118,197a14.64,14.64,0,0,0,.08,1.75h-.65a12.67,12.67,0,0,0-.51-2.72,2.23,2.23,0,0,0-1-1.29,4.6,4.6,0,0,0-2.22-.41h-2.34a5.28,5.28,0,0,0-1.48.15,1,1,0,0,0-.63.64,5,5,0,0,0-.17,1.54v6.65h1.86a2.24,2.24,0,0,0,1.52-.47,2.33,2.33,0,0,0,.72-1.1,10.62,10.62,0,0,0,.3-1.59l.08-.56h.65q-.09,1.19-.09,2.64v1.36c0,1,.06,2.29.17,4h-.64c0-.14-.08-.59-.17-1.37a2.79,2.79,0,0,0-.78-1.76,2.45,2.45,0,0,0-1.76-.59h-1.86v6.75a5.09,5.09,0,0,0,.17,1.55,1,1,0,0,0,.63.63,5.29,5.29,0,0,0,1.48.16h2.06a6.07,6.07,0,0,0,2.66-.47,2.74,2.74,0,0,0,1.33-1.49,10.82,10.82,0,0,0,.62-3h.65a19.89,19.89,0,0,0-.09,2Z" style="fill:#094c84"/><path id="Path_201" data-name="Path 201" d="M40.18,34.52q-5.28-.39-9.46-.39a40,40,0,0,0-4.22.17V33q6.84-1.34,9.62-3.65a7.76,7.76,0,0,0,2.78-6.31V21.78H7.13a8.69,8.69,0,0,0-3.39.47,2.55,2.55,0,0,0-1.42,1.67,16.3,16.3,0,0,0-.42,3.81H.79C.9,23.06,1,19.53,1,17.16S.91,11.43.79,7H1.9a16.3,16.3,0,0,0,.42,3.81,2.55,2.55,0,0,0,1.42,1.67,8.88,8.88,0,0,0,3.39.47H38.9V11.71a8.33,8.33,0,0,0-1.17-4.54A9.19,9.19,0,0,0,33.87,4,31.17,31.17,0,0,0,26.5,1.69V.41a40,40,0,0,0,4.22.17q4.19,0,9.46-.39Q40,5.26,40,17.38T40.18,34.52Zm-.11,31.54c0,1.71.06,3.12.17,4.23H39.12q-1-2.55-6.45-5.34l-13-6.56h-13a10.86,10.86,0,0,0-3.06.3,1.94,1.94,0,0,0-1.28,1.14,9.75,9.75,0,0,0-.45,2.73H.79Q1,59.56,1,54c0-4,0-6.84-.17-8.62H1.9a9.6,9.6,0,0,0,.45,2.7,1.94,1.94,0,0,0,1.28,1.17,10.86,10.86,0,0,0,3.06.3h9.4L36,38.8q3.12-1.72,3.12-3.22h1.17A62.47,62.47,0,0,0,40,42.14q0,5.18.28,10.46H39.07a10.76,10.76,0,0,0-.36-3.09c-.24-.76-.68-1.14-1.31-1.14a2.66,2.66,0,0,0-1.22.39l-16.3,8.46,8.67,4.34c2.94,1.44,5.24,2.17,6.9,2.17a3.1,3.1,0,0,0,2.73-1.2,6.56,6.56,0,0,0,1-3.42h1.11Q40.08,62.89,40.07,66.06ZM16.7,85.54H7A8.18,8.18,0,0,0,3.77,86,2.48,2.48,0,0,0,2.4,87.68,16.82,16.82,0,0,0,2,91.49H.79c.11-4.56.17-8,.17-10.18,0-1.86,0-4.19-.11-7L.79,72.52H1.9a9.6,9.6,0,0,0,.45,2.7,1.94,1.94,0,0,0,1.28,1.17,11.24,11.24,0,0,0,3.06.3H34.28a11.24,11.24,0,0,0,3.06-.3,1.92,1.92,0,0,0,1.28-1.17,9.6,9.6,0,0,0,.45-2.7h1.11Q40,75.35,40,81l.06,6.18c0,.74.06,1.59.06,2.56q0,7.52-3,11.46a9.49,9.49,0,0,1-8,4A11.45,11.45,0,0,1,18.6,98.3a21.68,21.68,0,0,1-1.9-9.82ZM39.07,89a4.73,4.73,0,0,0-.39-2.2,2.12,2.12,0,0,0-1.39-1,12.11,12.11,0,0,0-3-.28H17.82v2.4q0,4.5,2.89,6.23a15.25,15.25,0,0,0,7.84,1.72c3.6,0,6.26-.53,8-1.58S39.07,91.47,39.07,89ZM41,128.38a21.36,21.36,0,0,1-2.39,10.31,16.75,16.75,0,0,1-6.93,6.87A22.43,22.43,0,0,1,20.82,148,22.85,22.85,0,0,1,10,145.51a18.07,18.07,0,0,1-7.34-7A19.86,19.86,0,0,1,0,128.32,21.37,21.37,0,0,1,2.4,118a16.75,16.75,0,0,1,6.93-6.87,22.48,22.48,0,0,1,10.82-2.45A22.82,22.82,0,0,1,31,111.18a18.16,18.16,0,0,1,7.35,7A20,20,0,0,1,41,128.38Zm-1-.23a7.19,7.19,0,0,0-2.48-5.4,16.52,16.52,0,0,0-6.92-3.59,37.62,37.62,0,0,0-10.18-1.25,33.1,33.1,0,0,0-10.18,1.42,16.52,16.52,0,0,0-6.79,3.84A7.47,7.47,0,0,0,1,128.54a7.21,7.21,0,0,0,2.47,5.4,16.33,16.33,0,0,0,6.93,3.59,37.57,37.57,0,0,0,10.18,1.25,33.1,33.1,0,0,0,10.18-1.42,16.52,16.52,0,0,0,6.79-3.84A7.51,7.51,0,0,0,40,128.15Zm1,44.79a15.55,15.55,0,0,1-1,5.81,19.56,19.56,0,0,1-2.67,4.65,2.09,2.09,0,0,0-.5,1.11c0,.37.27.67.81.89a9.54,9.54,0,0,0,2.53.5v1.28Q36.4,187,26.72,187v-1.28a27.26,27.26,0,0,0,6.12-1.31,9,9,0,0,0,3.95-2.86,9.51,9.51,0,0,0,2-3.29,11.37,11.37,0,0,0,.72-4,8.66,8.66,0,0,0-2.64-6.48,16,16,0,0,0-7-3.81,34.75,34.75,0,0,0-9.52-1.23q-19.25,0-19.25,10.68a6.51,6.51,0,0,0,1.12,4,2.81,2.81,0,0,0,1.16,1,4.12,4.12,0,0,0,1.73.31h5.45a11.65,11.65,0,0,0,3.81-.45A2.69,2.69,0,0,0,16,176.64a12.12,12.12,0,0,0,.55-3.59H17.7q-.16,3.45-.16,9.51,0,5,.16,7.46H16.59a3.59,3.59,0,0,0-.44-1.61,1.88,1.88,0,0,0-1.28-.7,16.57,16.57,0,0,0-3.06-.2H.79V186.4A6.22,6.22,0,0,0,3,185.92c.67-.27,1-.65,1-1.14a7.28,7.28,0,0,0-1.17-3A18.42,18.42,0,0,1,0,172.66Q0,163,5.27,157.92T20,152.8a22.48,22.48,0,0,1,11,2.59,18.47,18.47,0,0,1,7.34,7.14A20.51,20.51,0,0,1,41,172.94Zm-37.72,58a9.23,9.23,0,0,1-2.48-3.23A10.42,10.42,0,0,1,0,223.51a8.42,8.42,0,0,1,1.37-5.09A6.86,6.86,0,0,1,6,216l5.57-1a21.62,21.62,0,0,0,6-1.75,3.6,3.6,0,0,0,1.92-3.42v-3.62H6.69a10.87,10.87,0,0,0-3.06.31,1.88,1.88,0,0,0-1.28,1.14,9.68,9.68,0,0,0-.45,2.72H.79q.17-3,.16-8.4,0-6-.16-8.79H1.9a9.49,9.49,0,0,0,.45,2.7,1.92,1.92,0,0,0,1.28,1.17,10.87,10.87,0,0,0,3.06.31H34.28a10.87,10.87,0,0,0,3.06-.31,1.9,1.9,0,0,0,1.28-1.17,9.49,9.49,0,0,0,.45-2.7h1.11Q40,196,40,201.65l.06,6.17c0,.74.06,1.6.06,2.56q0,7.68-2.5,11.55a8.05,8.05,0,0,1-7.18,3.86,9.7,9.7,0,0,1-6.95-2.89q-3-2.9-3.79-9.57c-.29,3.34-1,5.82-2.17,7.46A8,8,0,0,1,12.37,224l-5.73,1.28a9.32,9.32,0,0,0-3.12,1,1.84,1.84,0,0,0-.89,1.64A2.68,2.68,0,0,0,3,229.05a4.88,4.88,0,0,0,1,1.08Zm35.83-21.25a4.73,4.73,0,0,0-.39-2.2,2.16,2.16,0,0,0-1.39-1,12.11,12.11,0,0,0-3-.27H20.6v2.39c0,3,.8,5.13,2.42,6.26a11.73,11.73,0,0,0,6.81,1.7q4.56,0,6.9-1.62T39.07,209.66ZM5.46,263.79a6.9,6.9,0,0,0-2.67,1.67,3.14,3.14,0,0,0-.89,1.84H.79Q1,264,1,258.84c0-3.78,0-6.6-.17-8.46H1.9a9,9,0,0,0,.53,3,1.5,1.5,0,0,0,1.48.89,7.71,7.71,0,0,0,2.67-.66l9.12-3.34V238.14l-3.84-1.44a18.56,18.56,0,0,0-6.18-1.56,3.13,3.13,0,0,0-2.86,1.25,7.6,7.6,0,0,0-.92,3.7H.79q.17-3.78.17-6.9A41.31,41.31,0,0,0,.79,229H1.9q.51,2.73,5.85,4.79l32.54,12.68c0,.41,0,1.06,0,1.95s0,1.52,0,1.89Zm11.35-13.91,15-5.5-15-5.79ZM16.7,280.7H7a8.23,8.23,0,0,0-3.26.48,2.44,2.44,0,0,0-1.36,1.67A17.42,17.42,0,0,0,2,286.66H.79c.11-4.56.17-8,.17-10.18q0-2.79-.11-7l-.06-1.78H1.9a9.6,9.6,0,0,0,.45,2.7,1.9,1.9,0,0,0,1.28,1.16,10.87,10.87,0,0,0,3.06.31H34.28a10.87,10.87,0,0,0,3.06-.31,1.88,1.88,0,0,0,1.28-1.16,9.6,9.6,0,0,0,.45-2.7h1.11q-.16,2.83-.17,8.45l.06,6.18c0,.74.06,1.59.06,2.56q0,7.5-3,11.46a9.49,9.49,0,0,1-8,4,11.45,11.45,0,0,1-10.57-6.82,21.68,21.68,0,0,1-1.9-9.82Zm22.36,3.45a4.75,4.75,0,0,0-.38-2.2,2.16,2.16,0,0,0-1.4-1,12.07,12.07,0,0,0-3-.28H17.82v2.39c0,3,1,5.08,2.89,6.23a15.25,15.25,0,0,0,7.84,1.73c3.6,0,6.26-.53,8-1.59s2.56-2.82,2.56-5.31Zm0,59.7a9.32,9.32,0,0,0-.44-2.72A1.94,1.94,0,0,0,37.34,340a10.87,10.87,0,0,0-3.06-.31H6.68a10.87,10.87,0,0,0-3.06.31,1.94,1.94,0,0,0-1.28,1.14,9.68,9.68,0,0,0-.45,2.72H.78q.18-2.73.18-8.46c0-3.74,0-6.66-.17-8.73H1.9a9.6,9.6,0,0,0,.45,2.7,1.9,1.9,0,0,0,1.28,1.16,10.87,10.87,0,0,0,3.06.31H20V316.09H6.69a10.87,10.87,0,0,0-3.06.31,1.94,1.94,0,0,0-1.28,1.14,9.68,9.68,0,0,0-.45,2.72H.79q.17-3,.17-8.4,0-5.94-.17-8.79H1.9a9.49,9.49,0,0,0,.45,2.7,1.92,1.92,0,0,0,1.28,1.17,10.87,10.87,0,0,0,3.06.31H34.28a10.87,10.87,0,0,0,3.06-.31,1.9,1.9,0,0,0,1.28-1.17,9.49,9.49,0,0,0,.45-2.7h1.11q-.16,2.85-.17,8.79,0,5.4.17,8.4H39.07a9.68,9.68,0,0,0-.45-2.72,1.9,1.9,0,0,0-1.28-1.14,10.87,10.87,0,0,0-3.06-.31H21.15v14.74H34.28a10.86,10.86,0,0,0,3.06-.3,1.92,1.92,0,0,0,1.28-1.17,9.49,9.49,0,0,0,.45-2.7h1.11Q40,329.78,40,335.4c0,3.82.06,6.63.17,8.45Zm1,31.94c0,1.7.06,3.11.17,4.23H39.12q-1-2.56-6.45-5.34l-13-6.57h-13a10.87,10.87,0,0,0-3.06.31,1.94,1.94,0,0,0-1.28,1.14,9.68,9.68,0,0,0-.45,2.72H.79q.17-3,.17-8.56,0-6-.17-8.63H1.9a9.49,9.49,0,0,0,.45,2.7A1.92,1.92,0,0,0,3.63,359a10.87,10.87,0,0,0,3.06.31h9.4L36,348.52q3.12-1.72,3.12-3.22h1.17a62.47,62.47,0,0,0-.28,6.56q0,5.17.28,10.46H39.07a10.76,10.76,0,0,0-.36-3.09c-.24-.76-.68-1.14-1.31-1.14a2.78,2.78,0,0,0-1.22.39l-16.3,8.46,8.67,4.34c2.94,1.44,5.24,2.17,6.9,2.17a3.1,3.1,0,0,0,2.73-1.2,6.56,6.56,0,0,0,1-3.42h1.11q-.16,3.78-.17,7Z" style="fill:#094c84"/></g></svg>
