<svg id="Layer_1" data-name="Layer 1" xmlns="http://www.w3.org/2000/svg" viewBox="0 0 246.36 392.15"><title>PtMono</title><g id="Group_152" data-name="Group 152"><path id="Path_142" data-name="Path 142" d="M55.94,363.16a15.47,15.47,0,0,1,2.62-.38c.94-.07,1.87-.1,2.79-.1a15.89,15.89,0,0,1,3,.29A8.12,8.12,0,0,1,67.12,364a6,6,0,0,1,2,2.11,6.71,6.71,0,0,1,.78,3.43A7.41,7.41,0,0,1,69.2,373a6.55,6.55,0,0,1-2,2.29,7.7,7.7,0,0,1-2.78,1.26,13.61,13.61,0,0,1-3.24.39h-.53l-.77,0c-.26,0-.53,0-.78-.05l-.55-.06v8.52H55.94ZM61.41,365c-.55,0-1.09,0-1.6,0a5.42,5.42,0,0,0-1.21.16v9.29a1.75,1.75,0,0,0,.51.08l.74,0,.73,0h.52a11.22,11.22,0,0,0,2.16-.21,5.67,5.67,0,0,0,1.94-.75,4,4,0,0,0,1.39-1.54,5.41,5.41,0,0,0,.53-2.53,4.55,4.55,0,0,0-.5-2.2A4.12,4.12,0,0,0,65.31,366a5.63,5.63,0,0,0-1.85-.75A9.4,9.4,0,0,0,61.41,365Zm15,5.6a10.23,10.23,0,0,1,3.11-1.15,16.91,16.91,0,0,1,3.4-.35,6,6,0,0,1,2.68.51,4.38,4.38,0,0,1,1.63,1.33,4.68,4.68,0,0,1,.8,1.86,10.53,10.53,0,0,1,.21,2.1c0,.81,0,1.68-.07,2.59s-.07,1.84-.1,2.76a22.07,22.07,0,0,0,.2,3h2.14v2.08H86.11l-.29-2.4h-.16a6.92,6.92,0,0,1-.57.74,5.28,5.28,0,0,1-1,.88,6.32,6.32,0,0,1-1.52.75,6.1,6.1,0,0,1-2.12.32,5.45,5.45,0,0,1-3.75-1.21,4.2,4.2,0,0,1-1.37-3.33,4.79,4.79,0,0,1,.72-2.73,4.42,4.42,0,0,1,2.06-1.66,9.36,9.36,0,0,1,3.26-.68,21.78,21.78,0,0,1,4.27.26,11.14,11.14,0,0,0,.05-2.45,3.47,3.47,0,0,0-.51-1.56,2.22,2.22,0,0,0-1.12-.81,5.39,5.39,0,0,0-1.78-.24,9.27,9.27,0,0,0-2.76.4c-.87.26-1.65.54-2.34.81Zm4.71,12.91a4.76,4.76,0,0,0,1.67-.28,5.32,5.32,0,0,0,1.34-.74,4.69,4.69,0,0,0,1-1,4.41,4.41,0,0,0,.58-1v-2.24a18.55,18.55,0,0,0-3.07-.29,9.07,9.07,0,0,0-2.44.3,3.5,3.5,0,0,0-1.6.95,2.42,2.42,0,0,0-.58,1.67,2.64,2.64,0,0,0,.73,1.84A3.13,3.13,0,0,0,81.08,383.5Zm14.13,1.86v-2.15h4.33V371.49H95.21v-2.15h6l.51,2.09h.16a11.73,11.73,0,0,1,2.44-1.7,6.8,6.8,0,0,1,3.2-.7,3.26,3.26,0,0,1,1.75.41,2.79,2.79,0,0,1,1,1.21,6.24,6.24,0,0,1,.5,1.94,22.29,22.29,0,0,1,.13,2.58l-2.24,0a8.52,8.52,0,0,0-.4-3,1.45,1.45,0,0,0-1.46-1,5.17,5.17,0,0,0-1.79.29,5.56,5.56,0,0,0-1.4.7,8,8,0,0,0-1,.83,5.89,5.89,0,0,0-.61.7v9.45h6.16v2.15Zm21.53-14.77a10.08,10.08,0,0,1,3.1-1.15,16.91,16.91,0,0,1,3.4-.35,6,6,0,0,1,2.68.51,4.38,4.38,0,0,1,1.63,1.33,4.68,4.68,0,0,1,.8,1.86,10.53,10.53,0,0,1,.21,2.1c0,.81,0,1.68-.06,2.59s-.08,1.84-.1,2.76a22.06,22.06,0,0,0,.19,3h2.15v2.08h-4.26l-.29-2.4H126a7,7,0,0,1-.58.74,5.28,5.28,0,0,1-1,.88,6.15,6.15,0,0,1-1.52.75,6.08,6.08,0,0,1-2.11.32,5.41,5.41,0,0,1-3.75-1.21,4.21,4.21,0,0,1-1.38-3.33,4.87,4.87,0,0,1,.72-2.73,4.49,4.49,0,0,1,2.07-1.66,9.26,9.26,0,0,1,3.25-.68,21.93,21.93,0,0,1,4.28.26,11.14,11.14,0,0,0,0-2.45,3.34,3.34,0,0,0-.5-1.56,2.17,2.17,0,0,0-1.13-.82,5.86,5.86,0,0,0-1.77-.24,9.5,9.5,0,0,0-2.76.4c-.87.27-1.65.54-2.34.82Zm4.7,12.91a4.73,4.73,0,0,0,1.67-.28,5.38,5.38,0,0,0,1.35-.74,5.24,5.24,0,0,0,1-1,4.77,4.77,0,0,0,.57-1v-2.24a18.55,18.55,0,0,0-3.07-.29,9.17,9.17,0,0,0-2.44.3,3.5,3.5,0,0,0-1.6.95,2.41,2.41,0,0,0-.57,1.67,2.63,2.63,0,0,0,.72,1.84,3.15,3.15,0,0,0,2.42.78Zm28.8,2.66a5.78,5.78,0,0,1-.57,2.65,5.22,5.22,0,0,1-1.59,1.87,7.12,7.12,0,0,1-2.35,1.1,10.63,10.63,0,0,1-2.92.37,12.67,12.67,0,0,1-3.3-.38,10.09,10.09,0,0,1-2.43-1l1.21-2.28a3.44,3.44,0,0,0,.76.5,6.72,6.72,0,0,0,1.07.45,9.55,9.55,0,0,0,1.3.34,7.73,7.73,0,0,0,1.36.12,9,9,0,0,0,2.36-.26,3.49,3.49,0,0,0,1.52-.8,3.06,3.06,0,0,0,.83-1.41,7.54,7.54,0,0,0,.26-2.11v-1.79h-.13a5.05,5.05,0,0,1-1.89,1.63,6.67,6.67,0,0,1-3,.58c-2.44,0-4.22-.68-5.37-2s-1.71-3.46-1.71-6.32.73-4.8,2.18-6.2,3.61-2.1,6.47-2.1a17.45,17.45,0,0,1,3.38.27,16.3,16.3,0,0,1,2.55.69Zm-7.14-2.56a4.48,4.48,0,0,0,3.08-1,5.7,5.7,0,0,0,1.57-3.09v-7.59a9.34,9.34,0,0,0-3.94-.68,5.41,5.41,0,0,0-4,1.51,6.33,6.33,0,0,0-1.47,4.61,11.84,11.84,0,0,0,.25,2.52,5.89,5.89,0,0,0,.82,2,3.92,3.92,0,0,0,1.47,1.3,4.9,4.9,0,0,0,2.26.46Zm12.65,1.76v-2.15h4.33V371.49h-4.33v-2.15h6l.51,2.09h.16a11.41,11.41,0,0,1,2.43-1.7,6.86,6.86,0,0,1,3.2-.7,3.24,3.24,0,0,1,1.75.41,2.76,2.76,0,0,1,1,1.22,6.17,6.17,0,0,1,.5,1.94,22.07,22.07,0,0,1,.13,2.58l-2.24,0a8.3,8.3,0,0,0-.4-3,1.45,1.45,0,0,0-1.46-1,5.2,5.2,0,0,0-1.79.28,6.11,6.11,0,0,0-1.4.7,7.29,7.29,0,0,0-1,.84,4.5,4.5,0,0,0-.61.7v9.45h6.15v2.14Zm21.53-14.77a10.23,10.23,0,0,1,3.11-1.15,16.91,16.91,0,0,1,3.4-.35,6,6,0,0,1,2.67.51,4.33,4.33,0,0,1,1.64,1.33,4.68,4.68,0,0,1,.8,1.86,10.53,10.53,0,0,1,.21,2.1c0,.81,0,1.68-.07,2.59s-.07,1.84-.1,2.76a23.75,23.75,0,0,0,.19,3h2.15v2.08H187l-.29-2.4h-.16a7,7,0,0,1-.58.74,4.93,4.93,0,0,1-1,.88,6.39,6.39,0,0,1-1.53.75,6,6,0,0,1-2.11.32,5.43,5.43,0,0,1-3.75-1.21,4.24,4.24,0,0,1-1.38-3.33,4.88,4.88,0,0,1,.73-2.73,4.42,4.42,0,0,1,2.06-1.66,9.35,9.35,0,0,1,3.25-.68,21.89,21.89,0,0,1,4.28.26,11.79,11.79,0,0,0,.05-2.45,3.47,3.47,0,0,0-.51-1.56,2.2,2.2,0,0,0-1.13-.81,5.3,5.3,0,0,0-1.77-.24,9.17,9.17,0,0,0-2.76.4c-.87.26-1.65.54-2.34.81ZM182,383.5a4.76,4.76,0,0,0,1.67-.28,5.32,5.32,0,0,0,1.34-.74,4.69,4.69,0,0,0,1-1,4.41,4.41,0,0,0,.58-1v-2.24a18.55,18.55,0,0,0-3.07-.29,9.07,9.07,0,0,0-2.44.3,3.5,3.5,0,0,0-1.6.95,2.42,2.42,0,0,0-.58,1.67,2.68,2.68,0,0,0,.72,1.84,3.16,3.16,0,0,0,2.42.78ZM197.08,375c0-.19,0-.44,0-.75s0-.63,0-1-.05-.66-.08-1-.07-.59-.11-.83h-2.15v-2.09h4.26l.32,2.25h.16a7.07,7.07,0,0,1,2.19-1.88,6.45,6.45,0,0,1,3.25-.75,6.65,6.65,0,0,1,5.16,1.89q1.72,1.89,1.73,6.18a10.49,10.49,0,0,1-.59,3.64,7.72,7.72,0,0,1-1.69,2.74,7.58,7.58,0,0,1-2.62,1.73,9.42,9.42,0,0,1-3.4.61c-.45,0-.85,0-1.2-.05s-.67-.08-1-.13a6.21,6.21,0,0,1-.85-.21,9,9,0,0,1-.9-.32v6.73h-2.47Zm7.37-3.65a4.86,4.86,0,0,0-1.81.35,5.59,5.59,0,0,0-1.51.93,5.48,5.48,0,0,0-1.07,1.28,3.74,3.74,0,0,0-.51,1.41v7.3a5.9,5.9,0,0,0,1.58.76,8.3,8.3,0,0,0,2.33.27,5.34,5.34,0,0,0,4.1-1.68,8.74,8.74,0,0,0,.46-9.13,4.09,4.09,0,0,0-3.57-1.49Zm9.87-8.36h5v8.39h.16a7.15,7.15,0,0,1,2.3-1.74,7.66,7.66,0,0,1,3.27-.63,10.13,10.13,0,0,1,2.68.32,3.85,3.85,0,0,1,1.85,1.12,5.22,5.22,0,0,1,1.08,2.2,15,15,0,0,1,.35,3.54v9.22h-2.5v-8.74a16,16,0,0,0-.16-2.4,4.12,4.12,0,0,0-.63-1.72,2.91,2.91,0,0,0-1.26-1,5.56,5.56,0,0,0-3.75,0,5.75,5.75,0,0,0-1.52.83,5.17,5.17,0,0,0-1.19,1.28,4.9,4.9,0,0,0-.69,1.65v10.19h-2.46V365.08h-2.53Z" style="fill:#258abf"/><path id="Path_143" data-name="Path 143" d="M64.93,251.47a4.4,4.4,0,0,0-.88-.24,6.4,6.4,0,0,0-1.16-.08,5.33,5.33,0,0,0-1.9.35,4.08,4.08,0,0,0-1.65,1.15,5.94,5.94,0,0,0-1.16,2.1,10.05,10.05,0,0,0-.43,3.18,10.32,10.32,0,0,0,.39,3A6.26,6.26,0,0,0,59.22,263a4.43,4.43,0,0,0,1.67,1.27,5.43,5.43,0,0,0,2.18.42,5.54,5.54,0,0,0,1.15-.11,4.71,4.71,0,0,0,1-.29V262h1.75v3.18l0,0a6.05,6.05,0,0,1-1.79.91,8.43,8.43,0,0,1-2.64.37,7.32,7.32,0,0,1-2.74-.51,5.73,5.73,0,0,1-2.18-1.55,7.19,7.19,0,0,1-1.43-2.65,12.68,12.68,0,0,1-.5-3.83,12.12,12.12,0,0,1,.56-3.92,7.37,7.37,0,0,1,1.53-2.64,5.9,5.9,0,0,1,2.25-1.5,8,8,0,0,1,2.75-.46c.53,0,1,0,1.39.06a7.37,7.37,0,0,1,1,.17,3.69,3.69,0,0,1,.79.27,5.44,5.44,0,0,1,.67.37h0V254H64.93Zm3.44-1.79h3.68v6.18h.12a5.25,5.25,0,0,1,1.7-1.29,5.67,5.67,0,0,1,2.4-.46,7.33,7.33,0,0,1,2,.24,2.81,2.81,0,0,1,1.36.82,3.78,3.78,0,0,1,.79,1.62,10.78,10.78,0,0,1,.26,2.6v6.78H78.81v-6.43a12.9,12.9,0,0,0-.12-1.76,3.14,3.14,0,0,0-.46-1.26,2.12,2.12,0,0,0-.93-.77,3.7,3.7,0,0,0-1.51-.26,3.83,3.83,0,0,0-1.25.22,4.16,4.16,0,0,0-1.11.62,3.75,3.75,0,0,0-.88.94,3.57,3.57,0,0,0-.5,1.21v7.49H70.23V251.26H68.37ZM85,255.31a7.42,7.42,0,0,1,2.29-.84,12.34,12.34,0,0,1,2.5-.26,4.42,4.42,0,0,1,2,.37,3.19,3.19,0,0,1,1.2,1,3.35,3.35,0,0,1,.59,1.37,7.26,7.26,0,0,1,.16,1.54c0,.6,0,1.24-.05,1.91s0,1.35-.07,2a16.74,16.74,0,0,0,.14,2.24h1.58v1.53H92.12l-.22-1.77h-.11a5.66,5.66,0,0,1-.43.54,3.79,3.79,0,0,1-.74.65,5.1,5.1,0,0,1-1.12.56,4.78,4.78,0,0,1-1.55.23,3.93,3.93,0,0,1-2.75-.9,3.11,3.11,0,0,1-1-2.45,3.62,3.62,0,0,1,.53-2,3.37,3.37,0,0,1,1.52-1.22,7.24,7.24,0,0,1,2.39-.5,16.62,16.62,0,0,1,3.15.19,8.32,8.32,0,0,0,0-1.8,2.6,2.6,0,0,0-.37-1.14,1.66,1.66,0,0,0-.83-.6,4.11,4.11,0,0,0-1.31-.18,7,7,0,0,0-2,.3,16.16,16.16,0,0,0-1.72.6Zm3.46,9.5a3.43,3.43,0,0,0,1.23-.22,3.54,3.54,0,0,0,1-.54,3.46,3.46,0,0,0,.71-.72,3.15,3.15,0,0,0,.42-.74v-1.65a14.28,14.28,0,0,0-2.26-.21,6.37,6.37,0,0,0-1.79.23,2.41,2.41,0,0,0-1.18.69,1.77,1.77,0,0,0-.42,1.23,1.9,1.9,0,0,0,.53,1.35,2.36,2.36,0,0,0,1.78.58Zm9.69,1.36v-1.58h3.18V256H98.1V254.4h4.4l.37,1.53H103a8.58,8.58,0,0,1,1.79-1.25,5.06,5.06,0,0,1,2.36-.52,2.41,2.41,0,0,1,1.28.31,2,2,0,0,1,.75.9,4.65,4.65,0,0,1,.37,1.42,15.11,15.11,0,0,1,.09,1.9H108a6.12,6.12,0,0,0-.29-2.21,1.07,1.07,0,0,0-1.07-.71,3.92,3.92,0,0,0-1.32.21,4.33,4.33,0,0,0-1,.52,6.15,6.15,0,0,0-.74.61,4.54,4.54,0,0,0-.45.52v6.95h4.53v1.58Zm15.12-10.86a7.42,7.42,0,0,1,2.29-.84,12.34,12.34,0,0,1,2.5-.26,4.42,4.42,0,0,1,2,.37,3.19,3.19,0,0,1,1.2,1,3.35,3.35,0,0,1,.59,1.37,8,8,0,0,1,.16,1.54c0,.6,0,1.24,0,1.91s-.06,1.35-.07,2a15.23,15.23,0,0,0,.14,2.24h1.57v1.53h-3.13l-.21-1.77h-.12a5.56,5.56,0,0,1-.42.54,3.79,3.79,0,0,1-.74.65,5.33,5.33,0,0,1-1.12.56,4.84,4.84,0,0,1-1.56.23,4,4,0,0,1-2.75-.9,3.11,3.11,0,0,1-1-2.45,3.62,3.62,0,0,1,.53-2,3.37,3.37,0,0,1,1.52-1.22,6.77,6.77,0,0,1,2.39-.5,15.83,15.83,0,0,1,3.15.19,8.34,8.34,0,0,0,0-1.8,2.52,2.52,0,0,0-.37-1.14,1.6,1.6,0,0,0-.83-.6,4.11,4.11,0,0,0-1.31-.18,7.31,7.31,0,0,0-2,.29c-.65.2-1.22.4-1.72.6Zm3.46,9.5a3.43,3.43,0,0,0,1.23-.22,3.54,3.54,0,0,0,1-.54,3.46,3.46,0,0,0,.71-.72,3.15,3.15,0,0,0,.42-.74v-1.65a14.28,14.28,0,0,0-2.26-.21A6.33,6.33,0,0,0,116,261a2.41,2.41,0,0,0-1.18.69,1.77,1.77,0,0,0-.42,1.23,1.9,1.9,0,0,0,.53,1.35A2.34,2.34,0,0,0,116.68,264.81Zm18.47-8.6a9.5,9.5,0,0,0-1.16-.32,5.81,5.81,0,0,0-1.24-.13,4.81,4.81,0,0,0-3.44,1.08,4.61,4.61,0,0,0-1.13,3.44,4.88,4.88,0,0,0,.33,1.85,3.77,3.77,0,0,0,.94,1.38,4.15,4.15,0,0,0,1.47.87,5.61,5.61,0,0,0,1.9.31,6.34,6.34,0,0,0,2.16-.38,5.42,5.42,0,0,0,1.75-1l.82,1.37a6.81,6.81,0,0,1-.82.59,8.66,8.66,0,0,1-1.14.57,7.47,7.47,0,0,1-1.44.44,8.85,8.85,0,0,1-1.71.17,7.76,7.76,0,0,1-2.7-.44,5.14,5.14,0,0,1-1.94-1.25,5.35,5.35,0,0,1-1.18-1.95,8.36,8.36,0,0,1,0-5.17,5,5,0,0,1,1.19-1.94,5.28,5.28,0,0,1,1.88-1.19,7.16,7.16,0,0,1,2.47-.41,9.94,9.94,0,0,1,4.69,1l0,.07v3.28h-1.7Zm4.52-1.82h2.8v-2.33l1.84-.52v2.85h6.29V256h-6.29v5.56a3.48,3.48,0,0,0,.84,2.55,3.27,3.27,0,0,0,2.39.82,4,4,0,0,0,1.85-.4,9.92,9.92,0,0,0,1.43-.87l.61,1.39a6.7,6.7,0,0,1-2,1.06,6.94,6.94,0,0,1-2.34.4,5.91,5.91,0,0,1-1.78-.27,4,4,0,0,1-2.49-2.29,5.39,5.39,0,0,1-.38-2.1V256h-2.8Zm25.87,10.3a6.26,6.26,0,0,1-1,.71,8.34,8.34,0,0,1-1.26.56,10,10,0,0,1-1.43.37,9.29,9.29,0,0,1-1.5.13,6.9,6.9,0,0,1-2.5-.44,4.83,4.83,0,0,1-1.81-1.25,5.37,5.37,0,0,1-1.11-1.94,8.13,8.13,0,0,1-.38-2.55,7.87,7.87,0,0,1,.42-2.63,5,5,0,0,1,1.19-1.94,5.32,5.32,0,0,1,1.89-1.19,7.16,7.16,0,0,1,2.47-.41,7.65,7.65,0,0,1,2,.26,3.87,3.87,0,0,1,1.71,1,4.58,4.58,0,0,1,1.14,2,9.2,9.2,0,0,1,.28,3.26H156.5a4.05,4.05,0,0,0,1.14,3.17,4.34,4.34,0,0,0,3.05,1.05,4.89,4.89,0,0,0,1.26-.16,10.16,10.16,0,0,0,1.19-.36,7.58,7.58,0,0,0,1-.47,5.35,5.35,0,0,0,.67-.47Zm-5-9a6,6,0,0,0-1.47.16,3.28,3.28,0,0,0-1.23.56,2.93,2.93,0,0,0-.87,1,4,4,0,0,0-.44,1.54h7.33a3.61,3.61,0,0,0-1-2.41,3.17,3.17,0,0,0-2.32-.86Zm8.2,10.5v-1.58H172V256h-3.18V254.4h4.4l.37,1.53h.12a8.58,8.58,0,0,1,1.79-1.25,5.06,5.06,0,0,1,2.36-.52,2.38,2.38,0,0,1,1.28.31,2,2,0,0,1,.76.9,4.64,4.64,0,0,1,.36,1.42,17.28,17.28,0,0,1,.1,1.9l-1.65,0a6.44,6.44,0,0,0-.3-2.22,1.07,1.07,0,0,0-1.07-.71A4,4,0,0,0,176,256a4.23,4.23,0,0,0-1,.51,5.62,5.62,0,0,0-.75.62,4.23,4.23,0,0,0-.44.51v7h4.52v1.58Z" style="fill:#2371aa"/><path id="Path_144" data-name="Path 144" d="M56.08,321.26h7.25v6.53l.4.14A19.32,19.32,0,0,0,67.06,329a16.15,16.15,0,0,0,3.86.43A9.68,9.68,0,0,0,76.66,328a4.7,4.7,0,0,0,2-4A4.48,4.48,0,0,0,77,320.34a16.71,16.71,0,0,0-4.16-2.44c-1.65-.7-3.45-1.41-5.4-2.11a25.68,25.68,0,0,1-5.41-2.67,15,15,0,0,1-4.16-4.06,11,11,0,0,1-1.68-6.33,12.72,12.72,0,0,1,1.15-5.44A12.54,12.54,0,0,1,60.6,293a15,15,0,0,1,5-2.77,19.94,19.94,0,0,1,6.46-1A43,43,0,0,1,80,290a21.58,21.58,0,0,1,6.2,2v13.39H78.9v-7.32a1.09,1.09,0,0,1-.4-.07,25.63,25.63,0,0,0-3.14-.62,24.63,24.63,0,0,0-3.33-.24,8.65,8.65,0,0,0-5,1.26,3.89,3.89,0,0,0-1.81,3.36,4.4,4.4,0,0,0,1.69,3.56,18.3,18.3,0,0,0,4.15,2.51c1.65.75,3.45,1.49,5.41,2.24a28.63,28.63,0,0,1,5.41,2.74,14.69,14.69,0,0,1,4.15,4A10.6,10.6,0,0,1,87.74,323a14.11,14.11,0,0,1-1.32,6.23,12.75,12.75,0,0,1-3.69,4.49,16.29,16.29,0,0,1-5.61,2.7,26.18,26.18,0,0,1-7,.89,26.79,26.79,0,0,1-4.65-.4,31.8,31.8,0,0,1-4-1,28.27,28.27,0,0,1-3.2-1.25c-.92-.45-1.67-.82-2.24-1.13ZM99,310.65H92.48v-7.26H99v-7.52l8.58-2.44v10h17.28v7.26H107.59v9.43c0,3.38.63,5.83,1.91,7.35a6.64,6.64,0,0,0,5.34,2.28,11.75,11.75,0,0,0,3.23-.43,12.2,12.2,0,0,0,2.61-1.09,15.18,15.18,0,0,0,2.11-1.45l1.75-1.45,4,5.93a12.86,12.86,0,0,1-2.8,2.41,24.17,24.17,0,0,1-3.63,1.91,22.29,22.29,0,0,1-4.06,1.29,19.33,19.33,0,0,1-4.15.46q-7.39,0-11.12-4.12T99,320.08Zm51.78,16.42h2.5l6.4-23.68h8.84l-9.37,29.75q-1.24,3.69-2.43,6.76a25.31,25.31,0,0,1-2.77,5.31,11.76,11.76,0,0,1-3.73,3.46,10.41,10.41,0,0,1-5.25,1.22,10.24,10.24,0,0,1-2.86-.4,15.51,15.51,0,0,1-2.48-1,14.17,14.17,0,0,1-2-1.18,11.77,11.77,0,0,1-1.38-1.16l4.42-5.87a11.1,11.1,0,0,0,2,1.35,4.81,4.81,0,0,0,2.24.63,3.88,3.88,0,0,0,3.14-1.38,14.89,14.89,0,0,0,2.21-4.55h-4.69l-13.71-33h9.3Zm25.46-36.87h14v30.47q0,5.08,1.26,7.06a4.42,4.42,0,0,0,4,2,11.2,11.2,0,0,0,3.36-.43,13.19,13.19,0,0,0,2.64-1.22L204.8,334c-.74.49-1.49.94-2.24,1.36a14.73,14.73,0,0,1-2.37,1,16.09,16.09,0,0,1-2.74.66,21.84,21.84,0,0,1-3.33.23q-6.19,0-9.3-3.16t-3.1-9v-27.7h-5.47Zm69.05,42.67a11.4,11.4,0,0,1-2.21,1.55,21.33,21.33,0,0,1-3.16,1.42,25.24,25.24,0,0,1-4,1.06,26.53,26.53,0,0,1-4.62.4,22.77,22.77,0,0,1-7.55-1.19,14.84,14.84,0,0,1-9.17-8.94,20.38,20.38,0,0,1-1.22-7.29,19.28,19.28,0,0,1,1.38-7.62,15.21,15.21,0,0,1,3.8-5.44,15.69,15.69,0,0,1,5.63-3.26,21.92,21.92,0,0,1,12.17-.43,14.06,14.06,0,0,1,4.92,2.27,12.23,12.23,0,0,1,3.66,4.32,14.76,14.76,0,0,1,1.41,6.86,30.21,30.21,0,0,1-.66,6.14H222a7.63,7.63,0,0,0,.89,3.56,7,7,0,0,0,2.18,2.37,9.44,9.44,0,0,0,3.1,1.35,15.07,15.07,0,0,0,3.72.43,19.06,19.06,0,0,0,6.5-.92,13.8,13.8,0,0,0,4.13-2.24Zm-14.25-23.54a10.74,10.74,0,0,0-3.23.46,9,9,0,0,0-2.73,1.35,7.36,7.36,0,0,0-2,2.21,6.75,6.75,0,0,0-.92,3h16.23a7.06,7.06,0,0,0-1.82-5.11C235.35,310,233.52,309.33,231.05,309.33Z" style="fill:#24648d"/><path id="Path_145" data-name="Path 145" d="M55.19,126.73H79.75v4.53H60.27V145.9H78.52v4.53H60.27V169.6H55.19Zm33.07,27.56q0-7.41,3.86-11.73t11-4.32a15.93,15.93,0,0,1,6.64,1.26,12.86,12.86,0,0,1,4.63,3.4,13.82,13.82,0,0,1,2.72,5.08,22.07,22.07,0,0,1,.89,6.31,21.08,21.08,0,0,1-1,6.64,13.87,13.87,0,0,1-2.88,5.06,12.81,12.81,0,0,1-4.68,3.21,16.74,16.74,0,0,1-6.34,1.13,16.1,16.1,0,0,1-6.61-1.25,13.09,13.09,0,0,1-4.66-3.4,13.94,13.94,0,0,1-2.72-5.09A21.32,21.32,0,0,1,88.26,154.29Zm5.08,0a18.16,18.16,0,0,0,.52,4.28,11.89,11.89,0,0,0,1.69,3.86,8.73,8.73,0,0,0,3,2.76,9.28,9.28,0,0,0,4.56,1q4.9,0,7.38-3t2.48-8.92a17.9,17.9,0,0,0-.52-4.31,11.23,11.23,0,0,0-1.72-3.83,9,9,0,0,0-3.06-2.76,9.26,9.26,0,0,0-4.56-1q-4.9,0-7.35,3t-2.45,8.95Zm33.87-4.6c0-.36,0-.84,0-1.43s-.06-1.21-.1-1.84-.09-1.26-.15-1.87-.13-1.14-.22-1.59h-4.1v-4h8.21l.55,5h.31a10.38,10.38,0,0,1,1.62-2.05,13,13,0,0,1,2.36-1.84,12.74,12.74,0,0,1,3-1.32,12.16,12.16,0,0,1,3.49-.49,18.59,18.59,0,0,1,5,.61,7.65,7.65,0,0,1,3.62,2.18,10.07,10.07,0,0,1,2.17,4.22,26.18,26.18,0,0,1,.74,6.77V169.6h-4.78V152.94q0-5.08-1.65-7.66t-6-2.57a7.69,7.69,0,0,0-3.1.65,10.46,10.46,0,0,0-2.72,1.68,11.52,11.52,0,0,0-2.15,2.42,10,10,0,0,0-1.34,2.91V169.6h-4.72Zm33-10.71h7.29v-6.07l4.77-1.34V139h16.35v4.1H172.22v14.45q0,4.47,2.18,6.61a8.49,8.49,0,0,0,6.21,2.15,10.54,10.54,0,0,0,4.81-1,25.58,25.58,0,0,0,3.71-2.27l1.59,3.61a17.27,17.27,0,0,1-5.12,2.76,18.3,18.3,0,0,1-6.09,1,14.75,14.75,0,0,1-4.62-.7,10.64,10.64,0,0,1-3.83-2.17,10.47,10.47,0,0,1-2.64-3.77,14.07,14.07,0,0,1-1-5.48V143.08h-7.28Z" style="fill:#2d7198"/><path id="Path_146" data-name="Path 146" d="M217.83,167.52a8,8,0,0,0,.7-1.78,7.09,7.09,0,0,0,.28-2,7.4,7.4,0,0,0-.17-1.63,4,4,0,0,0-.55-1.34,2.88,2.88,0,0,0-1-.9,2.72,2.72,0,0,0-1.37-.33,2.35,2.35,0,0,0-1.77.73,7.34,7.34,0,0,0-1.21,1.81c-.35.72-.7,1.5-1,2.35a14,14,0,0,1-1.19,2.35,6.67,6.67,0,0,1-1.67,1.8,4.18,4.18,0,0,1-2.52.73,4.23,4.23,0,0,1-3.43-1.66,5.82,5.82,0,0,1-.94-1.92,8.74,8.74,0,0,1-.33-2.49,16.26,16.26,0,0,1,.23-2.87,7.72,7.72,0,0,1,.59-2.06l0-.06h.06v0l.07,0h4.23v2H204a14.2,14.2,0,0,0-.26,1.45,13.57,13.57,0,0,0-.11,1.69,5.94,5.94,0,0,0,.21,1.57,4.29,4.29,0,0,0,.57,1.18,2.62,2.62,0,0,0,.83.76,2.07,2.07,0,0,0,1,.26,2.25,2.25,0,0,0,1.72-.73,7.36,7.36,0,0,0,1.23-1.8c.36-.73.71-1.51,1.07-2.35a14.16,14.16,0,0,1,1.22-2.35,6.7,6.7,0,0,1,1.68-1.8,3.89,3.89,0,0,1,2.42-.73,5.22,5.22,0,0,1,2.14.43,4.75,4.75,0,0,1,1.64,1.24,5.56,5.56,0,0,1,1,2,8.84,8.84,0,0,1,.37,2.65,10.91,10.91,0,0,1-.16,1.9,11.67,11.67,0,0,1-.4,1.65,12.84,12.84,0,0,1-.5,1.35c-.17.39-.32.7-.44.93l-.08,0h-4.27v-2Zm-6-20.47-.62,0-.79,0-.8.07-.68.09V149h-1.73v-3.51l1.85-.26v-.13a6.08,6.08,0,0,1-1.54-1.81,6.39,6.39,0,0,1,.94-6.93c1-.95,2.73-1.42,5.09-1.42a8.45,8.45,0,0,1,3,.49,6.26,6.26,0,0,1,2.26,1.38,6.11,6.11,0,0,1,1.42,2.16,7.7,7.7,0,0,1,.5,2.8,9.83,9.83,0,0,1,0,1c0,.29-.06.56-.1.79s-.11.47-.18.7a7.37,7.37,0,0,1-.26.74h5.54v2Zm-3-6.07a4,4,0,0,0,.29,1.5,4.44,4.44,0,0,0,.77,1.24,4.2,4.2,0,0,0,1.05.88,3.24,3.24,0,0,0,1.17.43h6a5.07,5.07,0,0,0,.62-1.31,6.49,6.49,0,0,0,.22-1.91,4.35,4.35,0,0,0-1.38-3.38,5.82,5.82,0,0,0-4.05-1.27,5.9,5.9,0,0,0-3.47.89A3.39,3.39,0,0,0,208.86,141Zm-.58-16.14a8.69,8.69,0,0,1-.95-2.56,13.86,13.86,0,0,1-.29-2.8,5,5,0,0,1,.42-2.2,3.58,3.58,0,0,1,1.1-1.34,3.8,3.8,0,0,1,1.53-.66,8.4,8.4,0,0,1,1.73-.18c.67,0,1.38,0,2.14.06l2.27.08a19.08,19.08,0,0,0,2.5-.16v-1.77h1.72v3.51l-2,.24v.13a5.39,5.39,0,0,1,.6.47,4.77,4.77,0,0,1,.73.83,5.27,5.27,0,0,1,.62,1.26,4.9,4.9,0,0,1,.26,1.74,4.45,4.45,0,0,1-1,3.09,3.5,3.5,0,0,1-2.74,1.13,4,4,0,0,1-2.24-.59,3.68,3.68,0,0,1-1.37-1.7,7.74,7.74,0,0,1-.56-2.68,18.81,18.81,0,0,1,.21-3.52,9.73,9.73,0,0,0-2,0,2.83,2.83,0,0,0-1.28.43,1.77,1.77,0,0,0-.67.92,4.81,4.81,0,0,0-.2,1.46,7.89,7.89,0,0,0,.33,2.27c.22.72.45,1.37.67,1.93ZM218.91,121a3.76,3.76,0,0,0-.23-1.37,4.29,4.29,0,0,0-.61-1.11,4,4,0,0,0-.8-.79,4.59,4.59,0,0,0-.83-.48h-1.85a15.49,15.49,0,0,0-.24,2.54,7.13,7.13,0,0,0,.25,2,2.74,2.74,0,0,0,.78,1.32,2,2,0,0,0,1.37.48,2.19,2.19,0,0,0,1.52-.6,2.62,2.62,0,0,0,.65-2Zm-9.62-26.75a9.75,9.75,0,0,0-.36,1.31,6.41,6.41,0,0,0-.15,1.38,5.4,5.4,0,0,0,1.22,3.86,5.11,5.11,0,0,0,3.85,1.26,5.42,5.42,0,0,0,2.07-.37,4.09,4.09,0,0,0,1.54-1.06,4.57,4.57,0,0,0,1-1.64,6.46,6.46,0,0,0,.34-2.13,7.17,7.17,0,0,0-.42-2.42,6.06,6.06,0,0,0-1.11-2l1.53-.92a5.94,5.94,0,0,1,.66.92,9,9,0,0,1,1.14,2.89,9.44,9.44,0,0,1,.18,1.91,8.39,8.39,0,0,1-.49,3,5.67,5.67,0,0,1-1.4,2.18,6,6,0,0,1-2.19,1.32,8.5,8.5,0,0,1-2.83.44,8.73,8.73,0,0,1-3-.46,5.56,5.56,0,0,1-3.49-3.44,7.68,7.68,0,0,1-.46-2.77,12.16,12.16,0,0,1,.34-3.18,12,12,0,0,1,.77-2.07l.07,0h3.67v1.9Zm9.5-24.27a6.84,6.84,0,0,1,.79,1.12,8.91,8.91,0,0,1,.63,1.41,11,11,0,0,1,.41,1.6,10.39,10.39,0,0,1,.14,1.68,7.47,7.47,0,0,1-.48,2.8,5.6,5.6,0,0,1-1.4,2,6.23,6.23,0,0,1-2.18,1.24,9.15,9.15,0,0,1-2.85.42,9,9,0,0,1-2.95-.46,5.59,5.59,0,0,1-3.5-3.45,7.71,7.71,0,0,1-.46-2.77,8.08,8.08,0,0,1,.29-2.19,4.39,4.39,0,0,1,1.09-1.92,5.27,5.27,0,0,1,2.22-1.28,10.23,10.23,0,0,1,3.65-.31V80.07a4.58,4.58,0,0,0,3.55-1.28,4.81,4.81,0,0,0,1.17-3.42,5.61,5.61,0,0,0-.17-1.41,10.72,10.72,0,0,0-.41-1.33,6.79,6.79,0,0,0-.52-1.13,4.85,4.85,0,0,0-.53-.75ZM208.68,75.5a7.58,7.58,0,0,0,.18,1.65,4,4,0,0,0,.62,1.37,3.46,3.46,0,0,0,1.14,1,4.53,4.53,0,0,0,1.73.49v-8.2a4.07,4.07,0,0,0-2.71,1.11A3.57,3.57,0,0,0,208.68,75.5Z" style="fill:#166183"/><path id="Path_147" data-name="Path 147" d="M67.88,94.84l.32-3H68l-1.49,2.68-3.17,5.32H62.6l-3.33-5.35-1.43-2.65h-.15l.37,2.93V109.3H55.54V87.53h2.39L63.1,95.8h.06l5-8.27h2.32V109.3H67.88Zm14,.12a9.74,9.74,0,0,1,3-1.11,16.66,16.66,0,0,1,3.3-.35,5.92,5.92,0,0,1,2.6.5,4.34,4.34,0,0,1,1.59,1.29,4.6,4.6,0,0,1,.78,1.8,10.77,10.77,0,0,1,.2,2c0,.79,0,1.63-.07,2.52s-.07,1.78-.09,2.67a22.52,22.52,0,0,0,.19,3H95.5v2H91.36L91.08,107h-.15c-.18.25-.36.49-.56.72a5.3,5.3,0,0,1-1,.85,6,6,0,0,1-3.53,1,5.3,5.3,0,0,1-3.64-1.19,4.07,4.07,0,0,1-1.33-3.23,4.56,4.56,0,0,1,.7-2.64,4.41,4.41,0,0,1,2-1.62,9.24,9.24,0,0,1,3.16-.65,20.62,20.62,0,0,1,4.15.25,11.14,11.14,0,0,0,0-2.38,3.22,3.22,0,0,0-.5-1.51,2,2,0,0,0-1.08-.79,5.65,5.65,0,0,0-1.73-.24A9.23,9.23,0,0,0,85,96c-.85.26-1.61.53-2.27.8Zm4.57,12.53a4.49,4.49,0,0,0,1.62-.28,5.15,5.15,0,0,0,1.3-.71,4.41,4.41,0,0,0,.93-1,4.14,4.14,0,0,0,.56-1v-2.18a17.48,17.48,0,0,0-3-.28,8.54,8.54,0,0,0-2.36.3,3.35,3.35,0,0,0-1.56.92,2.39,2.39,0,0,0-.56,1.62,2.52,2.52,0,0,0,.7,1.78,3.05,3.05,0,0,0,2.35.76Zm19,1.8v-2.08h4.2V95.83h-4.2V93.75h5.81l.5,2H112a11,11,0,0,1,2.36-1.65,6.57,6.57,0,0,1,3.11-.68,3,3,0,0,1,1.69.4,2.62,2.62,0,0,1,1,1.18,6.05,6.05,0,0,1,.48,1.88,23.13,23.13,0,0,1,.13,2.5l-2.18,0a8,8,0,0,0-.39-2.92,1.41,1.41,0,0,0-1.41-.94,5.18,5.18,0,0,0-1.75.28,5.74,5.74,0,0,0-1.35.69,6.91,6.91,0,0,0-1,.81,4.3,4.3,0,0,0-.59.68v9.17h6v2.1Zm39.11.78a5.57,5.57,0,0,1-.56,2.57,5.1,5.1,0,0,1-1.54,1.82,7.11,7.11,0,0,1-2.28,1.07,10.46,10.46,0,0,1-2.83.36,12.29,12.29,0,0,1-3.2-.37,10,10,0,0,1-2.37-1l1.18-2.2a3.83,3.83,0,0,0,.73.48,8,8,0,0,0,1.05.43,9.21,9.21,0,0,0,1.25.33,7.39,7.39,0,0,0,1.33.12,8.4,8.4,0,0,0,2.28-.25,3.45,3.45,0,0,0,1.48-.77,3.19,3.19,0,0,0,.81-1.37,7.47,7.47,0,0,0,.24-2v-1.75H142a4.92,4.92,0,0,1-1.83,1.59,6.42,6.42,0,0,1-2.9.56c-2.36,0-4.1-.66-5.2-2s-1.67-3.37-1.67-6.15.71-4.65,2.12-6,3.5-2,6.28-2a17.16,17.16,0,0,1,3.28.27,16.37,16.37,0,0,1,2.47.66Zm-6.93-2.48a4.34,4.34,0,0,0,3-1,5.5,5.5,0,0,0,1.52-3V96.24a8.93,8.93,0,0,0-3.82-.65,5.17,5.17,0,0,0-3.93,1.46,6.15,6.15,0,0,0-1.43,4.47,11.11,11.11,0,0,0,.25,2.44,5.58,5.58,0,0,0,.79,1.92,3.78,3.78,0,0,0,1.43,1.26A4.91,4.91,0,0,0,137.66,107.59Zm18.78,1.71v-2.09h5.41V95.83h-5.41V93.75h7.9v13.46h5.29v2.09Zm4.57-20a2,2,0,0,1,.56-1.44,1.9,1.9,0,0,1,1.43-.61,2.08,2.08,0,0,1,1.51.61,2,2,0,0,1,.61,1.44,1.81,1.81,0,0,1-.61,1.37,2.1,2.1,0,0,1-1.51.56,1.92,1.92,0,0,1-1.43-.56,1.85,1.85,0,0,1-.56-1.37Zm19.93,9.86c0-.19,0-.43,0-.73s0-.61-.05-.93,0-.64-.08-1-.07-.58-.11-.81h-2.08v-2h4.16l.28,2.52h.16a5.29,5.29,0,0,1,.82-1,7.14,7.14,0,0,1,1.2-.93,6.52,6.52,0,0,1,1.53-.67,6.21,6.21,0,0,1,1.77-.25,9.8,9.8,0,0,1,2.53.31,3.91,3.91,0,0,1,1.84,1.1,5.19,5.19,0,0,1,1.1,2.15,13.24,13.24,0,0,1,.37,3.44v8.93H192v-8.46a7.39,7.39,0,0,0-.84-3.89,3.35,3.35,0,0,0-3.05-1.3,4,4,0,0,0-1.57.32,5.33,5.33,0,0,0-1.38.86A5.56,5.56,0,0,0,184,98.06a5.07,5.07,0,0,0-.69,1.47v9.77h-2.39Z" style="fill:#225576"/><path id="Path_148" data-name="Path 148" d="M55.09,194.09l1.48-.14c.71-.06,1.51-.11,2.4-.16s1.82-.09,2.78-.12,1.82,0,2.57,0a18,18,0,0,1,7.25,1.28,11.07,11.07,0,0,1,4.55,3.51,13.24,13.24,0,0,1,2.33,5.27,30.72,30.72,0,0,1,.66,6.62,30.19,30.19,0,0,1-.66,6.36,14.69,14.69,0,0,1-2.38,5.54,12.36,12.36,0,0,1-4.75,3.91,17.9,17.9,0,0,1-7.8,1.48c-.51,0-1.15,0-1.94-.05l-2.39-.11-2.36-.14c-.75,0-1.33-.11-1.74-.17Zm9.47,5.28c-.6,0-1.18,0-1.75.07l-1.27.12v22.09a3.72,3.72,0,0,0,.57.08l.77,0,.78,0c.25,0,.46,0,.61,0a8.18,8.18,0,0,0,4.36-1,6.39,6.39,0,0,0,2.43-2.67,11.45,11.45,0,0,0,1-3.72,35.79,35.79,0,0,0,.24-4.14,33.18,33.18,0,0,0-.21-3.73,10.88,10.88,0,0,0-1-3.53,6.68,6.68,0,0,0-2.33-2.64,7.59,7.59,0,0,0-4.24-1Zm46.31,25.2a9,9,0,0,1-1.58,1.11,15.8,15.8,0,0,1-2.26,1,17.59,17.59,0,0,1-2.85.75,18.31,18.31,0,0,1-3.3.28,15.88,15.88,0,0,1-5.39-.85,10.7,10.7,0,0,1-4-2.47,11,11,0,0,1-2.52-3.91,14.44,14.44,0,0,1-.87-5.21,13.71,13.71,0,0,1,1-5.44A10.73,10.73,0,0,1,91.77,206a11.22,11.22,0,0,1,4-2.34,15.39,15.39,0,0,1,5-.77,14.89,14.89,0,0,1,3.7.47A10,10,0,0,1,108,205a8.78,8.78,0,0,1,2.62,3.09,10.63,10.63,0,0,1,1,4.9,22.24,22.24,0,0,1-.47,4.38h-17a5.46,5.46,0,0,0,.63,2.54,5,5,0,0,0,1.56,1.7,6.63,6.63,0,0,0,2.21,1,11.37,11.37,0,0,0,2.66.31,14,14,0,0,0,4.64-.66,9.93,9.93,0,0,0,3-1.6Zm-10.18-16.81a7.55,7.55,0,0,0-2.31.33,6.62,6.62,0,0,0-2,1A5.28,5.28,0,0,0,95,210.63a4.67,4.67,0,0,0-.66,2.12h11.59a5,5,0,0,0-1.3-3.65A5.21,5.21,0,0,0,100.69,207.76Zm36.93,12.81a1.69,1.69,0,0,0-1.15-1.51,16.17,16.17,0,0,0-2.85-1c-1.13-.32-2.37-.64-3.72-1a17,17,0,0,1-3.72-1.37,9,9,0,0,1-2.85-2.21,5.13,5.13,0,0,1-1.16-3.46A5.94,5.94,0,0,1,123,207a7,7,0,0,1,2.12-2.24,9.92,9.92,0,0,1,3.2-1.39,16.09,16.09,0,0,1,4-.47,21.22,21.22,0,0,1,4,.33,18.9,18.9,0,0,1,3,.8,10.94,10.94,0,0,1,2.21,1.06c.61.39,1.14.74,1.58,1.06l-2.59,4.19q-.71-.42-1.62-.87c-.62-.3-1.26-.58-1.93-.83a16,16,0,0,0-2.12-.61,10.82,10.82,0,0,0-2.2-.24,8.53,8.53,0,0,0-3.2.52,1.7,1.7,0,0,0-1.22,1.6c0,.57.38,1,1.15,1.37a18.37,18.37,0,0,0,2.85,1l3.73,1a19.66,19.66,0,0,1,3.72,1.34,9.09,9.09,0,0,1,2.85,2.15,5,5,0,0,1,1.15,3.39,6.77,6.77,0,0,1-2.61,5.63c-1.75,1.36-4.33,2-7.75,2a18.56,18.56,0,0,1-7-1.2,16.43,16.43,0,0,1-4.74-2.8l2.83-4.43a14,14,0,0,0,1.62,1.15,14.91,14.91,0,0,0,2.29,1.16,20.87,20.87,0,0,0,2.71.87,11.89,11.89,0,0,0,2.85.35,5.81,5.81,0,0,0,2.59-.52A1.77,1.77,0,0,0,137.62,220.57Zm16.82,1.32h8.29V208.7h-8.29v-5.18h14.42v18.37h8.71v5.18H154.44Zm7.16-24.78a3.35,3.35,0,0,1,1.09-2.5,4.21,4.21,0,0,1,3-1,4.59,4.59,0,0,1,3.16,1,3.22,3.22,0,0,1,1.18,2.5,3.06,3.06,0,0,1-1.18,2.47,4.85,4.85,0,0,1-3.16,1,4.38,4.38,0,0,1-3-1A3.16,3.16,0,0,1,161.6,197.11Zm48,30a10.56,10.56,0,0,1-.87,4.43,8.67,8.67,0,0,1-2.4,3.13,10,10,0,0,1-3.63,1.84,17.36,17.36,0,0,1-4.59.59,18.78,18.78,0,0,1-3.18-.26,19.45,19.45,0,0,1-2.73-.68,15.72,15.72,0,0,1-2.2-.92,8.74,8.74,0,0,1-1.5-1l2.35-4.33a17.14,17.14,0,0,0,2.71,1.44,10.21,10.21,0,0,0,4,.68,6.64,6.64,0,0,0,4.52-1.37,4.92,4.92,0,0,0,1.56-3.91v-1.51h-.19a4.94,4.94,0,0,1-2.5,1.68,12.34,12.34,0,0,1-3.82.54,12.11,12.11,0,0,1-4.17-.71,9.08,9.08,0,0,1-3.32-2.14,9.74,9.74,0,0,1-2.19-3.65,15.52,15.52,0,0,1-.77-5.19,15.27,15.27,0,0,1,.92-5.51,10.87,10.87,0,0,1,2.59-4,10.74,10.74,0,0,1,4-2.45,15.56,15.56,0,0,1,5.2-.83c1,0,2,0,3,.12s1.95.18,2.85.31,1.72.27,2.47.44a14.06,14.06,0,0,1,1.89.55Zm-11.31-4.52a6.5,6.5,0,0,0,3.23-.8,4.08,4.08,0,0,0,1.95-2.4v-10.6a7.33,7.33,0,0,0-1.86-.45,15.79,15.79,0,0,0-2.28-.16,6.94,6.94,0,0,0-2.47.42,5.15,5.15,0,0,0-2,1.34,6.53,6.53,0,0,0-1.37,2.31,9.83,9.83,0,0,0-.49,3.32,10,10,0,0,0,.42,3,6.65,6.65,0,0,0,1.18,2.21,4.94,4.94,0,0,0,1.7,1.34A4.69,4.69,0,0,0,198.3,222.55Zm19.89-19h8.24l.71,3.11h.19a9.31,9.31,0,0,1,3.11-2.64,9.74,9.74,0,0,1,4.85-1.13,11,11,0,0,1,3.27.47,6.24,6.24,0,0,1,2.62,1.55,7.58,7.58,0,0,1,1.72,3,14.23,14.23,0,0,1,.63,4.59v14.65h-6.12V213.69a5.61,5.61,0,0,0-1.3-4.14,4.46,4.46,0,0,0-3.28-1.28,5.43,5.43,0,0,0-3.18,1,5,5,0,0,0-2,2.52v15.26h-6.12V208.7h-3.39Z" style="fill:#258abf"/><path id="Path_150" data-name="Path 150" d="M59.23,74H57.78v6.11H56.22V66.9h1.56v5.88H59.2l4.24-5.88h1.8l-4.65,6.27,5.24,6.92h-2ZM85.32,78.9a4.8,4.8,0,0,1-.8.56,5.41,5.41,0,0,1-1,.46,8.65,8.65,0,0,1-1.14.29,6.94,6.94,0,0,1-1.2.1,5.48,5.48,0,0,1-2-.35,3.93,3.93,0,0,1-1.45-1,4.4,4.4,0,0,1-.89-1.56,7,7,0,0,1,0-4.14,4,4,0,0,1,2.47-2.49,5.53,5.53,0,0,1,2-.33,5.92,5.92,0,0,1,1.56.21,3,3,0,0,1,1.37.78A3.75,3.75,0,0,1,85.15,73a7.41,7.41,0,0,1,.23,2.61h-7.3A3.28,3.28,0,0,0,79,78.16a3.46,3.46,0,0,0,2.44.83,3.83,3.83,0,0,0,1-.12,8,8,0,0,0,1-.29,4.52,4.52,0,0,0,.8-.38,3.23,3.23,0,0,0,.54-.37Zm-4-7.22a5.84,5.84,0,0,0-1.18.13,2.92,2.92,0,0,0-1,.45,2.38,2.38,0,0,0-.7.81,3.28,3.28,0,0,0-.35,1.24H84a3,3,0,0,0-.8-1.94A2.58,2.58,0,0,0,81.34,71.68Zm16,8.41V78.82h2.54v-6.9H97.32V70.67h3.52l.3,1.22h.1a6.8,6.8,0,0,1,1.43-1,3.94,3.94,0,0,1,1.88-.41,1.85,1.85,0,0,1,1,.24,1.62,1.62,0,0,1,.6.72,3.68,3.68,0,0,1,.29,1.14c0,.5.08,1,.08,1.51l-1.32,0a4.83,4.83,0,0,0-.24-1.77.84.84,0,0,0-.86-.56,2.93,2.93,0,0,0-1,.17,3.5,3.5,0,0,0-.82.41,4.65,4.65,0,0,0-.59.49,2.36,2.36,0,0,0-.36.42v5.56h3.62v1.26ZM118.55,74v-.44l0-.57c0-.19,0-.38,0-.57s0-.35-.06-.49h-1.27V70.67h2.53l.17,1.52h.09a3.38,3.38,0,0,1,.5-.63,3.63,3.63,0,0,1,.73-.56,3.45,3.45,0,0,1,.92-.41,3.89,3.89,0,0,1,1.07-.15,5.7,5.7,0,0,1,1.54.19,2.24,2.24,0,0,1,1.11.67,3.17,3.17,0,0,1,.67,1.3,8.09,8.09,0,0,1,.23,2.08v5.41h-1.47V75a4.45,4.45,0,0,0-.51-2.35,2,2,0,0,0-1.85-.8,2.56,2.56,0,0,0-1,.2,3.47,3.47,0,0,0-.84.52,3.63,3.63,0,0,0-.66.75,2.94,2.94,0,0,0-.41.9v5.91h-1.46Zm21,6.13V78.82h3.28v-6.9h-3.28V70.67h4.79v8.16h3.2v1.26ZM142.28,68a1.25,1.25,0,0,1,.34-.88,1.14,1.14,0,0,1,.87-.37,1.29,1.29,0,0,1,.91.37,1.22,1.22,0,0,1,.37.88,1.11,1.11,0,0,1-.37.83,1.34,1.34,0,0,1-.91.34,1.21,1.21,0,0,1-.87-.34,1.13,1.13,0,0,1-.34-.83ZM160,74c0-.11,0-.26,0-.44s0-.37,0-.57,0-.38,0-.57a4.79,4.79,0,0,0-.07-.49H158.6V70.67h2.52l.17,1.52h.1a3,3,0,0,1,.5-.63,3.87,3.87,0,0,1,.72-.56,3.51,3.51,0,0,1,.93-.41,3.84,3.84,0,0,1,1.07-.15,5.75,5.75,0,0,1,1.54.19,2.28,2.28,0,0,1,1.11.67,3.17,3.17,0,0,1,.67,1.3,8.09,8.09,0,0,1,.22,2.08v5.41h-1.47V75a4.27,4.27,0,0,0-.51-2.35,2,2,0,0,0-1.84-.8,2.62,2.62,0,0,0-1,.2,3.41,3.41,0,0,0-.83.52,3.36,3.36,0,0,0-.66.75,3,3,0,0,0-.42.9v5.91H160Zm28.85,6.6a3.44,3.44,0,0,1-.34,1.55,3,3,0,0,1-.93,1.1,4.21,4.21,0,0,1-1.39.65,6.63,6.63,0,0,1-1.71.22,7.54,7.54,0,0,1-2-.23,5.73,5.73,0,0,1-1.43-.58l.72-1.34a1.6,1.6,0,0,0,.44.29,3.85,3.85,0,0,0,.63.27,6.69,6.69,0,0,0,.77.2,4.25,4.25,0,0,0,.8.07,5.36,5.36,0,0,0,1.38-.15,2.11,2.11,0,0,0,.9-.47,1.89,1.89,0,0,0,.49-.83,4.3,4.3,0,0,0,.15-1.24V79h-.07a2.94,2.94,0,0,1-1.11,1,3.79,3.79,0,0,1-1.76.34,3.87,3.87,0,0,1-3.15-1.2,5.66,5.66,0,0,1-1-3.72,4.83,4.83,0,0,1,1.28-3.64,5.29,5.29,0,0,1,3.81-1.24,11.13,11.13,0,0,1,2,.16,10.11,10.11,0,0,1,1.5.41Zm-4.2-1.51a2.59,2.59,0,0,0,1.81-.59,3.31,3.31,0,0,0,.92-1.82V72.17a5.53,5.53,0,0,0-2.31-.4,3.24,3.24,0,0,0-2.38.89,3.76,3.76,0,0,0-.87,2.71,6.64,6.64,0,0,0,.16,1.48,3.28,3.28,0,0,0,.48,1.16,2.11,2.11,0,0,0,.86.76,2.92,2.92,0,0,0,1.33.28Z" style="fill:#0099d1"/><path id="Path_151" data-name="Path 151" d="M8,6.67V14H39V7.84H31.18V.74H46.09V36.1H31.18V29H39V22.87H8v7.3H.91V6.67Zm9.55,46.09L46.09,38.17V48.69L27.44,57.4v.33l18.65,8.91v9.48L17.63,61.6H.91V52.76ZM45.64,81.22q.51,2.72.81,6t.29,6.49a43.56,43.56,0,0,1-.55,6.74,16.81,16.81,0,0,1-2.2,6.1,12.68,12.68,0,0,1-4.58,4.42,15.15,15.15,0,0,1-7.65,1.71,15.55,15.55,0,0,1-7.07-1.48,14.12,14.12,0,0,1-4.84-3.94,16,16,0,0,1-2.77-5.58,23.78,23.78,0,0,1-.87-6.49v-1c0-.48,0-1,0-1.49s.05-1,.1-1.51a8.54,8.54,0,0,1,.13-1.07H.91V81.22ZM39.12,94.39c0-.87,0-1.68-.1-2.46s-.14-1.4-.23-1.87H24.15a5.29,5.29,0,0,0-.13.78c-.05.34-.08.71-.1,1.1s0,.76,0,1.12v.81a18.09,18.09,0,0,0,.33,3.45,8.47,8.47,0,0,0,1.19,3.07,6.22,6.22,0,0,0,2.42,2.16,8.78,8.78,0,0,0,4.07.81,7.1,7.1,0,0,0,3.51-.77,6.33,6.33,0,0,0,2.23-2,7.9,7.9,0,0,0,1.16-2.87A16.61,16.61,0,0,0,39.12,94.39ZM23.5,117.56a43.24,43.24,0,0,1,9.88,1,20.9,20.9,0,0,1,7.39,3.16,14.45,14.45,0,0,1,4.61,5.33,18.46,18.46,0,0,1-.13,15.39,14.38,14.38,0,0,1-4.84,5.26,21.94,21.94,0,0,1-7.42,3,44.47,44.47,0,0,1-9.49.93q-11,0-17.26-4.22T0,134.6a16.55,16.55,0,0,1,1.74-7.91,14.31,14.31,0,0,1,4.84-5.29A21.26,21.26,0,0,1,14,118.46,45.73,45.73,0,0,1,23.5,117.56Zm0,9.29a59.75,59.75,0,0,0-6.13.29,19.42,19.42,0,0,0-4.94,1.1,7.75,7.75,0,0,0-3.32,2.32,6.23,6.23,0,0,0-1.23,4,6.91,6.91,0,0,0,.94,3.74,6.5,6.5,0,0,0,2.87,2.39A16.49,16.49,0,0,0,16.57,142a59.46,59.46,0,0,0,6.93.35q3.16,0,6-.23a18,18,0,0,0,5-1,7.82,7.82,0,0,0,3.39-2.36,6.29,6.29,0,0,0,1.26-4.13,6,6,0,0,0-3.94-6.13Q31.25,126.85,23.5,126.85Zm1,48v15.43H4.07a14.34,14.34,0,0,1-3-5.71,25.12,25.12,0,0,1-1-7.2,22,22,0,0,1,1.48-8.1A17.53,17.53,0,0,1,6,162.67a21.56,21.56,0,0,1,7.42-4.39,30.15,30.15,0,0,1,10.36-1.62,26.28,26.28,0,0,1,10.65,1.94,21.17,21.17,0,0,1,7.2,5,19.32,19.32,0,0,1,4.1,6.87A23.44,23.44,0,0,1,47,178a28.5,28.5,0,0,1-.61,6.45,25.42,25.42,0,0,1-1.58,4.72H31.44v-7.1H38.6l.26-1a14.16,14.16,0,0,0,.26-2.84,13.06,13.06,0,0,0-.9-4.9,10,10,0,0,0-2.81-3.9,13.31,13.31,0,0,0-4.87-2.55,24.32,24.32,0,0,0-7.1-.9,22.15,22.15,0,0,0-6.58.9A14.5,14.5,0,0,0,12,169.39a10.52,10.52,0,0,0-3,3.84,12,12,0,0,0-.65,7.87,6.3,6.3,0,0,0,.78,1.9h9v-8.2Zm21.17,21.88c.17,1,.33,2.06.48,3.2s.27,2.28.36,3.42.15,2.25.19,3.32.07,2.07.07,3a31.79,31.79,0,0,1-.62,6.23,16.67,16.67,0,0,1-2.1,5.49,11.16,11.16,0,0,1-4,3.87,12.29,12.29,0,0,1-6.26,1.45,18.48,18.48,0,0,1-4.8-.55,13.38,13.38,0,0,1-3.59-1.52,10.7,10.7,0,0,1-2.67-2.35,20.86,20.86,0,0,1-2-3L.91,230.11V219.92l17.69-9.11v-5.29H.91v-8.84Zm-6.78,13.56c0-.91,0-1.8-.06-2.68a10.54,10.54,0,0,0-.26-2H25.44V209a10,10,0,0,0,1.68,6q1.66,2.33,5.55,2.33a5.86,5.86,0,0,0,4.55-1.81A7.62,7.62,0,0,0,38.86,210.24Zm-27.94,47V243.74l-10-3.1v-8.85l45.17,14.59v8.84L.91,269.74v-9.29ZM18,245.8v9.68l15.1-4.58v-.58Zm27.62,29q.51,2.71.81,6c.19,2.17.29,4.34.29,6.49a43.46,43.46,0,0,1-.55,6.74,16.81,16.81,0,0,1-2.2,6.1,12.68,12.68,0,0,1-4.58,4.42,15,15,0,0,1-7.65,1.71,15.49,15.49,0,0,1-7.06-1.48,13.92,13.92,0,0,1-4.84-3.94,15.9,15.9,0,0,1-2.78-5.58,24.12,24.12,0,0,1-.87-6.49v-1c0-.47,0-1,0-1.48s.06-1,.1-1.52.09-.85.13-1.07H.91v-8.84ZM39.12,288c0-.86,0-1.68-.1-2.46s-.14-1.39-.23-1.87H24.15a5.29,5.29,0,0,0-.13.78c-.05.34-.08.71-.1,1.1s0,.76,0,1.13v.8a18.27,18.27,0,0,0,.33,3.46A8.42,8.42,0,0,0,25.4,294a6.22,6.22,0,0,0,2.42,2.16,8.78,8.78,0,0,0,4.07.81,7.1,7.1,0,0,0,3.51-.77,6.33,6.33,0,0,0,2.23-2,7.83,7.83,0,0,0,1.16-2.87,16.54,16.54,0,0,0,.33-3.29Zm-19.3,47.5V320.92H.91v-8.84H46.09v8.84H27.69v14.59h18.4v8.84H.91v-8.84Zm-2.26,27L46.09,348v10.52L27.44,367.2v.32l18.65,8.91v9.49L17.63,371.39H.91v-8.84Z" style="fill:#094c84"/><path id="Path_152" data-name="Path 152" d="M54.43,0h34.3V12.07H83.84V4.88H74.28V41.29h7.26v4.88h-20V41.29h7.26V4.88h-9.5v7.19H54.43Zm62.72,41.09h2.51l8.18-27.9h5.34L124,42.8c-.48,1.54-1,3.29-1.48,5.24a24.15,24.15,0,0,1-2.15,5.51,13.22,13.22,0,0,1-3.75,4.36,10.09,10.09,0,0,1-6.2,1.78,9.31,9.31,0,0,1-1.82-.2,17.92,17.92,0,0,1-1.88-.49,13.42,13.42,0,0,1-1.72-.69,4.69,4.69,0,0,1-1.18-.79l1.84-4.75a5.76,5.76,0,0,0,1.09.66,10.25,10.25,0,0,0,1.52.56c.55.15,1.09.29,1.61.4a6.61,6.61,0,0,0,1.32.16q5,0,6.73-8.37h-4.41l-13.86-33h5.94Zm30.67-16.36c0-.39,0-.91,0-1.55s-.06-1.29-.1-2-.1-1.35-.17-2-.14-1.23-.23-1.71h-4.42V13.19h8.78l.66,4.62h.33A14.8,14.8,0,0,1,157.15,14a13.46,13.46,0,0,1,6.7-1.55q7.05,0,10.62,3.89T178,29a21.71,21.71,0,0,1-1.22,7.49,15.82,15.82,0,0,1-3.46,5.64,15.4,15.4,0,0,1-5.41,3.56A19,19,0,0,1,161,47c-.93,0-1.75,0-2.48-.1s-1.38-.15-2-.26a17,17,0,0,1-1.74-.43c-.58-.18-1.19-.4-1.85-.66V59.36h-5.08ZM163,17.21a9.72,9.72,0,0,0-3.73.73A11.06,11.06,0,0,0,154,22.49a7.73,7.73,0,0,0-1,2.9v15A11.91,11.91,0,0,0,156.16,42a16.45,16.45,0,0,0,4.79.56,10.89,10.89,0,0,0,8.44-3.46q3.17-3.46,3.16-10.13,0-5.6-2.2-8.67C168.87,18.24,166.42,17.21,163,17.21ZM221.23,42a16.49,16.49,0,0,1-2.8,2,21.08,21.08,0,0,1-3.53,1.59,27.46,27.46,0,0,1-4,1,24.52,24.52,0,0,1-4.19.36,18.53,18.53,0,0,1-7-1.22,13.55,13.55,0,0,1-5.08-3.5,15.28,15.28,0,0,1-3.1-5.44,22.34,22.34,0,0,1-1.05-7.12,21.6,21.6,0,0,1,1.15-7.39A14.31,14.31,0,0,1,195,16.88a14.62,14.62,0,0,1,5.28-3.33,19.87,19.87,0,0,1,6.92-1.15,20.6,20.6,0,0,1,5.47.73,10.71,10.71,0,0,1,4.78,2.73,13.11,13.11,0,0,1,3.2,5.54,25.86,25.86,0,0,1,.8,9.14H195.9q0,5.94,3.2,8.87a12.11,12.11,0,0,0,8.54,2.93,15,15,0,0,0,3.53-.42,29.8,29.8,0,0,0,3.33-1,16.26,16.26,0,0,0,2.8-1.32,12.38,12.38,0,0,0,1.88-1.31ZM207.31,16.75a17.83,17.83,0,0,0-4.12.46,9.43,9.43,0,0,0-3.43,1.55,8.65,8.65,0,0,0-2.44,2.84,11.23,11.23,0,0,0-1.22,4.32h20.51a10.17,10.17,0,0,0-2.8-6.76A8.93,8.93,0,0,0,207.31,16.75Z" style="fill:#094c84"/></g></svg>
