<svg xmlns="http://www.w3.org/2000/svg" xmlns:xlink="http://www.w3.org/1999/xlink" width="302" height="411" viewBox="0 0 302 411">
  <defs>
    <clipPath id="clip-Ptmono2">
      <rect width="302" height="411"/>
    </clipPath>
  </defs>
  <g id="Ptmono2" clip-path="url(#clip-Ptmono2)">
    <g id="Group_76" data-name="Group 76" transform="translate(11447 2567)">
      <path id="Path_142" data-name="Path 142" d="M3.4,6.438A17.169,17.169,0,0,1,6.188,6.03q1.5-.1,2.958-.1a17.051,17.051,0,0,1,3.179.306,8.62,8.62,0,0,1,2.941,1.122A6.315,6.315,0,0,1,17.425,9.6a7.142,7.142,0,0,1,.833,3.638,7.854,7.854,0,0,1-.782,3.672A6.881,6.881,0,0,1,15.4,19.341a8.393,8.393,0,0,1-2.958,1.343,14.384,14.384,0,0,1-3.434.408H8.449q-.391,0-.816-.017T6.8,21.024q-.408-.034-.578-.068V30H3.4ZM9.214,8.376q-.884,0-1.7.034a5.765,5.765,0,0,0-1.292.17v9.86a1.8,1.8,0,0,0,.544.085l.782.034q.408.017.782.017h.544a12.021,12.021,0,0,0,2.295-.221,5.948,5.948,0,0,0,2.057-.8A4.222,4.222,0,0,0,14.7,15.924a5.688,5.688,0,0,0,.561-2.686,4.689,4.689,0,0,0-.527-2.329,4.213,4.213,0,0,0-1.394-1.5,5.875,5.875,0,0,0-1.955-.8A10.156,10.156,0,0,0,9.214,8.376Zm15.878,5.95a10.8,10.8,0,0,1,3.3-1.224,18.027,18.027,0,0,1,3.6-.374,6.433,6.433,0,0,1,2.839.544,4.6,4.6,0,0,1,1.734,1.411,4.975,4.975,0,0,1,.85,1.972,11.328,11.328,0,0,1,.221,2.227q0,1.292-.068,2.754t-.1,2.924a24.451,24.451,0,0,0,.2,3.23H39.95V30H35.428l-.306-2.55h-.17a8.679,8.679,0,0,1-.612.782,5.6,5.6,0,0,1-1.071.935,6.92,6.92,0,0,1-1.615.8,6.676,6.676,0,0,1-2.244.34,5.794,5.794,0,0,1-3.978-1.292,4.476,4.476,0,0,1-1.462-3.536,5.129,5.129,0,0,1,.765-2.89,4.826,4.826,0,0,1,2.193-1.768,10.048,10.048,0,0,1,3.451-.714,23.178,23.178,0,0,1,4.539.272,12.054,12.054,0,0,0,.051-2.6,3.584,3.584,0,0,0-.544-1.649,2.278,2.278,0,0,0-1.19-.867,6.028,6.028,0,0,0-1.887-.255,9.971,9.971,0,0,0-2.924.425q-1.394.425-2.482.867Zm5,13.7a5,5,0,0,0,1.768-.306,5.39,5.39,0,0,0,1.428-.782,5.181,5.181,0,0,0,1.02-1.037,5.013,5.013,0,0,0,.612-1.071v-2.38a19.236,19.236,0,0,0-3.264-.306,9.139,9.139,0,0,0-2.584.323,3.6,3.6,0,0,0-1.7,1,2.542,2.542,0,0,0-.612,1.768,2.8,2.8,0,0,0,.765,1.955A3.358,3.358,0,0,0,30.09,28.028ZM45.084,30V27.722h4.59V15.278h-4.59V13h6.358l.544,2.21h.17a12.255,12.255,0,0,1,2.584-1.8,7.237,7.237,0,0,1,3.4-.748,3.423,3.423,0,0,1,1.853.442,2.93,2.93,0,0,1,1.088,1.292,6.73,6.73,0,0,1,.527,2.057,24.663,24.663,0,0,1,.136,2.737l-2.38.034a8.877,8.877,0,0,0-.425-3.2,1.544,1.544,0,0,0-1.547-1.02,5.592,5.592,0,0,0-1.9.306,6.229,6.229,0,0,0-1.479.748,8.093,8.093,0,0,0-1.071.884,5.274,5.274,0,0,0-.646.748v10.03H58.82V30ZM67.932,14.326a10.8,10.8,0,0,1,3.3-1.224,18.027,18.027,0,0,1,3.6-.374,6.433,6.433,0,0,1,2.839.544,4.6,4.6,0,0,1,1.734,1.411,4.975,4.975,0,0,1,.85,1.972,11.328,11.328,0,0,1,.221,2.227q0,1.292-.068,2.754t-.1,2.924a24.45,24.45,0,0,0,.2,3.23H82.79V30H78.268l-.306-2.55h-.17a8.678,8.678,0,0,1-.612.782,5.6,5.6,0,0,1-1.071.935,6.92,6.92,0,0,1-1.615.8,6.676,6.676,0,0,1-2.244.34,5.794,5.794,0,0,1-3.978-1.292,4.476,4.476,0,0,1-1.462-3.536,5.129,5.129,0,0,1,.765-2.89,4.826,4.826,0,0,1,2.193-1.768,10.048,10.048,0,0,1,3.451-.714,23.178,23.178,0,0,1,4.539.272,12.054,12.054,0,0,0,.051-2.6,3.584,3.584,0,0,0-.544-1.649,2.278,2.278,0,0,0-1.19-.867,6.028,6.028,0,0,0-1.887-.255,9.971,9.971,0,0,0-2.924.425q-1.394.425-2.482.867Zm5,13.7a5,5,0,0,0,1.768-.306,5.39,5.39,0,0,0,1.428-.782,5.181,5.181,0,0,0,1.02-1.037,5.013,5.013,0,0,0,.612-1.071v-2.38a19.236,19.236,0,0,0-3.264-.306,9.139,9.139,0,0,0-2.584.323,3.6,3.6,0,0,0-1.7,1A2.542,2.542,0,0,0,69.6,25.24a2.8,2.8,0,0,0,.765,1.955A3.358,3.358,0,0,0,72.93,28.028ZM103.5,30.85a6.123,6.123,0,0,1-.612,2.8,5.51,5.51,0,0,1-1.683,1.989,7.593,7.593,0,0,1-2.5,1.173,11.682,11.682,0,0,1-3.094.391,13.389,13.389,0,0,1-3.5-.408,10.418,10.418,0,0,1-2.584-1.054l1.292-2.414a3.9,3.9,0,0,0,.8.527,8.421,8.421,0,0,0,1.139.476,9.774,9.774,0,0,0,1.377.357,7.888,7.888,0,0,0,1.445.136,9.718,9.718,0,0,0,2.5-.272,3.723,3.723,0,0,0,1.615-.85,3.3,3.3,0,0,0,.884-1.5,7.992,7.992,0,0,0,.272-2.244v-1.9h-.136A5.293,5.293,0,0,1,98.7,29.8a7.077,7.077,0,0,1-3.162.612q-3.876,0-5.695-2.159t-1.819-6.715q0-4.352,2.312-6.579t6.868-2.227a19.032,19.032,0,0,1,3.587.289,18.3,18.3,0,0,1,2.7.731Zm-7.582-2.72a4.7,4.7,0,0,0,3.264-1.071,5.97,5.97,0,0,0,1.666-3.281V15.72a9.917,9.917,0,0,0-4.182-.714,5.719,5.719,0,0,0-4.284,1.6,6.756,6.756,0,0,0-1.564,4.9,12.155,12.155,0,0,0,.272,2.669,6.114,6.114,0,0,0,.867,2.091,4.084,4.084,0,0,0,1.564,1.377A5.25,5.25,0,0,0,95.914,28.13ZM109.344,30V27.722h4.59V15.278h-4.59V13H115.7l.544,2.21h.17a12.255,12.255,0,0,1,2.584-1.8,7.237,7.237,0,0,1,3.4-.748,3.423,3.423,0,0,1,1.853.442,2.93,2.93,0,0,1,1.088,1.292,6.73,6.73,0,0,1,.527,2.057A24.662,24.662,0,0,1,126,19.188l-2.38.034a8.877,8.877,0,0,0-.425-3.2,1.544,1.544,0,0,0-1.547-1.02,5.592,5.592,0,0,0-1.9.306,6.229,6.229,0,0,0-1.479.748,8.093,8.093,0,0,0-1.071.884,5.273,5.273,0,0,0-.646.748v10.03h6.528V30Zm22.848-15.674a10.8,10.8,0,0,1,3.3-1.224,18.027,18.027,0,0,1,3.6-.374,6.433,6.433,0,0,1,2.839.544,4.6,4.6,0,0,1,1.734,1.411,4.975,4.975,0,0,1,.85,1.972,11.328,11.328,0,0,1,.221,2.227q0,1.292-.068,2.754t-.1,2.924a24.45,24.45,0,0,0,.2,3.23h2.278V30h-4.522l-.306-2.55h-.17a8.679,8.679,0,0,1-.612.782,5.6,5.6,0,0,1-1.071.935,6.92,6.92,0,0,1-1.615.8,6.676,6.676,0,0,1-2.244.34,5.794,5.794,0,0,1-3.978-1.292,4.476,4.476,0,0,1-1.462-3.536,5.129,5.129,0,0,1,.765-2.89,4.826,4.826,0,0,1,2.193-1.768,10.048,10.048,0,0,1,3.451-.714,23.178,23.178,0,0,1,4.539.272,12.054,12.054,0,0,0,.051-2.6,3.583,3.583,0,0,0-.544-1.649,2.278,2.278,0,0,0-1.19-.867,6.028,6.028,0,0,0-1.887-.255,9.971,9.971,0,0,0-2.924.425q-1.394.425-2.482.867Zm5,13.7a5,5,0,0,0,1.768-.306,5.39,5.39,0,0,0,1.428-.782,5.181,5.181,0,0,0,1.02-1.037,5.013,5.013,0,0,0,.612-1.071v-2.38a19.236,19.236,0,0,0-3.264-.306,9.139,9.139,0,0,0-2.584.323,3.6,3.6,0,0,0-1.7,1,2.542,2.542,0,0,0-.612,1.768,2.8,2.8,0,0,0,.765,1.955A3.358,3.358,0,0,0,137.19,28.028ZM153.2,18.95q0-.306-.017-.8t-.051-1.02q-.034-.527-.085-1.037t-.119-.884h-2.278V13h4.522l.34,2.38h.17a7.67,7.67,0,0,1,2.329-1.989,6.908,6.908,0,0,1,3.451-.8A7.055,7.055,0,0,1,166.94,14.6q1.836,2.006,1.836,6.562a11.159,11.159,0,0,1-.629,3.859,8.112,8.112,0,0,1-1.785,2.907,7.868,7.868,0,0,1-2.788,1.836,9.711,9.711,0,0,1-3.6.646q-.714,0-1.275-.051t-1.02-.136a8.038,8.038,0,0,1-.9-.221q-.442-.136-.952-.34V36.8H153.2Zm7.82-3.876a4.96,4.96,0,0,0-1.921.374,5.731,5.731,0,0,0-1.6.986,5.6,5.6,0,0,0-1.139,1.36,4,4,0,0,0-.544,1.5v7.752a6.234,6.234,0,0,0,1.683.8,8.58,8.58,0,0,0,2.465.289,5.611,5.611,0,0,0,4.352-1.785,7.483,7.483,0,0,0,1.632-5.219,7.556,7.556,0,0,0-1.139-4.471A4.354,4.354,0,0,0,161.024,15.074ZM171.5,6.2h5.3v8.908h.17a7.614,7.614,0,0,1,2.448-1.853,8.054,8.054,0,0,1,3.468-.663,10.534,10.534,0,0,1,2.839.34,4.069,4.069,0,0,1,1.972,1.19,5.4,5.4,0,0,1,1.139,2.329,15.692,15.692,0,0,1,.374,3.757V30h-2.652V20.718a16.731,16.731,0,0,0-.17-2.55,4.441,4.441,0,0,0-.663-1.819,3.072,3.072,0,0,0-1.343-1.105,5.437,5.437,0,0,0-2.176-.374,5.213,5.213,0,0,0-1.8.323,6.04,6.04,0,0,0-1.615.884,5.55,5.55,0,0,0-1.258,1.36,5.087,5.087,0,0,0-.731,1.751V30h-2.618V8.478H171.5Z" transform="translate(-11372 -2194)" fill="#258abf"/>
      <path id="Path_143" data-name="Path 143" d="M11.45-15.6a4.4,4.4,0,0,0-.937-.263,7.486,7.486,0,0,0-1.238-.087,5.627,5.627,0,0,0-2.012.375,4.466,4.466,0,0,0-1.75,1.225,6.292,6.292,0,0,0-1.225,2.225A10.682,10.682,0,0,0,3.825-8.75,10.813,10.813,0,0,0,4.237-5.6a6.506,6.506,0,0,0,1.15,2.25A4.674,4.674,0,0,0,7.163-2a5.753,5.753,0,0,0,2.313.45,6.182,6.182,0,0,0,1.212-.113,5.394,5.394,0,0,0,1.038-.313v-2.5h1.85V-1.1l.025.05a6.535,6.535,0,0,1-1.9.962A8.834,8.834,0,0,1,8.9.3,7.739,7.739,0,0,1,5.988-.237,6.088,6.088,0,0,1,3.675-1.875,7.614,7.614,0,0,1,2.162-4.687,13.634,13.634,0,0,1,1.625-8.75a12.664,12.664,0,0,1,.6-4.163,7.758,7.758,0,0,1,1.625-2.8A6.163,6.163,0,0,1,6.238-17.3a8.388,8.388,0,0,1,2.912-.5q.85,0,1.475.063a8.479,8.479,0,0,1,1.1.175,4.1,4.1,0,0,1,.837.288,6.72,6.72,0,0,1,.713.4H13.3v3.95H11.45Zm3.65-1.9H19v6.55h.125a5.6,5.6,0,0,1,1.8-1.363,5.922,5.922,0,0,1,2.55-.488,7.746,7.746,0,0,1,2.088.25,2.992,2.992,0,0,1,1.45.875,3.973,3.973,0,0,1,.837,1.713A11.538,11.538,0,0,1,28.125-7.2V0h-1.95V-6.825A12.3,12.3,0,0,0,26.05-8.7a3.265,3.265,0,0,0-.487-1.337,2.259,2.259,0,0,0-.987-.812,4,4,0,0,0-1.6-.275,3.833,3.833,0,0,0-1.325.238,4.441,4.441,0,0,0-1.187.65,4.081,4.081,0,0,0-.925,1A3.74,3.74,0,0,0,19-7.95V0H17.075V-15.825H15.1Zm17.6,5.975a7.941,7.941,0,0,1,2.425-.9,13.255,13.255,0,0,1,2.65-.275,4.73,4.73,0,0,1,2.087.4,3.381,3.381,0,0,1,1.275,1.037,3.658,3.658,0,0,1,.625,1.45,8.33,8.33,0,0,1,.162,1.637q0,.95-.05,2.025T41.8-4a17.978,17.978,0,0,0,.15,2.375h1.675V0H40.3l-.225-1.875H39.95a6.382,6.382,0,0,1-.45.575,4.117,4.117,0,0,1-.787.688,5.088,5.088,0,0,1-1.187.588,4.909,4.909,0,0,1-1.65.25,4.26,4.26,0,0,1-2.925-.95,3.291,3.291,0,0,1-1.075-2.6,3.771,3.771,0,0,1,.563-2.125,3.548,3.548,0,0,1,1.612-1.3,7.388,7.388,0,0,1,2.538-.525,17.043,17.043,0,0,1,3.337.2,8.863,8.863,0,0,0,.038-1.913,2.635,2.635,0,0,0-.4-1.212,1.675,1.675,0,0,0-.875-.637,4.433,4.433,0,0,0-1.388-.188,7.332,7.332,0,0,0-2.15.313q-1.025.312-1.825.637ZM36.375-1.45a3.673,3.673,0,0,0,1.3-.225,3.963,3.963,0,0,0,1.05-.575,3.81,3.81,0,0,0,.75-.763,3.686,3.686,0,0,0,.45-.787V-5.55a14.144,14.144,0,0,0-2.4-.225,6.72,6.72,0,0,0-1.9.238,2.649,2.649,0,0,0-1.25.737,1.869,1.869,0,0,0-.45,1.3,2.057,2.057,0,0,0,.563,1.438A2.469,2.469,0,0,0,36.375-1.45ZM46.65,0V-1.675h3.375v-9.15H46.65V-12.5h4.675l.4,1.625h.125a9.011,9.011,0,0,1,1.9-1.325,5.321,5.321,0,0,1,2.5-.55,2.517,2.517,0,0,1,1.362.325,2.154,2.154,0,0,1,.8.95A4.948,4.948,0,0,1,58.8-9.962a18.133,18.133,0,0,1,.1,2.012l-1.75.025a6.527,6.527,0,0,0-.312-2.35,1.135,1.135,0,0,0-1.138-.75,4.112,4.112,0,0,0-1.4.225,4.58,4.58,0,0,0-1.087.55,5.951,5.951,0,0,0-.788.65,3.878,3.878,0,0,0-.475.55v7.375h4.8V0ZM62.7-11.525a7.941,7.941,0,0,1,2.425-.9,13.255,13.255,0,0,1,2.65-.275,4.73,4.73,0,0,1,2.088.4,3.381,3.381,0,0,1,1.275,1.037,3.658,3.658,0,0,1,.625,1.45,8.329,8.329,0,0,1,.163,1.637q0,.95-.05,2.025T71.8-4a17.978,17.978,0,0,0,.15,2.375h1.675V0H70.3l-.225-1.875H69.95a6.381,6.381,0,0,1-.45.575,4.117,4.117,0,0,1-.787.688,5.088,5.088,0,0,1-1.187.588,4.909,4.909,0,0,1-1.65.25,4.26,4.26,0,0,1-2.925-.95,3.291,3.291,0,0,1-1.075-2.6,3.771,3.771,0,0,1,.563-2.125,3.548,3.548,0,0,1,1.613-1.3,7.388,7.388,0,0,1,2.537-.525,17.043,17.043,0,0,1,3.338.2,8.863,8.863,0,0,0,.037-1.913,2.635,2.635,0,0,0-.4-1.212,1.675,1.675,0,0,0-.875-.637,4.433,4.433,0,0,0-1.387-.188,7.332,7.332,0,0,0-2.15.313q-1.025.312-1.825.637ZM66.375-1.45a3.673,3.673,0,0,0,1.3-.225,3.963,3.963,0,0,0,1.05-.575,3.809,3.809,0,0,0,.75-.763,3.686,3.686,0,0,0,.45-.787V-5.55a14.144,14.144,0,0,0-2.4-.225,6.72,6.72,0,0,0-1.9.238,2.649,2.649,0,0,0-1.25.737,1.869,1.869,0,0,0-.45,1.3,2.057,2.057,0,0,0,.563,1.438A2.469,2.469,0,0,0,66.375-1.45Zm19.6-9.125a9.877,9.877,0,0,0-1.237-.338,6.445,6.445,0,0,0-1.312-.137,5.1,5.1,0,0,0-3.65,1.15,4.861,4.861,0,0,0-1.2,3.65,5.183,5.183,0,0,0,.35,1.963,4.014,4.014,0,0,0,1,1.462,4.5,4.5,0,0,0,1.563.925,5.962,5.962,0,0,0,2.012.325,6.712,6.712,0,0,0,2.287-.4,5.813,5.813,0,0,0,1.863-1.05l.875,1.45a7.077,7.077,0,0,1-.875.625,8.638,8.638,0,0,1-1.213.612,8.407,8.407,0,0,1-1.525.463A8.86,8.86,0,0,1,83.1.3a8.152,8.152,0,0,1-2.862-.463,5.437,5.437,0,0,1-2.062-1.325,5.671,5.671,0,0,1-1.25-2.075A8.081,8.081,0,0,1,76.5-6.25a8.3,8.3,0,0,1,.438-2.8A5.433,5.433,0,0,1,78.2-11.1a5.5,5.5,0,0,1,2-1.262,7.477,7.477,0,0,1,2.625-.437,11.485,11.485,0,0,1,3.013.325,11.129,11.129,0,0,1,1.963.725l-.025.075V-8.2h-1.8Zm4.8-1.925H93.75v-2.475l1.95-.55V-12.5h6.675v1.675H95.7v5.9a3.646,3.646,0,0,0,.888,2.7,3.463,3.463,0,0,0,2.537.875,4.284,4.284,0,0,0,1.963-.425A10.575,10.575,0,0,0,102.6-2.7l.65,1.475A7.032,7.032,0,0,1,101.162-.1a7.468,7.468,0,0,1-2.487.425A6.088,6.088,0,0,1,96.787.038,4.333,4.333,0,0,1,95.225-.85,4.251,4.251,0,0,1,94.15-2.388a5.681,5.681,0,0,1-.4-2.237v-6.2H90.775Zm27.45,10.925a6.292,6.292,0,0,1-1.062.75,7.84,7.84,0,0,1-1.338.6,9.805,9.805,0,0,1-1.512.388A9.212,9.212,0,0,1,112.725.3a7.063,7.063,0,0,1-2.65-.463,5.1,5.1,0,0,1-1.925-1.325,5.774,5.774,0,0,1-1.175-2.063,8.512,8.512,0,0,1-.4-2.7,8.3,8.3,0,0,1,.438-2.8,5.433,5.433,0,0,1,1.263-2.05,5.5,5.5,0,0,1,2-1.262A7.477,7.477,0,0,1,112.9-12.8a7.974,7.974,0,0,1,2.075.275,4.1,4.1,0,0,1,1.813,1.037A4.943,4.943,0,0,1,118-9.387a9.774,9.774,0,0,1,.3,3.462h-9.675a4.343,4.343,0,0,0,1.213,3.363,4.6,4.6,0,0,0,3.237,1.113,5.6,5.6,0,0,0,1.338-.163A11.175,11.175,0,0,0,115.675-2a6.643,6.643,0,0,0,1.063-.5,4.616,4.616,0,0,0,.712-.5ZM112.95-11.15a6.75,6.75,0,0,0-1.562.175,3.562,3.562,0,0,0-1.3.588,3.234,3.234,0,0,0-.925,1.075,4.312,4.312,0,0,0-.463,1.637h7.775a3.838,3.838,0,0,0-1.062-2.562A3.38,3.38,0,0,0,112.95-11.15ZM121.65,0V-1.675h3.375v-9.15H121.65V-12.5h4.675l.4,1.625h.125a9.011,9.011,0,0,1,1.9-1.325,5.321,5.321,0,0,1,2.5-.55,2.517,2.517,0,0,1,1.363.325,2.154,2.154,0,0,1,.8.95,4.948,4.948,0,0,1,.387,1.512,18.134,18.134,0,0,1,.1,2.012l-1.75.025a6.527,6.527,0,0,0-.312-2.35,1.135,1.135,0,0,0-1.137-.75,4.112,4.112,0,0,0-1.4.225,4.58,4.58,0,0,0-1.088.55,5.951,5.951,0,0,0-.787.65,3.878,3.878,0,0,0-.475.55v7.375h4.8V0Z" transform="translate(-11369.5 -2279.5)" fill="#2371aa"/>
      <path id="Path_144" data-name="Path 144" d="M4.55-16.03h7.7V-9.1l.42.14A20.932,20.932,0,0,0,16.2-7.805,17.76,17.76,0,0,0,20.3-7.35a10.222,10.222,0,0,0,6.09-1.575,4.97,4.97,0,0,0,2.17-4.235,4.747,4.747,0,0,0-1.785-3.85,18.024,18.024,0,0,0-4.41-2.59q-2.625-1.12-5.74-2.24a27.4,27.4,0,0,1-5.74-2.835,15.809,15.809,0,0,1-4.41-4.305A11.6,11.6,0,0,1,4.69-35.7a13.487,13.487,0,0,1,1.225-5.775,13.276,13.276,0,0,1,3.43-4.515,15.9,15.9,0,0,1,5.285-2.94,21.165,21.165,0,0,1,6.86-1.05,45.733,45.733,0,0,1,8.4.77,22.73,22.73,0,0,1,6.58,2.1V-32.9h-7.7v-7.77a1.321,1.321,0,0,1-.42-.07,26.177,26.177,0,0,0-3.325-.665,25.972,25.972,0,0,0-3.535-.245A9.177,9.177,0,0,0,16.2-40.32a4.134,4.134,0,0,0-1.925,3.57,4.676,4.676,0,0,0,1.785,3.78,19.711,19.711,0,0,0,4.41,2.66q2.625,1.19,5.74,2.38a30.083,30.083,0,0,1,5.74,2.9,15.809,15.809,0,0,1,4.41,4.3,11.211,11.211,0,0,1,1.785,6.51,14.768,14.768,0,0,1-1.4,6.615,13.355,13.355,0,0,1-3.92,4.76A17.218,17.218,0,0,1,26.88.035,27.85,27.85,0,0,1,19.46.98,27.211,27.211,0,0,1,14.525.56a32.47,32.47,0,0,1-4.2-1.05A28.7,28.7,0,0,1,6.93-1.82q-1.47-.7-2.38-1.19ZM50.12-27.3H43.19V-35h6.93v-7.98l9.1-2.59V-35H77.56v7.7H59.22v10.01q0,5.39,2.03,7.8A7,7,0,0,0,66.92-7.07a12.084,12.084,0,0,0,3.43-.455A12.95,12.95,0,0,0,73.115-8.68a15.791,15.791,0,0,0,2.24-1.54q1.015-.84,1.855-1.54l4.2,6.3A13.461,13.461,0,0,1,78.435-2.9a25.082,25.082,0,0,1-3.85,2.03A24.34,24.34,0,0,1,70.28.49a20.6,20.6,0,0,1-4.41.49q-7.84,0-11.795-4.375T50.12-17.29ZM105.07-9.87h2.66L114.52-35h9.38L113.96-3.43q-1.33,3.92-2.59,7.175a26.035,26.035,0,0,1-2.94,5.635,12.287,12.287,0,0,1-3.955,3.675A11.093,11.093,0,0,1,98.91,14.35a10.789,10.789,0,0,1-3.045-.42,15.76,15.76,0,0,1-2.625-1.015,14.694,14.694,0,0,1-2.1-1.26,12.687,12.687,0,0,1-1.47-1.225L94.36,4.2a12.069,12.069,0,0,0,2.17,1.435,5.121,5.121,0,0,0,2.38.665,4.1,4.1,0,0,0,3.325-1.47A15.417,15.417,0,0,0,104.58,0H99.61L85.05-35h9.87ZM132.09-49H147v32.34q0,5.39,1.33,7.49a4.676,4.676,0,0,0,4.27,2.1,11.759,11.759,0,0,0,3.57-.455,13.652,13.652,0,0,0,2.8-1.295l3.43,6.3q-1.19.77-2.38,1.435A15.315,15.315,0,0,1,157.5.035a17.085,17.085,0,0,1-2.9.7A23.136,23.136,0,0,1,151.06.98q-6.58,0-9.87-3.36T137.9-11.9V-41.3h-5.81ZM205.38-3.71a12.4,12.4,0,0,1-2.345,1.645,22.854,22.854,0,0,1-3.36,1.505A26.009,26.009,0,0,1,195.44.56a27.375,27.375,0,0,1-4.9.42,23.78,23.78,0,0,1-8.015-1.26,16.077,16.077,0,0,1-5.985-3.675,16.093,16.093,0,0,1-3.745-5.81A21.592,21.592,0,0,1,171.5-17.5a20.577,20.577,0,0,1,1.47-8.085,16.164,16.164,0,0,1,4.025-5.775,16.807,16.807,0,0,1,5.985-3.465,23.111,23.111,0,0,1,7.42-1.155,22.893,22.893,0,0,1,5.5.7,14.987,14.987,0,0,1,5.215,2.415,12.937,12.937,0,0,1,3.885,4.585A15.6,15.6,0,0,1,206.5-21a33.325,33.325,0,0,1-.7,6.51H180.6a8.073,8.073,0,0,0,.945,3.78,7.484,7.484,0,0,0,2.31,2.52,10,10,0,0,0,3.29,1.435A16.559,16.559,0,0,0,191.1-6.3a20.473,20.473,0,0,0,6.895-.98,14.561,14.561,0,0,0,4.375-2.38ZM190.26-28.7a11.72,11.72,0,0,0-3.43.49,9.655,9.655,0,0,0-2.9,1.435,7.9,7.9,0,0,0-2.135,2.345,7.139,7.139,0,0,0-.98,3.15h17.22A7.484,7.484,0,0,0,196.1-26.7Q194.18-28.7,190.26-28.7Z" transform="translate(-11372 -2205)" fill="#24648d"/>
      <path id="Path_145" data-name="Path 145" d="M7.605-45.5H33.67v4.81H13v15.535H32.37v4.81H13V0H7.605Zm35.1,29.25q0-7.865,4.095-12.448T58.5-33.28a17.069,17.069,0,0,1,7.052,1.333A13.841,13.841,0,0,1,70.46-28.34a14.71,14.71,0,0,1,2.893,5.4,23.043,23.043,0,0,1,.942,6.695A22.435,22.435,0,0,1,73.255-9.2,14.651,14.651,0,0,1,70.2-3.835,13.5,13.5,0,0,1,65.228-.423,17.736,17.736,0,0,1,58.5.78,17.123,17.123,0,0,1,51.48-.553,13.776,13.776,0,0,1,46.54-4.16a14.71,14.71,0,0,1-2.893-5.395A23.043,23.043,0,0,1,42.705-16.25Zm5.395,0a19.219,19.219,0,0,0,.553,4.55,12.459,12.459,0,0,0,1.787,4.1A9.29,9.29,0,0,0,53.658-4.68a9.817,9.817,0,0,0,4.842,1.1q5.2,0,7.833-3.217t2.632-9.457a19.085,19.085,0,0,0-.552-4.582,12.108,12.108,0,0,0-1.82-4.062,9.593,9.593,0,0,0-3.25-2.925,9.817,9.817,0,0,0-4.842-1.1q-5.2,0-7.8,3.185T48.1-16.25Zm35.945-4.875q0-.585-.033-1.528t-.1-1.95q-.065-1.007-.162-1.983t-.228-1.69H79.17V-32.5h8.71l.585,5.265h.325a10.989,10.989,0,0,1,1.722-2.177,13.51,13.51,0,0,1,2.5-1.95,13.259,13.259,0,0,1,3.185-1.4,12.976,12.976,0,0,1,3.705-.52,19.587,19.587,0,0,1,5.3.65,8.071,8.071,0,0,1,3.835,2.307,10.7,10.7,0,0,1,2.308,4.485,27.6,27.6,0,0,1,.78,7.182V0h-5.07V-17.68q0-5.395-1.755-8.125t-6.37-2.73a8.254,8.254,0,0,0-3.283.683,11.329,11.329,0,0,0-2.893,1.788A12.309,12.309,0,0,0,90.48-23.5a10.783,10.783,0,0,0-1.43,3.087V0H84.045ZM119.015-32.5h7.735v-6.435l5.07-1.43V-32.5h17.355v4.355H131.82V-12.8q0,4.745,2.307,7.02a9,9,0,0,0,6.6,2.275,11.137,11.137,0,0,0,5.1-1.105,27.494,27.494,0,0,0,3.933-2.4l1.69,3.835A18.284,18.284,0,0,1,146.023-.26,19.417,19.417,0,0,1,139.555.845,15.828,15.828,0,0,1,134.647.1a11.266,11.266,0,0,1-4.062-2.308,11.051,11.051,0,0,1-2.8-4,14.77,14.77,0,0,1-1.04-5.818v-16.12h-7.735Z" transform="translate(-11376 -2382)" fill="#2d7198"/>
      <path id="Path_146" data-name="Path 146" d="M4.2-2.772a9.382,9.382,0,0,0,1.89.742A7.807,7.807,0,0,0,8.2-1.736,7.925,7.925,0,0,0,9.94-1.918a4.11,4.11,0,0,0,1.414-.588,3.019,3.019,0,0,0,.952-1.022,2.9,2.9,0,0,0,.35-1.456,2.466,2.466,0,0,0-.77-1.876A7.648,7.648,0,0,0,9.968-8.148Q8.82-8.708,7.476-9.24A14.834,14.834,0,0,1,4.984-10.5a7,7,0,0,1-1.918-1.778,4.4,4.4,0,0,1-.77-2.674,4.569,4.569,0,0,1,.462-2.072,4.48,4.48,0,0,1,1.3-1.568,6.154,6.154,0,0,1,2.03-.994,9.36,9.36,0,0,1,2.646-.35,17.93,17.93,0,0,1,3.052.238,8.459,8.459,0,0,1,2.184.63l.056-.028v.056h.028l-.028.084v4.48H11.956v-3a15.27,15.27,0,0,0-1.54-.28,13.575,13.575,0,0,0-1.792-.112,5.757,5.757,0,0,0-1.666.224,4.16,4.16,0,0,0-1.26.6,2.741,2.741,0,0,0-.8.882,2.159,2.159,0,0,0-.28,1.064,2.4,2.4,0,0,0,.77,1.82,7.933,7.933,0,0,0,1.918,1.3Q8.456-11.4,9.8-10.836a15.708,15.708,0,0,1,2.492,1.3A7.294,7.294,0,0,1,14.21-7.756a4.2,4.2,0,0,1,.77,2.576,5.382,5.382,0,0,1-.462,2.268A4.988,4.988,0,0,1,13.2-1.176a5.94,5.94,0,0,1-2.1,1.12A9.362,9.362,0,0,1,8.288.336,11.594,11.594,0,0,1,6.272.168a13.765,13.765,0,0,1-1.75-.42A13.656,13.656,0,0,1,3.094-.784q-.63-.28-.994-.476l.028-.084V-5.88H4.2ZM25.928-9.1q0-.252-.014-.658t-.042-.84q-.028-.434-.07-.854t-.1-.728H23.828V-14h3.724l.28,1.96h.14a6.316,6.316,0,0,1,1.918-1.638,5.689,5.689,0,0,1,2.842-.658,5.81,5.81,0,0,1,4.508,1.652q1.512,1.652,1.512,5.4A9.19,9.19,0,0,1,38.234-4.1a6.681,6.681,0,0,1-1.47,2.394A6.48,6.48,0,0,1,34.468-.2,8,8,0,0,1,31.5.336q-.588,0-1.05-.042T29.61.182A6.619,6.619,0,0,1,28.868,0q-.364-.112-.784-.28V5.6H25.928Zm6.44-3.192a4.085,4.085,0,0,0-1.582.308,4.719,4.719,0,0,0-1.316.812,4.61,4.61,0,0,0-.938,1.12,3.294,3.294,0,0,0-.448,1.232v6.384a5.134,5.134,0,0,0,1.386.658,7.066,7.066,0,0,0,2.03.238,4.621,4.621,0,0,0,3.584-1.47,6.162,6.162,0,0,0,1.344-4.3,6.223,6.223,0,0,0-.938-3.682A3.585,3.585,0,0,0,32.368-12.292ZM49.5-12.908a8.894,8.894,0,0,1,2.716-1.008,14.846,14.846,0,0,1,2.968-.308,5.3,5.3,0,0,1,2.338.448,3.787,3.787,0,0,1,1.428,1.162,4.1,4.1,0,0,1,.7,1.624,9.329,9.329,0,0,1,.182,1.834q0,1.064-.056,2.268T59.7-4.48a20.136,20.136,0,0,0,.168,2.66H61.74V0H58.016l-.252-2.1h-.14a7.147,7.147,0,0,1-.5.644,4.611,4.611,0,0,1-.882.77,5.7,5.7,0,0,1-1.33.658,5.5,5.5,0,0,1-1.848.28A4.772,4.772,0,0,1,49.784-.812a3.686,3.686,0,0,1-1.2-2.912,4.224,4.224,0,0,1,.63-2.38A3.974,3.974,0,0,1,51.016-7.56a8.275,8.275,0,0,1,2.842-.588,19.088,19.088,0,0,1,3.738.224,9.927,9.927,0,0,0,.042-2.142,2.951,2.951,0,0,0-.448-1.358,1.876,1.876,0,0,0-.98-.714,4.964,4.964,0,0,0-1.554-.21,8.212,8.212,0,0,0-2.408.35q-1.148.35-2.044.714ZM53.62-1.624a4.114,4.114,0,0,0,1.456-.252,4.439,4.439,0,0,0,1.176-.644,4.267,4.267,0,0,0,.84-.854,4.128,4.128,0,0,0,.5-.882v-1.96a15.842,15.842,0,0,0-2.688-.252A7.526,7.526,0,0,0,52.78-6.2a2.967,2.967,0,0,0-1.4.826,2.094,2.094,0,0,0-.5,1.456,2.3,2.3,0,0,0,.63,1.61A2.765,2.765,0,0,0,53.62-1.624Zm28.392-10.22a11.062,11.062,0,0,0-1.386-.378,7.218,7.218,0,0,0-1.47-.154,5.713,5.713,0,0,0-4.088,1.288A5.445,5.445,0,0,0,73.724-7a5.8,5.8,0,0,0,.392,2.2,4.5,4.5,0,0,0,1.12,1.638,5.034,5.034,0,0,0,1.75,1.036,6.677,6.677,0,0,0,2.254.364A7.517,7.517,0,0,0,81.8-2.212a6.51,6.51,0,0,0,2.086-1.176l.98,1.624a7.927,7.927,0,0,1-.98.7,9.674,9.674,0,0,1-1.358.686A9.416,9.416,0,0,1,80.822.14a9.924,9.924,0,0,1-2.03.2,9.13,9.13,0,0,1-3.206-.518,6.089,6.089,0,0,1-2.31-1.484,6.351,6.351,0,0,1-1.4-2.324A9.051,9.051,0,0,1,71.4-7a9.3,9.3,0,0,1,.49-3.136,6.085,6.085,0,0,1,1.414-2.3,6.159,6.159,0,0,1,2.24-1.414,8.374,8.374,0,0,1,2.94-.49,12.863,12.863,0,0,1,3.374.364,12.465,12.465,0,0,1,2.2.812l-.028.084v3.892H82.012Zm25.76,10.08a7.047,7.047,0,0,1-1.19.84,8.781,8.781,0,0,1-1.5.672,10.982,10.982,0,0,1-1.694.434,10.318,10.318,0,0,1-1.778.154,7.91,7.91,0,0,1-2.968-.518,5.716,5.716,0,0,1-2.156-1.484,6.467,6.467,0,0,1-1.316-2.31A9.533,9.533,0,0,1,94.724-7a9.3,9.3,0,0,1,.49-3.136,6.085,6.085,0,0,1,1.414-2.3,6.159,6.159,0,0,1,2.24-1.414,8.374,8.374,0,0,1,2.94-.49,8.931,8.931,0,0,1,2.324.308,4.59,4.59,0,0,1,2.03,1.162,5.537,5.537,0,0,1,1.358,2.352,10.947,10.947,0,0,1,.336,3.878H97.02A4.865,4.865,0,0,0,98.378-2.87,5.154,5.154,0,0,0,102-1.624a6.266,6.266,0,0,0,1.5-.182,12.515,12.515,0,0,0,1.414-.434,7.441,7.441,0,0,0,1.19-.56,5.17,5.17,0,0,0,.8-.56Zm-5.908-10.724a7.56,7.56,0,0,0-1.75.2,3.989,3.989,0,0,0-1.456.658,3.622,3.622,0,0,0-1.036,1.2A4.829,4.829,0,0,0,97.1-8.6h8.708a4.3,4.3,0,0,0-1.19-2.87A3.786,3.786,0,0,0,101.864-12.488Z" transform="translate(-11193 -2380) rotate(-90)" fill="#166183"/>
      <path id="Path_147" data-name="Path 147" d="M15.081-15.345l.33-3.135h-.165l-1.584,2.838L10.3-10H9.471L5.94-15.675l-1.518-2.8H4.257l.4,3.1V0H1.98V-23.1H4.521L10-14.322h.066l5.28-8.778H17.82V0H15.081Zm14.883.132a10.482,10.482,0,0,1,3.2-1.188,17.5,17.5,0,0,1,3.5-.363,6.244,6.244,0,0,1,2.756.528A4.463,4.463,0,0,1,41.1-14.867a4.829,4.829,0,0,1,.825,1.914,11,11,0,0,1,.215,2.162q0,1.254-.066,2.673t-.1,2.838a23.731,23.731,0,0,0,.2,3.135h2.211V0H40l-.3-2.475h-.165a8.425,8.425,0,0,1-.594.759A5.434,5.434,0,0,1,37.9-.808a6.717,6.717,0,0,1-1.568.775A6.48,6.48,0,0,1,34.155.3,5.624,5.624,0,0,1,30.294-.957a4.345,4.345,0,0,1-1.419-3.432,4.978,4.978,0,0,1,.743-2.8A4.684,4.684,0,0,1,31.746-8.91,9.752,9.752,0,0,1,35.1-9.6a22.5,22.5,0,0,1,4.405.264,11.7,11.7,0,0,0,.049-2.524,3.478,3.478,0,0,0-.528-1.6,2.211,2.211,0,0,0-1.155-.842,5.851,5.851,0,0,0-1.832-.248,9.678,9.678,0,0,0-2.838.413q-1.353.412-2.409.842Zm4.851,13.3a4.849,4.849,0,0,0,1.716-.3,5.231,5.231,0,0,0,1.386-.759,5.028,5.028,0,0,0,.99-1.007A4.865,4.865,0,0,0,39.5-5.016v-2.31a18.671,18.671,0,0,0-3.168-.3,8.87,8.87,0,0,0-2.508.314,3.5,3.5,0,0,0-1.65.973,2.467,2.467,0,0,0-.594,1.716,2.715,2.715,0,0,0,.743,1.9A3.259,3.259,0,0,0,34.815-1.914ZM54.978,0V-2.211h4.455V-14.289H54.978V-16.5h6.171l.528,2.145h.165A11.894,11.894,0,0,1,64.35-16.1a7.024,7.024,0,0,1,3.3-.726,3.322,3.322,0,0,1,1.8.429A2.844,2.844,0,0,1,70.5-15.147a6.532,6.532,0,0,1,.511,2,23.938,23.938,0,0,1,.132,2.657l-2.31.033a8.616,8.616,0,0,0-.412-3.1,1.5,1.5,0,0,0-1.5-.99,5.428,5.428,0,0,0-1.848.3,6.046,6.046,0,0,0-1.435.726,7.855,7.855,0,0,0-1.04.858,5.119,5.119,0,0,0-.627.726v9.735H68.31V0ZM96.492.825A5.943,5.943,0,0,1,95.9,3.548a5.347,5.347,0,0,1-1.633,1.93,7.37,7.37,0,0,1-2.425,1.139,11.339,11.339,0,0,1-3,.379,13,13,0,0,1-3.4-.4,10.112,10.112,0,0,1-2.508-1.023l1.254-2.343a3.787,3.787,0,0,0,.775.512,8.173,8.173,0,0,0,1.105.462,9.486,9.486,0,0,0,1.337.346,7.655,7.655,0,0,0,1.4.132,9.433,9.433,0,0,0,2.426-.264A3.613,3.613,0,0,0,92.8,3.6a3.2,3.2,0,0,0,.858-1.452,7.757,7.757,0,0,0,.264-2.178V-1.881h-.132A5.138,5.138,0,0,1,91.839-.2,6.869,6.869,0,0,1,88.77.4q-3.762,0-5.527-2.1T81.477-8.217q0-4.224,2.244-6.385t6.666-2.161a18.473,18.473,0,0,1,3.482.281,17.76,17.76,0,0,1,2.623.71Zm-7.359-2.64A4.563,4.563,0,0,0,92.3-2.854a5.794,5.794,0,0,0,1.617-3.185V-13.86a9.626,9.626,0,0,0-4.059-.693A5.551,5.551,0,0,0,85.7-13,6.558,6.558,0,0,0,84.183-8.25a11.8,11.8,0,0,0,.264,2.59,5.934,5.934,0,0,0,.841,2.03,3.963,3.963,0,0,0,1.518,1.336A5.1,5.1,0,0,0,89.133-1.815ZM109.065,0V-2.211h5.742V-14.289h-5.742V-16.5h8.382V-2.211h5.61V0Zm4.851-21.186a2.185,2.185,0,0,1,.594-1.534,1.974,1.974,0,0,1,1.518-.644,2.173,2.173,0,0,1,1.6.644,2.1,2.1,0,0,1,.644,1.534,1.9,1.9,0,0,1-.644,1.452,2.27,2.27,0,0,1-1.6.594,2.056,2.056,0,0,1-1.518-.594A1.975,1.975,0,0,1,113.916-21.186Zm21.153,10.461q0-.3-.016-.776t-.049-.99q-.033-.511-.083-1.007t-.116-.858h-2.211V-16.5h4.422l.3,2.673h.165a5.579,5.579,0,0,1,.874-1.106,6.859,6.859,0,0,1,1.271-.99,6.731,6.731,0,0,1,1.617-.71,6.588,6.588,0,0,1,1.881-.264,9.944,9.944,0,0,1,2.689.33,4.1,4.1,0,0,1,1.947,1.171,5.433,5.433,0,0,1,1.171,2.277,14.013,14.013,0,0,1,.4,3.647V0h-2.574V-8.976a7.71,7.71,0,0,0-.891-4.125,3.547,3.547,0,0,0-3.234-1.386,4.191,4.191,0,0,0-1.667.347,5.752,5.752,0,0,0-1.469.908,6.249,6.249,0,0,0-1.155,1.3,5.475,5.475,0,0,0-.726,1.567V0h-2.541Z" transform="translate(-11370 -2446)" fill="#225576"/>
      <path id="Path_148" data-name="Path 148" d="M2.5-35q.45-.05,1.575-.15t2.55-.175q1.425-.075,2.95-.125T12.3-35.5A19.089,19.089,0,0,1,20-34.15a11.868,11.868,0,0,1,4.825,3.725,14.281,14.281,0,0,1,2.475,5.6A33.122,33.122,0,0,1,28-17.8a32.44,32.44,0,0,1-.7,6.75,15.651,15.651,0,0,1-2.525,5.875,13.051,13.051,0,0,1-5.05,4.15A18.878,18.878,0,0,1,11.45.55Q10.65.55,9.4.5T6.85.375Q5.55.3,4.35.225T2.5.05Zm10.05,5.6q-.95,0-1.85.075T9.35-29.2V-5.75a3.6,3.6,0,0,0,.6.075l.825.05.825.05q.4.025.65.025a8.675,8.675,0,0,0,4.625-1.075A6.77,6.77,0,0,0,19.45-9.45a12.105,12.105,0,0,0,1.1-3.95,38.939,38.939,0,0,0,.25-4.4,36.228,36.228,0,0,0-.225-3.95,11.359,11.359,0,0,0-1.05-3.75,7,7,0,0,0-2.475-2.8A8.025,8.025,0,0,0,12.55-29.4ZM61.7-2.65a8.86,8.86,0,0,1-1.675,1.175A16.325,16.325,0,0,1,57.625-.4,18.578,18.578,0,0,1,54.6.4a19.554,19.554,0,0,1-3.5.3,16.986,16.986,0,0,1-5.725-.9A11.484,11.484,0,0,1,41.1-2.825a11.5,11.5,0,0,1-2.675-4.15A15.423,15.423,0,0,1,37.5-12.5a14.7,14.7,0,0,1,1.05-5.775A11.546,11.546,0,0,1,41.425-22.4,12,12,0,0,1,45.7-24.875,16.508,16.508,0,0,1,51-25.7a16.352,16.352,0,0,1,3.925.5,10.7,10.7,0,0,1,3.725,1.725A9.24,9.24,0,0,1,61.425-20.2,11.142,11.142,0,0,1,62.5-15a23.8,23.8,0,0,1-.5,4.65H44a5.766,5.766,0,0,0,.675,2.7,5.346,5.346,0,0,0,1.65,1.8,7.142,7.142,0,0,0,2.35,1.025A11.828,11.828,0,0,0,51.5-4.5a14.624,14.624,0,0,0,4.925-.7A10.4,10.4,0,0,0,59.55-6.9ZM50.9-20.5a8.372,8.372,0,0,0-2.45.35,6.9,6.9,0,0,0-2.075,1.025A5.646,5.646,0,0,0,44.85-17.45a5.1,5.1,0,0,0-.7,2.25h12.3a5.346,5.346,0,0,0-1.375-3.875A5.555,5.555,0,0,0,50.9-20.5ZM90.1-6.9a1.806,1.806,0,0,0-1.225-1.6A17.76,17.76,0,0,0,85.85-9.6q-1.8-.5-3.95-1.025a17.9,17.9,0,0,1-3.95-1.45,9.9,9.9,0,0,1-3.025-2.35A5.438,5.438,0,0,1,73.7-18.1a6.282,6.282,0,0,1,.825-3.25,7.441,7.441,0,0,1,2.25-2.375,10.554,10.554,0,0,1,3.4-1.475,17.385,17.385,0,0,1,4.275-.5,23.359,23.359,0,0,1,4.3.35,20.85,20.85,0,0,1,3.225.85,11.884,11.884,0,0,1,2.35,1.125Q95.3-22.75,96-22.25L93.25-17.8q-.75-.45-1.725-.925t-2.05-.875a15.977,15.977,0,0,0-2.25-.65A11.148,11.148,0,0,0,84.9-20.5a8.837,8.837,0,0,0-3.4.55,1.807,1.807,0,0,0-1.3,1.7q0,.9,1.225,1.45a19.858,19.858,0,0,0,3.025,1.025q1.8.475,3.95,1.025a20.809,20.809,0,0,1,3.95,1.425,9.453,9.453,0,0,1,3.025,2.275A5.267,5.267,0,0,1,96.6-7.45a7.176,7.176,0,0,1-2.775,5.975Q91.05.7,85.6.7A19.6,19.6,0,0,1,78.175-.575,17.263,17.263,0,0,1,73.15-3.55l3-4.7a15.392,15.392,0,0,0,1.725,1.225A15.678,15.678,0,0,0,80.3-5.8a20.733,20.733,0,0,0,2.875.925A12.632,12.632,0,0,0,86.2-4.5a6.323,6.323,0,0,0,2.75-.55A1.9,1.9,0,0,0,90.1-6.9Zm17.85,1.4h8.8v-14h-8.8V-25h15.3V-5.5h9.25V0H107.95Zm7.6-26.3a3.535,3.535,0,0,1,1.15-2.65,4.441,4.441,0,0,1,3.2-1.1,4.889,4.889,0,0,1,3.35,1.1,3.41,3.41,0,0,1,1.25,2.65,3.244,3.244,0,0,1-1.25,2.625,5.122,5.122,0,0,1-3.35,1.025,4.642,4.642,0,0,1-3.2-1.025A3.358,3.358,0,0,1,115.55-31.8ZM166.5,0a11.1,11.1,0,0,1-.925,4.7,9.205,9.205,0,0,1-2.55,3.325,10.5,10.5,0,0,1-3.85,1.95,17.984,17.984,0,0,1-4.875.625,19.629,19.629,0,0,1-3.375-.275,19.4,19.4,0,0,1-2.9-.725,16.288,16.288,0,0,1-2.325-.975A9.217,9.217,0,0,1,144.1,7.6L146.6,3a18.307,18.307,0,0,0,2.875,1.525,10.682,10.682,0,0,0,4.225.725,7.062,7.062,0,0,0,4.8-1.45,5.231,5.231,0,0,0,1.65-4.15v-1.6h-.2A5.235,5.235,0,0,1,157.3-.175,12.979,12.979,0,0,1,153.25.4a12.647,12.647,0,0,1-4.425-.75A9.521,9.521,0,0,1,145.3-2.625,10.287,10.287,0,0,1,142.975-6.5a16.606,16.606,0,0,1-.825-5.5,16.306,16.306,0,0,1,.975-5.85,11.676,11.676,0,0,1,2.75-4.275,11.516,11.516,0,0,1,4.25-2.6,16.492,16.492,0,0,1,5.525-.875q1.6,0,3.2.125t3.025.325q1.425.2,2.625.475a15.978,15.978,0,0,1,2,.575Zm-12-4.8a6.914,6.914,0,0,0,3.425-.85A4.342,4.342,0,0,0,160-8.2V-19.45a7.955,7.955,0,0,0-1.975-.475A17.86,17.86,0,0,0,155.6-20.1a7.553,7.553,0,0,0-2.625.45,5.589,5.589,0,0,0-2.15,1.425,6.831,6.831,0,0,0-1.45,2.45,10.541,10.541,0,0,0-.525,3.525,10.45,10.45,0,0,0,.45,3.2,6.86,6.86,0,0,0,1.25,2.35,5.365,5.365,0,0,0,1.8,1.425A4.947,4.947,0,0,0,154.5-4.8ZM175.6-25h8.75l.75,3.3h.2a9.924,9.924,0,0,1,3.3-2.8,10.411,10.411,0,0,1,5.15-1.2,11.756,11.756,0,0,1,3.475.5A6.6,6.6,0,0,1,200-23.55a8,8,0,0,1,1.825,3.125,15.218,15.218,0,0,1,.675,4.875V0H196V-14.2q0-3.05-1.375-4.4a4.756,4.756,0,0,0-3.475-1.35,5.727,5.727,0,0,0-3.375,1.075A5.38,5.38,0,0,0,185.7-16.2V0h-6.5V-19.5h-3.6Z" transform="translate(-11371 -2321)" fill="#258abf"/>
      <path id="Path_150" data-name="Path 150" d="M26.9-6.48H25.36V0H23.7V-14h1.66v6.24h1.5L31.36-14h1.92L28.34-7.34,33.9,0H31.8ZM54.58-1.26a5.033,5.033,0,0,1-.85.6,6.272,6.272,0,0,1-1.07.48,7.844,7.844,0,0,1-1.21.31,7.37,7.37,0,0,1-1.27.11,5.65,5.65,0,0,1-2.12-.37,4.083,4.083,0,0,1-1.54-1.06,4.62,4.62,0,0,1-.94-1.65A6.809,6.809,0,0,1,45.26-5a6.639,6.639,0,0,1,.35-2.24,4.347,4.347,0,0,1,1.01-1.64,4.4,4.4,0,0,1,1.6-1.01,5.981,5.981,0,0,1,2.1-.35,6.379,6.379,0,0,1,1.66.22,3.278,3.278,0,0,1,1.45.83,3.955,3.955,0,0,1,.97,1.68,7.819,7.819,0,0,1,.24,2.77H46.9a3.475,3.475,0,0,0,.97,2.69,3.682,3.682,0,0,0,2.59.89,4.476,4.476,0,0,0,1.07-.13,8.94,8.94,0,0,0,1.01-.31,5.314,5.314,0,0,0,.85-.4,3.693,3.693,0,0,0,.57-.4ZM50.36-8.92a5.4,5.4,0,0,0-1.25.14,2.849,2.849,0,0,0-1.04.47,2.587,2.587,0,0,0-.74.86,3.449,3.449,0,0,0-.37,1.31h6.22a3.071,3.071,0,0,0-.85-2.05A2.7,2.7,0,0,0,50.36-8.92ZM67.32,0V-1.34h2.7V-8.66h-2.7V-10h3.74l.32,1.3h.1A7.209,7.209,0,0,1,73-9.76a4.257,4.257,0,0,1,2-.44,2.014,2.014,0,0,1,1.09.26,1.723,1.723,0,0,1,.64.76,3.959,3.959,0,0,1,.31,1.21,14.506,14.506,0,0,1,.08,1.61l-1.4.02a5.222,5.222,0,0,0-.25-1.88.908.908,0,0,0-.91-.6,3.289,3.289,0,0,0-1.12.18,3.664,3.664,0,0,0-.87.44,4.761,4.761,0,0,0-.63.52,3.1,3.1,0,0,0-.38.44v5.9H75.4V0ZM89.86-6.5q0-.18-.01-.47t-.03-.6q-.02-.31-.05-.61T89.7-8.7H88.36V-10h2.68l.18,1.62h.1a3.381,3.381,0,0,1,.53-.67,4.157,4.157,0,0,1,.77-.6,4.079,4.079,0,0,1,.98-.43,3.993,3.993,0,0,1,1.14-.16,6.027,6.027,0,0,1,1.63.2,2.483,2.483,0,0,1,1.18.71,3.293,3.293,0,0,1,.71,1.38,8.493,8.493,0,0,1,.24,2.21V0H96.94V-5.44a4.673,4.673,0,0,0-.54-2.5,2.15,2.15,0,0,0-1.96-.84,2.54,2.54,0,0,0-1.01.21,3.486,3.486,0,0,0-.89.55,3.787,3.787,0,0,0-.7.79,3.318,3.318,0,0,0-.44.95V0H89.86ZM112.1,0V-1.34h3.48V-8.66H112.1V-10h5.08v8.66h3.4V0Zm2.94-12.84a1.324,1.324,0,0,1,.36-.93,1.2,1.2,0,0,1,.92-.39,1.317,1.317,0,0,1,.97.39,1.27,1.27,0,0,1,.39.93,1.152,1.152,0,0,1-.39.88,1.376,1.376,0,0,1-.97.36,1.246,1.246,0,0,1-.92-.36A1.2,1.2,0,0,1,115.04-12.84ZM133.86-6.5q0-.18-.01-.47t-.03-.6q-.02-.31-.05-.61t-.07-.52h-1.34V-10h2.68l.18,1.62h.1a3.381,3.381,0,0,1,.53-.67,4.156,4.156,0,0,1,.77-.6,4.08,4.08,0,0,1,.98-.43,3.992,3.992,0,0,1,1.14-.16,6.027,6.027,0,0,1,1.63.2,2.483,2.483,0,0,1,1.18.71,3.292,3.292,0,0,1,.71,1.38,8.492,8.492,0,0,1,.24,2.21V0h-1.56V-5.44a4.673,4.673,0,0,0-.54-2.5,2.15,2.15,0,0,0-1.96-.84,2.54,2.54,0,0,0-1.01.21,3.486,3.486,0,0,0-.89.55,3.787,3.787,0,0,0-.7.79,3.318,3.318,0,0,0-.44.95V0h-1.54Zm30.62,7a3.6,3.6,0,0,1-.36,1.65,3.241,3.241,0,0,1-.99,1.17,4.467,4.467,0,0,1-1.47.69,6.872,6.872,0,0,1-1.82.23A7.876,7.876,0,0,1,157.78,4a6.128,6.128,0,0,1-1.52-.62l.76-1.42a2.3,2.3,0,0,0,.47.31,4.952,4.952,0,0,0,.67.28,5.749,5.749,0,0,0,.81.21,4.64,4.64,0,0,0,.85.08,5.717,5.717,0,0,0,1.47-.16,2.19,2.19,0,0,0,.95-.5,1.939,1.939,0,0,0,.52-.88,4.7,4.7,0,0,0,.16-1.32V-1.14h-.08a3.114,3.114,0,0,1-1.18,1.02,4.163,4.163,0,0,1-1.86.36,4.14,4.14,0,0,1-3.35-1.27,6.052,6.052,0,0,1-1.07-3.95,5.133,5.133,0,0,1,1.36-3.87,5.611,5.611,0,0,1,4.04-1.31,11.2,11.2,0,0,1,2.11.17,10.764,10.764,0,0,1,1.59.43Zm-4.46-1.6a2.765,2.765,0,0,0,1.92-.63,3.512,3.512,0,0,0,.98-1.93V-8.4a5.834,5.834,0,0,0-2.46-.42,3.364,3.364,0,0,0-2.52.94A3.974,3.974,0,0,0,157.02-5a7.151,7.151,0,0,0,.16,1.57,3.6,3.6,0,0,0,.51,1.23,2.4,2.4,0,0,0,.92.81A3.088,3.088,0,0,0,160.02-1.1Z" transform="translate(-11391 -2477)" fill="#0099d1"/>
      <path id="Path_151" data-name="Path 151" d="M7.926-7.535H15.54v-32.88H9.128v8.288H1.781V-47.95h36.6v15.824H31.036v-8.288H24.691v32.88h7.547V0H7.926ZM55.615-17.673,40.52-47.95H51.407l9.017,19.8h.334l9.217-19.8h9.818L64.766-17.742V0h-9.15Zm29.455-29.8a61.6,61.6,0,0,1,6.178-.856q3.373-.308,6.713-.308a42.547,42.547,0,0,1,6.98.582,17.11,17.11,0,0,1,6.312,2.329,13.375,13.375,0,0,1,4.575,4.864,16.342,16.342,0,0,1,1.77,8.117,16.821,16.821,0,0,1-1.536,7.5,14.842,14.842,0,0,1-4.074,5.138,16.4,16.4,0,0,1-5.777,2.945,24.333,24.333,0,0,1-6.713.925H98.429q-.735,0-1.536-.034t-1.57-.1a11.088,11.088,0,0,1-1.1-.137V0H85.07ZM98.7-40.552q-1.336,0-2.538.1t-1.937.24V-24.66a7.157,7.157,0,0,0,.8.137q.534.069,1.135.1t1.169.034h.835a18.766,18.766,0,0,0,3.573-.343A8.7,8.7,0,0,0,104.908-26a6.552,6.552,0,0,0,2.238-2.569,9.559,9.559,0,0,0,.835-4.316,7.754,7.754,0,0,0-.8-3.733,6.669,6.669,0,0,0-2.1-2.363,8.081,8.081,0,0,0-2.972-1.233A16.909,16.909,0,0,0,98.7-40.552Zm23.978,16.577a47.007,47.007,0,0,1,1.069-10.481,22.5,22.5,0,0,1,3.273-7.843,15.054,15.054,0,0,1,5.51-4.9,16.7,16.7,0,0,1,7.781-1.713,16.6,16.6,0,0,1,8.149,1.85,15.024,15.024,0,0,1,5.444,5.137,23.492,23.492,0,0,1,3.072,7.877,48.818,48.818,0,0,1,.968,10.07q0,11.714-4.375,18.324T140.307.959a16.8,16.8,0,0,1-8.182-1.85,14.945,14.945,0,0,1-5.477-5.137,23.01,23.01,0,0,1-3.039-7.877A50.506,50.506,0,0,1,122.674-23.975Zm9.618,0q0,3.494.3,6.508a20.87,20.87,0,0,0,1.135,5.24,8.207,8.207,0,0,0,2.4,3.528,6.332,6.332,0,0,0,4.174,1.3,7,7,0,0,0,3.874-.993,6.9,6.9,0,0,0,2.471-3.048,17.542,17.542,0,0,0,1.3-5.172,63.908,63.908,0,0,0,.367-7.364q0-3.356-.234-6.37a19.63,19.63,0,0,0-1.069-5.274,8.306,8.306,0,0,0-2.438-3.6,6.463,6.463,0,0,0-4.275-1.336,6.254,6.254,0,0,0-6.345,4.179Q132.292-32.195,132.292-23.975ZM181.918-25h15.963V-3.356a14.7,14.7,0,0,1-5.911,3.219,25.694,25.694,0,0,1-7.447,1.1,22.2,22.2,0,0,1-8.382-1.576,18.181,18.181,0,0,1-6.779-4.761,23.231,23.231,0,0,1-4.542-7.878,32.79,32.79,0,0,1-1.67-10.994,28.553,28.553,0,0,1,2-11.3,22.5,22.5,0,0,1,5.176-7.638,19.813,19.813,0,0,1,7.113-4.35,23.683,23.683,0,0,1,7.815-1.37,28.813,28.813,0,0,1,6.679.651,26.188,26.188,0,0,1,4.876,1.678V-32.4h-7.347V-40l-1.069-.274a14.649,14.649,0,0,0-2.939-.274,13.246,13.246,0,0,0-5.076.959,10.39,10.39,0,0,0-4.041,2.98,14.176,14.176,0,0,0-2.638,5.172,26.689,26.689,0,0,0-.935,7.535,24.059,24.059,0,0,0,.935,6.987,15.7,15.7,0,0,0,2.6,5.206,11.067,11.067,0,0,0,3.974,3.22,11.436,11.436,0,0,0,4.976,1.1,11.507,11.507,0,0,0,3.173-.411,6.362,6.362,0,0,0,1.97-.822v-9.521h-8.483Zm22.642-22.468q1.536-.274,3.306-.514t3.54-.377q1.77-.137,3.44-.206t3.072-.069a32,32,0,0,1,6.445.651,16.96,16.96,0,0,1,5.677,2.226,11.7,11.7,0,0,1,4.008,4.247,13.4,13.4,0,0,1,1.5,6.645,20.222,20.222,0,0,1-.568,5.1,14.215,14.215,0,0,1-1.57,3.8,11.4,11.4,0,0,1-2.438,2.843,21.691,21.691,0,0,1-3.106,2.158L239.159,0H228.606l-9.418-18.769h-5.477V0h-9.15Zm14.026,7.193q-1.4,0-2.772.069a10.148,10.148,0,0,0-2.1.274V-26.03h3.607a10.169,10.169,0,0,0,6.212-1.781q2.4-1.781,2.4-5.891a6.285,6.285,0,0,0-1.87-4.829A7.746,7.746,0,0,0,218.587-40.278Zm48.624,29.66H253.252L250.046,0H240.9L255.99-47.95h9.15L280.169,0h-9.618Zm-11.822-7.535h10.019l-4.742-16.029h-.6Zm30.056-29.318a61.6,61.6,0,0,1,6.178-.856q3.373-.308,6.713-.308a42.547,42.547,0,0,1,6.98.582,17.11,17.11,0,0,1,6.312,2.329A13.375,13.375,0,0,1,316.2-40.86a16.342,16.342,0,0,1,1.77,8.117,16.821,16.821,0,0,1-1.536,7.5,14.842,14.842,0,0,1-4.074,5.138,16.4,16.4,0,0,1-5.777,2.945,24.333,24.333,0,0,1-6.713.925H298.8q-.735,0-1.536-.034t-1.57-.1a11.089,11.089,0,0,1-1.1-.137V0h-9.15Zm13.626,6.918q-1.336,0-2.538.1t-1.937.24V-24.66a7.156,7.156,0,0,0,.8.137q.534.069,1.135.1t1.169.034h.835a18.766,18.766,0,0,0,3.573-.343A8.7,8.7,0,0,0,305.283-26a6.552,6.552,0,0,0,2.237-2.569,9.559,9.559,0,0,0,.835-4.316,7.754,7.754,0,0,0-.8-3.733,6.669,6.669,0,0,0-2.1-2.363,8.08,8.08,0,0,0-2.972-1.233A16.908,16.908,0,0,0,299.071-40.552ZM348.23-20.071H333.135V0h-9.15V-47.95h9.15v19.523H348.23V-47.95h9.15V0h-9.15Zm27.986,2.4L361.121-47.95h10.887l9.017,19.8h.334l9.217-19.8h9.818L385.366-17.742V0h-9.15Z" transform="translate(-11426 -2563) rotate(90)" fill="#094c84"/>
      <path id="Path_152" data-name="Path 152" d="M2.8,13H39.2V25.81H34.02V18.18H23.87V56.82h7.7V62H10.36V56.82h7.7V18.18H7.98v7.63H2.8ZM69.37,56.61h2.66L80.71,27h5.67L76.65,58.43q-.77,2.45-1.575,5.565A26,26,0,0,1,72.8,69.84a14.034,14.034,0,0,1-3.99,4.62,10.685,10.685,0,0,1-6.58,1.89,9.514,9.514,0,0,1-1.925-.21,19.279,19.279,0,0,1-2-.525,12.872,12.872,0,0,1-1.82-.735,4.886,4.886,0,0,1-1.26-.84L57.19,69a5.551,5.551,0,0,0,1.155.7,10.029,10.029,0,0,0,1.61.6q.875.245,1.715.42a7.1,7.1,0,0,0,1.4.175q5.25,0,7.14-8.89H65.52L50.82,27h6.3Zm32.55-17.36q0-.63-.035-1.645t-.1-2.1q-.07-1.085-.175-2.135t-.245-1.82H96.67V27h9.31l.7,4.9h.35a15.791,15.791,0,0,1,4.795-4.095,14.222,14.222,0,0,1,7.1-1.645q7.49,0,11.27,4.13t3.78,13.51a22.975,22.975,0,0,1-1.295,7.945,16.7,16.7,0,0,1-3.675,5.985,16.2,16.2,0,0,1-5.74,3.78,19.994,19.994,0,0,1-7.42,1.33q-1.47,0-2.625-.1t-2.1-.28A16.55,16.55,0,0,1,109.27,62q-.91-.28-1.96-.7V76h-5.39Zm16.1-7.98a10.213,10.213,0,0,0-3.955.77,11.8,11.8,0,0,0-3.29,2.03,11.524,11.524,0,0,0-2.345,2.8,8.235,8.235,0,0,0-1.12,3.08V55.91a12.835,12.835,0,0,0,3.465,1.645,17.665,17.665,0,0,0,5.075.6,11.552,11.552,0,0,0,8.96-3.675q3.36-3.675,3.36-10.745,0-5.95-2.345-9.2T118.02,31.27Zm61.81,26.32a17.617,17.617,0,0,1-2.975,2.1,21.953,21.953,0,0,1-3.745,1.68,27.456,27.456,0,0,1-4.235,1.085,25.8,25.8,0,0,1-4.445.385,19.775,19.775,0,0,1-7.42-1.3,14.289,14.289,0,0,1-5.39-3.71,16.168,16.168,0,0,1-3.29-5.775,23.833,23.833,0,0,1-1.12-7.56,23.237,23.237,0,0,1,1.225-7.84,15.213,15.213,0,0,1,3.535-5.74,15.4,15.4,0,0,1,5.6-3.535,20.935,20.935,0,0,1,7.35-1.225,22.328,22.328,0,0,1,5.81.77,11.474,11.474,0,0,1,5.075,2.9,13.841,13.841,0,0,1,3.395,5.88,27.367,27.367,0,0,1,.84,9.695H152.95q0,6.3,3.4,9.415a12.885,12.885,0,0,0,9.065,3.115,15.666,15.666,0,0,0,3.745-.455A31.288,31.288,0,0,0,172.69,56.4a18.6,18.6,0,0,0,2.975-1.4,12.925,12.925,0,0,0,1.995-1.4ZM165.06,30.78a18.9,18.9,0,0,0-4.375.49,9.973,9.973,0,0,0-3.64,1.645,9.055,9.055,0,0,0-2.59,3.01,12.073,12.073,0,0,0-1.295,4.585h21.77a10.747,10.747,0,0,0-2.975-7.175A9.465,9.465,0,0,0,165.06,30.78Z" transform="translate(-11372 -2575)" fill="#094c84"/>
    </g>
  </g>
</svg>
