<svg xmlns="http://www.w3.org/2000/svg" xmlns:xlink="http://www.w3.org/1999/xlink" width="302" height="411" viewBox="0 0 302 411">
  <defs>
    <clipPath id="clip-Roboto2">
      <rect width="302" height="411"/>
    </clipPath>
  </defs>
  <g id="Roboto2" clip-path="url(#clip-Roboto2)">
    <g id="Group_68" data-name="Group 68" transform="translate(11815 3709)">
      <path id="Path_198" data-name="Path 198" d="M37.916.6V11.783H31.373l-.351-4.7H23.194V36.645l4.557.864V42.55H10.107V37.509l4.557-.864V7.087h-7.8l-.351,4.7H0V.6Zm18.753,5.07-3.476.49,6.6,13.771h.175l6.6-13.771-3.447-.49V.6h16.1v5.07L75.6,6.251,64.031,27.8v8.844l4.557.864V42.55H50.973V37.509l4.557-.864V27.368L44.167,6.251l-3.593-.576V.6h16.1ZM102.239.6q7.3,0,11.524,3.7A12.277,12.277,0,0,1,117.983,14a12.18,12.18,0,0,1-4.221,9.68q-4.221,3.659-11.524,3.659H95.053v9.305l4.557.864V42.55H82V37.509l4.528-.864V6.54L82,5.675V.6h20.243ZM95.053,20.857h7.186a7.1,7.1,0,0,0,5.389-1.916,6.791,6.791,0,0,0,1.826-4.883,7.073,7.073,0,0,0-1.826-5,6.985,6.985,0,0,0-5.389-1.973H95.053Zm64.527,1.037q0,9.219-5.346,15.24a19.184,19.184,0,0,1-27.911,0q-5.3-6.021-5.3-15.24v-.634q0-9.161,5.287-15.211A17.573,17.573,0,0,1,140.213,0,17.825,17.825,0,0,1,154.22,6.05q5.36,6.05,5.36,15.211Zm-8.5-.691q0-6.511-2.746-10.573a9.167,9.167,0,0,0-8.121-4.062,8.934,8.934,0,0,0-8.018,4.033q-2.644,4.033-2.644,10.6v.691q0,6.626,2.673,10.674a8.968,8.968,0,0,0,8.018,4.048,9.132,9.132,0,0,0,8.121-4.048q2.717-4.048,2.717-10.674Zm47.176,16.68a18.952,18.952,0,0,1-6.047,3.644,26.7,26.7,0,0,1-10.049,1.628,18.464,18.464,0,0,1-14.021-5.69q-5.4-5.69-5.4-14.793v-1.44q0-9.42,5.331-15.326A17.869,17.869,0,0,1,181.985,0a25.519,25.519,0,0,1,9.128,1.57,19.725,19.725,0,0,1,6.879,4.249V14.26h-6.31l-1.2-5.618a8.779,8.779,0,0,0-3.082-1.57,14.918,14.918,0,0,0-4.4-.591,10.282,10.282,0,0,0-8.676,4.062q-3.1,4.062-3.1,10.63v1.5q0,6.4,3.038,10.213t8.763,3.817a16.36,16.36,0,0,0,4.163-.432,9.229,9.229,0,0,0,2.5-1.008V28.146l-6.076-.461V21.779h14.635ZM221.624.6q7.244,0,11.363,3.27a10.894,10.894,0,0,1,4.119,9.031,9.007,9.007,0,0,1-1.723,5.5,12.03,12.03,0,0,1-5.054,3.774,9.179,9.179,0,0,1,5.419,3.644,11.4,11.4,0,0,1,1.65,6.323v2.132a3.6,3.6,0,0,0,.555,2.146,2.487,2.487,0,0,0,1.84.907l1.052.144v5.07h-4.411q-4.177,0-5.871-2.218a9.184,9.184,0,0,1-1.694-5.733V32.208a6.694,6.694,0,0,0-1.65-4.8,6.376,6.376,0,0,0-4.659-1.829h-6.981V36.645l4.557.864V42.55H202.52V37.509l4.528-.864V6.54l-4.528-.864V.6h19.1Zm-6.047,18.5h5.9a8.147,8.147,0,0,0,5.346-1.5,5.329,5.329,0,0,0,1.782-4.321,5.938,5.938,0,0,0-1.767-4.509,7.283,7.283,0,0,0-5.214-1.685h-6.047Zm27.634,18.409,3.038-.432L259.19.6h8.734l12.853,36.472,3.038.432V42.55H269.326V37.509l2.95-.519-1.87-5.762H256.619l-1.87,5.762,2.95.519V42.55H243.211Zm15.423-12.474h9.757L263.6,10.256h-.175ZM306.862.6q7.3,0,11.524,3.7A12.277,12.277,0,0,1,322.607,14a12.18,12.18,0,0,1-4.221,9.68q-4.221,3.659-11.524,3.659h-7.186v9.305l4.557.864V42.55H286.619V37.509l4.528-.864V6.54l-4.528-.864V.6h20.243Zm-7.186,20.252h7.186a7.1,7.1,0,0,0,5.389-1.916,6.792,6.792,0,0,0,1.826-4.883,7.073,7.073,0,0,0-1.826-5,6.985,6.985,0,0,0-5.389-1.973h-7.186ZM325.323,5.675V.6h17.614v5.07l-4.557.864v12.1h17.351V6.54l-4.557-.864V.6H368.79v5.07l-4.557.864v30.1l4.557.864V42.55H351.175V37.509l4.557-.864V25.121H338.381V36.645l4.557.864V42.55H325.323V37.509l4.528-.864V6.54Zm62.278,0-3.476.49,6.6,13.771h.175l6.6-13.771-3.447-.49V.6h16.1v5.07l-3.622.576L394.963,27.8v8.844l4.557.864V42.55H381.905V37.509l4.557-.864V27.368L375.1,6.251l-3.593-.576V.6h16.1Z" transform="translate(-11771.449 -3702.848) rotate(90)" fill="#094c84"/>
      <path id="Path_207" data-name="Path 207" d="M24.395-18.848H20.156l-.586-3.789a5.945,5.945,0,0,0-2.119-1.328,8.451,8.451,0,0,0-3.018-.488,6.69,6.69,0,0,0-5.713,2.7,11.5,11.5,0,0,0-2,7.031v1A11.626,11.626,0,0,0,8.711-6.68a6.568,6.568,0,0,0,5.625,2.715,9.267,9.267,0,0,0,3.076-.488A5.134,5.134,0,0,0,19.57-5.781l.586-3.789h4.238v5.625A12.23,12.23,0,0,1,20.01-.771,14.571,14.571,0,0,1,14.043.41,12.174,12.174,0,0,1,4.668-3.555,14.43,14.43,0,0,1,1.016-13.73v-.957A14.52,14.52,0,0,1,4.648-24.863a12.13,12.13,0,0,1,9.395-3.984A14.3,14.3,0,0,1,20-27.646a12.771,12.771,0,0,1,4.395,3.174ZM27.012-25v-3.437H38.789V-25l-3.047.586v8.2h11.6v-8.2L44.3-25v-3.437H56.074V-25l-3.047.586V-4l3.047.586V0H44.3V-3.418L47.344-4v-7.812h-11.6V-4l3.047.586V0H27.012V-3.418L30.039-4v-20.41ZM57.988-3.418l2.031-.293,8.652-24.727h5.84L83.105-3.711l2.031.293V0H75.449V-3.418l1.973-.352-1.25-3.906H66.953L65.7-3.77l1.973.352V0H57.988ZM68.3-11.875h6.523l-3.2-10.02H71.5ZM99.785-28.437q4.844,0,7.6,2.217a7.428,7.428,0,0,1,2.754,6.123,6.165,6.165,0,0,1-1.152,3.73,8.056,8.056,0,0,1-3.379,2.559,6.137,6.137,0,0,1,3.623,2.471,7.815,7.815,0,0,1,1.1,4.287v1.445A2.466,2.466,0,0,0,110.7-4.15a1.656,1.656,0,0,0,1.23.615l.7.1V0h-2.949q-2.793,0-3.926-1.5a6.287,6.287,0,0,1-1.133-3.887V-7.012a4.577,4.577,0,0,0-1.1-3.252,4.233,4.233,0,0,0-3.115-1.24H95.742V-4l3.047.586V0H87.012V-3.418L90.039-4v-20.41L87.012-25v-3.437H99.785ZM95.742-15.9h3.945a5.394,5.394,0,0,0,3.574-1.016,3.637,3.637,0,0,0,1.191-2.93,4.056,4.056,0,0,0-1.182-3.057,4.827,4.827,0,0,0-3.486-1.143H95.742Zm18.477,12.48,2.031-.293L124.9-28.437h5.84l8.594,24.727,2.031.293V0H131.68V-3.418l1.973-.352L132.4-7.676h-9.219l-1.25,3.906,1.973.352V0h-9.687Zm10.313-8.457h6.523l-3.2-10.02h-.117Zm40.84-6.973h-4.238l-.586-3.789a5.945,5.945,0,0,0-2.119-1.328,8.451,8.451,0,0,0-3.018-.488,6.69,6.69,0,0,0-5.713,2.7,11.5,11.5,0,0,0-2,7.031v1a11.626,11.626,0,0,0,1.992,7.051,6.568,6.568,0,0,0,5.625,2.715,9.267,9.267,0,0,0,3.076-.488,5.134,5.134,0,0,0,2.158-1.328l.586-3.789h4.238v5.625a12.23,12.23,0,0,1-4.385,3.174A14.571,14.571,0,0,1,155.02.41a12.174,12.174,0,0,1-9.375-3.965,14.43,14.43,0,0,1-3.652-10.176v-.957a14.52,14.52,0,0,1,3.633-10.176,12.13,12.13,0,0,1,9.395-3.984,14.3,14.3,0,0,1,5.957,1.2,12.771,12.771,0,0,1,4.395,3.174Zm27.09-9.59v7.578h-4.375l-.234-3.184h-5.234V-4l3.047.586V0h-11.8V-3.418L176.914-4V-24.043H171.7l-.234,3.184h-4.355v-7.578ZM212.676-12.5h-9.629v8.125h9.18l.254-3.4h4.336V0h-22.5V-3.418L197.344-4v-20.41L194.316-25v-3.437h22.461v7.793H212.4l-.254-3.4h-9.1v7.148h9.629Zm19.961-15.937q4.844,0,7.6,2.217a7.428,7.428,0,0,1,2.754,6.123,6.165,6.165,0,0,1-1.152,3.73,8.056,8.056,0,0,1-3.379,2.559,6.137,6.137,0,0,1,3.623,2.471,7.815,7.815,0,0,1,1.1,4.287v1.445a2.466,2.466,0,0,0,.371,1.455,1.656,1.656,0,0,0,1.23.615l.7.1V0h-2.949q-2.793,0-3.926-1.5a6.288,6.288,0,0,1-1.133-3.887V-7.012a4.577,4.577,0,0,0-1.1-3.252,4.233,4.233,0,0,0-3.115-1.24h-4.668V-4l3.047.586V0H219.863V-3.418L222.891-4v-20.41L219.863-25v-3.437h12.773ZM228.594-15.9h3.945a5.394,5.394,0,0,0,3.574-1.016,3.637,3.637,0,0,0,1.191-2.93,4.056,4.056,0,0,0-1.182-3.057,4.827,4.827,0,0,0-3.486-1.143h-4.043Z" transform="translate(-11758.121 -3415.156)" fill="#2371aa"/>
      <path id="Path_220" data-name="Path 220" d="M43.945-40.078h-5.82L36.68-48.2a14.139,14.139,0,0,0-4.687-2.461,21.5,21.5,0,0,0-6.8-.977q-6.133,0-9.414,2.6A8.238,8.238,0,0,0,12.5-42.266a7.455,7.455,0,0,0,3.34,6.191q3.34,2.48,10.8,4.355,8.984,2.227,13.652,6.563a14.071,14.071,0,0,1,4.668,10.742A13.13,13.13,0,0,1,39.355-3.359Q33.75.82,24.688.82a29.794,29.794,0,0,1-11.66-2.148,23.482,23.482,0,0,1-8.3-5.625V-17.539h5.781l1.484,8.164A18.714,18.714,0,0,0,17.3-6.367,20.814,20.814,0,0,0,24.688-5.2q5.82,0,9.2-2.461a7.833,7.833,0,0,0,3.379-6.68,8.448,8.448,0,0,0-2.93-6.543q-2.93-2.637-10.352-4.434-9.023-2.148-14.1-6.328A13.053,13.053,0,0,1,4.8-42.148a13.576,13.576,0,0,1,5.664-11.113Q16.133-57.7,25.2-57.7a27.926,27.926,0,0,1,10.879,2.051,24.546,24.546,0,0,1,7.871,4.98Zm53.477-16.8V-44.3H90.859l-.586-6.523H77.656v44.8l6.367,1.094V0H63.594V-4.922l6.367-1.094v-44.8H57.3L56.758-44.3h-6.6V-56.875Zm23.75,4.961-6.133.742,11.914,23.2,11.914-23.2-6.094-.742v-4.961H152.3v4.961l-4.8.742L130.625-20V-6.016l6.367,1.094V0H116.6V-4.922l6.367-1.094v-14.57L106.406-51.172l-4.766-.742v-4.961h19.531ZM157.578,0V-4.922l6.367-1.094v-44.8l-6.367-1.094v-4.961h20.43v4.961l-6.367,1.094v44.8h19.766l.586-6.523h6.563V0Zm46.836,0V-4.922l6.367-1.094v-44.8l-6.367-1.094v-4.961h43.672V-43.2h-6.6l-.625-7.617H218.477v18.4h21.758v6.055H218.477V-6.016h22.852l.625-7.617h6.563V0Z" transform="translate(-11761.121 -3646)" fill="#24648d"/>
      <path id="Path_199" data-name="Path 199" d="M2.1-3.722l4.815-.827V-38.433L2.1-39.26v-3.752H35.331v10.339H30.368l-.473-5.76H12.732V-23.6H29.364v4.579H12.732V-4.549l4.815.827V0H2.1ZM79.566-21.181q0,9.394-5.391,15.6A17.632,17.632,0,0,1,60.216.62a16.818,16.818,0,0,1-13.53-6.2q-5.2-6.2-5.2-15.6v-.62q0-9.365,5.2-15.6a16.786,16.786,0,0,1,13.53-6.233A17.6,17.6,0,0,1,74.175-37.4q5.391,6.233,5.391,15.6Zm-5.82-.679q0-7.5-3.589-12.245a11.77,11.77,0,0,0-9.941-4.741,11.031,11.031,0,0,0-9.5,4.756q-3.412,4.756-3.412,12.23v.679q0,7.563,3.412,12.3a11.042,11.042,0,0,0,9.5,4.741A11.754,11.754,0,0,0,70.2-8.862q3.545-4.727,3.545-12.319Zm55.342-21.151v3.752l-4.815.827V0h-5.82L97.775-33.2l-.177.059v28.6l4.815.827V0H86.963V-3.722l4.815-.827V-38.433l-4.815-.827v-3.752H97.6L118.276-9.837l.177-.059V-38.433l-4.815-.827v-3.752h15.45Zm41.724,0V-33.5h-4.963l-.443-4.933h-9.542V-4.549l4.815.827V0H145.23V-3.722l4.815-.827V-38.433h-9.571L140.06-33.5h-4.992v-9.512Z" transform="translate(-11759.624 -3293.349)" fill="#2d7198"/>
      <path id="Path_208" data-name="Path 208" d="M10.518-9.98H9.99v-1.992a3.971,3.971,0,0,0-1.675-1.436A5.847,5.847,0,0,0,5.83-13.9a4.915,4.915,0,0,0-3.062.864,2.551,2.551,0,0,0-1.128,2.075,2.541,2.541,0,0,0,.933,2.012A8.763,8.763,0,0,0,5.947-7.52,10.528,10.528,0,0,1,9.517-5.991a3.013,3.013,0,0,1,1.206,2.563A3.085,3.085,0,0,1,9.346-.767,5.833,5.833,0,0,1,5.9.205,7.227,7.227,0,0,1,3.159-.327,5.138,5.138,0,0,1,.977-1.992V-4.336H1.5v2.119A4.34,4.34,0,0,0,3.447-.771,6.841,6.841,0,0,0,5.9-.322a5.183,5.183,0,0,0,3.081-.859,2.623,2.623,0,0,0,1.206-2.227A2.62,2.62,0,0,0,9.2-5.547,9.678,9.678,0,0,0,5.8-7.012,10.961,10.961,0,0,1,2.241-8.5a2.843,2.843,0,0,1-1.128-2.437,2.966,2.966,0,0,1,1.328-2.539,5.7,5.7,0,0,1,3.389-.947,6.622,6.622,0,0,1,2.8.552,4.321,4.321,0,0,1,1.89,1.655Zm7.422-4.238a4.806,4.806,0,0,1,3.4,1.108,3.83,3.83,0,0,1,1.191,2.944,3.847,3.847,0,0,1-1.187,2.959,4.816,4.816,0,0,1-3.4,1.1H14.512V-.527H16.1V0H12.393V-.527h1.592V-13.691H12.393v-.527h5.547ZM14.512-6.631h3.428a4.166,4.166,0,0,0,3.042-1.006A3.381,3.381,0,0,0,22-10.146a3.42,3.42,0,0,0-1.016-2.544,4.176,4.176,0,0,0-3.047-1H14.512Zm7.48,6.1h1.045l5.117-13.691H28.8L33.926-.527h1.045V0H31.953V-.527h1.4l-1.4-3.721H25L23.613-.527h1.4V0H21.992Zm3.2-4.248h6.563l-2.979-8.008-.273-.8h-.059l-.264.8ZM47.314-9.687h-.537v-2.285a4.6,4.6,0,0,0-1.748-1.4,5.709,5.709,0,0,0-2.49-.522,5.16,5.16,0,0,0-4.111,1.846,7.169,7.169,0,0,0-1.582,4.834v.2a7.232,7.232,0,0,0,1.572,4.849A5.043,5.043,0,0,0,42.441-.322,6.059,6.059,0,0,0,44.99-.845a4.454,4.454,0,0,0,1.787-1.4V-4.531h.537v2.48A4.843,4.843,0,0,1,45.3-.4a6.689,6.689,0,0,1-2.861.605A5.53,5.53,0,0,1,38.027-1.8a7.772,7.772,0,0,1-1.709-5.22V-7.2a7.739,7.739,0,0,1,1.719-5.225,5.648,5.648,0,0,1,4.5-2,6.355,6.355,0,0,1,2.8.605,4.972,4.972,0,0,1,1.978,1.65ZM49.15,0V-.527h1.592V-13.691H49.15v-.527H59.395v2.861h-.527v-2.334h-7.6v6.016h6.152v.527H51.27V-.527h7.6V-2.861h.527V0Z" transform="translate(-11756.788 -3505.378)" fill="#166183"/>
      <path id="Path_204" data-name="Path 204" d="M20.479,0h-.945L6.46-29.795l-.132.044V-1.187H9.91V0H1.56V-1.187H5.142V-30.806H1.56v-1.187H6.833l13.1,30.1h.132l13.14-30.1h5.317v1.187H34.937V-1.187h3.582V0h-8.35V-1.187H33.75V-29.9l-.132-.044ZM41.287-1.187h2.351L55.151-31.992H56.6L68.137-1.187h2.351V0H63.7V-1.187h3.142L63.7-9.558H48.054l-3.12,8.372h3.142V0h-6.79Zm7.207-9.558H63.259l-6.7-18.018-.615-1.8h-.132l-.593,1.8ZM86.66-31.97q5.054,0,7.778,2.186A7.7,7.7,0,0,1,97.163-23.4a7.786,7.786,0,0,1-1.725,4.911,7.929,7.929,0,0,1-4.713,2.867A7.587,7.587,0,0,1,95.669-13.1a7.851,7.851,0,0,1,1.494,4.944v3.23a4.924,4.924,0,0,0,.648,2.813,2.2,2.2,0,0,0,1.923.923h1.121V0H99.734A3.085,3.085,0,0,1,96.79-1.439a7.074,7.074,0,0,1-.813-3.527V-8.108a6.194,6.194,0,0,0-2.23-5.076,9.81,9.81,0,0,0-6.361-1.824H78.75V-1.165h3.582V.022h-8.35V-1.165h3.582V-30.784H73.982V-31.97H86.66ZM78.75-16.194h7.69q4.9,0,7.218-2.065A6.606,6.606,0,0,0,95.977-23.4a6.653,6.653,0,0,0-2.34-5.482q-2.34-1.9-6.976-1.9H78.75ZM129.814-3.428A9.256,9.256,0,0,1,125.936-.78,17.722,17.722,0,0,1,118.894.461a12.251,12.251,0,0,1-9.866-4.515q-3.779-4.515-3.779-11.766v-.835q0-7.009,3.8-11.4a12.481,12.481,0,0,1,9.91-4.395,15.7,15.7,0,0,1,6.471,1.263,10.848,10.848,0,0,1,4.493,3.593v5.361h-1.187l.022-4.922a9.959,9.959,0,0,0-4-3.032,14.484,14.484,0,0,0-5.8-1.077,11.314,11.314,0,0,0-9.086,4.065,15.7,15.7,0,0,0-3.439,10.5v.879q0,6.7,3.417,10.9a11.08,11.08,0,0,0,9.042,4.2,16.968,16.968,0,0,0,6.185-1.033,8.2,8.2,0,0,0,3.549-2.219v-8.437h-6.921v-1.208h8.108Zm6.812-27.378v-1.187h8.35v1.187h-3.582V-1.187h3.582V0h-8.35V-1.187h3.582V-30.806Zm42.517-1.187v1.187h-3.582V0h-1.187L153.853-29.795l-.132.044V-1.187H157.3V0h-8.372V-1.187h3.582V-30.806h-3.582v-1.187h4.79L174.243-2.263l.132-.044v-28.5h-3.582v-1.187h8.35Z" transform="translate(-11758.594 -3359.338)" fill="#225576"/>
      <path id="Path_209" data-name="Path 209" d="M22.566-46.211A19.067,19.067,0,0,1,36.531-40.8a18.654,18.654,0,0,1,5.491,13.885v7.649A18.588,18.588,0,0,1,36.531-5.38,19.128,19.128,0,0,1,22.566,0H1.777V-5.554L6.7-6.506V-39.673l-4.919-.952v-5.586H22.566Zm-6.6,7.141v31.96H22.09A9.645,9.645,0,0,0,29.9-10.474a13.213,13.213,0,0,0,2.825-8.792v-7.712A13.114,13.114,0,0,0,29.9-35.706,9.645,9.645,0,0,0,22.09-39.07Zm60.43,18.757H60.747v13.2H75.664l.413-5.522h7.046V0H46.56V-5.554l4.919-.952V-39.673l-4.919-.952v-5.586h36.5v12.664H75.95l-.413-5.522H60.747v11.616H76.394Zm46.782-11.14h-6.951L115.02-37.8a12.286,12.286,0,0,0-3.523-1.333,20.49,20.49,0,0,0-4.919-.571,9.462,9.462,0,0,0-5.887,1.6,5,5,0,0,0-2.079,4.142,4.531,4.531,0,0,0,2.174,3.856,30.068,30.068,0,0,0,7.506,3.19q7.649,2.126,11.6,5.618a11.651,11.651,0,0,1,3.951,9.172,10.972,10.972,0,0,1-4.7,9.363Q114.448.667,106.768.667a26.842,26.842,0,0,1-9.918-1.746A20.43,20.43,0,0,1,89.47-5.9v-9.648h7.173l.984,6.57a11.23,11.23,0,0,0,3.793,1.888,17.95,17.95,0,0,0,5.348.746A9.241,9.241,0,0,0,112.56-7.9a5.014,5.014,0,0,0,1.984-4.158,5.364,5.364,0,0,0-1.888-4.285,19.1,19.1,0,0,0-6.617-3.047q-8.22-2.38-12.441-5.649a10.7,10.7,0,0,1-4.221-8.95,11,11,0,0,1,4.761-9.188A19.842,19.842,0,0,1,106.1-46.846a27.835,27.835,0,0,1,9.712,1.619,22.421,22.421,0,0,1,7.363,4.316Zm4.285-9.172v-5.586H146.6v5.586l-4.951.952V-6.506l4.951.952V0H127.461V-5.554l4.951-.952V-39.673ZM188.43-5.142a20.544,20.544,0,0,1-6.57,4.015A28.65,28.65,0,0,1,170.942.667q-9.363,0-15.234-6.268t-5.872-16.3v-1.587q0-10.378,5.792-16.885a19.29,19.29,0,0,1,15.123-6.506,27.384,27.384,0,0,1,9.918,1.73,21.388,21.388,0,0,1,7.474,4.681v9.3h-6.855l-1.3-6.189a9.492,9.492,0,0,0-3.348-1.73,16,16,0,0,0-4.777-.651,11.114,11.114,0,0,0-9.426,4.475q-3.364,4.475-3.364,11.711v1.65q0,7.046,3.3,11.251t9.521,4.205a17.542,17.542,0,0,0,4.523-.476,9.95,9.95,0,0,0,2.714-1.111v-7.839l-6.6-.508v-6.506h15.9Zm51.86-41.069v5.586l-4.951.952V0H226.1L207.441-31.1l-.19.032V-6.506l4.951.952V0H193.064V-5.554l4.919-.952V-39.673l-4.919-.952v-5.586h14.187l18.662,31.1.19-.032V-39.673l-4.951-.952v-5.586h19.138Z" transform="translate(-11762.121 -3537.139)" fill="#5f88b1"/>
      <path id="Path_221" data-name="Path 221" d="M5.479-.527H7.07V-13.691H5.479v-.527H9.189v.527H7.6v6.23H9.922l5.518-6.182-.02-.049H13.779v-.527H17.3v.527H16.182l-5.82,6.563,6.24,6.6h1.152V0H14.229V-.527H15.82l.029-.059L9.775-6.943H7.6V-.527H9.189V0H5.479ZM25.033,0V-.527h1.592V-13.691H25.033v-.527H35.277v2.861H34.75v-2.334h-7.6v6.016H33.3v.527H27.152V-.527h7.6V-2.861h.527V0ZM49.07-14.209a5.4,5.4,0,0,1,3.457.972A3.422,3.422,0,0,1,53.738-10.4a3.46,3.46,0,0,1-.767,2.183,3.524,3.524,0,0,1-2.095,1.274,3.372,3.372,0,0,1,2.2,1.123,3.489,3.489,0,0,1,.664,2.2v1.436a2.188,2.188,0,0,0,.288,1.25.976.976,0,0,0,.854.41h.5V0h-.5a1.371,1.371,0,0,1-1.309-.64,3.144,3.144,0,0,1-.361-1.567V-3.6a2.753,2.753,0,0,0-.991-2.256,4.36,4.36,0,0,0-2.827-.811H45.555V-.518h1.592V.01H43.436V-.518h1.592V-13.682H43.436v-.527H49.07ZM45.555-7.2h3.418a4.725,4.725,0,0,0,3.208-.918,2.936,2.936,0,0,0,1.03-2.285,2.957,2.957,0,0,0-1.04-2.437,4.839,4.839,0,0,0-3.1-.845H45.555Zm30.629-7.021v.527H74.592V0h-.527L64.943-13.242l-.059.02v12.7h1.592V0H62.756V-.527h1.592V-13.691H62.756v-.527h2.129L74.006-1.006l.059-.02V-13.691H72.473v-.527h3.711Zm7.758.527v-.527h3.711v.527H86.061V-.527h1.592V0H83.941V-.527h1.592V-13.691Zm24.9-.527v.527h-1.592V0h-.527L97.6-13.242l-.059.02v12.7h1.592V0H95.41V-.527H97V-13.691H95.41v-.527h2.129L106.66-1.006l.059-.02V-13.691h-1.592v-.527h3.711Zm18.881,12.7A4.114,4.114,0,0,1,126-.347a7.876,7.876,0,0,1-3.13.552A5.445,5.445,0,0,1,118.48-1.8a7.875,7.875,0,0,1-1.68-5.229V-7.4a7.471,7.471,0,0,1,1.689-5.068,5.547,5.547,0,0,1,4.4-1.953,6.975,6.975,0,0,1,2.876.562,4.821,4.821,0,0,1,2,1.6v2.383h-.527l.01-2.187a4.426,4.426,0,0,0-1.777-1.348,6.437,6.437,0,0,0-2.578-.479,5.028,5.028,0,0,0-4.038,1.807,6.979,6.979,0,0,0-1.528,4.668v.391a7.428,7.428,0,0,0,1.519,4.844,4.925,4.925,0,0,0,4.019,1.865,7.541,7.541,0,0,0,2.749-.459,3.643,3.643,0,0,0,1.577-.986v-3.75h-3.076v-.537h3.6Z" transform="translate(-11761.715 -3608.854)" fill="#0099d1"/>
      <path id="Path_210" data-name="Path 210" d="M10.84-21.328a7.518,7.518,0,0,1,5.31,1.758,6.014,6.014,0,0,1,1.9,4.629,6,6,0,0,1-1.9,4.644,7.558,7.558,0,0,1-5.31,1.743H6.313v6.3l2.388.41V0H1.04V-1.846l2.388-.41v-16.8l-2.388-.41v-1.86h9.8ZM6.313-10.811H10.84a4.208,4.208,0,0,0,3.245-1.165,4.159,4.159,0,0,0,1.077-2.937,4.238,4.238,0,0,0-1.077-2.959,4.164,4.164,0,0,0-3.245-1.187H6.313Zm9.8,8.965,1.582-.22,7.456-19.263h2.476L34.951-2.065l1.567.22V0H30.4V-1.846l1.611-.278L30.6-6.05h-8.54L20.61-2.124l1.611.278V0H16.113Zm6.841-6.621h6.768l-3.311-9.155h-.088ZM47.681-21.313a8.163,8.163,0,0,1,5.347,1.545,5.384,5.384,0,0,1,1.86,4.387,4.6,4.6,0,0,1-.864,2.754,5.73,5.73,0,0,1-2.476,1.89,4.356,4.356,0,0,1,2.512,1.86A6.107,6.107,0,0,1,54.829-5.7v1.714a3.222,3.222,0,0,0,.249,1.45,1.052,1.052,0,0,0,.82.557l.7.088V0H55.049a2.576,2.576,0,0,1-2.4-1.172,5.383,5.383,0,0,1-.71-2.842V-5.669a3.875,3.875,0,0,0-1.011-2.8,3.578,3.578,0,0,0-2.71-1.055H43.594v7.266l2.388.41V0H38.32V-1.846l2.388-.41v-16.8l-2.388-.41v-1.846h9.36Zm-4.087,9.521h3.794a5.431,5.431,0,0,0,3.516-.923,3.321,3.321,0,0,0,1.1-2.7,3.465,3.465,0,0,0-1.055-2.666,4.666,4.666,0,0,0-3.267-.981H43.594ZM58.389-1.846l1.582-.22,7.456-19.263H69.9L77.227-2.065l1.567.22V0H72.671V-1.846l1.611-.278L72.876-6.05h-8.54l-1.45,3.926,1.611.278V0H58.389Zm6.841-6.621H72l-3.311-9.155H68.6ZM96.4-2.417A9.409,9.409,0,0,1,93.633-.564a11.133,11.133,0,0,1-4.761.872,8.959,8.959,0,0,1-6.98-3,11.205,11.205,0,0,1-2.7-7.793v-.352a11.269,11.269,0,0,1,2.673-7.808,9.075,9.075,0,0,1,7.112-2.988,10.874,10.874,0,0,1,4.167.74,9.269,9.269,0,0,1,3.025,1.956v3.867H94.146l-.7-2.944a6.1,6.1,0,0,0-1.736-.967,6.972,6.972,0,0,0-2.439-.381A6.388,6.388,0,0,0,83.943-17a9.6,9.6,0,0,0-1.868,6.13v.381a9.882,9.882,0,0,0,1.809,6.182,5.938,5.938,0,0,0,4.988,2.358,9.316,9.316,0,0,0,2.856-.366,7.729,7.729,0,0,0,1.787-.806V-7.793l-3.5-.146v-2.124H96.4Zm12.7-18.9a8.163,8.163,0,0,1,5.347,1.545,5.384,5.384,0,0,1,1.86,4.387,4.6,4.6,0,0,1-.864,2.754,5.73,5.73,0,0,1-2.476,1.89,4.356,4.356,0,0,1,2.512,1.86A6.107,6.107,0,0,1,116.25-5.7v1.714a3.222,3.222,0,0,0,.249,1.45,1.052,1.052,0,0,0,.82.557l.7.088V0H116.47a2.576,2.576,0,0,1-2.4-1.172,5.383,5.383,0,0,1-.71-2.842V-5.669a3.875,3.875,0,0,0-1.011-2.8,3.578,3.578,0,0,0-2.71-1.055h-4.629v7.266l2.388.41V0H99.741V-1.846l2.388-.41v-16.8l-2.388-.41v-1.846h9.36Zm-4.087,9.521h3.794a5.431,5.431,0,0,0,3.516-.923,3.321,3.321,0,0,0,1.1-2.7,3.465,3.465,0,0,0-1.055-2.666,4.666,4.666,0,0,0-3.267-.981h-4.087ZM119.81-1.846l1.582-.22,7.456-19.263h2.476l7.324,19.263,1.567.22V0h-6.123V-1.846l1.611-.278L134.3-6.05h-8.54l-1.45,3.926,1.611.278V0H119.81Zm6.841-6.621h6.768l-3.311-9.155h-.088Zm25.166-12.861a7.518,7.518,0,0,1,5.31,1.758,6.014,6.014,0,0,1,1.9,4.629,6,6,0,0,1-1.9,4.644,7.558,7.558,0,0,1-5.31,1.743H147.29v6.3l2.388.41V0h-7.661V-1.846l2.388-.41v-16.8l-2.388-.41v-1.86h9.8ZM147.29-10.811h4.526a4.208,4.208,0,0,0,3.245-1.165,4.159,4.159,0,0,0,1.077-2.937,4.238,4.238,0,0,0-1.077-2.959,4.164,4.164,0,0,0-3.245-1.187H147.29Zm13.784-8.657v-1.86h7.661v1.86l-2.388.41v7.368h10.342v-7.368l-2.388-.41v-1.86h7.661v1.86l-2.388.41v16.8l2.388.41V0H174.3V-1.846l2.388-.41V-9.419H166.348v7.163l2.388.41V0h-7.661V-1.846l2.388-.41v-16.8Z" transform="translate(-11758.586 -3464.845)" fill="#258abf"/>
    </g>
  </g>
</svg>
