<svg id="Layer_1" data-name="Layer 1" xmlns="http://www.w3.org/2000/svg" viewBox="0 0 285.28 384.01"><title>Roboto</title><g id="Group_146" data-name="Group 146"><path id="Path_198" data-name="Path 198" d="M40.32,36.24H29.73V30.12l4.45-.33V22.48h-28l-.82,4.26H.58V10.25H5.36l.82,4.26h28V7.22L29.73,6.9V.81H40.32Zm-4.8,17.52-.47-3.25L22,56.68v.16l13,6.17.47-3.22h4.8v15h-4.8L35,71.44,14.56,60.63H6.18l-.82,4.26H.58V48.43H5.36l.82,4.26H15L35,42.08l.54-3.36h4.81v15Zm4.8,42.57q0,6.83-3.51,10.77A11.66,11.66,0,0,1,27.63,111a11.58,11.58,0,0,1-9.17-3.94Q15,103.16,15,96.33V89.62H6.18l-.82,4.26H.58V77.42H5.36l.82,4.23H34.69l.82-4.23h4.81ZM21.13,89.62v6.71a6.63,6.63,0,0,0,1.82,5,6.52,6.52,0,0,0,4.63,1.7,6.8,6.8,0,0,0,4.73-1.7,6.52,6.52,0,0,0,1.87-5V89.62Zm-1,60.28q-8.73,0-14.44-5a17.75,17.75,0,0,1-1-25.09c.31-.34.64-.67,1-1q5.7-5,14.44-5h.6q8.68,0,14.41,4.94a16.3,16.3,0,0,1,5.73,13,16.56,16.56,0,0,1-5.73,13.09q-5.73,5-14.41,5Zm.66-7.94a17.71,17.71,0,0,0,10-2.56,8.55,8.55,0,0,0,3.85-7.59,8.3,8.3,0,0,0-3.82-7.49q-3.83-2.47-10-2.47h-.66q-6.27,0-10.11,2.5a8.32,8.32,0,0,0-3.83,7.49A8.51,8.51,0,0,0,10,139.43Q13.88,142,20.15,142ZM5,186a17.78,17.78,0,0,1-3.46-5.65A24.84,24.84,0,0,1,0,171,17.14,17.14,0,0,1,5.4,157.9q5.4-5,14-5.05h1.36q8.92,0,14.52,5a16.59,16.59,0,0,1,5.59,13,23.61,23.61,0,0,1-1.48,8.53,18.45,18.45,0,0,1-4,6.43h-8v-5.9l5.32-1.12a8,8,0,0,0,1.49-2.87,13.6,13.6,0,0,0,.56-4.11,9.53,9.53,0,0,0-3.85-8.1q-3.84-2.9-10.07-2.9H19.41q-6.06,0-9.67,2.84t-3.62,8.19a15.41,15.41,0,0,0,.41,3.89,8.49,8.49,0,0,0,1,2.33h6.74l.44-5.67h5.59V186Zm35.31,21.83q0,6.76-3.1,10.62a10.4,10.4,0,0,1-8.56,3.85,8.69,8.69,0,0,1-5.21-1.61A11.32,11.32,0,0,1,19.88,216a8.6,8.6,0,0,1-3.46,5.06,10.93,10.93,0,0,1-6,1.54h-2a3.47,3.47,0,0,0-2,.52,2.31,2.31,0,0,0-.86,1.72l-.14,1H.58v-4.12q0-3.9,2.1-5.49a8.86,8.86,0,0,1,5.44-1.58h2.26a6.41,6.41,0,0,0,4.55-1.54,6,6,0,0,0,1.73-4.35v-6.53H6.18l-.82,4.26H.58V190H5.36l.82,4.23H34.69l.82-4.23h4.81v17.85ZM22.8,202.22v5.52a7.54,7.54,0,0,0,1.42,5,5.12,5.12,0,0,0,4.09,1.67,5.67,5.67,0,0,0,4.27-1.66,6.71,6.71,0,0,0,1.6-4.87v-5.65ZM5.36,228l.41,2.84L40.32,243v8.16l-34.55,12L5.36,266H.58V252.44H5.36l.49,2.76,5.46-1.75V240.57l-5.46-1.75-.49,2.76H.58V228Zm11.82,14.41v9.12l14-4.48v-.16Zm23.14,45.06q0,6.83-3.51,10.77a11.66,11.66,0,0,1-9.18,3.94,11.61,11.61,0,0,1-9.17-3.94Q15,294.33,15,287.51V280.8H6.18l-.82,4.25H.58V268.6H5.36l.82,4.23H34.69l.82-4.23h4.81ZM21.13,280.8v6.71a6.63,6.63,0,0,0,1.82,5,6.52,6.52,0,0,0,4.63,1.7,6.8,6.8,0,0,0,4.73-1.7,6.52,6.52,0,0,0,1.87-5V280.8Zm14.39,24h4.8v16.45h-4.8L34.7,317H23.24v16.21H34.69l.83-4.25h4.8v16.46h-4.8l-.83-4.26H6.17l-.82,4.26H.58V328.91H5.36l.82,4.26H17.09V317H6.18l-.82,4.26H.58V304.76H5.36L6.18,309H34.69Zm0,58.18-.47-3.24-13,6.16V366l13,6.17.47-3.22h4.8v15h-4.8L35,380.63,14.56,369.82H6.18l-.82,4.26H.58V357.62H5.36l.82,4.26H15l20-10.62.55-3.35h4.8v15Z" style="fill:#094c84"/><path id="Path_207" data-name="Path 207" d="M75.8,251.86h-4l-.55-3.59a5.65,5.65,0,0,0-2-1.26,8,8,0,0,0-2.86-.46A6.33,6.33,0,0,0,61,249.1a10.87,10.87,0,0,0-1.9,6.66v.94a10.93,10.93,0,0,0,1.89,6.68A6.2,6.2,0,0,0,66.26,266a8.8,8.8,0,0,0,2.92-.47,4.81,4.81,0,0,0,2-1.26l.55-3.59h4V266a11.53,11.53,0,0,1-4.16,3A13.71,13.71,0,0,1,66,270.1a11.53,11.53,0,0,1-8.88-3.75,13.67,13.67,0,0,1-3.46-9.64v-.91a13.75,13.75,0,0,1,3.44-9.64,11.49,11.49,0,0,1,8.9-3.78,13.49,13.49,0,0,1,5.64,1.14,12.08,12.08,0,0,1,4.17,3ZM78.28,246v-3.26H89.43V246l-2.88.56v7.77h11v-7.77L94.65,246v-3.26h11.16V246l-2.89.56v19.33l2.89.55v3.24H94.65v-3.24l2.88-.55v-7.4h-11v7.4l2.88.55v3.24H78.28v-3.24l2.87-.55V246.58Zm29.34,20.44,1.93-.27,8.2-23.43h5.53l8.14,23.43,1.92.28v3.23h-9.18v-3.24l1.87-.33-1.18-3.7h-8.73l-1.19,3.7,1.87.33v3.24h-9.18Zm9.77-8h6.18l-3-9.49h-.11Zm29.83-15.69a11.17,11.17,0,0,1,7.2,2.1,7.06,7.06,0,0,1,2.61,5.8,5.89,5.89,0,0,1-1.09,3.54,7.71,7.71,0,0,1-3.2,2.42,5.81,5.81,0,0,1,3.43,2.34,7.44,7.44,0,0,1,1,4.06v1.37a2.3,2.3,0,0,0,.35,1.38,1.57,1.57,0,0,0,1.17.58l.66.09v3.26H156.6a4.38,4.38,0,0,1-3.72-1.42,6,6,0,0,1-1.07-3.69v-1.53a4.34,4.34,0,0,0-1.05-3.08,4,4,0,0,0-2.95-1.18h-4.42v7.11l2.89.55v3.24H135.12v-3.24l2.87-.55V246.58l-2.87-.55v-3.26Zm-3.83,11.88h3.74a5.12,5.12,0,0,0,3.38-1,3.45,3.45,0,0,0,1.13-2.78,3.84,3.84,0,0,0-1.12-2.9,4.6,4.6,0,0,0-3.3-1.08h-3.83Zm17.5,11.82,1.92-.27,8.2-23.43h5.54l8.14,23.43,1.92.27v3.24h-9.18v-3.24l1.87-.33-1.18-3.7h-8.73l-1.19,3.7,1.87.33v3.24h-9.18Zm9.77-8h6.18l-3-9.49h-.12Zm38.69-6.6h-4l-.55-3.59a5.56,5.56,0,0,0-2-1.26,7.73,7.73,0,0,0-2.86-.46,6.33,6.33,0,0,0-5.41,2.55,10.87,10.87,0,0,0-1.9,6.66v.94a10.93,10.93,0,0,0,1.89,6.68,6.25,6.25,0,0,0,5.33,2.58,8.74,8.74,0,0,0,2.91-.47,4.81,4.81,0,0,0,2.05-1.26l.56-3.59h4V266a11.58,11.58,0,0,1-4.15,3,13.92,13.92,0,0,1-5.66,1.12,11.56,11.56,0,0,1-8.88-3.76,13.66,13.66,0,0,1-3.46-9.64v-.91a13.77,13.77,0,0,1,3.45-9.64,11.5,11.5,0,0,1,8.9-3.77,13.52,13.52,0,0,1,5.64,1.14,12,12,0,0,1,4.16,3ZM235,242.77V250h-4.14l-.22-3h-5v19l2.88.55v3.24H217.4v-3.24l2.89-.55v-19h-4.94l-.23,3H211v-7.18Zm19.15,15.1H245v7.7h8.7l.24-3.22h4.11v7.37H236.77v-3.25l2.87-.55V246.58l-2.87-.55v-3.26h21.28v7.38h-4.14l-.24-3.21H245v6.77h9.13Zm18.91-15.1a11.16,11.16,0,0,1,7.2,2.1,7,7,0,0,1,2.61,5.8,5.82,5.82,0,0,1-1.09,3.54,7.73,7.73,0,0,1-3.2,2.42A5.81,5.81,0,0,1,282,259a7.43,7.43,0,0,1,1.05,4.06v1.37a2.3,2.3,0,0,0,.35,1.38,1.55,1.55,0,0,0,1.17.58l.66.09v3.26h-2.79a4.4,4.4,0,0,1-3.73-1.42,6,6,0,0,1-1.07-3.68v-1.54a4.33,4.33,0,0,0-1-3.08,4,4,0,0,0-2.95-1.18h-4.43v7.11l2.89.55v3.24H261v-3.24l2.87-.55V246.58L261,246v-3.26Zm-3.83,11.88H273a5.13,5.13,0,0,0,3.39-1,3.48,3.48,0,0,0,1.13-2.78,3.88,3.88,0,0,0-1.12-2.9,4.57,4.57,0,0,0-3.3-1.08h-3.83Z" style="fill:#2371aa"/><path id="Path_220" data-name="Path 220" d="M91.48,16.7H86L84.6,9a13.41,13.41,0,0,0-4.44-2.33,20.4,20.4,0,0,0-6.44-.92q-5.82,0-8.92,2.46a7.8,7.8,0,0,0-3.11,6.42,7.07,7.07,0,0,0,3.16,5.86Q68,22.85,75.09,24.62q8.5,2.1,12.93,6.21A13.37,13.37,0,0,1,92.44,41a12.44,12.44,0,0,1-5.31,10.47q-5.31,4-13.9,4a28.18,28.18,0,0,1-11-2,22.25,22.25,0,0,1-7.87-5.32v-10H59.8l1.4,7.73a17.68,17.68,0,0,0,5,2.85,19.54,19.54,0,0,0,7,1.11c3.68,0,6.58-.77,8.72-2.33a7.43,7.43,0,0,0,3.2-6.33,8,8,0,0,0-2.78-6.2q-2.78-2.49-9.8-4.2-8.55-2-13.36-6a12.35,12.35,0,0,1-4.81-10A12.85,12.85,0,0,1,59.76,4.2Q65.13,0,73.71,0A26.58,26.58,0,0,1,84,2a23.41,23.41,0,0,1,7.46,4.71ZM142.14.78V12.7h-6.22l-.55-6.18h-12V49l6,1v4.67H110.09V50l6-1V6.52h-12l-.52,6.18H97.36V.78Zm22.5,4.7-5.81.7,11.28,22,11.29-22-5.78-.7V.79h18.5v4.7l-4.55.7-16,29.53V49l6,1v4.67H160.31V50l6-1V35.17l-15.69-29-4.52-.7V.79h18.5Zm34.49,49.18V50l6-1V6.52l-6-1V.78h19.35v4.7l-6,1V49h18.72l.56-6.18H238V54.66Zm44.37,0V50l6-1V6.52l-6-1V.78h41.37v13h-6.26L278,6.52h-21.2V24h20.61v5.74H256.82V49h21.65l.59-7.22h6.22V54.66Z" style="fill:#24648d"/><path id="Path_199" data-name="Path 199" d="M53.73,379.87l4.56-.79V347l-4.56-.78v-3.55H85.21v9.79h-4.7L80.06,347H63.8v14H79.56v4.34H63.8v13.71l4.56.79v3.52H53.73Zm73.39-16.54q0,8.9-5.11,14.77A16.7,16.7,0,0,1,108.79,384,15.92,15.92,0,0,1,96,378.1Q91,372.24,91,363.33v-.59Q91,353.88,96,348a15.93,15.93,0,0,1,12.82-5.9A16.7,16.7,0,0,1,122,348a21.81,21.81,0,0,1,5.11,14.78Zm-5.52-.65q0-7.1-3.4-11.6a11.17,11.17,0,0,0-9.41-4.49,10.42,10.42,0,0,0-9,4.51q-3.24,4.5-3.24,11.58v.65q0,7.16,3.24,11.65a10.46,10.46,0,0,0,9,4.5,11.14,11.14,0,0,0,9.45-4.48q3.36-4.49,3.36-11.67Zm52.43-20v3.55l-4.56.79v36.4H164l-19.58-31.45-.17.05v27.09l4.56.79v3.52H134.12v-3.52l4.57-.79V347l-4.57-.78v-3.55H144.2l19.59,31.42L164,374V347l-4.57-.78v-3.55Zm39.53,0v9h-4.7l-.42-4.68h-9v32.1l4.56.79v3.52H189.32v-3.52l4.56-.79V347h-9.06l-.39,4.68H179.7v-9Z" style="fill:#2d7198"/><path id="Path_208" data-name="Path 208" d="M64.55,175.94h-.5v-1.88a3.68,3.68,0,0,0-1.59-1.36,5.47,5.47,0,0,0-2.36-.46,4.67,4.67,0,0,0-2.9.81,2.44,2.44,0,0,0-1.06,2,2.36,2.36,0,0,0,.88,1.9,8.19,8.19,0,0,0,3.2,1.36,9.93,9.93,0,0,1,3.38,1.44,2.85,2.85,0,0,1,1.14,2.43,2.92,2.92,0,0,1-1.3,2.52,5.49,5.49,0,0,1-3.27.92,6.65,6.65,0,0,1-2.6-.5,4.79,4.79,0,0,1-2.06-1.58v-2.22H56v2a4.11,4.11,0,0,0,1.84,1.37,6.35,6.35,0,0,0,2.32.42,4.88,4.88,0,0,0,2.92-.81,2.47,2.47,0,0,0,1.14-2.11,2.5,2.5,0,0,0-.93-2,9.22,9.22,0,0,0-3.22-1.38,10.54,10.54,0,0,1-3.37-1.41A2.69,2.69,0,0,1,55.64,175a2.79,2.79,0,0,1,1.25-2.41,5.47,5.47,0,0,1,3.21-.9,6.23,6.23,0,0,1,2.66.53,4.1,4.1,0,0,1,1.79,1.56Zm7-4a4.56,4.56,0,0,1,3.22,1,4,4,0,0,1,0,5.59,4.54,4.54,0,0,1-3.22,1H68.33v5.29h1.51v.5H66.32v-.5h1.51V172.43H66.32v-.5Zm-3.25,7.19h3.25a4,4,0,0,0,2.88-1,3.43,3.43,0,0,0,0-4.78,3.92,3.92,0,0,0-2.88-.95H68.33Zm7.09,5.78h1l4.84-13h.61l4.86,13h1v.5H84.85v-.5h1.33l-1.33-3.53H78.27L77,184.9h1.32v.5H75.42Zm3-4h6.22l-2.82-7.59-.26-.76h-.06l-.25.76Zm21-4.66H98.9v-2.16a4.47,4.47,0,0,0-1.66-1.33,5.35,5.35,0,0,0-2.36-.49A4.88,4.88,0,0,0,91,174a6.75,6.75,0,0,0-1.5,4.58v.19A6.82,6.82,0,0,0,91,183.34a4.74,4.74,0,0,0,3.81,1.75,5.57,5.57,0,0,0,2.41-.49,4.27,4.27,0,0,0,1.7-1.33v-2.16h.5v2.35A4.66,4.66,0,0,1,97.5,185a6.35,6.35,0,0,1-2.71.58,5.25,5.25,0,0,1-4.18-1.9A7.35,7.35,0,0,1,89,178.75v-.17a7.3,7.3,0,0,1,1.62-5,5.38,5.38,0,0,1,4.27-1.9,6.06,6.06,0,0,1,2.65.58,4.65,4.65,0,0,1,1.87,1.56Zm1.73,9.18v-.5h1.51V172.43h-1.51v-.5h9.7v2.71h-.5v-2.21h-7.2v5.7H109v.5h-5.83v6.27h7.2v-2.21h.5v2.71Z" style="fill:#166183"/><path id="Path_204" data-name="Path 204" d="M72.09,321.82h-.9L58.81,293.59l-.13,0v27.06h3.4v1.13H54.17v-1.13h3.39V292.63H54.17v-1.12h5L71.57,320h.12l12.45-28.52h5v1.12h-3.4v28.06h3.4v1.13H81.27v-1.13h3.39v-27.2l-.12-.05Zm19.71-1.13H94l10.91-29.18h1.37l10.93,29.18h2.22v1.13H113v-1.13h3l-3-7.93H98.21l-2.95,7.93h3v1.13H91.8Zm6.83-9.05h14l-6.35-17.07-.59-1.71h-.12l-.56,1.71Zm36.15-20.11c3.2,0,5.65.69,7.37,2.07a7.28,7.28,0,0,1,2.58,6,7.36,7.36,0,0,1-1.62,4.66,7.57,7.57,0,0,1-4.47,2.72,7.13,7.13,0,0,1,4.68,2.39,7.43,7.43,0,0,1,1.42,4.68v3.06a4.7,4.7,0,0,0,.61,2.67,2.11,2.11,0,0,0,1.82.87h1.07v1.13h-1.07a3,3,0,0,1-2.79-1.37,6.68,6.68,0,0,1-.77-3.34v-3a5.88,5.88,0,0,0-2.11-4.81,9.28,9.28,0,0,0-6-1.73h-8.18v13.11h3.39v1.13h-7.91v-1.13h3.4V292.65h-3.4v-1.12Zm-7.49,15h7.29c3.09,0,5.37-.66,6.84-2a6.84,6.84,0,0,0,0-10.07q-2.22-1.8-6.61-1.8h-7.5Zm48.38,12.09a8.81,8.81,0,0,1-3.68,2.51,16.72,16.72,0,0,1-6.67,1.17A11.57,11.57,0,0,1,156,318q-3.58-4.29-3.58-11.15V306q0-6.65,3.6-10.8a11.81,11.81,0,0,1,9.38-4.17,15,15,0,0,1,6.13,1.2,10.34,10.34,0,0,1,4.26,3.4v5.08h-1.12l0-4.66a9.41,9.41,0,0,0-3.79-2.87,13.64,13.64,0,0,0-5.5-1,10.69,10.69,0,0,0-8.61,3.85,14.94,14.94,0,0,0-3.26,9.95v.83a15.84,15.84,0,0,0,3.25,10.32,10.5,10.5,0,0,0,8.56,4,16.22,16.22,0,0,0,5.86-1,7.79,7.79,0,0,0,3.36-2.1v-8H168v-1.15h7.68Zm6.45-25.94v-1.12H190v1.12h-3.39v28.06H190v1.13h-7.91v-1.13h3.39V292.63Zm40.28-1.12v1.12H219v29.19h-1.13l-19.44-28.23-.13,0v27.06h3.4v1.13h-7.94v-1.13h3.4V292.63h-3.4v-1.12h4.54l19.45,28.16.12,0v-27h-3.39v-1.12Z" style="fill:#225576"/><path id="Path_209" data-name="Path 209" d="M70.28,112.25a18.08,18.08,0,0,1,13.22,5.13,17.65,17.65,0,0,1,5.2,13.15v7.25a17.54,17.54,0,0,1-5.2,13.15A18.09,18.09,0,0,1,70.27,156H50.58v-5.26l4.66-.9V118.45l-4.66-.9v-5.29h19.7ZM64,119V149.3h5.8a9.14,9.14,0,0,0,7.4-3.19,12.48,12.48,0,0,0,2.68-8.33v-7.3a12.43,12.43,0,0,0-2.68-8.27,9.14,9.14,0,0,0-7.4-3.19Zm57.25,17.77H106.45V149.3h14.13l.39-5.23h6.67v12H93v-5.26l4.66-.9V118.45l-4.66-.9v-5.29h34.58v12h-6.73l-.39-5.23h-14v11h14.82Zm44.32-10.56H159l-1.14-6a11.74,11.74,0,0,0-3.34-1.26,19.21,19.21,0,0,0-4.66-.54,8.9,8.9,0,0,0-5.57,1.52,4.71,4.71,0,0,0-2,3.92,4.26,4.26,0,0,0,2.06,3.65,28.24,28.24,0,0,0,7.11,3q7.24,2,11,5.33a11,11,0,0,1,3.74,8.69,10.4,10.4,0,0,1-4.45,8.87q-4.44,3.24-11.72,3.24a25.35,25.35,0,0,1-9.4-1.65,19.41,19.41,0,0,1-7-4.57V141.3h6.8l.93,6.22a10.53,10.53,0,0,0,3.59,1.79,17,17,0,0,0,5.07.71,8.79,8.79,0,0,0,5.48-1.47,4.75,4.75,0,0,0,1.88-3.94,5.06,5.06,0,0,0-1.79-4.06,17.93,17.93,0,0,0-6.27-2.89q-7.78-2.25-11.78-5.35a10.14,10.14,0,0,1-4-8.48,10.42,10.42,0,0,1,4.51-8.7,18.75,18.75,0,0,1,11.33-3.47,26.41,26.41,0,0,1,9.2,1.53,21.26,21.26,0,0,1,7,4.09Zm4.06-8.68v-5.3h18.13v5.3l-4.69.9v31.42l4.69.9V156H169.65v-5.26l4.69-.9V118.45Zm57.75,33.61a19.22,19.22,0,0,1-6.22,3.8,27.21,27.21,0,0,1-10.34,1.7,18.88,18.88,0,0,1-14.44-5.94q-5.55-5.92-5.56-15.43v-1.5q0-9.84,5.49-16a18.24,18.24,0,0,1,14.33-6.17,26,26,0,0,1,9.4,1.64,20.24,20.24,0,0,1,7.08,4.44v8.81h-6.5l-1.24-5.87a9,9,0,0,0-3.17-1.64,15,15,0,0,0-4.52-.61,10.51,10.51,0,0,0-8.93,4.24q-3.19,4.23-3.19,11.09v1.56q0,6.67,3.13,10.66t9,4a17.11,17.11,0,0,0,4.28-.45,9.49,9.49,0,0,0,2.57-1.06V141l-6.25-.48v-6.17H227.4Zm49.13-38.91v5.3l-4.69.9V156h-8.75l-17.67-29.46-.18,0v23.27l4.69.9V156H231.8v-5.26l4.66-.9V118.45l-4.66-.9v-5.29h13.44l17.68,29.46.18,0V118.45l-4.69-.9v-5.29h18.12Z" style="fill:#5f88b1"/><path id="Path_221" data-name="Path 221" d="M55,88.27h1.5V75.8H55v-.5h3.51v.5H57v5.9h2.2l5.23-5.86v0H62.9v-.5h3.34v.5H65.18L59.66,82l5.91,6.25h1.09v.5H63.32v-.5h1.51l0-.06-5.75-6H57v6.08h1.51v.5H55Zm18.52.5v-.5h1.51V75.8H73.56v-.5h9.7V78h-.5V75.8h-7.2v5.7H81.4V82H75.57v6.27h7.2V86.06h.5v2.71ZM96.33,75.31a5.11,5.11,0,0,1,3.28.92A3.52,3.52,0,0,1,100,81a3.31,3.31,0,0,1-2,1.21,3.2,3.2,0,0,1,2.08,1.07,3.28,3.28,0,0,1,.63,2.08V86.7a2,2,0,0,0,.27,1.18.92.92,0,0,0,.81.39h.47v.5h-.47a1.29,1.29,0,0,1-1.24-.61,2.93,2.93,0,0,1-.34-1.48V85.36a2.61,2.61,0,0,0-.94-2.14,4.15,4.15,0,0,0-2.68-.77H93v5.83h1.51v.5H91v-.5H92.5V75.81H91v-.5ZM93,82h3.24a4.46,4.46,0,0,0,3-.87,3,3,0,0,0,0-4.47,4.53,4.53,0,0,0-2.94-.8H93Zm29-6.65v.5h-1.51v13H120l-8.64-12.54-.06,0v12h1.51v.5H109.3v-.5h1.51V75.8H109.3v-.5h2L120,87.82l.05,0v-12H118.5v-.5Zm7.35.5v-.5h3.51v.5h-1.5V88.27h1.5v.5h-3.51v-.5h1.51V75.8ZM153,75.3v.5h-1.5v13H151L142.3,76.23l-.05,0v12h1.51v.5h-3.53v-.5h1.51V75.8h-1.51v-.5h2l8.64,12.52.06,0v-12h-1.51v-.5H153Zm17.89,12a3.89,3.89,0,0,1-1.63,1.11,7.4,7.4,0,0,1-3,.53,5.19,5.19,0,0,1-4.15-1.9,7.42,7.42,0,0,1-1.59-5v-.35a7,7,0,0,1,1.6-4.8,5.24,5.24,0,0,1,4.17-1.85,6.54,6.54,0,0,1,2.72.53,4.63,4.63,0,0,1,1.9,1.52v2.25h-.5V77.34a4.24,4.24,0,0,0-1.68-1.28,6.18,6.18,0,0,0-2.44-.45,4.79,4.79,0,0,0-3.83,1.71A6.61,6.61,0,0,0,161,81.74v.37a7,7,0,0,0,1.43,4.59,4.66,4.66,0,0,0,3.81,1.77,7.17,7.17,0,0,0,2.6-.43,3.48,3.48,0,0,0,1.5-.94V83.54h-2.92V83h3.42Z" style="fill:#0099d1"/><path id="Path_210" data-name="Path 210" d="M63,203.09a7.1,7.1,0,0,1,5,1.66,6.27,6.27,0,0,1,0,8.79,7.2,7.2,0,0,1-5,1.65H58.67v6l2.26.38v1.75H53.67v-1.75l2.26-.38V205.24l-2.26-.39v-1.76Zm-4.29,10H63A4,4,0,0,0,66,212a3.92,3.92,0,0,0,1-2.78A3.71,3.71,0,0,0,63,205.24H58.67ZM68,221.54l1.5-.2,7.07-18.25h2.34l6.94,18.24,1.48.21v1.75h-5.8v-1.75l1.53-.26-1.33-3.72H73.59l-1.38,3.72,1.53.26v1.75H68Zm6.48-6.27h6.41l-3.13-8.67h-.09ZM97.86,203.1a7.71,7.71,0,0,1,5.06,1.47,5.06,5.06,0,0,1,1.76,4.15,4.34,4.34,0,0,1-.81,2.61,5.53,5.53,0,0,1-2.35,1.79,4.14,4.14,0,0,1,2.38,1.76,5.76,5.76,0,0,1,.73,3v1.63a2.93,2.93,0,0,0,.24,1.37,1,1,0,0,0,.78.53l.66.08v1.79h-1.47a2.42,2.42,0,0,1-2.27-1.11,5.08,5.08,0,0,1-.67-2.69v-1.57a3.7,3.7,0,0,0-1-2.65,3.43,3.43,0,0,0-2.57-1H94v6.88l2.26.39v1.75H89v-1.75l2.26-.39V205.24L89,204.85V203.1Zm-3.87,9h3.59a5.17,5.17,0,0,0,3.33-.87,3.15,3.15,0,0,0,1-2.56,3.28,3.28,0,0,0-1-2.52,4.42,4.42,0,0,0-3.09-.93H94Zm14,9.42,1.5-.2,7.06-18.25h2.35l6.94,18.24,1.48.21v1.75h-5.8v-1.75l1.53-.26-1.33-3.72h-8.1l-1.37,3.72,1.53.26v1.75H108Zm6.48-6.27h6.41l-3.13-8.67h-.09ZM144,221a8.94,8.94,0,0,1-2.62,1.76,10.59,10.59,0,0,1-4.51.82,8.48,8.48,0,0,1-6.61-2.84,10.61,10.61,0,0,1-2.56-7.38V213a10.64,10.64,0,0,1,2.53-7.4,8.6,8.6,0,0,1,6.74-2.83,10.26,10.26,0,0,1,4,.7,9,9,0,0,1,2.86,1.85V209h-1.91l-.67-2.79a6.17,6.17,0,0,0-1.64-.92,6.78,6.78,0,0,0-2.32-.36,6.05,6.05,0,0,0-5,2.24,9.11,9.11,0,0,0-1.77,5.81v.36a9.37,9.37,0,0,0,1.72,5.86,5.61,5.61,0,0,0,4.72,2.23,8.88,8.88,0,0,0,2.71-.34,7.58,7.58,0,0,0,1.69-.77v-4.42l-3.32-.14v-2h6Zm12-17.9a7.74,7.74,0,0,1,5.07,1.47,5.09,5.09,0,0,1,1.76,4.15,4.35,4.35,0,0,1-.82,2.61,5.44,5.44,0,0,1-2.34,1.79,4.14,4.14,0,0,1,2.38,1.76,5.86,5.86,0,0,1,.73,3v1.63a3,3,0,0,0,.23,1.37,1,1,0,0,0,.78.53l.66.08v1.79H163a2.44,2.44,0,0,1-2.27-1.11,5.17,5.17,0,0,1-.67-2.69v-1.57a3.66,3.66,0,0,0-1-2.65,3.4,3.4,0,0,0-2.56-1h-4.39v6.88l2.26.39v1.75h-7.25v-1.75l2.26-.39V205.24l-2.26-.39V203.1Zm-3.87,9h3.6a5.19,5.19,0,0,0,3.33-.87,3.18,3.18,0,0,0,1-2.56,3.28,3.28,0,0,0-1-2.52,4.43,4.43,0,0,0-3.1-.93h-3.87Zm14,9.42,1.5-.2,7.06-18.25h2.35L184,221.33l1.49.21v1.75h-5.8v-1.75l1.52-.26-1.33-3.72h-8.09l-1.37,3.72,1.52.26v1.75h-5.78Zm6.48-6.27h6.41l-3.14-8.67h-.08Zm23.84-12.18a7.13,7.13,0,0,1,5,1.66,6.27,6.27,0,0,1,0,8.79,7.17,7.17,0,0,1-5,1.65h-4.29v6l2.26.39v1.74h-7.25v-1.75l2.26-.39V205.24l-2.26-.39v-1.76Zm-4.29,10h4.29a4,4,0,0,0,3.07-1.1,3.9,3.9,0,0,0,1-2.78,3.7,3.7,0,0,0-4.09-3.92h-4.29Zm13.06-8.2v-1.76h7.26v1.76l-2.26.39v7h9.8v-7l-2.27-.39v-1.76h7.26v1.76l-2.26.39v15.92l2.26.38v1.75h-7.26v-1.75l2.27-.39v-6.78h-9.8v6.78l2.26.39v1.75h-7.26v-1.75l2.26-.39V205.24Z" style="fill:#258abf"/></g></svg>
