<svg xmlns="http://www.w3.org/2000/svg" xmlns:xlink="http://www.w3.org/1999/xlink" width="302" height="411" viewBox="0 0 302 411">
  <defs>
    <clipPath id="clip-Titling2">
      <rect width="302" height="411"/>
    </clipPath>
  </defs>
  <g id="Titling2" clip-path="url(#clip-Titling2)">
    <g id="Group_67" data-name="Group 67" transform="translate(11819 4224)">
      <path id="Path_230" data-name="Path 230" d="M35.35,10.29V.35H.28v9.94H12.32V56H23.24V10.29ZM77.77.35H66.71S56.63,23.73,56.56,25.41C56.42,23.73,47.39.35,47.39.35H35.98L51.03,36.12V56H62.02V35.98Zm38.92,17.71c0-6.44-.7-9.8-3.15-13.3C110.88.91,106.19.35,100.87.35H81.06V56H92.05V35.7s8.89.07,10.36,0c5.11-.21,8.89-1.61,11.2-4.55C115.78,28.56,116.69,24.43,116.69,18.06Zm-10.99.35a15.779,15.779,0,0,1-.56,5.32c-.56,1.89-2.1,2.73-5.11,2.73H92.05V10.15h8.26c2.38,0,3.92.91,4.62,2.38A17.213,17.213,0,0,1,105.7,18.41ZM139.3-.21c-9.45,0-14.28,4.13-16.66,9.24-2.24,4.76-2.8,12.25-2.8,18.97,0,6.93.77,14.77,2.8,19.67,2.73,6.58,9.24,9.03,16.66,9.03,9.45,0,14.63-3.78,16.66-9.17,2.45-6.51,2.87-12.25,2.87-19.74,0-7.14-.84-15.05-2.45-18.76C153.93,3.36,148.75-.21,139.3-.21Zm.14,47.53c-3.5,0-5.18-1.26-6.37-3.36-1.4-2.52-2.1-10.57-2.1-15.68,0-4.97.63-12.81,1.75-15.05,1.26-2.59,2.8-4.06,6.65-4.06,3.64,0,5.88,1.75,6.72,3.99,1.33,3.57,1.75,10.15,1.75,14.98,0,5.18-.56,13.3-1.96,15.68C144.69,45.85,143.01,47.32,139.44,47.32ZM199.85,56c0-.14-.07-7.14-.07-13.72V24.22H180.11v9.31h9.45v8.4c-.49,3.71-3.36,5.74-7.63,5.74-3.43,0-5.53-1.19-6.72-3.85-.98-2.17-1.68-8.4-1.68-15.4,0-8.4.63-12.74,1.82-15.61.98-2.31,3.36-3.57,6.44-3.57,2.8,0,4.97,1.26,5.81,3.22a20.756,20.756,0,0,1,1.05,7h10.78c0-2.31-.35-7.49-1.4-10.22-1.89-5.04-6.51-9.52-16.59-9.52-9.66,0-14.49,4.62-16.52,9.24-2.31,5.18-2.73,12.04-2.73,19.32,0,8.26,1.12,15.89,3.01,19.88,2.59,5.32,7.49,8.47,14.77,8.47,5.67,0,9.03-1.75,11.06-4.13l.49,3.5Zm40.18-39.34c0-4.83-.77-8.12-2.17-10.85-1.82-3.5-6.09-5.46-11.41-5.46H204.89V56h10.64V33.39h7.84L230.86,56h11.62l-9.03-25.27a8.191,8.191,0,0,0,4.97-4.55C239.4,24.08,240.03,21,240.03,16.66Zm-10.71.98a14.136,14.136,0,0,1-.77,4.76c-.49,1.12-1.96,1.89-3.78,1.96h-9.1V10.01h8.68c2.24,0,3.92,1.05,4.41,2.73A21.453,21.453,0,0,1,229.32,17.64Zm27.79,24.85h13.37L273.35,56h11.06L271.67.35h-14.7L243.18,56H254.1Zm11.41-8.75h-9.24c1.4-5.81,3.43-14.42,3.85-16.66.35-1.82.98-6.51.98-6.51s.56,4.69.91,6.44C265.51,19.32,267.26,28.21,268.52,33.74Zm54.81-15.68c0-6.44-.7-9.8-3.15-13.3C317.52.91,312.83.35,307.51.35H287.7V56h10.99V35.7s8.89.07,10.36,0c5.11-.21,8.89-1.61,11.2-4.55C322.42,28.56,323.33,24.43,323.33,18.06Zm-10.99.35a15.778,15.778,0,0,1-.56,5.32c-.56,1.89-2.1,2.73-5.11,2.73h-7.98V10.15h8.26c2.38,0,3.92.91,4.62,2.38A17.214,17.214,0,0,1,312.34,18.41ZM363.65,56V.35H352.8V23.31H338.94V.35H328.09V56h10.85V33.04H352.8V56ZM408.8.35H397.74s-10.08,23.38-10.15,25.06c-.14-1.68-9.17-25.06-9.17-25.06H367.01l15.05,35.77V56h10.99V35.98Z" transform="translate(-11752 -4222) rotate(90)" fill="#094c84"/>
      <path id="Path_239" data-name="Path 239" d="M24.35-13.5H19.9a18.515,18.515,0,0,1-1,6.55c-.95,2.45-3,3.35-5.5,3.35-2.2,0-4.4-.7-5.6-3.1-.95-1.9-1.6-8.5-1.6-13.35,0-5,.25-10.05,1.5-12.8,1-2.15,2.8-3,5.6-3,2.65,0,4.45.95,5.35,2.85a20.677,20.677,0,0,1,1.15,6.95h4.5a23.684,23.684,0,0,0-1.25-8.3c-1.25-3.55-4.75-5.75-9.7-5.75-4.85,0-8.15,1.85-9.8,5.4-1.45,3.15-2,7.6-2,14.6C1.55-14.35,2.1-7.75,4-4.45,6-.95,8.8.4,13.3.4c4.9,0,8.4-2.1,9.9-6.4A22.017,22.017,0,0,0,24.35-13.5ZM48.8,0V-39.75H44.35v17.6H32.75v-17.6H28.3V0h4.45V-17.9h11.6V0Zm9.5-9.75H69.1L71.2,0h4.6L66.95-39.75H61.3L51.65,0h4.5Zm10-4H59.25s3.95-16.5,4.1-17.2c.1-.5.65-3.9.65-3.9s.45,3.4.55,3.9C64.65-30.4,68.3-13.75,68.3-13.75ZM98.6-28.7a17.8,17.8,0,0,0-.95-6.65c-1.05-2.7-3.1-4.4-7-4.4H78.7V0h4.35V-17.8h6.9L95.85,0h4.5l-6.1-18.7a5.65,5.65,0,0,0,3.35-3.2A18.325,18.325,0,0,0,98.6-28.7Zm-4.6.5a17.293,17.293,0,0,1-.55,4.6c-.4,1.05-1.4,1.7-3.05,1.8-.25,0-7.3.05-7.3.05v-13.9h6.8A3.524,3.524,0,0,1,93.65-33,26.48,26.48,0,0,1,94-28.2ZM107.95-9.75h10.8L120.85,0h4.6L116.6-39.75h-5.65L101.3,0h4.5Zm10-4H108.9s3.95-16.5,4.1-17.2c.1-.5.65-3.9.65-3.9s.45,3.4.55,3.9C114.3-30.4,117.95-13.75,117.95-13.75Zm31.55.25h-4.45a18.515,18.515,0,0,1-1,6.55c-.95,2.45-3,3.35-5.5,3.35-2.2,0-4.4-.7-5.6-3.1-.95-1.9-1.6-8.5-1.6-13.35,0-5,.25-10.05,1.5-12.8,1-2.15,2.8-3,5.6-3,2.65,0,4.45.95,5.35,2.85a20.677,20.677,0,0,1,1.15,6.95h4.5a23.684,23.684,0,0,0-1.25-8.3c-1.25-3.55-4.75-5.75-9.7-5.75-4.85,0-8.15,1.85-9.8,5.4-1.45,3.15-2,7.6-2,14.6,0,5.75.55,12.35,2.45,15.65,2,3.5,4.8,4.85,9.3,4.85,4.9,0,8.4-2.1,9.9-6.4A22.018,22.018,0,0,0,149.5-13.5Zm22.25-22.1v-4.15h-21.2v4.15h8.3V0h4.55V-35.6ZM192.95,0V-4.2H179.1V-17.95h12.95V-22.1H179.1V-35.55h13.75v-4.2H174.7V0ZM217-28.7a17.8,17.8,0,0,0-.95-6.65c-1.05-2.7-3.1-4.4-7-4.4H197.1V0h4.35V-17.8h6.9L214.25,0h4.5l-6.1-18.7A5.65,5.65,0,0,0,216-21.9,18.325,18.325,0,0,0,217-28.7Zm-4.6.5a17.293,17.293,0,0,1-.55,4.6c-.4,1.05-1.4,1.7-3.05,1.8-.25,0-7.3.05-7.3.05v-13.9h6.8A3.524,3.524,0,0,1,212.05-33,26.48,26.48,0,0,1,212.4-28.2Z" transform="translate(-11742 -3917)" fill="#2371aa"/>
      <path id="Path_255" data-name="Path 255" d="M41.04-17.19c0-10.17-4.77-15.57-13.05-20.7-1.62-.99-4.59-2.79-6.75-4.14-7.74-4.86-10.26-8.1-10.26-14.04,0-5.49,2.88-8.82,9.99-8.82,7.02,0,9.99,2.34,10.98,7.47a34.408,34.408,0,0,1,.27,5.85h8.1a34.45,34.45,0,0,0-.45-7.29c-1.71-8.37-7.11-13.23-18.63-13.23C8.73-72.18,2.61-65.52,2.61-56.07c0,9.72,5.04,14.67,13.05,19.8,2.25,1.44,5.49,3.51,7.02,4.5C30.24-27,32.76-23.22,32.76-16.56c0,7.11-3.51,10.26-10.44,10.26-6.3,0-10.62-1.8-11.34-6.57-.27-1.98-.54-5.58-.54-7.11H2.52a45.815,45.815,0,0,0,.54,8.73C4.41-3.6,10.35.72,22.05.72,34.47.72,41.04-5.58,41.04-17.19ZM81-64.08v-7.47H42.84v7.47H57.78V0h8.19V-64.08Zm45.63-7.47h-8.1s-14.49,35.37-14.49,37.26c-.09-1.89-13.68-37.26-13.68-37.26H81.99L99.81-25.2V0H108V-25.38ZM163.53,0V-7.56H139.95V-71.55h-8.1V0Zm39.06,0V-7.56H177.66V-32.31h23.31v-7.47H177.66V-63.99h24.75v-7.56H169.74V0Z" transform="translate(-11746 -4150)" fill="#24648d"/>
      <path id="Path_231" data-name="Path 231" d="M29.28-39.18V-47.7H2.82V0h9.36V-19.68H28.2v-8.4H12.18v-11.1Zm22.02-9c-8.1,0-12.24,3.54-14.28,7.92-1.92,4.08-2.4,10.5-2.4,16.26,0,5.94.66,12.66,2.4,16.86C39.36-1.5,44.94.6,51.3.6c8.1,0,12.54-3.24,14.28-7.86,2.1-5.58,2.46-10.5,2.46-16.92,0-6.12-.72-12.9-2.1-16.08C63.84-45.12,59.4-48.18,51.3-48.18Zm.12,40.74c-3,0-4.44-1.08-5.46-2.88-1.2-2.16-1.8-9.06-1.8-13.44,0-4.26.54-10.98,1.5-12.9,1.08-2.22,2.4-3.48,5.7-3.48,3.12,0,5.04,1.5,5.76,3.42,1.14,3.06,1.5,8.7,1.5,12.84,0,4.44-.48,11.4-1.68,13.44A5.668,5.668,0,0,1,51.42-7.44ZM105.24,0V-47.7H96.48v27.78L85.02-47.7H75.3V0h8.82V-27.6L95.88,0ZM141.3-39.18V-47.7H111.24v8.52h10.32V0h9.36V-39.18Z" transform="translate(-11741 -3814)" fill="#2d7198"/>
      <path id="Path_245" data-name="Path 245" d="M7.84-3.32c0-2.12-1.06-3.34-2.58-4.62-.36-.3-1.16-.92-1.42-1.14-1.32-1.12-2.46-2.14-2.46-3.74a2.449,2.449,0,0,1,2.74-2.64,2.612,2.612,0,0,1,2.84,2.2,8.85,8.85,0,0,1,.16,1.5h.6a10.247,10.247,0,0,0-.16-1.58C7.26-15,6.22-16,4.16-16A3.036,3.036,0,0,0,.78-12.84c0,1.7,1.04,2.86,2.52,4.08.5.4,1.1.86,1.44,1.16,1.48,1.32,2.5,2.24,2.5,4.36C7.24-1.42,6.4-.4,4.4-.4c-1.62,0-2.64-.64-2.96-2.04A10.093,10.093,0,0,1,1.3-4.2H.7A8.747,8.747,0,0,0,.86-2.22C1.28-.66,2.46.14,4.42.14,6.72.14,7.84-1.06,7.84-3.32Zm8.54-7.92a8.943,8.943,0,0,0-.46-3.4A2.3,2.3,0,0,0,13.6-15.9H9.94V0h.58V-6.62s2.78.02,3.02,0A2.6,2.6,0,0,0,15.9-7.86,7.205,7.205,0,0,0,16.38-11.24Zm-.6,0a7.471,7.471,0,0,1-.38,3.06,1.975,1.975,0,0,1-1.96,1.02H10.52v-8.18h2.96a1.953,1.953,0,0,1,1.9.98A8.214,8.214,0,0,1,15.78-11.24Zm2.26,7.1H22.9L23.82,0h.58L20.92-15.9h-.64L16.5,0h.58Zm4.76-.52H18.16l2.04-8.78.4-1.94.3,1.94ZM32.76-5h-.62c0,2.86-.9,4.6-3.02,4.6-2.66,0-3.38-2.5-3.38-7.64,0-5.32,1.02-7.36,3.5-7.36,2.26,0,2.9,2,2.9,4.52h.64c0-3.5-1.18-5.12-3.54-5.12-2.52,0-4.12,1.6-4.12,7.94,0,6.32,1.3,8.2,4.02,8.2C31.46.14,32.76-1.64,32.76-5Zm7.92,5V-.54H35.26V-7.78H40.3v-.54H35.26v-7.02h5.36v-.56H34.68V0Z" transform="translate(-11742 -4009)" fill="#166183"/>
      <path id="Path_236" data-name="Path 236" d="M20.16,0V-31.8H18.48L11.36-1.48l-7-30.32H2.72V0H3.84V-29.64L10.6,0H12l7.04-29.68L19,0Zm5.88-8.28h9.72L37.6,0h1.16L31.8-31.8H30.52L22.96,0h1.16Zm9.52-1.04H26.28l4.08-17.56.8-3.88.6,3.88ZM54-23.44a20.051,20.051,0,0,0-.32-4.4c-.48-2.44-1.84-3.96-4.72-3.96h-7.4V0h1.16V-15.76h6.8L54.36,0h1.2L50.64-16a3.768,3.768,0,0,0,2.64-2.28A14.288,14.288,0,0,0,54-23.44Zm-1.16.16a17.838,17.838,0,0,1-.56,4.52c-.44,1.08-1.16,2-3.48,2H42.72V-30.68H49A3.246,3.246,0,0,1,52.4-28,26.337,26.337,0,0,1,52.84-23.28ZM72.16,0V-16.12H64.04V-15H71s.04,8.76-.04,9.8A5.669,5.669,0,0,1,65.2-.8c-5.68,0-6.28-6.2-6.28-15.08,0-11.76,1.68-14.96,6.28-14.96,4.52,0,5.64,4.56,5.64,8.84h1.24c0-6.48-2.12-10.04-6.88-10.04-4.56,0-7.52,2.28-7.52,16.12,0,9.72.56,16.2,7.56,16.2,3.68,0,5.52-2.28,5.92-3.6L71.28,0Zm5.36,0V-31.8h-1.2V0ZM96.2,0V-31.8H95.12V-2L84.48-31.8H82.92V0h1.04V-30.24L94.72,0Z" transform="translate(-11739 -3872)" fill="#225576"/>
      <path id="Path_246" data-name="Path 246" d="M35.28-6.8c2.64-4.48,3.04-9.92,3.04-26.16,0-14.08-.32-18.88-2.72-23.6-2.16-4.32-7.2-7.04-14.24-7.04H4.56V0H21.84C28.96,0,32.96-2.8,35.28-6.8Zm-6-3.68c-1.52,2.64-4.64,3.92-8.4,3.92H11.6V-56.88h8.88c3.92,0,7.36,1.36,8.8,4.48,2,4.24,1.84,8.56,1.84,19.44C31.12-18.8,30.88-13.36,29.28-10.48ZM74.32,0V-6.72H52.16v-22H72.88v-6.64H52.16V-56.88h22V-63.6H45.12V0Zm38.64-15.28c0-9.04-4.24-13.84-11.6-18.4-1.44-.88-4.08-2.48-6-3.68-6.88-4.32-9.12-7.2-9.12-12.48,0-4.88,2.56-7.84,8.88-7.84,6.24,0,8.88,2.08,9.76,6.64a30.585,30.585,0,0,1,.24,5.2h7.2a30.622,30.622,0,0,0-.4-6.48c-1.52-7.44-6.32-11.76-16.56-11.76C84.24-64.16,78.8-58.24,78.8-49.84c0,8.64,4.48,13.04,11.6,17.6,2,1.28,4.88,3.12,6.24,4,6.72,4.24,8.96,7.6,8.96,13.52,0,6.32-3.12,9.12-9.28,9.12-5.6,0-9.44-1.6-10.08-5.84-.24-1.76-.48-4.96-.48-6.32H78.72A40.725,40.725,0,0,0,79.2-10C80.4-3.2,85.68.64,96.08.64,107.12.64,112.96-4.96,112.96-15.28ZM126.96,0V-63.6h-7.28V0Zm42,0c0-.08-.08-8.08-.08-15.6V-34.4H150v6.48h12.24V-13.2c-.96,4.24-4.32,7.68-10,7.68-9.6,0-10.96-6.96-10.96-26.08,0-20,1.84-25.84,10.8-25.84,7.92,0,9.6,6.48,9.6,14.48h6.96c0-11.28-3.36-21.28-16.56-21.28-14.96,0-18.16,11.04-18.16,32.48,0,24.72,5.12,32.4,17.36,32.4,6.64,0,10.24-2.88,11.84-5.6l.4,4.96Zm39.52,0V-63.6h-6.72v48.16L184.24-63.6H176V0h6.64V-48.64L200.48,0Z" transform="translate(-11746 -4041)" fill="#5f88b1"/>
      <path id="Path_253" data-name="Path 253" d="M13.56,0,9.02-9l4.44-6.9H11.5L6.8-8.56V-15.9H5.02V0H6.8V-6.04L7.82-7.48,11.58,0ZM28,0V-1.68H22.46v-5.5h5.18V-8.84H22.46v-5.38h5.5V-15.9H20.7V0ZM43.62-11.48a7.121,7.121,0,0,0-.38-2.66,2.667,2.667,0,0,0-2.8-1.76H35.66V0H37.4V-7.12h2.76L42.52,0h1.8L41.88-7.48a2.26,2.26,0,0,0,1.34-1.28A7.33,7.33,0,0,0,43.62-11.48Zm-1.84.2a6.917,6.917,0,0,1-.22,1.84,1.245,1.245,0,0,1-1.22.72l-2.92.02v-5.56h2.72a1.409,1.409,0,0,1,1.5,1.06A10.592,10.592,0,0,1,41.78-11.28ZM59.86,0V-15.9H58.18V-3.86L53.8-15.9H51.74V0H53.4V-12.16L57.86,0ZM69.92,0V-15.9H68.1V0ZM86.3,0V-15.9H84.62V-3.86L80.24-15.9H78.18V0h1.66V-12.16L84.3,0Zm16.48,0c0-.02-.02-2.02-.02-3.9V-8.6H98.04v1.62h3.06V-3.3a2.409,2.409,0,0,1-2.5,1.92c-2.4,0-2.74-1.74-2.74-6.52,0-5,.46-6.46,2.7-6.46,1.98,0,2.4,1.62,2.4,3.62h1.74c0-2.82-.84-5.32-4.14-5.32-3.74,0-4.54,2.76-4.54,8.12,0,6.18,1.28,8.1,4.34,8.1a3.214,3.214,0,0,0,2.96-1.4l.1,1.24Z" transform="translate(-11746 -4117)" fill="#0099d1"/>
      <path id="Path_242" data-name="Path 242" d="M13.86-16.53c0-2.73-.42-4.38-1.08-5.4a4.042,4.042,0,0,0-3.9-1.92H1.71V0H4.38V-9.3s3.87.03,4.38,0a4.87,4.87,0,0,0,4.05-1.95C13.53-12.3,13.86-13.83,13.86-16.53Zm-2.73.06a8.093,8.093,0,0,1-.45,3.42,2.486,2.486,0,0,1-2.52,1.29H4.38v-9.57H8.31a2.315,2.315,0,0,1,2.34,1.26A9.129,9.129,0,0,1,11.13-16.47ZM17.55-5.85h6.48L25.29,0h2.76L22.74-23.85H19.35L13.56,0h2.7Zm6-2.4H18.12s2.37-9.9,2.46-10.32c.06-.3.39-2.34.39-2.34s.27,2.04.33,2.34C21.36-18.24,23.55-8.25,23.55-8.25Zm18.18-8.97a10.681,10.681,0,0,0-.57-3.99c-.63-1.62-1.86-2.64-4.2-2.64H29.79V0H32.4V-10.68h4.14L40.08,0h2.7L39.12-11.22a3.39,3.39,0,0,0,2.01-1.92A11,11,0,0,0,41.73-17.22Zm-2.76.3a10.376,10.376,0,0,1-.33,2.76,1.867,1.867,0,0,1-1.83,1.08c-.15,0-4.38.03-4.38.03v-8.34h4.08a2.114,2.114,0,0,1,2.25,1.59A15.888,15.888,0,0,1,38.97-16.92ZM47.34-5.85h6.48L55.08,0h2.76L52.53-23.85H49.14L43.35,0h2.7Zm6-2.4H47.91s2.37-9.9,2.46-10.32c.06-.3.39-2.34.39-2.34s.27,2.04.33,2.34C51.15-18.24,53.34-8.25,53.34-8.25ZM71.73,0c0-.03-.03-3.03-.03-5.85V-12.9H64.62v2.43h4.59v5.52a3.613,3.613,0,0,1-3.75,2.88c-3.6,0-4.11-2.61-4.11-9.78,0-7.5.69-9.69,4.05-9.69,2.97,0,3.6,2.43,3.6,5.43h2.61c0-4.23-1.26-7.98-6.21-7.98-5.61,0-6.81,4.14-6.81,12.18C58.59-2.64,60.51.24,65.1.24c2.49,0,3.84-1.08,4.44-2.1L69.69,0ZM86.31-17.22a10.681,10.681,0,0,0-.57-3.99c-.63-1.62-1.86-2.64-4.2-2.64H74.37V0h2.61V-10.68h4.14L84.66,0h2.7L83.7-11.22a3.39,3.39,0,0,0,2.01-1.92A11,11,0,0,0,86.31-17.22Zm-2.76.3a10.376,10.376,0,0,1-.33,2.76,1.867,1.867,0,0,1-1.83,1.08c-.15,0-4.38.03-4.38.03v-8.34h4.08a2.114,2.114,0,0,1,2.25,1.59A15.887,15.887,0,0,1,83.55-16.92ZM91.92-5.85H98.4L99.66,0h2.76L97.11-23.85H93.72L87.93,0h2.7Zm6-2.4H92.49s2.37-9.9,2.46-10.32c.06-.3.39-2.34.39-2.34s.27,2.04.33,2.34C95.73-18.24,97.92-8.25,97.92-8.25Zm18.39-8.28c0-2.73-.42-4.38-1.08-5.4a4.042,4.042,0,0,0-3.9-1.92h-7.17V0h2.67V-9.3s3.87.03,4.38,0a4.87,4.87,0,0,0,4.05-1.95C115.98-12.3,116.31-13.83,116.31-16.53Zm-2.73.06a8.093,8.093,0,0,1-.45,3.42,2.486,2.486,0,0,1-2.52,1.29h-3.78v-9.57h3.93a2.315,2.315,0,0,1,2.34,1.26A9.129,9.129,0,0,1,113.58-16.47ZM131.1,0V-23.85h-2.67v10.56h-6.96V-23.85H118.8V0h2.67V-10.74h6.96V0Z" transform="translate(-11742 -3972)" fill="#258abf"/>
    </g>
  </g>
</svg>
