<svg id="Layer_1" data-name="Layer 1" xmlns="http://www.w3.org/2000/svg" viewBox="0 0 267.87 383.71"><title>Titling</title><g id="Group_143" data-name="Group 143"><path id="Path_230" data-name="Path 230" d="M43.55,33.26h9.33V.35H43.55v11.3H.65V21.89h42.9Zm9.33,39.81V62.69s-21.94-9.46-23.52-9.53c1.58-.13,23.52-8.6,23.52-8.6V33.85L19.31,48H.66V58.29H19.44ZM36.26,109.59c6,0,9.2-.66,12.48-3,3.61-2.5,4.14-6.9,4.14-11.89V76.15H.66V86.47H19.71s-.07,8.34,0,9.72c.2,4.8,1.51,8.34,4.27,10.51,2.43,2,6.3,2.89,12.28,2.89Zm-.33-10.31a14.75,14.75,0,0,1-5-.53c-1.77-.53-2.56-2-2.56-4.8V86.47h15.3v7.75c0,2.23-.85,3.68-2.23,4.33a16.11,16.11,0,0,1-5.52.73ZM53.4,130.81c0-8.87-3.87-13.4-8.67-15.64-4.46-2.1-11.5-2.63-17.8-2.63-6.5,0-13.86.73-18.46,2.63C2.3,117.73,0,123.84,0,130.81c0,8.86,3.55,13.73,8.6,15.63,6.11,2.3,11.5,2.69,18.53,2.69,6.7,0,14.12-.78,17.6-2.3C50.05,144.54,53.4,139.68,53.4,130.81Zm-44.6.13c0-3.29,1.19-4.86,3.16-6,2.36-1.31,9.92-2,14.71-2s12,.59,14.12,1.64c2.43,1.18,3.81,2.63,3.81,6.24,0,3.42-1.64,5.52-3.74,6.31-3.35,1.25-9.53,1.64-14.06,1.64-4.86,0-12.48-.53-14.71-1.84-1.91-1.11-3.29-2.69-3.29-6ZM.66,187.63c.13,0,6.7-.07,12.87-.07h17V169.1H21.74V178H13.86c-3.48-.46-5.39-3.15-5.39-7.16,0-3.22,1.12-5.19,3.61-6.3,2-.92,7.89-1.58,14.46-1.58,7.88,0,12,.59,14.65,1.71,2.16.92,3.35,3.15,3.35,6,0,2.63-1.19,4.66-3,5.45a19.52,19.52,0,0,1-6.57,1v10.11c2.17,0,7-.33,9.6-1.31,4.73-1.77,8.93-6.11,8.93-15.57,0-9.07-4.34-13.6-8.67-15.5-4.86-2.17-11.3-2.56-18.13-2.56-7.75,0-14.91,1.05-18.66,2.82C3,157.54.06,162.14.06,169c0,5.32,1.65,8.48,3.88,10.38l-3.28.46Zm36.91,37.7c4.53,0,7.62-.72,10.18-2,3.29-1.71,5.13-5.72,5.13-10.71V192.36H.66v10H21.87v7.35l-21.22,7v10.9l23.72-8.47a7.66,7.66,0,0,0,4.27,4.66A21.32,21.32,0,0,0,37.57,225.33Zm-.92-10.05a13.09,13.09,0,0,1-4.47-.72A3.9,3.9,0,0,1,30.34,211v-8.54H43.81v8.15c0,2.1-1,3.68-2.56,4.14a19.79,19.79,0,0,1-4.6.52ZM13.33,241.36v12.55L.65,256.6V267l52.23-12v-13.8L.66,228.29v10.25Zm8.21,10.71V243.4c5.45,1.31,13.53,3.22,15.63,3.61,1.71.33,6.11.92,6.11.92s-4.4.53-6,.86c-2.16.46-10.51,2.1-15.7,3.28Zm14.71,51.44c6,0,9.2-.66,12.49-3,3.61-2.5,4.13-6.9,4.13-11.89V270.07H.66v10.31H19.71s-.07,8.35,0,9.72c.2,4.8,1.51,8.35,4.27,10.51,2.43,2,6.3,2.89,12.28,2.89Zm-.32-10.32a14.83,14.83,0,0,1-5-.52c-1.77-.53-2.56-2-2.56-4.8v-7.49H43.68v7.75c0,2.23-.85,3.68-2.23,4.33a16.11,16.11,0,0,1-5.52.73ZM.65,341.34H52.88V331.16H31.33v-13H52.88V308H.66v10.18H22.2v13H.66Zm52.23,42.37V373.33s-21.94-9.46-23.52-9.52c1.58-.13,23.52-8.61,23.52-8.61V344.49L19.31,358.62H.66v10.31H19.44Z" style="fill:#094c84"/><path id="Path_239" data-name="Path 239" d="M85.44,273.63H81.27a17.35,17.35,0,0,1-.94,6.15c-.89,2.3-2.82,3.15-5.16,3.15A5.42,5.42,0,0,1,69.91,280c-.89-1.79-1.5-8-1.5-12.53s.24-9.43,1.41-12c.94-2,2.63-2.82,5.25-2.82s4.18.89,5,2.67a19.12,19.12,0,0,1,1.08,6.53H85.4a22.41,22.41,0,0,0-1.18-7.79c-1.17-3.33-4.46-5.4-9.1-5.4s-7.65,1.74-9.2,5.07c-1.36,3-1.87,7.13-1.87,13.7,0,5.4.51,11.59,2.3,14.69,1.87,3.28,4.5,4.55,8.72,4.55,4.6,0,7.89-2,9.29-6A20.49,20.49,0,0,0,85.44,273.63Zm23,12.67V249h-4.18v16.52H93.32V249H89.15v37.3h4.17V269.5h10.89v16.8Zm8.91-9.15h10.14l2,9.15h4.31l-8.3-37.3h-5.3l-9.06,37.3h4.23Zm9.39-3.75H118.2s3.7-15.48,3.84-16.14c.09-.47.61-3.66.61-3.66s.42,3.19.52,3.66,3.52,16.14,3.52,16.14Zm28.43-14a16.75,16.75,0,0,0-.89-6.24c-1-2.53-2.91-4.13-6.57-4.13H136.44v37.3h4.09V269.6H147l5.54,16.7h4.22L151,268.75a5.26,5.26,0,0,0,3.14-3A17.26,17.26,0,0,0,155.12,259.37Zm-4.32.47a16.12,16.12,0,0,1-.51,4.32,2.94,2.94,0,0,1-2.87,1.69l-6.84,0v-13H147a3.29,3.29,0,0,1,3.51,2.49,24.17,24.17,0,0,1,.33,4.5Zm13.1,17.31H174l2,9.15h4.32L172,249h-5.3l-9.05,37.3h4.22Zm9.38-3.75h-8.49s3.71-15.48,3.84-16.14c.1-.47.61-3.66.61-3.66s.42,3.19.52,3.66,3.52,16.14,3.52,16.14Zm29.61.23h-4.18a17.35,17.35,0,0,1-.94,6.15c-.89,2.3-2.81,3.15-5.16,3.15a5.4,5.4,0,0,1-5.25-2.91c-.89-1.79-1.5-8-1.5-12.53s.23-9.43,1.41-12c.93-2,2.62-2.82,5.25-2.82s4.18.89,5,2.68a19.27,19.27,0,0,1,1.08,6.52h4.22a22.17,22.17,0,0,0-1.17-7.79c-1.18-3.33-4.46-5.4-9.1-5.4s-7.65,1.74-9.2,5.07c-1.37,3-1.88,7.13-1.88,13.7,0,5.4.51,11.59,2.3,14.69,1.88,3.28,4.5,4.55,8.73,4.55,4.6,0,7.88-2,9.29-6a20.73,20.73,0,0,0,1.08-7Zm20.88-20.73V249h-19.9v3.9h7.79v33.4h4.27V252.9Zm19.89,33.4v-3.94h-13v-12.9h12.15v-3.89H230.66V252.94h12.9V249h-17v37.3Zm22.57-26.93a16.75,16.75,0,0,0-.89-6.24c-1-2.53-2.91-4.13-6.57-4.13H247.55v37.3h4.09V269.6h6.47l5.54,16.7h4.22l-5.72-17.55a5.26,5.26,0,0,0,3.14-3A17.26,17.26,0,0,0,266.23,259.37Zm-4.32.47a16.53,16.53,0,0,1-.51,4.32,2.94,2.94,0,0,1-2.87,1.69l-6.85,0v-13h6.38a3.29,3.29,0,0,1,3.52,2.49,24.17,24.17,0,0,1,.33,4.5Z" style="fill:#2371aa"/><path id="Path_255" data-name="Path 255" d="M97.35,51.52c0-9.54-4.48-14.61-12.25-19.43-1.52-.92-4.3-2.61-6.33-3.88-7.26-4.56-9.63-7.6-9.63-13.18,0-5.15,2.7-8.27,9.38-8.27s9.37,2.2,10.3,7a32.47,32.47,0,0,1,.25,5.49h7.6a32.64,32.64,0,0,0-.42-6.84C94.65,4.56,89.58,0,78.77,0,67-.08,61.28,6.17,61.28,15c0,9.12,4.73,13.77,12.25,18.58l6.59,4.23c7.09,4.47,9.46,8,9.46,14.27,0,6.67-3.3,9.63-9.8,9.63-5.92,0-10-1.69-10.65-6.17-.25-1.85-.5-5.23-.5-6.67H61.2a43.19,43.19,0,0,0,.51,8.19C63,64.27,68.55,68.33,79.53,68.33,91.18,68.33,97.35,62.41,97.35,51.52Zm37.5-44v-7H99v7h14V67.65h7.69V7.52Zm42.82-7h-7.6s-13.6,33.19-13.6,35c-.09-1.78-12.84-35-12.84-35h-7.85L152.51,44V67.65h7.67V43.83ZM212.3,67.65V60.56H190.17V.51h-7.6V67.65Zm36.65,0V60.56H225.56V37.33h21.87v-7H225.56V7.6h23.22V.51H218.13V67.65Z" style="fill:#24648d"/><path id="Path_231" data-name="Path 231" d="M91,346.19v-8H66.18V383H75V364.49H90v-7.88H75V346.19Zm20.66-8.44c-7.6,0-11.49,3.32-13.4,7.43C96.47,349,96,355,96,360.44c0,5.57.62,11.88,2.25,15.82,2.2,5.29,7.43,7.26,13.4,7.26,7.6,0,11.77-3,13.4-7.37,2-5.24,2.31-9.86,2.31-15.88,0-5.74-.68-12.11-2-15.09C123.44,340.62,119.27,337.75,111.67,337.75Zm.11,38.23c-2.81,0-4.16-1-5.12-2.7-1.13-2-1.69-8.5-1.69-12.61s.51-10.3,1.41-12.11c1-2.08,2.25-3.27,5.35-3.27,2.93,0,4.73,1.41,5.4,3.21,1.07,2.88,1.41,8.17,1.41,12.05,0,4.17-.45,10.7-1.58,12.61a5.32,5.32,0,0,1-5.18,2.82Zm50.51,7V338.2h-8.22v26.07L143.31,338.2h-9.12V383h8.28v-25.9l11,25.9Zm33.84-36.77v-8H167.92v8h9.68V383h8.79V346.19Z" style="fill:#2d7198"/><path id="Path_245" data-name="Path 245" d="M70,196.85c0-2-1-3.13-2.42-4.33l-1.34-1.07c-1.23-1-2.3-2-2.3-3.51A2.3,2.3,0,0,1,66,185.45a2.57,2.57,0,0,1,.48,0,2.45,2.45,0,0,1,2.66,2.07,8.21,8.21,0,0,1,.15,1.4h.56a9.28,9.28,0,0,0-.15-1.48,2.85,2.85,0,0,0-3.16-2.5h0a2.85,2.85,0,0,0-3.16,2.51,3.54,3.54,0,0,0,0,.46c0,1.6,1,2.68,2.37,3.83.47.37,1,.8,1.35,1.09,1.39,1.24,2.35,2.1,2.35,4.09a2.35,2.35,0,0,1-2,2.66,2,2,0,0,1-.69,0c-1.52,0-2.48-.6-2.78-1.91a10.19,10.19,0,0,1-.13-1.65h-.56a8.21,8.21,0,0,0,.15,1.85c.39,1.47,1.5,2.22,3.34,2.22C68.9,200.1,70,199,70,196.85Zm8-7.43a8.25,8.25,0,0,0-.43-3.19,2.16,2.16,0,0,0-2.18-1.18H71.92V200h.54v-6.22s2.61,0,2.84,0a2.43,2.43,0,0,0,2.21-1.16,6.73,6.73,0,0,0,.45-3.17Zm-.56,0a7,7,0,0,1-.36,2.87,1.84,1.84,0,0,1-1.84,1H72.46v-7.68h2.78a1.83,1.83,0,0,1,1.78.92,7.69,7.69,0,0,1,.38,2.93Zm2.12,6.66h4.56L85,200h.54l-3.27-14.92h-.6L78.08,200h.54ZM84,195.6H79.63l1.92-8.25.37-1.82.28,1.82Zm9.34-.32h-.58c0,2.68-.85,4.31-2.84,4.31-2.5,0-3.17-2.34-3.17-7.17,0-5,1-6.9,3.29-6.9,2.12,0,2.72,1.87,2.72,4.24h.6c0-3.29-1.11-4.8-3.32-4.8-2.37,0-3.87,1.5-3.87,7.45s1.22,7.7,3.77,7.7C92.11,200.1,93.33,198.43,93.33,195.28Zm7.44,4.69v-.51H95.68v-6.79h4.73v-.51H95.68v-6.59h5v-.52H95.14V200Z" style="fill:#166183"/><path id="Path_236" data-name="Path 236" d="M83.32,328.53V298.69H81.75l-6.68,28.45L68.5,298.69H67v29.84H68V300.72l6.34,27.81h1.32l6.6-27.85,0,27.85Zm5.52-7.77H98l1.73,7.77h1.09l-6.53-29.84h-1.2L86,328.53H87Zm8.93-1h-8.7l3.83-16.48.75-3.65.56,3.65Zm17.3-13.25a18.42,18.42,0,0,0-.3-4.13c-.45-2.29-1.72-3.72-4.43-3.72h-6.93v29.84h1.09V313.74h6.38l4.54,14.79h1.12l-4.61-15a3.55,3.55,0,0,0,2.47-2.14,13.27,13.27,0,0,0,.68-4.84Zm-1.09.15a16.86,16.86,0,0,1-.52,4.24c-.42,1-1.09,1.87-3.27,1.87H104.5V299.74h5.89a3,3,0,0,1,3.19,2.52,24.34,24.34,0,0,1,.41,4.43Zm18.14,21.84V313.41H124.5v1H131s0,8.22,0,9.2a5.32,5.32,0,0,1-5.4,4.13c-5.33,0-5.9-5.82-5.9-14.16,0-11,1.58-14,5.9-14s5.29,4.27,5.29,8.3h1.16c0-6.09-2-9.43-6.45-9.43-4.28,0-7.06,2.14-7.06,15.13,0,9.12.53,15.2,7.09,15.2,3.46,0,5.18-2.14,5.56-3.38l.11,3.12Zm5,0V298.69H136v29.84Zm17.53,0V298.69h-1v28l-10-28h-1.46v29.84h1V300.15l10.1,28.38Z" style="fill:#225576"/><path id="Path_246" data-name="Path 246" d="M92,163.56c2.47-4.2,2.85-9.31,2.85-24.55,0-13.21-.3-17.72-2.55-22.15-2-4-6.76-6.6-13.37-6.6H63.12v59.68H79.33C86,169.94,89.77,167.31,92,163.56Zm-5.63-3.46c-1.43,2.48-4.36,3.68-7.89,3.68H69.72V116.56h8.34c3.68,0,6.9,1.28,8.26,4.2,1.87,4,1.72,8,1.72,18.24C88,152.29,87.82,157.4,86.32,160.1Zm42.26,9.84v-6.31h-20.8V143h19.45v-6.23H107.79v-20.2h20.64v-6.3H101.18v59.68Zm36.26-14.34c0-8.48-4-13-10.88-17.27-1.35-.82-3.83-2.32-5.63-3.45-6.46-4-8.56-6.76-8.56-11.71,0-4.58,2.4-7.36,8.33-7.36s8.33,2,9.16,6.23a28.44,28.44,0,0,1,.22,4.88h6.76a28.81,28.81,0,0,0-.37-6.08c-1.43-7-5.93-11-15.54-11-10.44-.07-15.54,5.48-15.54,13.37,0,8.11,4.2,12.23,10.88,16.51l5.86,3.76c6.3,4,8.41,7.13,8.41,12.68,0,5.94-2.93,8.56-8.71,8.56-5.26,0-8.86-1.5-9.46-5.48a58.45,58.45,0,0,1-.45-5.93h-6.61a38.5,38.5,0,0,0,.45,7.28c1.13,6.38,6.08,10,15.84,10C159.36,170.54,164.84,165.28,164.84,155.6ZM178,169.94V110.26h-6.83v59.68Zm39.41,0c0-.08-.07-7.58-.07-14.64V137.66H199.6v6.08h11.49v13.81c-.9,4-4.06,7.21-9.39,7.21-9,0-10.28-6.53-10.28-24.47,0-18.77,1.73-24.25,10.13-24.25,7.43,0,9,6.08,9,13.58h6.53c0-10.58-3.15-20-15.54-20-14,0-17,10.36-17,30.48,0,23.2,4.8,30.4,16.29,30.4,6.23,0,9.61-2.7,11.11-5.25l.38,4.65Zm37.09,0V110.26h-6.31v45.19l-16.44-45.19H224v59.68h6.23V124.29L247,169.94Z" style="fill:#5f88b1"/><path id="Path_253" data-name="Path 253" d="M71.56,98.62,67.3,90.17l4.17-6.47H69.63l-4.41,6.89V83.7H63.55V98.62h1.67V93l1-1.35,3.53,7Zm13.55,0V97h-5.2V91.88h4.87V90.32H79.92v-5h5.16V83.7H78.26V98.62ZM99.77,87.85a6.83,6.83,0,0,0-.35-2.5,2.51,2.51,0,0,0-2.63-1.66H92.3V98.62h1.64V91.94h2.59l2.21,6.68h1.69l-2.29-7a2.13,2.13,0,0,0,1.26-1.2A6.92,6.92,0,0,0,99.77,87.85ZM98.05,88a7.13,7.13,0,0,1-.21,1.73,1.18,1.18,0,0,1-1.15.68l-2.74,0V85.24h2.56a1.33,1.33,0,0,1,1.41,1A10.9,10.9,0,0,1,98.05,88Zm17,10.59V83.7h-1.57V95l-4.11-11.3h-1.94V98.62H109V87.21l4.19,11.41Zm9.44,0V83.7h-1.7V98.62Zm15.37,0V83.7h-1.57V95l-4.11-11.3H132.2V98.62h1.56V87.21L138,98.62Zm15.47,0s0-1.9,0-3.66V90.55h-4.43v1.52h2.87v3.45a2.24,2.24,0,0,1-2.34,1.8c-2.25,0-2.57-1.63-2.57-6.12,0-4.69.43-6.06,2.53-6.06,1.86,0,2.25,1.52,2.25,3.4h1.64c0-2.64-.79-5-3.89-5-3.51,0-4.26,2.59-4.26,7.62,0,5.8,1.2,7.6,4.07,7.6a3,3,0,0,0,2.78-1.31l.09,1.16Z" style="fill:#0099d1"/><path id="Path_242" data-name="Path 242" d="M75.6,219.17c0-2.56-.4-4.11-1-5.06a3.79,3.79,0,0,0-3.66-1.8H64.2v22.38h2.5V226s3.63,0,4.11,0a4.54,4.54,0,0,0,3.8-1.83C75.29,223.15,75.6,221.71,75.6,219.17Zm-2.56.06a7.62,7.62,0,0,1-.43,3.21,2.32,2.32,0,0,1-2.36,1.21H66.7v-9h3.69a2.17,2.17,0,0,1,2.2,1.19,8.76,8.76,0,0,1,.45,3.37Zm6,10h6.08l1.18,5.49h2.59l-5-22.38H80.75l-5.43,22.38h2.53Zm5.63-2.26h-5.1s2.23-9.29,2.31-9.68.37-2.2.37-2.2.25,1.91.31,2.2S84.69,227,84.69,227Zm17.06-8.41a10.15,10.15,0,0,0-.53-3.75,3.76,3.76,0,0,0-3.94-2.48H90.55v22.39H93v-10h3.89l3.31,10h2.54L99.3,224.16a3.17,3.17,0,0,0,1.89-1.8,10.18,10.18,0,0,0,.56-3.83Zm-2.59.28a9.47,9.47,0,0,1-.31,2.59,1.75,1.75,0,0,1-1.71,1l-4.11,0v-7.83h3.83A2,2,0,0,1,99,216.1a15.44,15.44,0,0,1,.19,2.71ZM107,229.2h6.08l1.18,5.49h2.59l-5-22.38h-3.18l-5.44,22.38h2.54Zm5.63-2.25h-5.1s2.22-9.29,2.31-9.69.36-2.2.36-2.2.26,1.92.31,2.2S112.65,227,112.65,227Zm17.25,7.74s0-2.84,0-5.49v-6.62h-6.65v2.28h4.31V230a3.39,3.39,0,0,1-3.52,2.7c-3.38,0-3.86-2.44-3.86-9.17,0-7,.65-9.1,3.8-9.1,2.79,0,3.38,2.28,3.38,5.1h2.45c0-4-1.18-7.49-5.83-7.49-5.26,0-6.39,3.89-6.39,11.43,0,8.7,1.8,11.4,6.11,11.4a4.52,4.52,0,0,0,4.17-2l.14,1.75Zm13.69-16.16a9.9,9.9,0,0,0-.54-3.74,3.75,3.75,0,0,0-3.94-2.48h-6.72v22.38h2.45v-10h3.88l3.32,10h2.53l-3.43-10.53a3.18,3.18,0,0,0,1.88-1.8A10.39,10.39,0,0,0,143.59,218.53Zm-2.59.28a9.77,9.77,0,0,1-.31,2.59,1.77,1.77,0,0,1-1.72,1l-4.11,0v-7.82h3.83a2,2,0,0,1,2.11,1.49,15.27,15.27,0,0,1,.2,2.7Zm7.85,10.39h6.08l1.18,5.49h2.59l-5-22.38h-3.18l-5.43,22.38h2.53Zm5.64-2.25h-5.1s2.22-9.29,2.31-9.69.36-2.2.36-2.2.25,1.92.31,2.2S154.49,227,154.49,227Zm17.25-7.78c0-2.56-.39-4.11-1-5.06a3.79,3.79,0,0,0-3.66-1.8h-6.73v22.38h2.5V226s3.64,0,4.11,0a4.54,4.54,0,0,0,3.8-1.83C171.43,223.15,171.74,221.71,171.74,219.17Zm-2.56.06a7.78,7.78,0,0,1-.42,3.21,2.34,2.34,0,0,1-2.37,1.21h-3.55v-9h3.69a2.17,2.17,0,0,1,2.2,1.19,8.57,8.57,0,0,1,.45,3.37Zm16.44,15.46V212.31h-2.51v9.91h-6.52v-9.91h-2.51v22.38h2.51V224.61h6.53v10.08Z" style="fill:#258abf"/></g></svg>
