<svg xmlns="http://www.w3.org/2000/svg" xmlns:xlink="http://www.w3.org/1999/xlink" width="302" height="411" viewBox="0 0 302 411">
  <defs>
    <clipPath id="clip-Ubuntu2">
      <rect width="302" height="411"/>
    </clipPath>
  </defs>
  <g id="Ubuntu2" clip-path="url(#clip-Ubuntu2)">
    <g id="Group_71" data-name="Group 71" transform="translate(11817 3082)">
      <path id="Path_193" data-name="Path 193" d="M37.746,17.521v8.094H24.812V66.641h-9.84V25.615H2.038V17.521Zm22.14,22.457q.873-1.825,2.024-4.6t2.3-5.872q1.151-3.095,2.222-6.269t1.944-5.713H78.454q-1.508,4.047-3.015,7.856t-3.174,7.539q-1.666,3.73-3.571,7.42t-4.126,7.578V66.641h-9.84V47.993q-4.364-7.7-7.658-15.037T40.762,17.521H51.236q1.825,5.713,4.047,11.625T59.886,39.978Zm37.3-23.012q9.364,0,14.522,3.849t5.158,12.577q0,8.808-5.2,12.736t-14.72,3.928H93.452V66.641h-9.76V18.156q1.428-.317,3.214-.555t3.611-.357q1.825-.119,3.571-.2T97.182,16.966Zm1.111,8.491q-.873,0-2.42.04a16.678,16.678,0,0,0-2.42.2V41.565H97.42q4.682,0,7.062-1.865t2.381-6.388q0-4.285-2.341-6.071A10.012,10.012,0,0,0,98.293,25.457Zm32.852,16.585q0,3.571.278,6.705a21.646,21.646,0,0,0,1.111,5.436,8.8,8.8,0,0,0,2.341,3.65,6.685,6.685,0,0,0,8.054,0,8.594,8.594,0,0,0,2.381-3.69,22.155,22.155,0,0,0,1.111-5.436q.278-3.095.278-6.666t-.278-6.705a21.646,21.646,0,0,0-1.111-5.436,8.8,8.8,0,0,0-2.341-3.65,6.745,6.745,0,0,0-8.094,0,8.785,8.785,0,0,0-2.341,3.69,22.156,22.156,0,0,0-1.111,5.436Q131.145,38.471,131.145,42.042Zm-9.919,0q0-12.7,4.682-19.164a15.163,15.163,0,0,1,13.014-6.467q8.649,0,13.173,6.467t4.523,19.164q0,12.7-4.6,19.164T139,67.673q-8.649,0-13.212-6.467T121.226,42.042ZM183.518,24.9a12.358,12.358,0,0,0-5.872,1.27,10.936,10.936,0,0,0-3.928,3.531,15.061,15.061,0,0,0-2.222,5.4,33.066,33.066,0,0,0-.674,6.943q0,8.808,2.777,12.974a9.2,9.2,0,0,0,8.173,4.166q.873,0,1.9-.079a18.7,18.7,0,0,0,1.9-.238V40.931h9.76v24.52a45.059,45.059,0,0,1-5.436,1.428,43.131,43.131,0,0,1-8.927.794,20.348,20.348,0,0,1-8.292-1.627,16.779,16.779,0,0,1-6.309-4.841,22.84,22.84,0,0,1-4.047-8.015A39.215,39.215,0,0,1,160.9,42.042a33.71,33.71,0,0,1,1.666-11.07,23.947,23.947,0,0,1,4.523-8.054,18.265,18.265,0,0,1,6.745-4.88,21.368,21.368,0,0,1,8.332-1.627,27.161,27.161,0,0,1,5.118.436,31.317,31.317,0,0,1,3.928.992,14.3,14.3,0,0,1,2.738,1.19q1.071.635,1.627.952l-2.539,7.777a20.274,20.274,0,0,0-4.285-1.984A16,16,0,0,0,183.518,24.9Zm31.9-7.935a28.323,28.323,0,0,1,7.618.952,16.136,16.136,0,0,1,5.872,2.936,12.86,12.86,0,0,1,3.769,5.039,18.129,18.129,0,0,1,1.309,7.181,17.145,17.145,0,0,1-1.746,7.777,11.439,11.439,0,0,1-5.793,5.317q1.349,2.063,2.857,4.563t2.936,5.237q1.428,2.738,2.738,5.475t2.262,5.2H227a74.006,74.006,0,0,0-4.245-9.165q-2.42-4.4-5.2-8.927h-5.079V66.641h-9.76V18.236q1.428-.317,3.134-.6t3.452-.4q1.746-.119,3.333-.2T215.418,16.966ZM224.067,33q0-3.888-2.381-5.713a10.029,10.029,0,0,0-6.269-1.825q-.555,0-1.349.04a10.843,10.843,0,0,0-1.587.2v14.76h2.143q5,0,7.221-1.944A6.937,6.937,0,0,0,224.067,33ZM266.6,66.641l-2.3-11.347H251.206l-2.222,11.347H238.827q3.492-14.522,7.062-26.464t6.9-22.655h10.633q3.492,10.792,6.943,22.893t6.705,26.226Zm-8.729-39.6q-.794,2.777-1.468,5.277t-1.27,4.92q-.6,2.42-1.111,4.88t-.992,5.079h9.6q-.476-2.619-.952-5.079t-1.071-4.88q-.6-2.42-1.27-4.92T257.872,27.044Zm37.693-10.078q9.364,0,14.522,3.849t5.158,12.577q0,8.808-5.2,12.736t-14.72,3.928h-3.492V66.641h-9.76V18.156q1.428-.317,3.214-.555t3.611-.357q1.825-.119,3.571-.2T295.564,16.966Zm1.111,8.491q-.873,0-2.42.04a16.677,16.677,0,0,0-2.42.2V41.565H295.8q4.682,0,7.062-1.865t2.381-6.388q0-4.285-2.341-6.071A10.012,10.012,0,0,0,296.675,25.457Zm56.9-7.935v49.12h-9.76V44.978H330.8V66.641h-9.76V17.521h9.76V36.884h13.014V17.521ZM377.3,39.978q.873-1.825,2.023-4.6t2.3-5.872q1.151-3.095,2.222-6.269t1.944-5.713h10.078q-1.508,4.047-3.015,7.856t-3.174,7.539q-1.666,3.73-3.571,7.42t-4.126,7.578V66.641h-9.84V47.993q-4.364-7.7-7.658-15.037t-6.309-15.434h10.475q1.825,5.713,4.047,11.625T377.3,39.978Z" transform="translate(-11742.693 -3079) rotate(90)" fill="#094c84"/>
      <path id="Path_171" data-name="Path 171" d="M8.37.39A5.268,5.268,0,0,1,4.2-1.35,6.88,6.88,0,0,1,2.67-6.06a16.422,16.422,0,0,1,.69-4.695A13.91,13.91,0,0,1,5.355-14.91,10.6,10.6,0,0,1,8.52-17.865a7.955,7.955,0,0,1,4.2-1.125,7.306,7.306,0,0,1,2.895.48,7.116,7.116,0,0,1,1.6.9l-1.17,1.98a4.726,4.726,0,0,0-1.485-.81,5.8,5.8,0,0,0-2.025-.36,5.513,5.513,0,0,0-3.1.9,7.924,7.924,0,0,0-2.31,2.37A12,12,0,0,0,5.67-10.215,14.067,14.067,0,0,0,5.16-6.45a5.446,5.446,0,0,0,.96,3.405A3.309,3.309,0,0,0,8.91-1.8a7.958,7.958,0,0,0,2.55-.375,8.64,8.64,0,0,0,1.65-.705l.27,2.1a2.738,2.738,0,0,1-.645.345,9.518,9.518,0,0,1-1.11.375A13.6,13.6,0,0,1,10.14.255,11.15,11.15,0,0,1,8.37.39ZM16.35,0l4.86-20.37,2.58-.42-1.71,7.08a7.177,7.177,0,0,1,1.29-.375,7.171,7.171,0,0,1,1.38-.135,5.837,5.837,0,0,1,2.07.33,3.633,3.633,0,0,1,1.41.915,3.634,3.634,0,0,1,.8,1.4,5.869,5.869,0,0,1,.255,1.77,7.709,7.709,0,0,1-.12,1.32q-.12.69-.3,1.41L27.15,0H24.69l1.56-6.54q.18-.75.375-1.545A6.363,6.363,0,0,0,26.82-9.6a2.614,2.614,0,0,0-.6-1.755,2.776,2.776,0,0,0-2.19-.7,6.422,6.422,0,0,0-2.4.42L18.78,0ZM41.28.15A5.43,5.43,0,0,1,41.01-.5a4.089,4.089,0,0,1-.18-.765A7.385,7.385,0,0,1,39.165-.2,5.6,5.6,0,0,1,36.66.33a4.077,4.077,0,0,1-3.435-1.41A5.647,5.647,0,0,1,32.13-4.65a10.528,10.528,0,0,1,.6-3.51,8.97,8.97,0,0,1,1.815-3.06A9.015,9.015,0,0,1,37.59-13.4a10.279,10.279,0,0,1,4.26-.825q.36,0,.825.03a7.879,7.879,0,0,1,.945.12q.48.09.945.225a4.9,4.9,0,0,1,.825.315l-2.04,8.4q-.15.63-.255,1.185A6.372,6.372,0,0,0,42.99-2.76a6.486,6.486,0,0,0,.12,1.245A12.18,12.18,0,0,0,43.47-.15ZM37.17-1.71a4.179,4.179,0,0,0,2.025-.48A5.574,5.574,0,0,0,40.68-3.33q.03-.45.1-1.02a10.962,10.962,0,0,1,.195-1.08L42.63-12a2.511,2.511,0,0,0-.57-.1,6.578,6.578,0,0,0-.66-.045,6.309,6.309,0,0,0-2.775.6,6.825,6.825,0,0,0-2.145,1.6,7.1,7.1,0,0,0-1.38,2.31,7.8,7.8,0,0,0-.48,2.715,6.349,6.349,0,0,0,.12,1.275,2.756,2.756,0,0,0,.4,1.005,2.061,2.061,0,0,0,.78.675A2.7,2.7,0,0,0,37.17-1.71ZM47.67,0l3.18-13.2a20.813,20.813,0,0,1,6.39-1.02,16.1,16.1,0,0,1,1.65.075q.72.075,1.77.285l-.93,2.19q-.45-.12-.825-.195t-.7-.12q-.33-.045-.675-.06t-.8-.015a15.591,15.591,0,0,0-1.9.12,16.06,16.06,0,0,0-1.935.36L50.13,0ZM71.28.15A5.429,5.429,0,0,1,71.01-.5a4.089,4.089,0,0,1-.18-.765A7.385,7.385,0,0,1,69.165-.2a5.6,5.6,0,0,1-2.5.525,4.077,4.077,0,0,1-3.435-1.41A5.647,5.647,0,0,1,62.13-4.65a10.528,10.528,0,0,1,.6-3.51,8.97,8.97,0,0,1,1.815-3.06A9.015,9.015,0,0,1,67.59-13.4a10.279,10.279,0,0,1,4.26-.825q.36,0,.825.03a7.879,7.879,0,0,1,.945.12q.48.09.945.225a4.9,4.9,0,0,1,.825.315l-2.04,8.4q-.15.63-.255,1.185A6.372,6.372,0,0,0,72.99-2.76a6.486,6.486,0,0,0,.12,1.245A12.182,12.182,0,0,0,73.47-.15ZM67.17-1.71a4.179,4.179,0,0,0,2.025-.48A5.574,5.574,0,0,0,70.68-3.33q.03-.45.105-1.02a10.962,10.962,0,0,1,.195-1.08L72.63-12a2.511,2.511,0,0,0-.57-.1,6.578,6.578,0,0,0-.66-.045,6.309,6.309,0,0,0-2.775.6,6.825,6.825,0,0,0-2.145,1.6,7.1,7.1,0,0,0-1.38,2.31,7.8,7.8,0,0,0-.48,2.715,6.35,6.35,0,0,0,.12,1.275,2.756,2.756,0,0,0,.4,1.005,2.061,2.061,0,0,0,.78.675A2.7,2.7,0,0,0,67.17-1.71Zm9.96-3.27a10.13,10.13,0,0,1,.615-3.51,8.831,8.831,0,0,1,1.8-2.97,8.66,8.66,0,0,1,2.91-2.055,9.72,9.72,0,0,1,3.975-.765,12.492,12.492,0,0,1,2.16.165,8.564,8.564,0,0,1,1.74.495l-.93,2.1a8.73,8.73,0,0,0-1.215-.45,7.2,7.2,0,0,0-1.965-.21,6.346,6.346,0,0,0-2.76.585,6.381,6.381,0,0,0-2.085,1.56,6.883,6.883,0,0,0-1.305,2.22,7.576,7.576,0,0,0-.45,2.6,4.624,4.624,0,0,0,.18,1.3,2.543,2.543,0,0,0,.66,1.1,3.231,3.231,0,0,0,1.305.75,6.809,6.809,0,0,0,2.085.27,9.112,9.112,0,0,0,1.29-.09,9.28,9.28,0,0,0,1.17-.24q.54-.15.945-.3a2.7,2.7,0,0,0,.615-.3l.21,2.1a7.22,7.22,0,0,1-1.755.66A11.28,11.28,0,0,1,83.4.36a6.571,6.571,0,0,1-4.695-1.5A5.07,5.07,0,0,1,77.13-4.98ZM103.17-.39a16.63,16.63,0,0,1-1.815.51,9.176,9.176,0,0,1-2,.21A6.741,6.741,0,0,1,97.755.15a3.625,3.625,0,0,1-1.29-.585A2.722,2.722,0,0,1,95.6-1.53a4.2,4.2,0,0,1-.315-1.74,9.57,9.57,0,0,1,.105-1.38q.1-.72.285-1.47l1.41-5.73H94.14l.48-2.07h2.97l.93-3.9,2.58-.42-1.05,4.32h5.34l-.48,2.07H99.54L98.13-5.88q-.15.57-.27,1.11a4.834,4.834,0,0,0-.12,1.05A1.77,1.77,0,0,0,98.265-2.2a2.526,2.526,0,0,0,1.485.375,8.41,8.41,0,0,0,1.815-.2,11.566,11.566,0,0,0,1.665-.495Zm6.69-6.93q1.8-.03,3.24-.165a10.12,10.12,0,0,0,2.445-.495,3.5,3.5,0,0,0,1.545-1,2.46,2.46,0,0,0,.54-1.635,1.409,1.409,0,0,0-.1-.51,1.407,1.407,0,0,0-.36-.51,1.885,1.885,0,0,0-.705-.39,3.546,3.546,0,0,0-1.11-.15,4.523,4.523,0,0,0-1.9.4,5.959,5.959,0,0,0-1.605,1.08,6.532,6.532,0,0,0-1.215,1.545A8.148,8.148,0,0,0,109.86-7.32ZM112.89.36a6.805,6.805,0,0,1-2.55-.435,5.314,5.314,0,0,1-1.8-1.155,4.523,4.523,0,0,1-1.065-1.665,5.685,5.685,0,0,1-.345-1.965,11.044,11.044,0,0,1,.585-3.6,8.858,8.858,0,0,1,1.7-2.985,8.356,8.356,0,0,1,2.685-2.04,8.032,8.032,0,0,1,3.555-.765,6.283,6.283,0,0,1,2.01.285,4.117,4.117,0,0,1,1.38.75,2.835,2.835,0,0,1,.795,1.095,3.485,3.485,0,0,1,.255,1.32,4.2,4.2,0,0,1-.96,2.94,5.887,5.887,0,0,1-2.49,1.575,13.887,13.887,0,0,1-3.4.675q-1.875.15-3.675.21a2.811,2.811,0,0,0,.99,2.745,5.118,5.118,0,0,0,3.09.855,8.49,8.49,0,0,0,1.305-.105q.675-.1,1.26-.24a8.725,8.725,0,0,0,1.035-.3,3.286,3.286,0,0,0,.63-.285l.21,2.1a9.734,9.734,0,0,1-1.86.645A13.232,13.232,0,0,1,112.89.36ZM122.67,0l3.18-13.2a20.813,20.813,0,0,1,6.39-1.02,16.1,16.1,0,0,1,1.65.075q.72.075,1.77.285l-.93,2.19q-.45-.12-.825-.195t-.705-.12q-.33-.045-.675-.06t-.795-.015a15.591,15.591,0,0,0-1.9.12,16.06,16.06,0,0,0-1.935.36L125.13,0Z" transform="translate(-11754 -2842)" fill="#2371aa"/>
      <path id="Path_183" data-name="Path 183" d="M22.23-5.51q5.985,0,9.12-2.28a7.907,7.907,0,0,0,3.135-6.84,9.155,9.155,0,0,0-1.14-4.7,11.955,11.955,0,0,0-3.04-3.42,21.855,21.855,0,0,0-4.275-2.565q-2.375-1.093-4.845-2.042a50.775,50.775,0,0,1-5.463-2.565,22.878,22.878,0,0,1-4.655-3.325,14.162,14.162,0,0,1-3.23-4.465,14.362,14.362,0,0,1-1.187-6.08q0-7.7,4.845-12.017t13.49-4.323a33.21,33.21,0,0,1,4.7.333q2.327.333,4.323.807a22.466,22.466,0,0,1,3.563,1.14,13.96,13.96,0,0,1,2.517,1.33L37.62-49.97A28.211,28.211,0,0,0,32.4-52.25a22.745,22.745,0,0,0-7.41-1.14,12.833,12.833,0,0,0-7.41,2.138A7.244,7.244,0,0,0,14.44-44.84a8.865,8.865,0,0,0,.9,4.18,9.687,9.687,0,0,0,2.47,2.993A19.576,19.576,0,0,0,21.47-35.34q2.09,1.045,4.56,2.09,3.61,1.52,6.6,3.04a20.635,20.635,0,0,1,5.13,3.61,14.773,14.773,0,0,1,3.325,4.94,18.031,18.031,0,0,1,1.187,6.935q0,7.7-5.177,11.828T22.23,1.235A38.442,38.442,0,0,1,16.34.808,34.239,34.239,0,0,1,11.448-.285Q9.31-.95,7.7-1.615A14.736,14.736,0,0,1,5.225-2.85L7.6-9.31A44.45,44.45,0,0,0,13.2-6.887,26.011,26.011,0,0,0,22.23-5.51ZM70.585-44.08h18.62v6.555H70.585v20.52a25.194,25.194,0,0,0,.475,5.415,7.764,7.764,0,0,0,1.568,3.373,5.531,5.531,0,0,0,2.8,1.757,15.825,15.825,0,0,0,4.18.475,21.6,21.6,0,0,0,5.51-.57,21.614,21.614,0,0,0,3.99-1.52l1.14,6.65Q88.92-.855,86.022.1a23.285,23.285,0,0,1-7.173.95A24.013,24.013,0,0,1,70.775-.1a10.537,10.537,0,0,1-4.893-3.42A13.333,13.333,0,0,1,63.46-9.168a40.892,40.892,0,0,1-.665-7.838v-20.52h-9.31V-44.08h9.31V-56.43l7.79-1.33ZM99.845,8.265a8.1,8.1,0,0,0,2.423.76,16.277,16.277,0,0,0,2.9.285,11.533,11.533,0,0,0,7.268-2.042,18.163,18.163,0,0,0,4.8-6.7,232.092,232.092,0,0,1-9.975-21.612A194.638,194.638,0,0,1,99.56-44.08h8.55q.95,3.8,2.232,8.217t2.9,9.072q1.615,4.655,3.467,9.358t3.943,8.978q1.52-4.37,2.85-8.645t2.47-8.6q1.14-4.322,2.28-8.835t2.375-9.547h8.17Q135.755-31.73,132-20.14T123.975,1.33a39.33,39.33,0,0,1-3.467,6.555,21.184,21.184,0,0,1-4.037,4.56,14.36,14.36,0,0,1-4.94,2.66,21.145,21.145,0,0,1-6.27.855,18.27,18.27,0,0,1-3.943-.475,14.556,14.556,0,0,1-2.9-.855Zm74.765-7.22A18.247,18.247,0,0,1,167.675-.1a9.818,9.818,0,0,1-4.37-3.42,14.523,14.523,0,0,1-2.28-5.653,40.893,40.893,0,0,1-.665-7.838v-41.7H147.63v-6.65h20.52v48.355a27.912,27.912,0,0,0,.428,5.415,8.94,8.94,0,0,0,1.33,3.373A4.6,4.6,0,0,0,172.14-6.46a9.327,9.327,0,0,0,3.135.475,18.963,18.963,0,0,0,5.13-.665,16.809,16.809,0,0,0,3.705-1.425l1.14,6.65q-.57.285-1.615.712a20.614,20.614,0,0,1-2.47.807q-1.425.38-3.088.665A20.5,20.5,0,0,1,174.61,1.045ZM214.6-45.125q8.93,0,13.775,5.557T233.225-22.7v2.755h-31.54q.475,6.84,4.512,10.4T217.55-5.985a32.836,32.836,0,0,0,7.125-.665,20.617,20.617,0,0,0,4.465-1.425l1.045,6.65A23.405,23.405,0,0,1,225.055.19a37.3,37.3,0,0,1-8.36.855A26.469,26.469,0,0,1,206.673-.712a19.973,19.973,0,0,1-7.173-4.8,19.643,19.643,0,0,1-4.275-7.268,28.53,28.53,0,0,1-1.425-9.167,26.757,26.757,0,0,1,1.8-10.26,21.084,21.084,0,0,1,4.75-7.22,19.613,19.613,0,0,1,6.65-4.275A21,21,0,0,1,214.6-45.125Zm10.64,18.81q0-5.6-2.945-8.882a9.966,9.966,0,0,0-7.79-3.278,11.622,11.622,0,0,0-4.987,1.045,12.549,12.549,0,0,0-3.848,2.755,13.419,13.419,0,0,0-2.565,3.895,16.188,16.188,0,0,0-1.235,4.465Z" transform="translate(-11755 -3017)" fill="#24648d"/>
      <path id="Path_172" data-name="Path 172" d="M4.725,0V-46.425H33.15v7.65H13.95v11.25h16.8v7.65H13.95V0ZM72.9-17.7a22.833,22.833,0,0,1-1.2,7.613A17.7,17.7,0,0,1,68.325-4.2,14.924,14.924,0,0,1,63.113-.375,16.534,16.534,0,0,1,56.325.975a16.534,16.534,0,0,1-6.787-1.35A15.3,15.3,0,0,1,44.287-4.2a17.36,17.36,0,0,1-3.412-5.887,22.834,22.834,0,0,1-1.2-7.613,21.97,21.97,0,0,1,1.237-7.537,17.43,17.43,0,0,1,3.45-5.85,15.008,15.008,0,0,1,5.288-3.75,16.825,16.825,0,0,1,6.675-1.312,16.748,16.748,0,0,1,6.713,1.312,15.094,15.094,0,0,1,5.25,3.75,16.952,16.952,0,0,1,3.412,5.85A22.592,22.592,0,0,1,72.9-17.7Zm-23.85.075a15.213,15.213,0,0,0,1.688,7.65A5.8,5.8,0,0,0,56.175-7.05a6.014,6.014,0,0,0,5.438-2.925,14.2,14.2,0,0,0,1.837-7.65,15,15,0,0,0-1.687-7.612,5.821,5.821,0,0,0-5.438-2.888,6.033,6.033,0,0,0-5.437,2.888A14.007,14.007,0,0,0,49.05-17.625Zm30.675-16.5A62.256,62.256,0,0,1,85.838-35.4,48.714,48.714,0,0,1,93.75-36a18.146,18.146,0,0,1,6.975,1.162,10.372,10.372,0,0,1,4.388,3.3,13.229,13.229,0,0,1,2.287,5.1,29.578,29.578,0,0,1,.675,6.563V0H98.85V-18.675q0-4.95-1.125-7.125T93.15-27.975q-1.05,0-2.062.075t-2.138.225V0H79.725Zm43.5,6.525H115.2v-7.65h8.025V-44.1l9.225-1.5v10.35h14.775v7.65H132.45v14.25a10.84,10.84,0,0,0,.375,3.15,4.5,4.5,0,0,0,1.05,1.875,3.345,3.345,0,0,0,1.65.9A9.691,9.691,0,0,0,137.7-7.2q1.275,0,2.363-.075a18.53,18.53,0,0,0,2.1-.263,14.622,14.622,0,0,0,2.1-.562,23.888,23.888,0,0,0,2.363-.975l1.275,7.95a23.82,23.82,0,0,1-5.512,1.5,38.2,38.2,0,0,1-5.738.45A27.665,27.665,0,0,1,130.95.3a9.173,9.173,0,0,1-4.2-2.025,9.317,9.317,0,0,1-2.625-4.237,23.48,23.48,0,0,1-.9-7.163Z" transform="translate(-11755 -2911)" fill="#2d7198"/>
      <path id="Path_184" data-name="Path 184" d="M4.68-1.16A3.238,3.238,0,0,0,6.6-1.64a1.665,1.665,0,0,0,.66-1.44,1.927,1.927,0,0,0-.24-.99,2.517,2.517,0,0,0-.64-.72,4.6,4.6,0,0,0-.9-.54q-.5-.23-1.02-.43A10.689,10.689,0,0,1,3.31-6.3,4.816,4.816,0,0,1,2.33-7a2.982,2.982,0,0,1-.68-.94A3.024,3.024,0,0,1,1.4-9.22a3.215,3.215,0,0,1,1.02-2.53,4.118,4.118,0,0,1,2.84-.91,6.991,6.991,0,0,1,.99.07q.49.07.91.17a4.73,4.73,0,0,1,.75.24,2.939,2.939,0,0,1,.53.28l-.52,1.38A5.939,5.939,0,0,0,6.82-11a4.788,4.788,0,0,0-1.56-.24,2.7,2.7,0,0,0-1.56.45,1.525,1.525,0,0,0-.66,1.35,1.866,1.866,0,0,0,.19.88,2.039,2.039,0,0,0,.52.63,4.121,4.121,0,0,0,.77.49q.44.22.96.44.76.32,1.39.64a4.344,4.344,0,0,1,1.08.76,3.11,3.11,0,0,1,.7,1.04A3.8,3.8,0,0,1,8.9-3.1,3,3,0,0,1,7.81-.61,4.916,4.916,0,0,1,4.68.26,8.093,8.093,0,0,1,3.44.17,7.208,7.208,0,0,1,2.41-.06Q1.96-.2,1.62-.34A3.1,3.1,0,0,1,1.1-.6l.5-1.36a9.358,9.358,0,0,0,1.18.51A5.476,5.476,0,0,0,4.68-1.16ZM17.5-4.62a3.751,3.751,0,0,0-.76-2.51,2.48,2.48,0,0,0-1.98-.89,7.417,7.417,0,0,0-1.07.06,3.356,3.356,0,0,0-.61.14v5.86a2.711,2.711,0,0,0,.82.48,2.941,2.941,0,0,0,1.12.22,2.3,2.3,0,0,0,1.13-.26,2.183,2.183,0,0,0,.77-.71,3.171,3.171,0,0,0,.44-1.06A5.944,5.944,0,0,0,17.5-4.62Zm1.7,0a6.693,6.693,0,0,1-.27,1.95,4.541,4.541,0,0,1-.78,1.53,3.581,3.581,0,0,1-1.25,1,3.792,3.792,0,0,1-1.68.36,4.254,4.254,0,0,1-1.3-.18,2.741,2.741,0,0,1-.84-.4V3.3H11.42V-9q.54-.16,1.39-.32a10.623,10.623,0,0,1,1.95-.16,4.708,4.708,0,0,1,1.82.34,3.914,3.914,0,0,1,1.4.97,4.406,4.406,0,0,1,.9,1.53A6,6,0,0,1,19.2-4.62Zm5.9,3.44q.62,0,1.11-.04a8.108,8.108,0,0,0,.81-.1V-4.08a4.694,4.694,0,0,0-.77-.16,7.191,7.191,0,0,0-.95-.06,5.72,5.72,0,0,0-.9.07,2.493,2.493,0,0,0-.78.25,1.676,1.676,0,0,0-.56.47,1.173,1.173,0,0,0-.22.73,1.317,1.317,0,0,0,.61,1.25A3.316,3.316,0,0,0,25.1-1.18ZM24.94-9.5a5.125,5.125,0,0,1,1.75.26,2.976,2.976,0,0,1,1.15.72,2.566,2.566,0,0,1,.62,1.12,5.46,5.46,0,0,1,.18,1.44v5.8q-.58.1-1.53.24a13.36,13.36,0,0,1-1.95.14A8.314,8.314,0,0,1,23.68.09,3.844,3.844,0,0,1,22.4-.37a2.507,2.507,0,0,1-.9-.91,2.9,2.9,0,0,1-.34-1.48,2.465,2.465,0,0,1,.35-1.35,2.8,2.8,0,0,1,.9-.89,3.914,3.914,0,0,1,1.26-.49,6.9,6.9,0,0,1,1.43-.15,8.4,8.4,0,0,1,1.92.22v-.46a3.591,3.591,0,0,0-.09-.81,1.8,1.8,0,0,0-.34-.71,1.728,1.728,0,0,0-.68-.51A2.768,2.768,0,0,0,24.8-8.1a8.232,8.232,0,0,0-1.5.12,6.993,6.993,0,0,0-.98.24l-.2-1.36a4.473,4.473,0,0,1,1.13-.28A11.264,11.264,0,0,1,24.94-9.5Zm6.04,4.88a5.439,5.439,0,0,1,.4-2.18,4.139,4.139,0,0,1,1.1-1.52,4.558,4.558,0,0,1,1.63-.89A6.649,6.649,0,0,1,36.1-9.5a10.129,10.129,0,0,1,1.35.09,8.553,8.553,0,0,1,1.43.33L38.5-7.66a5.676,5.676,0,0,0-1.21-.31,8.783,8.783,0,0,0-1.11-.07,4.755,4.755,0,0,0-1.36.19,2.935,2.935,0,0,0-1.11.6,2.9,2.9,0,0,0-.75,1.06,3.959,3.959,0,0,0-.28,1.57,3.951,3.951,0,0,0,.26,1.51,2.742,2.742,0,0,0,.73,1.04,3.03,3.03,0,0,0,1.13.61,5.02,5.02,0,0,0,1.46.2,10.44,10.44,0,0,0,1.23-.07,6.3,6.3,0,0,0,1.29-.31l.24,1.38A7.187,7.187,0,0,1,37.6.11a10.35,10.35,0,0,1-1.56.11,6.452,6.452,0,0,1-2.05-.31A4.5,4.5,0,0,1,32.39-1a4.025,4.025,0,0,1-1.04-1.51A5.572,5.572,0,0,1,30.98-4.62ZM45.18-9.5a3.641,3.641,0,0,1,2.9,1.17A5.285,5.285,0,0,1,49.1-4.78v.58H42.46a3.067,3.067,0,0,0,.95,2.19,3.493,3.493,0,0,0,2.39.75,6.913,6.913,0,0,0,1.5-.14,4.34,4.34,0,0,0,.94-.3l.22,1.4a4.927,4.927,0,0,1-1.08.34,7.853,7.853,0,0,1-1.76.18,5.572,5.572,0,0,1-2.11-.37A4.2,4.2,0,0,1,42-1.16a4.135,4.135,0,0,1-.9-1.53,6.006,6.006,0,0,1-.3-1.93,5.633,5.633,0,0,1,.38-2.16,4.439,4.439,0,0,1,1-1.52,4.129,4.129,0,0,1,1.4-.9A4.422,4.422,0,0,1,45.18-9.5Zm2.24,3.96a2.694,2.694,0,0,0-.62-1.87,2.1,2.1,0,0,0-1.64-.69,2.447,2.447,0,0,0-1.05.22,2.642,2.642,0,0,0-.81.58,2.825,2.825,0,0,0-.54.82,3.408,3.408,0,0,0-.26.94Z" transform="translate(-11752 -2880)" fill="#166183"/>
      <path id="Path_154" data-name="Path 154" d="M15.06-18.66l5.76-18.48h4.62q1.2,8.76,1.71,17.94T28.08,0h-4.8q-.06-3.24-.12-7.02t-.15-7.8q-.09-4.02-.18-8.16t-.21-8.04L17.22-14.1H12.9L7.38-31.02q-.06,3.9-.15,8.01t-.18,8.16q-.09,4.05-.18,7.83T6.72,0H1.92q.18-4.56.42-9.36t.57-9.54q.33-4.74.78-9.36t.99-8.88H9.24ZM45.3-3.54q1.86,0,3.33-.12a24.323,24.323,0,0,0,2.43-.3v-8.28a14.084,14.084,0,0,0-2.31-.48,21.574,21.574,0,0,0-2.85-.18,17.16,17.16,0,0,0-2.7.21,7.48,7.48,0,0,0-2.34.75,5.027,5.027,0,0,0-1.68,1.41,3.52,3.52,0,0,0-.66,2.19,3.951,3.951,0,0,0,1.83,3.75A9.947,9.947,0,0,0,45.3-3.54ZM44.82-28.5a15.374,15.374,0,0,1,5.25.78,8.928,8.928,0,0,1,3.45,2.16,7.7,7.7,0,0,1,1.86,3.36,16.381,16.381,0,0,1,.54,4.32V-.48q-1.74.3-4.59.72a40.08,40.08,0,0,1-5.85.42A24.942,24.942,0,0,1,41.04.27,11.532,11.532,0,0,1,37.2-1.11a7.52,7.52,0,0,1-2.7-2.73,8.684,8.684,0,0,1-1.02-4.44,7.4,7.4,0,0,1,1.05-4.05A8.4,8.4,0,0,1,37.23-15a11.741,11.741,0,0,1,3.78-1.47,20.7,20.7,0,0,1,4.29-.45,25.191,25.191,0,0,1,5.76.66v-1.38a10.774,10.774,0,0,0-.27-2.43,5.391,5.391,0,0,0-1.02-2.13,5.184,5.184,0,0,0-2.04-1.53,8.3,8.3,0,0,0-3.33-.57,24.7,24.7,0,0,0-4.5.36,20.98,20.98,0,0,0-2.94.72l-.6-4.08a13.418,13.418,0,0,1,3.39-.84A33.791,33.791,0,0,1,44.82-28.5ZM66.42,0V-26.34a37.853,37.853,0,0,1,12.36-2.1q1.92,0,3.66.15a28.274,28.274,0,0,1,3.84.63l-.9,4.38a20.387,20.387,0,0,0-3.39-.69,31.753,31.753,0,0,0-3.21-.15,28.476,28.476,0,0,0-7.44,1.02V0Zm44.34-2.58a13.69,13.69,0,0,1-2.58,1.02,13.582,13.582,0,0,1-4.02.54,12.806,12.806,0,0,1-4.59-.81,10.085,10.085,0,0,1-3.72-2.46,11.764,11.764,0,0,1-2.52-4.2,17.607,17.607,0,0,1-.93-6.03,17.281,17.281,0,0,1,.87-5.61,12.774,12.774,0,0,1,2.52-4.41,11.487,11.487,0,0,1,4.05-2.91,13.5,13.5,0,0,1,5.46-1.05,31.864,31.864,0,0,1,6.15.51q2.55.51,4.29.99V-2.16q0,6.48-3.27,9.36t-9.87,2.88a26.062,26.062,0,0,1-4.89-.42,26.3,26.3,0,0,1-3.87-1.02l.9-4.38a19.32,19.32,0,0,0,3.57,1.08,21.585,21.585,0,0,0,4.41.42q4.32,0,6.18-1.74t1.86-5.64Zm0-20.88a13.634,13.634,0,0,0-1.98-.45,21.835,21.835,0,0,0-3.42-.21,6.9,6.9,0,0,0-5.85,2.64,11.3,11.3,0,0,0-2.01,7.02,13.069,13.069,0,0,0,.57,4.11,7.956,7.956,0,0,0,1.56,2.82,6.039,6.039,0,0,0,2.25,1.62,7.127,7.127,0,0,0,2.7.51,11.215,11.215,0,0,0,3.51-.54,10.081,10.081,0,0,0,2.67-1.26Zm21.78-8.7a3.794,3.794,0,0,1-2.7-1.08,3.856,3.856,0,0,1-1.14-2.94,3.856,3.856,0,0,1,1.14-2.94,3.794,3.794,0,0,1,2.7-1.08,3.764,3.764,0,0,1,2.73,1.08,3.912,3.912,0,0,1,1.11,2.94,3.912,3.912,0,0,1-1.11,2.94A3.764,3.764,0,0,1,132.54-32.16Zm-1.26,8.46h-8.04v-4.14H136.2v17.1q0,4.14,1.14,5.55a4.137,4.137,0,0,0,3.42,1.41,11.651,11.651,0,0,0,3.21-.42,10.693,10.693,0,0,0,2.31-.9L147-.9q-.36.18-1.02.45a13.672,13.672,0,0,1-1.53.51q-.87.24-1.92.42a12.946,12.946,0,0,1-2.19.18,11.524,11.524,0,0,1-4.38-.72,6.4,6.4,0,0,1-2.79-2.16,8.9,8.9,0,0,1-1.47-3.57,25.827,25.827,0,0,1-.42-4.95Zm22.98-3.36a51.7,51.7,0,0,1,5.37-1.02,37.6,37.6,0,0,1,5.01-.36q5.58,0,8.43,2.88t2.85,9.24V0H171V-15.42a16.381,16.381,0,0,0-.48-4.38,6.293,6.293,0,0,0-1.35-2.61,4.59,4.59,0,0,0-2.1-1.29,9.471,9.471,0,0,0-2.67-.36,23.144,23.144,0,0,0-2.55.15q-1.35.15-2.61.39V0h-4.98Z" transform="translate(-11752 -2786)" fill="#5f88b1"/>
      <path id="Path_155" data-name="Path 155" d="M33.933-27.342a31.74,31.74,0,0,1-1.568,10.649,18.882,18.882,0,0,1-4.3,7.111A16.245,16.245,0,0,1,21.57-5.607a25.8,25.8,0,0,1-8.133,1.24A39.255,39.255,0,0,1,4.32-5.461V-49.224a39.255,39.255,0,0,1,9.117-1.094,25.8,25.8,0,0,1,8.133,1.24,16.056,16.056,0,0,1,6.491,4.012,19.235,19.235,0,0,1,4.3,7.148A31.487,31.487,0,0,1,33.933-27.342ZM10.3-9.764a31.2,31.2,0,0,0,3.72.219,16.131,16.131,0,0,0,5.835-.985,10.192,10.192,0,0,0,4.3-3.136,15.136,15.136,0,0,0,2.7-5.543,30.492,30.492,0,0,0,.948-8.133q0-9.19-3.537-13.494T13.8-45.139q-.948,0-1.86.036a10.567,10.567,0,0,0-1.641.182Zm45.44-29.613q6.856,0,10.576,4.267t3.72,12.946v2.115H45.822q.365,5.252,3.465,7.987T58-9.327a25.21,25.21,0,0,0,5.47-.511A15.829,15.829,0,0,0,66.9-10.931l.8,5.106a17.97,17.97,0,0,1-3.939,1.24,28.637,28.637,0,0,1-6.419.656,20.322,20.322,0,0,1-7.695-1.349,15.335,15.335,0,0,1-5.507-3.683,15.081,15.081,0,0,1-3.282-5.58,21.9,21.9,0,0,1-1.094-7.039,20.543,20.543,0,0,1,1.386-7.877A16.188,16.188,0,0,1,44.8-35a15.059,15.059,0,0,1,5.106-3.282A16.126,16.126,0,0,1,55.741-39.377ZM63.91-24.935a9.826,9.826,0,0,0-2.261-6.82,7.652,7.652,0,0,0-5.981-2.516,8.923,8.923,0,0,0-3.829.8,9.635,9.635,0,0,0-2.954,2.115,10.3,10.3,0,0,0-1.969,2.99,12.429,12.429,0,0,0-.948,3.428ZM98.92-13.192a3.63,3.63,0,0,0-1.5-2.99,14.864,14.864,0,0,0-3.72-2.042q-2.225-.875-4.85-1.714A26.489,26.489,0,0,1,84-22.018a12.811,12.811,0,0,1-3.72-3.063,7.236,7.236,0,0,1-1.5-4.741,8.491,8.491,0,0,1,3.319-6.82q3.319-2.735,10.394-2.735a42.55,42.55,0,0,1,5.726.4,31.709,31.709,0,0,1,5.069,1.058l-1.094,5.4a11.8,11.8,0,0,0-1.6-.62,20.406,20.406,0,0,0-2.334-.584q-1.313-.255-2.808-.4t-2.881-.146q-7.877,0-7.877,4.3a3.1,3.1,0,0,0,1.5,2.589,17.387,17.387,0,0,0,3.756,1.933q2.261.875,4.887,1.787a27.983,27.983,0,0,1,4.887,2.225,13.36,13.36,0,0,1,3.756,3.173,7.27,7.27,0,0,1,1.5,4.7A8.189,8.189,0,0,1,101.4-6.446Q97.826-3.929,90.095-3.929a32.787,32.787,0,0,1-6.419-.584,26.3,26.3,0,0,1-5.543-1.751l1.167-5.47A35.053,35.053,0,0,0,84.661-9.8a22.79,22.79,0,0,0,6.017.766Q98.92-9.035,98.92-13.192Zm26.112-30.634a4.612,4.612,0,0,1-3.282-1.313,4.688,4.688,0,0,1-1.386-3.574,4.688,4.688,0,0,1,1.386-3.574,4.612,4.612,0,0,1,3.282-1.313,4.576,4.576,0,0,1,3.319,1.313,4.756,4.756,0,0,1,1.349,3.574,4.756,4.756,0,0,1-1.349,3.574A4.576,4.576,0,0,1,125.032-43.826ZM123.5-33.542h-9.774v-5.033h15.755v20.787q0,5.033,1.386,6.747a5.029,5.029,0,0,0,4.157,1.714,14.163,14.163,0,0,0,3.9-.511,13,13,0,0,0,2.808-1.094l.875,5.106q-.438.219-1.24.547a16.622,16.622,0,0,1-1.86.62q-1.058.292-2.334.511a15.738,15.738,0,0,1-2.662.219A14.009,14.009,0,0,1,129.19-4.8,7.779,7.779,0,0,1,125.8-7.43a10.819,10.819,0,0,1-1.787-4.34,31.4,31.4,0,0,1-.511-6.017ZM171.494-7.868a16.642,16.642,0,0,1-3.136,1.24,16.511,16.511,0,0,1-4.887.656,15.567,15.567,0,0,1-5.58-.985,12.259,12.259,0,0,1-4.522-2.99,14.3,14.3,0,0,1-3.063-5.106,21.4,21.4,0,0,1-1.131-7.33,21.007,21.007,0,0,1,1.058-6.82,15.528,15.528,0,0,1,3.063-5.361,13.964,13.964,0,0,1,4.923-3.537,16.408,16.408,0,0,1,6.637-1.276,38.735,38.735,0,0,1,7.476.62q3.1.62,5.215,1.2v30.2q0,7.877-3.975,11.378t-12,3.5a31.682,31.682,0,0,1-5.944-.511,31.968,31.968,0,0,1-4.7-1.24L152.019.447a23.486,23.486,0,0,0,4.34,1.313,26.24,26.24,0,0,0,5.361.511q5.252,0,7.513-2.115T171.494-6.7Zm0-25.382a16.574,16.574,0,0,0-2.407-.547,26.544,26.544,0,0,0-4.157-.255,8.391,8.391,0,0,0-7.111,3.209,13.732,13.732,0,0,0-2.443,8.534,15.888,15.888,0,0,0,.693,5,9.671,9.671,0,0,0,1.9,3.428,7.341,7.341,0,0,0,2.735,1.969,8.664,8.664,0,0,0,3.282.62,13.633,13.633,0,0,0,4.267-.656,12.255,12.255,0,0,0,3.246-1.532ZM187.9-37.627a62.849,62.849,0,0,1,6.528-1.24,45.712,45.712,0,0,1,6.09-.438q6.783,0,10.248,3.5t3.465,11.232V-4.732h-5.981V-23.477a19.913,19.913,0,0,0-.583-5.324,7.65,7.65,0,0,0-1.641-3.173,5.579,5.579,0,0,0-2.553-1.568,11.513,11.513,0,0,0-3.246-.438,28.135,28.135,0,0,0-3.1.182q-1.641.182-3.173.474V-4.732H187.9Z" transform="translate(-11755 -2680)" fill="#5f88b1"/>
      <path id="Path_185" data-name="Path 185" d="M19.4-12.38q-.98,1.46-2.15,2.9T14.72-6.6q.64.54,1.36,1.26a20.4,20.4,0,0,1,1.41,1.57,19.241,19.241,0,0,1,1.3,1.81A13.144,13.144,0,0,1,19.82,0H17.96q-.5-.92-1.08-1.8a16.429,16.429,0,0,0-1.23-1.64,15.67,15.67,0,0,0-1.34-1.39,11.157,11.157,0,0,0-1.39-1.09V0H11.28V-12.38h1.64v5.52q1.3-1.34,2.49-2.8t2.09-2.72ZM31.18-9.5a3.641,3.641,0,0,1,2.9,1.17A5.285,5.285,0,0,1,35.1-4.78v.58H28.46a3.067,3.067,0,0,0,.95,2.19,3.493,3.493,0,0,0,2.39.75,6.913,6.913,0,0,0,1.5-.14,4.34,4.34,0,0,0,.94-.3l.22,1.4a4.927,4.927,0,0,1-1.08.34,7.853,7.853,0,0,1-1.76.18,5.572,5.572,0,0,1-2.11-.37A4.2,4.2,0,0,1,28-1.16a4.135,4.135,0,0,1-.9-1.53,6.006,6.006,0,0,1-.3-1.93,5.633,5.633,0,0,1,.38-2.16,4.439,4.439,0,0,1,1-1.52,4.129,4.129,0,0,1,1.4-.9A4.422,4.422,0,0,1,31.18-9.5Zm2.24,3.96a2.694,2.694,0,0,0-.62-1.87,2.1,2.1,0,0,0-1.64-.69,2.447,2.447,0,0,0-1.05.22,2.642,2.642,0,0,0-.81.58,2.825,2.825,0,0,0-.54.82,3.408,3.408,0,0,0-.26.94ZM44.14,0V-8.78a12.618,12.618,0,0,1,4.12-.7q.64,0,1.22.05a9.425,9.425,0,0,1,1.28.21l-.3,1.46a6.8,6.8,0,0,0-1.13-.23,10.584,10.584,0,0,0-1.07-.05,9.492,9.492,0,0,0-2.48.34V0ZM59.42-9.02a17.233,17.233,0,0,1,1.79-.34,12.535,12.535,0,0,1,1.67-.12,3.787,3.787,0,0,1,2.81.96,4.249,4.249,0,0,1,.95,3.08V0H65V-5.14a5.46,5.46,0,0,0-.16-1.46,2.1,2.1,0,0,0-.45-.87,1.53,1.53,0,0,0-.7-.43,3.157,3.157,0,0,0-.89-.12,7.715,7.715,0,0,0-.85.05q-.45.05-.87.13V0H59.42Zm18.76-1.7a1.265,1.265,0,0,1-.9-.36,1.285,1.285,0,0,1-.38-.98,1.285,1.285,0,0,1,.38-.98,1.265,1.265,0,0,1,.9-.36,1.255,1.255,0,0,1,.91.36,1.3,1.3,0,0,1,.37.98,1.3,1.3,0,0,1-.37.98A1.255,1.255,0,0,1,78.18-10.72ZM77.76-7.9H75.08V-9.28H79.4v5.7a3.138,3.138,0,0,0,.38,1.85,1.379,1.379,0,0,0,1.14.47,3.884,3.884,0,0,0,1.07-.14,3.565,3.565,0,0,0,.77-.3L83-.3q-.12.06-.34.15a4.558,4.558,0,0,1-.51.17q-.29.08-.64.14a4.315,4.315,0,0,1-.73.06,3.841,3.841,0,0,1-1.46-.24,2.133,2.133,0,0,1-.93-.72,2.967,2.967,0,0,1-.49-1.19,8.609,8.609,0,0,1-.14-1.65ZM91.42-9.02a17.233,17.233,0,0,1,1.79-.34,12.534,12.534,0,0,1,1.67-.12,3.787,3.787,0,0,1,2.81.96,4.249,4.249,0,0,1,.95,3.08V0H97V-5.14a5.46,5.46,0,0,0-.16-1.46,2.1,2.1,0,0,0-.45-.87,1.53,1.53,0,0,0-.7-.43,3.157,3.157,0,0,0-.89-.12,7.715,7.715,0,0,0-.85.05q-.45.05-.87.13V0H91.42Zm21.5,8.16a4.563,4.563,0,0,1-.86.34,4.527,4.527,0,0,1-1.34.18,4.269,4.269,0,0,1-1.53-.27,3.362,3.362,0,0,1-1.24-.82,3.921,3.921,0,0,1-.84-1.4,5.869,5.869,0,0,1-.31-2.01,5.76,5.76,0,0,1,.29-1.87,4.258,4.258,0,0,1,.84-1.47,3.829,3.829,0,0,1,1.35-.97,4.5,4.5,0,0,1,1.82-.35,10.621,10.621,0,0,1,2.05.17q.85.17,1.43.33V-.72a3.963,3.963,0,0,1-1.09,3.12,4.859,4.859,0,0,1-3.29.96,8.687,8.687,0,0,1-1.63-.14,8.765,8.765,0,0,1-1.29-.34l.3-1.46a6.44,6.44,0,0,0,1.19.36,7.2,7.2,0,0,0,1.47.14,2.972,2.972,0,0,0,2.06-.58,2.474,2.474,0,0,0,.62-1.88Zm0-6.96a4.545,4.545,0,0,0-.66-.15,7.279,7.279,0,0,0-1.14-.07,2.3,2.3,0,0,0-1.95.88,3.765,3.765,0,0,0-.67,2.34,4.356,4.356,0,0,0,.19,1.37,2.652,2.652,0,0,0,.52.94,2.013,2.013,0,0,0,.75.54,2.376,2.376,0,0,0,.9.17,3.738,3.738,0,0,0,1.17-.18,3.36,3.36,0,0,0,.89-.42Z" transform="translate(-11761 -2981)" fill="#0099d1"/>
      <path id="Path_156" data-name="Path 156" d="M9.4-25a12.08,12.08,0,0,1,3.86.56,7.538,7.538,0,0,1,2.76,1.58,6.4,6.4,0,0,1,1.64,2.42,8.608,8.608,0,0,1,.54,3.12,7.724,7.724,0,0,1-2.28,5.98q-2.28,2.1-6.84,2.1H6.2V0H2.92V-24.4q.72-.16,1.58-.28t1.72-.2q.86-.08,1.68-.1T9.4-25Zm.24,2.84q-1.04,0-2,.02a10.9,10.9,0,0,0-1.44.1v10H8.92a6.932,6.932,0,0,0,4.46-1.2,4.849,4.849,0,0,0,1.46-3.96Q14.84-22.16,9.64-22.16ZM30.2-2.36q1.24,0,2.22-.08a16.215,16.215,0,0,0,1.62-.2V-8.16a9.389,9.389,0,0,0-1.54-.32,14.382,14.382,0,0,0-1.9-.12,11.44,11.44,0,0,0-1.8.14,4.986,4.986,0,0,0-1.56.5,3.351,3.351,0,0,0-1.12.94,2.347,2.347,0,0,0-.44,1.46,2.634,2.634,0,0,0,1.22,2.5A6.632,6.632,0,0,0,30.2-2.36ZM29.88-19a10.25,10.25,0,0,1,3.5.52,5.952,5.952,0,0,1,2.3,1.44,5.132,5.132,0,0,1,1.24,2.24,10.92,10.92,0,0,1,.36,2.88V-.32q-1.16.2-3.06.48a26.72,26.72,0,0,1-3.9.28A16.628,16.628,0,0,1,27.36.18,7.688,7.688,0,0,1,24.8-.74,5.013,5.013,0,0,1,23-2.56a5.789,5.789,0,0,1-.68-2.96,4.93,4.93,0,0,1,.7-2.7A5.6,5.6,0,0,1,24.82-10a7.827,7.827,0,0,1,2.52-.98,13.8,13.8,0,0,1,2.86-.3,16.794,16.794,0,0,1,3.84.44v-.92a7.182,7.182,0,0,0-.18-1.62,3.594,3.594,0,0,0-.68-1.42,3.456,3.456,0,0,0-1.36-1.02,5.535,5.535,0,0,0-2.22-.38,16.463,16.463,0,0,0-3,.24,13.986,13.986,0,0,0-1.96.48l-.4-2.72a8.945,8.945,0,0,1,2.26-.56A22.527,22.527,0,0,1,29.88-19ZM44.28,0V-17.56a25.235,25.235,0,0,1,8.24-1.4q1.28,0,2.44.1a18.849,18.849,0,0,1,2.56.42l-.6,2.92a13.591,13.591,0,0,0-2.26-.46,21.169,21.169,0,0,0-2.14-.1,18.984,18.984,0,0,0-4.96.68V0ZM70.2-2.36q1.24,0,2.22-.08a16.215,16.215,0,0,0,1.62-.2V-8.16a9.389,9.389,0,0,0-1.54-.32,14.382,14.382,0,0,0-1.9-.12,11.44,11.44,0,0,0-1.8.14,4.986,4.986,0,0,0-1.56.5,3.351,3.351,0,0,0-1.12.94,2.347,2.347,0,0,0-.44,1.46,2.634,2.634,0,0,0,1.22,2.5A6.632,6.632,0,0,0,70.2-2.36ZM69.88-19a10.25,10.25,0,0,1,3.5.52,5.952,5.952,0,0,1,2.3,1.44,5.132,5.132,0,0,1,1.24,2.24,10.921,10.921,0,0,1,.36,2.88V-.32q-1.16.2-3.06.48a26.72,26.72,0,0,1-3.9.28A16.628,16.628,0,0,1,67.36.18,7.688,7.688,0,0,1,64.8-.74,5.013,5.013,0,0,1,63-2.56a5.789,5.789,0,0,1-.68-2.96,4.93,4.93,0,0,1,.7-2.7A5.6,5.6,0,0,1,64.82-10a7.827,7.827,0,0,1,2.52-.98,13.8,13.8,0,0,1,2.86-.3,16.794,16.794,0,0,1,3.84.44v-.92a7.182,7.182,0,0,0-.18-1.62,3.594,3.594,0,0,0-.68-1.42,3.456,3.456,0,0,0-1.36-1.02,5.535,5.535,0,0,0-2.22-.38,16.463,16.463,0,0,0-3,.24,13.986,13.986,0,0,0-1.96.48l-.4-2.72a8.945,8.945,0,0,1,2.26-.56A22.527,22.527,0,0,1,69.88-19ZM93.84-1.72a9.127,9.127,0,0,1-1.72.68,9.055,9.055,0,0,1-2.68.36,8.537,8.537,0,0,1-3.06-.54A6.723,6.723,0,0,1,83.9-2.86a7.842,7.842,0,0,1-1.68-2.8,11.738,11.738,0,0,1-.62-4.02,11.521,11.521,0,0,1,.58-3.74,8.516,8.516,0,0,1,1.68-2.94,7.658,7.658,0,0,1,2.7-1.94A9,9,0,0,1,90.2-19a21.243,21.243,0,0,1,4.1.34q1.7.34,2.86.66V-1.44q0,4.32-2.18,6.24T88.4,6.72a17.375,17.375,0,0,1-3.26-.28,17.531,17.531,0,0,1-2.58-.68l.6-2.92a12.88,12.88,0,0,0,2.38.72,14.39,14.39,0,0,0,2.94.28A5.943,5.943,0,0,0,92.6,2.68a4.948,4.948,0,0,0,1.24-3.76Zm0-13.92a9.089,9.089,0,0,0-1.32-.3,14.557,14.557,0,0,0-2.28-.14,4.6,4.6,0,0,0-3.9,1.76A7.531,7.531,0,0,0,85-9.64a8.713,8.713,0,0,0,.38,2.74,5.3,5.3,0,0,0,1.04,1.88,4.026,4.026,0,0,0,1.5,1.08,4.752,4.752,0,0,0,1.8.34,7.477,7.477,0,0,0,2.34-.36,6.721,6.721,0,0,0,1.78-.84ZM104.28,0V-17.56a25.235,25.235,0,0,1,8.24-1.4q1.28,0,2.44.1a18.85,18.85,0,0,1,2.56.42l-.6,2.92a13.591,13.591,0,0,0-2.26-.46,21.169,21.169,0,0,0-2.14-.1,18.984,18.984,0,0,0-4.96.68V0ZM130.2-2.36q1.24,0,2.22-.08a16.216,16.216,0,0,0,1.62-.2V-8.16a9.39,9.39,0,0,0-1.54-.32,14.382,14.382,0,0,0-1.9-.12,11.44,11.44,0,0,0-1.8.14,4.986,4.986,0,0,0-1.56.5,3.351,3.351,0,0,0-1.12.94,2.347,2.347,0,0,0-.44,1.46,2.634,2.634,0,0,0,1.22,2.5A6.632,6.632,0,0,0,130.2-2.36ZM129.88-19a10.25,10.25,0,0,1,3.5.52,5.952,5.952,0,0,1,2.3,1.44,5.132,5.132,0,0,1,1.24,2.24,10.92,10.92,0,0,1,.36,2.88V-.32q-1.16.2-3.06.48a26.72,26.72,0,0,1-3.9.28,16.628,16.628,0,0,1-2.96-.26,7.688,7.688,0,0,1-2.56-.92A5.013,5.013,0,0,1,123-2.56a5.789,5.789,0,0,1-.68-2.96,4.93,4.93,0,0,1,.7-2.7,5.6,5.6,0,0,1,1.8-1.78,7.827,7.827,0,0,1,2.52-.98,13.8,13.8,0,0,1,2.86-.3,16.794,16.794,0,0,1,3.84.44v-.92a7.182,7.182,0,0,0-.18-1.62,3.594,3.594,0,0,0-.68-1.42,3.456,3.456,0,0,0-1.36-1.02,5.535,5.535,0,0,0-2.22-.38,16.463,16.463,0,0,0-3,.24,13.986,13.986,0,0,0-1.96.48l-.4-2.72a8.945,8.945,0,0,1,2.26-.56A22.528,22.528,0,0,1,129.88-19ZM155-9.24a7.5,7.5,0,0,0-1.52-5.02,4.96,4.96,0,0,0-3.96-1.78,14.835,14.835,0,0,0-2.14.12,6.712,6.712,0,0,0-1.22.28V-3.92a5.423,5.423,0,0,0,1.64.96,5.883,5.883,0,0,0,2.24.44,4.6,4.6,0,0,0,2.26-.52,4.367,4.367,0,0,0,1.54-1.42,6.342,6.342,0,0,0,.88-2.12A11.888,11.888,0,0,0,155-9.24Zm3.4,0a13.386,13.386,0,0,1-.54,3.9,9.081,9.081,0,0,1-1.56,3.06,7.163,7.163,0,0,1-2.5,2,7.584,7.584,0,0,1-3.36.72,8.507,8.507,0,0,1-2.6-.36,5.483,5.483,0,0,1-1.68-.8V6.6h-3.32V-18q1.08-.32,2.78-.64a21.246,21.246,0,0,1,3.9-.32,9.417,9.417,0,0,1,3.64.68,7.828,7.828,0,0,1,2.8,1.94,8.812,8.812,0,0,1,1.8,3.06A12,12,0,0,1,158.4-9.24ZM162.84,0V-27.16l3.32-.56v9.44a9.269,9.269,0,0,1,1.8-.5,11.051,11.051,0,0,1,1.96-.18,8.863,8.863,0,0,1,3.54.62,5.513,5.513,0,0,1,2.26,1.74,7.046,7.046,0,0,1,1.2,2.68,15.308,15.308,0,0,1,.36,3.44V0H174V-9.76q0-3.44-.96-4.86a3.852,3.852,0,0,0-3.44-1.42,9.194,9.194,0,0,0-2.02.22,7.945,7.945,0,0,0-1.42.42V0Z" transform="translate(-11753 -2740)" fill="#258abf"/>
    </g>
  </g>
</svg>
