<svg id="Layer_1" data-name="Layer 1" xmlns="http://www.w3.org/2000/svg" viewBox="0 0 264.06 384.15"><title>Ubunto</title><g id="Group_149" data-name="Group 149"><path id="Path_193" data-name="Path 193" d="M46.81,38.23H39.26V26.16H1V17H39.26V4.9h7.55Zm-21,20.66q1.7.81,4.29,1.88c1.73.72,3.56,1.43,5.48,2.15s3.88,1.41,5.85,2.07,3.75,1.27,5.33,1.82v9.4c-2.51-.94-5-1.87-7.33-2.81s-4.71-1.92-7-3-4.63-2.15-6.92-3.33-4.66-2.47-7.08-3.85H1V54.07h17.4q7.19-4.07,14-7.14T46.81,41v9.77Q41.49,52.52,36,54.59T25.86,58.89Zm21.47,34.8q0,8.73-3.59,13.55T32,112.05q-8.22,0-11.88-4.85T16.45,93.47V90.2H1V81.1H46.22c.2.89.37,1.89.52,3s.25,2.24.33,3.37.14,2.25.19,3.33S47.33,92.85,47.33,93.69Zm-7.92,1c0-.55,0-1.3,0-2.26a17.07,17.07,0,0,0-.18-2.26H24.38v3.7q0,4.36,1.74,6.59c1.16,1.48,3.14,2.22,6,2.22q4,0,5.66-2.18a9.35,9.35,0,0,0,1.67-5.81ZM23.93,125.38q-3.33,0-6.25.26a20.48,20.48,0,0,0-5.08,1,8.13,8.13,0,0,0-3.4,2.18,6.24,6.24,0,0,0,0,7.52,7.94,7.94,0,0,0,3.44,2.22,20.41,20.41,0,0,0,5.07,1q2.89.26,6.22.26t6.26-.26a20,20,0,0,0,5.07-1,8.23,8.23,0,0,0,3.41-2.18,6.32,6.32,0,0,0,0-7.55,8.22,8.22,0,0,0-3.45-2.19,20.85,20.85,0,0,0-5.07-1c-1.92-.18-4-.27-6.22-.27Zm0-9.25q11.85,0,17.89,4.37a14.16,14.16,0,0,1,6,12.14q0,8.07-6,12.29t-17.88,4.22q-11.85,0-17.88-4.29a14.05,14.05,0,0,1-6-12.15q0-8.07,6-12.33t17.88-4.25Zm16,58.12a11.59,11.59,0,0,0-1.19-5.48,10.18,10.18,0,0,0-3.3-3.66,14,14,0,0,0-5-2.07,30.75,30.75,0,0,0-6.48-.63q-8.22,0-12.11,2.59a8.6,8.6,0,0,0-3.89,7.63c0,.54,0,1.13.08,1.77a15.18,15.18,0,0,0,.22,1.78H25v9.11H2.09a42.52,42.52,0,0,1-1.34-5.07A40.91,40.91,0,0,1,0,171.89a19,19,0,0,1,1.52-7.74,15.56,15.56,0,0,1,4.52-5.89,21.32,21.32,0,0,1,7.48-3.78,36.53,36.53,0,0,1,10.4-1.33,31.25,31.25,0,0,1,10.33,1.56,22.05,22.05,0,0,1,7.51,4.22,17,17,0,0,1,4.56,6.29A19.94,19.94,0,0,1,47.85,173a25.4,25.4,0,0,1-.41,4.77,30.77,30.77,0,0,1-.92,3.67A13.76,13.76,0,0,1,45.41,184c-.4.67-.7,1.17-.89,1.52l-7.26-2.37a19.1,19.1,0,0,0,1.85-4A15,15,0,0,0,39.93,174.25ZM47.33,204a27.07,27.07,0,0,1-.89,7.11,15,15,0,0,1-2.74,5.48,12.1,12.1,0,0,1-4.7,3.52,16.91,16.91,0,0,1-6.7,1.22A16,16,0,0,1,25,219.72a10.64,10.64,0,0,1-5-5.41q-1.92,1.26-4.26,2.67t-4.89,2.74q-2.55,1.34-5.1,2.56c-1.71.81-3.32,1.51-4.85,2.11v-9.56a68.21,68.21,0,0,0,8.55-4q4.11-2.25,8.33-4.85v-4.74H1v-9.11H46.15c.2.89.38,1.87.55,2.93s.3,2.13.37,3.22.14,2.12.19,3.11.07,1.85.07,2.59Zm-15,8.07c2.42,0,4.19-.74,5.33-2.22A9.37,9.37,0,0,0,39.4,204c0-.34,0-.76,0-1.26a9.34,9.34,0,0,0-.18-1.48H25.41v2q0,4.66,1.82,6.74a6.43,6.43,0,0,0,5.14,2.07ZM1,251.78l10.59-2.14V237.42L1,235.35v-9.48q13.54,3.25,24.7,6.59t21.14,6.44v9.93q-10.06,3.25-21.36,6.47T1,261.56Zm37-8.14c-1.73-.5-3.37-.95-4.93-1.37s-3.08-.82-4.59-1.19-3-.71-4.55-1-3.11-.63-4.74-.93v9c1.63-.3,3.21-.59,4.74-.89s3.05-.63,4.55-1,3-.76,4.59-1.18S36.2,244.13,37.93,243.64Zm9.4,35.17q0,8.74-3.59,13.55T32,297.17q-8.22,0-11.89-4.85t-3.66-13.73v-3.26H1v-9.11H46.22c.2.89.37,1.89.52,3s.25,2.24.33,3.37.14,2.25.19,3.33.07,2.06.07,2.89Zm-7.93,1c0-.55,0-1.3,0-2.26a15.54,15.54,0,0,0-.19-2.26H24.37V279q0,4.37,1.74,6.59t6,2.22q4,0,5.67-2.18a9.39,9.39,0,0,0,1.67-5.81Zm7.4,53.09H1v-9.11H21.19V311.69H1v-9.11H46.81v9.11H28.75v12.14H46.81ZM25.85,355.08c1.13.55,2.56,1.17,4.29,1.89s3.56,1.43,5.48,2.15,3.88,1.4,5.85,2.07L46.81,363v9.4Q43,371,39.48,369.59c-2.37-.94-4.71-1.92-7-3s-4.63-2.14-6.92-3.33-4.66-2.47-7.08-3.85H1v-9.18h17.4q7.17-4.08,14-7.15t14.4-5.88V347q-5.34,1.69-10.85,3.78t-10.1,4.29Z" style="fill:#094c84"/><path id="Path_171" data-name="Path 171" d="M59.46,218.74a4.78,4.78,0,0,1-3.79-1.58,6.26,6.26,0,0,1-1.39-4.28,15,15,0,0,1,.63-4.26,12.56,12.56,0,0,1,1.81-3.78,9.73,9.73,0,0,1,2.88-2.69,7.29,7.29,0,0,1,3.81-1,6.74,6.74,0,0,1,2.63.44,6.36,6.36,0,0,1,1.46.82l-1.06,1.8a4.14,4.14,0,0,0-1.35-.74,5.25,5.25,0,0,0-1.84-.33,5,5,0,0,0-2.82.82,7.17,7.17,0,0,0-2.1,2.15,11.14,11.14,0,0,0-1.32,3,12.7,12.7,0,0,0-.46,3.42,4.94,4.94,0,0,0,.86,3.09A3,3,0,0,0,60,216.75a7.29,7.29,0,0,0,2.32-.34,8.25,8.25,0,0,0,1.5-.64l.24,1.91a2.7,2.7,0,0,1-.58.31,7.49,7.49,0,0,1-1,.34,13,13,0,0,1-1.35.29A10.81,10.81,0,0,1,59.46,218.74Zm7.25-.35,4.42-18.51,2.34-.38-1.55,6.43a6.81,6.81,0,0,1,1.17-.34,6.54,6.54,0,0,1,1.25-.12,5.1,5.1,0,0,1,1.89.3,3.26,3.26,0,0,1,1.28.83,3.37,3.37,0,0,1,.72,1.26,5.23,5.23,0,0,1,.23,1.61,6.87,6.87,0,0,1-.11,1.2c-.07.42-.16.85-.27,1.28l-1.56,6.44H74.29l1.42-5.94c.11-.46.22-.93.34-1.4a5.86,5.86,0,0,0,.17-1.38,2.39,2.39,0,0,0-.54-1.6,2.55,2.55,0,0,0-2-.64,5.77,5.77,0,0,0-2.18.39l-2.59,10.57Zm22.65.13a6,6,0,0,1-.25-.58,3.38,3.38,0,0,1-.16-.7,7.06,7.06,0,0,1-1.51,1,5.16,5.16,0,0,1-2.28.47A3.67,3.67,0,0,1,82,217.4a5.17,5.17,0,0,1-1-3.24,9.59,9.59,0,0,1,.55-3.19,8.17,8.17,0,0,1,1.65-2.78,8,8,0,0,1,2.77-2,9.18,9.18,0,0,1,3.87-.75l.75,0a8.08,8.08,0,0,1,.86.11c.29.06.58.12.86.2a4,4,0,0,1,.75.29l-1.86,7.64c-.09.38-.16.74-.23,1.07a5.64,5.64,0,0,0-.1,1.08A6.1,6.1,0,0,0,91,217a10.79,10.79,0,0,0,.33,1.24Zm-3.73-1.69a3.7,3.7,0,0,0,1.84-.43,5.24,5.24,0,0,0,1.35-1c0-.27.05-.58.1-.93a8.42,8.42,0,0,1,.18-1l1.5-6a3.18,3.18,0,0,0-.52-.1l-.6,0a5.75,5.75,0,0,0-2.52.55A6.09,6.09,0,0,0,85,209.35a6.33,6.33,0,0,0-1.26,2.1,7.14,7.14,0,0,0-.44,2.47,6.4,6.4,0,0,0,.11,1.15,2.55,2.55,0,0,0,.37.92,1.83,1.83,0,0,0,.71.61,2.32,2.32,0,0,0,1.13.23Zm9.54,1.56,2.89-12a18.71,18.71,0,0,1,5.8-.92,12.55,12.55,0,0,1,1.5.07c.44,0,1,.13,1.61.25l-.84,2-.75-.17c-.23-.05-.44-.08-.64-.11a6.2,6.2,0,0,0-.62-.06h-.72a14.22,14.22,0,0,0-1.73.11,13.3,13.3,0,0,0-1.76.33L97.4,218.39Zm21.45.13a4.17,4.17,0,0,1-.24-.58,3.4,3.4,0,0,1-.17-.7,7.06,7.06,0,0,1-1.51,1,5.25,5.25,0,0,1-2.28.48,3.71,3.71,0,0,1-3.12-1.28,5.13,5.13,0,0,1-1-3.25,9.67,9.67,0,0,1,.54-3.19,8.27,8.27,0,0,1,1.65-2.78,8.11,8.11,0,0,1,2.77-2,9.18,9.18,0,0,1,3.87-.75l.75,0a8.43,8.43,0,0,1,.86.11c.29.06.57.12.86.2a5.28,5.28,0,0,1,.75.29l-1.86,7.64c-.09.38-.17.74-.23,1.07a5.64,5.64,0,0,0-.1,1.08,5.35,5.35,0,0,0,.11,1.13,10.79,10.79,0,0,0,.33,1.24Zm-3.73-1.69a3.7,3.7,0,0,0,1.84-.43,5.24,5.24,0,0,0,1.35-1,9.31,9.31,0,0,1,.1-.93c0-.33.1-.65.17-1l1.5-6a3,3,0,0,0-.52-.1l-.6,0a5.78,5.78,0,0,0-2.52.55,6.2,6.2,0,0,0-1.95,1.46,6.47,6.47,0,0,0-1.25,2.1,7.13,7.13,0,0,0-.44,2.46,6.42,6.42,0,0,0,.11,1.16,2.43,2.43,0,0,0,.37.91,1.84,1.84,0,0,0,.71.62,2.57,2.57,0,0,0,1.13.23Zm9-3a9.11,9.11,0,0,1,.55-3.19,8.06,8.06,0,0,1,1.64-2.7,7.77,7.77,0,0,1,2.64-1.86,8.66,8.66,0,0,1,3.62-.7,10.79,10.79,0,0,1,2,.15,7.3,7.3,0,0,1,1.58.45l-.85,1.9a6.87,6.87,0,0,0-1.1-.4,6.66,6.66,0,0,0-1.78-.2,5.78,5.78,0,0,0-4.4,1.95,6.21,6.21,0,0,0-1.19,2,6.52,6.52,0,0,0-.41,2.36,3.91,3.91,0,0,0,.16,1.18,2.34,2.34,0,0,0,.6,1,3,3,0,0,0,1.19.68,6,6,0,0,0,1.89.24,9.2,9.2,0,0,0,1.17-.08,7.81,7.81,0,0,0,1.07-.22c.32-.09.61-.18.85-.27a2.63,2.63,0,0,0,.56-.27l.19,1.9a6.5,6.5,0,0,1-1.59.6,9.92,9.92,0,0,1-2.66.3,6,6,0,0,1-4.26-1.36A4.55,4.55,0,0,1,121.94,213.86ZM145.59,218a16.06,16.06,0,0,1-1.64.47,8.59,8.59,0,0,1-1.82.19,6,6,0,0,1-1.46-.17,3.35,3.35,0,0,1-1.17-.53,2.5,2.5,0,0,1-.79-1,3.88,3.88,0,0,1-.28-1.58,7.44,7.44,0,0,1,.1-1.25c.06-.44.15-.88.26-1.34l1.28-5.2h-2.68l.44-1.89h2.7l.84-3.54,2.35-.38-1,3.92h4.85l-.43,1.89H142.3L141,213c-.09.35-.17.69-.24,1a4.49,4.49,0,0,0-.11,1,1.62,1.62,0,0,0,.48,1.38,2.27,2.27,0,0,0,1.35.34,7.72,7.72,0,0,0,1.65-.18,10.06,10.06,0,0,0,1.51-.45Zm6.08-6.3c1.1,0,2.08-.06,2.94-.14a9.31,9.31,0,0,0,2.22-.45,3.15,3.15,0,0,0,1.4-.92,2.21,2.21,0,0,0,.49-1.48,1,1,0,0,0-.1-.46,1.27,1.27,0,0,0-.32-.47,1.83,1.83,0,0,0-.64-.35,3.16,3.16,0,0,0-1-.14,4.11,4.11,0,0,0-1.73.37,5.58,5.58,0,0,0-1.46,1,5.72,5.72,0,0,0-1.1,1.4,7.36,7.36,0,0,0-.69,1.67Zm2.76,7a6.1,6.1,0,0,1-2.32-.4,4.9,4.9,0,0,1-1.64-1.05,4,4,0,0,1-1-1.51,5.2,5.2,0,0,1-.32-1.79,10.41,10.41,0,0,1,.53-3.27,8.28,8.28,0,0,1,1.54-2.71,7.49,7.49,0,0,1,2.44-1.85,7.24,7.24,0,0,1,3.23-.7,5.41,5.41,0,0,1,1.83.26,3.55,3.55,0,0,1,1.25.68,2.64,2.64,0,0,1,.73,1,3.28,3.28,0,0,1,.23,1.2,3.8,3.8,0,0,1-.87,2.67,5.27,5.27,0,0,1-2.27,1.43,12.57,12.57,0,0,1-3.09.63c-1.13.09-2.25.15-3.34.19a2.55,2.55,0,0,0,.9,2.49,4.6,4.6,0,0,0,2.81.78,7.72,7.72,0,0,0,1.18-.1c.41-.07.79-.14,1.15-.22a7.75,7.75,0,0,0,.94-.27,2.94,2.94,0,0,0,.57-.26l.19,1.91a8.44,8.44,0,0,1-1.69.58,11.84,11.84,0,0,1-3,.32Zm8.88-.32,2.89-12a18.82,18.82,0,0,1,5.81-.92,12.55,12.55,0,0,1,1.5.07c.43,0,1,.13,1.61.25l-.85,2c-.27-.07-.52-.13-.75-.17s-.44-.08-.64-.11-.41-.05-.61-.06h-.73a14.48,14.48,0,0,0-1.73.11,12.86,12.86,0,0,0-1.75.33l-2.51,10.52Z" style="fill:#2371aa"/><path id="Path_183" data-name="Path 183" d="M71.15,54.38q5.43,0,8.28-2.07a7.19,7.19,0,0,0,2.85-6.22,8.27,8.27,0,0,0-1-4.27,10.81,10.81,0,0,0-2.76-3.11,20.07,20.07,0,0,0-3.88-2.33q-2.16-1-4.4-1.86a44,44,0,0,1-5-2.33,20.3,20.3,0,0,1-4.22-3,12.66,12.66,0,0,1-2.94-4.05A13,13,0,0,1,57,19.59q0-7,4.4-10.91T73.65,4.75a30.54,30.54,0,0,1,4.27.3c1.41.2,2.72.44,3.93.73a20.27,20.27,0,0,1,3.23,1A12.22,12.22,0,0,1,87.37,8l-2.24,6a25.69,25.69,0,0,0-4.75-2.07,20.79,20.79,0,0,0-6.73-1,11.63,11.63,0,0,0-6.74,1.94,6.59,6.59,0,0,0-2.84,5.82,8,8,0,0,0,.82,3.8,8.92,8.92,0,0,0,2.24,2.72,17.56,17.56,0,0,0,3.33,2.12q1.89.95,4.14,1.9,3.27,1.38,6,2.76a18.69,18.69,0,0,1,4.66,3.28,13.32,13.32,0,0,1,3,4.49A16.27,16.27,0,0,1,89.36,46q0,7-4.7,10.74T71.15,60.51a34.26,34.26,0,0,1-5.36-.39,30.62,30.62,0,0,1-4.44-1c-1.3-.4-2.43-.81-3.41-1.21A14.19,14.19,0,0,1,55.7,56.8l2.15-5.87a41,41,0,0,0,5.1,2.2A23.75,23.75,0,0,0,71.15,54.38Zm43.93-35.05H132v6H115.08V43.93a23.1,23.1,0,0,0,.43,4.92,7,7,0,0,0,1.43,3.07,5,5,0,0,0,2.54,1.6,14.3,14.3,0,0,0,3.8.43,17.14,17.14,0,0,0,8.63-1.9l1,6q-1.22.52-3.84,1.38a20.89,20.89,0,0,1-6.52.86,21.74,21.74,0,0,1-7.34-1,9.61,9.61,0,0,1-4.44-3.11,12,12,0,0,1-2.2-5.13,37,37,0,0,1-.6-7.13V25.29H99.54v-6H108V8.11l7.08-1.2Zm26.59,47.56a7.34,7.34,0,0,0,2.2.7,14.38,14.38,0,0,0,2.63.25A10.49,10.49,0,0,0,153.1,66a16.53,16.53,0,0,0,4.36-6.09,211.27,211.27,0,0,1-9.07-19.63,177.77,177.77,0,0,1-7-20.93h7.77c.58,2.3,1.25,4.79,2,7.46s1.65,5.42,2.63,8.24,2,5.66,3.15,8.5,2.32,5.57,3.58,8.16c.92-2.65,1.79-5.26,2.59-7.85s1.56-5.2,2.25-7.82,1.38-5.29,2.07-8,1.41-5.63,2.16-8.68h7.42q-2.76,11.22-6.17,21.75t-7.29,19.51a36.1,36.1,0,0,1-3.15,6,19.3,19.3,0,0,1-3.67,4.14,13,13,0,0,1-4.49,2.42,19.61,19.61,0,0,1-5.7.78,16.62,16.62,0,0,1-3.58-.44,12.78,12.78,0,0,1-2.63-.77Zm67.93-6.56a16.49,16.49,0,0,1-6.3-1,8.81,8.81,0,0,1-4-3.11,13.21,13.21,0,0,1-2.08-5.13,37,37,0,0,1-.6-7.13V6H185.08V0h18.65V43.93a24.56,24.56,0,0,0,.38,4.92,8.1,8.1,0,0,0,1.21,3.07,4.22,4.22,0,0,0,2,1.6,8.61,8.61,0,0,0,2.85.43,17.48,17.48,0,0,0,4.66-.6,14.9,14.9,0,0,0,3.36-1.3l1,6.05c-.35.17-.83.39-1.47.64a17.79,17.79,0,0,1-2.24.74c-.86.23-1.8.43-2.81.6A18.39,18.39,0,0,1,209.6,60.33Zm36.33-41.95q8.12,0,12.52,5.05t4.4,15.32v2.5H234.19q.44,6.22,4.1,9.46t10.32,3.23a29.31,29.31,0,0,0,6.47-.6,18.63,18.63,0,0,0,4.06-1.29l.95,6a21.21,21.21,0,0,1-4.66,1.47,34.11,34.11,0,0,1-7.6.78,24.25,24.25,0,0,1-9.11-1.6,18.08,18.08,0,0,1-6.51-4.36,17.89,17.89,0,0,1-3.89-6.6A25.9,25.9,0,0,1,227,39.45a24.12,24.12,0,0,1,1.64-9.32A19.19,19.19,0,0,1,233,23.57a17.9,17.9,0,0,1,6-3.89,19.25,19.25,0,0,1,6.91-1.29Zm9.67,17.09a11.67,11.67,0,0,0-2.67-8.07,9.07,9.07,0,0,0-7.08-3,10.39,10.39,0,0,0-4.53.95,11.16,11.16,0,0,0-3.5,2.5,12.18,12.18,0,0,0-2.34,3.54,15,15,0,0,0-1.12,4Z" style="fill:#24648d"/><path id="Path_172" data-name="Path 172" d="M55.24,155.69V113.51H81.07v6.95H63.62v10.23H78.89v6.95H63.62v18.05Zm61.94-16.08a20.62,20.62,0,0,1-1.09,6.92,16.12,16.12,0,0,1-3.06,5.35,13.66,13.66,0,0,1-4.74,3.47,16.07,16.07,0,0,1-12.33,0,13.9,13.9,0,0,1-4.77-3.47,15.7,15.7,0,0,1-3.1-5.35A20.62,20.62,0,0,1,87,139.61a20,20,0,0,1,1.12-6.85,15.76,15.76,0,0,1,3.13-5.31,13.59,13.59,0,0,1,4.8-3.41,15.39,15.39,0,0,1,6.07-1.19,15.22,15.22,0,0,1,6.1,1.19,13.79,13.79,0,0,1,4.77,3.41,15.43,15.43,0,0,1,3.1,5.31A20.47,20.47,0,0,1,117.18,139.61Zm-21.66.07a13.74,13.74,0,0,0,1.53,6.95,5.27,5.27,0,0,0,4.94,2.66,5.46,5.46,0,0,0,4.94-2.66,12.88,12.88,0,0,0,1.67-6.95,13.63,13.63,0,0,0-1.53-6.92,5.3,5.3,0,0,0-4.94-2.62,5.46,5.46,0,0,0-4.94,2.62A12.6,12.6,0,0,0,95.52,139.68Zm27.86-15a55.42,55.42,0,0,1,5.56-1.16,43.28,43.28,0,0,1,7.19-.54,16.54,16.54,0,0,1,6.34,1.05,9.37,9.37,0,0,1,4,3,12,12,0,0,1,2.08,4.63,26.6,26.6,0,0,1,.61,6v18.05h-8.38v-17q0-4.5-1-6.48t-4.16-2c-.63,0-1.26,0-1.87.06s-1.26.12-1.94.2v25.15h-8.39Zm39.53,5.93h-7.29v-7h7.29v-8l8.38-1.36v9.4h13.43v7H171.29v12.95a9.83,9.83,0,0,0,.34,2.86,4.09,4.09,0,0,0,1,1.7,3.09,3.09,0,0,0,1.5.82,8.81,8.81,0,0,0,2,.2c.77,0,1.49,0,2.15-.07a15.58,15.58,0,0,0,1.91-.24,12.7,12.7,0,0,0,1.9-.51,21.08,21.08,0,0,0,2.15-.88l1.16,7.22a21.78,21.78,0,0,1-5,1.38,35.09,35.09,0,0,1-5.22.41,25,25,0,0,1-5.18-.48,8.27,8.27,0,0,1-3.81-1.84,8.43,8.43,0,0,1-2.39-3.85,21.35,21.35,0,0,1-.81-6.51Z" style="fill:#2d7198"/><path id="Path_184" data-name="Path 184" d="M57.93,182.81a3,3,0,0,0,1.74-.44,1.5,1.5,0,0,0,.6-1.31,1.78,1.78,0,0,0-.21-.9,2.28,2.28,0,0,0-.59-.65,3.79,3.79,0,0,0-.82-.49c-.3-.14-.61-.27-.92-.39a10.09,10.09,0,0,1-1-.5,4.23,4.23,0,0,1-.89-.63,2.67,2.67,0,0,1-.62-.86,2.7,2.7,0,0,1-.22-1.16,2.93,2.93,0,0,1,.92-2.3,3.78,3.78,0,0,1,2.58-.83,6.82,6.82,0,0,1,.9.07,8.29,8.29,0,0,1,.83.15,5.39,5.39,0,0,1,.68.22,2.73,2.73,0,0,1,.48.25l-.47,1.26a5.61,5.61,0,0,0-1-.44,4.22,4.22,0,0,0-1.42-.21,2.37,2.37,0,0,0-1.41.41,1.36,1.36,0,0,0-.6,1.22,1.7,1.7,0,0,0,.17.8,1.86,1.86,0,0,0,.47.57,3.47,3.47,0,0,0,.7.45c.27.13.56.27.87.4.46.19.88.39,1.27.58a4,4,0,0,1,1,.69,2.77,2.77,0,0,1,.63.95,3.31,3.31,0,0,1,.23,1.32,2.72,2.72,0,0,1-1,2.26,4.42,4.42,0,0,1-2.84.79A7.07,7.07,0,0,1,56.8,184a7.51,7.51,0,0,1-.94-.21c-.27-.09-.51-.17-.71-.26a2.65,2.65,0,0,1-.48-.23l.46-1.24a7.84,7.84,0,0,0,1.07.46A5.05,5.05,0,0,0,57.93,182.81Zm11.64-3.15a3.39,3.39,0,0,0-.69-2.28,2.26,2.26,0,0,0-1.8-.81,7.89,7.89,0,0,0-1,.06,2.57,2.57,0,0,0-.55.12v5.33a2.39,2.39,0,0,0,.74.43,2.54,2.54,0,0,0,1,.2,2.16,2.16,0,0,0,1-.23,2.07,2.07,0,0,0,.7-.65,3,3,0,0,0,.4-1A5.46,5.46,0,0,0,69.57,179.66Zm1.55,0a6.21,6.21,0,0,1-.25,1.77,3.82,3.82,0,0,1-.71,1.39,3.12,3.12,0,0,1-1.13.91,3.38,3.38,0,0,1-1.53.33,3.91,3.91,0,0,1-1.18-.16,2.44,2.44,0,0,1-.76-.37v3.33H64.05V175.68c.33-.09.75-.19,1.26-.29a9.64,9.64,0,0,1,1.78-.14,4.27,4.27,0,0,1,1.65.3,3.53,3.53,0,0,1,1.27.89,3.91,3.91,0,0,1,.82,1.39A5.43,5.43,0,0,1,71.12,179.66Zm5.36,3.13c.37,0,.71,0,1,0s.49-.05.73-.09v-2.51a5.1,5.1,0,0,0-.7-.14,6.11,6.11,0,0,0-.86-.06,4.54,4.54,0,0,0-.82.07,2.33,2.33,0,0,0-.71.22,1.59,1.59,0,0,0-.5.43,1.05,1.05,0,0,0-.2.66,1.18,1.18,0,0,0,.55,1.14A3.1,3.1,0,0,0,76.48,182.79Zm-.15-7.56a4.51,4.51,0,0,1,1.59.23,2.68,2.68,0,0,1,1,.66,2.31,2.31,0,0,1,.57,1,5.28,5.28,0,0,1,.16,1.31v5.28l-1.39.21a11.71,11.71,0,0,1-1.77.13,7.7,7.7,0,0,1-1.35-.12,3.65,3.65,0,0,1-1.16-.41,2.33,2.33,0,0,1-.82-.83,2.63,2.63,0,0,1-.31-1.35,2.28,2.28,0,0,1,.32-1.22,2.54,2.54,0,0,1,.82-.81,3.4,3.4,0,0,1,1.14-.45,6.37,6.37,0,0,1,1.3-.13,7.34,7.34,0,0,1,1.75.2v-.42a3.65,3.65,0,0,0-.08-.74,1.73,1.73,0,0,0-.31-.64,1.58,1.58,0,0,0-.62-.47,2.68,2.68,0,0,0-1-.17,6.87,6.87,0,0,0-1.36.11,5.51,5.51,0,0,0-.89.22l-.19-1.24a4.08,4.08,0,0,1,1-.25A9.84,9.84,0,0,1,76.33,175.23Zm5.49,4.43a5,5,0,0,1,.37-2,3.69,3.69,0,0,1,1-1.38,4.11,4.11,0,0,1,1.48-.81,5.77,5.77,0,0,1,1.8-.26,10.16,10.16,0,0,1,1.23.08,7.21,7.21,0,0,1,1.3.3l-.34,1.29a5.38,5.38,0,0,0-1.1-.28,8.72,8.72,0,0,0-1-.07,4.33,4.33,0,0,0-1.24.18,2.6,2.6,0,0,0-1,.54,2.68,2.68,0,0,0-.68,1,3.51,3.51,0,0,0-.25,1.43A3.35,3.35,0,0,0,83.6,181a2.46,2.46,0,0,0,.67.95,2.73,2.73,0,0,0,1,.55,4.27,4.27,0,0,0,1.33.18,10.51,10.51,0,0,0,1.12-.06,5.87,5.87,0,0,0,1.17-.28l.22,1.25a6.46,6.46,0,0,1-1.29.34,9.69,9.69,0,0,1-1.42.1,5.87,5.87,0,0,1-1.86-.28A4.32,4.32,0,0,1,83.1,183a3.69,3.69,0,0,1-.94-1.37,5,5,0,0,1-.34-1.92Zm12.9-4.43a3.32,3.32,0,0,1,2.64,1.06,4.91,4.91,0,0,1,.93,3.23V180h-6a2.77,2.77,0,0,0,.87,2,3.14,3.14,0,0,0,2.17.68,6.26,6.26,0,0,0,1.36-.12,4.2,4.2,0,0,0,.85-.27l.2,1.27a4.66,4.66,0,0,1-1,.31,7.12,7.12,0,0,1-1.6.16,5,5,0,0,1-1.91-.33,4,4,0,0,1-1.38-.92,3.61,3.61,0,0,1-.81-1.39,5.54,5.54,0,0,1-.28-1.76,5.07,5.07,0,0,1,.35-2,3.86,3.86,0,0,1,.91-1.38,3.65,3.65,0,0,1,1.27-.82,4,4,0,0,1,1.45-.27Zm2,3.6a2.44,2.44,0,0,0-.57-1.7,1.9,1.9,0,0,0-1.49-.63,2.25,2.25,0,0,0-1,.2,2.45,2.45,0,0,0-.74.53,2.76,2.76,0,0,0-.72,1.6Z" style="fill:#166183"/><path id="Path_154" data-name="Path 154" d="M67.36,252.31l5.23-16.79h4.2q1.09,8,1.55,16.3t.85,17.45H74.83c0-2-.08-4.09-.11-6.38s-.09-4.65-.14-7.09-.11-4.9-.16-7.41-.12-4.94-.19-7.3l-4.91,15.37H65.4l-5-15.38c0,2.36-.08,4.79-.14,7.28s-.11,5-.16,7.41-.11,4.83-.16,7.12-.1,4.41-.14,6.38H55.42c.11-2.77.23-5.6.38-8.5s.32-5.8.52-8.67.43-5.71.71-8.5.57-5.49.9-8.07h4.14Zm27.47,13.74c1.13,0,2.14,0,3-.11a20.51,20.51,0,0,0,2.21-.27v-7.53a12.62,12.62,0,0,0-2.1-.43,18.78,18.78,0,0,0-2.59-.17,15.68,15.68,0,0,0-2.46.19,6.83,6.83,0,0,0-2.12.68,4.62,4.62,0,0,0-1.53,1.28,3.29,3.29,0,0,0-.6,2,3.59,3.59,0,0,0,1.67,3.41A9.08,9.08,0,0,0,94.83,266.05Zm-.43-22.68a14.05,14.05,0,0,1,4.77.71,8.26,8.26,0,0,1,3.13,2,7.08,7.08,0,0,1,1.69,3.05,15,15,0,0,1,.49,3.93v15.81c-1,.18-2.44.4-4.17.65a36.42,36.42,0,0,1-5.32.39,22.7,22.7,0,0,1-4-.36,10.36,10.36,0,0,1-3.49-1.25A6.85,6.85,0,0,1,85,265.78a8,8,0,0,1-.93-4,6.72,6.72,0,0,1,1-3.68,7.65,7.65,0,0,1,2.45-2.42,10.64,10.64,0,0,1,3.43-1.33,18.26,18.26,0,0,1,3.9-.41,22.59,22.59,0,0,1,5.24.6v-1.26a9.73,9.73,0,0,0-.25-2.21,4.88,4.88,0,0,0-.93-1.93A4.7,4.7,0,0,0,97,247.71a7.45,7.45,0,0,0-3-.52,21.47,21.47,0,0,0-4.08.33,19,19,0,0,0-2.68.65l-.54-3.71a12.51,12.51,0,0,1,3.08-.76A32.28,32.28,0,0,1,94.4,243.37ZM114,269.27V245.33a34.35,34.35,0,0,1,11.23-1.9c1.16,0,2.27,0,3.33.13a25.9,25.9,0,0,1,3.49.57l-.82,4a19.1,19.1,0,0,0-3.08-.62,28.54,28.54,0,0,0-2.92-.14,25.75,25.75,0,0,0-6.76.93v21Zm40.29-2.35a12.49,12.49,0,0,1-2.35.93,12.14,12.14,0,0,1-3.65.49,11.68,11.68,0,0,1-4.17-.74,9.11,9.11,0,0,1-3.38-2.23,10.8,10.8,0,0,1-2.29-3.82,15.9,15.9,0,0,1-.84-5.48,15.53,15.53,0,0,1,.79-5.1,11.42,11.42,0,0,1,2.29-4,10.54,10.54,0,0,1,3.68-2.65,12.41,12.41,0,0,1,5-.95,29.16,29.16,0,0,1,5.59.46q2.31.46,3.9.9V267.3q0,5.9-3,8.5c-2,1.75-5,2.62-9,2.62a22.93,22.93,0,0,1-4.45-.38,23.56,23.56,0,0,1-3.51-.93l.81-4a17.63,17.63,0,0,0,3.25,1,18.57,18.57,0,0,0,4,.38c2.62,0,4.49-.52,5.62-1.58s1.69-2.76,1.69-5.12Zm0-19a12.34,12.34,0,0,0-1.8-.41,20.22,20.22,0,0,0-3.11-.19,6.3,6.3,0,0,0-5.32,2.4,10.29,10.29,0,0,0-1.82,6.38,11.53,11.53,0,0,0,.52,3.73,6.93,6.93,0,0,0,1.42,2.56,5.53,5.53,0,0,0,2,1.48,6.47,6.47,0,0,0,2.46.46,10.11,10.11,0,0,0,3.18-.49,9.18,9.18,0,0,0,2.43-1.15ZM174.1,240a3.43,3.43,0,0,1-2.45-1,3.95,3.95,0,0,1,0-5.34,3.59,3.59,0,0,1,4.93,0,4,4,0,0,1,0,5.34A3.39,3.39,0,0,1,174.1,240ZM173,247.73h-7.3V244h11.78v15.54q0,3.76,1,5a3.76,3.76,0,0,0,3.11,1.28,10.64,10.64,0,0,0,2.92-.38,9.44,9.44,0,0,0,2.1-.82l.65,3.82c-.22.11-.52.24-.92.41a14.13,14.13,0,0,1-1.39.46,17.1,17.1,0,0,1-1.75.38,12.06,12.06,0,0,1-2,.17,10.38,10.38,0,0,1-4-.66,5.75,5.75,0,0,1-2.53-2,8,8,0,0,1-1.34-3.24,23.51,23.51,0,0,1-.38-4.5Zm20.88-3a45.13,45.13,0,0,1,4.88-.93,34.69,34.69,0,0,1,4.55-.33c3.38,0,5.94.87,7.66,2.62s2.59,4.54,2.59,8.4v14.83H209v-14a14.82,14.82,0,0,0-.43-4,5.73,5.73,0,0,0-1.23-2.37,4.19,4.19,0,0,0-1.91-1.18,8.68,8.68,0,0,0-2.43-.32,22.35,22.35,0,0,0-2.31.13q-1.23.14-2.37.36v21.37h-4.53Z" style="fill:#5f88b1"/><path id="Path_155" data-name="Path 155" d="M84.38,349.4A31.57,31.57,0,0,1,82.82,360a18.64,18.64,0,0,1-4.29,7.09,16.11,16.11,0,0,1-6.47,4A25.57,25.57,0,0,1,64,372.3a39.24,39.24,0,0,1-9.09-1.09V327.6A38.7,38.7,0,0,1,64,326.51a25.6,25.6,0,0,1,8.1,1.23,16.13,16.13,0,0,1,6.47,4,19.29,19.29,0,0,1,4.29,7.13A31.11,31.11,0,0,1,84.38,349.4ZM60.83,366.92a30.66,30.66,0,0,0,3.71.22,16.3,16.3,0,0,0,5.82-1A10.17,10.17,0,0,0,74.64,363a14.92,14.92,0,0,0,2.69-5.53,30.28,30.28,0,0,0,1-8.1q0-9.15-3.53-13.45t-10.43-4.28c-.63,0-1.24,0-1.85,0a11.27,11.27,0,0,0-1.64.18Zm45.29-29.51q6.82,0,10.54,4.25t3.7,12.9v2.11H96.23c.24,3.49,1.4,6.14,3.46,8s5,2.72,8.68,2.72a25.54,25.54,0,0,0,5.45-.5,16.41,16.41,0,0,0,3.42-1.09l.8,5.08a17.6,17.6,0,0,1-3.93,1.24,28.1,28.1,0,0,1-6.4.65,20,20,0,0,1-7.66-1.34,15.24,15.24,0,0,1-5.49-3.67,15,15,0,0,1-3.27-5.56,21.51,21.51,0,0,1-1.09-7,20.45,20.45,0,0,1,1.38-7.85,16,16,0,0,1,3.63-5.52,14.91,14.91,0,0,1,5.09-3.27A16.07,16.07,0,0,1,106.12,337.41Zm8.13,14.39A9.78,9.78,0,0,0,112,345a7.63,7.63,0,0,0-6-2.51,9.13,9.13,0,0,0-3.82.8,9.74,9.74,0,0,0-2.94,2.11,10.2,10.2,0,0,0-2,3,12.34,12.34,0,0,0-.95,3.42Zm34.89,11.7a3.62,3.62,0,0,0-1.49-3,14.81,14.81,0,0,0-3.7-2c-1.47-.58-3.09-1.15-4.83-1.71a26.13,26.13,0,0,1-4.83-2.07,12.86,12.86,0,0,1-3.71-3,7.21,7.21,0,0,1-1.49-4.73,8.46,8.46,0,0,1,3.31-6.8q3.3-2.73,10.35-2.73a43.6,43.6,0,0,1,5.71.4,32.14,32.14,0,0,1,5,1.06l-1.09,5.38a11.5,11.5,0,0,0-1.6-.62,20.7,20.7,0,0,0-2.32-.58c-.88-.17-1.81-.3-2.8-.4s-2-.15-2.88-.15q-7.84,0-7.85,4.29a3.12,3.12,0,0,0,1.49,2.58,17.74,17.74,0,0,0,3.75,1.93q2.25.87,4.87,1.78a27.41,27.41,0,0,1,4.87,2.22,13.2,13.2,0,0,1,3.74,3.16,7.21,7.21,0,0,1,1.49,4.69,8.14,8.14,0,0,1-3.56,7.08q-3.57,2.52-11.27,2.52a32.79,32.79,0,0,1-6.4-.59,26,26,0,0,1-5.52-1.74l1.16-5.45a35.09,35.09,0,0,0,5.34,1.93,23,23,0,0,0,6,.76q8.22,0,8.22-4.15Zm26-30.52a4.6,4.6,0,0,1-4.65-4.87,4.68,4.68,0,0,1,1.38-3.57,4.81,4.81,0,0,1,6.58,0,5.41,5.41,0,0,1,0,7.13A4.6,4.6,0,0,1,175.17,333Zm-1.53,10.24H163.9v-5h15.7v20.72q0,5,1.38,6.72a5,5,0,0,0,4.15,1.71,14.24,14.24,0,0,0,3.89-.51,13.43,13.43,0,0,0,2.8-1.09l.87,5.09c-.29.14-.7.32-1.24.54a16.73,16.73,0,0,1-1.85.62c-.7.19-1.48.36-2.33.51a15.62,15.62,0,0,1-2.65.22,14,14,0,0,1-5.31-.88,7.69,7.69,0,0,1-3.38-2.61,10.85,10.85,0,0,1-1.78-4.33,31.78,31.78,0,0,1-.51-6Zm47.83,25.59a16.59,16.59,0,0,1-3.13,1.24,16.35,16.35,0,0,1-4.87.65,15.55,15.55,0,0,1-5.56-1,12.26,12.26,0,0,1-4.5-3,14.18,14.18,0,0,1-3.06-5.09,21.31,21.31,0,0,1-1.12-7.3,20.92,20.92,0,0,1,1.05-6.8,15.53,15.53,0,0,1,3.05-5.34,14.11,14.11,0,0,1,4.91-3.53,16.45,16.45,0,0,1,6.61-1.27,38.7,38.7,0,0,1,7.45.62c2.06.41,3.8.81,5.2,1.2v30.09q0,7.85-4,11.34t-11.95,3.49a32.76,32.76,0,0,1-5.93-.51A31.76,31.76,0,0,1,201,382.4l1.09-5.3a23.45,23.45,0,0,0,4.33,1.3,25.24,25.24,0,0,0,5.34.51c3.49,0,6-.7,7.49-2.1s2.25-3.69,2.25-6.84Zm0-25.3a16.63,16.63,0,0,0-2.4-.54,26.08,26.08,0,0,0-4.14-.25,8.33,8.33,0,0,0-7.09,3.2,13.6,13.6,0,0,0-2.43,8.5,15.61,15.61,0,0,0,.69,5,9.62,9.62,0,0,0,1.89,3.41,7.17,7.17,0,0,0,2.72,2,8.52,8.52,0,0,0,3.27.62,13.68,13.68,0,0,0,4.26-.65,12.26,12.26,0,0,0,3.23-1.53Zm16.35-4.36a65.48,65.48,0,0,1,6.51-1.23,45.65,45.65,0,0,1,6.07-.44q6.75,0,10.21,3.49t3.45,11.19v19.78h-6V353.26a19.75,19.75,0,0,0-.58-5.31,7.7,7.7,0,0,0-1.63-3.16,5.52,5.52,0,0,0-2.55-1.57,11.75,11.75,0,0,0-3.23-.43A26.55,26.55,0,0,0,247,343c-1.09.12-2.14.28-3.16.47v28.5h-6Z" style="fill:#5f88b1"/><path id="Path_185" data-name="Path 185" d="M63.12,80.85c-.59.88-1.24,1.76-1.95,2.63s-1.48,1.75-2.3,2.62c.39.33.8.71,1.24,1.14s.87.93,1.28,1.43a19.51,19.51,0,0,1,1.18,1.64,12.57,12.57,0,0,1,.93,1.78H61.81c-.3-.55-.63-1.1-1-1.63A13.48,13.48,0,0,0,59.71,89a13.12,13.12,0,0,0-1.21-1.26,9.78,9.78,0,0,0-1.26-1V92.1H55.75V80.85h1.49v5c.78-.81,1.54-1.66,2.26-2.54s1.35-1.71,1.9-2.47Zm10.7,2.61a3.32,3.32,0,0,1,2.65,1.07,4.8,4.8,0,0,1,.92,3.22v.53h-6a2.79,2.79,0,0,0,.87,2,3.2,3.2,0,0,0,2.17.68,6.89,6.89,0,0,0,1.36-.13,4.29,4.29,0,0,0,.86-.27l.2,1.27a5.06,5.06,0,0,1-1,.31,7.24,7.24,0,0,1-1.6.16A5.21,5.21,0,0,1,72.31,92,3.89,3.89,0,0,1,70.94,91a3.85,3.85,0,0,1-.82-1.39,5.26,5.26,0,0,1-.27-1.76,5.06,5.06,0,0,1,.34-2,3.86,3.86,0,0,1,.91-1.38,3.65,3.65,0,0,1,1.27-.82,4.06,4.06,0,0,1,1.46-.27Zm2,3.6a2.51,2.51,0,0,0-.56-1.7,1.88,1.88,0,0,0-1.49-.62,2.29,2.29,0,0,0-1.69.72,2.52,2.52,0,0,0-.5.75,3.15,3.15,0,0,0-.23.85Zm9.74,5v-8a11.62,11.62,0,0,1,3.74-.64c.39,0,.76,0,1.11,0a7.58,7.58,0,0,1,1.16.19l-.27,1.33a6.07,6.07,0,0,0-1-.21c-.32,0-.65,0-1,0a9,9,0,0,0-2.25.31v7Zm13.88-8.2a15.1,15.1,0,0,1,1.63-.31,11,11,0,0,1,1.51-.11,3.43,3.43,0,0,1,2.56.87,3.88,3.88,0,0,1,.86,2.8v4.94h-1.49V87.42a5.42,5.42,0,0,0-.14-1.33,2.13,2.13,0,0,0-.41-.79,1.46,1.46,0,0,0-.63-.38,2.82,2.82,0,0,0-.81-.11,6.81,6.81,0,0,0-.78,0c-.27,0-.53.06-.79.11V92.1H99.48Zm17-1.55a1.13,1.13,0,0,1-.82-.32,1.2,1.2,0,0,1-.35-.89,1.17,1.17,0,0,1,.35-.89,1.1,1.1,0,0,1,.82-.33,1.12,1.12,0,0,1,.82.33,1.16,1.16,0,0,1,.34.89,1.19,1.19,0,0,1-.34.89,1.13,1.13,0,0,1-.82.32Zm-.38,2.57h-2.44V83.66h3.93v5.18a2.89,2.89,0,0,0,.34,1.68,1.29,1.29,0,0,0,1,.43,3.54,3.54,0,0,0,1-.13,3.49,3.49,0,0,0,.7-.27l.22,1.27-.31.14a4.11,4.11,0,0,1-.46.15l-.58.13a5,5,0,0,1-.67.05,3.48,3.48,0,0,1-1.32-.21,2,2,0,0,1-.85-.66,2.5,2.5,0,0,1-.44-1.08,6.86,6.86,0,0,1-.13-1.5Zm12.41-1a14.92,14.92,0,0,1,1.62-.31,11.1,11.1,0,0,1,1.52-.11,3.44,3.44,0,0,1,2.55.87,3.86,3.86,0,0,1,.87,2.8V92.1h-1.49V87.42a5,5,0,0,0-.15-1.33,1.87,1.87,0,0,0-.41-.79,1.43,1.43,0,0,0-.63-.39,3.22,3.22,0,0,0-.81-.11,6.49,6.49,0,0,0-.77,0c-.28,0-.54.07-.79.12v7.12h-1.51Zm19.53,7.41a3.73,3.73,0,0,1-.78.31,4.13,4.13,0,0,1-1.22.17,3.92,3.92,0,0,1-1.39-.25,3,3,0,0,1-1.12-.74,3.81,3.81,0,0,1-.77-1.28,5.43,5.43,0,0,1-.28-1.83,5.21,5.21,0,0,1,.27-1.7,3.84,3.84,0,0,1,.76-1.33,3.48,3.48,0,0,1,1.23-.88,4,4,0,0,1,1.65-.32,9.66,9.66,0,0,1,1.86.15c.52.1.95.2,1.3.3v7.53a3.59,3.59,0,0,1-1,2.83,4.45,4.45,0,0,1-3,.87,7.39,7.39,0,0,1-1.48-.12,7.75,7.75,0,0,1-1.17-.31l.27-1.33a5.18,5.18,0,0,0,1.08.33,6.69,6.69,0,0,0,1.34.13,2.72,2.72,0,0,0,1.87-.53,2.23,2.23,0,0,0,.56-1.71Zm0-6.32a3.75,3.75,0,0,0-.6-.14,5.94,5.94,0,0,0-1-.06,2.12,2.12,0,0,0-1.78.8,3.42,3.42,0,0,0-.6,2.13,4,4,0,0,0,.17,1.24,2.49,2.49,0,0,0,.47.86,1.94,1.94,0,0,0,.68.49,2.09,2.09,0,0,0,.82.15,3.17,3.17,0,0,0,1.06-.16,3.34,3.34,0,0,0,.81-.38Z" style="fill:#0099d1"/><path id="Path_156" data-name="Path 156" d="M61.31,288.35a10.68,10.68,0,0,1,3.5.51,6.64,6.64,0,0,1,2.51,1.44,5.73,5.73,0,0,1,1.49,2.2,7.77,7.77,0,0,1,.49,2.83,7,7,0,0,1-2.07,5.43c-1.38,1.28-3.45,1.91-6.22,1.91H58.4v8.4h-3V288.9c.43-.1.91-.19,1.43-.26l1.57-.18c.52,0,1-.08,1.52-.09Zm.21,2.58H59.71c-.44,0-.88,0-1.31.09v9.09h2.47A6.29,6.29,0,0,0,64.92,299a4.4,4.4,0,0,0,1.33-3.6q0-4.5-4.73-4.5Zm18.68,18c.76,0,1.43,0,2-.08a12,12,0,0,0,1.47-.18v-5a7.25,7.25,0,0,0-1.4-.29,12.42,12.42,0,0,0-1.72-.11,11.21,11.21,0,0,0-1.64.12,4.67,4.67,0,0,0-1.41.46,3,3,0,0,0-1,.85,2.13,2.13,0,0,0-.4,1.33,2.38,2.38,0,0,0,1.11,2.27,6,6,0,0,0,3,.64Zm-.29-15.12a9.26,9.26,0,0,1,3.18.47,5.26,5.26,0,0,1,2.09,1.31,4.69,4.69,0,0,1,1.13,2,9.61,9.61,0,0,1,.33,2.62v10.54c-.71.12-1.63.26-2.78.43a24.83,24.83,0,0,1-3.55.26,15,15,0,0,1-2.68-.24,7.14,7.14,0,0,1-2.33-.83,4.63,4.63,0,0,1-1.64-1.65,5.38,5.38,0,0,1-.62-2.69,4.54,4.54,0,0,1,.64-2.45A5,5,0,0,1,75.32,302a7,7,0,0,1,2.29-.89,12.54,12.54,0,0,1,2.6-.27,14.58,14.58,0,0,1,3.48.4v-.84a6,6,0,0,0-.16-1.47,3.29,3.29,0,0,0-.62-1.29,3.12,3.12,0,0,0-1.23-.93,5,5,0,0,0-2-.34,14.71,14.71,0,0,0-2.73.21,13.61,13.61,0,0,0-1.78.44l-.36-2.47a8.1,8.1,0,0,1,2-.51A19.82,19.82,0,0,1,79.91,293.8ZM93,311.06V295.11a23,23,0,0,1,7.49-1.28c.77,0,1.51,0,2.21.1a16.64,16.64,0,0,1,2.33.38l-.55,2.65a11.83,11.83,0,0,0-2-.42c-.65-.06-1.29-.09-1.94-.09a17.16,17.16,0,0,0-4.51.62v14Zm23.55-2.14c.75,0,1.42,0,2-.08a12.29,12.29,0,0,0,1.47-.18v-5a7.57,7.57,0,0,0-1.4-.29,12.56,12.56,0,0,0-1.73-.11,11.07,11.07,0,0,0-1.63.12,4.64,4.64,0,0,0-1.42.46,3,3,0,0,0-1,.85,2.11,2.11,0,0,0-.4,1.33,2.39,2.39,0,0,0,1.11,2.27,6,6,0,0,0,3,.64Zm-.29-15.12a9.3,9.3,0,0,1,3.18.47,5.4,5.4,0,0,1,2.09,1.31,4.57,4.57,0,0,1,1.12,2,9.61,9.61,0,0,1,.33,2.62v10.54c-.7.12-1.63.26-2.78.43a24.7,24.7,0,0,1-3.54.26,15.2,15.2,0,0,1-2.69-.24,7.14,7.14,0,0,1-2.33-.83,4.52,4.52,0,0,1-1.63-1.65,5.17,5.17,0,0,1-.62-2.69,4.44,4.44,0,0,1,.63-2.45,5.18,5.18,0,0,1,1.64-1.62,7,7,0,0,1,2.29-.89,12.61,12.61,0,0,1,2.6-.27,14.72,14.72,0,0,1,3.49.4v-.84a6.56,6.56,0,0,0-.17-1.47,3.27,3.27,0,0,0-.61-1.29,3.15,3.15,0,0,0-1.24-.93,5,5,0,0,0-2-.34,14.6,14.6,0,0,0-2.72.21,11.87,11.87,0,0,0-1.78.44l-.36-2.48a8.32,8.32,0,0,1,2-.51A19.64,19.64,0,0,1,116.26,293.8ZM138,309.5a8.8,8.8,0,0,1-1.57.61,8.33,8.33,0,0,1-2.43.33,7.76,7.76,0,0,1-2.78-.49,6.07,6.07,0,0,1-2.25-1.49,7.11,7.11,0,0,1-1.53-2.54,10.55,10.55,0,0,1-.56-3.65,10.28,10.28,0,0,1,.52-3.4A7.72,7.72,0,0,1,129,296.2a6.82,6.82,0,0,1,2.45-1.77,8.16,8.16,0,0,1,3.31-.63,18.57,18.57,0,0,1,3.72.31c1,.2,1.9.4,2.6.6v15q0,3.93-2,5.67t-6,1.75a16.37,16.37,0,0,1-3-.26,15.78,15.78,0,0,1-2.34-.61l.54-2.66a11.58,11.58,0,0,0,2.17.66,13.2,13.2,0,0,0,2.67.25,5.46,5.46,0,0,0,3.74-1.05,4.57,4.57,0,0,0,1.13-3.42Zm0-12.65a8.63,8.63,0,0,0-1.2-.27,13.13,13.13,0,0,0-2.08-.13,4.17,4.17,0,0,0-3.54,1.6A6.84,6.84,0,0,0,130,302.3a8,8,0,0,0,.34,2.49,5,5,0,0,0,.94,1.71,3.83,3.83,0,0,0,1.37,1,4.54,4.54,0,0,0,1.63.31,7,7,0,0,0,2.13-.33,6.48,6.48,0,0,0,1.62-.76Zm9.48,14.21V295.11a23,23,0,0,1,7.49-1.28c.77,0,1.51,0,2.22.1a16.5,16.5,0,0,1,2.32.38L159,297a12,12,0,0,0-2.06-.42c-.64-.06-1.29-.09-1.94-.09a17.21,17.21,0,0,0-4.51.62v14Zm23.55-2.15c.75,0,1.43,0,2-.07a14.74,14.74,0,0,0,1.47-.18v-5a7.41,7.41,0,0,0-1.4-.29,12.42,12.42,0,0,0-1.72-.11,11.21,11.21,0,0,0-1.64.12,4.82,4.82,0,0,0-1.42.46,3.06,3.06,0,0,0-1,.85A2.11,2.11,0,0,0,167,306a2.37,2.37,0,0,0,1.1,2.27,6,6,0,0,0,3,.64Zm-.29-15.11a9.26,9.26,0,0,1,3.18.47,5.33,5.33,0,0,1,2.09,1.31,4.69,4.69,0,0,1,1.13,2,10.12,10.12,0,0,1,.33,2.62v10.54c-.7.12-1.63.27-2.78.44a24.79,24.79,0,0,1-3.54.25,16,16,0,0,1-2.69-.23,7.16,7.16,0,0,1-2.33-.84,4.52,4.52,0,0,1-1.63-1.65,5.18,5.18,0,0,1-.63-2.69,4.37,4.37,0,0,1,.64-2.45,5,5,0,0,1,1.63-1.62,7,7,0,0,1,2.29-.89,12.68,12.68,0,0,1,2.6-.27,14.6,14.6,0,0,1,3.49.4v-.84a6.56,6.56,0,0,0-.16-1.47,3.29,3.29,0,0,0-.62-1.29,3.08,3.08,0,0,0-1.24-.93,4.92,4.92,0,0,0-2-.34,14.64,14.64,0,0,0-2.73.21A13.61,13.61,0,0,0,166,297l-.36-2.47a8.1,8.1,0,0,1,2-.51A19.73,19.73,0,0,1,170.77,293.8Zm22.83,8.87a6.84,6.84,0,0,0-1.38-4.56,4.51,4.51,0,0,0-3.6-1.62,12.75,12.75,0,0,0-2,.11,6,6,0,0,0-1.1.25V307.5a4.94,4.94,0,0,0,1.49.87,5.4,5.4,0,0,0,2,.4,4.29,4.29,0,0,0,2-.47,4,4,0,0,0,1.4-1.29,5.73,5.73,0,0,0,.8-1.93A10.85,10.85,0,0,0,193.6,302.67Zm3.09,0a12.5,12.5,0,0,1-.49,3.54,8.52,8.52,0,0,1-1.42,2.78,6.58,6.58,0,0,1-2.27,1.82,7,7,0,0,1-3,.65,7.94,7.94,0,0,1-2.37-.33,5.05,5.05,0,0,1-1.52-.72v6.65h-3V294.71a24.06,24.06,0,0,1,2.53-.58,19.09,19.09,0,0,1,3.54-.3,8.72,8.72,0,0,1,3.31.62,7.24,7.24,0,0,1,2.54,1.77A7.88,7.88,0,0,1,196.1,299a10.89,10.89,0,0,1,.58,3.67Zm4,8.4V286.38l3-.5v8.57a8.38,8.38,0,0,1,1.63-.45,10.72,10.72,0,0,1,1.78-.17,8.05,8.05,0,0,1,3.22.57,4.9,4.9,0,0,1,2,1.58,6.36,6.36,0,0,1,1.09,2.43,13.76,13.76,0,0,1,.33,3.13v9.52h-3V302.2a8.33,8.33,0,0,0-.87-4.42,3.48,3.48,0,0,0-3.13-1.29,8,8,0,0,0-1.83.2,7.09,7.09,0,0,0-1.29.38v14Z" style="fill:#258abf"/></g></svg>
