<svg id="Layer_1" data-name="Layer 1" xmlns="http://www.w3.org/2000/svg" viewBox="0 0 230.79 391.5"><title>Vollkorn</title><g id="Group_150" data-name="Group 150"><path id="Path_166" data-name="Path 166" d="M55.06,358.41c2.78,0,4.83.64,6.14,1.94a6.76,6.76,0,0,1,2,5,8.87,8.87,0,0,1-.93,4,7.59,7.59,0,0,1-2.76,3.05,8.08,8.08,0,0,1-4.41,1.18,6.86,6.86,0,0,1-2.5-.4,3.81,3.81,0,0,1-.07-.67,2.65,2.65,0,0,1,.11-.79,8,8,0,0,0,1.89.22q5,0,5-5.57a6.91,6.91,0,0,0-1.47-4.69A5.67,5.67,0,0,0,53.49,360a9.32,9.32,0,0,0-1.82.21v17.16a6.9,6.9,0,0,0,.32,2.34,1.93,1.93,0,0,0,1,1.1,5.29,5.29,0,0,0,1.88.37A5,5,0,0,1,55,382.7c-1.1-.08-2.59-.11-4.5-.11-2.3,0-3.92,0-4.85.11a5,5,0,0,1,.18-1.54,2.58,2.58,0,0,0,1.94-.7,4,4,0,0,0,.52-2.4V363a4,4,0,0,0-.52-2.41,2.62,2.62,0,0,0-1.94-.7,5,5,0,0,1-.18-1.53c1.24.07,2.85.1,4.85.1Zm24.54,19a6.59,6.59,0,0,0,.16,1.66,1.24,1.24,0,0,0,.63.8,3.68,3.68,0,0,0,1.43.32,5.43,5.43,0,0,1-.22,1.65,10.31,10.31,0,0,0-2,.37,10,10,0,0,0-1.91.73,1.19,1.19,0,0,1-.64-.66,3.53,3.53,0,0,1-.21-1.44,7.23,7.23,0,0,1,0-.93,4.62,4.62,0,0,1-1.25,1.75,5.54,5.54,0,0,1-3.78,1.21,5.17,5.17,0,0,1-3.4-1,3.41,3.41,0,0,1-1.2-2.78,4.13,4.13,0,0,1,1.53-3.37,9.15,9.15,0,0,1,3.42-1.8,31.63,31.63,0,0,1,4.18-.86,21.6,21.6,0,0,0-.14-3,3,3,0,0,0-.61-1.41,2.7,2.7,0,0,0-2.21-1.07,2.47,2.47,0,0,0-2.34,1.32,6.32,6.32,0,0,0-.8,2.81,7,7,0,0,1-1-.07,3.23,3.23,0,0,1-.82-.17c0-.24,0-.65,0-1.22a15,15,0,0,0-.21-2.67,14.44,14.44,0,0,1,3.07-1.18,12.14,12.14,0,0,1,3-.43,5.12,5.12,0,0,1,3.78,1.36,4.58,4.58,0,0,1,1.18,2.26,19,19,0,0,1,.32,3.91Zm-3.21-2.89a23,23,0,0,0-2.85.52,4.43,4.43,0,0,0-2,1.11,2.93,2.93,0,0,0-.84,2.23,2.66,2.66,0,0,0,.61,1.89,2,2,0,0,0,1.53.64,3,3,0,0,0,1.66-.53,4.08,4.08,0,0,0,1.34-1.68,6.65,6.65,0,0,0,.53-2.82Zm19.69-8.24a4,4,0,0,1,2.47.86,29.65,29.65,0,0,0-.25,4.21,6.38,6.38,0,0,1-2,.32,4.2,4.2,0,0,0-.52-2.19,1.46,1.46,0,0,0-1.23-.59,2.06,2.06,0,0,0-1.36.7,5.5,5.5,0,0,0-1.2,1.87,6.66,6.66,0,0,0-.48,2.5v3.43a6.81,6.81,0,0,0,.32,2.33,2,2,0,0,0,1,1.11,5.52,5.52,0,0,0,1.88.37,4.71,4.71,0,0,1,.17,1.54c-1.09-.07-2.59-.11-4.49-.11-2.21,0-3.78,0-4.71.11a5.06,5.06,0,0,1,.18-1.55,2.57,2.57,0,0,0,1.94-.7,3.91,3.91,0,0,0,.52-2.41V371a4.21,4.21,0,0,0-.2-1.45,1.4,1.4,0,0,0-.77-.78,4.5,4.5,0,0,0-1.71-.3,2.44,2.44,0,0,1,.32-1.32,14.5,14.5,0,0,0,2.54-.43,10.44,10.44,0,0,0,2.24-.78c.53.16.79.69.79,1.57a11.39,11.39,0,0,1-.22,2.26c-.14.7-.22,1.11-.25,1.23l.29-.85a4,4,0,0,1,.46-1Q93.59,366.26,96.08,366.25Zm18.38,11.13a6.16,6.16,0,0,0,.16,1.66,1.23,1.23,0,0,0,.62.8,3.72,3.72,0,0,0,1.43.32,4.87,4.87,0,0,1-.22,1.65,10.31,10.31,0,0,0-2,.37,9.69,9.69,0,0,0-1.9.73,1.17,1.17,0,0,1-.65-.66,3.9,3.9,0,0,1-.21-1.44c0-.31,0-.62,0-.93a4.85,4.85,0,0,1-1.25,1.75,5.57,5.57,0,0,1-3.78,1.21,5.2,5.2,0,0,1-3.41-1,3.41,3.41,0,0,1-1.2-2.78,4.18,4.18,0,0,1,1.54-3.37,9.27,9.27,0,0,1,3.43-1.8,32.81,32.81,0,0,1,4.17-.86,21.67,21.67,0,0,0-.14-3,3.07,3.07,0,0,0-.61-1.41,2.69,2.69,0,0,0-2.21-1.07,2.47,2.47,0,0,0-2.34,1.32,6.37,6.37,0,0,0-.8,2.82,8.76,8.76,0,0,1-1-.07,3.75,3.75,0,0,1-.82-.18c0-.24,0-.64,0-1.21a15.06,15.06,0,0,0-.21-2.68,14.56,14.56,0,0,1,3.06-1.18,12.21,12.21,0,0,1,3-.43,5.12,5.12,0,0,1,3.78,1.36,4.58,4.58,0,0,1,1.18,2.26,19,19,0,0,1,.32,3.91Zm-3.21-2.88a23,23,0,0,0-2.85.51,4.53,4.53,0,0,0-2,1.11,2.93,2.93,0,0,0-.84,2.23,2.7,2.7,0,0,0,.6,1.89,2,2,0,0,0,1.54.64,3,3,0,0,0,1.66-.53,4.08,4.08,0,0,0,1.34-1.68,6.65,6.65,0,0,0,.53-2.82Zm18,5.85a14.46,14.46,0,0,1,3.82.39,3.52,3.52,0,0,1,2,1.25,3.88,3.88,0,0,1,.63,2.32,5.82,5.82,0,0,1-1.16,3.31,8.81,8.81,0,0,1-3.2,2.77,9.34,9.34,0,0,1-4.49,1.09,7.48,7.48,0,0,1-4.71-1.22,4.34,4.34,0,0,1-1.5-3.6,4,4,0,0,1,2.64-3.85,2.31,2.31,0,0,1-1.34-.95,3.21,3.21,0,0,1-.38-1.69,5.29,5.29,0,0,1,1.9-3.78,5.27,5.27,0,0,1-1.66-1.91,5.85,5.85,0,0,1-.59-2.63,5.75,5.75,0,0,1,1.68-4.24,6.43,6.43,0,0,1,4.74-1.68,7.42,7.42,0,0,1,2.25.32h5.85a7.93,7.93,0,0,1,.25,2.22,26.86,26.86,0,0,0-3.46-.58,5.39,5.39,0,0,1,1.23,1.86,4.94,4.94,0,0,1,.41,1.89,5.8,5.8,0,0,1-1.71,4.3,6.39,6.39,0,0,1-4.74,1.69,7.57,7.57,0,0,1-2.75-.46,2.46,2.46,0,0,0-.89,1.68,1.2,1.2,0,0,0,.35,1,2.75,2.75,0,0,0,1.39.41c.69.07,1.83.11,3.42.11Zm-2-12.81a2.33,2.33,0,0,0-2.07,1.12,5,5,0,0,0-.71,2.73,5.31,5.31,0,0,0,1,3.41,3.26,3.26,0,0,0,2.68,1.2,2.3,2.3,0,0,0,1.94-1,4.69,4.69,0,0,0,.73-2.82,5.6,5.6,0,0,0-.94-3.3A3,3,0,0,0,127.26,367.54Zm.43,22a6.4,6.4,0,0,0,2.66-.54,4.1,4.1,0,0,0,1.76-1.43,3.3,3.3,0,0,0,.61-1.92,2.13,2.13,0,0,0-.46-1.48,3.14,3.14,0,0,0-1.73-.77,20.8,20.8,0,0,0-3.7-.25c-.57,0-1.21,0-1.92-.07a3.3,3.3,0,0,0-1,1.21,4,4,0,0,0-.26,1.57,3.74,3.74,0,0,0,.92,2.77A4.31,4.31,0,0,0,127.69,389.59Zm22.55-23.33a3.87,3.87,0,0,1,2.46.85,28.24,28.24,0,0,0-.25,4.21,6.17,6.17,0,0,1-2,.32,4.09,4.09,0,0,0-.51-2.19,1.46,1.46,0,0,0-1.23-.59,2,2,0,0,0-1.36.7,5.5,5.5,0,0,0-1.2,1.87,6.54,6.54,0,0,0-.48,2.5v3.43a6.35,6.35,0,0,0,.32,2.33,1.92,1.92,0,0,0,1,1.11,5.23,5.23,0,0,0,1.87.37,5,5,0,0,1,.18,1.54c-1.09-.07-2.59-.11-4.49-.11-2.22,0-3.79,0-4.71.11a4.71,4.71,0,0,1,.17-1.54,2.61,2.61,0,0,0,2-.7,4,4,0,0,0,.52-2.4V371a4.46,4.46,0,0,0-.2-1.45,1.44,1.44,0,0,0-.77-.78,4.57,4.57,0,0,0-1.71-.3,2.35,2.35,0,0,1,.32-1.32,14.54,14.54,0,0,0,2.53-.43,10.52,10.52,0,0,0,2.25-.78c.52.16.78.69.78,1.57a10.69,10.69,0,0,1-.21,2.26c-.14.7-.23,1.11-.25,1.23l.28-.85a4,4,0,0,1,.47-1q1.83-2.89,4.33-2.9Zm18.37,11.13a6.12,6.12,0,0,0,.16,1.65,1.23,1.23,0,0,0,.62.8,3.73,3.73,0,0,0,1.43.33,5.07,5.07,0,0,1-.21,1.64,10.17,10.17,0,0,0-2,.37,10,10,0,0,0-1.91.73,1.17,1.17,0,0,1-.65-.66,3.9,3.9,0,0,1-.21-1.44c0-.31,0-.62,0-.93a4.73,4.73,0,0,1-1.25,1.75,5.57,5.57,0,0,1-3.78,1.21,5.14,5.14,0,0,1-3.41-1,3.44,3.44,0,0,1-1.2-2.78,4.14,4.14,0,0,1,1.53-3.37,9.2,9.2,0,0,1,3.43-1.8,31.16,31.16,0,0,1,4.17-.86,20.16,20.16,0,0,0-.14-3,2.93,2.93,0,0,0-.61-1.41,2.69,2.69,0,0,0-2.21-1.07,2.48,2.48,0,0,0-2.34,1.32,6.46,6.46,0,0,0-.8,2.82,8.93,8.93,0,0,1-1-.08,3.23,3.23,0,0,1-.82-.17c0-.24,0-.65,0-1.22a14.08,14.08,0,0,0-.22-2.67,14.86,14.86,0,0,1,3.07-1.18,12.21,12.21,0,0,1,3-.43,5.12,5.12,0,0,1,3.78,1.36,4.58,4.58,0,0,1,1.18,2.26,19,19,0,0,1,.32,3.91Zm-3.21-2.89a23.15,23.15,0,0,0-2.86.51,4.64,4.64,0,0,0-2,1.11,3,3,0,0,0-.84,2.23,2.66,2.66,0,0,0,.61,1.89,2,2,0,0,0,1.53.64,3,3,0,0,0,1.66-.53,3.92,3.92,0,0,0,1.34-1.68,6.66,6.66,0,0,0,.54-2.82Zm18,8.41a9,9,0,0,1-3-.5V386a6.41,6.41,0,0,0,.32,2.34,1.93,1.93,0,0,0,1,1.1,5.25,5.25,0,0,0,1.87.38,4.43,4.43,0,0,1,.18,1.53c-1.09-.07-2.59-.1-4.49-.1-2.21,0-3.78,0-4.71.1a5,5,0,0,1,.18-1.53,2.62,2.62,0,0,0,1.94-.7,4.05,4.05,0,0,0,.52-2.41V371a4.12,4.12,0,0,0-.2-1.44,1.42,1.42,0,0,0-.77-.79,4.57,4.57,0,0,0-1.71-.3,2.44,2.44,0,0,1,.32-1.32,14.39,14.39,0,0,0,2.53-.43,10,10,0,0,0,2.25-.78c.52.17.78.69.78,1.57a4.44,4.44,0,0,1-.12,1.09c-.08.34-.22.83-.41,1.48a15.46,15.46,0,0,1,.82-1.5,6,6,0,0,1,4.89-2.64,6.35,6.35,0,0,1,4.94,1.89q1.72,1.89,1.73,5.71a10.3,10.3,0,0,1-1.11,4.78,8.35,8.35,0,0,1-3.14,3.37A8.76,8.76,0,0,1,183.45,382.91Zm1.36-14.73a3.73,3.73,0,0,0-3.06,1.68,8.55,8.55,0,0,0-1.27,5.14v5a5.75,5.75,0,0,0,1.41.93,4.46,4.46,0,0,0,1.73.32,5.11,5.11,0,0,0,2.36-.61,4.86,4.86,0,0,0,2-2.16,9.16,9.16,0,0,0,.82-4.19,8,8,0,0,0-1.13-4.46,3.34,3.34,0,0,0-2.87-1.68Zm29.46,13a5,5,0,0,1,.18,1.54c-1-.08-2.32-.11-3.89-.11-1,0-2.15,0-3.53.07a5.79,5.79,0,0,1-.72,0,5,5,0,0,1,.18-1.54,2.33,2.33,0,0,0,1.89-.68,3.81,3.81,0,0,0,.57-2.42v-5.42a5.11,5.11,0,0,0-.87-3.35,3.07,3.07,0,0,0-2.45-1,3.43,3.43,0,0,0-1.92.6,4.29,4.29,0,0,0-1.52,2,8.67,8.67,0,0,0-.59,3.38v3.82a4,4,0,0,0,.54,2.45,2.39,2.39,0,0,0,1.92.66,4.94,4.94,0,0,1,.18,1.53c-2-.07-3.41-.11-4.24-.11-1.79,0-3.2,0-4.25.11a4.9,4.9,0,0,1,.18-1.53,2.39,2.39,0,0,0,1.92-.66,4,4,0,0,0,.54-2.45v-16a4.5,4.5,0,0,0-.18-1.46,1.35,1.35,0,0,0-.75-.8,4.34,4.34,0,0,0-1.75-.27,2.36,2.36,0,0,1,.33-1.32,12.11,12.11,0,0,0,2.53-.39,7.24,7.24,0,0,0,2.25-.82c.52.17.78.64.78,1.43v9.06a8.32,8.32,0,0,1-.25,2.1,2.75,2.75,0,0,0,.2-.38,3.14,3.14,0,0,1,.34-.55,6.43,6.43,0,0,1,2.09-1.79,6.14,6.14,0,0,1,3.08-.78,5.06,5.06,0,0,1,3.68,1.39,5.94,5.94,0,0,1,1.42,4.42v6.14a4.34,4.34,0,0,0,.5,2.45A1.9,1.9,0,0,0,214.27,381.16Z" style="fill:#258abf"/><path id="Path_167" data-name="Path 167" d="M52.77,267.81A7.34,7.34,0,0,1,46,263.69a10,10,0,0,1-1-4.47,8.79,8.79,0,0,1,1.14-4.56,7.37,7.37,0,0,1,3-2.83,8.61,8.61,0,0,1,4-1,11.62,11.62,0,0,1,2.76.3,13.23,13.23,0,0,1,2.66,1,19.92,19.92,0,0,0-.27,3.78,3.34,3.34,0,0,1-1.29.22,5.08,5.08,0,0,0-1-3.36,3.59,3.59,0,0,0-2.66-.91,5.43,5.43,0,0,0-3.27.93,5.37,5.37,0,0,0-1.9,2.44,8.73,8.73,0,0,0-.61,3.32,10.17,10.17,0,0,0,.74,4,6.44,6.44,0,0,0,2.16,2.78,5.57,5.57,0,0,0,3.32,1,7.9,7.9,0,0,0,2.37-.39,10.4,10.4,0,0,0,2.27-1.05,1.35,1.35,0,0,1,.28.35,1.16,1.16,0,0,1,.16.4A11,11,0,0,1,56,267.3,9.23,9.23,0,0,1,52.77,267.81Zm20.87-1.2a3.77,3.77,0,0,1,.12,1.05c-.7,0-1.59-.07-2.66-.07-.67,0-1.47,0-2.42.05a2.64,2.64,0,0,1-.49,0,3.44,3.44,0,0,1,.13-1.05,1.6,1.6,0,0,0,1.29-.46,2.62,2.62,0,0,0,.39-1.66v-3.71a3.45,3.45,0,0,0-.6-2.29,2.12,2.12,0,0,0-1.67-.69,2.4,2.4,0,0,0-1.32.42,2.93,2.93,0,0,0-1,1.34,5.94,5.94,0,0,0-.4,2.32v2.61a2.78,2.78,0,0,0,.37,1.67,1.62,1.62,0,0,0,1.32.46,3.68,3.68,0,0,1,.12,1.05c-1.37-.05-2.33-.08-2.9-.08-1.22,0-2.19,0-2.9.08a3.36,3.36,0,0,1,.12-1.05,1.62,1.62,0,0,0,1.32-.46,2.78,2.78,0,0,0,.37-1.67V253.56a3.09,3.09,0,0,0-.13-1,.9.9,0,0,0-.51-.55,3,3,0,0,0-1.2-.18,1.65,1.65,0,0,1,.22-.9,8.32,8.32,0,0,0,1.73-.27,5,5,0,0,0,1.54-.56c.36.11.54.44.54,1v6.2a5.85,5.85,0,0,1-.17,1.44c0-.09.09-.17.13-.26a3,3,0,0,1,.23-.38,4.54,4.54,0,0,1,1.43-1.22,4.22,4.22,0,0,1,2.11-.54,3.48,3.48,0,0,1,2.52,1,4.08,4.08,0,0,1,1,3v4.2a2.94,2.94,0,0,0,.35,1.67,1.27,1.27,0,0,0,1.09.45ZM84.3,264a4.85,4.85,0,0,0,.11,1.14.91.91,0,0,0,.43.55,2.74,2.74,0,0,0,1,.22,3.25,3.25,0,0,1-.14,1.12,7.93,7.93,0,0,0-1.36.25,7.28,7.28,0,0,0-1.3.5.78.78,0,0,1-.44-.45,2.74,2.74,0,0,1-.15-1q0-.31,0-.63a3.2,3.2,0,0,1-.86,1.2,3.83,3.83,0,0,1-2.58.83,3.53,3.53,0,0,1-2.33-.69,2.31,2.31,0,0,1-.82-1.9,2.84,2.84,0,0,1,1-2.3,6.15,6.15,0,0,1,2.34-1.24,21.52,21.52,0,0,1,2.85-.59A12.87,12.87,0,0,0,82,259a2,2,0,0,0-.41-1,1.86,1.86,0,0,0-1.51-.73,1.7,1.7,0,0,0-1.6.9,4.35,4.35,0,0,0-.55,1.93,5.52,5.52,0,0,1-.71-.05,2.15,2.15,0,0,1-.56-.12c0-.16,0-.44,0-.83a10.19,10.19,0,0,0-.14-1.83,9.71,9.71,0,0,1,2.1-.81,8.25,8.25,0,0,1,2-.29,3.47,3.47,0,0,1,2.58.93,3.18,3.18,0,0,1,.81,1.55,12.56,12.56,0,0,1,.22,2.67Zm-2.2-2a15.94,15.94,0,0,0-1.95.36,3,3,0,0,0-1.36.76,2,2,0,0,0-.57,1.52,1.82,1.82,0,0,0,.41,1.29,1.34,1.34,0,0,0,1.05.44,2,2,0,0,0,1.14-.36,2.7,2.7,0,0,0,.91-1.15A4.43,4.43,0,0,0,82.1,263Zm12.75-5.63a2.64,2.64,0,0,1,1.68.58,19.88,19.88,0,0,0-.17,2.88,4.13,4.13,0,0,1-1.39.22,2.82,2.82,0,0,0-.36-1.5,1,1,0,0,0-.84-.4,1.41,1.41,0,0,0-.93.48A3.82,3.82,0,0,0,92,260a4.17,4.17,0,0,0-.33,1.71V264a4.37,4.37,0,0,0,.22,1.6,1.27,1.27,0,0,0,.67.75,3.75,3.75,0,0,0,1.28.26,3.39,3.39,0,0,1,.12,1.05c-.75-.05-1.77-.07-3.08-.07-1.51,0-2.58,0-3.22.07a3.72,3.72,0,0,1,.12-1.05,1.76,1.76,0,0,0,1.33-.48,2.68,2.68,0,0,0,.36-1.64v-4.84a2.79,2.79,0,0,0-.14-1,.93.93,0,0,0-.52-.53,2.92,2.92,0,0,0-1.17-.21,1.59,1.59,0,0,1,.22-.9,10.25,10.25,0,0,0,1.73-.29,7,7,0,0,0,1.54-.54c.36.11.54.47.54,1.07a8.06,8.06,0,0,1-.15,1.55c-.1.48-.15.76-.17.85l.2-.59a2.49,2.49,0,0,1,.32-.68A3.5,3.5,0,0,1,94.85,256.42ZM106.68,264a4.85,4.85,0,0,0,.11,1.14.91.91,0,0,0,.43.55,2.74,2.74,0,0,0,1,.22,3.52,3.52,0,0,1-.15,1.12,7.66,7.66,0,0,0-2.66.75.78.78,0,0,1-.44-.45,2.53,2.53,0,0,1-.14-1,4.42,4.42,0,0,1,0-.63,3.2,3.2,0,0,1-.86,1.2,3.83,3.83,0,0,1-2.58.83,3.53,3.53,0,0,1-2.33-.69,2.31,2.31,0,0,1-.82-1.9,2.84,2.84,0,0,1,1.05-2.3,6.15,6.15,0,0,1,2.34-1.24,21.34,21.34,0,0,1,2.86-.59,15.7,15.7,0,0,0-.1-2.06,2.17,2.17,0,0,0-.42-1,1.86,1.86,0,0,0-1.51-.73,1.71,1.71,0,0,0-1.6.9,4.35,4.35,0,0,0-.55,1.93,5.65,5.65,0,0,1-.71-.05A2.15,2.15,0,0,1,99,260c0-.16,0-.44,0-.83a10.19,10.19,0,0,0-.14-1.83,9.91,9.91,0,0,1,2.1-.81,8.38,8.38,0,0,1,2-.29,3.49,3.49,0,0,1,2.59.93,3.09,3.09,0,0,1,.8,1.55,12.56,12.56,0,0,1,.22,2.67Zm-2.2-2a16.3,16.3,0,0,0-2,.36,2.93,2.93,0,0,0-1.35.76,2,2,0,0,0-.58,1.52A1.83,1.83,0,0,0,101,266a1.32,1.32,0,0,0,1,.44,2,2,0,0,0,1.13-.36,2.73,2.73,0,0,0,.92-1.15,4.57,4.57,0,0,0,.36-1.93Zm10.75,5.76a4.82,4.82,0,0,1-2.46-.65,5,5,0,0,1-1.89-2,6.32,6.32,0,0,1-.73-3.14,6.85,6.85,0,0,1,.6-2.85,5.29,5.29,0,0,1,1.74-2.17,4.48,4.48,0,0,1,2.74-.83,5.7,5.7,0,0,1,3.68,1.1,19.86,19.86,0,0,0-.17,2.78,2.51,2.51,0,0,1-1.12.2,3.71,3.71,0,0,0-.83-2.16,2.24,2.24,0,0,0-1.76-.77,2.12,2.12,0,0,0-1.91,1.14,6.14,6.14,0,0,0-.7,3.21,6.43,6.43,0,0,0,.41,2.33,4.29,4.29,0,0,0,1.2,1.74,2.83,2.83,0,0,0,1.88.66,3.07,3.07,0,0,0,1.48-.37,3.65,3.65,0,0,0,1.23-1.05,1.48,1.48,0,0,1,.37.29,1,1,0,0,1,.24.4A4.41,4.41,0,0,1,115.23,267.81Zm9.93,0a2.79,2.79,0,0,1-2.15-.74,3.49,3.49,0,0,1-.68-2.4v-6.61a7,7,0,0,0-1.76-.32,2.86,2.86,0,0,1,.22-1.08h1.54v-3.22a5.07,5.07,0,0,0,1.81-1,.59.59,0,0,1,.31.33,3.74,3.74,0,0,1,.08.94v2.93h3.16a2.88,2.88,0,0,1-.21,1.08,18.22,18.22,0,0,0-3,.31v6.1c0,1.57.47,2.35,1.41,2.35a2.57,2.57,0,0,0,.87-.15,2.64,2.64,0,0,0,.74-.44,1.55,1.55,0,0,1,.37.81,3.23,3.23,0,0,1-1.21.78,4.12,4.12,0,0,1-1.55.31ZM138.32,265a1.5,1.5,0,0,1,.37.34.81.81,0,0,1,.21.41,4.91,4.91,0,0,1-1.89,1.55,5.88,5.88,0,0,1-2.45.47,4.94,4.94,0,0,1-2.85-.77A4.77,4.77,0,0,1,130,265a7.35,7.35,0,0,1-.59-3,6.76,6.76,0,0,1,.62-2.9,5.41,5.41,0,0,1,1.77-2.11,4.61,4.61,0,0,1,2.66-.79,4,4,0,0,1,3.31,1.38,6.56,6.56,0,0,1,1.25,3.67,1.93,1.93,0,0,1-.36.83q-4.31,0-6.84.12a6,6,0,0,0,.94,3.06,3,3,0,0,0,2.6,1.19,3.8,3.8,0,0,0,1.62-.37A4.09,4.09,0,0,0,138.32,265Zm-4.1-7.67a2.07,2.07,0,0,0-1.66.83,4.84,4.84,0,0,0-.79,2.78h4.69a5,5,0,0,0-.6-2.62,1.85,1.85,0,0,0-1.64-1Zm13.81-.95a2.69,2.69,0,0,1,1.68.59,21.21,21.21,0,0,0-.17,2.88,4.3,4.3,0,0,1-1.39.22,2.87,2.87,0,0,0-.35-1.5,1,1,0,0,0-.84-.4,1.38,1.38,0,0,0-.93.47,3.79,3.79,0,0,0-.82,1.28,4.6,4.6,0,0,0-.33,1.71V264a4.59,4.59,0,0,0,.22,1.6,1.34,1.34,0,0,0,.67.75,3.75,3.75,0,0,0,1.28.26,3.12,3.12,0,0,1,.12,1.05c-.74-.05-1.77-.07-3.07-.07-1.51,0-2.59,0-3.22.07a3.12,3.12,0,0,1,.12-1.05,1.77,1.77,0,0,0,1.33-.48,2.68,2.68,0,0,0,.35-1.64v-4.84a2.79,2.79,0,0,0-.13-1,1,1,0,0,0-.53-.53,2.92,2.92,0,0,0-1.17-.21,1.67,1.67,0,0,1,.22-.9,10.2,10.2,0,0,0,1.74-.29,7,7,0,0,0,1.53-.54c.36.11.54.47.54,1.07a7.33,7.33,0,0,1-.14,1.55l-.18.85.2-.59a2.82,2.82,0,0,1,.32-.68,3.52,3.52,0,0,1,2.95-2Z" style="fill:#2371aa"/><path id="Path_168" data-name="Path 168" d="M62.23,336.33a28.85,28.85,0,0,1-8.41-1.16,38.64,38.64,0,0,1-7.89-3.5,65.3,65.3,0,0,0,.83-11.26,19.3,19.3,0,0,1,5.71-.68q.38,6.39,2.7,9.28t7.66,2.89q4.52,0,6.69-1.92a6.34,6.34,0,0,0,2.18-5,6.68,6.68,0,0,0-1.36-4.17A11.31,11.31,0,0,0,67,317.89c-1.35-.77-3.25-1.74-5.7-2.89A72.88,72.88,0,0,1,53.78,311a16.59,16.59,0,0,1-4.85-4.88,13.6,13.6,0,0,1-2-7.66q0-6.84,4.39-10.52t11.75-3.68a31.55,31.55,0,0,1,7.62.94,19.53,19.53,0,0,1,5.9,2.37A83.36,83.36,0,0,0,77,297.88a8.51,8.51,0,0,1-2.6.79,18.17,18.17,0,0,1-3,.26c-.7-4-1.72-6.76-3.08-8.26a7.15,7.15,0,0,0-5.63-2.25,8.53,8.53,0,0,0-5.56,1.65,5.74,5.74,0,0,0-2,4.73,6.84,6.84,0,0,0,1.46,4.39,13.12,13.12,0,0,0,3.6,3.12c1.43.85,3.39,1.88,5.9,3.08a65.72,65.72,0,0,1,7.43,4,17.07,17.07,0,0,1,4.89,4.8,12.65,12.65,0,0,1,2,7.32,13.58,13.58,0,0,1-4.65,10.67Q71.09,336.33,62.23,336.33Zm37.78,0q-5,0-7.44-2.59t-2.4-8.37V307.12a18.53,18.53,0,0,0-5.48-1,9.63,9.63,0,0,1,.83-4.13h4.65v-9.54a14.48,14.48,0,0,0,4.1-1.28,18.17,18.17,0,0,0,3.49-2.1A2,2,0,0,1,99,290.26a10.71,10.71,0,0,1,.3,3.19V302h9.46a13.11,13.11,0,0,1-.67,4.21,38.28,38.28,0,0,0-8.79,1v16.67q0,4.13,1,5.82a3.36,3.36,0,0,0,3.11,1.69A7.8,7.8,0,0,0,108.2,330a6,6,0,0,1,1.12,3.23,10.87,10.87,0,0,1-4,2.18,16.42,16.42,0,0,1-5.29.9Zm44.16-35.07q5.18,0,7.43-.23a11,11,0,0,1-.6,4.14,5.73,5.73,0,0,0-3,1.84,23.71,23.71,0,0,0-2.74,5.14l-11,26.28a69.22,69.22,0,0,1-4.92,10.14,14.38,14.38,0,0,1-4.06,4.58,8.42,8.42,0,0,1-4.54,1.2,10.26,10.26,0,0,1-3.91-.71,7.68,7.68,0,0,1-2.7-1.77,9.87,9.87,0,0,1-.15-2,13.72,13.72,0,0,1,.53-4.27,29.57,29.57,0,0,0,6.08.75,8.76,8.76,0,0,0,4.17-.94,8.44,8.44,0,0,0,3.11-3.11,44.12,44.12,0,0,0,2.48-5q-7.28-16.53-11-24.34a30.89,30.89,0,0,0-3.45-6,5.49,5.49,0,0,0-3.16-1.83,13,13,0,0,1-.6-4.06c3.81.1,7,.15,9.47.15,3.2,0,6.86-.05,11-.15a9.87,9.87,0,0,1-.68,4.06,9,9,0,0,0-3.3,1,2.16,2.16,0,0,0-1,1.92,12.6,12.6,0,0,0,1.5,4.5,114.42,114.42,0,0,1,5.93,13.75l5.18-13.07a13,13,0,0,0,1.2-4.66,2.74,2.74,0,0,0-1-2.32,7.07,7.07,0,0,0-3-1.13,11.44,11.44,0,0,1-.6-4.06q2.33.15,7.44.15Zm10.74,34.62a13.17,13.17,0,0,1,.45-4.05c2-.05,3.35-.53,4-1.43s1.06-2.6,1.05-5.11V293.07a5.39,5.39,0,0,0-1.09-3.79c-.72-.78-2.24-1.19-4.54-1.24a7.43,7.43,0,0,1,.75-3.68,33.76,33.76,0,0,0,6.8-.79,16.89,16.89,0,0,0,5.3-1.76q1.95.75,1.95,3.6v39.88q0,3.75,1,5.1c.66.9,1.86,1.38,3.6,1.43a13.52,13.52,0,0,1,.46,4.05q-3.47-.22-9.84-.22Q158.28,335.65,154.91,335.88Zm54.3-8.49a3.11,3.11,0,0,1,1.27,1.32,4.5,4.5,0,0,1,.6,1.91,16.76,16.76,0,0,1-6.16,4.32,21.21,21.21,0,0,1-8,1.39q-8.55,0-12.91-4.92t-4.36-12.8a20.49,20.49,0,0,1,2-9.2,15.63,15.63,0,0,1,5.81-6.46,16.43,16.43,0,0,1,8.83-2.37q7.35,0,11,4.28t4.09,11.57a7.18,7.18,0,0,1-1.58,3.15q-13,0-20.5.38a15.14,15.14,0,0,0,3,8.19q2.51,3.08,7.47,3.07a13.38,13.38,0,0,0,5.11-1,12,12,0,0,0,4.2-2.82ZM196,304.79a5.56,5.56,0,0,0-4.7,2.59q-1.83,2.6-2.06,8.22h12.91a16.18,16.18,0,0,0-1.61-7.92A5,5,0,0,0,196,304.79Z" style="fill:#5f88b1"/><path id="Path_191" data-name="Path 191" d="M59,88.6v17h3c2.2,0,3.71-.32,4.52-1s1.24-1.87,1.28-3.66a12.78,12.78,0,0,1,4.21-.61q-.18,3-.18,6.9,0,4.32.18,7.2a14.11,14.11,0,0,1-4.09-.49c-.16-1.87-.65-3.13-1.46-3.78s-2.3-1-4.46-1H59v6.59a11.82,11.82,0,0,0,.58,4.09,3.82,3.82,0,0,0,1.87,2.1,9.86,9.86,0,0,0,3.6.83,11.67,11.67,0,0,1,.42,3.72c-2.07-.12-5.31-.19-9.7-.19q-7.08,0-10.44.18a15,15,0,0,1,.37-3.72,5.75,5.75,0,0,0,2.57-.64,2.9,2.9,0,0,0,1.22-1.74,13.71,13.71,0,0,0,.36-3.72v-22A14.75,14.75,0,0,0,49.49,91a2.69,2.69,0,0,0-1.17-1.68,6.51,6.51,0,0,0-2.53-.67,12.32,12.32,0,0,1-.49-3.72q4.83.18,13.55.18,12.81,0,17-.18.12,2.57.45,5.46a37.19,37.19,0,0,0,.83,4.79,9.41,9.41,0,0,1-4.52,1,9.66,9.66,0,0,0-2.5-5.55q-2-2-6.71-2Zm34,38.26q-7.2,0-11.17-3.81t-4-10.4a15.32,15.32,0,0,1,2-7.94,13,13,0,0,1,5.49-5.12,17.2,17.2,0,0,1,7.9-1.77q7.33,0,11.29,3.9a13.89,13.89,0,0,1,4,10.37,15.5,15.5,0,0,1-1.89,7.78,13,13,0,0,1-5.4,5.16A17.46,17.46,0,0,1,93,126.86Zm.79-3.85A4.66,4.66,0,0,0,98,120.39a13.86,13.86,0,0,0,1.49-6.9,19.31,19.31,0,0,0-.95-6.44A9.45,9.45,0,0,0,96,102.93a5.28,5.28,0,0,0-3.51-1.4,4.59,4.59,0,0,0-4.24,2.57,13.69,13.69,0,0,0-1.43,6.71,18.06,18.06,0,0,0,1.86,8.85C89.9,121.9,91.6,123,93.75,123Zm54.25-.24a10.2,10.2,0,0,1,.49,3.72q-5.31-.18-7.57-.18-5.91,0-8.66.19a12.36,12.36,0,0,1,.42-3.73,3,3,0,0,0,2.69-1.28,8.25,8.25,0,0,0,.86-4.39v-6.65c0-2.49-.4-4.24-1.19-5.28a4.16,4.16,0,0,0-3.51-1.56,4.43,4.43,0,0,0-2.93,1.13,7.82,7.82,0,0,0-2.17,3.36,15.37,15.37,0,0,0-.82,5.34v4a7.74,7.74,0,0,0,.79,4.18,3.05,3.05,0,0,0,2.68,1.13,11.18,11.18,0,0,1,.49,3.72c-1.75-.12-4.51-.18-8.3-.18q-6.15,0-8.9.19a10.47,10.47,0,0,1,.48-3.73c1.59,0,2.66-.36,3.2-1.1s.83-2.13.83-4.21v-9.21a10.28,10.28,0,0,0-.31-2.87,2.39,2.39,0,0,0-1.22-1.46,7.35,7.35,0,0,0-2.92-.61,6.75,6.75,0,0,1,.73-3.48,37.41,37.41,0,0,0,6.16-.64,16.31,16.31,0,0,0,4.52-1.38q1.77.68,1.77,3.3a12.93,12.93,0,0,1-.61,3.66c.08-.2.27-.61.58-1.22a6.57,6.57,0,0,1,1.13-1.64,11.64,11.64,0,0,1,3.6-2.69,10.83,10.83,0,0,1,4.88-1.1,10.25,10.25,0,0,1,7,2.41c1.86,1.61,2.78,4.12,2.78,7.54v9.4a9,9,0,0,0,.67,4.15,2.51,2.51,0,0,0,2.38,1.15Zm15.74,4.09c-2.88,0-5-.75-6.4-2.23s-2.08-3.94-2.08-7.35V103.55a13.34,13.34,0,0,0-4.51-.79,9.48,9.48,0,0,1,.73-3.79h3.78v-7.5a17.26,17.26,0,0,0,3.94-1.13,13.17,13.17,0,0,0,3.26-1.86,2,2,0,0,1,1.16,1.1,7.51,7.51,0,0,1,.31,2.62V99h7.5a12.83,12.83,0,0,1-.55,3.84,26.31,26.31,0,0,0-6.95.91v12.51a11,11,0,0,0,.76,5,2.59,2.59,0,0,0,2.41,1.34,7.2,7.2,0,0,0,3.78-1,5.9,5.9,0,0,1,.92,3,9.68,9.68,0,0,1-3.48,1.71,16.11,16.11,0,0,1-4.58.67Z" style="fill:#2d7198"/><path id="Path_180" data-name="Path 180" d="M196,177a7.83,7.83,0,0,1-.38,2.54,12,12,0,0,1-1.18,2.42,21.22,21.22,0,0,0-3.47-.22,5.39,5.39,0,0,1-.14-1.32,4.83,4.83,0,0,0,3-1,4.28,4.28,0,0,0,.33-5.13,2.38,2.38,0,0,0-1.84-.77,2.67,2.67,0,0,0-1.62.49,4.14,4.14,0,0,0-1.08,1.2,20.46,20.46,0,0,0-1,2,24.08,24.08,0,0,1-1.27,2.34,5.11,5.11,0,0,1-1.5,1.5,4.16,4.16,0,0,1-2.36.62,4.1,4.1,0,0,1-3.22-1.31,5.25,5.25,0,0,1-1.17-3.59,8.5,8.5,0,0,1,.31-2.3,6.12,6.12,0,0,1,.77-1.78,26.69,26.69,0,0,0,3.22-.14,3.5,3.5,0,0,1,.22,1.36,5.37,5.37,0,0,0-2.72,1,2.38,2.38,0,0,0-.72,1.85,3,3,0,0,0,.63,2,2.23,2.23,0,0,0,1.78.73,2.67,2.67,0,0,0,1.64-.5,4.21,4.21,0,0,0,1.12-1.22c.29-.48.65-1.14,1.07-2a23.44,23.44,0,0,1,1.25-2.31,5.11,5.11,0,0,1,1.46-1.47,3.83,3.83,0,0,1,2.22-.61,4.69,4.69,0,0,1,2.34.6,4.28,4.28,0,0,1,1.7,1.85A6.69,6.69,0,0,1,196,177Zm0-20.87a6.4,6.4,0,0,1-.34,2h2.44a4.56,4.56,0,0,0,1.6-.22,1.36,1.36,0,0,0,.76-.67,3.8,3.8,0,0,0,.26-1.29,3.68,3.68,0,0,1,1.05-.12c-.05.75-.08,1.78-.08,3.08,0,1.51,0,2.58.08,3.22a3.68,3.68,0,0,1-1.05-.12,1.81,1.81,0,0,0-.48-1.33,2.73,2.73,0,0,0-1.65-.36H187.83a3,3,0,0,0-1,.14,1,1,0,0,0-.54.52,3.13,3.13,0,0,0-.2,1.17,1.57,1.57,0,0,1-.9-.22,10.27,10.27,0,0,0-.3-1.73,7.58,7.58,0,0,0-.53-1.54c.11-.35.47-.53,1.07-.53a2.63,2.63,0,0,1,.74.08l1,.28a10.26,10.26,0,0,1-1-.56,3.82,3.82,0,0,1-1.23-1.3,3.69,3.69,0,0,1-.58-2,4.36,4.36,0,0,1,1.3-3.38,5.59,5.59,0,0,1,3.9-1.18,7,7,0,0,1,3.27.75,5.7,5.7,0,0,1,2.31,2.15A6,6,0,0,1,196,156.09Zm-10.08-.92a2.54,2.54,0,0,0,1.15,2.08,5.8,5.8,0,0,0,3.51.87H194a3.48,3.48,0,0,0,.64-1,3,3,0,0,0,.22-1.18,3.48,3.48,0,0,0-.42-1.61A3.25,3.25,0,0,0,193,153a6.3,6.3,0,0,0-2.87-.56,5.45,5.45,0,0,0-3,.77A2.31,2.31,0,0,0,185.9,155.17Zm6.3-22.88a4,4,0,0,0,1.14-.11.82.82,0,0,0,.54-.42,2.38,2.38,0,0,0,.22-1,3.62,3.62,0,0,1,1.13.15,7.65,7.65,0,0,0,.25,1.35,6.93,6.93,0,0,0,.5,1.31.81.81,0,0,1-.45.44,2.56,2.56,0,0,1-1,.14,4.42,4.42,0,0,1-.63,0,3.29,3.29,0,0,1,1.2.85,3.85,3.85,0,0,1,.83,2.59,3.54,3.54,0,0,1-.69,2.33,2.33,2.33,0,0,1-1.9.82,2.86,2.86,0,0,1-2.31-1.05,6.35,6.35,0,0,1-1.23-2.34,21.34,21.34,0,0,1-.59-2.86,15.7,15.7,0,0,0-2.06.1,2,2,0,0,0-1,.42,1.82,1.82,0,0,0-.74,1.51,1.7,1.7,0,0,0,.9,1.6,4.33,4.33,0,0,0,1.93.54,5.52,5.52,0,0,1,0,.71,2.66,2.66,0,0,1-.12.56l-.83,0a9.29,9.29,0,0,0-1.83.15,10.13,10.13,0,0,1-.81-2.1,8.38,8.38,0,0,1-.29-2.05,3.48,3.48,0,0,1,.93-2.59,3.09,3.09,0,0,1,1.55-.8,12,12,0,0,1,2.67-.22Zm-2,2.2a16.1,16.1,0,0,0,.36,2,3.06,3.06,0,0,0,.75,1.35,2,2,0,0,0,1.53.58,1.83,1.83,0,0,0,1.29-.42,1.38,1.38,0,0,0,.44-1.05,2,2,0,0,0-.36-1.13,2.73,2.73,0,0,0-1.15-.92,4.57,4.57,0,0,0-1.93-.36ZM196,116.68a4.82,4.82,0,0,1-.66,2.45,5,5,0,0,1-2,1.89,6.37,6.37,0,0,1-3.14.73,7.05,7.05,0,0,1-2.86-.6,5.36,5.36,0,0,1-2.17-1.75,4.58,4.58,0,0,1-.83-2.73,5.86,5.86,0,0,1,1.1-3.69,18.46,18.46,0,0,0,2.78.18,2.53,2.53,0,0,1,.2,1.12,3.8,3.8,0,0,0-2.16.83,2.27,2.27,0,0,0-.77,1.76,2.13,2.13,0,0,0,1.13,1.91,6.19,6.19,0,0,0,3.21.71,6.58,6.58,0,0,0,2.33-.42,4.17,4.17,0,0,0,1.75-1.2,2.86,2.86,0,0,0,.66-1.88,3.21,3.21,0,0,0-.37-1.48,3.89,3.89,0,0,0-1.05-1.23,1.25,1.25,0,0,1,.28-.36,1.12,1.12,0,0,1,.4-.25,4.43,4.43,0,0,1,2.13,4ZM193.2,94.83a1.75,1.75,0,0,1,.34-.38.91.91,0,0,1,.42-.2,5,5,0,0,1,1.55,1.89,5.88,5.88,0,0,1,.47,2.45,4.94,4.94,0,0,1-.77,2.85,4.77,4.77,0,0,1-2.08,1.74,7.31,7.31,0,0,1-3,.59,6.76,6.76,0,0,1-2.9-.62,5.48,5.48,0,0,1-2.11-1.77,4.61,4.61,0,0,1-.79-2.66,4,4,0,0,1,1.37-3.32,6.56,6.56,0,0,1,3.67-1.25,1.77,1.77,0,0,1,.83.36c0,2.87,0,5.15.13,6.84a6,6,0,0,0,3.06-.95,2.89,2.89,0,0,0,1.18-2.59,3.79,3.79,0,0,0-.36-1.62,4.11,4.11,0,0,0-1.05-1.36Zm-7.66,4.1a2.06,2.06,0,0,0,.83,1.66,4.78,4.78,0,0,0,2.78.78V96.69a5,5,0,0,0-2.63.6,1.85,1.85,0,0,0-1,1.64Z" style="fill:#166183"/><path id="Path_181" data-name="Path 181" d="M75.57,178.4a5.54,5.54,0,0,1,.17,1.52c-1.07-.06-2.46-.1-4.17-.1s-3,0-4.24.1a5.42,5.42,0,0,1,.21-1.49,3,3,0,0,0,1.77-.59,2.32,2.32,0,0,0,.45-1.67c0-.46,0-1-.1-1.73l-1.25-11.92-7.19,17.37a3.63,3.63,0,0,1-1.42.24l-8.09-17.57L50.59,173.7c-.06.7-.1,1.3-.1,1.81a3.39,3.39,0,0,0,.54,2.21,2.69,2.69,0,0,0,1.83.71,5.78,5.78,0,0,1,.17,1.49c-1.12-.06-2.35-.1-3.72-.1s-2.52,0-3.47.1a5.78,5.78,0,0,1,.17-1.49,3.07,3.07,0,0,0,1.5-.49,2.5,2.5,0,0,0,.81-1.4,17.66,17.66,0,0,0,.5-3.15L49.93,161a7.81,7.81,0,0,0,0-.83,2.63,2.63,0,0,0-.56-1.91,2.45,2.45,0,0,0-1.8-.56,5.38,5.38,0,0,1-.18-1.49c.7.06,1.58.1,2.64.1.86,0,1.74,0,2.64-.1l8.69,19.2L69,156.24c.79.06,1.69.1,2.71.1.83,0,1.71,0,2.64-.1a5.79,5.79,0,0,1-.18,1.49,2.45,2.45,0,0,0-1.79.59,2.81,2.81,0,0,0-.6,2.05,6.33,6.33,0,0,0,0,.87L73,174a14.94,14.94,0,0,0,.45,2.66,2.59,2.59,0,0,0,.77,1.3A2.39,2.39,0,0,0,75.57,178.4Zm17.92-3.65a5.84,5.84,0,0,0,.16,1.61,1.23,1.23,0,0,0,.6.79,3.7,3.7,0,0,0,1.39.31,5.1,5.1,0,0,1-.2,1.6,10.43,10.43,0,0,0-1.93.36,9.55,9.55,0,0,0-1.86.72,1.21,1.21,0,0,1-.63-.65,3.53,3.53,0,0,1-.2-1.4,6.77,6.77,0,0,1,0-.9,4.54,4.54,0,0,1-1.21,1.7A5.47,5.47,0,0,1,86,180.07a5.05,5.05,0,0,1-3.31-1,3.3,3.3,0,0,1-1.16-2.71A4,4,0,0,1,83,173.1a9,9,0,0,1,3.33-1.75,29.52,29.52,0,0,1,4.06-.83,20.6,20.6,0,0,0-.13-2.94,3,3,0,0,0-.59-1.37,2.63,2.63,0,0,0-2.16-1,2.39,2.39,0,0,0-2.27,1.28,6.29,6.29,0,0,0-.79,2.75c-.33,0-.67,0-1-.07a3.57,3.57,0,0,1-.8-.18c0-.23,0-.62,0-1.18a12.62,12.62,0,0,0-.21-2.6,14.1,14.1,0,0,1,3-1.15,12,12,0,0,1,2.92-.42A5,5,0,0,1,92,164.92a4.37,4.37,0,0,1,1.15,2.21,18,18,0,0,1,.31,3.8Zm-3.13-2.81a20.11,20.11,0,0,0-2.77.5,4.24,4.24,0,0,0-1.93,1.07,2.86,2.86,0,0,0-.82,2.18,2.58,2.58,0,0,0,.59,1.84,2,2,0,0,0,1.49.62,2.84,2.84,0,0,0,1.62-.52,3.86,3.86,0,0,0,1.3-1.63,6.43,6.43,0,0,0,.52-2.74Zm20.91-8a3.79,3.79,0,0,1,2.4.84,28,28,0,0,0-.24,4.1,6.35,6.35,0,0,1-2,.31A4.1,4.1,0,0,0,111,167a1.41,1.41,0,0,0-1.2-.57,2,2,0,0,0-1.32.68,5.29,5.29,0,0,0-1.16,1.82,6.15,6.15,0,0,0-.47,2.43v3.33a6.49,6.49,0,0,0,.31,2.28,1.92,1.92,0,0,0,1,1.08,5.17,5.17,0,0,0,1.82.36,4.47,4.47,0,0,1,.17,1.5c-1.06-.07-2.52-.1-4.37-.1-2.16,0-3.68,0-4.59.1a4.75,4.75,0,0,1,.18-1.5,2.55,2.55,0,0,0,1.89-.68,3.84,3.84,0,0,0,.5-2.34v-6.88a4.16,4.16,0,0,0-.19-1.4,1.38,1.38,0,0,0-.75-.77,4.33,4.33,0,0,0-1.67-.3,2.31,2.31,0,0,1,.32-1.28,14.71,14.71,0,0,0,2.46-.42,10,10,0,0,0,2.19-.76c.51.17.76.68.76,1.53a11,11,0,0,1-.2,2.21c-.14.68-.22,1.08-.25,1.2l.28-.84a4.28,4.28,0,0,1,.45-1Q108.84,163.91,111.27,163.91Zm15.67,13.72a14.56,14.56,0,0,1,3.72.38,3.54,3.54,0,0,1,2,1.22,3.77,3.77,0,0,1,.61,2.26,5.72,5.72,0,0,1-1.13,3.23,8.67,8.67,0,0,1-3.11,2.69,9.14,9.14,0,0,1-4.38,1.06,7.28,7.28,0,0,1-4.58-1.18,4.28,4.28,0,0,1-1.46-3.51,3.91,3.91,0,0,1,2.57-3.75,2.3,2.3,0,0,1-1.3-.92,3.17,3.17,0,0,1-.36-1.65,5.11,5.11,0,0,1,1.84-3.68,5.09,5.09,0,0,1-1.62-1.86,5.5,5.5,0,0,1-.57-2.55,5.61,5.61,0,0,1,1.63-4.14,6.24,6.24,0,0,1,4.62-1.63,7.07,7.07,0,0,1,2.19.31h5.7a7.87,7.87,0,0,1,.24,2.16,23.93,23.93,0,0,0-3.37-.56,5.26,5.26,0,0,1,1.2,1.81,4.83,4.83,0,0,1,.4,1.84,5.64,5.64,0,0,1-1.66,4.18,6.26,6.26,0,0,1-4.62,1.65,7.66,7.66,0,0,1-2.68-.45,2.49,2.49,0,0,0-.87,1.63,1.21,1.21,0,0,0,.35,1,2.73,2.73,0,0,0,1.36.4C124.28,177.6,125.39,177.63,126.94,177.63ZM125,165.16a2.24,2.24,0,0,0-2,1.1,4.77,4.77,0,0,0-.7,2.65,5.18,5.18,0,0,0,.94,3.32,3.14,3.14,0,0,0,2.6,1.16,2.24,2.24,0,0,0,1.9-1,4.59,4.59,0,0,0,.71-2.74,5.43,5.43,0,0,0-.92-3.22,2.92,2.92,0,0,0-2.52-1.3Zm.42,21.47a6,6,0,0,0,2.58-.53,4,4,0,0,0,1.72-1.38,3.27,3.27,0,0,0,.59-1.88,2,2,0,0,0-.45-1.44,3.11,3.11,0,0,0-1.68-.75,19.75,19.75,0,0,0-3.6-.24c-.56,0-1.18,0-1.88-.07a3.32,3.32,0,0,0-.92,1.18,4.21,4.21,0,0,0-.26,1.53,3.62,3.62,0,0,0,.9,2.69,4.17,4.17,0,0,0,3,.89Zm17.36-27a2,2,0,0,1-2.05-2,2.08,2.08,0,0,1,.61-1.51,2.11,2.11,0,0,1,2.95,0,2.11,2.11,0,0,1,.58,1.53,2,2,0,0,1-.61,1.41A2,2,0,0,1,142.81,159.67ZM139,179.92a5,5,0,0,1,.17-1.49,2.3,2.3,0,0,0,1.9-.64,4.13,4.13,0,0,0,.5-2.38v-6.88a4.86,4.86,0,0,0-.18-1.42,1.26,1.26,0,0,0-.73-.78,4.1,4.1,0,0,0-1.7-.27,2.31,2.31,0,0,1,.32-1.28,12,12,0,0,0,2.46-.38,6.87,6.87,0,0,0,2.19-.8c.51.16.76.62.76,1.39v10.42a4.46,4.46,0,0,0,.46,2.38,1.83,1.83,0,0,0,1.6.64,5.78,5.78,0,0,1,.17,1.49c-1.2-.06-2.51-.1-3.93-.1S140.12,179.85,139,179.92Zm31.26-1.49a5,5,0,0,1,.17,1.49c-1-.06-2.25-.1-3.78-.1-1,0-2.1,0-3.44.07a5.37,5.37,0,0,1-.7,0,4.75,4.75,0,0,1,.18-1.5,2.27,2.27,0,0,0,1.84-.66,3.69,3.69,0,0,0,.55-2.36v-5.28a4.9,4.9,0,0,0-.85-3.26,3,3,0,0,0-2.38-1,3.45,3.45,0,0,0-1.87.59,4.28,4.28,0,0,0-1.48,1.91,8.3,8.3,0,0,0-.57,3.3v3.72a4,4,0,0,0,.52,2.38,2.3,2.3,0,0,0,1.88.64,5,5,0,0,1,.17,1.5c-1.94-.07-3.32-.1-4.13-.1-1.76,0-3.14,0-4.14.1a4.75,4.75,0,0,1,.18-1.5,2.27,2.27,0,0,0,1.87-.64,3.9,3.9,0,0,0,.53-2.38v-6.88a4.17,4.17,0,0,0-.2-1.4,1.37,1.37,0,0,0-.74-.77,4.53,4.53,0,0,0-1.67-.3,2.38,2.38,0,0,1,.31-1.28,14.65,14.65,0,0,0,2.47-.42,10.52,10.52,0,0,0,2.19-.76c.51.16.76.67.76,1.53a7.8,7.8,0,0,1-.24,2c.07-.11.13-.24.19-.36a3,3,0,0,1,.33-.54,6.3,6.3,0,0,1,2-1.74,6.06,6.06,0,0,1,3-.76,4.9,4.9,0,0,1,3.58,1.36,5.76,5.76,0,0,1,1.39,4.3v6a4.2,4.2,0,0,0,.48,2.38,1.87,1.87,0,0,0,1.57.64Z" style="fill:#225576"/><path id="Path_169" data-name="Path 169" d="M59.47,200.2q8.57,0,13.94,3.54t5.37,13.14q0,7.63-3.38,11.69a16,16,0,0,1-7.67,5.35,28.89,28.89,0,0,1-8.31,1.29q-10.48,0-14.2.15a8.77,8.77,0,0,1,.31-2.79A4.84,4.84,0,0,0,47.7,232a2.42,2.42,0,0,0,1-1.52,12.71,12.71,0,0,0,.31-3.25V207.84a10.4,10.4,0,0,0-.31-2.94,2.3,2.3,0,0,0-1-1.39,5.87,5.87,0,0,0-2.17-.57,10.51,10.51,0,0,1-.31-2.8c1.86.11,4.66.16,8.42.16,1.2,0,2.11,0,2.73-.05Zm.67,32.17a11.41,11.41,0,0,0,8.47-3.23q3.19-3.22,3.2-11.43,0-7.8-3.64-11.36A12.6,12.6,0,0,0,59,202.79a10.88,10.88,0,0,0-3.3.46V227.2a10.78,10.78,0,0,0,.36,3.2,2.45,2.45,0,0,0,1.32,1.53,6.93,6.93,0,0,0,2.81.44ZM108,229.53a2.07,2.07,0,0,1,.88.9,3.19,3.19,0,0,1,.41,1.31,11.55,11.55,0,0,1-4.23,3,14.6,14.6,0,0,1-5.47.95q-5.9,0-8.88-3.38a12.77,12.77,0,0,1-3-8.8,14,14,0,0,1,1.4-6.33,10.78,10.78,0,0,1,4-4.44,11.24,11.24,0,0,1,6.06-1.62q5.07,0,7.57,2.94a13.2,13.2,0,0,1,2.81,8,5.05,5.05,0,0,1-1.08,2.17q-8.94,0-14.1.26A10.4,10.4,0,0,0,96.41,230a6.22,6.22,0,0,0,5.14,2.12,9.16,9.16,0,0,0,3.51-.7,8.2,8.2,0,0,0,2.89-1.93ZM98.87,214a3.82,3.82,0,0,0-3.23,1.78,10.64,10.64,0,0,0-1.42,5.65h8.88A11.29,11.29,0,0,0,102,216,3.41,3.41,0,0,0,98.87,214Zm37.27,4.23a6.4,6.4,0,0,1-3.4.83,6.13,6.13,0,0,0-1.6-3.72,4.76,4.76,0,0,0-3.67-1.5,3.24,3.24,0,0,0-2.14.67,2.17,2.17,0,0,0-.8,1.75,2.66,2.66,0,0,0,.38,1.48,4.92,4.92,0,0,0,1.63,1.31,30,30,0,0,0,3.82,1.76,25.18,25.18,0,0,1,4.52,2.2,6.5,6.5,0,0,1,2.3,2.3,6.41,6.41,0,0,1,.67,3,6.19,6.19,0,0,1-2.82,5.37,12.75,12.75,0,0,1-7.46,2,24.26,24.26,0,0,1-5-.44,17.25,17.25,0,0,1-4-1.42,31.7,31.7,0,0,0,.15-3.51c0-.9,0-1.86-.1-2.89a6.51,6.51,0,0,1,3.52-.73,7.63,7.63,0,0,0,1.78,4.49,5,5,0,0,0,3.79,1.5,4.46,4.46,0,0,0,2.79-.77,2.44,2.44,0,0,0,1-2.06,2.68,2.68,0,0,0-1-2.16,17.65,17.65,0,0,0-4.19-2.09,26.3,26.3,0,0,1-4.36-2.06,6.21,6.21,0,0,1-3.17-5.84,5.22,5.22,0,0,1,1.34-3.61,8.26,8.26,0,0,1,3.46-2.25,13.14,13.14,0,0,1,4.44-.74,20.58,20.58,0,0,1,4.36.41A14.81,14.81,0,0,1,136,212.8c0,.45-.05,1.14-.05,2.06A25.05,25.05,0,0,0,136.14,218.22Zm16.73-11.88a3.9,3.9,0,0,1-2.71-1,3.09,3.09,0,0,1-1.06-2.4,3.35,3.35,0,0,1,1.11-2.63,4,4,0,0,1,2.77-1,4.08,4.08,0,0,1,2.86,1,3.34,3.34,0,0,1,1.06,2.61,3.07,3.07,0,0,1-1.14,2.42A4.17,4.17,0,0,1,152.87,206.34Zm-6.45,29a8.81,8.81,0,0,1,.36-2.79,3.37,3.37,0,0,0,2.76-1,6.18,6.18,0,0,0,.7-3.51v-9A6.45,6.45,0,0,0,150,217a1.91,1.91,0,0,0-1.08-1.13,6.37,6.37,0,0,0-2.48-.44,5,5,0,0,1,.52-2.53,24.09,24.09,0,0,0,4.64-.54,10.92,10.92,0,0,0,3.61-1.21,2.32,2.32,0,0,1,1.4,2.47v14.51a6.45,6.45,0,0,0,.67,3.51,3,3,0,0,0,2.48,1,9.72,9.72,0,0,1,.31,2.79q-2.48-.15-6.77-.15Q148.75,235.21,146.42,235.36Zm36.4-3.92c3.37,0,5.82.48,7.33,1.34s2.27,2.43,2.27,4.7a8.56,8.56,0,0,1-1.8,5.14,12.83,12.83,0,0,1-5,3.95,17.2,17.2,0,0,1-7.31,1.5q-5.06,0-7.3-1.7a5.82,5.82,0,0,1-2.25-4.91,5.49,5.49,0,0,1,1-3.23,6.47,6.47,0,0,1,2.84-2.14,4.2,4.2,0,0,1-2.37-4.08,7.68,7.68,0,0,1,2.89-5.68,7.35,7.35,0,0,1-3.56-6.71,7.86,7.86,0,0,1,2.63-6.2q2.64-2.32,7.38-2.32a13.32,13.32,0,0,1,3.72.46h9.24a12.29,12.29,0,0,1,.47,3.67,27.63,27.63,0,0,0-5-.93,8.49,8.49,0,0,1,1.73,2.61,6.81,6.81,0,0,1,.59,2.71,7.59,7.59,0,0,1-2.71,6q-2.72,2.35-7.72,2.35a16.5,16.5,0,0,1-3.77-.41,2.69,2.69,0,0,0-1.08,1.91,1.39,1.39,0,0,0,.72,1.32,5.87,5.87,0,0,0,2.22.49C178.91,231.35,180.55,231.4,182.82,231.44Zm-3.36-17.76a3,3,0,0,0-2.68,1.46,7,7,0,0,0-.93,3.8,7.75,7.75,0,0,0,1.21,4.67,4,4,0,0,0,3.39,1.63A3,3,0,0,0,183,223.9,6.94,6.94,0,0,0,184,220a7.76,7.76,0,0,0-1.22-4.54,3.77,3.77,0,0,0-3.28-1.75Zm.26,31.23a8.65,8.65,0,0,0,5.19-1.39,4.16,4.16,0,0,0,1.94-3.46,2.43,2.43,0,0,0-.6-1.75,3.78,3.78,0,0,0-2.11-.88,29.73,29.73,0,0,0-4.52-.26,30,30,0,0,1-4.13-.26,4.44,4.44,0,0,0-1.06,1.52,4.69,4.69,0,0,0-.28,1.73,4.58,4.58,0,0,0,1.29,3.62,6.44,6.44,0,0,0,4.28,1.13Zm50.7-12.34a7.8,7.8,0,0,1,.36,2.79q-2.22-.15-6.09-.15-2.12,0-6.92.15a7.8,7.8,0,0,1,.36-2.79,2.81,2.81,0,0,0,2.46-1,6.55,6.55,0,0,0,.75-3.66v-6.46c0-2.16-.36-3.7-1.09-4.62a3.8,3.8,0,0,0-3.2-1.36,4.17,4.17,0,0,0-2.6.92,6.55,6.55,0,0,0-2,2.84,12.91,12.91,0,0,0-.74,4.65v4.24a6.11,6.11,0,0,0,.72,3.53,2.91,2.91,0,0,0,2.48,1,10.09,10.09,0,0,1,.31,2.79q-4.33-.17-6.66-.16-4.71,0-7,.16a8.21,8.21,0,0,1,.36-2.79,3.28,3.28,0,0,0,2.74-1,6.11,6.11,0,0,0,.72-3.53v-8.73a8.08,8.08,0,0,0-.25-2.3,2.08,2.08,0,0,0-1.06-1.21,5.92,5.92,0,0,0-2.46-.47,5.06,5.06,0,0,1,.52-2.53,23.1,23.1,0,0,0,4.62-.59,18.58,18.58,0,0,0,3.64-1.16c.9.34,1.34,1.2,1.34,2.58a12.49,12.49,0,0,1-.46,3.1,9.33,9.33,0,0,1,1.19-2,9.86,9.86,0,0,1,3-2.4,9,9,0,0,1,4.29-1,8.1,8.1,0,0,1,5.65,2q2.25,2,2.25,6.37v8.32a7,7,0,0,0,.62,3.53,2.3,2.3,0,0,0,2.11.95Z" style="fill:#094c84"/><path id="Path_182" data-name="Path 182" d="M58.42,145.61a5.56,5.56,0,0,0,1,1.11,2.27,2.27,0,0,0,1.18.39,2.19,2.19,0,0,1-.12.8,27,27,0,0,0-2.84.1A25.12,25.12,0,0,0,56,145.53a20.12,20.12,0,0,0-2-2.4v2.58a3.11,3.11,0,0,0,.09.86.68.68,0,0,0,.3.42,1.66,1.66,0,0,0,.63.15,2.72,2.72,0,0,1,.09.81c-.55,0-1.22,0-2,0s-1.58,0-2.15,0a2.72,2.72,0,0,1,.09-.81,1.71,1.71,0,0,0,.63-.15.68.68,0,0,0,.3-.42,2.77,2.77,0,0,0,.09-.86v-5.77a2.44,2.44,0,0,0-.09-.85.66.66,0,0,0-.3-.41,1.51,1.51,0,0,0-.63-.16,3.75,3.75,0,0,1-.09-.82c.52,0,1.22.05,2.09.05s1.46,0,2.06-.05a2.29,2.29,0,0,1-.11.82,1.42,1.42,0,0,0-.63.15.64.64,0,0,0-.29.41,3.53,3.53,0,0,0-.08.86v2.53l2.57-2.66c.41-.41.61-.73.61-1s-.15-.31-.46-.33a2.8,2.8,0,0,1-.09-.81c.35,0,.88,0,1.59,0s1.39,0,1.79,0a2.25,2.25,0,0,1-.12.81,2.16,2.16,0,0,0-1,.3,5.21,5.21,0,0,0-1.1.94l-2.18,2.31A37.09,37.09,0,0,1,58.42,145.61Zm17.77-.47a1.77,1.77,0,0,1,1,.41,11.94,11.94,0,0,0-.47,2.38c-.92,0-2.07,0-3.44,0-2,0-3.41,0-4.13,0a2.72,2.72,0,0,1,.09-.81,1.51,1.51,0,0,0,.63-.16.68.68,0,0,0,.3-.44,3.78,3.78,0,0,0,.09-.95v-5.65a3,3,0,0,0-.09-.85.64.64,0,0,0-.31-.41,1.55,1.55,0,0,0-.63-.16,3.22,3.22,0,0,1-.08-.82c.69,0,1.7.05,3,.05,1.57,0,3,0,4.16-.05a14.65,14.65,0,0,0,.32,2.47,1.84,1.84,0,0,1-.95.21,2.16,2.16,0,0,0-.59-1.36,2.38,2.38,0,0,0-1.74-.5H72.14v3.89h.64a2,2,0,0,0,1.18-.25,1.13,1.13,0,0,0,.34-.92,2.88,2.88,0,0,1,.92-.12c0,.49,0,1,0,1.66s0,1.28,0,1.76a3.32,3.32,0,0,1-.89-.09,1.36,1.36,0,0,0-.38-1,1.92,1.92,0,0,0-1.17-.27h-.64v2.37a3.31,3.31,0,0,0,.1.94.73.73,0,0,0,.39.44,2.06,2.06,0,0,0,.81.13h.14a3.71,3.71,0,0,0,1.36-.2,1.64,1.64,0,0,0,.75-.6A4.82,4.82,0,0,0,76.19,145.14Zm17.32.65a6.52,6.52,0,0,0,.51.78,1.28,1.28,0,0,0,.49.37,2.44,2.44,0,0,0,.76.15,2.72,2.72,0,0,1-.09.81,20.12,20.12,0,0,0-2.69.14c-.21-.36-.48-.88-.8-1.55l-.3-.61a10.38,10.38,0,0,0-.72-1.31,7.55,7.55,0,0,0-.9-1H88.9v2.13a4,4,0,0,0,.08.92.68.68,0,0,0,.27.43,1.49,1.49,0,0,0,.55.14,2.22,2.22,0,0,1,.09.81c-.41,0-1.1,0-2.06,0-.78,0-1.43,0-2,0a2.76,2.76,0,0,1,.09-.81,1.76,1.76,0,0,0,.64-.15.73.73,0,0,0,.3-.41,3.22,3.22,0,0,0,.09-.87v-5.78a3.22,3.22,0,0,0-.09-.87.71.71,0,0,0-.31-.41,1.41,1.41,0,0,0-.64-.13,3.74,3.74,0,0,1-.08-.82c.4,0,1.08.05,2,.05l1.17,0,1.53,0a4,4,0,0,1,2.56.73,2.35,2.35,0,0,1,.87,1.89,2.7,2.7,0,0,1-.65,1.84,3.37,3.37,0,0,1-1.77,1,4.27,4.27,0,0,1,.88.92C92.73,144.44,93.07,145,93.51,145.79Zm-4.61-3.13a5.63,5.63,0,0,0,.59.05,3,3,0,0,0,1.82-.55,1.93,1.93,0,0,0,.71-1.62,2,2,0,0,0-.53-1.49,2.25,2.25,0,0,0-1.65-.53,3.06,3.06,0,0,0-1,.12Zm23.15-4.91c.6,0,1.09,0,1.48-.05a2.83,2.83,0,0,1-.09.82.81.81,0,0,0-.55.21,1,1,0,0,0-.27.63,8.11,8.11,0,0,0-.08,1.3v7.24a3.32,3.32,0,0,1-.88.11l-5.86-7.74v4.67a7.37,7.37,0,0,0,.09,1.33,1.06,1.06,0,0,0,.32.65,1.17,1.17,0,0,0,.68.22,3.13,3.13,0,0,1,.07.81c-.43,0-1,0-1.59,0s-1.28,0-1.64,0a2.72,2.72,0,0,1,.09-.81,1.22,1.22,0,0,0,.67-.22,1.1,1.1,0,0,0,.33-.65,6.57,6.57,0,0,0,.1-1.33v-5.81l-.12-.16a1,1,0,0,0-.37-.33,2.06,2.06,0,0,0-.6-.12,2.83,2.83,0,0,1-.09-.82c.33,0,.8.05,1.4.05s.92,0,1.23-.05l5.29,7.09v-4.13a7.11,7.11,0,0,0-.09-1.3,1.11,1.11,0,0,0-.33-.63,1.24,1.24,0,0,0-.7-.22,3.59,3.59,0,0,1-.09-.81C110.88,137.73,111.42,137.75,112.05,137.75Zm11.38,2.19a3,3,0,0,0-.09-.85.66.66,0,0,0-.3-.41,1.55,1.55,0,0,0-.63-.16,2.83,2.83,0,0,1-.09-.82c.52,0,1.22.05,2.09.05s1.46,0,2.06-.05a2.54,2.54,0,0,1-.11.82,1.39,1.39,0,0,0-.63.15.64.64,0,0,0-.29.41,3.54,3.54,0,0,0-.09.86v5.77a3.11,3.11,0,0,0,.09.86.72.72,0,0,0,.3.42,1.76,1.76,0,0,0,.64.15,3.1,3.1,0,0,1,.09.81c-.55,0-1.22,0-2,0s-1.58,0-2.15,0a2.72,2.72,0,0,1,.09-.81A1.71,1.71,0,0,0,123,147a.68.68,0,0,0,.3-.42,3.11,3.11,0,0,0,.09-.86Zm20.2-2.19c.6,0,1.1,0,1.49-.05a3.75,3.75,0,0,1-.09.82.85.85,0,0,0-.56.21,1.09,1.09,0,0,0-.27.63,8.1,8.1,0,0,0-.07,1.3v7.24a3.34,3.34,0,0,1-.89.11l-5.86-7.74v4.67a7.38,7.38,0,0,0,.1,1.33,1,1,0,0,0,.32.65,1.2,1.2,0,0,0,.68.22,3.65,3.65,0,0,1,.08.81c-.43,0-1,0-1.6,0s-1.27,0-1.63,0a2.76,2.76,0,0,1,.09-.81,1.17,1.17,0,0,0,.67-.22,1.13,1.13,0,0,0,.33-.65,7.34,7.34,0,0,0,.1-1.32v-5.82l-.12-.16a1.06,1.06,0,0,0-.37-.33,2.13,2.13,0,0,0-.61-.12,2.83,2.83,0,0,1-.09-.82c.33,0,.8.05,1.4.05s.92,0,1.23-.05l5.29,7.09v-4.13a7.11,7.11,0,0,0-.09-1.3,1.09,1.09,0,0,0-.32-.63,1.26,1.26,0,0,0-.7-.22,3.59,3.59,0,0,1-.09-.81c.42,0,.95.05,1.58.05ZM158.77,148a5.35,5.35,0,0,1-2.66-.65,4.47,4.47,0,0,1-1.77-1.86,6,6,0,0,1-.63-2.82,5.22,5.22,0,0,1,.71-2.76,4.52,4.52,0,0,1,1.91-1.74,5.81,5.81,0,0,1,2.66-.59,8.32,8.32,0,0,1,1.93.2,7.15,7.15,0,0,1,1.64.53,12.12,12.12,0,0,0-.16,2.33,3,3,0,0,1-1,.15,2.59,2.59,0,0,0-.65-1.9,2.45,2.45,0,0,0-1.69-.52,2.87,2.87,0,0,0-1.81.55,3.17,3.17,0,0,0-1.08,1.44,5.32,5.32,0,0,0-.35,2,7.55,7.55,0,0,0,.37,2.45,3.88,3.88,0,0,0,1.11,1.7,2.63,2.63,0,0,0,1.78.62,4.86,4.86,0,0,0,.66,0,2.39,2.39,0,0,0,.54-.15.68.68,0,0,0,.37-.34,1.69,1.69,0,0,0,.12-.77v-.67a3,3,0,0,0-.08-.9.5.5,0,0,0-.33-.37,2.71,2.71,0,0,0-.8-.11,2.37,2.37,0,0,1-.1-.84c.45,0,1.09,0,1.92,0s1.33,0,1.89,0a2.87,2.87,0,0,1-.09.82.88.88,0,0,0-.45.11.52.52,0,0,0-.18.35,4.84,4.84,0,0,0,0,.85v.57a4,4,0,0,0,0,.69,1.75,1.75,0,0,0,.18.53,5.93,5.93,0,0,1-1.72.82A7.17,7.17,0,0,1,158.77,148Z" style="fill:#0099d1"/><path id="Path_192" data-name="Path 192" d="M84.91,4.6q0,3.18.56,9.89a8.54,8.54,0,0,1-4,.72Q81.32,10.43,79.17,8t-6.7-2.48H68.23v40.3A14.06,14.06,0,0,0,68.71,50a3.27,3.27,0,0,0,1.8,2,11.89,11.89,0,0,0,3.95.76,10.72,10.72,0,0,1,.4,3.43c-3.4-.16-6.89-.24-10.45-.24q-6,0-10.45.24a10.72,10.72,0,0,1,.4-3.43,12.38,12.38,0,0,0,4-.76,3.37,3.37,0,0,0,1.87-2,12.65,12.65,0,0,0,.51-4.15V5.47H56.66A11.33,11.33,0,0,0,51,6.63a6.48,6.48,0,0,0-2.83,3.11,25.88,25.88,0,0,0-1.48,5.47,7.76,7.76,0,0,1-3.83-.72A73.9,73.9,0,0,0,44.13,1.72Q48.6,2,64.48,2,80.61,2,85,1.72Zm36.22,14.76c3.73,0,6.39-.06,8-.16a9.28,9.28,0,0,1-.47,3.43,5.88,5.88,0,0,0-3.32,2.07,33.72,33.72,0,0,0-3.15,6.23L110.45,58.86a93.53,93.53,0,0,1-5.19,10.77,15.08,15.08,0,0,1-4.11,4.87,8.19,8.19,0,0,1-4.59,1.27,9.57,9.57,0,0,1-6-1.83,10.28,10.28,0,0,1-.24-2.48,16.46,16.46,0,0,1,.32-3.35,29.07,29.07,0,0,0,5.1.48,9.07,9.07,0,0,0,8.06-4.71,48.73,48.73,0,0,0,3.67-7.42q-4.3-9.74-10.85-24-1.9-4-3.11-6a9.28,9.28,0,0,0-2.23-2.75,6.54,6.54,0,0,0-2.48-1.08,11.07,11.07,0,0,1-.48-3.43c4,.1,7,.16,9,.16,2.71,0,6.25-.06,10.61-.16a8.93,8.93,0,0,1-.56,3.43,9.4,9.4,0,0,0-3.91,1.24,2.71,2.71,0,0,0-1.2,2.35A14.2,14.2,0,0,0,104,31.41q2.72,5.5,7.18,16.43l.72-1.83,5.51-13.88a15.82,15.82,0,0,0,1.35-5.27,3.33,3.33,0,0,0-1.2-2.84,9,9,0,0,0-3.75-1.4,10.75,10.75,0,0,1-.56-3.42C114.89,19.3,117.52,19.36,121.13,19.36Zm35.43,37.26a21,21,0,0,1-6.62-1.11v8a14.66,14.66,0,0,0,.72,5.22,4.35,4.35,0,0,0,2.19,2.48A12.07,12.07,0,0,0,157,72a10.78,10.78,0,0,1,.4,3.43q-3.67-.23-10.05-.23-7.42,0-10.54.23a11.39,11.39,0,0,1,.4-3.43c2.13-.1,3.58-.62,4.35-1.55s1.16-2.73,1.16-5.39V30a9.56,9.56,0,0,0-.44-3.23A3.18,3.18,0,0,0,140.61,25a10.08,10.08,0,0,0-3.83-.67,5.46,5.46,0,0,1,.71-3,32.91,32.91,0,0,0,5.67-1,24.21,24.21,0,0,0,5-1.76c1.17.37,1.75,1.54,1.75,3.51a10.56,10.56,0,0,1-.28,2.44c-.18.77-.49,1.87-.92,3.31a37.45,37.45,0,0,1,1.84-3.35,12.39,12.39,0,0,1,4.27-4,12.17,12.17,0,0,1,6.66-1.88q7.19,0,11.06,4.23t3.86,12.77A22.81,22.81,0,0,1,174,46.33a18.61,18.61,0,0,1-7,7.54,19.62,19.62,0,0,1-10.37,2.75Zm3-32.95a8.36,8.36,0,0,0-6.83,3.75q-2.82,3.75-2.83,11.49V50.16a12,12,0,0,0,3.15,2.07A9.54,9.54,0,0,0,157,53a11.29,11.29,0,0,0,5.27-1.36,10.91,10.91,0,0,0,4.47-4.82,20.21,20.21,0,0,0,1.83-9.38q0-6.22-2.51-10a7.49,7.49,0,0,0-6.42-3.75Zm56,23.86a5.25,5.25,0,0,1,1.24,1.11,2.79,2.79,0,0,1,.68,1.36,16.31,16.31,0,0,1-6.19,5.07,19.34,19.34,0,0,1-8,1.55,16.42,16.42,0,0,1-9.3-2.51,15.59,15.59,0,0,1-5.7-6.82,23.58,23.58,0,0,1-1.92-9.66,22,22,0,0,1,2-9.5,17.13,17.13,0,0,1,5.78-6.9,14.9,14.9,0,0,1,8.7-2.59q7.26,0,10.82,4.51t4.1,12a6.25,6.25,0,0,1-1.2,2.71q-14,0-22.34.4a19.64,19.64,0,0,0,3.07,10q2.69,3.87,8.5,3.87a12.14,12.14,0,0,0,5.27-1.2,13.19,13.19,0,0,0,4.48-3.43Zm-13.4-25.06a6.83,6.83,0,0,0-5.43,2.71c-1.48,1.81-2.34,4.85-2.55,9.1h15.32a16.38,16.38,0,0,0-2-8.57A6,6,0,0,0,202.21,22.47Z" style="fill:#094c84"/><path id="Path_170" data-name="Path 170" d="M33.22,23.52H10.68a12.88,12.88,0,0,0-3.81.41,2.73,2.73,0,0,0-1.69,1.5,10,10,0,0,0-.6,3.43,12.45,12.45,0,0,1-4.25.54q.16-3,.16-10.62c0-6,0-10.18-.16-12.57a14.47,14.47,0,0,1,2.18.19,13.18,13.18,0,0,1,2.07.46,11.56,11.56,0,0,0,.6,3.6,3,3,0,0,0,1.71,1.68,10.84,10.84,0,0,0,3.79.49H33.22v-.11a5.83,5.83,0,0,0-1.63-4.43,12,12,0,0,0-5.34-2.48A14.1,14.1,0,0,1,27.07,0a40,40,0,0,0,5.2,1,41.07,41.07,0,0,0,5.2.38q-.16,4.57-.17,17,0,9.92.17,16.72a41.19,41.19,0,0,0-5.09.35,49.1,49.1,0,0,0-5.26,1,15.32,15.32,0,0,1-.87-5.66,12.36,12.36,0,0,0,5.36-2.1,4.94,4.94,0,0,0,1.61-4.06ZM37.3,66.7c0,2.21,0,3.9.11,5.06a16,16,0,0,1-4.19-.49,3.46,3.46,0,0,0-1.14-1.85,15.15,15.15,0,0,0-3.43-2L14,60.82H11.28a16.47,16.47,0,0,0-4.14.38,2.82,2.82,0,0,0-1.85,1.5,10.31,10.31,0,0,0-.71,3.51,11.83,11.83,0,0,1-2,.44,19.4,19.4,0,0,1-2.29.11c.11-2.11.16-6,.16-11.66q0-3.27-.1-8.71L.33,43.5a13.57,13.57,0,0,1,4.25.65,14.92,14.92,0,0,0,.68,3.92A2.46,2.46,0,0,0,7,49.57a18.55,18.55,0,0,0,4.33.36h2.83L30,42.36q2.94-1.41,3.21-3.59a16,16,0,0,1,4.19-.44q-.1,2.61-.11,9.15,0,6.92.11,9.15a23.58,23.58,0,0,1-4.19-.39c-.14-1.2-.73-1.8-1.74-1.8a9.9,9.9,0,0,0-2.78.77l-1.52.6q-5,2-8.28,3.21Q24.35,61.14,29,63.16a5.27,5.27,0,0,0,2.06.49,1.94,1.94,0,0,0,2.12-1.76c0-.1,0-.21,0-.31a16,16,0,0,1,4.19-.49C37.34,62.4,37.3,64.27,37.3,66.7ZM16.56,92.34a3.93,3.93,0,0,0,1.93,3.27Q20.43,97,24.4,97a11.62,11.62,0,0,0,6.37-1.5A5,5,0,0,0,33.11,91a5.65,5.65,0,0,0-.38-2.12H11.22c-2.36,0-4,.41-5,1.25S4.73,92.5,4.58,94.79a13.24,13.24,0,0,1-4.25.49C.44,93.22.5,89.71.5,84.77q0-7.08-.17-10.83a17.8,17.8,0,0,1,4.25.38,4.91,4.91,0,0,0,.6,2.31,2.75,2.75,0,0,0,1.71,1,17.22,17.22,0,0,0,3.79.3H27.23a19.9,19.9,0,0,0,3.7-.24,2.45,2.45,0,0,0,1.61-1,6,6,0,0,0,.68-2.34,17.89,17.89,0,0,1,4.25-.49q-.16,5.18-.17,8.88l.06,7c0,1.09,0,2.32,0,3.7q0,8.05-3,11.32T26,108.13q-6.32,0-10.07-3.65T12.2,94.36a10.55,10.55,0,0,1,.55-3.7,11.4,11.4,0,0,1,1.3-.11,5.31,5.31,0,0,1,2.62.6A5.28,5.28,0,0,0,16.56,92.34ZM0,130.73a20.21,20.21,0,0,1,2.37-10,15.93,15.93,0,0,1,6.7-6.51,21.33,21.33,0,0,1,10-2.26,19.88,19.88,0,0,1,9.93,2.4A16.47,16.47,0,0,1,35.51,121a20.1,20.1,0,0,1,2.28,9.74,20.89,20.89,0,0,1-2.23,9.91,16,16,0,0,1-6.31,6.59,18.8,18.8,0,0,1-9.48,2.34,22.27,22.27,0,0,1-10.32-2.31,16.75,16.75,0,0,1-7-6.59A19.4,19.4,0,0,1,0,130.73Zm4.24.65c0,2.22,1.29,3.94,3.87,5.18s6.08,1.85,10.51,1.85a26.87,26.87,0,0,0,7.62-1,13.25,13.25,0,0,0,5.44-2.91,5.94,5.94,0,0,0,2-4.47q0-3.32-3.46-5.12c-2.3-1.19-5.6-1.79-9.88-1.8A27.8,27.8,0,0,0,8.8,125.2q-4.55,2.1-4.55,6.18ZM0,172.66a21.92,21.92,0,0,1,2.26-10.32,15.48,15.48,0,0,1,6.56-6.65,21.57,21.57,0,0,1,10.34-2.31,20.19,20.19,0,0,1,10,2.34,15.51,15.51,0,0,1,6.37,6.73,22.86,22.86,0,0,1,2.2,10.42,28.48,28.48,0,0,1-.81,6.76,34.83,34.83,0,0,1-2,6,49.64,49.64,0,0,0-8.44-.6,6.89,6.89,0,0,1-.62-2.31,28.86,28.86,0,0,1-.14-3.08q4.14-.23,6-2a6.79,6.79,0,0,0,1.83-5.09,6.5,6.5,0,0,0-3.76-6.12,19.6,19.6,0,0,0-9.31-2,29.47,29.47,0,0,0-8.35,1.09,13.34,13.34,0,0,0-5.72,3.1,6.39,6.39,0,0,0-2,4.68,6.16,6.16,0,0,0,.21,1.91,2.41,2.41,0,0,0,1.15,1.3A6.41,6.41,0,0,0,8.5,177h1.85a8,8,0,0,0,2.48-.3A1.88,1.88,0,0,0,14,175.59a8.47,8.47,0,0,0,.44-2.45,19,19,0,0,1,4.19-.38q-.16,2.19-.16,7.57c0,3.7,0,6.32.11,7.84a21.22,21.22,0,0,1-4.14-.32c-.07-.91-.31-1.48-.71-1.72a5.76,5.76,0,0,0-2.5-.35H9.92a18.63,18.63,0,0,0-3.16.19,13.75,13.75,0,0,0-2.5.73,22.69,22.69,0,0,1-3.07-6.34A25.16,25.16,0,0,1,0,172.66Zm8.33,51.18a10,10,0,0,0-2.8,1.87,4,4,0,0,0-.79,2.37,15.26,15.26,0,0,1-4.25-.6A97.46,97.46,0,0,0,0,215.28q1.26-.54,6.43-2.56l1.9-.7a25.35,25.35,0,0,0,4.11-1.86,6.58,6.58,0,0,0,2.14-2.06q0-1.31.06-2H11.22a26.09,26.09,0,0,0-4.33.24,3,3,0,0,0-1.82.79,2.79,2.79,0,0,0-.49,1.63,14.84,14.84,0,0,1-4.25.38Q.5,206,.49,199.6q0-4.68-.16-8.43a16.91,16.91,0,0,1,4.25.43,4.6,4.6,0,0,0,.6,2.26,2.75,2.75,0,0,0,1.71,1,17.22,17.22,0,0,0,3.79.3H27.34a17.5,17.5,0,0,0,3.68-.27,2.53,2.53,0,0,0,1.63-1,6.29,6.29,0,0,0,.68-2.37,17.52,17.52,0,0,1,2-.27c.89-.07,1.61-.11,2.15-.11-.14,2.91-.22,6-.22,9.37l.11,3.48c.11,4.47.17,7.06.17,7.79a18.68,18.68,0,0,1-1.36,7.57,10,10,0,0,1-3.68,4.51,9.38,9.38,0,0,1-5.2,1.47,12.5,12.5,0,0,1-7.46-2.06,9.75,9.75,0,0,1-3.81-5.56,6.63,6.63,0,0,1-1.25,2.15,9.17,9.17,0,0,1-2.18,1.69c-.94.56-2.38,1.31-4.3,2.26Zm10.51-16.12a6,6,0,0,0,1.87,4.41A7.21,7.21,0,0,0,26,214a8.65,8.65,0,0,0,5.45-1.52,4.92,4.92,0,0,0,2-4.09,7,7,0,0,0-.38-2.28h-14A8.87,8.87,0,0,0,18.85,207.72Zm-14.27,59a15.59,15.59,0,0,1-4.25.43q.16-2.17.17-8.54,0-7.51-.17-9.59a17.84,17.84,0,0,1,4.25.44,4,4,0,0,0,.76,1.74,1.64,1.64,0,0,0,1.26.55,5.8,5.8,0,0,0,2.12-.6l.82-.38c0-4.13-.16-8.26-.55-12.36l-.22-.11A4,4,0,0,0,7.36,238a2.91,2.91,0,0,0-1.8.58,2.64,2.64,0,0,0-1,1.77,19,19,0,0,1-4.25.43q.16-1.85.16-6.37c0-2.39,0-4.14-.16-5.22a13.86,13.86,0,0,1,4.25.54,3.6,3.6,0,0,0,1.33,2.15,21.07,21.07,0,0,0,4.17,2.21L37.3,245.62a12,12,0,0,1,.28,2c0,.67.05,1.39.05,2.15L11.11,261.84Q8.29,263.15,7,263.91a6.55,6.55,0,0,0-1.8,1.34,2.76,2.76,0,0,0-.57,1.44Zm8.49-17.48,4.63-2.07a52.54,52.54,0,0,1,7.52-2.78,66.17,66.17,0,0,1-7.52-2.61L13.07,240Zm3.49,38.5A3.94,3.94,0,0,0,18.49,291c1.29.9,3.26,1.36,5.91,1.36a11.82,11.82,0,0,0,6.37-1.5,5,5,0,0,0,2.34-4.49,5.73,5.73,0,0,0-.38-2.13H11.22q-3.54,0-5,1.25t-1.66,4.69a13.82,13.82,0,0,1-4.25.49q.16-3.11.17-10.51,0-7.08-.17-10.84a18.33,18.33,0,0,1,4.25.38,5,5,0,0,0,.6,2.32,2.69,2.69,0,0,0,1.72,1,17.08,17.08,0,0,0,3.78.3H27.23a19.08,19.08,0,0,0,3.7-.24,2.44,2.44,0,0,0,1.61-.95,6.06,6.06,0,0,0,.68-2.35,17.89,17.89,0,0,1,4.25-.49q-.16,5.18-.17,8.87l.06,7c0,1.09,0,2.32,0,3.7q0,8.06-3,11.33T26,303.49q-6.32,0-10.07-3.65T12.2,289.72a10.55,10.55,0,0,1,.55-3.7,11.4,11.4,0,0,1,1.3-.11,5.42,5.42,0,0,1,2.62.6,5.28,5.28,0,0,0-.11,1.19Zm-5.88,55.7a17.08,17.08,0,0,0-3.78.3,2.73,2.73,0,0,0-1.72,1,4.86,4.86,0,0,0-.6,2.26,16.42,16.42,0,0,1-4.25.44Q.5,345,.5,338.78q0-6.42-.17-10.29a17.62,17.62,0,0,1,2.18.16,18,18,0,0,1,2.07.39,4.6,4.6,0,0,0,.6,2.23,2.65,2.65,0,0,0,1.69,1,18.7,18.7,0,0,0,3.81.27h6.7A80.91,80.91,0,0,0,16.89,322H10.68a17.13,17.13,0,0,0-3.78.3,2.72,2.72,0,0,0-1.72,1,4.83,4.83,0,0,0-.6,2.26A16.35,16.35,0,0,1,.34,326c.11-1.64.16-4.52.16-8.66s0-7.71-.16-10.29a17.46,17.46,0,0,1,2.17.16,18,18,0,0,1,2.07.38,4.72,4.72,0,0,0,.6,2.24,2.77,2.77,0,0,0,1.69,1,19.49,19.49,0,0,0,3.81.27H27.23a19.9,19.9,0,0,0,3.7-.25,2.44,2.44,0,0,0,1.61-.95,6,6,0,0,0,.68-2.34,17.38,17.38,0,0,1,4.25-.49q-.16,2.71-.17,9.75,0,5.93.17,9.2-1.42,0-2.37-.09a7.5,7.5,0,0,1-1.88-.4,5.37,5.37,0,0,0-.63-2.29,2.49,2.49,0,0,0-1.63-1,17.93,17.93,0,0,0-3.73-.27H21.68v10.56h5.55a19.9,19.9,0,0,0,3.7-.25,2.44,2.44,0,0,0,1.61-.95,6,6,0,0,0,.68-2.34,17.38,17.38,0,0,1,4.25-.49q-.16,2.72-.17,9.75,0,5.92.17,9.2-1.42,0-2.37-.09a7.5,7.5,0,0,1-1.88-.4,5.37,5.37,0,0,0-.63-2.29,2.49,2.49,0,0,0-1.63-1,17.93,17.93,0,0,0-3.73-.27ZM37.3,378c0,2.21,0,3.9.11,5.06a16,16,0,0,1-4.19-.49,3.46,3.46,0,0,0-1.14-1.85,15.15,15.15,0,0,0-3.43-2L14,372.1H11.28a16.47,16.47,0,0,0-4.14.38A2.82,2.82,0,0,0,5.29,374a10.31,10.31,0,0,0-.71,3.51,11.83,11.83,0,0,1-2,.44A19.4,19.4,0,0,1,.33,378q.16-3.17.17-11.65,0-3.27-.11-8.72l-.06-2.88a13.57,13.57,0,0,1,4.25.65,14.92,14.92,0,0,0,.68,3.92A2.46,2.46,0,0,0,7,360.86a18.55,18.55,0,0,0,4.33.36h2.83L30,353.64q2.94-1.41,3.21-3.59a16.4,16.4,0,0,1,4.19-.44q-.1,2.61-.11,9.15,0,6.92.11,9.15a23.58,23.58,0,0,1-4.19-.39c-.14-1.2-.73-1.79-1.74-1.79a9.56,9.56,0,0,0-2.78.76l-1.52.6q-5,2-8.28,3.21,5.45,2.11,10.13,4.14a5.46,5.46,0,0,0,2.07.49,2,2,0,0,0,2.12-1.76,1.6,1.6,0,0,0,0-.31,16,16,0,0,1,4.19-.49C37.34,373.68,37.3,375.55,37.3,378Z" style="fill:#094c84"/></g></svg>
