<svg xmlns="http://www.w3.org/2000/svg" xmlns:xlink="http://www.w3.org/1999/xlink" width="302" height="411" viewBox="0 0 302 411">
  <defs>
    <clipPath id="clip-Vollkorn2">
      <rect width="302" height="411"/>
    </clipPath>
  </defs>
  <g id="Vollkorn2" clip-path="url(#clip-Vollkorn2)">
    <g id="Group_72" data-name="Group 72" transform="translate(11427 3081)">
      <path id="Path_166" data-name="Path 166" d="M12.122,10.236q4.446,0,6.536,2.071a7.143,7.143,0,0,1,2.09,5.3,9.5,9.5,0,0,1-.988,4.275,8.06,8.06,0,0,1-2.945,3.249,8.513,8.513,0,0,1-4.693,1.254,7.325,7.325,0,0,1-2.66-.418,4.652,4.652,0,0,1-.076-.722A2.9,2.9,0,0,1,9.5,24.41a8.607,8.607,0,0,0,2.014.228q5.358,0,5.358-5.928a7.4,7.4,0,0,0-1.558-5,6.088,6.088,0,0,0-4.864-1.805,9.716,9.716,0,0,0-1.938.228V30.414A7,7,0,0,0,8.854,32.9,2.063,2.063,0,0,0,9.9,34.081a5.734,5.734,0,0,0,1.995.4,5.2,5.2,0,0,1,.19,1.634Q10.336,36,7.3,36q-3.686,0-5.168.114a5.2,5.2,0,0,1,.19-1.634,2.789,2.789,0,0,0,2.071-.741,4.234,4.234,0,0,0,.551-2.565V15.138a4.234,4.234,0,0,0-.551-2.565,2.789,2.789,0,0,0-2.071-.741,5.2,5.2,0,0,1-.19-1.634q1.976.114,5.168.114ZM38.266,30.452a6.794,6.794,0,0,0,.171,1.767,1.35,1.35,0,0,0,.665.855,3.962,3.962,0,0,0,1.52.342,5.409,5.409,0,0,1-.228,1.748,11.288,11.288,0,0,0-2.109.4,10.481,10.481,0,0,0-2.033.779,1.285,1.285,0,0,1-.684-.7A3.97,3.97,0,0,1,35.34,34.1a9.62,9.62,0,0,1,.038-.988,4.925,4.925,0,0,1-1.33,1.862,5.919,5.919,0,0,1-4.028,1.292A5.511,5.511,0,0,1,26.391,35.2a3.652,3.652,0,0,1-1.273-2.964,4.422,4.422,0,0,1,1.634-3.591A9.914,9.914,0,0,1,30.4,26.728a33.5,33.5,0,0,1,4.446-.912,22.457,22.457,0,0,0-.152-3.211,3.177,3.177,0,0,0-.646-1.5,2.88,2.88,0,0,0-2.356-1.14A2.638,2.638,0,0,0,29.2,21.37a6.781,6.781,0,0,0-.855,3,8.958,8.958,0,0,1-1.1-.076,3.537,3.537,0,0,1-.874-.19q.038-.38.038-1.292a15.256,15.256,0,0,0-.228-2.85A15.326,15.326,0,0,1,29.45,18.71a12.738,12.738,0,0,1,3.192-.456A5.445,5.445,0,0,1,36.67,19.7a4.843,4.843,0,0,1,1.254,2.413,19.691,19.691,0,0,1,.342,4.161Zm-3.42-3.078a23.454,23.454,0,0,0-3.04.551A4.769,4.769,0,0,0,29.7,29.1a3.132,3.132,0,0,0-.893,2.375,2.83,2.83,0,0,0,.646,2.014,2.151,2.151,0,0,0,1.634.684,3.145,3.145,0,0,0,1.767-.57,4.229,4.229,0,0,0,1.425-1.786,7.052,7.052,0,0,0,.57-3ZM55.822,18.6a4.18,4.18,0,0,1,2.622.912,30.812,30.812,0,0,0-.266,4.484,6.8,6.8,0,0,1-2.166.342A4.43,4.43,0,0,0,55.461,22a1.553,1.553,0,0,0-1.311-.627,2.156,2.156,0,0,0-1.444.741,5.821,5.821,0,0,0-1.273,1.995,6.957,6.957,0,0,0-.513,2.66v3.648a7,7,0,0,0,.342,2.489,2.063,2.063,0,0,0,1.045,1.178,5.734,5.734,0,0,0,2,.4,5.2,5.2,0,0,1,.19,1.634Q52.744,36,49.7,36q-3.534,0-5.016.114a5.2,5.2,0,0,1,.19-1.634,2.789,2.789,0,0,0,2.071-.741,4.234,4.234,0,0,0,.551-2.565V23.65a4.493,4.493,0,0,0-.209-1.539,1.507,1.507,0,0,0-.817-.836,4.848,4.848,0,0,0-1.824-.323,2.567,2.567,0,0,1,.342-1.406,15.374,15.374,0,0,0,2.7-.456,11.178,11.178,0,0,0,2.394-.836q.836.266.836,1.672a12.1,12.1,0,0,1-.228,2.413q-.228,1.121-.266,1.311l.3-.912a4.2,4.2,0,0,1,.494-1.064Q53.162,18.6,55.822,18.6Zm19.57,11.856a6.794,6.794,0,0,0,.171,1.767,1.35,1.35,0,0,0,.665.855,3.962,3.962,0,0,0,1.52.342,5.409,5.409,0,0,1-.228,1.748,11.288,11.288,0,0,0-2.109.4,10.481,10.481,0,0,0-2.033.779,1.285,1.285,0,0,1-.684-.7,3.97,3.97,0,0,1-.228-1.539,9.621,9.621,0,0,1,.038-.988,4.925,4.925,0,0,1-1.33,1.862,5.919,5.919,0,0,1-4.028,1.292A5.511,5.511,0,0,1,63.517,35.2a3.652,3.652,0,0,1-1.273-2.964,4.422,4.422,0,0,1,1.634-3.591,9.914,9.914,0,0,1,3.648-1.919,33.5,33.5,0,0,1,4.446-.912A22.457,22.457,0,0,0,71.82,22.6a3.177,3.177,0,0,0-.646-1.5,2.88,2.88,0,0,0-2.356-1.14,2.638,2.638,0,0,0-2.489,1.406,6.781,6.781,0,0,0-.855,3,8.958,8.958,0,0,1-1.1-.076,3.537,3.537,0,0,1-.874-.19q.038-.38.038-1.292a15.255,15.255,0,0,0-.228-2.85,15.326,15.326,0,0,1,3.268-1.254,12.738,12.738,0,0,1,3.192-.456A5.445,5.445,0,0,1,73.8,19.7a4.843,4.843,0,0,1,1.254,2.413,19.692,19.692,0,0,1,.342,4.161Zm-3.42-3.078a23.454,23.454,0,0,0-3.04.551A4.769,4.769,0,0,0,66.823,29.1a3.132,3.132,0,0,0-.893,2.375,2.83,2.83,0,0,0,.646,2.014,2.151,2.151,0,0,0,1.634.684,3.145,3.145,0,0,0,1.767-.57A4.229,4.229,0,0,0,71.4,31.82a7.052,7.052,0,0,0,.57-3Zm19.152,6.232a15.612,15.612,0,0,1,4.066.418,3.831,3.831,0,0,1,2.147,1.33A4.11,4.11,0,0,1,98,37.824a6.2,6.2,0,0,1-1.235,3.534,9.466,9.466,0,0,1-3.4,2.945,9.987,9.987,0,0,1-4.788,1.159,7.931,7.931,0,0,1-5.016-1.292,4.646,4.646,0,0,1-1.6-3.838,4.287,4.287,0,0,1,2.812-4.1,2.492,2.492,0,0,1-1.425-1.007,3.5,3.5,0,0,1-.4-1.805,5.622,5.622,0,0,1,2.014-4.028A5.468,5.468,0,0,1,83.2,27.355a6.082,6.082,0,0,1-.627-2.793A6.128,6.128,0,0,1,84.36,20.04a6.835,6.835,0,0,1,5.054-1.786,7.579,7.579,0,0,1,2.394.342H98.04a8.62,8.62,0,0,1,.266,2.356,27.292,27.292,0,0,0-3.686-.608,5.8,5.8,0,0,1,1.311,1.976,5.514,5.514,0,0,1,.437,2.014,6.17,6.17,0,0,1-1.824,4.579,6.872,6.872,0,0,1-5.054,1.805,8.344,8.344,0,0,1-2.926-.494,2.66,2.66,0,0,0-.95,1.786,1.3,1.3,0,0,0,.38,1.045,2.881,2.881,0,0,0,1.482.437Q88.578,33.606,91.124,33.606Zm-2.09-13.642a2.454,2.454,0,0,0-2.2,1.2,5.314,5.314,0,0,0-.76,2.907A5.654,5.654,0,0,0,87.1,27.7a3.457,3.457,0,0,0,2.85,1.273,2.443,2.443,0,0,0,2.071-1.064,5.01,5.01,0,0,0,.779-3,5.937,5.937,0,0,0-1.007-3.515A3.2,3.2,0,0,0,89.034,19.964Zm.456,23.484a6.686,6.686,0,0,0,2.831-.57,4.467,4.467,0,0,0,1.881-1.52,3.579,3.579,0,0,0,.646-2.052,2.285,2.285,0,0,0-.494-1.577,3.336,3.336,0,0,0-1.843-.817,21.8,21.8,0,0,0-3.933-.266q-.912,0-2.052-.076a3.463,3.463,0,0,0-1.007,1.292,4.35,4.35,0,0,0-.285,1.672,3.958,3.958,0,0,0,.988,2.945A4.56,4.56,0,0,0,89.49,43.448ZM113.506,18.6a4.18,4.18,0,0,1,2.622.912,30.811,30.811,0,0,0-.266,4.484,6.8,6.8,0,0,1-2.166.342A4.43,4.43,0,0,0,113.145,22a1.553,1.553,0,0,0-1.311-.627,2.156,2.156,0,0,0-1.444.741,5.822,5.822,0,0,0-1.273,1.995,6.957,6.957,0,0,0-.513,2.66v3.648a7,7,0,0,0,.342,2.489,2.063,2.063,0,0,0,1.045,1.178,5.734,5.734,0,0,0,1.995.4,5.2,5.2,0,0,1,.19,1.634Q110.428,36,107.388,36q-3.534,0-5.016.114a5.2,5.2,0,0,1,.19-1.634,2.789,2.789,0,0,0,2.071-.741,4.234,4.234,0,0,0,.551-2.565V23.65a4.493,4.493,0,0,0-.209-1.539,1.507,1.507,0,0,0-.817-.836,4.848,4.848,0,0,0-1.824-.323,2.567,2.567,0,0,1,.342-1.406,15.374,15.374,0,0,0,2.7-.456,11.178,11.178,0,0,0,2.394-.836q.836.266.836,1.672a12.1,12.1,0,0,1-.228,2.413q-.228,1.121-.266,1.311l.3-.912a4.2,4.2,0,0,1,.494-1.064Q110.846,18.6,113.506,18.6Zm19.57,11.856a6.8,6.8,0,0,0,.171,1.767,1.35,1.35,0,0,0,.665.855,3.962,3.962,0,0,0,1.52.342,5.409,5.409,0,0,1-.228,1.748,11.287,11.287,0,0,0-2.109.4,10.481,10.481,0,0,0-2.033.779,1.285,1.285,0,0,1-.684-.7,3.97,3.97,0,0,1-.228-1.539,9.616,9.616,0,0,1,.038-.988,4.925,4.925,0,0,1-1.33,1.862,5.919,5.919,0,0,1-4.028,1.292A5.511,5.511,0,0,1,121.2,35.2a3.652,3.652,0,0,1-1.273-2.964,4.422,4.422,0,0,1,1.634-3.591,9.914,9.914,0,0,1,3.648-1.919,33.5,33.5,0,0,1,4.446-.912A22.456,22.456,0,0,0,129.5,22.6a3.177,3.177,0,0,0-.646-1.5,2.88,2.88,0,0,0-2.356-1.14,2.638,2.638,0,0,0-2.489,1.406,6.781,6.781,0,0,0-.855,3,8.958,8.958,0,0,1-1.1-.076,3.537,3.537,0,0,1-.874-.19q.038-.38.038-1.292a15.255,15.255,0,0,0-.228-2.85,15.326,15.326,0,0,1,3.268-1.254,12.738,12.738,0,0,1,3.192-.456A5.445,5.445,0,0,1,131.48,19.7a4.843,4.843,0,0,1,1.254,2.413,19.69,19.69,0,0,1,.342,4.161Zm-3.42-3.078a23.454,23.454,0,0,0-3.04.551,4.769,4.769,0,0,0-2.109,1.178,3.132,3.132,0,0,0-.893,2.375,2.83,2.83,0,0,0,.646,2.014,2.151,2.151,0,0,0,1.634.684,3.145,3.145,0,0,0,1.767-.57,4.229,4.229,0,0,0,1.425-1.786,7.052,7.052,0,0,0,.57-3Zm19.228,8.968a9.931,9.931,0,0,1-3.154-.532v3.8a7,7,0,0,0,.342,2.489,2.063,2.063,0,0,0,1.045,1.178,5.734,5.734,0,0,0,2,.4,5.2,5.2,0,0,1,.19,1.634q-1.748-.114-4.788-.114-3.534,0-5.016.114a5.2,5.2,0,0,1,.19-1.634,2.789,2.789,0,0,0,2.071-.741,4.234,4.234,0,0,0,.551-2.565V23.65a4.493,4.493,0,0,0-.209-1.539,1.507,1.507,0,0,0-.817-.836,4.848,4.848,0,0,0-1.824-.323,2.567,2.567,0,0,1,.342-1.406,15.375,15.375,0,0,0,2.7-.456,11.179,11.179,0,0,0,2.394-.836q.836.266.836,1.672a4.924,4.924,0,0,1-.133,1.159q-.133.551-.437,1.577a17.629,17.629,0,0,1,.874-1.6,5.979,5.979,0,0,1,2.033-1.919,5.854,5.854,0,0,1,3.173-.893,6.774,6.774,0,0,1,5.263,2.014q1.843,2.014,1.843,6.08a10.927,10.927,0,0,1-1.178,5.092,8.875,8.875,0,0,1-3.344,3.591A9.351,9.351,0,0,1,148.884,36.342Zm1.444-15.694a3.975,3.975,0,0,0-3.249,1.786,9.065,9.065,0,0,0-1.349,5.472v5.358a5.689,5.689,0,0,0,1.5.988,4.558,4.558,0,0,0,1.843.342,5.434,5.434,0,0,0,2.508-.646,5.188,5.188,0,0,0,2.128-2.3,9.609,9.609,0,0,0,.874-4.465,8.4,8.4,0,0,0-1.2-4.75A3.57,3.57,0,0,0,150.328,20.648ZM181.716,34.48a5.425,5.425,0,0,1,.19,1.634Q180.272,36,177.764,36q-1.558,0-3.762.076a5.746,5.746,0,0,1-.76.038,5.2,5.2,0,0,1,.19-1.634,2.5,2.5,0,0,0,2.014-.722,4.107,4.107,0,0,0,.608-2.584V25.4a5.418,5.418,0,0,0-.931-3.572,3.276,3.276,0,0,0-2.6-1.064,3.7,3.7,0,0,0-2.052.646,4.58,4.58,0,0,0-1.615,2.09,9.088,9.088,0,0,0-.627,3.61v4.066a4.309,4.309,0,0,0,.57,2.6,2.522,2.522,0,0,0,2.052.7,5.425,5.425,0,0,1,.19,1.634Q167.846,36,166.516,36q-2.85,0-4.522.114a5.2,5.2,0,0,1,.19-1.634,2.522,2.522,0,0,0,2.052-.7,4.309,4.309,0,0,0,.57-2.6V14.15a5.1,5.1,0,0,0-.19-1.558,1.429,1.429,0,0,0-.8-.855,4.608,4.608,0,0,0-1.862-.285,2.567,2.567,0,0,1,.342-1.406,12.538,12.538,0,0,0,2.7-.418,7.592,7.592,0,0,0,2.394-.874q.836.266.836,1.52v9.652a8.92,8.92,0,0,1-.266,2.242,3.381,3.381,0,0,0,.209-.4,3.359,3.359,0,0,1,.361-.589,6.836,6.836,0,0,1,2.223-1.9,6.506,6.506,0,0,1,3.287-.836,5.372,5.372,0,0,1,3.914,1.482q1.52,1.482,1.52,4.712v6.536a4.554,4.554,0,0,0,.532,2.6A2.006,2.006,0,0,0,181.716,34.48Z" transform="translate(-11324.832 -2715.012)" fill="#258abf"/>
      <path id="Path_167" data-name="Path 167" d="M9.178.234A8.01,8.01,0,0,1,4.9-.923,7.881,7.881,0,0,1,1.963-4.16,10.391,10.391,0,0,1,.91-8.918,9.239,9.239,0,0,1,2.119-13.78a7.861,7.861,0,0,1,3.2-3.016A9.283,9.283,0,0,1,9.594-17.81a12.556,12.556,0,0,1,2.938.325,14.662,14.662,0,0,1,2.834,1.027,21.016,21.016,0,0,0-.286,4.03,3.637,3.637,0,0,1-1.378.234,5.412,5.412,0,0,0-1.066-3.575A3.812,3.812,0,0,0,9.8-16.744a5.831,5.831,0,0,0-3.484.988,5.8,5.8,0,0,0-2.028,2.6A9.37,9.37,0,0,0,3.64-9.62a10.8,10.8,0,0,0,.793,4.225,6.775,6.775,0,0,0,2.3,2.964A5.917,5.917,0,0,0,10.27-1.352a8.256,8.256,0,0,0,2.522-.416A10.6,10.6,0,0,0,15.21-2.886a1.4,1.4,0,0,1,.3.377,1.245,1.245,0,0,1,.169.429A11.69,11.69,0,0,1,12.6-.312,9.93,9.93,0,0,1,9.178.234ZM31.408-1.04a3.712,3.712,0,0,1,.13,1.118Q30.42,0,28.7,0,27.638,0,26.13.052a3.931,3.931,0,0,1-.52.026,3.56,3.56,0,0,1,.13-1.118,1.71,1.71,0,0,0,1.378-.494A2.81,2.81,0,0,0,27.534-3.3V-7.254A3.707,3.707,0,0,0,26.9-9.7a2.241,2.241,0,0,0-1.781-.728,2.53,2.53,0,0,0-1.4.442,3.133,3.133,0,0,0-1.105,1.43,6.218,6.218,0,0,0-.429,2.47V-3.3a2.948,2.948,0,0,0,.39,1.781,1.725,1.725,0,0,0,1.4.481A3.712,3.712,0,0,1,24.1.078Q21.918,0,21.008,0q-1.95,0-3.094.078a3.56,3.56,0,0,1,.13-1.118,1.725,1.725,0,0,0,1.4-.481,2.948,2.948,0,0,0,.39-1.781V-14.95a3.489,3.489,0,0,0-.13-1.066.978.978,0,0,0-.546-.585,3.153,3.153,0,0,0-1.274-.2,1.757,1.757,0,0,1,.234-.962,8.579,8.579,0,0,0,1.846-.286,5.194,5.194,0,0,0,1.638-.6q.572.182.572,1.04V-11A6.1,6.1,0,0,1,22-9.464a2.315,2.315,0,0,0,.143-.273,2.3,2.3,0,0,1,.247-.4,4.677,4.677,0,0,1,1.521-1.3,4.452,4.452,0,0,1,2.249-.572A3.675,3.675,0,0,1,28.834-11a4.341,4.341,0,0,1,1.04,3.224V-3.3a3.116,3.116,0,0,0,.364,1.781A1.373,1.373,0,0,0,31.408-1.04ZM42.77-3.8a4.649,4.649,0,0,0,.117,1.209A.924.924,0,0,0,43.342-2a2.711,2.711,0,0,0,1.04.234,3.7,3.7,0,0,1-.156,1.2A7.723,7.723,0,0,0,42.783-.3a7.171,7.171,0,0,0-1.391.533.879.879,0,0,1-.468-.481A2.717,2.717,0,0,1,40.768-1.3a6.582,6.582,0,0,1,.026-.676A3.37,3.37,0,0,1,39.884-.7a4.05,4.05,0,0,1-2.756.884,3.771,3.771,0,0,1-2.483-.728,2.5,2.5,0,0,1-.871-2.028,3.025,3.025,0,0,1,1.118-2.457,6.783,6.783,0,0,1,2.5-1.313,22.918,22.918,0,0,1,3.042-.624,15.365,15.365,0,0,0-.1-2.2,2.174,2.174,0,0,0-.442-1.027,1.971,1.971,0,0,0-1.612-.78,1.805,1.805,0,0,0-1.7.962,4.64,4.64,0,0,0-.585,2.054,6.129,6.129,0,0,1-.754-.052,2.42,2.42,0,0,1-.6-.13q.026-.26.026-.884a10.438,10.438,0,0,0-.156-1.95,10.486,10.486,0,0,1,2.236-.858,8.716,8.716,0,0,1,2.184-.312,3.725,3.725,0,0,1,2.756.988A3.314,3.314,0,0,1,42.536-9.5a13.473,13.473,0,0,1,.234,2.847ZM40.43-5.9a16.047,16.047,0,0,0-2.08.377,3.263,3.263,0,0,0-1.443.806A2.143,2.143,0,0,0,36.3-3.094a1.936,1.936,0,0,0,.442,1.378,1.472,1.472,0,0,0,1.118.468,2.152,2.152,0,0,0,1.209-.39A2.894,2.894,0,0,0,40.04-2.86a4.825,4.825,0,0,0,.39-2.054ZM54-11.908a2.86,2.86,0,0,1,1.794.624,21.081,21.081,0,0,0-.182,3.068,4.656,4.656,0,0,1-1.482.234,3.031,3.031,0,0,0-.377-1.6,1.063,1.063,0,0,0-.9-.429,1.475,1.475,0,0,0-.988.507A3.983,3.983,0,0,0,51-8.138a4.76,4.76,0,0,0-.351,1.82v2.5a4.793,4.793,0,0,0,.234,1.7,1.412,1.412,0,0,0,.715.806,3.923,3.923,0,0,0,1.365.273,3.56,3.56,0,0,1,.13,1.118Q51.9,0,49.816,0,47.4,0,46.384.078a3.56,3.56,0,0,1,.13-1.118,1.908,1.908,0,0,0,1.417-.507A2.9,2.9,0,0,0,48.308-3.3V-8.45A3.074,3.074,0,0,0,48.165-9.5a1.031,1.031,0,0,0-.559-.572,3.317,3.317,0,0,0-1.248-.221,1.757,1.757,0,0,1,.234-.962,10.519,10.519,0,0,0,1.846-.312,7.648,7.648,0,0,0,1.638-.572q.572.182.572,1.144a8.281,8.281,0,0,1-.156,1.651q-.156.767-.182.9l.208-.624a2.876,2.876,0,0,1,.338-.728A3.761,3.761,0,0,1,54-11.908ZM66.612-3.8a4.649,4.649,0,0,0,.117,1.209A.924.924,0,0,0,67.184-2a2.711,2.711,0,0,0,1.04.234,3.7,3.7,0,0,1-.156,1.2A7.723,7.723,0,0,0,66.625-.3a7.171,7.171,0,0,0-1.391.533.879.879,0,0,1-.468-.481A2.717,2.717,0,0,1,64.61-1.3a6.582,6.582,0,0,1,.026-.676A3.37,3.37,0,0,1,63.726-.7,4.05,4.05,0,0,1,60.97.182a3.771,3.771,0,0,1-2.483-.728,2.5,2.5,0,0,1-.871-2.028,3.025,3.025,0,0,1,1.118-2.457,6.783,6.783,0,0,1,2.5-1.313,22.918,22.918,0,0,1,3.042-.624,15.364,15.364,0,0,0-.1-2.2,2.174,2.174,0,0,0-.442-1.027,1.971,1.971,0,0,0-1.612-.78,1.805,1.805,0,0,0-1.7.962,4.64,4.64,0,0,0-.585,2.054,6.129,6.129,0,0,1-.754-.052,2.42,2.42,0,0,1-.6-.13q.026-.26.026-.884a10.438,10.438,0,0,0-.156-1.95,10.486,10.486,0,0,1,2.236-.858,8.716,8.716,0,0,1,2.184-.312,3.725,3.725,0,0,1,2.756.988A3.314,3.314,0,0,1,66.378-9.5a13.473,13.473,0,0,1,.234,2.847ZM64.272-5.9a16.047,16.047,0,0,0-2.08.377,3.263,3.263,0,0,0-1.443.806,2.143,2.143,0,0,0-.611,1.625,1.936,1.936,0,0,0,.442,1.378,1.472,1.472,0,0,0,1.118.468,2.152,2.152,0,0,0,1.209-.39,2.894,2.894,0,0,0,.975-1.222,4.825,4.825,0,0,0,.39-2.054ZM75.712.234a5.208,5.208,0,0,1-2.613-.7,5.334,5.334,0,0,1-2.015-2.093A6.73,6.73,0,0,1,70.3-5.9a7.391,7.391,0,0,1,.637-3.042A5.619,5.619,0,0,1,72.8-11.258a4.835,4.835,0,0,1,2.912-.884,6.156,6.156,0,0,1,3.926,1.17,19.867,19.867,0,0,0-.182,2.964,2.641,2.641,0,0,1-1.2.208,4.007,4.007,0,0,0-.884-2.3A2.391,2.391,0,0,0,75.5-10.92a2.288,2.288,0,0,0-2.041,1.209,6.566,6.566,0,0,0-.741,3.419,6.9,6.9,0,0,0,.442,2.483A4.454,4.454,0,0,0,74.438-1.95a3,3,0,0,0,2,.7,3.329,3.329,0,0,0,1.573-.39,4.1,4.1,0,0,0,1.313-1.118,1.381,1.381,0,0,1,.39.3,1.166,1.166,0,0,1,.26.429A4.716,4.716,0,0,1,75.712.234Zm10.582,0a2.966,2.966,0,0,1-2.288-.793,3.721,3.721,0,0,1-.728-2.561v-7.046a7.7,7.7,0,0,0-1.872-.338,2.874,2.874,0,0,1,.234-1.144h1.638V-15.08A5.239,5.239,0,0,0,85.2-16.12a.633.633,0,0,1,.338.351,3.863,3.863,0,0,1,.078,1v3.12H89a3.137,3.137,0,0,1-.234,1.144,19.366,19.366,0,0,0-3.146.338v6.5q0,2.5,1.508,2.5a2.544,2.544,0,0,0,.923-.156,3.021,3.021,0,0,0,.793-.468,1.553,1.553,0,0,1,.39.858A3.378,3.378,0,0,1,87.945-.1,4.428,4.428,0,0,1,86.294.234ZM100.308-2.73a1.722,1.722,0,0,1,.4.364.884.884,0,0,1,.221.442A5.3,5.3,0,0,1,98.917-.273,6.332,6.332,0,0,1,96.3.234a5.36,5.36,0,0,1-3.029-.819,5.08,5.08,0,0,1-1.859-2.223,7.665,7.665,0,0,1-.624-3.146,7.154,7.154,0,0,1,.663-3.094A5.565,5.565,0,0,1,93.34-11.3a4.86,4.86,0,0,1,2.834-.845A4.209,4.209,0,0,1,99.7-10.673a7.026,7.026,0,0,1,1.339,3.913,2.06,2.06,0,0,1-.39.884q-4.576,0-7.28.13a6.376,6.376,0,0,0,1,3.263,3.127,3.127,0,0,0,2.769,1.261,4,4,0,0,0,1.716-.39A4.317,4.317,0,0,0,100.308-2.73ZM95.94-10.894a2.215,2.215,0,0,0-1.768.884,5.119,5.119,0,0,0-.832,2.964h4.992a5.36,5.36,0,0,0-.637-2.8A1.963,1.963,0,0,0,95.94-10.894Zm14.716-1.014a2.86,2.86,0,0,1,1.794.624,21.082,21.082,0,0,0-.182,3.068,4.656,4.656,0,0,1-1.482.234,3.031,3.031,0,0,0-.377-1.6,1.063,1.063,0,0,0-.9-.429,1.475,1.475,0,0,0-.988.507,3.983,3.983,0,0,0-.871,1.365,4.76,4.76,0,0,0-.351,1.82v2.5a4.793,4.793,0,0,0,.234,1.7,1.412,1.412,0,0,0,.715.806,3.923,3.923,0,0,0,1.365.273,3.56,3.56,0,0,1,.13,1.118Q108.55,0,106.47,0q-2.418,0-3.432.078a3.56,3.56,0,0,1,.13-1.118,1.908,1.908,0,0,0,1.417-.507,2.9,2.9,0,0,0,.377-1.755V-8.45a3.074,3.074,0,0,0-.143-1.053,1.031,1.031,0,0,0-.559-.572,3.317,3.317,0,0,0-1.248-.221,1.757,1.757,0,0,1,.234-.962,10.519,10.519,0,0,0,1.846-.312,7.648,7.648,0,0,0,1.638-.572q.572.182.572,1.144a8.281,8.281,0,0,1-.156,1.651q-.156.767-.182.9l.208-.624a2.876,2.876,0,0,1,.338-.728A3.761,3.761,0,0,1,110.656-11.908Z" transform="translate(-11359.452 -2798.163)" fill="#2371aa"/>
      <path id="Path_168" data-name="Path 168" d="M21.76.72A30.707,30.707,0,0,1,12.8-.52,40.776,40.776,0,0,1,4.4-4.24a69.935,69.935,0,0,0,.88-12,20.555,20.555,0,0,1,6.08-.72q.4,6.8,2.88,9.88T22.4-4q4.8,0,7.12-2.04a6.749,6.749,0,0,0,2.32-5.32A7.091,7.091,0,0,0,30.4-15.8a12,12,0,0,0-3.6-3.12Q24.64-20.16,20.72-22a79.078,79.078,0,0,1-7.96-4.32,17.448,17.448,0,0,1-5.16-5.2,14.529,14.529,0,0,1-2.16-8.16q0-7.28,4.68-11.2T22.64-54.8a33.036,33.036,0,0,1,8.12,1,20.877,20.877,0,0,1,6.28,2.52,86.98,86.98,0,0,0,.48,11.04,8.906,8.906,0,0,1-2.76.84,20.212,20.212,0,0,1-3.24.28q-1.12-6.4-3.28-8.8a7.659,7.659,0,0,0-6-2.4,9.109,9.109,0,0,0-5.92,1.76,6.128,6.128,0,0,0-2.16,5.04,7.285,7.285,0,0,0,1.56,4.68,14.044,14.044,0,0,0,3.84,3.32q2.28,1.36,6.28,3.28a71.964,71.964,0,0,1,7.92,4.28,18.263,18.263,0,0,1,5.2,5.12,13.5,13.5,0,0,1,2.16,7.8A14.486,14.486,0,0,1,36.16-3.68Q31.2.72,21.76.72ZM62,.72q-5.36,0-7.92-2.76t-2.56-8.92V-30.4a19.826,19.826,0,0,0-5.84-1.04,10.117,10.117,0,0,1,.88-4.4h4.96V-46a15.514,15.514,0,0,0,4.36-1.36A19.323,19.323,0,0,0,59.6-49.6a2.184,2.184,0,0,1,1.36,1.24,11.485,11.485,0,0,1,.32,3.4v9.12H71.36a14.074,14.074,0,0,1-.72,4.48,41.3,41.3,0,0,0-9.36,1.12v17.76q0,4.4,1.08,6.2a3.605,3.605,0,0,0,3.32,1.8A8.308,8.308,0,0,0,70.72-6a6.33,6.33,0,0,1,1.2,3.44A11.629,11.629,0,0,1,67.64-.24,17.528,17.528,0,0,1,62,.72Zm47.04-37.36q5.52,0,7.92-.24a11.793,11.793,0,0,1-.64,4.4,6.137,6.137,0,0,0-3.24,1.96,25.282,25.282,0,0,0-2.92,5.48L98.4,2.96a73.574,73.574,0,0,1-5.24,10.8,15.485,15.485,0,0,1-4.32,4.88A8.918,8.918,0,0,1,84,19.92a10.81,10.81,0,0,1-4.16-.76,8.061,8.061,0,0,1-2.88-1.88,10.058,10.058,0,0,1-.16-2.16,14.435,14.435,0,0,1,.56-4.56,30.98,30.98,0,0,0,6.48.8,9.326,9.326,0,0,0,4.44-1A8.975,8.975,0,0,0,91.6,7.04a47.4,47.4,0,0,0,2.64-5.28q-7.76-17.6-11.76-25.92a32.5,32.5,0,0,0-3.68-6.36,5.878,5.878,0,0,0-3.36-1.96,13.619,13.619,0,0,1-.64-4.32q6.08.16,10.08.16,5.12,0,11.68-.16a10.7,10.7,0,0,1-.72,4.32,9.611,9.611,0,0,0-3.52,1.08,2.275,2.275,0,0,0-1.04,2.04,13.437,13.437,0,0,0,1.6,4.8A122,122,0,0,1,99.2-9.92l5.52-13.92A14.058,14.058,0,0,0,106-28.8a2.931,2.931,0,0,0-1.04-2.48,7.571,7.571,0,0,0-3.2-1.2,11.9,11.9,0,0,1-.64-4.32Q103.6-36.64,109.04-36.64ZM120.48.24a14.561,14.561,0,0,1,.48-4.32q3.2-.08,4.32-1.52t1.12-5.44V-45.36a5.8,5.8,0,0,0-1.16-4.04q-1.16-1.24-4.84-1.32a7.823,7.823,0,0,1,.8-3.92,35.957,35.957,0,0,0,7.24-.84,17.853,17.853,0,0,0,5.64-1.88q2.08.8,2.08,3.84v42.48q0,4,1.04,5.44t3.84,1.52a14.561,14.561,0,0,1,.48,4.32Q137.84,0,131.04,0,124.08,0,120.48.24ZM178.32-8.8a3.287,3.287,0,0,1,1.36,1.4,4.919,4.919,0,0,1,.64,2.04,18.031,18.031,0,0,1-6.56,4.6A22.6,22.6,0,0,1,165.28.72q-9.12,0-13.76-5.24t-4.64-13.64a21.776,21.776,0,0,1,2.16-9.8,16.645,16.645,0,0,1,6.2-6.88,17.39,17.39,0,0,1,9.4-2.52q7.84,0,11.72,4.56t4.36,12.32a7.694,7.694,0,0,1-1.68,3.36q-13.84,0-21.84.4A16.064,16.064,0,0,0,160.44-8q2.68,3.28,7.96,3.28a14.24,14.24,0,0,0,5.44-1.08A12.855,12.855,0,0,0,178.32-8.8ZM164.24-32.88a5.912,5.912,0,0,0-5,2.76q-1.96,2.76-2.2,8.76H170.8a17.4,17.4,0,0,0-1.72-8.44A5.324,5.324,0,0,0,164.24-32.88Z" transform="translate(-11328.832 -2730.012)" fill="#5f88b1"/>
      <path id="Path_191" data-name="Path 191" d="M17.29-40.17V-22.1h3.185q3.51,0,4.81-1.04t1.365-3.9a13.8,13.8,0,0,1,4.485-.65q-.195,3.185-.195,7.345,0,4.615.195,7.67a14.734,14.734,0,0,1-4.355-.52q-.26-2.99-1.56-4.03t-4.745-1.04H17.29v7.02a12.223,12.223,0,0,0,.617,4.355A4.065,4.065,0,0,0,19.89-4.648a10.653,10.653,0,0,0,3.835.878A12.465,12.465,0,0,1,24.18.2Q20.865,0,13.845,0,6.305,0,2.73.2A15.772,15.772,0,0,1,3.12-3.77a6.24,6.24,0,0,0,2.73-.682,3.089,3.089,0,0,0,1.3-1.853,14.863,14.863,0,0,0,.39-3.965V-33.735a15.741,15.741,0,0,0-.358-3.932,2.861,2.861,0,0,0-1.235-1.787,6.926,6.926,0,0,0-2.7-.715,12.745,12.745,0,0,1-.52-3.965q5.135.2,14.43.2,13.65,0,18.135-.2.13,2.73.487,5.818a38.854,38.854,0,0,0,.878,5.1,10.123,10.123,0,0,1-4.81,1.04,10.3,10.3,0,0,0-2.665-5.915q-2.08-2.08-7.15-2.08ZM53.495.585q-7.67,0-11.9-4.062T37.375-14.56a16.308,16.308,0,0,1,2.112-8.45,13.951,13.951,0,0,1,5.85-5.46,18.429,18.429,0,0,1,8.417-1.885q7.8,0,12.025,4.16T70-15.145A16.477,16.477,0,0,1,67.99-6.858a13.8,13.8,0,0,1-5.753,5.493A18.645,18.645,0,0,1,53.495.585ZM54.34-3.51a4.965,4.965,0,0,0,4.518-2.8A14.769,14.769,0,0,0,60.45-13.65a20.893,20.893,0,0,0-1.007-6.858,10.033,10.033,0,0,0-2.73-4.387,5.594,5.594,0,0,0-3.738-1.5,4.89,4.89,0,0,0-4.518,2.73,14.586,14.586,0,0,0-1.527,7.15,19.393,19.393,0,0,0,1.982,9.425Q50.895-3.51,54.34-3.51Zm57.785-.26A11,11,0,0,1,112.645.2q-5.655-.2-8.06-.2-6.3,0-9.23.2A13.22,13.22,0,0,1,95.81-3.77a3.191,3.191,0,0,0,2.86-1.365,8.851,8.851,0,0,0,.91-4.68V-16.9q0-3.965-1.268-5.623a4.414,4.414,0,0,0-3.738-1.657,4.747,4.747,0,0,0-3.12,1.2A8.325,8.325,0,0,0,89.147-19.4a16.428,16.428,0,0,0-.877,5.688v4.29q0,3.25.845,4.453a3.25,3.25,0,0,0,2.86,1.2A12.013,12.013,0,0,1,92.5.2Q89.7,0,83.655,0q-6.565,0-9.49.2a11,11,0,0,1,.52-3.965q2.535,0,3.412-1.17t.877-4.485V-19.24A10.869,10.869,0,0,0,78.65-22.3a2.581,2.581,0,0,0-1.3-1.56,8.038,8.038,0,0,0-3.12-.65,7.254,7.254,0,0,1,.78-3.7,39.228,39.228,0,0,0,6.565-.683,17.486,17.486,0,0,0,4.81-1.462q1.885.715,1.885,3.51a13.566,13.566,0,0,1-.65,3.9q.13-.325.618-1.3A7.633,7.633,0,0,1,89.44-26a12.509,12.509,0,0,1,3.835-2.86,11.464,11.464,0,0,1,5.2-1.17,10.945,10.945,0,0,1,7.442,2.567q2.958,2.568,2.958,8.028v10.01a9.589,9.589,0,0,0,.715,4.42A2.679,2.679,0,0,0,112.125-3.77ZM128.895.585q-4.615,0-6.825-2.373T119.86-9.62V-24.245a14.254,14.254,0,0,0-4.81-.845,10.128,10.128,0,0,1,.78-4.03h4.03v-7.995a18.274,18.274,0,0,0,4.192-1.2A14.117,14.117,0,0,0,127.53-40.3a2.193,2.193,0,0,1,1.235,1.17,8.189,8.189,0,0,1,.325,2.8v7.215h7.995a13.754,13.754,0,0,1-.585,4.1,28.186,28.186,0,0,0-7.41.975v13.325q0,3.835.813,5.265a2.741,2.741,0,0,0,2.568,1.43,7.615,7.615,0,0,0,4.03-1.105,6.293,6.293,0,0,1,.975,3.185A10.182,10.182,0,0,1,133.77-.13,17.022,17.022,0,0,1,128.895.585Z" transform="translate(-11356.603 -2955.561)" fill="#2d7198"/>
      <path id="Path_180" data-name="Path 180" d="M5.278,18.044a8.444,8.444,0,0,1-2.7-.4A12.494,12.494,0,0,1,0,16.38a23.969,23.969,0,0,0,.234-3.692,5.6,5.6,0,0,1,1.4-.156A5.108,5.108,0,0,0,2.691,15.7,3.706,3.706,0,0,0,5.642,16.8a3.646,3.646,0,0,0,2.509-.741,2.519,2.519,0,0,0,.819-1.963,2.8,2.8,0,0,0-.52-1.716,4.4,4.4,0,0,0-1.274-1.157A22.535,22.535,0,0,0,5.07,10.14a24.893,24.893,0,0,1-2.5-1.352,5.406,5.406,0,0,1-1.6-1.6A4.451,4.451,0,0,1,.312,4.68a4.356,4.356,0,0,1,1.4-3.432A5.546,5.546,0,0,1,5.538,0,9.09,9.09,0,0,1,7.982.325a6.467,6.467,0,0,1,1.9.819,27.272,27.272,0,0,0,.156,3.432A3.879,3.879,0,0,1,8.58,4.81a5.748,5.748,0,0,0-1.092-2.9,2.6,2.6,0,0,0-1.976-.767,3.187,3.187,0,0,0-2.158.676,2.377,2.377,0,0,0-.78,1.9A2.868,2.868,0,0,0,3.107,5.46a4.5,4.5,0,0,0,1.3,1.2q.767.468,2.119,1.144A21.94,21.94,0,0,1,8.983,9.126a5.5,5.5,0,0,1,1.573,1.56,4.129,4.129,0,0,1,.65,2.366,4.973,4.973,0,0,1-.637,2.483,4.6,4.6,0,0,1-1.976,1.82A7.193,7.193,0,0,1,5.278,18.044Zm22.23,0a6.8,6.8,0,0,1-2.158-.364v2.6a4.793,4.793,0,0,0,.234,1.7,1.412,1.412,0,0,0,.715.806,3.923,3.923,0,0,0,1.365.273,3.56,3.56,0,0,1,.13,1.118q-1.2-.078-3.276-.078-2.418,0-3.432.078a3.56,3.56,0,0,1,.13-1.118,1.908,1.908,0,0,0,1.417-.507A2.9,2.9,0,0,0,23.01,20.8V9.36a3.074,3.074,0,0,0-.143-1.053,1.031,1.031,0,0,0-.559-.572,3.317,3.317,0,0,0-1.248-.221,1.757,1.757,0,0,1,.234-.962A10.519,10.519,0,0,0,23.14,6.24a7.648,7.648,0,0,0,1.638-.572q.572.182.572,1.144a3.369,3.369,0,0,1-.091.793q-.091.377-.3,1.079a12.059,12.059,0,0,1,.6-1.092,4.091,4.091,0,0,1,1.391-1.313,4.005,4.005,0,0,1,2.171-.611,4.635,4.635,0,0,1,3.6,1.378,5.986,5.986,0,0,1,1.261,4.16,7.476,7.476,0,0,1-.806,3.484,6.072,6.072,0,0,1-2.288,2.457A6.4,6.4,0,0,1,27.508,18.044ZM28.5,7.306a2.72,2.72,0,0,0-2.223,1.222,6.2,6.2,0,0,0-.923,3.744v3.666a3.893,3.893,0,0,0,1.027.676,3.119,3.119,0,0,0,1.261.234,3.718,3.718,0,0,0,1.716-.442,3.549,3.549,0,0,0,1.456-1.573,6.575,6.575,0,0,0,.6-3.055,5.75,5.75,0,0,0-.819-3.25A2.442,2.442,0,0,0,28.5,7.306Zm24.362,6.708a4.649,4.649,0,0,0,.117,1.209.924.924,0,0,0,.455.585,2.711,2.711,0,0,0,1.04.234,3.7,3.7,0,0,1-.156,1.2,7.723,7.723,0,0,0-1.443.273,7.171,7.171,0,0,0-1.391.533.879.879,0,0,1-.468-.481,2.717,2.717,0,0,1-.156-1.053,6.582,6.582,0,0,1,.026-.676,3.37,3.37,0,0,1-.91,1.274,4.05,4.05,0,0,1-2.756.884,3.771,3.771,0,0,1-2.483-.728,2.5,2.5,0,0,1-.871-2.028,3.025,3.025,0,0,1,1.118-2.457,6.783,6.783,0,0,1,2.5-1.313,22.918,22.918,0,0,1,3.042-.624,15.365,15.365,0,0,0-.1-2.2,2.174,2.174,0,0,0-.442-1.027,1.971,1.971,0,0,0-1.612-.78,1.805,1.805,0,0,0-1.7.962,4.64,4.64,0,0,0-.585,2.054,6.129,6.129,0,0,1-.754-.052,2.42,2.42,0,0,1-.6-.13q.026-.26.026-.884a10.438,10.438,0,0,0-.156-1.95,10.486,10.486,0,0,1,2.236-.858,8.716,8.716,0,0,1,2.184-.312,3.725,3.725,0,0,1,2.756.988,3.314,3.314,0,0,1,.858,1.651,13.473,13.473,0,0,1,.234,2.847Zm-2.34-2.106a16.047,16.047,0,0,0-2.08.377,3.263,3.263,0,0,0-1.443.806,2.143,2.143,0,0,0-.611,1.625,1.936,1.936,0,0,0,.442,1.378,1.472,1.472,0,0,0,1.118.468,2.152,2.152,0,0,0,1.209-.39,2.894,2.894,0,0,0,.975-1.222,4.825,4.825,0,0,0,.39-2.054ZM69.5,18.044a5.208,5.208,0,0,1-2.613-.7,5.334,5.334,0,0,1-2.015-2.093,6.73,6.73,0,0,1-.78-3.341,7.391,7.391,0,0,1,.637-3.042,5.619,5.619,0,0,1,1.859-2.314A4.835,4.835,0,0,1,69.5,5.668a6.156,6.156,0,0,1,3.926,1.17A19.867,19.867,0,0,0,73.242,9.8a2.641,2.641,0,0,1-1.2.208,4.007,4.007,0,0,0-.884-2.3A2.391,2.391,0,0,0,69.29,6.89,2.288,2.288,0,0,0,67.249,8.1a6.566,6.566,0,0,0-.741,3.419A6.9,6.9,0,0,0,66.95,14a4.454,4.454,0,0,0,1.274,1.859,3,3,0,0,0,2,.7,3.329,3.329,0,0,0,1.573-.39,4.1,4.1,0,0,0,1.313-1.118,1.381,1.381,0,0,1,.39.3,1.166,1.166,0,0,1,.26.429A4.716,4.716,0,0,1,69.5,18.044Zm23.27-2.964a1.722,1.722,0,0,1,.4.364.884.884,0,0,1,.221.442,5.3,5.3,0,0,1-2.015,1.651,6.332,6.332,0,0,1-2.613.507,5.36,5.36,0,0,1-3.029-.819A5.08,5.08,0,0,1,83.876,15a7.665,7.665,0,0,1-.624-3.146,7.154,7.154,0,0,1,.663-3.094A5.565,5.565,0,0,1,85.8,6.513a4.86,4.86,0,0,1,2.834-.845,4.209,4.209,0,0,1,3.523,1.469A7.026,7.026,0,0,1,93.5,11.05a2.06,2.06,0,0,1-.39.884q-4.576,0-7.28.13a6.376,6.376,0,0,0,1,3.263A3.127,3.127,0,0,0,89.6,16.588a4,4,0,0,0,1.716-.39A4.317,4.317,0,0,0,92.768,15.08ZM88.4,6.916a2.215,2.215,0,0,0-1.768.884,5.119,5.119,0,0,0-.832,2.964h4.992a5.36,5.36,0,0,0-.637-2.8A1.963,1.963,0,0,0,88.4,6.916Z" transform="translate(-11179.642 -2886.136) rotate(-90)" fill="#166183"/>
      <path id="Path_181" data-name="Path 181" d="M32.967-1.517A5.912,5.912,0,0,1,33.152.111Q31.45,0,28.712,0,26.085,0,24.2.111A5.276,5.276,0,0,1,24.42-1.48a3.211,3.211,0,0,0,1.887-.629,2.51,2.51,0,0,0,.481-1.776q0-.74-.111-1.85L25.345-18.426,17.686.074a3.981,3.981,0,0,1-1.517.259L7.548-18.389,6.364-6.512Q6.253-5.4,6.253-4.588a3.609,3.609,0,0,0,.574,2.349,2.81,2.81,0,0,0,1.943.758A5.747,5.747,0,0,1,8.954.111Q7.178,0,5,0t-3.7.111A5.747,5.747,0,0,1,1.48-1.48,3.269,3.269,0,0,0,3.071-2a2.742,2.742,0,0,0,.87-1.5,20.306,20.306,0,0,0,.536-3.349L5.661-20.017a8.422,8.422,0,0,0,.037-.888,2.826,2.826,0,0,0-.592-2.035,2.642,2.642,0,0,0-1.924-.592A5.509,5.509,0,0,1,3-25.123q1.11.111,2.812.111,1.369,0,2.812-.111l9.25,20.461,8.066-20.461q1.258.111,2.886.111,1.332,0,2.812-.111a6.263,6.263,0,0,1-.185,1.591,2.63,2.63,0,0,0-1.906.629A2.979,2.979,0,0,0,28.9-20.72a8.886,8.886,0,0,0,.037.925L30.266-6.216a15.845,15.845,0,0,0,.481,2.831A2.71,2.71,0,0,0,31.561-2,2.577,2.577,0,0,0,32.967-1.517ZM52.059-5.4a6.616,6.616,0,0,0,.167,1.72,1.315,1.315,0,0,0,.647.832,3.858,3.858,0,0,0,1.48.333,5.266,5.266,0,0,1-.222,1.7,10.99,10.99,0,0,0-2.054.389A10.2,10.2,0,0,0,50.1.333a1.251,1.251,0,0,1-.666-.684,3.866,3.866,0,0,1-.222-1.5,9.367,9.367,0,0,1,.037-.962A4.8,4.8,0,0,1,47.952-1,5.763,5.763,0,0,1,44.03.259,5.366,5.366,0,0,1,40.5-.777a3.556,3.556,0,0,1-1.24-2.886,4.305,4.305,0,0,1,1.591-3.5A9.653,9.653,0,0,1,44.4-9.028a32.614,32.614,0,0,1,4.329-.888,21.866,21.866,0,0,0-.148-3.126,3.093,3.093,0,0,0-.629-1.462,2.8,2.8,0,0,0-2.294-1.11,2.569,2.569,0,0,0-2.424,1.369,6.6,6.6,0,0,0-.833,2.923,8.722,8.722,0,0,1-1.073-.074,3.444,3.444,0,0,1-.851-.185q.037-.37.037-1.258a14.854,14.854,0,0,0-.222-2.775,14.922,14.922,0,0,1,3.182-1.221,12.4,12.4,0,0,1,3.108-.444,5.3,5.3,0,0,1,3.922,1.406,4.716,4.716,0,0,1,1.221,2.349,19.173,19.173,0,0,1,.333,4.052Zm-3.33-3a22.837,22.837,0,0,0-2.96.536,4.643,4.643,0,0,0-2.054,1.147A3.05,3.05,0,0,0,42.846-4.4a2.755,2.755,0,0,0,.629,1.961,2.1,2.1,0,0,0,1.591.666,3.062,3.062,0,0,0,1.721-.555A4.118,4.118,0,0,0,48.174-4.07a6.866,6.866,0,0,0,.555-2.923ZM71-16.946a4.07,4.07,0,0,1,2.553.888,30,30,0,0,0-.259,4.366,6.625,6.625,0,0,1-2.109.333,4.314,4.314,0,0,0-.537-2.275,1.513,1.513,0,0,0-1.276-.611,2.1,2.1,0,0,0-1.406.721,5.668,5.668,0,0,0-1.24,1.943,6.774,6.774,0,0,0-.5,2.59v3.552a6.82,6.82,0,0,0,.333,2.424A2.009,2.009,0,0,0,67.58-1.869a5.583,5.583,0,0,0,1.942.389A5.066,5.066,0,0,1,69.708.111Q68.006,0,65.046,0,61.6,0,60.162.111a5.066,5.066,0,0,1,.185-1.591A2.716,2.716,0,0,0,62.363-2.2,4.123,4.123,0,0,0,62.9-4.7v-7.326a4.375,4.375,0,0,0-.2-1.5,1.467,1.467,0,0,0-.8-.814,4.72,4.72,0,0,0-1.776-.314,2.5,2.5,0,0,1,.333-1.369,14.97,14.97,0,0,0,2.627-.444,10.884,10.884,0,0,0,2.331-.814q.814.259.814,1.628a11.784,11.784,0,0,1-.222,2.35q-.222,1.091-.259,1.276l.3-.888a4.093,4.093,0,0,1,.481-1.036Q68.413-16.946,71-16.946ZM87.69-2.331a15.2,15.2,0,0,1,3.959.407,3.73,3.73,0,0,1,2.09,1.3,4,4,0,0,1,.647,2.405,6.036,6.036,0,0,1-1.2,3.441,9.217,9.217,0,0,1-3.312,2.868,9.724,9.724,0,0,1-4.662,1.128,7.723,7.723,0,0,1-4.884-1.258,4.524,4.524,0,0,1-1.554-3.737,4.174,4.174,0,0,1,2.738-4,2.426,2.426,0,0,1-1.387-.981,3.406,3.406,0,0,1-.388-1.757A5.474,5.474,0,0,1,81.7-6.438a5.324,5.324,0,0,1-1.721-1.98,5.922,5.922,0,0,1-.61-2.719,5.967,5.967,0,0,1,1.739-4.4,6.655,6.655,0,0,1,4.921-1.739,7.379,7.379,0,0,1,2.331.333h6.068a8.393,8.393,0,0,1,.259,2.294,26.574,26.574,0,0,0-3.589-.592A5.644,5.644,0,0,1,92.37-13.32a5.369,5.369,0,0,1,.425,1.961A6.008,6.008,0,0,1,91.02-6.9,6.691,6.691,0,0,1,86.1-5.143a8.125,8.125,0,0,1-2.849-.481,2.59,2.59,0,0,0-.925,1.739,1.266,1.266,0,0,0,.37,1.017,2.8,2.8,0,0,0,1.443.426Q85.211-2.331,87.69-2.331ZM85.655-15.614a2.39,2.39,0,0,0-2.146,1.165,5.174,5.174,0,0,0-.74,2.831,5.505,5.505,0,0,0,1,3.533,3.366,3.366,0,0,0,2.775,1.24,2.379,2.379,0,0,0,2.016-1.036,4.878,4.878,0,0,0,.758-2.923,5.781,5.781,0,0,0-.98-3.422A3.112,3.112,0,0,0,85.655-15.614ZM86.1,7.252A6.51,6.51,0,0,0,88.855,6.7a4.349,4.349,0,0,0,1.831-1.48,3.484,3.484,0,0,0,.629-2,2.225,2.225,0,0,0-.481-1.535,3.248,3.248,0,0,0-1.795-.8A21.223,21.223,0,0,0,85.211.629q-.888,0-2-.074a3.372,3.372,0,0,0-.98,1.258,4.236,4.236,0,0,0-.278,1.628,3.854,3.854,0,0,0,.962,2.867A4.44,4.44,0,0,0,86.1,7.252ZM104.6-21.46a2.111,2.111,0,0,1-1.554-.629,2.067,2.067,0,0,1-.629-1.517,2.185,2.185,0,0,1,.647-1.609,2.1,2.1,0,0,1,1.535-.648,2.141,2.141,0,0,1,1.61.629,2.239,2.239,0,0,1,.61,1.628,2.057,2.057,0,0,1-.647,1.5A2.141,2.141,0,0,1,104.6-21.46ZM100.492.111a5.509,5.509,0,0,1,.185-1.591,2.448,2.448,0,0,0,2.017-.684A4.31,4.31,0,0,0,103.23-4.7v-7.326a4.966,4.966,0,0,0-.185-1.517,1.391,1.391,0,0,0-.777-.833,4.487,4.487,0,0,0-1.813-.277,2.5,2.5,0,0,1,.333-1.369,12.208,12.208,0,0,0,2.627-.407,7.392,7.392,0,0,0,2.331-.851q.814.259.814,1.48V-4.7a4.715,4.715,0,0,0,.481,2.535,1.938,1.938,0,0,0,1.7.684,5.747,5.747,0,0,1,.185,1.591Q107,0,104.747,0,102.342,0,100.492.111Zm33.3-1.591a5.282,5.282,0,0,1,.185,1.591Q132.386,0,129.944,0q-1.517,0-3.663.074a5.594,5.594,0,0,1-.74.037,5.066,5.066,0,0,1,.185-1.591,2.434,2.434,0,0,0,1.961-.7,4,4,0,0,0,.592-2.516v-5.624a5.275,5.275,0,0,0-.907-3.478,3.19,3.19,0,0,0-2.535-1.036,3.6,3.6,0,0,0-2,.629,4.459,4.459,0,0,0-1.573,2.035,8.848,8.848,0,0,0-.611,3.515V-4.7a4.2,4.2,0,0,0,.555,2.535,2.455,2.455,0,0,0,2,.684A5.282,5.282,0,0,1,123.4.111Q120.287,0,118.992,0q-2.812,0-4.4.111a5.066,5.066,0,0,1,.185-1.591,2.455,2.455,0,0,0,2-.684,4.2,4.2,0,0,0,.555-2.535v-7.326a4.375,4.375,0,0,0-.2-1.5,1.467,1.467,0,0,0-.8-.814,4.72,4.72,0,0,0-1.776-.314,2.5,2.5,0,0,1,.333-1.369,14.97,14.97,0,0,0,2.627-.444,10.884,10.884,0,0,0,2.331-.814q.814.259.814,1.628a8.685,8.685,0,0,1-.259,2.183,3.294,3.294,0,0,0,.2-.389,3.27,3.27,0,0,1,.352-.573,6.656,6.656,0,0,1,2.164-1.85,6.335,6.335,0,0,1,3.2-.814,5.23,5.23,0,0,1,3.811,1.443,6.178,6.178,0,0,1,1.48,4.588V-4.7a4.435,4.435,0,0,0,.518,2.535A1.954,1.954,0,0,0,133.792-1.48Z" transform="translate(-11354.767 -2897.167)" fill="#225576"/>
      <path id="Path_169" data-name="Path 169" d="M17.82-37.29q9.13,0,14.85,3.767t5.72,14q0,8.14-3.6,12.457A17.056,17.056,0,0,1,26.62-1.375,30.64,30.64,0,0,1,17.765,0Q6.6,0,2.64.165A9.367,9.367,0,0,1,2.97-2.8a5.28,5.28,0,0,0,2.31-.578,2.639,2.639,0,0,0,1.1-1.622A13.53,13.53,0,0,0,6.71-8.47V-29.15a11.124,11.124,0,0,0-.33-3.135,2.474,2.474,0,0,0-1.1-1.485,6.119,6.119,0,0,0-2.31-.6,11.07,11.07,0,0,1-.33-2.97q2.97.165,8.965.165,1.925,0,2.915-.055Zm.715,34.265a12.14,12.14,0,0,0,9.02-3.437q3.41-3.438,3.41-12.182,0-8.305-3.878-12.1a13.459,13.459,0,0,0-9.817-3.8,11.836,11.836,0,0,0-3.52.495v25.52a11.431,11.431,0,0,0,.385,3.41,2.593,2.593,0,0,0,1.4,1.623A7.462,7.462,0,0,0,18.535-3.025ZM69.465-6.05a2.26,2.26,0,0,1,.935.963,3.382,3.382,0,0,1,.44,1.4A12.4,12.4,0,0,1,66.33-.522,15.538,15.538,0,0,1,60.5.495q-6.27,0-9.46-3.6a13.62,13.62,0,0,1-3.19-9.377,14.971,14.971,0,0,1,1.485-6.738,11.444,11.444,0,0,1,4.263-4.73,11.956,11.956,0,0,1,6.462-1.733q5.39,0,8.058,3.135a14.04,14.04,0,0,1,3,8.47,5.289,5.289,0,0,1-1.155,2.31q-9.515,0-15.015.275A11.044,11.044,0,0,0,57.173-5.5a6.653,6.653,0,0,0,5.472,2.255,9.79,9.79,0,0,0,3.74-.742A8.837,8.837,0,0,0,69.465-6.05Zm-9.68-16.555a4.065,4.065,0,0,0-3.438,1.9Q55-18.81,54.835-14.685h9.46a11.959,11.959,0,0,0-1.182-5.8A3.66,3.66,0,0,0,59.785-22.605Zm39.71,4.51a6.825,6.825,0,0,1-3.63.88,6.518,6.518,0,0,0-1.705-3.96,5.086,5.086,0,0,0-3.9-1.6,3.437,3.437,0,0,0-2.283.715,2.323,2.323,0,0,0-.853,1.87,2.811,2.811,0,0,0,.412,1.568,5.245,5.245,0,0,0,1.732,1.4,32.925,32.925,0,0,0,4.07,1.87,27.5,27.5,0,0,1,4.813,2.338A7.06,7.06,0,0,1,100.6-10.56a6.74,6.74,0,0,1,.715,3.245,6.609,6.609,0,0,1-3,5.72A13.638,13.638,0,0,1,90.365.495,25.515,25.515,0,0,1,85,.028a18.145,18.145,0,0,1-4.208-1.513,34.913,34.913,0,0,0,.165-3.74q0-1.43-.11-3.08a6.944,6.944,0,0,1,3.74-.77,8.22,8.22,0,0,0,1.9,4.785,5.309,5.309,0,0,0,4.042,1.6A4.839,4.839,0,0,0,93.5-3.52a2.613,2.613,0,0,0,1.1-2.2A2.838,2.838,0,0,0,93.5-8a18.537,18.537,0,0,0-4.455-2.227,28.8,28.8,0,0,1-4.647-2.2,7.346,7.346,0,0,1-2.53-2.5,7.272,7.272,0,0,1-.853-3.712,5.566,5.566,0,0,1,1.43-3.85,8.764,8.764,0,0,1,3.685-2.392,14.081,14.081,0,0,1,4.73-.8,21.871,21.871,0,0,1,4.647.44A15.607,15.607,0,0,1,99.33-23.87q-.055.715-.055,2.2A25.575,25.575,0,0,0,99.5-18.095Zm17.82-12.65a4.146,4.146,0,0,1-2.888-1.017A3.3,3.3,0,0,1,113.3-34.32a3.556,3.556,0,0,1,1.182-2.805,4.282,4.282,0,0,1,2.943-1.045,4.386,4.386,0,0,1,3.052,1.018,3.553,3.553,0,0,1,1.127,2.778,3.282,3.282,0,0,1-1.21,2.585A4.544,4.544,0,0,1,117.315-30.745ZM110.44.165a9.572,9.572,0,0,1,.385-2.97,3.64,3.64,0,0,0,2.943-1.045,6.641,6.641,0,0,0,.743-3.74v-9.625a7.107,7.107,0,0,0-.275-2.228,2.074,2.074,0,0,0-1.155-1.21,7.017,7.017,0,0,0-2.64-.468,5.379,5.379,0,0,1,.55-2.695,24.911,24.911,0,0,0,4.95-.577,11.559,11.559,0,0,0,3.85-1.293,2.476,2.476,0,0,1,1.485,2.64V-7.59a6.852,6.852,0,0,0,.715,3.74A3.178,3.178,0,0,0,124.63-2.8a10.011,10.011,0,0,1,.33,2.97Q122.32,0,117.755,0,112.915,0,110.44.165Zm38.775-4.18q5.39.055,7.81,1.43t2.42,5a9.092,9.092,0,0,1-1.925,5.472,13.59,13.59,0,0,1-5.363,4.208,18.282,18.282,0,0,1-7.783,1.595q-5.39,0-7.783-1.815A6.162,6.162,0,0,1,134.2,6.655a5.744,5.744,0,0,1,1.045-3.437A6.841,6.841,0,0,1,138.27.935a4.462,4.462,0,0,1-2.53-4.345,8.156,8.156,0,0,1,3.08-6.05,7.86,7.86,0,0,1-3.795-7.15,8.366,8.366,0,0,1,2.8-6.6q2.8-2.475,7.865-2.475a14.254,14.254,0,0,1,3.96.5H159.5a12.98,12.98,0,0,1,.495,3.905,29.316,29.316,0,0,0-5.335-.99A9.062,9.062,0,0,1,156.5-19.5a7.483,7.483,0,0,1,.633,2.888,8.1,8.1,0,0,1-2.888,6.407q-2.888,2.5-8.223,2.5a17.966,17.966,0,0,1-4.015-.44,2.879,2.879,0,0,0-1.155,2.035,1.46,1.46,0,0,0,.77,1.4,6.114,6.114,0,0,0,2.365.523Q145.585-4.07,149.215-4.015Zm-3.575-18.92a3.183,3.183,0,0,0-2.86,1.567,7.46,7.46,0,0,0-.99,4.042,8.216,8.216,0,0,0,1.292,4.978,4.239,4.239,0,0,0,3.6,1.733,3.161,3.161,0,0,0,2.75-1.43,7.332,7.332,0,0,0,.99-4.18,8.338,8.338,0,0,0-1.292-4.84A4.038,4.038,0,0,0,145.64-22.935Zm.275,33.275a9.272,9.272,0,0,0,5.527-1.485,4.41,4.41,0,0,0,2.063-3.685,2.6,2.6,0,0,0-.633-1.87,4.051,4.051,0,0,0-2.255-.935,31.143,31.143,0,0,0-4.812-.275,33.739,33.739,0,0,1-4.4-.275,4.743,4.743,0,0,0-1.128,1.623,5.177,5.177,0,0,0-.3,1.843,4.878,4.878,0,0,0,1.375,3.85Q142.725,10.34,145.915,10.34ZM199.925-2.8a8.382,8.382,0,0,1,.385,2.97Q197.945,0,193.82,0q-2.255,0-7.37.165a8.382,8.382,0,0,1,.385-2.97,3.008,3.008,0,0,0,2.613-1.1,6.972,6.972,0,0,0,.8-3.905v-6.875q0-3.465-1.155-4.923a4.089,4.089,0,0,0-3.41-1.457,4.482,4.482,0,0,0-2.777.99,6.836,6.836,0,0,0-2.09,3.025,13.6,13.6,0,0,0-.8,4.95v4.51a6.592,6.592,0,0,0,.77,3.767,3.108,3.108,0,0,0,2.64,1.018,10.35,10.35,0,0,1,.33,2.97Q179.135,0,176.66,0q-5.005,0-7.48.165a8.663,8.663,0,0,1,.385-2.97,3.474,3.474,0,0,0,2.915-1.018,6.592,6.592,0,0,0,.77-3.767v-9.3a8.386,8.386,0,0,0-.275-2.448,2.17,2.17,0,0,0-1.128-1.292,6.378,6.378,0,0,0-2.613-.5,5.378,5.378,0,0,1,.55-2.695,24.314,24.314,0,0,0,4.923-.632,19.385,19.385,0,0,0,3.878-1.238q1.43.55,1.43,2.75a13.583,13.583,0,0,1-.495,3.3,9.694,9.694,0,0,1,1.265-2.145,10.308,10.308,0,0,1,3.245-2.557A9.639,9.639,0,0,1,188.6-25.41a8.619,8.619,0,0,1,6.023,2.172q2.393,2.173,2.393,6.793V-7.59a7.5,7.5,0,0,0,.66,3.767A2.481,2.481,0,0,0,199.925-2.8Z" transform="translate(-11324.832 -2839.879)" fill="#094c84"/>
      <path id="Path_182" data-name="Path 182" d="M8.7-2.448A5.645,5.645,0,0,0,9.768-1.256a2.368,2.368,0,0,0,1.256.408A2.406,2.406,0,0,1,10.9,0,28.166,28.166,0,0,0,7.872.112a27.046,27.046,0,0,0-1.728-2.64A21.467,21.467,0,0,0,4-5.088v2.752a3.326,3.326,0,0,0,.1.92.722.722,0,0,0,.32.44,1.628,1.628,0,0,0,.672.16,3.011,3.011,0,0,1,.1.864Q4.3,0,3.056,0,1.68,0,.768.048a3.011,3.011,0,0,1,.1-.864,1.628,1.628,0,0,0,.672-.16.722.722,0,0,0,.32-.44,3.326,3.326,0,0,0,.1-.92V-8.48a3.236,3.236,0,0,0-.1-.912.72.72,0,0,0-.32-.432A1.78,1.78,0,0,0,.864-10a3.22,3.22,0,0,1-.1-.864q.832.048,2.224.048,1.232,0,2.192-.048A2.6,2.6,0,0,1,5.072-10a1.628,1.628,0,0,0-.672.16.694.694,0,0,0-.312.44A3.615,3.615,0,0,0,4-8.48v2.688L6.736-8.624q.656-.656.656-1.024,0-.32-.5-.352a3.011,3.011,0,0,1-.1-.864q.56.048,1.7.048,1.28,0,1.9-.048a2.3,2.3,0,0,1-.128.864,2.419,2.419,0,0,0-1.08.32A5.418,5.418,0,0,0,8.016-8.672L5.7-6.208A40.737,40.737,0,0,1,8.7-2.448Zm18.928-.5a1.88,1.88,0,0,1,1.008.432,12.751,12.751,0,0,0-.5,2.544Q26.672,0,24.48,0q-3.248,0-4.4.048a2.725,2.725,0,0,1,.1-.864,1.536,1.536,0,0,0,.672-.168.768.768,0,0,0,.32-.472,3.936,3.936,0,0,0,.1-1.008V-8.48a3.236,3.236,0,0,0-.1-.912.71.71,0,0,0-.328-.432A1.858,1.858,0,0,0,20.16-10a3.466,3.466,0,0,1-.08-.864q1.1.048,3.216.048,2.512,0,4.432-.048a16.122,16.122,0,0,0,.336,2.624,1.883,1.883,0,0,1-1.008.224,2.317,2.317,0,0,0-.632-1.448A2.568,2.568,0,0,0,24.576-10H23.312v4.144H24a2.162,2.162,0,0,0,1.256-.264,1.215,1.215,0,0,0,.36-.984,3.232,3.232,0,0,1,.976-.128q-.048.784-.048,1.776,0,1.1.048,1.872a3.719,3.719,0,0,1-.944-.1,1.466,1.466,0,0,0-.408-1.048A2.028,2.028,0,0,0,24-5.008h-.688V-2.48a3.325,3.325,0,0,0,.112.992.754.754,0,0,0,.408.472A2.171,2.171,0,0,0,24.7-.88h.144A3.886,3.886,0,0,0,26.3-1.1a1.718,1.718,0,0,0,.8-.64A5.146,5.146,0,0,0,27.632-2.944Zm18.448.688a6.266,6.266,0,0,0,.544.832,1.381,1.381,0,0,0,.52.4,2.475,2.475,0,0,0,.808.16,3.114,3.114,0,0,1-.1.864,20.741,20.741,0,0,0-2.864.144q-.336-.576-.848-1.648l-.32-.656a10.082,10.082,0,0,0-.768-1.384,8.153,8.153,0,0,0-.96-1.128l-.48.016-.448-.016V-2.4a4.082,4.082,0,0,0,.088.984.7.7,0,0,0,.288.448,1.378,1.378,0,0,0,.584.152,2.549,2.549,0,0,1,.1.864Q41.568,0,40.032,0q-1.248,0-2.1.048a2.912,2.912,0,0,1,.1-.864,1.628,1.628,0,0,0,.672-.16.722.722,0,0,0,.32-.44,3.326,3.326,0,0,0,.1-.92V-8.5a3.326,3.326,0,0,0-.1-.92.713.713,0,0,0-.328-.44,1.557,1.557,0,0,0-.68-.144,3.708,3.708,0,0,1-.08-.864q.624.048,2.176.048l1.248-.016q1.056-.032,1.632-.032a4.14,4.14,0,0,1,2.728.776,2.5,2.5,0,0,1,.92,2.008,2.883,2.883,0,0,1-.688,1.96,3.587,3.587,0,0,1-1.888,1.1,4.939,4.939,0,0,1,.944.984Q45.376-3.52,46.08-2.256ZM41.168-5.584a5.251,5.251,0,0,0,.624.048,3.1,3.1,0,0,0,1.944-.584,2.035,2.035,0,0,0,.76-1.72,2.152,2.152,0,0,0-.568-1.592A2.387,2.387,0,0,0,42.176-10a3.669,3.669,0,0,0-1.008.128Zm24.656-5.232q.96,0,1.584-.048a3.331,3.331,0,0,1-.1.864.965.965,0,0,0-.592.224,1.162,1.162,0,0,0-.288.672,9.084,9.084,0,0,0-.08,1.392V0a3.416,3.416,0,0,1-.944.112l-6.24-8.24v4.976a7.853,7.853,0,0,0,.1,1.416,1.135,1.135,0,0,0,.344.688,1.28,1.28,0,0,0,.728.232,3.585,3.585,0,0,1,.08.864Q59.728,0,58.72,0q-1.168,0-1.744.048a2.912,2.912,0,0,1,.1-.864,1.253,1.253,0,0,0,.712-.232,1.175,1.175,0,0,0,.352-.7,7.281,7.281,0,0,0,.1-1.408V-9.344l-.128-.176a1.04,1.04,0,0,0-.392-.344A2.369,2.369,0,0,0,57.072-10a3.011,3.011,0,0,1-.1-.864q.528.048,1.488.048.816,0,1.312-.048l5.632,7.552v-4.4a7.456,7.456,0,0,0-.1-1.384,1.118,1.118,0,0,0-.344-.672A1.308,1.308,0,0,0,64.224-10a4.121,4.121,0,0,1-.1-.864Q64.816-10.816,65.824-10.816ZM77.952-8.48a3.236,3.236,0,0,0-.1-.912.72.72,0,0,0-.32-.432A1.78,1.78,0,0,0,76.864-10a3.22,3.22,0,0,1-.1-.864q.832.048,2.224.048,1.232,0,2.192-.048a2.6,2.6,0,0,1-.112.864,1.628,1.628,0,0,0-.672.16.694.694,0,0,0-.312.44A3.615,3.615,0,0,0,80-8.48v6.144a3.326,3.326,0,0,0,.1.92.722.722,0,0,0,.32.44,1.628,1.628,0,0,0,.672.16,3.011,3.011,0,0,1,.1.864Q80.3,0,79.056,0,77.68,0,76.768.048a3.011,3.011,0,0,1,.1-.864,1.628,1.628,0,0,0,.672-.16.722.722,0,0,0,.32-.44,3.326,3.326,0,0,0,.1-.92Zm21.52-2.336q.96,0,1.584-.048a3.331,3.331,0,0,1-.1.864.965.965,0,0,0-.592.224,1.162,1.162,0,0,0-.288.672A9.085,9.085,0,0,0,100-7.712V0a3.416,3.416,0,0,1-.944.112l-6.24-8.24v4.976a7.852,7.852,0,0,0,.1,1.416,1.135,1.135,0,0,0,.344.688,1.28,1.28,0,0,0,.728.232,3.585,3.585,0,0,1,.08.864Q93.376,0,92.368,0,91.2,0,90.624.048a2.912,2.912,0,0,1,.1-.864,1.253,1.253,0,0,0,.712-.232,1.175,1.175,0,0,0,.352-.7,7.281,7.281,0,0,0,.1-1.408V-9.344L91.76-9.52a1.04,1.04,0,0,0-.392-.344A2.369,2.369,0,0,0,90.72-10a3.011,3.011,0,0,1-.1-.864q.528.048,1.488.048.816,0,1.312-.048l5.632,7.552v-4.4a7.456,7.456,0,0,0-.1-1.384,1.118,1.118,0,0,0-.344-.672A1.308,1.308,0,0,0,97.872-10a4.122,4.122,0,0,1-.1-.864Q98.464-10.816,99.472-10.816ZM115.6.144a5.646,5.646,0,0,1-2.84-.7,4.721,4.721,0,0,1-1.888-1.976,6.448,6.448,0,0,1-.664-3.008,5.5,5.5,0,0,1,.752-2.936,4.873,4.873,0,0,1,2.032-1.856,6.308,6.308,0,0,1,2.832-.632,9.676,9.676,0,0,1,2.064.216,8.264,8.264,0,0,1,1.744.568,13.558,13.558,0,0,0-.176,2.48,3,3,0,0,1-1.088.16,2.785,2.785,0,0,0-.7-2.016,2.627,2.627,0,0,0-1.8-.56,3.115,3.115,0,0,0-1.928.584,3.475,3.475,0,0,0-1.152,1.536,5.681,5.681,0,0,0-.376,2.1,7.924,7.924,0,0,0,.4,2.608A4.06,4.06,0,0,0,114-1.464a2.824,2.824,0,0,0,1.888.664,5.2,5.2,0,0,0,.712-.04,2.569,2.569,0,0,0,.568-.152.758.758,0,0,0,.4-.36,1.924,1.924,0,0,0,.128-.824V-2.9a3.761,3.761,0,0,0-.088-.968.557.557,0,0,0-.352-.392,2.972,2.972,0,0,0-.856-.112,2.646,2.646,0,0,1-.112-.9q.72.048,2.048.048,1.12,0,2.016-.032a3.085,3.085,0,0,1-.1.88.986.986,0,0,0-.48.112.538.538,0,0,0-.192.376,5.982,5.982,0,0,0-.048.9v.608a4.62,4.62,0,0,0,.048.736,1.837,1.837,0,0,0,.192.56,6.293,6.293,0,0,1-1.832.88A7.854,7.854,0,0,1,115.6.144Z" transform="translate(-11356.07 -2933.323)" fill="#0099d1"/>
      <path id="Path_192" data-name="Path 192" d="M46.92,26.345q0,3.4.6,10.54a9.06,9.06,0,0,1-4.25.765q-.17-5.1-2.465-7.735T33.66,27.28H29.155V70.205a14.646,14.646,0,0,0,.51,4.463,3.471,3.471,0,0,0,1.912,2.125,12.493,12.493,0,0,0,4.208.807,11.639,11.639,0,0,1,.425,3.655Q30.77,81,25.075,81q-6.375,0-11.135.255a11.639,11.639,0,0,1,.425-3.655,12.941,12.941,0,0,0,4.25-.807,3.6,3.6,0,0,0,2-2.168,13.645,13.645,0,0,0,.552-4.42V27.28H16.83A12.145,12.145,0,0,0,10.8,28.513a6.954,6.954,0,0,0-3.017,3.315A28.151,28.151,0,0,0,6.2,37.65a8.245,8.245,0,0,1-4.08-.765,78.68,78.68,0,0,0,1.36-13.6q4.76.255,21.675.255,17.17,0,21.845-.255ZM85.51,42.07q5.95,0,8.5-.17a9.824,9.824,0,0,1-.51,3.655,6.233,6.233,0,0,0-3.527,2.21,35.433,35.433,0,0,0-3.357,6.63l-12.5,29.75A97.114,97.114,0,0,1,68.6,95.62a15.954,15.954,0,0,1-4.378,5.185,8.736,8.736,0,0,1-4.888,1.36,10.17,10.17,0,0,1-6.375-1.955,11.173,11.173,0,0,1-.255-2.635A18.172,18.172,0,0,1,53.04,94a31.377,31.377,0,0,0,5.44.51A9.687,9.687,0,0,0,67.065,89.5a52.705,52.705,0,0,0,3.91-7.9q-4.59-10.37-11.56-25.585-2.04-4.25-3.315-6.375A10.077,10.077,0,0,0,53.72,46.7a6.969,6.969,0,0,0-2.635-1.147,11.611,11.611,0,0,1-.51-3.655q6.46.17,9.6.17,4.335,0,11.305-.17a9.668,9.668,0,0,1-.6,3.655,10.089,10.089,0,0,0-4.165,1.318A2.885,2.885,0,0,0,65.45,49.38,14.846,14.846,0,0,0,67.235,54.9q2.89,5.865,7.65,17.51l.765-1.955,5.865-14.79a16.819,16.819,0,0,0,1.445-5.61,3.561,3.561,0,0,0-1.275-3.018,9.577,9.577,0,0,0-3.995-1.487,10.988,10.988,0,0,1-.6-3.655Q79.73,42.07,85.51,42.07Zm37.74,39.695a22.214,22.214,0,0,1-7.055-1.19v8.5a15.668,15.668,0,0,0,.765,5.568,4.615,4.615,0,0,0,2.338,2.635,12.826,12.826,0,0,0,4.463.893,11.639,11.639,0,0,1,.425,3.655q-3.91-.255-10.71-.255-7.9,0-11.22.255a11.639,11.639,0,0,1,.425-3.655q3.4-.17,4.632-1.658t1.232-5.737v-37.4a10.05,10.05,0,0,0-.467-3.443,3.37,3.37,0,0,0-1.827-1.87,10.844,10.844,0,0,0-4.08-.722,5.743,5.743,0,0,1,.765-3.145,34.39,34.39,0,0,0,6.035-1.02,25,25,0,0,0,5.355-1.87q1.87.595,1.87,3.74a11.015,11.015,0,0,1-.3,2.593q-.3,1.233-.978,3.528a39.423,39.423,0,0,1,1.955-3.57,13.373,13.373,0,0,1,4.548-4.293,13.094,13.094,0,0,1,7.1-2q7.65,0,11.772,4.505t4.123,13.6A24.442,24.442,0,0,1,141.78,70.8a19.852,19.852,0,0,1-7.48,8.032A20.916,20.916,0,0,1,123.25,81.765Zm3.23-35.1q-4.25,0-7.267,3.995T116.195,62.9V74.88a12.726,12.726,0,0,0,3.358,2.21,10.2,10.2,0,0,0,4.122.765,12.155,12.155,0,0,0,5.61-1.445,11.6,11.6,0,0,0,4.76-5.143Q136,67.57,136,61.28q0-6.63-2.677-10.625T126.48,46.66Zm59.67,25.415a5.63,5.63,0,0,1,1.318,1.19,2.89,2.89,0,0,1,.723,1.445,17.322,17.322,0,0,1-6.588,5.4,20.7,20.7,0,0,1-8.542,1.658,17.523,17.523,0,0,1-9.9-2.677,16.608,16.608,0,0,1-6.077-7.268,25.058,25.058,0,0,1-2.04-10.285,23.388,23.388,0,0,1,2.168-10.115,18.194,18.194,0,0,1,6.162-7.352,15.888,15.888,0,0,1,9.265-2.763q7.735,0,11.518,4.8T188.53,58.9a6.735,6.735,0,0,1-1.275,2.89q-14.96,0-23.8.425a20.845,20.845,0,0,0,3.272,10.667Q169.575,77,175.78,77a13.078,13.078,0,0,0,5.61-1.275A14.113,14.113,0,0,0,186.15,72.075Zm-14.28-26.69a7.241,7.241,0,0,0-5.78,2.89q-2.38,2.89-2.72,9.69h16.32a17.525,17.525,0,0,0-2.083-9.138A6.417,6.417,0,0,0,171.87,45.385Z" transform="translate(-11326.832 -3102)" fill="#094c84"/>
      <path id="Path_170" data-name="Path 170" d="M24.76,4.872V28.884a13.843,13.843,0,0,0,.43,4.06,2.888,2.888,0,0,0,1.576,1.8,10.469,10.469,0,0,0,3.611.638A13.479,13.479,0,0,1,30.95,39.9q-3.21-.174-11.177-.174-9.457,0-13.24.174a15.884,15.884,0,0,1,.2-2.32,13.733,13.733,0,0,1,.487-2.2A11.859,11.859,0,0,0,11,34.742a3.142,3.142,0,0,0,1.777-1.827,11.7,11.7,0,0,0,.516-4.031V4.872h-.115a6.1,6.1,0,0,0-4.671,1.74A12.831,12.831,0,0,0,5.9,12.3a14.7,14.7,0,0,1-5.9-.87A42.91,42.91,0,0,0,1.032,5.887a44.685,44.685,0,0,0,.4-5.539q4.815.174,17.94.174,10.431,0,17.6-.174a44.162,44.162,0,0,0,.373,5.423,50.459,50.459,0,0,0,1,5.6,15.829,15.829,0,0,1-5.961.928,13.372,13.372,0,0,0-2.207-5.713,5.2,5.2,0,0,0-4.27-1.711ZM70.212.522q3.5,0,5.33-.116a17.683,17.683,0,0,1-.516,4.466A3.559,3.559,0,0,0,73.077,6.09a16.127,16.127,0,0,0-2.063,3.654l-6.993,15.6v2.9a17.417,17.417,0,0,0,.4,4.408A3,3,0,0,0,66,34.626a10.472,10.472,0,0,0,3.7.754,13.087,13.087,0,0,1,.459,2.088,20.7,20.7,0,0,1,.115,2.436Q66.945,39.73,58,39.73q-3.439,0-9.171.116L45.8,39.9a14.682,14.682,0,0,1,.688-4.524,15.29,15.29,0,0,0,4.127-.725A2.626,2.626,0,0,0,52.186,32.8a19.707,19.707,0,0,0,.373-4.611V25.172L44.592,8.294Q43.1,5.162,40.809,4.872A17.552,17.552,0,0,1,40.35.406Q43.1.522,49.979.522q7.279,0,9.629-.116a25.535,25.535,0,0,1-.4,4.466q-1.891.232-1.891,1.856a10.447,10.447,0,0,0,.8,2.958l.63,1.624q2.121,5.278,3.382,8.816,2.235-5.8,4.356-10.788A5.725,5.725,0,0,0,67,7.134a2.064,2.064,0,0,0-2.178-2.262A17.259,17.259,0,0,1,64.308.406Q66.372.522,70.212.522Zm27,22.1a4.138,4.138,0,0,0,3.439-2.059q1.433-2.059,1.433-6.293A12.618,12.618,0,0,0,100.5,7.482a5.224,5.224,0,0,0-4.729-2.494,6.05,6.05,0,0,0-2.235.406V28.3q0,3.77,1.318,5.307t4.929,1.769A14.542,14.542,0,0,1,100.3,39.9q-3.267-.174-11.062-.174-7.451,0-11.406.174a19.367,19.367,0,0,1,.4-4.524,5.1,5.1,0,0,0,2.436-.638,2.917,2.917,0,0,0,1.089-1.827,18.717,18.717,0,0,0,.315-4.031V11.252a21.224,21.224,0,0,0-.258-3.944,2.577,2.577,0,0,0-1-1.711,6.174,6.174,0,0,0-2.465-.725A18.832,18.832,0,0,1,77.835.348q5.445.174,9.342.174L94.571.464q1.719-.058,3.9-.058,8.483,0,11.922,3.161t3.439,8.961q0,6.728-3.84,10.73t-10.661,4a10.926,10.926,0,0,1-3.9-.58,12.451,12.451,0,0,1-.115-1.392,5.752,5.752,0,0,1,.63-2.784A5.379,5.379,0,0,0,97.207,22.62Zm40.408,17.632a21.109,21.109,0,0,1-10.546-2.523,16.918,16.918,0,0,1-6.849-7.134,22.894,22.894,0,0,1-2.379-10.643,21.285,21.285,0,0,1,2.522-10.585,17.455,17.455,0,0,1,6.993-6.931A21.1,21.1,0,0,1,137.615,0a21.892,21.892,0,0,1,10.431,2.378,16.951,16.951,0,0,1,6.935,6.728A20.121,20.121,0,0,1,157.446,19.2a23.9,23.9,0,0,1-2.436,10.991,17.731,17.731,0,0,1-6.935,7.424A20.293,20.293,0,0,1,137.615,40.252Zm.688-4.524q3.5,0,5.445-4.118T145.7,20.416a29.088,29.088,0,0,0-1.06-8.12,14.1,14.1,0,0,0-3.066-5.8,6.241,6.241,0,0,0-4.7-2.146q-3.5,0-5.388,3.683T129.591,18.56A29.828,29.828,0,0,0,131.8,30.885Q134,35.728,138.3,35.728Zm43.445,4.524a22.96,22.96,0,0,1-10.861-2.407,16.469,16.469,0,0,1-6.993-6.989,23.192,23.192,0,0,1-2.436-11.02,21.73,21.73,0,0,1,2.465-10.7A16.428,16.428,0,0,1,171,2.349,23.922,23.922,0,0,1,181.977,0a29.791,29.791,0,0,1,7.107.87,36.2,36.2,0,0,1,6.362,2.146,54.039,54.039,0,0,0-.63,8.99,7.435,7.435,0,0,1-2.436.667,30.857,30.857,0,0,1-3.238.145q-.229-4.408-2.092-6.351a7.078,7.078,0,0,0-5.359-1.943,6.842,6.842,0,0,0-6.448,4,21.239,21.239,0,0,0-2.092,9.918,31.7,31.7,0,0,0,1.146,8.9,14.332,14.332,0,0,0,3.267,6.09,6.681,6.681,0,0,0,4.929,2.175,6.292,6.292,0,0,0,2.006-.232,2.516,2.516,0,0,0,1.376-1.218,6.838,6.838,0,0,0,.459-2.958V29.232a8.418,8.418,0,0,0-.315-2.639,1.993,1.993,0,0,0-1.175-1.247,8.86,8.86,0,0,0-2.579-.464,19.96,19.96,0,0,1-.4-4.466q2.293.174,7.967.174,5.846,0,8.253-.116a22.8,22.8,0,0,1-.344,4.408q-1.433.116-1.805.754a6.15,6.15,0,0,0-.373,2.668V29.7a21.167,21.167,0,0,0,.2,3.364,14.73,14.73,0,0,0,.774,2.668,23.749,23.749,0,0,1-6.677,3.277A26.272,26.272,0,0,1,181.748,40.252Zm53.877-8.874a10.584,10.584,0,0,0,1.977,2.987,4.164,4.164,0,0,0,2.493.841,16.369,16.369,0,0,1-.63,4.524,102.433,102.433,0,0,0-12.839.522q-.573-1.334-2.694-6.844l-.745-2.03A27.028,27.028,0,0,0,221.238,27a7.105,7.105,0,0,0-2.178-2.291q-1.376,0-2.121-.058V28.3a29.574,29.574,0,0,0,.258,4.611,3.215,3.215,0,0,0,.831,1.943,2.939,2.939,0,0,0,1.719.522,16.455,16.455,0,0,1,.4,4.524q-3.267-.174-10.03-.174-4.929,0-8.884.174a18.267,18.267,0,0,1,.459-4.524,4.971,4.971,0,0,0,2.379-.638,2.917,2.917,0,0,0,1.089-1.827,18.717,18.717,0,0,0,.315-4.031V11.136a19.2,19.2,0,0,0-.287-3.915,2.647,2.647,0,0,0-1.06-1.74,6.448,6.448,0,0,0-2.493-.725,16.364,16.364,0,0,1-.287-2.175q-.115-1.421-.115-2.291,4.585.232,9.858.232l3.668-.116q7.05-.174,8.2-.174a19.343,19.343,0,0,1,7.967,1.45A10.519,10.519,0,0,1,235.682,5.6a10.2,10.2,0,0,1,1.548,5.539,13.437,13.437,0,0,1-2.178,7.946,10.2,10.2,0,0,1-5.846,4.06,6.988,6.988,0,0,1,2.264,1.334,10.055,10.055,0,0,1,1.777,2.32Q234.134,28.3,235.625,31.378ZM218.659,20.184a6.258,6.258,0,0,0,4.643-2,7.769,7.769,0,0,0,1.949-5.655,9.316,9.316,0,0,0-1.6-5.8,5.145,5.145,0,0,0-4.3-2.088,7.157,7.157,0,0,0-2.407.406V19.952A9.548,9.548,0,0,0,218.659,20.184Zm62.073,15.2a17.032,17.032,0,0,1,.459,4.524q-2.293-.174-9-.174-7.91,0-10.088.174a19.148,19.148,0,0,1,.459-4.524,4.091,4.091,0,0,0,1.834-.812,1.724,1.724,0,0,0,.573-1.334,6.205,6.205,0,0,0-.63-2.262l-.4-.87a126.164,126.164,0,0,0-13.011.58l-.115.232a4.218,4.218,0,0,0-.287,1.508,3.126,3.126,0,0,0,.6,1.914,2.844,2.844,0,0,0,1.863,1.044,20.084,20.084,0,0,1,.459,4.524q-1.949-.174-6.706-.174-3.783,0-5.5.174a15.128,15.128,0,0,1,.573-4.524,3.8,3.8,0,0,0,2.264-1.421,22.789,22.789,0,0,0,2.321-4.437l12.151-29a12.674,12.674,0,0,1,2.092-.29q1.06-.058,2.264-.058L275.631,28.42q1.376,3.016,2.178,4.437a7.087,7.087,0,0,0,1.4,1.914A2.918,2.918,0,0,0,280.732,35.38Zm-18.4-9.048-2.178-4.93a55.966,55.966,0,0,1-2.923-8,71.641,71.641,0,0,1-2.751,8l-1.891,4.93Zm40.522-3.712a4.138,4.138,0,0,0,3.439-2.059q1.433-2.059,1.433-6.293a12.618,12.618,0,0,0-1.576-6.786,5.224,5.224,0,0,0-4.729-2.494,6.05,6.05,0,0,0-2.235.406V28.3q0,3.77,1.318,5.307t4.929,1.769a14.543,14.543,0,0,1,.516,4.524q-3.267-.174-11.062-.174-7.451,0-11.406.174a19.368,19.368,0,0,1,.4-4.524,5.1,5.1,0,0,0,2.436-.638,2.917,2.917,0,0,0,1.089-1.827,18.716,18.716,0,0,0,.315-4.031V11.252a21.222,21.222,0,0,0-.258-3.944,2.577,2.577,0,0,0-1-1.711A6.174,6.174,0,0,0,284,4.872a18.831,18.831,0,0,1-.516-4.524q5.445.174,9.342.174l7.394-.058q1.719-.058,3.9-.058,8.483,0,11.922,3.161t3.439,8.961q0,6.728-3.84,10.73t-10.661,4a10.926,10.926,0,0,1-3.9-.58,12.452,12.452,0,0,1-.115-1.392,5.752,5.752,0,0,1,.63-2.784A5.379,5.379,0,0,0,302.856,22.62Zm58.634,6.264a18.718,18.718,0,0,0,.315,4.031,2.917,2.917,0,0,0,1.089,1.827,4.971,4.971,0,0,0,2.379.638,17.843,17.843,0,0,1,.459,4.524q-2.579-.174-9.113-.174-6.763,0-10.833.174a18.474,18.474,0,0,1,.172-2.32,17.829,17.829,0,0,1,.4-2.2,4.779,4.779,0,0,0,2.35-.638,2.849,2.849,0,0,0,1.032-1.8,20.478,20.478,0,0,0,.287-4.06V21.75a83.816,83.816,0,0,0-11.119.522v6.612a18.716,18.716,0,0,0,.315,4.031,2.917,2.917,0,0,0,1.089,1.827,4.971,4.971,0,0,0,2.379.638,17.843,17.843,0,0,1,.459,4.524q-2.579-.174-9.113-.174-6.763,0-10.833.174a18.48,18.48,0,0,1,.172-2.32,17.835,17.835,0,0,1,.4-2.2,4.779,4.779,0,0,0,2.35-.638,2.849,2.849,0,0,0,1.032-1.8,20.478,20.478,0,0,0,.287-4.06V11.252a21.221,21.221,0,0,0-.258-3.944,2.577,2.577,0,0,0-1-1.711,6.174,6.174,0,0,0-2.465-.725A18.831,18.831,0,0,1,323.2.348q2.866.174,10.26.174,6.247,0,9.686-.174,0,1.508-.086,2.523a8.142,8.142,0,0,1-.43,2,5.577,5.577,0,0,0-2.407.667,2.7,2.7,0,0,0-1.032,1.74,19.605,19.605,0,0,0-.287,3.973v5.916h11.119V11.252a21.225,21.225,0,0,0-.258-3.944,2.577,2.577,0,0,0-1-1.711,6.174,6.174,0,0,0-2.465-.725,18.833,18.833,0,0,1-.516-4.524q2.866.174,10.26.174,6.247,0,9.686-.174,0,1.508-.086,2.523a8.144,8.144,0,0,1-.43,2,5.577,5.577,0,0,0-2.407.667,2.7,2.7,0,0,0-1.032,1.74,19.6,19.6,0,0,0-.287,3.973ZM397.885.522q3.5,0,5.33-.116a17.682,17.682,0,0,1-.516,4.466,3.559,3.559,0,0,0-1.949,1.218,16.128,16.128,0,0,0-2.063,3.654l-6.993,15.6v2.9a17.418,17.418,0,0,0,.4,4.408,3,3,0,0,0,1.576,1.972,10.471,10.471,0,0,0,3.7.754,13.084,13.084,0,0,1,.458,2.088,20.7,20.7,0,0,1,.115,2.436q-3.324-.174-12.266-.174-3.439,0-9.171.116l-3.038.058a14.68,14.68,0,0,1,.688-4.524,15.29,15.29,0,0,0,4.127-.725,2.626,2.626,0,0,0,1.576-1.856,19.71,19.71,0,0,0,.373-4.611V25.172L372.265,8.294q-1.49-3.132-3.783-3.422a17.552,17.552,0,0,1-.459-4.466q2.751.116,9.629.116,7.279,0,9.629-.116a25.534,25.534,0,0,1-.4,4.466q-1.891.232-1.891,1.856a10.446,10.446,0,0,0,.8,2.958l.63,1.624q2.121,5.278,3.382,8.816,2.235-5.8,4.356-10.788a5.725,5.725,0,0,0,.516-2.2A2.064,2.064,0,0,0,392.5,4.872a17.259,17.259,0,0,1-.516-4.466Q394.045.522,397.885.522Z" transform="translate(-11386.27 -3080.55) rotate(90)" fill="#094c84"/>
    </g>
  </g>
</svg>
